<?xml version="1.0" encoding="utf-8"?>
<!-- Generator: Adobe Illustrator 25.0.1, SVG Export Plug-In . SVG Version: 6.00 Build 0)  -->
<svg version="1.1" id="Layer_1" xmlns="http://www.w3.org/2000/svg" xmlns:xlink="http://www.w3.org/1999/xlink" x="0px" y="0px"
	 viewBox="0 0 82.1 87.1" style="enable-background:new 0 0 82.1 87.1;" xml:space="preserve">
<style type="text/css">
	.st0{fill:#FFFFFF;}
	.st1{fill-rule:evenodd;clip-rule:evenodd;fill:#EF9A9B;}
	.st2{fill-rule:evenodd;clip-rule:evenodd;fill:#C6E0A6;}
	.st3{fill-rule:evenodd;clip-rule:evenodd;fill:#B39CCB;}
	.st4{fill-rule:evenodd;clip-rule:evenodd;fill:#84D2F6;}
	.st5{fill:#FFE081;}
</style>
<path class="st0" d="M39.5,87.1L5.3,66.9L0,14.2L39.5,0l42.6,14.5L75,67.9L39.5,87.1z"/>
<path class="st1" d="M23.6,41.8c8.4,0,15.2,6.8,15.2,15.2c0,8.4-6.8,15.2-15.2,15.2c-8.4,0-15.2-6.8-15.2-15.2
	C8.3,48.6,15.1,41.8,23.6,41.8z"/>
<path class="st2" d="M39.4,3.8L78,17L43.2,35.5L39.4,3.8z"/>
<path class="st3" d="M36.7,43.5c3.5,3.4,5.8,8.2,5.8,13.5c0,9.5-7,17.3-16.1,18.6l13,7.8l10.8-5.8L55.7,33
	C55.7,33,43.7,39.6,36.7,43.5z"/>
<path class="st4" d="M59,31.3l18.9-10.4l-5.5,44.7L53.7,75.9L59,31.3z"/>
<path class="st5" d="M23.6,38.2c3.6,0,7,1.1,9.9,2.9c3.2-1.9,6.5-3.8,6.5-3.8L36.5,4.9L3.2,16.9L7,48.2
	C10.1,42.2,16.4,38.2,23.6,38.2z"/>
</svg>
