<?xml version="1.0" encoding="utf-8"?>
<!-- Generator: Adobe Illustrator 24.0.2, SVG Export Plug-In . SVG Version: 6.00 Build 0)  -->
<svg version="1.1" id="Layer_1" xmlns="http://www.w3.org/2000/svg" xmlns:xlink="http://www.w3.org/1999/xlink" x="0px" y="0px"
	 viewBox="0 0 750 1334" style="enable-background:new 0 0 750 1334;" xml:space="preserve">
<style type="text/css">
	.st0{fill:#FFFFFF;}
	.st1{fill-rule:evenodd;clip-rule:evenodd;fill:#EF9A9B;}
	.st2{fill-rule:evenodd;clip-rule:evenodd;fill:#C6E0A6;}
	.st3{fill-rule:evenodd;clip-rule:evenodd;fill:#B39CCB;}
	.st4{fill-rule:evenodd;clip-rule:evenodd;fill:#84D2F6;}
	.st5{fill:#FFE081;}
</style>
<path class="st0" d="M372.92,545.16l-34.2-20.27l-5.26-52.64l39.46-14.21l42.62,14.48l-7.1,53.43L372.92,545.16z"/>
<path class="st1" d="M357.02,499.79c8.41,0,15.24,6.81,15.24,15.21c0,8.4-6.82,15.21-15.24,15.21c-8.41,0-15.24-6.81-15.24-15.21
	C341.79,506.6,348.61,499.79,357.02,499.79z"/>
<path class="st2" d="M372.82,461.88l38.59,13.2l-34.75,18.48L372.82,461.88z"/>
<path class="st3" d="M370.17,501.49c3.55,3.43,5.77,8.23,5.77,13.55c0,9.47-7,17.29-16.11,18.62l12.97,7.79l10.81-5.82l5.59-44.58
	C389.2,491.05,377.15,497.63,370.17,501.49z"/>
<path class="st4" d="M392.48,489.33l18.87-10.36l-5.45,44.72l-18.77,10.23L392.48,489.33z"/>
<path class="st5" d="M357.1,496.2c3.65,0,7.05,1.06,9.94,2.86c3.25-1.94,6.5-3.82,6.5-3.82l-3.58-32.32l-33.28,12.06l3.77,31.28
	C343.6,500.28,349.87,496.2,357.1,496.2z"/>
</svg>
