<?xml version="1.0" encoding="utf-8"?>
<!-- Generator: Adobe Illustrator 22.0.1, SVG Export Plug-In . SVG Version: 6.00 Build 0)  -->
<svg version="1.1" xmlns="http://www.w3.org/2000/svg" xmlns:xlink="http://www.w3.org/1999/xlink" x="0px" y="0px"
	 viewBox="0 0 521 546.7" style="enable-background:new 0 0 521 546.7;" xml:space="preserve">
<style type="text/css">
	.st1{fill:#DD0031;}
	.st2{fill:#C3002F;}
	.st3{fill:#FFFFFF;}
	.st4{fill:#FFFFFF;}
</style>
<g id="Layer_1">
</g>
<g id="ppppv">
	<g>
		<polygon class="st1" points="260.5,517.7 65.1,408.9 30,108.2 260.5,27.8 491,108.2 455.9,408.9 		"/>
		<polygon class="st2" points="455.9,408.9 491,108.2 260.5,27.8 260.5,517.7 		"/>
		<path class="st3" d="M400,360.1v-2.7h-3v-2.9h-3.4v-99.9v-0.8h1.8v-2.9h2.7v-6.1h-2.7h-1.8v-13.2l8.5-8.4h2.4l1.8-3.3v-1.3h-12.7
			v-4.7h-3.1v-11.6l6.7-7.1v-1.7h-97l-0.5-3.5h-2.9l-0.2-1.1h-9c-1.1-3.4-3.1-10.3-1.7-11.1c2.6-1.5,4.4-0.7,4.6,3.2
			c0.1,3.5,1.5,6.3,1.5,6.3l2.7,0.3c0,0-1.1-3.1-1.2-5.5c-0.1-7-2.7-7.5-2.7-7.5s3.3-3.1,1.5-6.6c0,0,1,2.2,2.9,1.5
			c1.8-0.7,1.9-5.4,0.5-7.3l1.8-0.5c0,0-0.3-0.6-2.1-0.6c0,0-2.9-4.5-6.6,1.5c-3.7,6-5.4,7.2-7.2,6.8c0,0-4.8-2.2-6.2,1.9
			c-0.2-0.2-0.3-0.3-0.5-0.5c-1.2-1-1.6-3-1.7-4.6c0.4-0.8,0.7-1.9,0.7-3c0-2.7-1.3-4.9-3-4.9s-3,2.2-3,4.9c0,1,0.2,1.8,0.5,2.6
			c-0.3,0.9-0.6,1.7-0.9,2.3c-1.1-1.4-2.6-4.3-1.2-8.6c2.1-6.2,1.9-18.8-4.2-10.3v-10.8c1.6-0.6,2.7-2.2,2.7-4c0-1.5-0.8-2.9-2-3.7
			c6-0.9,9.8-10.7,6.9-9.8c-3.1,0.9-6.9,4.1-6.9,4.1c-0.2,1.4-1,1.7-1.6,1.8c0.1-0.3,0.2-0.8,0.2-1.3c0-1.1-0.4-2-0.9-2
			s-0.9,0.9-0.9,2c0,0.5,0.1,0.9,0.2,1.3c-0.6-0.1-1.4-0.5-1.6-1.8c0,0-3.9-3.2-6.9-4.1c-3-0.9,0.9,8.9,6.9,9.8
			c-1.2,0.8-2,2.1-2,3.7c0,1.8,1.1,3.4,2.7,4v10.8c-6.1-8.5-6.2,4.1-4.2,10.3c1.4,4.3-0.1,7.2-1.2,8.6c-0.3-0.7-0.7-1.4-0.9-2.3
			c0.3-0.8,0.5-1.6,0.5-2.6c0-1.4-0.4-2.6-0.9-3.5c0-0.5-0.1-1.6-0.4-2.1c0,0-0.3,0.5-0.6,1.1c-0.3-0.2-0.7-0.3-1.1-0.3
			c-0.4,0-0.7,0.1-1.1,0.3c-0.2-0.4-0.4-0.9-0.7-1.1c0,0-0.3,1-0.1,1.9c-0.6,0.9-1.1,2.2-1.1,3.7c0,1.1,0.3,2.2,0.7,3
			c-0.1,1.7-0.5,3.7-1.7,4.6c-0.2,0.1-0.3,0.3-0.5,0.5c-1.4-4.1-6.2-1.9-6.2-1.9c-1.8,0.4-3.4-0.8-7.2-6.8c-3.7-6-6.6-1.5-6.6-1.5
			c-1.8,0-2.1,0.6-2.1,0.6l1.8,0.5c-1.4,1.8-1.3,6.6,0.5,7.3c1.8,0.7,2.9-1.5,2.9-1.5c-1.8,3.5,1.5,6.6,1.5,6.6s-2.6,0.6-2.7,7.5
			c0,2.4-1.2,5.5-1.2,5.5l2.7-0.3c0,0,1.4-2.8,1.5-6.3c0.1-4,1.9-4.7,4.6-3.2c1.4,0.8-0.6,7.7-1.7,11.1h-9l-0.2,1.1h-2.9l-0.5,3.5
			h-97v1.7l6.7,7.1v11.6h-3.1v4.7h-12.7v1.3l1.8,3.3h2.4l8.5,8.4v13.2h-1.8h-2.7v6.1h2.7v2.9h1.8v0.8v99.9H124v2.9h-3v2.7h-16.2v6.9
			h154.6h2.3h154.6v-6.9H400z M173.2,354.5h-3.4v2.9h-3v2.7h-14.9v-2.7h-3v-2.9h-3.4v-99.9v-0.8h3.4v-2.9h3v-6.1h14.9v6.1h3v2.9h3.4
			V354.5z M219,354.5h-3.4v2.9h-3v2.7h-14.9v-2.7h-3v-2.9h-3.4V253.8h3.4v-2.9h3v-6.1h14.9v6.1h3v2.9h3.4V354.5z M275.7,182.2
			c0.4-0.9,0.6-1.7,0.9-2.5c0.4,0.8,0.7,1.3,0.7,1.3s2.3,4.1,1.2,7.9h-4.1C274.3,187.1,274.5,184.8,275.7,182.2z M260.5,180.7
			c3.4,0.4,4.8,5.2,5.3,8.2h-5.1h-0.3h-5.1C255.7,185.9,257.1,181.1,260.5,180.7z M243.8,181c0,0,0.3-0.5,0.7-1.3
			c0.2,0.8,0.5,1.6,0.9,2.5c1.1,2.6,1.4,4.9,1.3,6.7h-4.1C241.5,185.1,243.8,181,243.8,181z M283.9,354.5h-3.4v2.9h-3v2.7h-15.8
			h-2.3h-15.8v-2.7h-3v-2.9h-3.4V253.8h3.4v-2.9h3v-6.1h16.9h0.3h16.9v6.1h3v2.9h3.4V354.5z M329.7,354.5h-3.4v2.9h-3v2.7h-14.9
			v-2.7h-3v-2.9H302V253.8h3.4v-2.9h3v-6.1h14.9v6.1h3v2.9h3.4V354.5z M375.5,254.6v99.9H372v2.9h-3v2.7h-14.9v-2.7h-3v-2.9h-3.4
			V253.8h3.4v-2.9h3v-6.1h14.9v6.1h3v2.9h3.4V254.6z"/>
		<path class="st4" d="M400,360.1v-2.7h-3v-2.9h-3.4v-99.9v-0.8h1.8v-2.9h2.7v-6.1h-2.7h-1.8v-13.2l8.5-8.4h2.4l1.8-3.3v-1.3h-12.7
			v-4.7h-3.1v-11.6l6.7-7.1v-1.7h-97l-0.5-3.5h-2.9l-0.2-1.1h-9c-1.1-3.4-3.1-10.3-1.7-11.1c2.6-1.5,4.4-0.7,4.6,3.2
			c0.1,3.5,1.5,6.3,1.5,6.3l2.7,0.3c0,0-1.1-3.1-1.2-5.5c-0.1-7-2.7-7.5-2.7-7.5s3.3-3.1,1.5-6.6c0,0,1,2.2,2.9,1.5
			c1.8-0.7,1.9-5.4,0.5-7.3l1.8-0.5c0,0-0.3-0.6-2.1-0.6c0,0-2.9-4.5-6.6,1.5c-3.7,6-5.4,7.2-7.2,6.8c0,0-4.8-2.2-6.2,1.9
			c-0.2-0.2-0.3-0.3-0.5-0.5c-1.2-1-1.6-3-1.7-4.6c0.4-0.8,0.7-1.9,0.7-3c0-1.5-0.4-2.8-1.1-3.7c0.2-0.9-0.1-1.9-0.1-1.9
			c-0.3,0.2-0.5,0.6-0.7,1.1c-0.3-0.2-0.7-0.3-1.1-0.3c-0.4,0-0.7,0.1-1.1,0.3c-0.2-0.6-0.6-1.1-0.6-1.1c-0.3,0.5-0.4,1.6-0.4,2.1
			c-0.6,0.9-0.9,2.1-0.9,3.5c0,1,0.2,1.8,0.5,2.6c-0.3,0.9-0.6,1.7-0.9,2.3c-1.1-1.4-2.6-4.3-1.2-8.6c2.1-6.2,1.9-18.8-4.2-10.3
			v-10.8c1.6-0.6,2.7-2.2,2.7-4c0-1.5-0.8-2.9-2-3.7c6-0.9,9.8-10.7,6.9-9.8c-3.1,0.9-6.9,4.1-6.9,4.1c-0.2,1.4-1,1.7-1.6,1.8
			c0.1-0.3,0.2-0.8,0.2-1.3c0-1.1-0.4-2-0.9-2v57.1c3.4,0.4,4.8,5.2,5.3,8.2h-5.1h-0.1v55.9h0.1h16.9v6.1h3v2.9h3.4v100.7h-3.4v2.9
			h-3v2.7h-15.8h-1.1v6.9h1.1h154.6v-6.9H400z M278.4,188.9h-4.1c-0.1-1.8,0.2-4.1,1.3-6.7c0.4-0.9,0.6-1.7,0.9-2.5
			c0.4,0.8,0.7,1.3,0.7,1.3S279.5,185.1,278.4,188.9z M329.7,354.5h-3.4v2.9h-3v2.7h-14.9v-2.7h-3v-2.9H302V253.8h3.4v-2.9h3v-6.1
			h14.9v6.1h3v2.9h3.4V354.5z M375.5,254.6v99.9H372v2.9h-3v2.7h-14.9v-2.7h-3v-2.9h-3.4V253.8h3.4v-2.9h3v-6.1h14.9v6.1h3v2.9h3.4
			V254.6z"/>
	</g>
</g>
</svg>
