<svg xmlns="http://www.w3.org/2000/svg" viewBox="0 0 175.80559 188.59557"><title>angular-college</title><g style="isolation:isolate"><polygon points="87.904 8.646 87.904 27.643 87.904 27.558 87.904 114.242 87.904 114.242 87.904 179.79 87.904 179.79 155.42 142.395 167.571 37.056 87.904 8.646" fill="#e6e7e8"/><path d="M93.771,193.90945l-74.5225-41.278-.1173-.99141L5.86822,36.6607,93.771,5.31388,181.67381,36.6607,168.29729,152.63147ZM22.866,150.20591l70.905,39.27246,70.90876-39.27246L177.47354,39.27546,93.771,9.42711,10.06848,39.27546Z" transform="translate(-5.86822 -5.31388)" fill="#ed1558" style="mix-blend-mode:multiply"/><path d="M161.28844,147.709l6.56176-56.88389A50.70511,50.70511,0,1,0,124.45631,168.109Z" transform="translate(-5.86822 -5.31388)" fill="#cb1d4b" style="mix-blend-mode:multiply"/><path d="M51.28285,100.57551A35.938,35.938,0,0,0,22.481,114.9811L26.25622,147.709l39.439,21.84391a35.99449,35.99449,0,0,0-14.41235-68.97736Z" transform="translate(-5.86822 -5.31388)" fill="#741f31" style="mix-blend-mode:multiply"/><path d="M173.43959,42.37017,105.00367,17.96555a44.6333,44.6333,0,0,0,64.08777,62.099Z" transform="translate(-5.86822 -5.31388)" fill="#ab1d37" style="mix-blend-mode:multiply"/><path d="M76.211,20.22287l-62.1059,22.1473,8.39112,72.74289A55.51456,55.51456,0,1,0,76.211,20.22287Z" transform="translate(-5.86822 -5.31388)" fill="#ed1558" style="mix-blend-mode:multiply"/><path d="M93.82146,55.73855,64.4638,121.5663H75.40986l5.9018-14.72927h24.91871l5.9018,14.72927h10.94607L93.82146,55.73855Zm8.57526,42.01878H85.24619l8.57526-20.63107Z" transform="translate(-5.86822 -5.31388)" fill="#fff"/></g></svg>