<?xml version="1.0" standalone="no"?>
<svg version="1.0" xmlns="http://www.w3.org/2000/svg"
 width="500.000000pt" height="500.000000pt" viewBox="0 0 500.000000 500.000000"
 preserveAspectRatio="xMidYMid meet">

<g transform="translate(0.000000,500.000000) scale(0.100000,-0.100000)"
fill="#000000" stroke="none">
<path d="M0 3815 l0 -1185 170 0 170 0 0 40 0 40 123 0 c68 0 239 3 380 7
l257 6 0 39 0 38 190 0 190 0 28 -45 c16 -25 32 -42 36 -38 4 5 7 3 6 -2 -5
-21 0 -36 10 -30 5 3 8 0 5 -7 -9 -22 52 -85 100 -103 40 -16 46 -16 60 -2 8
9 15 21 15 27 0 8 9 6 26 -5 33 -21 65 -8 81 33 11 31 8 52 48 -288 14 -118
28 -229 30 -246 5 -27 18 -38 123 -96 64 -37 144 -81 177 -98 33 -18 69 -38
80 -45 11 -6 58 -33 105 -58 l85 -46 110 63 c61 34 171 96 245 136 74 41 151
84 171 96 l36 22 12 114 c7 62 30 248 52 413 46 352 46 345 23 362 -15 11 40
13 319 13 l337 0 0 40 0 40 103 0 c57 0 192 3 300 7 l197 6 0 39 0 38 300 0
300 0 0 930 0 930 -2500 0 -2500 0 0 -1185z m2699 -1257 c111 -249 201 -457
201 -461 0 -4 -35 -7 -77 -5 l-77 3 -41 100 -41 100 -173 0 -173 0 -41 -102
-40 -103 -79 0 c-46 0 -78 4 -76 9 17 49 405 910 409 911 4 0 97 -204 208
-452z m-1099 233 c0 -6 -4 -12 -8 -15 -5 -3 -9 1 -9 9 0 8 4 15 9 15 4 0 8 -4
8 -9z m35 -121 c10 -11 16 -20 13 -20 -3 0 -13 9 -23 20 -10 11 -16 20 -13 20
3 0 13 -9 23 -20z m70 -48 c-3 -3 -11 0 -18 7 -9 10 -8 11 6 5 10 -3 15 -9 12
-12z"/>
<path d="M2469 2654 c-41 -96 -89 -213 -89 -218 0 -3 51 -6 114 -6 l114 0 -55
133 c-30 72 -57 134 -59 136 -2 2 -13 -18 -25 -45z"/>
<path d="M1947 1383 c-17 -16 -5 -33 23 -33 l30 0 0 -80 c0 -78 1 -80 25 -80
23 0 24 3 27 78 3 76 3 77 31 80 19 2 27 9 27 23 0 17 -8 19 -78 19 -43 0 -82
-3 -85 -7z"/>
<path d="M2130 1315 c0 -67 3 -79 25 -100 30 -31 92 -34 126 -6 21 17 24 30
27 100 l4 81 -26 0 c-24 0 -25 -2 -28 -71 -2 -55 -7 -74 -20 -83 -13 -8 -23
-8 -35 0 -14 9 -19 28 -21 83 -3 68 -4 71 -27 71 -24 0 -25 -2 -25 -75z"/>
<path d="M2347 1383 c-4 -3 -7 -48 -7 -100 0 -92 0 -93 25 -93 22 0 24 4 27
57 l3 57 43 -57 c32 -43 49 -57 68 -57 l25 0 -3 98 c-3 91 -4 97 -25 100 -20
3 -22 -1 -25 -59 l-3 -61 -44 61 c-41 56 -66 72 -84 54z"/>
<path d="M2567 1383 c-4 -3 -7 -48 -7 -100 0 -93 0 -93 25 -93 l25 0 0 100 c0
90 -2 100 -18 100 -10 0 -22 -3 -25 -7z"/>
<path d="M2674 1367 c-40 -35 -28 -70 31 -93 46 -17 61 -44 25 -44 -10 0 -31
5 -45 12 -22 10 -28 9 -35 -3 -13 -20 9 -38 53 -46 50 -8 81 2 97 31 11 22 11
29 -4 50 -9 14 -31 29 -49 34 -38 10 -45 39 -7 34 14 -2 32 -5 40 -5 27 -3 23
32 -5 43 -42 16 -72 12 -101 -13z"/>
<path d="M2837 1383 c-4 -3 -7 -48 -7 -100 0 -93 0 -93 25 -93 l25 0 0 100 c0
90 -2 100 -18 100 -10 0 -22 -3 -25 -7z"/>
<path d="M2980 1370 c-6 -11 -26 -56 -45 -100 l-34 -80 24 0 c14 0 29 8 35 20
8 15 21 20 51 20 32 0 42 -4 46 -20 4 -14 14 -20 34 -20 l28 0 -36 88 c-20 48
-40 93 -46 100 -15 19 -45 14 -57 -8z m44 -66 c11 -29 6 -44 -14 -44 -11 0
-20 6 -20 14 0 21 11 46 20 46 4 0 11 -7 14 -16z"/>
</g>
</svg>
