<?xml version="1.0" encoding="utf-8"?>
<!-- Generator: Adobe Illustrator 23.0.3, SVG Export Plug-In . SVG Version: 6.00 Build 0)  -->
<svg version="1.1" xmlns="http://www.w3.org/2000/svg" xmlns:xlink="http://www.w3.org/1999/xlink" x="0px" y="0px"
	 viewBox="0 0 250 250" style="enable-background:new 0 0 250 250;" xml:space="preserve">
<style type="text/css">
	.st0{fill:#DE0030;}
	.st1{fill:#C2002E;}
	.st2{fill:#000000; clip-path:url(#SVGID_2_);}
</style>
<g id="angular">
	<polygon class="st0" points="125,11 18.9,48.8 35.1,189.2 125,239 214.9,189.2 231.1,48.8 	"/>
	<polygon class="st1" points="125,11 125,36.3 125,36.2 125,151.7 125,239 214.9,189.2 231.1,48.8 	"/>
</g>
<g id="oogje">
	<g>
		<defs>
			<rect id="SVGID_1_" x="18.9" y="11" width="212.3" height="228"/>
		</defs>
		<clipPath id="SVGID_2_">
			<use xlink:href="#SVGID_1_"  style="overflow:visible;"/>
		</clipPath>
		<path class="st2" d="M158.9,151.3c-10.6,4.3-21.9,6.5-33.3,6.7h-0.3h-0.2c-0.6,0-1.3,0-1.9,0h0c-0.1,0-0.2,0-0.2,0
			c-6.3-0.2-12.2-2.7-16.8-7.2c-5-4.8-7.9-11.3-8-18.2c-0.2-6.9,2.4-13.5,7.1-18.5c4.8-5,11.2-7.9,18.1-8c6.9-0.2,13.5,2.4,18.5,7.1
			c5.2,4.9,8,11.5,8,18.7c0,1.6,1.3,2.8,2.8,2.8h0c1.6,0,2.8-1.3,2.8-2.9c-0.1-8.7-3.5-16.8-9.8-22.8c-0.5-0.4-1-0.9-1.4-1.3
			c5.1,1.1,10.1,2.7,14.9,4.7c11.1,4.5,21.1,11,29.7,19.3C180.2,140.3,170.1,146.8,158.9,151.3 M198.2,115.1L198.2,115.1
			c-0.8-0.7-2-0.7-2.7,0.1l-7.5,8.2c-2.6-2.2-5.4-4.3-8.2-6.2l6.3-9.3c0.6-0.9,0.3-2-0.5-2.6l0,0c-0.9-0.6-2-0.3-2.6,0.5l-6.3,9.4
			c-2.9-1.8-5.9-3.5-9-5l5-10.4c0.4-0.9,0.1-2.1-0.9-2.5l0,0c-0.9-0.4-2.1-0.1-2.5,0.9l-5,10.4c-0.9-0.4-1.9-0.8-2.8-1.2
			c-2.2-0.9-4.5-1.7-6.8-2.5l3.5-11.1c0.3-1-0.3-2-1.2-2.4l0,0c-1-0.3-2,0.3-2.4,1.2l-3.5,11.1c-3.3-0.9-6.6-1.7-10-2.3l1.9-11.6
			c0.2-1-0.5-2-1.6-2.2h0c-1-0.2-2,0.5-2.2,1.6l-1.9,11.6c-3.4-0.4-6.8-0.7-10.2-0.8l0.2-11.8c0-1-0.8-1.9-1.8-1.9h0
			c-1,0-1.9,0.8-1.9,1.8l-0.2,11.8c-3.4,0-6.8,0.2-10.2,0.6l-1.5-11.7c-0.1-1-1.1-1.7-2.1-1.6h0c-1,0.1-1.7,1.1-1.6,2.1l1.5,11.7
			c-3.4,0.5-6.7,1.2-10,2l-3.2-11.4c-0.3-1-1.3-1.6-2.3-1.3l0,0c-1,0.3-1.6,1.3-1.3,2.3l3.2,11.4c-3.1,0.9-6.1,2-9.2,3.2
			c-0.2,0.1-0.3,0.1-0.5,0.2l-4.8-10.7c-0.4-0.9-1.5-1.4-2.5-0.9l0,0c-0.9,0.4-1.4,1.5-0.9,2.5l4.8,10.7c-3.1,1.4-6.1,3-9.1,4.7
			l-6.2-9.8c-0.6-0.9-1.7-1.1-2.6-0.6l0,0c-0.9,0.6-1.1,1.7-0.6,2.6l6.2,9.8c-2.9,1.8-5.7,3.9-8.3,6l-7.4-8.7
			c-0.7-0.8-1.9-0.9-2.6-0.2l0,0c-0.8,0.7-0.9,1.9-0.2,2.6l7.4,8.7c-1.8,1.6-3.7,3.3-5.4,5l-0.7,0.7c-1.1,1.1-1.1,2.9,0,4
			c1.1,1.1,2.9,1.1,4,0l0.7-0.7c9-9,19.4-15.9,31.1-20.6c4.9-2,9.9-3.5,14.9-4.7c-0.9,0.7-1.7,1.5-2.5,2.4
			c-5.8,6.1-8.9,14.1-8.7,22.6c0.2,8.4,3.7,16.3,9.8,22.2c5.9,5.7,13.5,8.8,21.7,8.8c0.4,0,0.9,0,1.3,0c12.4-0.1,24.5-2.5,35.9-7.1
			c12.5-5,23.7-12.4,33.4-22l0.7-0.7c1.1-1.1,1.1-2.9,0-4l-0.7-0.7c-1.1-1.1-2.3-2.2-3.4-3.3l7.4-8.2
			C199.1,117,199,115.8,198.2,115.1"/>
	</g>
</g>
</svg>
