<?xml version="1.0" encoding="UTF-8" standalone="no"?>
<!-- Generator: Adobe Illustrator 19.1.0, SVG Export Plug-In . SVG Version: 6.00 Build 0)  -->

<svg
   xmlns:dc="http://purl.org/dc/elements/1.1/"
   xmlns:cc="http://creativecommons.org/ns#"
   xmlns:rdf="http://www.w3.org/1999/02/22-rdf-syntax-ns#"
   xmlns:svg="http://www.w3.org/2000/svg"
   xmlns="http://www.w3.org/2000/svg"
   xmlns:sodipodi="http://sodipodi.sourceforge.net/DTD/sodipodi-0.dtd"
   xmlns:inkscape="http://www.inkscape.org/namespaces/inkscape"
   version="1.1"
   id="Layer_1"
   x="0px"
   y="0px"
   viewBox="0 0 250 250"
   style="enable-background:new 0 0 250 250;"
   xml:space="preserve"
   sodipodi:docname="ngvenezuela.svg"
   inkscape:version="0.92.4 5da689c313, 2019-01-14"><metadata
   id="metadata17"><rdf:RDF><cc:Work
       rdf:about=""><dc:format>image/svg+xml</dc:format><dc:type
         rdf:resource="http://purl.org/dc/dcmitype/StillImage" /><dc:title></dc:title></cc:Work></rdf:RDF></metadata><defs
   id="defs15" /><sodipodi:namedview
   pagecolor="#ffffff"
   bordercolor="#666666"
   borderopacity="1"
   objecttolerance="10"
   gridtolerance="10"
   guidetolerance="10"
   inkscape:pageopacity="0"
   inkscape:pageshadow="2"
   inkscape:window-width="3200"
   inkscape:window-height="1725"
   id="namedview13"
   showgrid="false"
   inkscape:zoom="4.576"
   inkscape:cx="238.71337"
   inkscape:cy="123.63476"
   inkscape:window-x="0"
   inkscape:window-y="0"
   inkscape:window-maximized="1"
   inkscape:current-layer="Layer_1" />
<style
   type="text/css"
   id="style2">
	.st0{fill:#DD0031;}
	.st1{fill:#C3002F;}
	.st2{fill:#FFFFFF;}
</style>

<path
   sodipodi:nodetypes="ccccc"
   inkscape:connector-curvature="0"
   id="path4175"
   d="M 90.858409,214.78009 48.731943,190.10951 46.974126,174.93637 96.211896,154.52805 Z"
   inkscape:transform-center-y="-1.5060824"
   inkscape:transform-center-x="19.373849"
   style="opacity:1;fill:#ffcc00;fill-opacity:1;fill-rule:nonzero;stroke:none;stroke-width:1.53882384;stroke-miterlimit:4;stroke-dasharray:none;stroke-dashoffset:0;stroke-opacity:1" /><path
   sodipodi:nodetypes="ccccc"
   inkscape:connector-curvature="0"
   id="path4177"
   d="m 160.7222,152.90932 44.05193,22.02705 -1.8936,16.12253 -41.27964,22.95366 z"
   inkscape:transform-center-y="-1.4212071"
   inkscape:transform-center-x="-19.448907"
   style="opacity:1;fill:#ff0000;fill-opacity:1;fill-rule:nonzero;stroke:none;stroke-width:1.53882384;stroke-miterlimit:4;stroke-dasharray:none;stroke-dashoffset:0;stroke-opacity:1" /><path
   sodipodi:nodetypes="cccccc"
   inkscape:connector-curvature="0"
   id="path4179"
   d="m 90.526788,154.84142 -0.242734,59.67432 35.513326,18.51471 36.1785,-19.21578 -1.15857,-59.21183 z"
   style="fill:#00247d;fill-opacity:1;fill-rule:evenodd;stroke:none;stroke-width:0.30399525px;stroke-linecap:butt;stroke-linejoin:miter;stroke-opacity:1" /><path
   transform="matrix(0.07157307,0.03018245,-0.03018245,0.07157307,92.251205,128.74473)"
   inkscape:transform-center-y="-4.4717187"
   inkscape:transform-center-x="-2.2805397"
   d="m 502.04582,984.47992 -37.36134,-3.55388 -24.10832,28.76266 -8.16535,-36.63099 -34.80476,-14.04022 32.31488,-19.0853 2.59778,-37.43997 28.13704,24.8356 36.41029,-9.09895 -14.92523,34.43454 z"
   inkscape:randomized="0"
   inkscape:rounded="0"
   inkscape:flatsided="false"
   sodipodi:arg2="1.1816129"
   sodipodi:arg1="0.55329433"
   sodipodi:r2="28.257742"
   sodipodi:r1="56.515484"
   sodipodi:cy="954.78143"
   sodipodi:cx="453.96255"
   sodipodi:sides="5"
   id="path4189"
   style="opacity:1;fill:#ffffff;fill-opacity:1;fill-rule:nonzero;stroke:none;stroke-width:5.0619998;stroke-miterlimit:4;stroke-dasharray:none;stroke-dashoffset:0;stroke-opacity:1"
   sodipodi:type="star" /><path
   sodipodi:type="star"
   style="opacity:1;fill:#ffffff;fill-opacity:1;fill-rule:nonzero;stroke:none;stroke-width:5.0619998;stroke-miterlimit:4;stroke-dasharray:none;stroke-dashoffset:0;stroke-opacity:1"
   id="path4197"
   sodipodi:sides="5"
   sodipodi:cx="453.96255"
   sodipodi:cy="954.78143"
   sodipodi:r1="56.515484"
   sodipodi:r2="28.257742"
   sodipodi:arg1="0.55329433"
   sodipodi:arg2="1.1816129"
   inkscape:flatsided="false"
   inkscape:rounded="0"
   inkscape:randomized="0"
   d="m 502.04582,984.47992 -37.36134,-3.55388 -24.10832,28.76266 -8.16535,-36.63099 -34.80476,-14.04022 32.31488,-19.0853 2.59778,-37.43997 28.13704,24.8356 36.41029,-9.09895 -14.92523,34.43454 z"
   inkscape:transform-center-x="-2.2805448"
   inkscape:transform-center-y="-4.4717127"
   transform="matrix(0.07157307,0.03018245,-0.03018245,0.07157307,100.78201,133.22077)" /><path
   transform="matrix(0.07157307,0.03018245,-0.03018245,0.07157307,109.31282,137.69681)"
   inkscape:transform-center-y="-4.4717168"
   inkscape:transform-center-x="-2.2805399"
   d="m 502.04582,984.47992 -37.36134,-3.55388 -24.10832,28.76266 -8.16535,-36.63099 -34.80476,-14.04022 32.31488,-19.0853 2.59778,-37.43997 28.13704,24.8356 36.41029,-9.09895 -14.92523,34.43454 z"
   inkscape:randomized="0"
   inkscape:rounded="0"
   inkscape:flatsided="false"
   sodipodi:arg2="1.1816129"
   sodipodi:arg1="0.55329433"
   sodipodi:r2="28.257742"
   sodipodi:r1="56.515484"
   sodipodi:cy="954.78143"
   sodipodi:cx="453.96255"
   sodipodi:sides="5"
   id="path4199"
   style="opacity:1;fill:#ffffff;fill-opacity:1;fill-rule:nonzero;stroke:none;stroke-width:5.0619998;stroke-miterlimit:4;stroke-dasharray:none;stroke-dashoffset:0;stroke-opacity:1"
   sodipodi:type="star" /><path
   sodipodi:type="star"
   style="opacity:1;fill:#ffffff;fill-opacity:1;fill-rule:nonzero;stroke:none;stroke-width:5.0619998;stroke-miterlimit:4;stroke-dasharray:none;stroke-dashoffset:0;stroke-opacity:1"
   id="path4201"
   sodipodi:sides="5"
   sodipodi:cx="453.96255"
   sodipodi:cy="954.78143"
   sodipodi:r1="56.515484"
   sodipodi:r2="28.257742"
   sodipodi:arg1="0.55329433"
   sodipodi:arg2="1.1816129"
   inkscape:flatsided="false"
   inkscape:rounded="0"
   inkscape:randomized="0"
   d="m 502.04582,984.47992 -37.36134,-3.55388 -24.10832,28.76266 -8.16535,-36.63099 -34.80476,-14.04022 32.31488,-19.0853 2.59778,-37.43997 28.13704,24.8356 36.41029,-9.09895 -14.92523,34.43454 z"
   inkscape:transform-center-x="-2.2805369"
   inkscape:transform-center-y="-4.4717209"
   transform="matrix(0.07157307,0.03018245,-0.03018245,0.07157307,117.84364,142.17285)" /><path
   sodipodi:type="star"
   style="opacity:1;fill:#ffffff;fill-opacity:1;fill-rule:nonzero;stroke:none;stroke-width:5.0619998;stroke-miterlimit:4;stroke-dasharray:none;stroke-dashoffset:0;stroke-opacity:1"
   id="path4203"
   sodipodi:sides="5"
   sodipodi:cx="453.96255"
   sodipodi:cy="954.78143"
   sodipodi:r1="56.515484"
   sodipodi:r2="28.257742"
   sodipodi:arg1="0.55329433"
   sodipodi:arg2="1.1816129"
   inkscape:flatsided="false"
   inkscape:rounded="0"
   inkscape:randomized="0"
   d="m 502.04582,984.47992 -37.36134,-3.55388 -24.10832,28.76266 -8.16535,-36.63099 -34.80476,-14.04022 32.31488,-19.0853 2.59778,-37.43997 28.13704,24.8356 36.41029,-9.09895 -14.92523,34.43454 z"
   inkscape:transform-center-x="-1.5515423"
   inkscape:transform-center-y="-3.0422824"
   transform="matrix(-0.07157307,0.03018245,0.03018245,0.07157307,159.97329,128.74473)" /><path
   transform="matrix(-0.07157307,0.03018245,0.03018245,0.07157307,151.44249,133.22077)"
   inkscape:transform-center-y="-3.0422824"
   inkscape:transform-center-x="-1.5515423"
   d="m 502.04582,984.47992 -37.36134,-3.55388 -24.10832,28.76266 -8.16535,-36.63099 -34.80476,-14.04022 32.31488,-19.0853 2.59778,-37.43997 28.13704,24.8356 36.41029,-9.09895 -14.92523,34.43454 z"
   inkscape:randomized="0"
   inkscape:rounded="0"
   inkscape:flatsided="false"
   sodipodi:arg2="1.1816129"
   sodipodi:arg1="0.55329433"
   sodipodi:r2="28.257742"
   sodipodi:r1="56.515484"
   sodipodi:cy="954.78143"
   sodipodi:cx="453.96255"
   sodipodi:sides="5"
   id="path4205"
   style="opacity:1;fill:#ffffff;fill-opacity:1;fill-rule:nonzero;stroke:none;stroke-width:5.0619998;stroke-miterlimit:4;stroke-dasharray:none;stroke-dashoffset:0;stroke-opacity:1"
   sodipodi:type="star" /><path
   sodipodi:type="star"
   style="opacity:1;fill:#ffffff;fill-opacity:1;fill-rule:nonzero;stroke:none;stroke-width:5.0619998;stroke-miterlimit:4;stroke-dasharray:none;stroke-dashoffset:0;stroke-opacity:1"
   id="path4207"
   sodipodi:sides="5"
   sodipodi:cx="453.96255"
   sodipodi:cy="954.78143"
   sodipodi:r1="56.515484"
   sodipodi:r2="28.257742"
   sodipodi:arg1="0.55329433"
   sodipodi:arg2="1.1816129"
   inkscape:flatsided="false"
   inkscape:rounded="0"
   inkscape:randomized="0"
   d="m 502.04582,984.47992 -37.36134,-3.55388 -24.10832,28.76266 -8.16535,-36.63099 -34.80476,-14.04022 32.31488,-19.0853 2.59778,-37.43997 28.13704,24.8356 36.41029,-9.09895 -14.92523,34.43454 z"
   inkscape:transform-center-x="-1.5515423"
   inkscape:transform-center-y="-3.0422824"
   transform="matrix(-0.07157307,0.03018245,0.03018245,0.07157307,142.91169,137.69681)" /><path
   transform="matrix(-0.07157307,0.03018245,0.03018245,0.07157307,134.38086,142.17285)"
   inkscape:transform-center-y="-3.0422824"
   inkscape:transform-center-x="-1.5515423"
   d="m 502.04582,984.47992 -37.36134,-3.55388 -24.10832,28.76266 -8.16535,-36.63099 -34.80476,-14.04022 32.31488,-19.0853 2.59778,-37.43997 28.13704,24.8356 36.41029,-9.09895 -14.92523,34.43454 z"
   inkscape:randomized="0"
   inkscape:rounded="0"
   inkscape:flatsided="false"
   sodipodi:arg2="1.1816129"
   sodipodi:arg1="0.55329433"
   sodipodi:r2="28.257742"
   sodipodi:r1="56.515484"
   sodipodi:cy="954.78143"
   sodipodi:cx="453.96255"
   sodipodi:sides="5"
   id="path4209"
   style="opacity:1;fill:#ffffff;fill-opacity:1;fill-rule:nonzero;stroke:none;stroke-width:5.0619998;stroke-miterlimit:4;stroke-dasharray:none;stroke-dashoffset:0;stroke-opacity:1"
   sodipodi:type="star" /><g
   id="g10"
   transform="translate(0.87412587,-11.363636)">
	<polygon
   class="st0"
   points="125,30 31.9,63.2 46.1,186.3 125,230 125,230 125,230 203.9,186.3 218.1,63.2 125,30 "
   id="polygon4"
   style="fill:#dd0031" />
	<polygon
   class="st1"
   points="125,52.1 125,153.4 125,153.4 125,230 125,230 203.9,186.3 218.1,63.2 125,30 125,52.2 "
   id="polygon6"
   style="fill:#c3002f" />
	<path
   class="st2"
   d="M 125,52.1 66.8,182.6 v 0 h 21.7 v 0 l 11.7,-29.2 h 49.4 l 11.7,29.2 v 0 H 183 v 0 L 125,52.1 v 0 0 z m 17,83.3 h -34 l 17,-40.9 z"
   id="path8"
   inkscape:connector-curvature="0"
   style="fill:#ffffff" />
</g></svg>