<?xml version="1.0" encoding="UTF-8" standalone="no"?>
<svg
   xmlns:dc="http://purl.org/dc/elements/1.1/"
   xmlns:cc="http://creativecommons.org/ns#"
   xmlns:rdf="http://www.w3.org/1999/02/22-rdf-syntax-ns#"
   xmlns:svg="http://www.w3.org/2000/svg"
   xmlns="http://www.w3.org/2000/svg"
   viewBox="0 0 377.95334 377.95334"
   height="377.95334"
   width="377.95334"
   xml:space="preserve"
   id="svg2"
   version="1.1"><metadata
     id="metadata8"><rdf:RDF><cc:Work
         rdf:about=""><dc:format>image/svg+xml</dc:format><dc:type
           rdf:resource="http://purl.org/dc/dcmitype/StillImage" /></cc:Work></rdf:RDF></metadata><defs
     id="defs6"><clipPath
       id="clipPath22"
       clipPathUnits="userSpaceOnUse"><path
         id="path20"
         d="M 0,283.465 H 283.465 V 0 H 0 Z" /></clipPath></defs><g
     transform="matrix(1.3333333,0,0,-1.3333333,0,377.95333)"
     id="g10"><g
       transform="translate(141.8106,261.6086)"
       id="g12"><path
         id="path14"
         style="fill:#be1622;fill-opacity:1;fill-rule:nonzero;stroke:none"
         d="m 0,0 -0.085,-0.03 v -240.551 l 0.085,-0.018 91.745,18.256 19.973,182.555 z" /></g><g
       id="g16"><g
         clip-path="url(#clipPath22)"
         id="g18"><g
           transform="translate(152.9688,184.4827)"
           id="g24"><path
             id="path26"
             style="fill:#f6f6f6;fill-opacity:1;fill-rule:nonzero;stroke:none"
             d="M 0,0 C -2.521,3.648 -6.88,5.474 -11.243,5.48 V 0 Z" /></g><g
           transform="translate(154.1748,172.9748)"
           id="g28"><path
             id="path30"
             style="fill:#f6f6f6;fill-opacity:1;fill-rule:nonzero;stroke:none"
             d="M 0,0 V 6.333 H -6.989 C -4.013,5.086 -1.529,2.83 0,0" /></g><g
           transform="translate(154.1221,167.3284)"
           id="g32"><path
             id="path34"
             style="fill:#f6f6f6;fill-opacity:1;fill-rule:nonzero;stroke:none"
             d="m 0,0 h 0.041 c -0.552,7.475 -6.5,11.222 -12.437,11.211 V 5.461 C -7.757,5.45 -3.122,3.629 0,0" /></g><g
           transform="translate(156.6211,56.0647)"
           id="g36"><path
             id="path38"
             style="fill:#f6f6f6;fill-opacity:1;fill-rule:nonzero;stroke:none"
             d="M 0,0 14.839,3 V 59.178 H 0 Z" /></g><path
           id="path40"
           style="fill:#f6f6f6;fill-opacity:1;fill-rule:nonzero;stroke:none"
           d="m 155.245,116.891 h 17.591 v 4.459 h -17.591 z" /><g
           transform="translate(149.8106,159.5715)"
           id="g42"><path
             id="path44"
             style="fill:#f6f6f6;fill-opacity:1;fill-rule:nonzero;stroke:none"
             d="m 0,0 c 1.978,0.821 4.112,1.209 6.257,1.201 -1.894,6.39 -8.1,10.238 -14.342,10.368 V 5.219 C -4.693,5.204 -1.309,3.464 0,0" /></g><g
           transform="translate(142.2881,149.9114)"
           id="g46"><path
             id="path48"
             style="fill:#f6f6f6;fill-opacity:1;fill-rule:nonzero;stroke:none"
             d="m 0,0 c 2.199,-0.037 4.359,-0.308 6.485,-0.797 4.26,6.966 16.074,3.643 15.841,-4.733 v -4.511 c 2.665,-2.923 4.78,-6.362 6.146,-10.164 V -5.319 H 28.466 C 28.687,10.315 5.431,14.642 0,0" /></g><path
           id="path50"
           style="fill:#f6f6f6;fill-opacity:1;fill-rule:nonzero;stroke:none"
           d="m 156.114,182.824 h -14.389 v -1.857 h 14.389 z" /><g
           transform="translate(145.419,197.9397)"
           id="g52"><path
             id="path54"
             style="fill:#f6f6f6;fill-opacity:1;fill-rule:nonzero;stroke:none"
             d="M 0,0 C 0.113,2.069 -1.794,3.098 -3.693,3.09 V -6.328 C -2.02,-6.348 -0.341,-4.241 0,0" /></g><g
           transform="translate(143.2139,202.6682)"
           id="g56"><path
             id="path58"
             style="fill:#f6f6f6;fill-opacity:1;fill-rule:nonzero;stroke:none"
             d="m 0,0 -1.465,32.034 -0.023,-0.5 V 0 Z" /></g><g
           transform="translate(157.0742,122.9456)"
           id="g60"><path
             id="path62"
             style="fill:#f6f6f6;fill-opacity:1;fill-rule:nonzero;stroke:none"
             d="M 0,0 H 13.598 C 11.458,16.647 -1.941,24.982 -15.349,24.995 V 11.889 C -8.489,11.877 -1.637,7.916 0,0" /></g><g
           transform="translate(141.7256,261.5784)"
           id="g64"><path
             id="path66"
             style="fill:#e6342a;fill-opacity:1;fill-rule:nonzero;stroke:none"
             d="M 0,0 -111.789,-39.758 -91.193,-222.313 0.085,-240.568 0,-240.551 Z" /></g><g
           transform="translate(46.2158,35.6604)"
           id="g68"><path
             id="path70"
             style="fill:#be1622;fill-opacity:1;fill-rule:nonzero;stroke:none"
             d="m 0,0 95.532,-19.107 96.019,19.106 20.745,189.627 -116.76,41.583 -116.93,-41.587 z m 95.531,-21.146 -97.355,19.47 -21.736,192.652 0.748,0.265 118.348,42.091 0.336,-0.119 118.584,-42.234 -21.077,-192.656 -0.719,-0.142 z" /></g><g
           transform="translate(62.293,50.8323)"
           id="g72"><path
             id="path74"
             style="fill:#ffffff;fill-opacity:1;fill-rule:nonzero;stroke:none"
             d="m 0,0 c -0.079,-0.134 -0.191,-0.314 -0.336,-0.543 -0.144,-0.228 -0.31,-0.491 -0.498,-0.791 -0.187,-0.299 -0.395,-0.628 -0.624,-0.987 -0.229,-0.36 -0.464,-0.737 -0.706,-1.133 L 0.662,-4.021 C 0.598,-3.562 0.533,-3.122 0.47,-2.704 0.406,-2.285 0.343,-1.9 0.28,-1.551 0.218,-1.201 0.163,-0.894 0.116,-0.628 0.069,-0.361 0.03,-0.152 0,0 m 1.141,-8.182 c -0.042,0.367 -0.09,0.743 -0.143,1.13 -0.055,0.387 -0.108,0.773 -0.162,1.157 l -3.86,0.774 C -3.222,-5.456 -3.42,-5.793 -3.617,-6.13 -3.815,-6.467 -4.002,-6.796 -4.18,-7.115 l -2.31,0.464 c 0.586,0.99 1.136,1.903 1.65,2.74 0.516,0.836 1.013,1.622 1.492,2.356 0.481,0.735 0.948,1.43 1.401,2.086 0.454,0.656 0.917,1.292 1.387,1.91 L 1.55,2.019 C 1.737,1.269 1.916,0.503 2.088,-0.278 2.26,-1.06 2.426,-1.881 2.585,-2.744 2.744,-3.607 2.901,-4.523 3.055,-5.494 3.207,-6.465 3.363,-7.52 3.523,-8.659 Z" /></g><g
           transform="translate(75.1602,40.3)"
           id="g76"><path
             id="path78"
             style="fill:#ffffff;fill-opacity:1;fill-rule:nonzero;stroke:none"
             d="M 0,0 C -0.41,1.26 -0.875,2.515 -1.396,3.767 -1.917,5.019 -2.498,6.218 -3.138,7.365 L -4.436,0.89 -6.633,1.33 -4.65,11.214 -2.84,10.851 C -2.588,10.475 -2.318,10.02 -2.029,9.487 -1.741,8.954 -1.451,8.39 -1.16,7.792 -0.87,7.194 -0.586,6.579 -0.307,5.944 -0.028,5.31 0.23,4.701 0.47,4.119 L 1.639,9.953 3.85,9.51 1.869,-0.374 Z" /></g><g
           transform="translate(87.1836,46.3909)"
           id="g80"><path
             id="path82"
             style="fill:#ffffff;fill-opacity:1;fill-rule:nonzero;stroke:none"
             d="m 0,0 c -1.037,0.208 -1.844,0.07 -2.42,-0.412 -0.576,-0.484 -0.965,-1.224 -1.165,-2.223 -0.097,-0.484 -0.128,-0.935 -0.093,-1.353 0.034,-0.417 0.137,-0.792 0.309,-1.122 0.171,-0.331 0.412,-0.61 0.723,-0.835 0.31,-0.226 0.694,-0.385 1.15,-0.476 0.248,-0.05 0.46,-0.088 0.639,-0.113 0.177,-0.026 0.336,-0.038 0.474,-0.036 l 0.69,3.437 2.224,-0.445 -0.98,-4.893 C 1.264,-8.522 0.812,-8.548 0.199,-8.549 c -0.613,0 -1.352,0.086 -2.218,0.26 -0.741,0.148 -1.391,0.397 -1.95,0.746 -0.557,0.35 -1.007,0.786 -1.346,1.309 -0.341,0.523 -0.564,1.127 -0.669,1.81 -0.106,0.684 -0.076,1.435 0.088,2.253 0.166,0.827 0.441,1.533 0.826,2.119 0.384,0.585 0.843,1.055 1.38,1.407 0.536,0.353 1.127,0.582 1.778,0.69 C -1.264,2.152 -0.596,2.137 0.089,2 0.555,1.906 0.969,1.791 1.332,1.654 1.695,1.517 2.004,1.381 2.26,1.246 2.514,1.11 2.721,0.982 2.88,0.861 3.039,0.741 3.15,0.649 3.218,0.586 L 2.219,-1.068 C 1.946,-0.846 1.625,-0.635 1.254,-0.437 0.883,-0.239 0.465,-0.094 0,0" /></g><g
           transform="translate(96.0039,35.9153)"
           id="g84"><path
             id="path86"
             style="fill:#ffffff;fill-opacity:1;fill-rule:nonzero;stroke:none"
             d="m 0,0 c -0.695,0.139 -1.273,0.356 -1.738,0.652 -0.466,0.296 -0.827,0.651 -1.086,1.064 -0.258,0.413 -0.418,0.875 -0.479,1.387 -0.06,0.511 -0.033,1.057 0.084,1.637 l 1.232,6.148 2.225,-0.447 -1.195,-5.962 C -1.037,4.08 -1.061,3.73 -1.025,3.433 -0.992,3.134 -0.914,2.881 -0.793,2.674 -0.671,2.466 -0.506,2.302 -0.298,2.181 -0.09,2.061 0.148,1.973 0.414,1.92 0.956,1.812 1.43,1.89 1.834,2.154 2.238,2.42 2.52,2.951 2.68,3.75 L 3.875,9.712 6.1,9.267 4.868,3.119 C 4.752,2.539 4.564,2.022 4.305,1.57 4.047,1.117 3.716,0.751 3.313,0.471 2.91,0.19 2.434,0.007 1.883,-0.081 1.331,-0.168 0.703,-0.141 0,0" /></g><g
           transform="translate(110.6621,35.1721)"
           id="g88"><path
             id="path90"
             style="fill:#ffffff;fill-opacity:1;fill-rule:nonzero;stroke:none"
             d="m 0,0 -0.383,-1.911 -6.604,1.324 1.981,9.884 2.225,-0.445 -1.598,-7.974 z" /></g><g
           transform="translate(119.0723,39.4494)"
           id="g92"><path
             id="path94"
             style="fill:#ffffff;fill-opacity:1;fill-rule:nonzero;stroke:none"
             d="m 0,0 c -0.078,-0.134 -0.19,-0.314 -0.336,-0.542 -0.144,-0.229 -0.31,-0.492 -0.498,-0.791 -0.187,-0.3 -0.395,-0.629 -0.624,-0.988 -0.229,-0.359 -0.464,-0.737 -0.706,-1.133 L 0.663,-4.021 C 0.598,-3.562 0.533,-3.122 0.471,-2.703 0.406,-2.285 0.344,-1.9 0.281,-1.551 0.219,-1.201 0.164,-0.894 0.117,-0.628 0.07,-0.361 0.031,-0.152 0,0 M 1.141,-8.182 C 1.1,-7.815 1.052,-7.439 0.998,-7.052 0.943,-6.665 0.891,-6.278 0.836,-5.895 l -3.859,0.774 C -3.221,-5.456 -3.419,-5.793 -3.617,-6.13 -3.814,-6.467 -4.002,-6.796 -4.179,-7.115 l -2.31,0.464 c 0.585,0.99 1.135,1.903 1.65,2.74 0.515,0.836 1.013,1.622 1.491,2.356 0.481,0.735 0.948,1.43 1.401,2.086 0.455,0.656 0.917,1.292 1.388,1.91 L 1.551,2.019 C 1.738,1.269 1.917,0.503 2.088,-0.278 2.26,-1.06 2.426,-1.881 2.586,-2.744 2.745,-3.606 2.902,-4.523 3.055,-5.494 3.208,-6.465 3.364,-7.52 3.523,-8.659 Z" /></g><g
           transform="translate(129.9551,37.7434)"
           id="g96"><path
             id="path98"
             style="fill:#ffffff;fill-opacity:1;fill-rule:nonzero;stroke:none"
             d="m 0,0 c -0.162,0.032 -0.309,0.057 -0.437,0.073 -0.131,0.016 -0.254,0.031 -0.371,0.044 l -0.538,-2.681 0.629,-0.125 C 0.119,-2.857 0.739,-2.873 1.143,-2.736 1.546,-2.6 1.798,-2.279 1.898,-1.775 1.996,-1.29 1.882,-0.909 1.557,-0.631 1.232,-0.354 0.713,-0.143 0,0 M 0.252,1.923 C 1.734,1.626 2.818,1.134 3.502,0.448 4.186,-0.238 4.416,-1.138 4.192,-2.25 4.053,-2.944 3.781,-3.476 3.376,-3.844 2.971,-4.213 2.443,-4.461 1.795,-4.588 1.945,-4.876 2.098,-5.2 2.252,-5.562 2.407,-5.925 2.557,-6.301 2.701,-6.691 2.846,-7.081 2.98,-7.484 3.104,-7.899 3.229,-8.315 3.34,-8.721 3.439,-9.116 l -2.488,0.498 c -0.115,0.36 -0.234,0.724 -0.353,1.095 -0.119,0.37 -0.245,0.732 -0.378,1.085 -0.133,0.353 -0.267,0.688 -0.402,1.007 -0.134,0.319 -0.275,0.612 -0.42,0.878 l -1.097,0.22 -0.724,-3.608 -2.225,0.446 1.953,9.741 C -2.191,2.244 -1.677,2.21 -1.15,2.145 -0.625,2.078 -0.157,2.005 0.252,1.923" /></g><g
           transform="translate(156.4404,29.9494)"
           id="g100"><path
             id="path102"
             style="fill:#f6f6f6;fill-opacity:1;fill-rule:nonzero;stroke:none"
             d="M 0,0 C -0.264,0.281 -0.569,0.582 -0.916,0.902 -1.263,1.221 -1.631,1.539 -2.021,1.855 -2.41,2.174 -2.812,2.471 -3.225,2.752 -3.637,3.031 -4.041,3.27 -4.437,3.469 l 0.835,-4.188 -2.226,-0.443 -1.972,9.886 2.226,0.444 0.74,-3.715 c 0.453,0.715 0.908,1.459 1.368,2.233 0.46,0.773 0.884,1.492 1.271,2.156 l 2.641,0.527 C -0.067,9.434 -0.59,8.527 -1.124,7.652 -1.656,6.777 -2.226,5.891 -2.828,4.991 -1.906,4.488 -0.986,3.859 -0.071,3.1 0.845,2.341 1.75,1.484 2.646,0.528 Z" /></g><g
           transform="translate(166.6348,42.2619)"
           id="g104"><path
             id="path106"
             style="fill:#f6f6f6;fill-opacity:1;fill-rule:nonzero;stroke:none"
             d="m 0,0 2.226,0.445 1.971,-9.886 -2.225,-0.444 -0.836,4.194 -3.739,-0.746 0.837,-4.194 -2.225,-0.443 -1.972,9.885 2.226,0.445 0.754,-3.781 3.737,0.746 z" /></g><g
           transform="translate(177.8428,42.1682)"
           id="g108"><path
             id="path110"
             style="fill:#f6f6f6;fill-opacity:1;fill-rule:nonzero;stroke:none"
             d="M 0,0 C -0.021,-0.153 -0.055,-0.363 -0.101,-0.629 -0.146,-0.895 -0.198,-1.203 -0.257,-1.551 -0.314,-1.899 -0.38,-2.283 -0.453,-2.703 -0.526,-3.121 -0.598,-3.561 -0.668,-4.02 l 2.826,0.565 C 1.922,-3.057 1.693,-2.676 1.475,-2.314 1.255,-1.953 1.049,-1.621 0.856,-1.322 0.664,-1.024 0.495,-0.762 0.35,-0.534 0.204,-0.307 0.088,-0.129 0,0 m 4.199,-7.113 c -0.178,0.322 -0.367,0.65 -0.565,0.988 -0.199,0.336 -0.398,0.672 -0.595,1.006 l -3.86,-0.77 c -0.054,-0.385 -0.107,-0.773 -0.159,-1.16 -0.054,-0.387 -0.1,-0.762 -0.141,-1.125 l -2.311,-0.461 c 0.16,1.139 0.317,2.194 0.47,3.164 0.153,0.971 0.31,1.887 0.471,2.749 0.16,0.863 0.324,1.685 0.49,2.464 0.167,0.779 0.35,1.545 0.547,2.297 L 0.655,2.46 c 0.462,-0.62 0.921,-1.258 1.38,-1.913 0.459,-0.655 0.928,-1.35 1.407,-2.086 0.479,-0.734 0.977,-1.52 1.492,-2.357 0.513,-0.836 1.064,-1.75 1.649,-2.742 z" /></g><g
           transform="translate(189.3955,44.9494)"
           id="g112"><path
             id="path114"
             style="fill:#f6f6f6;fill-opacity:1;fill-rule:nonzero;stroke:none"
             d="m 0,0 c -0.162,-0.033 -0.307,-0.066 -0.433,-0.102 -0.126,-0.035 -0.245,-0.069 -0.358,-0.101 l 0.535,-2.682 0.628,0.125 c 0.837,0.168 1.415,0.392 1.734,0.674 0.321,0.28 0.43,0.674 0.33,1.177 C 2.339,-0.424 2.087,-0.115 1.68,0.016 1.273,0.146 0.713,0.143 0,0 M -0.507,1.871 C 0.977,2.167 2.165,2.13 3.06,1.76 3.955,1.389 4.514,0.647 4.735,-0.465 4.874,-1.16 4.827,-1.754 4.595,-2.252 4.362,-2.747 3.971,-3.178 3.421,-3.545 3.671,-3.754 3.936,-3.994 4.218,-4.27 4.5,-4.543 4.783,-4.834 5.066,-5.139 5.35,-5.442 5.629,-5.764 5.903,-6.098 6.178,-6.436 6.437,-6.766 6.681,-7.094 L 4.192,-7.59 c -0.245,0.287 -0.495,0.578 -0.747,0.875 -0.253,0.295 -0.507,0.58 -0.766,0.856 -0.259,0.274 -0.511,0.533 -0.758,0.775 -0.247,0.242 -0.489,0.459 -0.726,0.65 l -1.097,-0.22 0.719,-3.61 -2.225,-0.443 -1.945,9.744 c 0.466,0.192 0.956,0.358 1.466,0.5 0.511,0.141 0.971,0.253 1.38,0.334" /></g><g
           transform="translate(205.6309,39.7619)"
           id="g116"><path
             id="path118"
             style="fill:#f6f6f6;fill-opacity:1;fill-rule:nonzero;stroke:none"
             d="m 0,0 c -0.266,0.28 -0.57,0.582 -0.917,0.9 -0.346,0.32 -0.715,0.639 -1.104,0.955 -0.39,0.317 -0.792,0.616 -1.204,0.895 -0.413,0.279 -0.817,0.52 -1.213,0.717 l 0.835,-4.186 -2.225,-0.445 -1.972,9.887 2.225,0.444 0.741,-3.716 c 0.452,0.715 0.908,1.46 1.367,2.233 0.46,0.775 0.884,1.493 1.271,2.157 l 2.641,0.526 C -0.067,9.432 -0.591,8.527 -1.124,7.652 -1.657,6.775 -2.226,5.889 -2.828,4.99 -1.905,4.488 -0.987,3.857 -0.071,3.099 0.844,2.34 1.749,1.482 2.646,0.527 Z" /></g><g
           transform="translate(209.8701,50.886)"
           id="g120"><path
             id="path122"
             style="fill:#f6f6f6;fill-opacity:1;fill-rule:nonzero;stroke:none"
             d="M 0,0 2.226,0.444 4.197,-9.442 1.973,-9.886 Z" /></g><g
           transform="translate(221.582,42.9436)"
           id="g124"><path
             id="path126"
             style="fill:#f6f6f6;fill-opacity:1;fill-rule:nonzero;stroke:none"
             d="m 0,0 c -0.56,0.752 -1.119,1.537 -1.681,2.354 -0.56,0.816 -1.1,1.626 -1.619,2.433 -0.519,0.805 -1.002,1.578 -1.451,2.32 -0.447,0.743 -0.84,1.405 -1.175,1.991 l 2.453,0.49 C -3.174,9.053 -2.845,8.477 -2.486,7.863 -2.128,7.247 -1.767,6.637 -1.4,6.027 -1.034,5.418 -0.685,4.836 -0.349,4.278 -0.015,3.721 0.296,3.244 0.58,2.846 0.679,3.316 0.778,3.875 0.88,4.52 0.979,5.162 1.082,5.836 1.187,6.539 1.29,7.24 1.39,7.945 1.485,8.649 c 0.094,0.705 0.177,1.365 0.248,1.976 l 2.37,0.474 C 4.007,10.424 3.895,9.658 3.766,8.805 3.637,7.949 3.487,7.05 3.32,6.105 3.152,5.162 2.968,4.207 2.766,3.236 2.563,2.266 2.349,1.33 2.122,0.424 Z" /></g><g
           transform="translate(141.7256,191.6116)"
           id="g128"><path
             id="path130"
             style="fill:#ffffff;fill-opacity:1;fill-rule:nonzero;stroke:none"
             d="M 0,0 V 9.418 C -1.884,9.41 -3.76,8.381 -3.646,6.329 -3.311,2.128 -1.658,0.02 0,0" /></g><g
           transform="translate(141.7256,189.9631)"
           id="g132"><path
             id="path134"
             style="fill:#ffffff;fill-opacity:1;fill-rule:nonzero;stroke:none"
             d="M 0,0 C -4.38,0.007 -8.764,-1.819 -11.293,-5.48 H 0 Z" /></g><path
           id="path136"
           style="fill:#ffffff;fill-opacity:1;fill-rule:nonzero;stroke:none"
           d="M 141.726,182.824 H 127.31 v -1.857 h 14.416 z" /><g
           transform="translate(141.7256,172.7893)"
           id="g138"><path
             id="path140"
             style="fill:#ffffff;fill-opacity:1;fill-rule:nonzero;stroke:none"
             d="M 0,0 V 5.75 C -5.864,5.74 -11.718,2.064 -12.349,-5.32 -9.209,-1.758 -4.603,0.012 0,0" /></g><g
           transform="translate(136.336,179.3078)"
           id="g142"><path
             id="path144"
             style="fill:#ffffff;fill-opacity:1;fill-rule:nonzero;stroke:none"
             d="m 0,0 h -7.023 c 0,0 0.007,-6.393 0,-6.392 C -5.501,-3.532 -2.999,-1.259 0,0" /></g><g
           transform="translate(141.7256,234.2024)"
           id="g146"><path
             id="path148"
             style="fill:#ffffff;fill-opacity:1;fill-rule:nonzero;stroke:none"
             d="M 0,0 -1.442,-31.534 H 0 Z" /></g><path
           id="path150"
           style="fill:#ffffff;fill-opacity:1;fill-rule:nonzero;stroke:none"
           d="m 110.629,116.891 h 17.59 v 4.459 h -17.59 z" /><g
           transform="translate(141.7256,147.9407)"
           id="g152"><path
             id="path154"
             style="fill:#ffffff;fill-opacity:1;fill-rule:nonzero;stroke:none"
             d="m 0,0 c -13.424,0.014 -26.856,-8.315 -29.004,-24.995 h 13.597 c 1.638,7.936 8.526,11.899 15.407,11.889 z" /></g><g
           transform="translate(141.7256,164.7903)"
           id="g156"><path
             id="path158"
             style="fill:#ffffff;fill-opacity:1;fill-rule:nonzero;stroke:none"
             d="M 0,0 V 6.351 C -3.644,6.426 -7.3,5.237 -10.117,2.538 h -0.006 c -1.976,-1.761 -3.482,-4.039 -4.3,-6.561 2.153,0.041 4.277,-0.369 6.286,-1.155 C -6.811,-1.708 -3.402,0.015 0,0" /></g><g
           transform="translate(112.0049,59.0647)"
           id="g160"><path
             id="path162"
             style="fill:#ffffff;fill-opacity:1;fill-rule:nonzero;stroke:none"
             d="M 0,0 14.839,-3 V 56.178 H 0 Z" /></g><g
           transform="translate(134.6963,149.1321)"
           id="g164"><path
             id="path166"
             style="fill:#ffffff;fill-opacity:1;fill-rule:nonzero;stroke:none"
             d="m 0,0 c 2.064,0.472 4.257,0.761 6.434,0.774 0.152,0 -0.216,0.627 -0.294,0.831 -6.13,13.79 -28.287,9.087 -28.109,-6.145 h -0.006 v -14.628 c 1.389,3.743 3.492,7.13 6.152,10.006 C -17.692,1.587 -7.455,8.815 0,0" /></g></g></g></g></svg>