<svg xmlns="http://www.w3.org/2000/svg" viewBox="0 0 591.36 627.16"><title>Angular Finland</title><path d="M155,61C74.75,89.64,9,113.12,9,113.18c-.24.18,44.52,386.43,44.76,386.67.12.06,55.75,31,123.63,68.58C289,630.27,301,636.77,302.13,636.12c.77-.35,57.17-31.57,125.4-69.29,87-48.13,124.22-69,124.51-69.82.65-1.77,48.72-385.31,48.3-385.66-.18-.18-65-22.35-144.14-49.31S309.82,12.13,306.69,11L301,9Z" transform="translate(-9 -9)" style="fill:#cb2026"/><path d="M170.48,86.81C98.24,112.56,39.09,133.67,39.09,133.73c-.21.16,40.05,347.67,40.27,347.88.11.05,50.16,27.87,111.23,61.7C291,598.95,301.76,604.8,302.82,604.21c.69-.32,51.44-28.4,112.82-62.34,78.3-43.3,111.76-62.08,112-62.82.59-1.6,43.83-346.65,43.46-347-.16-.16-58.51-20.11-129.68-44.36S309.73,42.82,306.92,41.81L301.81,40Z" transform="translate(-9 -9)" style="fill:#cb2026;stroke:#fff;stroke-miterlimit:10;stroke-width:2px"/><rect x="209.25" y="99.88" width="167.39" height="167.39" style="fill:none;stroke:#fff;stroke-miterlimit:10"/><rect x="209.25" y="336.61" width="167.39" height="167.39" style="fill:none;stroke:#fff;stroke-miterlimit:10"/><rect x="90.88" y="218.25" width="167.39" height="167.39" style="fill:none;stroke:#fff;stroke-miterlimit:10"/><rect x="327.61" y="218.25" width="167.39" height="167.39" style="fill:none;stroke:#fff;stroke-miterlimit:10"/><rect x="134.55" y="143.55" width="167.39" height="167.39" transform="translate(-105.76 211.88) rotate(-45)" style="fill:none;stroke:#fff;stroke-miterlimit:10"/><rect x="301.94" y="310.94" width="167.39" height="167.39" transform="translate(-175.1 379.27) rotate(-45)" style="fill:none;stroke:#fff;stroke-miterlimit:10"/><rect x="134.55" y="310.94" width="167.39" height="167.39" transform="translate(-224.13 260.91) rotate(-45)" style="fill:none;stroke:#fff;stroke-miterlimit:10"/><rect x="301.94" y="143.55" width="167.39" height="167.39" transform="translate(-56.74 330.25) rotate(-45)" style="fill:none;stroke:#fff;stroke-miterlimit:10"/><path d="M302.57,149.54c-.24.41-.77,1.3-1.12,1.95S295.72,162,289.4,173.36s-12.17,22.16-13.18,23.93-2.25,4-2.78,5c-3.19,5.79-25,45.26-31.91,57.91-.89,1.6-3.72,6.68-6.2,11.23s-6.68,12-9.16,16.54-5.32,9.57-6.2,11.23c-2.42,4.43-7.56,13.71-9.69,17.55-3.49,6.5-5.55,10.22-8,14.65-1.36,2.42-3.49,6.26-4.73,8.57s-2.42,4.37-2.66,4.73-1.54,2.72-3,5.32-3.19,5.91-4,7.39-3.49,6.38-6,10.93-6.74,12.23-9.45,17.14-5.73,10.46-6.8,12.41-4.61,8.33-7.86,14.18l-5.91,10.64,24.82.18c16,.06,25.11-.06,25.58-.47a31.41,31.41,0,0,0,2.84-4.61c1.12-2.25,2.6-5,3.31-6.09s1.95-3.49,3-5.32,6.5-11.88,12.29-22.45,10.81-19.56,11-20,.71-1.42,1.12-2.07,2-3.6,3.6-6.5,3.49-6.26,4.2-7.39l1.3-2.07,57.85.06c31.79.06,58,.12,58.26.18.41.06,2.19,3.07,5.5,9.22,1.24,2.25,2.78,5.08,3.43,6.2s2.6,4.73,4.43,8,6.8,12.41,11.23,20.39c8.57,15.54,10.58,19.14,15.19,27.65l3,5.44h50.64l-1.48-2.54c-.77-1.36-4.55-8.21-8.39-15.19s-7.15-13-7.39-13.29-1.65-2.9-3.13-5.73-3.25-6-3.84-7.09-2-3.55-3.07-5.5-2.54-4.61-3.31-5.91-9-16.31-18.44-33.38-17.79-32.2-18.55-33.68-2.42-4.37-3.6-6.5c-2.66-4.9-17.19-31.38-19.2-34.86-.77-1.48-3.6-6.5-6.2-11.23s-5.44-9.93-6.32-11.52c-7.45-13.41-13-23.58-13-23.75a18.49,18.49,0,0,0-1.36-2.42c-.77-1.18-2.54-4.31-4-6.91-3.72-7-14.12-25.88-14.77-26.88-.3-.47-1.54-2.78-2.72-5s-2.36-4.43-2.6-4.73-1.3-2.19-2.36-4.14-2.6-4.73-3.43-6.2-2.07-3.78-2.84-5.2C303.46,149.6,302.93,149.07,302.57,149.54Zm3.43,96c1.36,2.54,3.07,5.67,3.78,7s2.19,4,3.25,5.91,2.6,4.73,3.43,6.2c1.48,2.66,11.88,21.57,15.3,27.77.95,1.77,2.36,4.25,3,5.44,3.37,5.91,5.44,9.87,5.44,10.34s-15.13.53-37.46.53H265.23l.65-1.18c.35-.71,2-3.66,3.6-6.56s3.66-6.68,4.55-8.27,3.66-6.68,6.2-11.23,5.5-10,6.68-12.11,3.19-5.85,4.55-8.27,3.43-6.26,4.67-8.45,2.66-4.85,3.25-5.91,1.54-2.84,2.07-3.84,1.18-1.89,1.48-1.89S304.58,243.08,306,245.56Z" transform="translate(-9 -9)" style="fill:none;stroke:#fff;stroke-linejoin:round;stroke-width:12px"/></svg>