<svg xmlns="http://www.w3.org/2000/svg" viewBox="0 0 186.20001 200"><title>angular-extentions</title><polygon points="93.1 0 93.1 0 93.1 0 0 33.2 14.2 156.3 93.1 200 93.1 200 93.1 200 172 156.3 186.2 33.2 93.1 0" fill="#dd0031"/><polygon points="93.1 0 93.1 22.2 93.1 22.1 93.1 123.4 93.1 123.4 93.1 200 93.1 200 172 156.3 186.2 33.2 93.1 0" fill="#c3002f"/><path d="M81.79043,95.57227,50.2206,46.01221H73.88076a7.37247,7.37247,0,0,1,3.395.59521,5.30021,5.30021,0,0,1,1.9248,1.99512l20.2998,34.37012a14.8681,14.8681,0,0,1,.80469-1.75q.45557-.84009,1.01563-1.75l17.7793-30.52a5.33554,5.33554,0,0,1,4.75977-2.94043H146.5414L114.55117,94.52246,147.24062,148.002H123.58047a5.91219,5.91219,0,0,1-3.74414-1.11914,8.52733,8.52733,0,0,1-2.27539-2.66016L97.1205,108.52246a14.22716,14.22716,0,0,1-1.25977,2.66016l-19.04,33.04a9.51223,9.51223,0,0,1-2.24023,2.625,5.3195,5.3195,0,0,1-3.5,1.1543H48.96084Z" transform="translate(-5 -5)" fill="#fff"/></svg>