<?xml version="1.0" encoding="UTF-8"?>
<!DOCTYPE svg PUBLIC "-//W3C//DTD SVG 1.1//EN" "http://www.w3.org/Graphics/SVG/1.1/DTD/svg11.dtd">
<!-- Creator: CorelDRAW X8 -->
<svg xmlns="http://www.w3.org/2000/svg" xml:space="preserve" width="34.8826mm" height="37.5072mm" version="1.1" style="shape-rendering:geometricPrecision; text-rendering:geometricPrecision; image-rendering:optimizeQuality; fill-rule:evenodd; clip-rule:evenodd"
viewBox="0 0 3488 3751"
 xmlns:xlink="http://www.w3.org/1999/xlink">
 <defs>
  <style type="text/css">
   <![CDATA[
    .str1 {stroke:#C30E2E;stroke-width:20}
    .str0 {stroke:#DD0330;stroke-width:20}
    .fil3 {fill:none}
    .fil2 {fill:#FEFEFE}
    .fil1 {fill:#C30E2E}
    .fil0 {fill:#DD0330}
   ]]>
  </style>
 </defs>
 <g id="Layer_x0020_1">
  <metadata id="CorelCorpID_0Corel-Layer"/>
  <g id="_538489720">
   <polygon class="fil0" points="261,2923 1744,3749 1744,2 1,624 "/>
   <polygon class="fil1" points="3227,2923 1744,3749 1744,2 3487,624 "/>
   <path class="fil2" d="M1663 386c44,-39 42,-17 111,-20 42,-2 9,44 40,70 7,6 -19,31 39,40 32,5 -1,22 39,28 10,1 -10,5 12,16 11,6 -14,59 63,4 1,0 53,-11 17,20 -15,13 12,12 -9,33 -14,14 29,19 -30,19 -41,0 -10,75 -25,89 -21,21 -38,45 -47,72 -9,24 -67,6 3,72 17,16 20,119 -68,101 -22,-4 7,-26 -3,-41 -11,-16 19,-7 -1,-33 -12,-17 29,-32 -26,-30 -12,1 5,-94 -48,-54 -15,10 -62,63 -37,1 8,-18 -14,-35 -44,8 -20,29 -74,1 -66,41 7,31 57,-15 38,30 -16,39 29,-5 45,-8 55,-9 66,3 8,23 0,0 -44,40 -25,57 14,11 -9,18 20,43 12,11 -15,1 1,25 8,13 -16,0 17,28 17,15 -53,8 8,39 7,3 -13,16 -19,44 -1,6 -22,48 -31,51 -15,5 -11,25 -38,43 -16,10 6,10 -41,26 -25,9 8,28 -82,44 -16,2 -6,11 -54,19 -9,2 -30,29 -73,-1 -15,-11 -80,47 -58,67 1,1 52,76 72,86 27,13 -34,26 12,49 31,16 -27,83 -65,80 -18,-1 -3,27 -23,29 -7,1 -24,66 -24,-19 0,-23 -30,2 -39,-41 -1,-6 -36,-26 -38,-26 -23,1 -22,-60 -35,2 -7,34 -13,-7 -10,63 3,62 -1,31 52,76 11,10 35,39 33,52 -12,57 21,58 21,76 0,0 -98,-26 -102,-47 -10,-49 24,-64 -25,-91 -43,-23 5,-84 -25,-158 -10,-24 21,-59 -38,-93 -18,8 14,13 -26,26 -2,14 -21,23 -21,0 0,-66 -71,-167 -146,-152 -70,15 -22,76 -79,73 -15,-1 -7,17 -47,26 -3,0 -32,39 -45,46 -14,8 14,11 -22,18 -55,12 -10,66 -26,95 -2,3 2,34 -35,79 -61,74 -49,-43 -78,-53 -26,-9 7,-42 -20,-52 -30,-11 5,-52 -25,-61 -40,-12 18,-60 -18,-87 -49,-36 44,-120 -52,-53 -22,17 -57,-49 -17,-46 34,2 -11,-9 -14,-10 -15,-3 -9,-20 -7,-29 22,-8 74,-9 22,-48 -44,-34 47,-93 38,-43 -3,20 52,-94 75,-107 54,-32 -18,-31 -18,-64 0,-55 1,27 54,-27 24,-24 63,26 52,-28 -39,-8 -60,9 -50,-29 6,-24 -51,23 -36,-38 0,0 -10,-20 -12,-19 -9,3 -26,27 -18,-22 9,-50 63,0 76,-30 10,-23 53,0 85,-38 20,-23 23,14 21,-40 -1,-5 13,-5 -4,-28 -20,-29 32,-27 47,-27 0,-1 9,-58 24,-48 0,0 50,-13 51,-17 10,-59 70,-52 95,-81 6,-7 23,7 49,-24 6,-7 72,-26 75,18 2,26 80,15 108,-14 25,-26 -6,-25 1,-44 19,-4 100,10 87,43 -19,44 51,-19 82,3 31,22 57,-7 83,37 20,34 88,-22 117,-28 113,-23 17,72 91,27 26,-15 27,13 27,-20 0,-15 30,1 24,-25 -3,-13 36,-5 22,-32 -1,-1 20,-9 13,-20 -5,-6 -7,-9 -5,-11z"/>
   <path class="fil3 str0" d="M856 493c9,76 62,-19 69,65 3,32 -30,67 30,55 37,-8 44,38 95,63 23,12 -13,29 67,12 97,-19 14,25 104,14 53,-6 32,50 63,1 15,-25 53,25 112,-28 25,-23 59,-4 55,-52 25,5 32,29 74,-15 31,-33 68,-43 110,-51 25,-5 -13,-13 -23,-32 -3,-5 -115,18 -61,-42"/>
   <path class="fil3 str0" d="M612 910c8,6 20,-10 17,8 0,2 -17,7 -11,37 2,11 36,-26 30,5 -2,9 -57,40 -12,69 12,8 33,0 13,29 -10,14 20,37 39,40 11,1 10,34 34,17 16,-11 15,16 47,12 24,-3 14,18 39,21 25,3 42,14 41,-21 -1,-19 30,7 45,-23 10,-21 55,-2 45,12 -5,7 22,-1 20,-7 12,5 9,-9 24,-11 20,-4 11,-16 22,-22 14,-6 -11,-24 36,-8 15,5 18,11 33,10 11,0 14,16 38,23 19,6 -6,10 2,20 27,34 -12,26 4,51 8,13 -18,-1 -15,21 -4,3 -29,16 -6,26 23,9 5,17 21,15 7,-1 14,-15 20,14 1,5 11,6 5,17 6,10 4,-10 19,15 0,1 21,13 24,-18 1,-13 37,-12 50,-14 46,-10 6,-18 63,-18 8,0 9,0 17,2 6,26 -3,32 12,61l-5 0"/>
   <path class="fil3 str0" d="M1101 1096c-1,12 -5,5 -24,8 -31,4 18,44 -22,37 -31,-5 -52,35 -45,68 1,3 -3,27 -7,7 -4,-1 -25,7 -17,27 1,2 4,24 -11,13 -11,-8 -18,29 -22,34"/>
   <path class="fil3 str0" d="M657 1038c19,7 38,-15 42,7 21,4 26,-6 29,13 2,15 37,0 35,18 -2,15 11,-1 10,15 0,20 68,-6 74,15 2,5 5,12 3,16"/>
   <path class="fil3 str1" d="M1923 679c-31,-3 -23,8 -35,7 -9,-1 -20,-3 -17,9 2,14 -13,-5 -13,23 0,22 -26,-3 -52,13 -25,15 -5,17 -22,23 -17,6 -8,20 -19,18"/>
   <path class="fil2" d="M2183 733c-15,-5 -11,9 -28,8 -10,-1 -17,20 -10,25 12,11 -7,18 -1,27 8,12 -6,9 -6,13 0,12 -6,2 -8,10 -2,11 5,14 -12,14 -10,-1 1,22 -18,22 -15,0 -9,0 -23,-3 -13,-2 -24,19 -26,29 -1,7 -8,13 -15,12 -3,-1 -32,0 -33,1 -8,4 -6,0 -18,-1 -14,-2 -17,13 -25,14 -10,1 -5,9 -9,10 -1,0 -25,10 -15,16 5,2 -18,5 -2,12 7,3 22,-21 36,15 1,1 1,18 5,12 4,-5 -11,-12 11,-19 7,-2 7,-11 0,-18 -4,-3 16,-14 27,-10 7,3 25,-3 18,17 -6,15 13,6 7,19 -1,1 11,-1 13,-10 4,-24 0,-17 27,-27 10,-4 21,5 20,-7 0,-1 14,0 21,-13 5,-10 51,-2 39,-23 -4,-7 -1,-18 3,-24 11,-13 -11,-38 7,-40 10,-1 27,-16 22,-29 -5,-11 2,-17 4,-27 3,-14 0,-13 -8,-23 -2,-2 0,-3 -3,-2z"/>
   <path class="fil2" d="M1923 940c1,12 -6,12 13,12 25,-1 8,10 12,20 3,7 -11,-2 -7,19 3,16 -18,-5 -20,12 -1,2 -14,1 -15,-16 -1,-10 -21,3 -22,-16 0,-8 16,-2 13,-17 0,-3 11,2 13,-11 0,-2 13,-6 13,-3z"/>
   <path class="fil2" d="M661 1588c8,2 13,-6 12,17 0,8 9,-4 9,17 -1,7 43,22 20,26 -30,5 7,49 -54,24 -19,-8 -16,5 -4,-21 23,-47 0,-16 5,-45 0,-2 14,-17 12,-18z"/>
   <path class="fil2" d="M1681 1201c-4,-22 -30,-5 -17,10 6,6 -13,1 -12,7 0,1 -14,12 -2,16 0,0 -6,12 5,4 0,0 11,-1 4,10 -6,10 9,18 9,21 0,5 11,1 13,-17 0,-2 2,-13 5,-14 7,0 9,-15 4,-20 0,0 3,-14 -2,-15 0,-1 -7,-3 -7,-2z"/>
   <path class="fil2" d="M1414 1327c-2,0 -6,2 -7,5 0,3 -16,4 -13,-3 1,-3 -18,-6 -18,-10 -1,-3 -7,-2 -11,3 -1,3 -13,-5 -12,10 0,3 -10,4 -4,13 3,4 -9,6 4,9 2,0 7,8 14,8 2,0 2,7 8,3 3,-1 9,-10 12,0 2,4 9,-1 7,-3 0,-1 7,-4 9,-6 5,-3 18,-2 18,-7 2,-1 -6,-2 -2,-8 2,-6 -1,-13 -5,-14z"/>
   <path class="fil2" d="M1678 1358c-6,-8 -25,-3 -14,14 3,5 -8,0 -6,8 0,0 -16,1 -2,11 0,0 14,2 3,8 -7,5 7,7 -7,10 -13,4 4,16 -8,22 0,0 -6,8 1,9 5,0 5,8 8,8 4,0 16,5 10,12 -7,9 14,10 1,16 -3,1 0,3 2,7 -5,7 -12,8 -3,21 2,2 -5,12 5,14 18,3 19,-12 13,-15 -1,0 0,-4 -1,-5 -5,-4 9,-3 8,-9 -1,-3 7,-7 8,-7 8,3 4,2 14,4 1,9 16,-6 12,7 -2,5 6,-1 7,9 1,2 11,-1 5,7 -4,7 18,5 12,10 0,0 3,4 6,-5 0,0 18,-5 7,-8 -7,-3 -3,-10 -7,-10 -3,1 3,-3 -9,-8 -3,-1 1,-4 -5,-7 -9,-2 1,-5 -2,-7 -6,-4 1,-6 -8,-4 -8,2 -2,-21 -16,-5 -2,2 -19,3 -13,-5 5,-7 -9,-9 -12,-10 -8,-4 9,-4 -1,-10 -4,-3 7,-3 8,-9 1,-14 11,-7 10,-16 0,-1 6,-2 10,-8 2,-2 8,-4 5,-10 0,0 -15,-2 -7,-10 14,-15 -4,-12 -1,-20 2,-4 -5,-10 -13,-10 -5,0 -2,-2 -13,0 -4,0 -9,-1 -7,1z"/>
   <path class="fil2" d="M1646 1530c-2,6 -6,-5 -9,7 -1,4 -8,-3 -10,10 0,4 -5,-1 0,10 5,13 -12,-1 -13,17 0,2 -11,3 -12,13 0,10 -14,14 -22,13 -10,-1 -3,8 -8,11 -8,5 2,4 3,8 3,1 6,-13 19,-12 11,0 19,-21 30,-15 5,3 8,-11 7,-12 -4,-1 3,-2 -5,-13 -3,-3 6,-2 6,-2 9,0 8,1 7,-10 -1,-8 3,3 5,-12 0,-5 5,-5 3,-11l-1 -2z"/>
   <path class="fil2" d="M1768 1512c-13,9 4,6 -9,6 0,0 -10,2 -2,8 9,7 -5,9 3,15 2,2 -7,9 1,13 3,3 -8,2 -1,7 4,2 -4,2 -7,8 -1,4 -14,-1 -11,-8 -2,-3 -17,-5 -12,-13 3,-6 -6,-1 -7,-11 -1,-6 -7,-1 -8,-6 -1,-6 -11,8 -14,9 0,0 -25,17 1,17 2,0 -4,15 7,8 0,-1 13,4 1,13 -8,7 5,9 -2,14 -4,3 22,5 15,15 -2,3 5,9 -6,8 -7,-1 -3,10 -6,10 -13,0 -13,32 0,20 2,-2 3,-10 9,-3 3,4 0,-17 14,-5 2,2 4,12 1,17 -7,11 10,16 10,19 0,11 13,-6 12,7 0,6 6,-1 7,5 1,5 11,-8 16,2 6,12 12,-10 14,-13 4,-6 2,-7 10,-12 8,-5 -12,2 -5,-13 1,-2 13,4 10,-5 -2,-6 -7,2 2,-14 5,-9 -10,5 -4,-15 4,-11 -6,-8 -4,-16 1,-8 -23,4 -12,-11 2,-4 -20,-5 -23,11 -2,6 -11,-2 -10,8 1,1 -7,7 -10,-6 0,-1 -10,-4 -2,-11 3,-2 3,3 -3,-8 0,-1 15,0 15,-6 1,-7 6,10 11,-6 2,-5 5,6 13,-9 3,-5 22,-4 20,-12 -1,-2 -11,-1 -3,-9 4,-4 -7,-1 -6,-10 1,-5 -8,4 -2,-7 4,-8 -7,-3 -9,-9 -2,-7 -4,5 -11,-5 0,-1 -1,2 -3,3z"/>
   <path class="fil2" d="M1575 1655c15,2 11,-2 11,15 1,14 45,-10 49,22 0,6 -15,1 -22,14 -5,9 -32,-13 -34,22 0,12 20,9 12,21 -7,11 17,8 6,23 -7,10 52,27 12,26 -20,-1 -29,14 -17,31 6,8 -7,15 -13,23 -8,11 -30,9 -14,38 6,12 -15,42 -41,42 -20,0 -9,-22 -20,-22 -14,0 -13,-17 -22,-16 -2,1 -25,44 -45,9 -9,-14 -44,29 -40,-17 2,-28 -13,-9 -6,-28 1,-2 -29,-16 -18,-38 12,-23 -15,-21 8,-23 17,-1 -22,-25 31,-20 8,0 -20,17 21,2 11,-4 7,5 6,-22 -1,-14 38,-1 38,-18 -1,-12 9,3 11,-19 1,-6 6,5 13,-13 3,-10 17,9 34,-20 2,-2 19,-14 21,-26 1,-6 16,-6 19,-6z"/>
   <path class="fil2" d="M1772 1794c-4,-5 -16,-6 -10,5 1,2 -4,-1 -3,6 2,7 -8,3 -12,6 -5,3 -15,-8 -24,-4 -14,6 -11,-5 -21,-4 -1,0 -1,-8 -1,-8 8,-11 -25,-10 -32,-6 -11,9 7,9 -7,18 -4,2 4,1 -8,8 -17,10 3,28 -5,33 -9,6 3,14 -10,16 -12,3 -5,17 -13,23 -5,4 -12,18 -7,23 1,1 -9,5 6,8 4,0 3,13 14,6 1,-1 5,8 -4,11 -21,6 -4,46 19,32 4,-3 12,6 11,-22 0,-4 8,-22 8,-22 22,16 0,19 14,27 4,2 18,-2 21,-9 2,-2 20,-2 17,-19 -2,-11 -29,-9 -25,-22 2,-3 -6,-5 -6,-5 0,-4 -2,-23 0,-23 10,-5 21,-13 32,-14 3,-1 11,-11 5,-9 -3,1 -21,4 -26,1 -4,-4 -26,-2 -28,1 -1,2 -2,6 -4,7 -1,-4 0,-16 -10,-16 -1,-2 9,-9 1,-9 15,0 4,-17 15,-17 2,0 1,8 13,8 6,-1 -10,6 10,4 7,-1 27,9 31,1 5,-9 27,0 31,-11 0,-2 16,-3 7,-11 -1,-2 5,-9 1,-13z"/>
   <path class="fil2" d="M1839 1903c-16,-1 -3,-5 -14,-7 -13,-2 2,9 -20,-1 -10,-4 -20,13 -10,19 4,3 -4,10 5,10 5,0 -1,11 11,3 5,-3 18,6 15,-8 -1,-6 15,-16 13,-16z"/>
   <path class="fil2" d="M1868 1892c-7,5 -5,5 -7,6 0,0 -9,-2 -8,2 -4,-4 -3,5 -7,9 -1,0 3,19 14,12 8,-6 16,4 22,-3 7,-7 11,10 30,-3 0,0 15,-4 8,-13 -1,-1 -12,0 -19,-4 -7,-4 10,-7 -11,-6 -4,0 2,-2 -5,-6 -6,-4 -3,4 -9,0 -1,-1 -7,6 -8,6z"/>
   <path class="fil2" d="M1924 1849c-6,8 -8,4 9,14 11,7 3,9 18,17 9,5 -1,7 5,10 3,1 18,-15 18,0 1,5 -13,0 -16,18 -1,2 4,15 11,15 9,0 -4,9 11,-1 18,-10 12,6 13,6 6,4 7,-4 13,6 1,1 14,-6 16,3 2,8 3,-5 5,12 1,1 13,9 18,5 7,-5 7,0 13,3 5,2 -1,13 17,-2 13,-10 26,3 10,17 -4,4 3,9 8,10 10,2 -8,16 17,15 3,0 8,7 1,6 -2,0 -6,5 -14,3 -11,-2 -14,36 -4,38 14,4 3,10 25,5 18,-4 5,8 16,-10 2,-2 18,-7 11,9 -2,5 19,5 23,5 6,-1 2,9 17,-2 5,-4 9,2 9,9 0,0 -3,21 10,9 4,-4 4,2 15,-3 0,0 24,-2 13,-13 -11,-9 3,-8 -4,-11 -9,-6 5,-8 8,-6 6,5 2,-4 7,-8 2,-2 -12,-7 4,-2 1,0 6,8 7,-2 1,-4 -7,-5 3,-6 5,-1 -11,-9 4,-7 2,0 0,4 -2,2 0,0 -2,5 0,6 12,2 11,-11 18,1 0,0 -8,9 7,12 3,1 10,-4 16,6 3,4 -12,3 0,14 10,10 11,4 6,10 -2,2 8,2 13,8 2,2 14,2 8,6 -4,2 3,-1 2,6 -1,3 11,-5 13,10 1,5 15,-6 21,1 10,11 19,-6 25,-4 8,3 16,-12 12,-14 -5,-4 -8,0 -9,-6 -1,-5 -12,1 -17,-13 0,-1 -18,-14 -8,-18 -12,2 -17,0 -23,-10 2,-5 6,-1 -1,-6 0,0 -2,-7 -2,-8 -5,-11 -18,-7 -19,-12 -3,-15 11,4 16,-12 3,-8 4,-9 -8,-9 -1,0 -25,-7 -25,-10 1,-9 -15,-11 -11,-22 -20,0 -10,-4 -20,-10 -4,-3 -3,6 -13,-4 -4,-3 12,-12 -14,-15 -17,-2 -1,1 -14,-8 -11,-7 -7,1 -14,-12 -2,-2 -16,-2 -24,-6 -10,-5 -7,13 -23,-6 -2,-2 1,-3 -8,-1 -19,6 -6,0 -16,-13 -3,-5 -11,7 -11,-10 0,0 -16,-12 -24,-10 -11,4 -3,-3 -17,9 -5,4 -13,-4 -8,11 2,4 -7,10 -9,1 -2,0 -17,6 -9,12 4,3 -10,10 -12,3 -3,-6 -20,7 -18,10 8,12 -12,3 -12,11 0,1 -3,-3 1,-15 4,-1 -9,1 -10,-5 -1,-6 -3,-9 -9,-9 -5,0 3,-13 1,-21 0,-4 16,2 8,-8 -10,-12 -9,-5 -21,-10 -7,-3 -27,4 -36,0 -12,-5 -40,1 -37,6z"/>
   <path class="fil2" d="M2375 1957c0,0 -6,3 -6,3 -4,0 -1,-3 -7,1 -6,4 3,0 -1,6 -1,2 -11,4 -5,7 3,2 2,-2 9,3 4,3 7,-2 2,5 0,0 1,7 5,5 11,-4 5,4 11,4 10,0 8,-6 19,-2 2,1 13,1 11,-3 -2,-2 5,-4 10,-2 0,0 7,1 7,-3 0,0 2,-4 5,-1 0,0 7,1 7,-5 1,-6 8,7 10,-3 0,-7 7,-4 2,-12 -2,-3 7,-5 6,-8 -3,-6 15,0 4,-9 -1,-1 -15,-6 -11,-11 4,-7 -7,-6 -7,-14 0,-3 -14,1 -12,6 1,3 -6,-2 -3,8 1,5 -7,5 -6,12 1,10 3,5 -6,14 -5,5 -16,-7 -21,-1 -4,3 -11,-6 -15,-3 0,1 -8,3 -8,3z"/>
   <path class="fil2" d="M1031 1710c-22,-10 -7,-18 16,-14 12,3 48,-22 56,16 2,11 16,12 17,24 1,11 37,9 37,29 -1,11 20,-10 19,19 0,7 13,-3 16,15 0,6 7,-6 15,15 34,12 19,-2 21,27 1,13 32,-1 30,27 -1,5 8,0 11,9 3,10 23,2 26,14 12,2 -19,28 1,56 0,0 4,19 -9,19 -8,0 -22,27 -43,-20 -3,-6 -29,-3 -35,-28 0,-3 -11,-23 -19,-26 -18,-6 -12,-17 -29,-33 -1,-1 4,-13 -12,-28 -18,-18 -41,5 -39,-45 0,-4 -24,-25 -32,-45 -4,-10 -40,-28 -47,-31z"/>
   <path class="fil2" d="M1312 1974c-13,10 -29,-3 -13,17 8,11 -10,11 19,13 6,0 -2,6 10,10 3,0 16,19 19,2 2,-10 21,18 16,-5 -3,-14 22,6 24,-5 1,-8 21,-14 -22,-21 -22,-3 3,-16 -24,-5 -9,4 -26,-20 -30,-9l1 3z"/>
   <path class="fil2" d="M1398 2010c0,31 22,12 32,23 3,4 19,-15 22,-2 5,2 22,-14 23,-3 0,9 3,-6 5,15 1,14 21,-9 28,-7 27,4 4,2 27,-2 10,-2 8,8 27,7 5,-1 11,2 14,6 -9,21 4,18 9,6 6,-14 43,-4 37,-31 -4,-17 -31,4 -37,2 -10,-5 -11,7 -35,-1 -6,-3 -46,1 -46,-3 0,-14 3,-21 -23,-21 -8,0 -14,10 -38,-7 -13,-9 -38,1 -45,18z"/>
   <path class="fil2" d="M1637 2049c-6,8 -12,-6 -13,8 -1,3 -2,1 4,3 7,3 -4,5 3,7 4,2 -7,7 6,9 5,1 -1,6 6,6 7,0 10,7 15,-6 1,-4 -11,-6 -1,-18 2,-2 8,0 9,-4 2,-7 13,4 17,-4 3,-1 15,-3 18,-2 2,1 12,0 8,-1 0,0 7,9 9,7 1,-1 11,-7 11,-8 3,-1 8,5 13,6 8,1 -7,6 0,13 5,4 -13,7 3,18 4,3 9,-4 10,-9 1,-8 13,-2 8,-10 0,-1 14,1 20,-2 7,-4 2,2 10,-6 2,-2 -5,-7 2,-6 29,4 35,-11 15,-17 -4,-1 -10,3 -16,3 -7,-1 -13,13 -21,10 -5,-2 -8,8 -13,4 -8,-8 -11,-5 -20,-10 -4,-2 2,-6 -9,-1 -6,3 -7,-5 -17,-5 -9,1 -14,-6 -22,1 -4,3 -11,5 -15,2 -10,-7 -16,-4 -26,2 -5,3 0,20 -14,11 0,-1 0,-1 0,-1z"/>
   <path class="fil2" d="M1895 2179c-17,-2 9,14 -12,18 -1,0 -32,28 -35,-7 -1,-9 -42,-39 -58,9 -10,29 -14,-11 -32,40 -5,13 -25,-3 -32,17 -8,3 -19,-19 -22,-1 -19,4 18,33 -19,59 -18,12 2,43 -38,15 -23,-16 -22,28 -63,26 -30,-1 -1,27 -45,18 -21,-5 -20,20 -43,19 -14,-1 5,34 -17,64 -7,9 16,50 29,25 0,0 18,13 -8,18 -13,3 -42,47 12,58 14,3 4,57 32,64 7,22 -34,14 10,39 10,6 11,23 -17,29 -3,0 -43,43 5,33 21,-4 -1,39 39,9 1,0 19,-2 27,-6 6,-5 34,18 43,-25 56,-12 72,39 79,-6 5,-28 64,-8 45,-28 0,0 19,14 27,-21 48,-9 23,30 51,5 5,-5 55,-33 67,-16 10,13 68,30 63,10 3,-1 38,0 5,29 -22,18 44,7 27,34 -5,7 42,40 40,0 0,-1 38,-29 37,-14 -3,32 11,-2 -13,31 -25,36 27,-5 27,-5 0,81 16,-12 44,54 1,4 -59,31 16,50 12,3 12,-11 26,5 5,6 28,-1 27,16 53,0 -10,-29 61,-14 5,15 -5,29 30,2 28,-21 15,9 55,-20 16,-11 27,33 24,-35 -1,-36 65,3 46,-93 -3,-13 21,-32 28,-51 -23,-36 27,-42 4,-74 -9,-13 25,-3 -5,-41 -23,-28 32,-40 -33,-85 -39,-28 -20,-46 -63,-46 0,-26 13,-52 -7,-55 -16,-2 -30,-31 -75,-31 0,-44 26,-39 -15,-74 -13,-11 20,-33 -33,-40 -28,-5 22,-83 -47,-83 -39,57 19,33 -14,85 -14,22 16,43 0,52 -24,14 17,60 -64,11 -13,-8 -22,10 -28,-16 -21,-7 -15,8 -43,-24 -14,-17 4,-5 6,-38 1,-8 32,8 23,-44 -69,-24 -29,20 -93,-19 -10,-6 -17,28 -53,26 0,0 -25,23 -24,28 -2,0 -2,14 -4,14z"/>
   <path class="fil2" d="M2299 2915c-19,-6 2,-17 -26,-7 -8,3 -40,-1 -6,23 26,19 24,-6 8,32 -4,10 43,13 49,-5 13,-41 40,-8 33,-48 -1,-9 -59,5 -58,5z"/>
   <path class="fil2" d="M2956 2896c-14,-20 -13,34 -46,50 -12,6 4,20 -36,32 -15,4 1,29 -39,41 -2,1 -35,52 -19,55 39,6 11,-11 63,0 29,6 24,-55 44,-46 19,7 2,-31 39,-30 22,1 13,-25 29,-53 7,-10 -12,2 -6,-35 4,-23 -17,14 -27,-17l-2 3z"/>
   <path class="fil2" d="M2970 2727c-23,47 10,3 11,48 0,10 23,-7 20,23 -2,14 43,14 0,23 -9,1 -27,49 8,47 33,-1 -18,25 6,39 13,8 3,40 38,-9 24,-34 -15,6 19,-20 4,-3 -2,-4 15,-19 15,-14 18,-5 23,-19 1,0 -7,-48 -21,-41 -54,26 -7,-14 -60,-20 -21,-3 4,-9 -23,-18 -3,-2 8,-41 -32,-40 -3,0 -2,3 -4,6z"/>
  </g>
 </g>
</svg>
