<?xml version="1.0" encoding="utf-8"?>
<!-- Generator: Adobe Illustrator 20.0.0, SVG Export Plug-In . SVG Version: 6.00 Build 0)  -->
<!DOCTYPE svg PUBLIC "-//W3C//DTD SVG 1.1//EN" "http://www.w3.org/Graphics/SVG/1.1/DTD/svg11.dtd">
<svg version="1.1" id="Layer_3" xmlns="http://www.w3.org/2000/svg" xmlns:xlink="http://www.w3.org/1999/xlink" x="0px" y="0px"
	 viewBox="0 0 316 337" style="enable-background:new 0 0 316 337;" xml:space="preserve">
<style type="text/css">
	.st0{fill:#DB2E39;}
	.st1{fill:#D62027;stroke:#221F1F;stroke-width:0.9193;stroke-miterlimit:10;}
	.st2{fill:#F05959;}
	.st3{fill:#D23227;}
	.st4{fill:#D64C61;}
	.st5{fill:#F17275;}
	.st6{fill:#D84450;}
	.st7{fill:#F05F6C;}
	.st8{fill:#E73844;}
	.st9{fill:#BF374E;}
	.st10{fill:#B42A2A;}
	.st11{fill:#E55560;}
	.st12{fill:#EE454E;}
	.st13{fill:#EE3A46;}
	.st14{fill:#F05D5E;}
	.st15{fill:#CB3241;}
	.st16{fill:#EE4243;}
	.st17{fill:#FFFFFF;}
	.st18{fill:#DBDBDA;}
	.st19{fill:#F3F4F5;}
	.st20{fill:#A4A4A4;}
	.st21{fill:#8F423A;}
	.st22{fill:#00A54F;}
	.st23{fill:#42803C;}
	.st24{fill:#AD3654;}
	.st25{fill:#C13B55;}
	.st26{fill:#991C3B;}
	.st27{fill:#A03553;}
	.st28{fill:#C33C55;}
	.st29{fill:#C64456;}
	.st30{fill:#C6C8C6;}
	.st31{fill:#F06155;}
	.st32{fill:#CC4E31;}
	.st33{fill:#C64E4F;}
	.st34{fill:#FCFDFF;}
	.st35{fill:#DBDDDB;}
	.st36{fill:#B5202B;}
	.st37{fill:#A51F47;}
	.st38{fill:#C44563;}
	.st39{fill:#A3232F;}
	.st40{fill:#9A1C20;}
	.st41{fill:#7F1634;}
	.st42{fill:#C4C3C3;}
	.st43{fill:#C13644;}
	.st44{fill:#CC1D1D;}
	.st45{fill:#E02235;}
	.st46{fill:#ED5668;}
</style>
<g>
	<path class="st0" d="M32.5,92.3c1.6,0.5,125.7-41.1,125.7-41.1l124.5,41.4l-19.4,155.9l-105.6,68.8L51.2,248.5L32.5,92.3z"/>
	<path class="st1" d="M145.7,148.6"/>
	<path class="st1" d="M142.1,179.9"/>
	<polygon class="st2" points="220.2,91.6 229.4,158.8 158.5,102.7 	"/>
	<polygon class="st3" points="266.3,224.1 282.7,92.6 220.2,91.6 229.4,158.8 	"/>
	<polygon class="st4" points="157.7,317.3 262.4,257.9 266.3,224.1 229.4,158.8 	"/>
	<polygon class="st5" points="198,64.4 220.2,91.6 282.7,92.6 	"/>
	<polygon class="st6" points="198,64.4 220.2,91.6 158.5,109.3 	"/>
	<polygon class="st0" points="158.3,51.5 158.2,110 198,64.4 	"/>
	<path class="st1" d="M168.7,148.6"/>
	<path class="st1" d="M172.4,179.9"/>
	<polygon class="st7" points="157.7,315.7 199.5,250.8 229.4,158.7 159.5,124.2 159.5,122 157.2,123.1 154.9,122 154.9,124.2 
		85,158.7 117.4,254.3 156.8,315.7 157.2,316.5 	"/>
	<polygon class="st8" points="94.8,91.9 85.1,158.8 162.2,111.2 	"/>
	<polygon class="st9" points="48.3,224 32.1,92.6 95.7,92.2 85.1,158.8 	"/>
	<polygon class="st10" points="157.7,317.3 51.4,258.6 48.3,224 85.1,158.7 117.5,254.3 	"/>
	<polygon class="st11" points="116.1,65.3 95.1,93 32,92.5 	"/>
	<path class="st12" d="M158.6,110.2c-5.1-4.2-42.5-45-42.5-45L95.6,92.1L158.6,110.2L158.6,110.2z"/>
	<polygon class="st13" points="158.2,51.2 158.4,110.9 153.1,105.2 116.1,65.3 	"/>
	<polygon class="st14" points="85.1,158.8 151.5,107.6 155,108.6 156.1,104.1 158.2,102.4 229.4,158.8 	"/>
	<path class="st15" d="M32,92.5l63.6-0.3c0,0-9.4,62.2-10.6,66.5C82.3,156,32,92.5,32,92.5z"/>
	<polygon class="st16" points="220.2,91.6 282.7,92.6 229.4,158.8 	"/>
	<path class="st17" d="M158.4,94.2L95.8,236.6h23.7l13-32.6h56.8l14.9,32.6h21.6L158.4,94.2L158.4,94.2z M159.6,140.4l21.4,44.8
		h-40.2l17.6-44.8H159.6z"/>
	<polygon class="st18" points="213.2,208.8 204.1,236.6 204.1,236.6 225.8,236.6 	"/>
	<g>
		<path class="st19" d="M168.4,158.9"/>
		<path class="st19" d="M189.1,158.9c0,0-6.5,0.1-21.1,0l12.7,26.2h-39.9l11-26.5c-6.3,0-13.8,0.1-21.8,0.1L104.6,216l6.9,20.4h8
			l13-32.6H189l15.2,32.7l9-27.8L189.1,158.9z"/>
	</g>
	<polygon class="st20" points="111.5,236.6 104.5,216.2 95.8,236.6 	"/>
	<path class="st21" d="M161.4,107.3l-6.4,0.5c0,0,11.5-57,11.5-64.8s0-9.7,0-9.7s9.7-2.3,10.6,1.4s-3.7,3.7-4.6,7.4
		S161.4,107.3,161.4,107.3z"/>
	<path class="st22" d="M188.5,40.2c0,0,0-1.8,5.1-8.7s24.4-17,41.4-19.3s57.5,25.3,57.5,25.3s-24.1,3.6-36.3,1.7
		c-16.3-2.5-22.5-7.4-31.1-6.1c-10.7,1.6-25.3,5.8-28.3,7.1c-3.6,1.7-11,2.1-24.9,4.7c-1.1,0.2,0-1.1,0-1.1"/>
	<path class="st23" d="M171.7,44.9l17.7-3c0,0,30.2,22.5,56.9,17s21.4-16.2,46-21.5c0,0-15.3,1.3-28.5,1.7
		c-10.6,0.4-30.8-8.3-40-6.4c-9.2,1.8-31.5,7.5-31.5,7.5"/>
	<polygon class="st24" points="133,278.3 181.5,278.2 157.6,316.9 	"/>
	<polygon class="st25" points="181.5,278.2 242.8,269 157.7,317.2 	"/>
	<polyline class="st26" points="133,278.3 157.7,317.3 123.3,298.1 72.2,270.2 	"/>
	<polygon class="st27" points="38.3,143 43,105.8 32,92.5 	"/>
	<polygon class="st28" points="32,92.5 47.4,92.8 43,105.8 	"/>
	<polygon class="st29" points="32,92.5 62.3,82.7 47.3,92.8 	"/>
	<polygon class="st30" points="148.5,116.7 152.2,108.3 158.2,110 165,108 168.8,116.1 158.2,121.2 	"/>
	<polygon class="st31" points="95.7,92.2 138.6,118.2 154.2,108.2 	"/>
	<polygon class="st32" points="155.7,107.3 138.1,118 173.3,114.4 162.4,106 	"/>
	<polygon class="st33" points="220.1,91.7 173.3,114.4 164.4,107.6 	"/>
	<polygon class="st34" points="129.9,158.8 158.4,94.1 189.1,158.9 167.9,158.9 159.6,140.5 158.5,140.5 151.7,158.8 	"/>
	<polygon class="st35" points="158.4,94.1 152.3,108 165,108 	"/>
	<polygon class="st36" points="265.4,232.3 242.5,269.2 262.4,257.9 	"/>
	<polygon class="st37" points="51.4,258.7 72.6,270.3 49.3,234.8 	"/>
	<path class="st25" d="M117.5,254.4"/>
	<path class="st4" d="M118,255.7c1.2,0.3,79.4-0.7,79.4-0.7l-15.9,23.2H133l-14.6-22.6"/>
	<polygon class="st38" points="196.8,255 198.5,254.9 244,266.8 242.6,269.1 181.5,278.2 	"/>
	<polygon class="st39" points="72.8,270.3 118.4,255.7 133,278.3 	"/>
	<polygon class="st40" points="118.4,255.7 49.3,234.8 72.6,270.3 	"/>
	<polygon class="st41" points="189.4,299.4 157.7,317.3 124.8,299.1 	"/>
	<path class="st42" d="M148.3,116.9c19.9-2,19.9-2,19.9-2l-3.3-6.9h-12.7L148.3,116.9z"/>
	<polygon class="st43" points="196.8,255 265.4,232.3 243.3,268.1 	"/>
	<polygon class="st44" points="276.4,142.9 271.6,106.4 282.6,92.7 	"/>
	<polygon class="st45" points="282.6,92.7 267.1,92.4 271.6,106.4 	"/>
	<polygon class="st46" points="282.6,92.7 251.8,82.4 267.1,92.4 	"/>
</g>
</svg>
