<?xml version="1.0" encoding="UTF-8" standalone="no"?><!DOCTYPE svg PUBLIC "-//W3C//DTD SVG 1.1//EN" "http://www.w3.org/Graphics/SVG/1.1/DTD/svg11.dtd"><svg width="100%" height="100%" viewBox="0 0 404 433" version="1.1" xmlns="http://www.w3.org/2000/svg" xmlns:xlink="http://www.w3.org/1999/xlink" xml:space="preserve" xmlns:serif="http://www.serif.com/" style="fill-rule:evenodd;clip-rule:evenodd;stroke-miterlimit:1.41421;"><g><path d="M201.51,0l-201.51,71.86l30.735,266.444l170.775,94.586l170.775,-94.586l30.736,-266.444l-201.511,-71.86Z" style="fill:#dd0031;fill-rule:nonzero;"/><path d="M201.51,0l0,48.051l0,-0.217l0,385.056l170.775,-94.586l30.736,-266.444l-201.511,-71.86Z" style="fill:#c3002f;fill-rule:nonzero;"/><path d="M201.51,8.756l-193.358,68.953l29.492,255.665l163.866,90.76l163.867,-90.76l29.492,-255.665l-193.359,-68.953Z" style="fill:none;stroke:#fff;stroke-width:2px;"/><g><path d="M202.354,322.625l-26.648,0.181l-0.599,1.467l-42.172,0.366l-4.487,1.829l-14.189,0.729l-3.361,2.926l-9.272,-0.199l0,14.456c0.177,0.002 0.354,-0.002 0.531,0c-0.1,0.57 0.053,1.31 0.504,1.652l0,3.044c64.002,3.216 132.23,0.892 201.734,0c-0.065,-6.588 -0.049,-12.795 -0.028,-19.179l-10.563,0.226l-3.361,-2.926l-14.189,-0.729l-4.487,-1.829l-42.172,-0.366l-0.599,-1.467l-26.642,-0.181Zm76.757,-56.309c2.002,0.052 4.226,2.867 4.797,4.078c1.569,3.574 0.985,9.67 0.985,9.67l0.192,31.314l-8.628,-0.419l-0.192,-40.773c0,0 -0.003,-1.263 0.781,-2.523c0.54,-0.91 1.19,-1.297 1.872,-1.342c0.065,-0.005 0.128,-0.007 0.193,-0.005Zm-156.824,0c0.724,0.007 1.411,0.387 1.98,1.347c0.785,1.26 0.787,2.523 0.787,2.523l-0.198,40.773l-8.628,0.419l0.198,-31.314c0,0 -0.59,-6.096 0.978,-9.67c0.565,-1.197 2.751,-3.962 4.736,-4.073c0.049,-0.003 0.099,-0.005 0.147,-0.005Zm136.162,-9.443c2.823,-0.008 5.987,3.338 6.795,4.77c2.194,4.175 1.375,11.304 1.375,11.304l0.271,36.609l-12.067,-0.491l-0.271,-47.666c0,0 0,-1.473 1.096,-2.947c0.803,-1.13 1.78,-1.576 2.801,-1.579Zm-115.579,0c1.021,0.003 1.998,0.449 2.801,1.579c1.096,1.474 1.096,2.947 1.096,2.947l-0.276,47.666l-12.069,0.491l0.278,-36.609c0,0 -0.825,-7.129 1.369,-11.304c0.807,-1.432 3.977,-4.778 6.801,-4.77Zm85.968,-3.852c3.037,-0.009 6.446,3.511 7.315,5.017c2.361,4.397 1.476,11.899 1.476,11.899l0.294,38.533l-12.984,-0.514l-0.294,-50.178c0,0 -0.004,-1.548 1.176,-3.1c0.864,-1.189 1.918,-1.655 3.017,-1.657Zm-56.334,-0.007c1.09,0.011 2.13,0.484 2.987,1.664c1.181,1.552 1.183,3.1 1.183,3.1l-0.294,50.178l-12.991,0.514l0.295,-38.533c0,0 -0.884,-7.502 1.477,-11.899c0.85,-1.474 4.135,-4.882 7.122,-5.017c0.074,-0.004 0.149,-0.007 0.221,-0.007Zm28.051,-6.874c6.636,0 11.977,5.347 11.977,11.983l0,48.842l-23.955,0l0,-48.842c0,-6.636 5.342,-11.983 11.978,-11.983Zm3.513,-57.028c-4.02,0.276 -5.869,5.798 -3.734,11.128c0,2.012 -8.6,14.083 -8.6,14.083l-9.522,0.915l0.187,7.497l-3.66,2.925l-2.196,0l-3.263,2.744c0,0 -4.024,0.549 -5.669,1.098c-1.647,0.548 -4.391,5.855 -4.391,5.855l-24.701,-8.413l-17.923,19.751l-15.898,0.549c0,0 -3.023,1.257 -5.867,2.562c0.075,1.142 1.027,2.112 1.431,3.163c0.558,1.305 1.559,2.54 3.038,2.711c0.461,0.207 1.561,-0.198 1.381,0.622c0.026,1.259 0.371,2.588 0.232,3.801c-1.278,0.341 -1.753,1.95 -1.03,3.004c0.336,0.439 0.336,0.962 -0.159,1.252c-0.845,1.043 -0.606,2.58 0.147,3.591c0.181,0.998 0.251,2.01 0.273,3.021l0.067,0l0,46.037l-1.55,0l0,0.514l-1.035,0l0,8.969l9.272,0.011l3.361,-2.926l14.189,-0.729l4.487,-1.828l40.322,-0.367l0.747,-1.829l28.35,0.188l28.344,-0.188l0.747,1.829l40.322,0.367l4.487,1.828l14.189,0.729l3.361,2.926l10.573,-0.011c0.01,-2.911 0.018,-5.875 0.018,-8.969l-2.586,0l0,-42.93l0.685,0c-0.015,-2.331 0.068,-4.666 0.537,-6.913c0.655,-1.123 0.448,-2.632 -0.401,-3.596c0.514,-1.051 0.865,-2.795 -0.396,-3.47c-0.533,-0.079 -0.726,-0.388 -0.639,-0.934c-0.053,-1.177 -0.134,-2.515 0.101,-3.586c2.401,-0.047 3.84,-2.337 5.109,-4.057c0.59,-0.86 1.116,-1.766 1.714,-2.626c-1.954,-0.557 -3.991,-1.098 -5.719,-2.211l-14.614,-0.504l-17.924,-19.751l-24.701,8.413c0,0 -2.745,-5.307 -4.39,-5.855c-1.646,-0.549 -5.669,-1.098 -5.669,-1.098l-3.265,-2.744l-2.195,0l-3.66,-2.925l0.186,-7.497l-9.521,-0.915c0,0 -8.6,-12.071 -8.6,-14.083c2.135,-5.33 0.287,-10.852 -3.734,-11.128c-0.107,-0.002 -0.215,0 -0.323,0c-0.106,0 -0.214,-0.002 -0.322,0Zm-3.214,-42.523c-0.207,0.005 -0.436,0.045 -0.712,0.142c-2.071,2.744 -4.735,5.161 -7.791,6.822c-6.106,0.531 -12.206,1.167 -18.206,2.45c-7.135,1.261 -13.397,6.462 -19.129,10.947c0.032,0.632 0.179,1.341 -0.067,1.8c-0.857,-0.177 -1.945,0.084 -2.083,1.081c-0.234,0.918 0.246,1.773 0.742,2.484c0.604,5.195 0.479,10.514 0.475,15.761c-0.125,1.514 0.133,3.154 -0.192,4.606c-1.305,0.408 -1.008,2.456 0.068,3.027c-1.08,0.392 -1.535,1.644 -2.235,2.472c-0.695,1.194 -1.5,2.569 -1.319,4c0.382,0.433 0.096,0.71 -0.243,1.041c-1.035,1.249 -2.847,2.364 -2.812,4.18c0.105,0.678 0.934,0.846 1.279,1.228c0.207,3.854 -0.073,7.712 -0.238,11.565c-0.561,-0.62 -1.183,-1.217 -1.437,-1.629c0.553,-1.032 1.584,-2.669 0.368,-3.644c-0.454,-0.43 -1.479,0.234 -1.46,-0.571c-0.169,-1.279 -1.674,-2.396 -2.857,-1.584c-0.581,0.521 -0.396,1.672 -1.398,1.736c-1.863,0.214 -1.964,2.791 -0.763,3.842c0.169,0.363 0.199,0.668 -0.283,0.56c-0.24,0.007 -1.093,0.106 -2.094,0.243c0.01,-0.054 0.018,-0.109 0.029,-0.164c1.357,-0.036 0.572,-2.726 -0.26,-3.678c-0.53,-0.747 -0.318,-0.726 0.158,-1.73c1.55,0.031 1.989,-1.841 1.805,-3.09c-0.313,-2.768 -0.662,-5.797 -2.449,-8.034c-0.295,-0.217 -0.836,-0.279 -0.471,-0.752c0.265,-1.316 -0.745,-2.469 -0.565,-3.785c-0.063,-0.865 -1.225,-1.167 -1.691,-1.307c0.911,-0.827 0.355,-2.341 0.61,-3.366c1.512,-0.645 1.172,-2.707 0.555,-3.87c-0.48,-1.024 -1.567,-1.541 -2.631,-1.663c-0.419,-0.199 -1.119,-0.618 -1.109,-1.013c1.211,-0.578 1.114,-2.41 0.373,-3.287c0.302,-0.459 -0.163,-0.909 -0.492,-1.132c-0.114,-1.038 -0.902,-1.905 -1.132,-2.873c1.235,-0.8 0.66,-2.572 -0.158,-3.458c-0.708,-0.478 -0.407,-1.577 0.243,-1.877c0.382,-0.506 0.029,-1.229 0.068,-1.692c0.626,-0.518 0.477,-1.5 0.035,-2.042c0.173,-0.745 -0.209,-1.497 -0.82,-1.845c-0.068,-0.465 -0.277,-0.944 -0.556,-1.267c0.161,-1.634 0.755,-3.631 -0.305,-5.053c-0.9,-0.6 -1.763,0.615 -1.612,1.454c-0.211,1.595 0.168,3.583 -0.996,4.832c-1.194,0.392 -0.61,1.905 -0.588,2.749c-1.188,0.608 -1.065,2.445 -0.108,3.168c0.139,1.086 -1.154,1.634 -1.058,2.728c-0.116,0.741 0.216,1.463 0.645,2.008c-0.256,0.896 -1.534,0.989 -1.867,1.89c-0.655,0.888 -1.155,2.498 0.052,3.174c0.468,-0.049 0.198,0.787 0.095,1.046c-0.832,0.715 -2.024,1.05 -2.495,2.145c-0.962,1.726 -0.933,3.88 -0.582,5.776c0.086,0.568 1.073,1.206 0.283,1.579c-0.558,0.577 -0.454,1.501 -0.488,2.172c-0.71,0.104 -0.861,0.93 -1.113,1.397c-0.873,0.536 0.134,1.76 -0.714,2.28c-0.693,0.671 -0.425,1.966 -1.511,2.223c-0.8,0.384 -1.662,0.622 -2.449,1.037c0.109,1.654 0.483,3.854 2.218,4.446c-0.35,2.667 -0.156,5.43 -0.203,8.13c-0.009,1.27 0.044,2.76 -0.057,3.898c-0.632,-0.693 -1.658,-0.301 -2.456,-0.237c-0.856,0.208 -1.033,1.143 -0.95,1.856c-0.925,0.233 -0.948,1.332 -0.934,2.11c-0.932,-0.087 -1.752,0.783 -1.516,1.725c-0.059,1.038 -0.273,2.626 0.821,3.123c0.159,1.838 -0.006,3.729 0.017,5.585c-2.645,2.467 -5.817,4.333 -8.369,6.891c-0.098,0.872 -0.022,1.769 0.012,2.659c0.35,-0.148 0.917,-0.391 0.917,-0.391l14.449,-0.549l17.924,-19.751l26.149,8.414c0,0 2.744,-5.308 4.391,-5.856c1.645,-0.549 5.669,-1.098 5.669,-1.098l0.729,-2.744l2.195,0l3.661,-2.925l-0.187,-7.497l10.608,-0.915c0,0 7.315,-10.238 7.315,-12.249c-2.199,-4.79 0.724,-12.009 4.939,-12.255c0.644,0 1.263,0.049 1.85,0.141c0.589,-0.092 1.207,-0.141 1.851,-0.141c4.215,0.246 7.139,7.465 4.938,12.255c0,2.011 7.316,12.249 7.316,12.249l10.608,0.915l-0.187,7.497l3.661,2.925l2.195,0l0.73,2.744c0,0 4.023,0.549 5.669,1.098c1.645,0.548 4.39,5.856 4.39,5.856l26.15,-8.414l17.923,19.751l12.565,0.475c-0.001,-0.727 -0.004,-1.456 -0.005,-2.183c-2.743,-2.165 -5.559,-4.293 -8.124,-6.648c0.044,-2.354 -0.243,-4.776 0.526,-7.033c0.109,-1.086 0.162,-2.464 -0.645,-3.287c-0.292,-0.271 -1.106,-0.09 -0.821,-0.695c0.063,-0.655 -0.393,-1.251 -0.91,-1.539c0.095,-0.881 -0.184,-2.243 -1.336,-2.134c-0.689,-0.001 -1.459,-0.216 -2.093,0.142c-0.101,-3.745 0.076,-7.494 0.339,-11.224c-0.007,-0.404 -0.36,-0.88 0.238,-0.957c1.563,-0.811 2.156,-3.608 0.362,-4.469c-0.903,-0.431 -2.173,-0.67 -2.376,-1.844c-0.293,-0.76 -1.168,-1.305 -0.855,-2.173c0.141,-0.624 -0.303,-1.109 -0.622,-1.516c-0.088,-0.494 -0.707,-0.674 -0.956,-0.877c0.152,-0.952 -0.24,-1.97 -0.808,-2.642c1.118,-1.958 1.218,-4.517 0.293,-6.569c-0.498,-1.228 -1.756,-1.768 -2.778,-2.439c-0.249,-0.61 -0.079,-1.437 0.408,-1.912c0.372,-0.815 0.065,-1.758 -0.498,-2.353c-0.094,-0.679 -0.988,-0.659 -1.075,-1.291c-0.148,-0.362 -0.822,-0.436 -0.407,-0.877c0.816,-0.992 0.899,-2.817 -0.441,-3.411c-0.538,-1.022 0.64,-1.94 0.684,-2.953c0.007,-0.595 -0.517,-1.022 -0.985,-1.199c-0.224,-0.733 0.594,-1.414 0.103,-2.139c-0.16,-0.593 -0.838,-0.745 -1.16,-1.126c-0.881,-1.821 0.045,-4.094 -0.957,-5.827c-0.812,-0.685 -1.609,0.476 -1.504,1.256c-0.195,1.541 0.229,3.241 -0.594,4.593c0.063,0.785 -0.711,1.144 -0.782,1.902c-0.304,0.906 -0.215,1.913 0.17,2.749c-0.244,0.772 0.061,1.494 0.407,2.167c0.374,0.75 -0.646,0.918 -0.785,1.545c-0.424,1.022 -0.334,2.268 0.373,3.129c-0.025,1.083 -1.323,1.762 -1.375,2.885c-0.133,1.184 -1.433,2.277 -0.724,3.541c0.007,0.591 1.241,0.577 0.651,1.082c-0.414,0.663 -1.194,0.831 -1.895,0.678c-1.854,0.328 -2.34,2.541 -2.355,4.141c0.074,0.933 1.418,1.16 1.228,2.178c-0.021,0.849 -0.171,1.859 0.448,2.529c-1.817,0.459 -2.113,2.7 -2.065,4.283c-0.146,0.516 0.328,1.385 -0.528,1.387c-1.478,1.248 -1.602,3.378 -2.245,5.097c-0.483,1.788 -1.208,4.158 0.272,5.669c1.69,0.743 3.547,0.742 1.917,2.376c-0.745,0.909 -1.312,3.38 0.159,3.632c0.218,0.271 -0.074,0.788 -0.289,1.296c-0.71,-0.675 -2.083,-1.455 -2.483,-1.256c-0.493,-1.13 1.271,-1.875 0.764,-3.05c-0.014,-0.871 -0.742,-1.629 -1.647,-1.511c-0.857,-0.161 -0.964,-1.23 -1.528,-1.662c-1.236,-0.629 -2.597,0.616 -2.596,1.85c-0.805,-0.408 -1.969,0.207 -1.998,1.188c-0.086,1.004 0.662,1.811 0.94,2.716c-0.052,0.869 -0.752,1.612 -1.132,2.235c-0.004,-0.356 -0.017,-0.731 -0.045,-1.127c-0.204,-2.892 -0.345,-6.709 -0.379,-8.887c0.106,-0.671 -0.131,-1.677 0.243,-2.157c0.763,-0.173 0.69,-1.035 0.939,-1.589c-0.029,-1.353 -1.398,-2.161 -2.189,-3.1c-0.417,-0.509 -1.389,-1.086 -0.877,-1.817c0.443,-2.209 -1.791,-3.666 -2.371,-5.612c-0.11,-0.571 -0.606,-1.075 -1.137,-1.081c0.807,-0.923 0.565,-2.283 -0.096,-3.185c-0.298,-2.518 -0.233,-5.09 -0.294,-7.632c0.035,-3.047 -0.227,-6.086 -0.623,-9.097c0.049,-1.164 -0.108,-2.447 0.486,-3.463c0.029,-0.569 0.701,-0.664 0.691,-1.29c0.31,-0.993 -0.484,-2.116 -1.561,-1.918c-0.413,0.013 -1.321,0.185 -0.905,-0.515c-0.034,-0.247 -0.035,-0.513 -0.029,-0.787c-2.589,-2.197 -5.374,-4.515 -8.266,-6.438c-5.502,-4.094 -12.409,-5.35 -19.072,-6.217c-3.761,-0.711 -7.636,-0.475 -11.388,-1.183c-3.396,-0.466 -6.761,-5.156 -8.487,-7.095c-0.854,0.06 -1.268,-0.233 -1.89,-0.22Zm5.997,-66.358c0.74,0.001 1.662,0.237 2.796,0.718c3.103,1.035 4.135,5.689 4.135,6.982c0,1.293 -0.514,17.068 -0.514,17.068c0,0 -2.072,-0.516 -3.107,-0.774c-1.034,-0.259 -5.793,-1.55 -5.793,-1.55l-0.153,-16.815c-0.161,-3.571 0.421,-5.635 2.636,-5.629Zm-10.217,0c2.215,-0.006 2.804,2.058 2.643,5.629l-0.16,16.815c0,0 -4.758,1.291 -5.793,1.55c-1.034,0.258 -3.1,0.774 -3.1,0.774c0,0 -0.52,-15.775 -0.52,-17.068c0,-1.293 1.037,-5.947 4.141,-6.982c1.132,-0.481 2.05,-0.717 2.789,-0.718Zm4.35,-45.957c-0.063,-0.004 -0.127,-0.002 -0.191,0.005c-1.373,0.549 -1.548,2.239 -1.596,3.514c-0.854,1.049 -2.007,2.362 -1.516,3.864c0.191,0.796 0.998,1.142 1.709,1.24c0.481,0.828 -0.593,1.599 -0.516,2.466c-0.199,1.263 0.256,2.51 0.346,3.734c-0.329,0.563 -0.36,1.281 -0.261,1.844c-1.099,0.664 -1.228,2.184 -1.058,3.35c0.044,0.632 0.634,1.002 0.905,1.459c0.005,0.641 -0.904,0.662 -1.216,1.115c-1.504,1.181 -3.314,2.197 -4.254,3.892c-0.075,0.549 0.02,1.124 -0.572,1.426c-1.868,2.005 -4.771,3.272 -5.691,6.014c-0.699,2.495 0.342,5.194 -0.453,7.644c-0.333,0.778 -1.166,0.965 -1.817,1.323c-0.548,0.446 -0.428,1.616 -1.363,1.449c-1.339,0.326 -1.281,1.992 -1.176,3.077c-0.081,1.233 -0.02,2.503 0.559,3.604c0.051,0.653 0.239,1.403 0.838,1.714c0.754,4.061 0.558,8.241 0.826,12.357c0.058,3.283 0.302,6.747 0.243,9.917c-0.894,-0.133 -1.999,0.443 -1.855,1.478c0.002,0.713 0.09,1.54 -0.465,2.053c-0.172,1.322 -0.532,2.572 -1.159,3.74c-0.787,2.467 -0.211,5.128 -0.097,7.654c0.023,0.461 0.235,1.243 -0.158,1.539c-0.716,-0.159 -1.081,0.504 -1.584,0.815c-0.576,2.331 -3.093,0.468 -4.769,-0.407c0.064,-0.921 0.022,-2.379 -1.211,-2.445c-1.053,-0.312 -2.426,0.435 -2.116,1.669c0.078,0.557 -0.079,1.26 -0.718,1.336c-1.719,1.387 -2.903,3.662 -2.688,5.913c0.296,0.661 0.859,1.217 0.713,2.013c0.085,1.022 0.345,2.124 0.113,3.117c-1.08,0.964 -1.951,2.269 -3.214,2.925c0.16,-0.94 -0.764,-1.518 -1.612,-1.374c-0.89,-0.12 -1.782,0.551 -1.681,1.494c-0.136,0.474 0.285,1.421 -0.18,1.629c-0.943,-0.008 -1.575,0.92 -1.397,1.822c-0.072,0.732 0.26,1.544 0.888,1.867c-1.924,5.049 -3.358,10.257 -4.679,15.229c3.636,-3.106 7.474,-6.342 11.677,-8.016c7.686,-2.726 15.914,-3.377 24,-4.101c3.23,-1.517 5.254,-3.979 7.496,-6.728l0.085,-0.108c0.94,0.099 1.878,0.007 2.817,0.176c0.687,1.197 2.086,2.832 2.977,3.916c1.435,2.027 3.874,3.026 6.296,3.281c8.167,0.685 16.56,1.13 24.21,4.317c4.407,2.235 8.359,5.286 12.067,8.559c-0.811,-5.258 -2.944,-10.146 -4.832,-15.089c-0.055,-0.55 -0.641,-1.48 0.153,-1.702c0.833,-0.716 0.774,-2.386 -0.164,-2.97c-0.367,-0.184 -1.047,0.136 -0.906,-0.533c0.04,-1.101 0.004,-2.77 -1.414,-2.947c-0.875,-0.281 -2.024,0.285 -1.855,1.318c0.128,0.767 -0.682,-0.258 -0.951,-0.368c-2.668,-1.898 -2.762,-3.917 -2.263,-6.794c1.284,-0.462 0.892,-2.139 0.453,-3.083c-0.615,-1.692 -2.046,-2.903 -3.123,-4.267c-0.24,-0.92 -0.383,-2.286 -1.573,-2.416c-0.964,-0.412 -2.219,0.401 -1.918,1.506c0.098,0.566 -0.051,1.214 -0.736,1.245c-1.19,0.41 -2.373,1.177 -3.586,1.323c-0.997,-0.653 -2.146,-1.457 -2.586,-2.558c-0.005,-2.969 1.181,-6.128 -0.181,-8.967c-0.539,-0.888 -0.832,-1.877 -0.934,-2.919c-0.208,-0.739 -0.762,-1.341 -0.537,-2.178c0.191,-1.009 -0.54,-2.19 -1.674,-1.957c-0.772,0.159 -0.105,-0.948 -0.283,-1.341c0.357,-6.85 0.314,-13.765 1.047,-20.566c0.339,-0.351 0.876,-0.629 0.865,-1.239c-0.008,-0.867 0.657,-1.468 0.594,-2.382c0.169,-1.53 -0.013,-3.08 0.08,-4.617c-0.698,-0.353 -2.074,-0.004 -2.117,-1.092c-0.455,-0.968 -1.81,-0.816 -2.303,-1.765c-0.873,-0.817 -1.827,-1.918 -1.454,-3.213c0.139,-2.034 1.1,-4.431 -0.401,-6.212c-1.635,-2.348 -4.45,-3.492 -6.388,-5.5c0.148,-0.779 -0.149,-1.569 -0.905,-1.9c-1.425,-1.081 -3.253,-1.806 -4.243,-3.355c-0.303,-0.914 0.726,-1.355 0.656,-2.224c0.18,-1.169 -0.146,-2.633 -1.261,-3.19c0.425,-0.453 0.123,-1.131 -0.063,-1.556c0.744,-1.617 0.467,-3.492 0.379,-5.211c-0.153,-0.95 -1.398,-1.478 -0.945,-2.528c0.413,-1.412 2.043,-2.335 1.771,-3.956c-0.011,-1.366 -0.87,-3.06 -2.438,-2.959c-0.37,0.17 -0.583,0.273 -0.91,-0.062c-0.176,-0.079 -0.364,-0.136 -0.556,-0.147Z" style="fill:#fff;fill-rule:nonzero;"/></g></g></svg>