<svg xmlns="http://www.w3.org/2000/svg" width="122" height="39">
  <path fill="#C30023" d="M17.231 5.218V39L2.628 30.697 0 7.308 17.231 1z"/>
  <path fill="none" d="M14.282 21.012h5.882l-2.94-7.26z"/>
  <path fill="#585858" d="M37.34 17.064h-1.983c-.241 0-.375-.08-.402-.241-.268-1.125-.563-2.224-.804-3.322h-4.744c-.08.268-.563 2.25-.804 3.322-.027.188-.188.241-.375.241h-1.849c-.268 0-.456-.161-.348-.455L29.97.884c.054-.188.188-.348.482-.348h2.653c.268 0 .402.054.482.322l4.046 15.698c.082.214.029.508-.293.508zM31.712 3.429c-.215 1.098-.482 2.17-.697 3.268l-1.072 4.608h3.671l-1.072-4.527-.75-3.349h-.08zm17.58 13.314V9.617c0-2.652-1.447-4.5-4.154-4.5-.965 0-2.224.322-3.028 1.072-.027 0-.054-.027-.081-.027v-.59c0-.241-.08-.322-.294-.322h-1.849c-.214 0-.322.134-.322.349v11.144c0 .214.134.321.349.321h1.849c.241 0 .348-.107.348-.321V9.617c0-1.313.992-2.304 2.332-2.304 1.608 0 2.305.991 2.305 2.331v7.099c0 .214.107.321.349.321h1.876c.214 0 .32-.106.32-.321zm4.182-3.697c-1.206-.804-1.93-2.089-1.93-3.644 0-2.438 2.197-4.34 4.744-4.34 1.152 0 2.465.322 3.296 1.072.938-.67 1.849-.991 2.707-.991.295 0 .401.134.401.402v1.5c0 .268-.054.322-.269.322-.535 0-1.125-.054-1.714.134.402.696.536 1.286.536 1.902 0 2.519-2.224 4.367-4.958 4.367-1.099 0-2.251.724-2.332 1.795a14.852 14.852 0 0 1 3.028-.348c2.573 0 5.467.831 5.467 3.563 0 1.58-1.42 3.027-2.814 3.643-.241.107-.536.188-.697-.106l-.724-1.099c-.134-.214-.08-.401.214-.563.724-.429 1.447-1.098 1.447-1.768 0-1.152-1.554-1.446-2.841-1.446-1.152 0-2.84.214-4.127.402-.107.026-.188.026-.268.026-.724 0-1.018-1.339-1.018-2.196.003-.939.753-2.037 1.852-2.627zm5.252-3.536c0-1.206-.965-2.25-2.305-2.25-1.447 0-2.412 1.045-2.412 2.25s.885 2.25 2.305 2.25c1.474 0 2.412-1.017 2.412-2.25zm5.44-3.911v7.125c0 2.652 1.421 4.474 4.154 4.474.965 0 2.252-.295 3.055-1.045 0 0 .027.027.055.027v.589c0 .214.08.294.295.294h1.849c.214 0 .321-.107.321-.321V5.572c0-.188-.134-.322-.348-.322h-1.85c-.215 0-.349.134-.349.349v7.099c0 1.339-.991 2.331-2.305 2.331-1.635 0-2.331-1.018-2.331-2.331V5.572c0-.188-.107-.322-.349-.322h-1.876c-.186 0-.321.135-.321.349zM77.057.268v13.395c0 2.438.67 3.617 3.082 3.617.161 0 .563 0 .831-.054.241-.027.376-.107.376-.429V15.35c0-.188-.027-.456-.295-.456h-.322c-.857 0-1.125-.268-1.125-1.393V.241c0-.16-.108-.241-.269-.241h-2.036c-.161 0-.242.107-.242.268zm10.747 4.768c3.377 0 4.476 1.715 4.476 4.447v7.26c0 .241-.107.321-.295.321H90.19c-.188 0-.269-.107-.269-.268v-.616l-.081-.027c-.803.804-1.795 1.072-2.894 1.072-2.681 0-4.154-1.661-4.154-4.099 0-2.331 1.528-4.152 4.368-4.152.777 0 1.85.188 2.466.669h.081v-.615c0-1.206-.59-1.875-2.252-1.875-.723 0-1.956.241-2.707.589-.268.107-.401.054-.482-.161l-.455-1.313c-.054-.188 0-.375.16-.429 1.019-.481 2.467-.803 3.833-.803zm-2.654 8.01c0 1.206.617 2.143 2.197 2.143 1.34 0 2.198-.911 2.198-2.143 0-1.206-.696-2.143-2.198-2.143-1.339 0-2.197.911-2.197 2.143zm10.453-7.769c-.214 0-.321.107-.321.322v11.144c0 .214.134.321.348.321h1.877c.214 0 .32-.107.32-.321v-6.188c0-1.688.644-2.92 2.52-2.92.295 0 .67.107.992.107.134 0 .24-.081.295-.349l.375-1.714c.026-.08.026-.134.026-.214 0-.294-.536-.402-1.152-.402-1.366 0-2.6.777-3.216 1.795h-.08V5.572c0-.214-.135-.295-.375-.295h-1.609zm13.855 6.162v-1.393c0-.188-.134-.294-.349-.294h-5.414c-.214 0-.32.107-.32.321v1.366c0 .214.106.321.348.321h5.414c.214 0 .321-.134.321-.321zM37.849 33.83c0 2.92-1.876 4.955-4.958 4.955h-5.414c-.268 0-.402-.133-.402-.375V22.632c0-.241.081-.375.375-.375h5.119c2.921 0 4.771 1.526 4.771 4.34 0 1.151-.724 2.651-1.876 3.241v.107c1.769.643 2.385 2.358 2.385 3.885zm-2.653.053c0-1.473-.724-2.732-2.787-2.732h-2.707v5.332h2.948c1.581-.001 2.546-.993 2.546-2.6zm-.482-7.233c0-1.393-.938-2.09-2.385-2.09h-2.626v4.313h2.814c1.446 0 2.197-1.018 2.197-2.223zm5.387.67v7.125c0 2.652 1.42 4.475 4.154 4.475.965 0 2.251-.295 3.055-1.045 0 0 .027.026.054.026v.59c0 .214.08.294.294.294h1.85c.214 0 .321-.106.321-.32V27.293c0-.188-.134-.321-.348-.321h-1.849c-.215 0-.349.134-.349.349v7.099c0 1.339-.992 2.331-2.305 2.331-1.635 0-2.332-1.019-2.332-2.331v-7.126c0-.188-.107-.321-.349-.321h-1.876c-.187-.001-.32.132-.32.347zm21.627 9.323c.161-.215.107-.402-.241-.643l-1.099-.724c-.322-.214-.456-.161-.67.106-.375.51-1.045 1.34-2.358 1.34s-2.332-.938-2.332-2.223v-3.242c0-1.313 1.019-2.277 2.358-2.277.616 0 1.662.456 2.198 1.286.161.269.348.509.723.241l1.207-.857c.24-.16.24-.482.134-.643-1.019-1.474-2.52-2.224-4.208-2.224-2.814 0-4.958 1.769-4.958 4.607v3.054c0 2.76 1.957 4.501 4.904 4.501 1.822.001 3.27-.722 4.342-2.302zM73.6 38.438v-7.1c0-2.652-1.393-4.527-4.207-4.527-.857 0-2.09.215-2.895.938l-.107-.026v-5.652c0-.241-.107-.349-.321-.349h-1.876c-.215 0-.322.107-.322.349v16.396c0 .214.135.32.35.32h1.849c.241 0 .349-.106.349-.348v-7.072c0-1.34.91-2.357 2.331-2.357 1.608 0 2.306.991 2.306 2.357v7.1c0 .214.106.32.348.32h1.876c.211-.002.319-.108.319-.349zm5.896-1.018c0-.885-.724-1.581-1.635-1.581-.857 0-1.582.724-1.582 1.581S77.004 39 77.861 39c.911 0 1.635-.723 1.635-1.58zm11.872-.777c.161-.215.106-.402-.241-.643l-1.099-.724c-.321-.214-.456-.161-.671.106-.375.51-1.045 1.34-2.357 1.34-1.313 0-2.332-.938-2.332-2.223v-3.242c0-1.313 1.019-2.277 2.358-2.277.616 0 1.661.456 2.198 1.286.16.269.348.509.723.241l1.207-.857c.24-.16.24-.482.133-.643-1.018-1.474-2.519-2.224-4.207-2.224-2.814 0-4.958 1.769-4.958 4.607v3.054c0 2.76 1.956 4.501 4.904 4.501 1.824.001 3.27-.722 4.342-2.302zm11.631-2.25c0 2.92-1.849 4.554-4.851 4.554s-4.877-1.661-4.877-4.501v-3.134c0-2.732 1.982-4.554 4.85-4.554 2.975 0 4.878 1.66 4.878 4.527v3.108zm-7.183-3.055v3.055c0 1.365.751 2.357 2.305 2.357 1.447 0 2.332-.938 2.332-2.357v-3.055c0-1.393-.805-2.357-2.305-2.357-1.501-.001-2.332.964-2.332 2.357zm26.184 7.1v-7.126c0-2.652-1.475-4.527-4.529-4.527-1.447 0-2.867.67-3.591 1.634h-.081c-.696-1.018-2.063-1.634-3.402-1.634-2.976 0-4.69 1.929-4.69 4.527v7.153c0 .214.134.32.349.32h1.875c.242 0 .322-.106.322-.348v-7.126c0-1.232.804-2.331 2.197-2.331 1.447 0 2.145 1.099 2.145 2.331v7.153c0 .214.107.32.348.32h1.85c.241 0 .321-.106.321-.348V31.31c0-1.206.965-2.331 2.171-2.331 1.475 0 2.171 1.099 2.171 2.331v7.153c0 .214.106.32.349.32h1.875c.213.002.32-.104.32-.345z"/>
  <g>
    <path fill="none" d="M17.207 21.012v-7.218l-2.925 7.218z"/>
    <path fill="#F8F8F8" d="M14.347 21.012l2.924-7.218V6.265L7.22 29.39h3.754l2.025-5.183h4.272v-3.195z"/>
  </g>
</svg>
