<?xml version="1.0" encoding="utf-8"?>
<!-- Generator: Adobe Illustrator 24.0.0, SVG Export Plug-In . SVG Version: 6.00 Build 0)  -->
<svg version="1.1" id="Capa_1" xmlns="http://www.w3.org/2000/svg" xmlns:xlink="http://www.w3.org/1999/xlink" x="0px" y="0px"
	 viewBox="0 0 545 572" style="enable-background:new 0 0 545 572;" xml:space="preserve">
<style type="text/css">
	.st0{fill:url(#SVGID_1_);}
	.st1{fill:#FFFFFF;}
	.st2{fill:#FF5151;}
	.st3{clip-path:url(#SVGID_3_);}
	.st4{fill-rule:evenodd;clip-rule:evenodd;fill:#FFFFFF;}
	.st5{fill-rule:evenodd;clip-rule:evenodd;fill:url(#SVGID_4_);}
</style>
<g>
	<g>
		<g>
			<image style="overflow:visible;opacity:0.3;" width="545" height="572" xlink:href="7A1EC5E0F91F5468.png" >
			</image>
			<g>
				<linearGradient id="SVGID_1_" gradientUnits="userSpaceOnUse" x1="272.551" y1="-1.8687" x2="272.551" y2="514.7472">
					<stop  offset="0" style="stop-color:#3350B8"/>
					<stop  offset="0.628" style="stop-color:#117DE4"/>
					<stop  offset="1" style="stop-color:#0092F9"/>
				</linearGradient>
				<polygon class="st0" points="269.4,520.9 74.9,413.2 38.3,109.5 273.3,28.8 506.8,111 470.2,414.6 273,522.9 				"/>
				<path class="st1" d="M273.3,36.7L498.6,116l-35.4,293.8L273,514.4l0,0L81.9,408.5L46.5,114.6L273,36.8L273.3,36.7 M273.3,20.9
					l-4.9,1.7l-0.3,0.1L41.6,100.5l-11.5,3.9l1.5,12L67,410.3l0.9,7.6l6.7,3.7l191.1,105.9l7.2,4l7.2-4L470.4,423l6.7-3.7l0.9-7.6
					l35.4-293.8l1.4-11.9l-11.4-4L278.3,22.6L273.3,20.9L273.3,20.9z"/>
			</g>
		</g>
		<path class="st2" d="M273.2,63.6l-0.1,0L72.4,132.6l31.4,260.7L273,487l0.1-0.1l168.2-92.5l31.4-260.6L273.2,63.6z M428.3,385.7
			l-155.3,85.3l-0.1,0l-156.2-86.6L87.5,142.1l185.5-63.7l0.1,0l184.5,64.9L428.3,385.7z"/>
		<g>
			<defs>
				<path id="SVGID_2_" d="M273.2,64.1l-0.2,0.1L72.4,133.1l31.4,260.1L272.9,487l0,0l168.4-92.5l31.4-260.1L273.2,64.1z"/>
			</defs>
			<clipPath id="SVGID_3_">
				<use xlink:href="#SVGID_2_"  style="overflow:visible;"/>
			</clipPath>
			<g class="st3">
				<polygon class="st4" points="14.6,406.4 21.9,400.8 34.7,392.8 47.2,398.9 55.9,408.6 73.6,396 93.5,388 103.5,380.7 
					116.9,373.3 130.6,357.7 147.2,345.4 154.9,349.5 159.2,354.7 179.5,343.7 189,342 207.2,328.9 218.1,324.9 229.4,314.5 
					242,306.6 247.6,317.9 262.5,333.2 279.5,342 287.9,353.8 298.7,361.1 306.9,354.3 316.9,351.2 324.1,346 331.7,352.3 
					337.5,360.3 346.8,365.7 355.9,360.8 366.1,350.4 374.7,345.4 381.5,336.5 388.2,330 400,343.7 419.3,361 427.8,375.5 
					437.3,383.7 443.6,396.8 447.7,397.8 452.9,406.6 463.6,402.9 471.3,394.2 483.3,386.8 488.4,379.4 497.5,372.4 508.3,387.8 
					520.7,398.6 534.4,403.1 541.7,412.9 551.2,421.7 555.5,430.2 561.1,434.9 568.5,427.2 580.5,420.5 598.2,434.6 607.8,448.9 
					615.8,450.9 623.9,460.8 626.2,462 626.2,522.7 14.6,522.7 				"/>
				<linearGradient id="SVGID_4_" gradientUnits="userSpaceOnUse" x1="325.0709" y1="482.2505" x2="325.0709" y2="306.6357">
					<stop  offset="0" style="stop-color:#EEF3F6"/>
					<stop  offset="1" style="stop-color:#C6D7E1"/>
				</linearGradient>
				<path class="st5" d="M220.4,390.6l-3.7,3L215,396l-1.9,2.8l4.1-0.6l1.3-3.9l3.7-2.8l2.2-3.9L220.4,390.6L220.4,390.6z
					 M365.7,419.4l1.9-8.8l-0.3-4.8l2.6-6.2l1.2-6.7l-1.9-6.3l1.2-7.2l4.3-3.4l1.8,2.9l9.6-8.4l-0.1-11.2l3.3-6.8l-2.2-2.3l3-4
					l3.6-2.6l-2.8-2.7l-2-3.4l-1.3-3.2l0.6-4.1l11.8,13.6l19.4,17.3l8.4,14.5l9.5,8.2l6.3,13.1l4.1,1l5.2,8.9l2.3,6.4l8.3,8.9
					l3.2,4.6l4.1,2.9l5.1,6.3l0.7,3l-1.9-1.9l-2.3,0.2l-1.9,2.6l-2.5-3l-4,1.7l-0.5,3.4l-3.7-1.1l-1-5.9l0.6-4.3l-1.5-4.5l-2.7-3.8
					l-1.1,1.2l-0.2,2.7l-0.8-2.3l-1.3-4.7l-6.6-8.8l-0.8,5.8l-3.2,3.6l-1,2.4l-3.4,0.6l0.1,2.4l3.3,1l2.5,2.7l1.7,0.1l0.1,3.7
					l2.4,3.2l4.8,3.6l2.5,2.9l2,2.8l-3.7,0.9l-1.7,3.5l-2.4,1.4l-1.7,1.8l-1-0.6l-1.8,0.3l1.2-2.6l-2.9-1.4l0.3-1.4l-4-0.2l-1.5-2.1
					l-4-3.4l-4,4.4l1.7-10.4l2.1-5.3l1.8-3.8l-0.4-6.7l0.6-0.7l0.8-2.1l-0.6-1.3l0.3-1l1.5-1.4l2.2-2.5l-2.5-0.3l-1.5,0.8l-1,2.5
					l-0.2-2.7l1.3-2.6l2-0.6l-2.1-1l-1.5,0.3l-0.8,5.3l-0.1,9.1l-0.8,8.2l-4.1,7.6l-0.9,8.1l0.2,6.4l-4.7-1.6l-2.4-3.7l-5.5-0.3
					l4.9,6.6l-1.8,2.9l4,8.2l-5.8-5.9l-3.5-5.1l-0.9-5.8l-2.4-3.2l-5-1l-2.6-2.5l-3.2,0.3l-3-5.7l-8.6-0.1l-9.3-10.6l-8.4-1.6
					l-0.4-0.5l-1.7-0.5l-2.1,1.1l-2.1-1.4l-3.3,2.9l-0.5-3.4l1.3-0.7l0-1.2l-3.9,1.2l-2.5-1.8l-0.1-2.4l-1.6-0.8l-0.8-1.7l0.9-1.4
					l-1.9-1l-2.5-3.8l1.1,5.4l-0.7,1.8l1.7,2.2l1.9,2.4l0.9,2.5l-2.4-2.7l-1.4,0l1.4,2.3l-0.2,4.3l-2.7-2.2l-4.5-5.6l-0.9-2.5
					l-2.8-4l-2.6-2.8l-1.9-3.3l-1.5,1.2l0.7-1.9l1.2-0.3l1.2-1.9l-1.6-0.3l2.1-0.6l-0.1-0.7l-2.6,0.2l0.1-1.4l-1.1-0.6l-1.2,2.2
					l0.4-2.7l-1.2-3.3l-3.1,0.6l-1,2.3l-2.1,0.7l-1.8,2.4l-2,0.8l-0.5,2l-1.2,0.3l-0.1-2.1l-1.5,0.1l-1.3,1.6l-1.2,3.8l0.3-3.3
					l1.3-2.6l1.5-0.4l0.4-1.8l-0.5-0.4l0.9-2.1l1.1-1.6l1.1-0.5l0-2.7l1.7,0.1l0.5-0.8l0.9,0.2l0.8-0.7l0.2,1.6l0.9-0.3l1.1-1.6
					l1.9-1.3l0.8-4l-3.2-2.7l0.5,3.3l-1.2,2.6l-2,1.7l-2.2-0.5l1.4-0.4l-0.6-1l1.4-1.5l0.2,0.9l0.8-0.3l0.7-3.7l-1.6-2.4l-2.6,4.8
					l-0.5,3.4l-1,1.5l-0.4-2.1l-1.7-1.2l-0.8,1.5l-0.1,2l-0.9,2.2l0.3,5.1l-1.3,2.9l-1.9,0.9l-1.7,2.7l-0.1,2.4l-0.9-2.2l1.4-3
					l-1-0.9l-0.4-2.1l-1.3-0.6l1.3-0.5l-0.1-3l-1.3-0.4l0.9-0.7L309,393l-1.5,0.1l0.4-2.2l1-0.2l-0.1-1.2l-1.3-0.5l2.1-2l3.9-0.1
					l2.3-0.8l3.6,0.3l-0.2-1.4l-3.3-0.4l-3.5,0.3l2.3-3l1.4-4.9l3.9-4.3l3.4-3.2l-2.3-0.3l1.8-1.8l1.2,1.4l2.7-2.2l-0.2-2.2l1.4-3.1
					l2-0.3l-0.2-3.5l-2.3-0.6l1.2-4.4l-4.2-6.3l7.6,6.3l5.8,8l9.3,5.4l-1.2,5.2l0.8,6.5l-1.7,1.9l-0.1,9.7l4.1,10.3l-0.1,6.5
					l1.8,2.6l3.5,3.3l4.9,3.8l0.4,1l2.8,0.3l1.3,2.2L365.7,419.4L365.7,419.4z M497.5,372.4l10.8,15.4l12.3,10.8l13.7,4.4l7.3,9.8
					l9.5,8.8l4.3,8.6l5.6,4.7l5.2,4.4l-1.6,0.2l-3.6-2.8l0.5,1.8l1.5,2.4l2.3,2.7l1.7,3.3l0.4-2.6l1.1,2.3l3,3l3.8-0.4l4.4,2.2
					l1.3,3.4l1.2-1.7l1.1,2l3.8,3.2l2.1,3.8l2.5,3.3l2.9-0.4l-2.6-2.2l-1.6-5.5l-3-2.1l2.2-0.6l1-4.1l2.3-2.7l-1.1-5l2.4-3.3
					l-0.5-3.5l-5.1-6.4l-5.4-3.8l-2.8-5.3l17.6,14.1l9.6,14.3l8,2.1l8.1,9.8l2.3,1.2v16.6l-0.5-1l-0.5-2.9l-2.8-3l-3.1,0.3l-3.7-1.1
					l-2-0.4l-1-1.7l-1.8-1l-1.6-2.8l-3.4-4.3l1.6,5.2l2.1,4.2l1.8,0.3l1.5,0.9l-0.7,0.7l-2,0.3l2.3,0.8l1.7-0.9l5.8,1.8l3.2,5
					l-1.6,2.4l-4.2-2.7l-5.4-0.1l-3.6-0.7l-2.1,1.2l-2.3,3.3l-1.2-0.7l-0.3-2l-3.4,0.6l-1.4-2.4l-3.1,0.5l-5.5-0.5l0.9-2.9l3.2,0.3
					l1,1l1.8-0.8l-2.1-2.3l1.7,0l1.4,0.8l1.8-1.3l-1.4-2.7l-1,0.4l-0.5-1.3l2.5-1.7l0.4-1.8l-2.1,0.3l-2.2,2.7l-3.5,2.2l-0.7-2.1
					l0.6-2.4l-2.1-2.4l-4.1,0.9l0.1-3.1l-0.2-2.4L583,463l-1.5,1.5l-0.2-5.1l-1.8-1.5l0.1,2.8l-1.5,1.4l1.1,2.6l3.8,3.7l2.4,4.4
					l-2-1.7l-2.9-3.2l-1.8,0.2l-2.6-0.9l-5.1,0.1l-7.8-9l-0.2-2.9l-1.1-0.9l-2.2,2.5l-1.1,0.3l2.3-2.5l0.5-2.3l-1-4.6l-1.2-2.1
					l0.2-1.8l-2.4-3.1l-2,0.6l-1.9-2.5l-0.9,3.7l-3.7,1.1l-2.2,2l2.4-4.4l1.9-0.1l0.8-2.9l-2-3.9l-2.1,0.4l0.4-1.7l-1.9-0.4
					l-3.8,1.8l-3.6,3.5l-4.8,0.6l4.2-1.6l1.9-2.1l1-2.2l2-1.9l1.9-0.3L543,427l-4.3-4.2l-2.9,2.3l-4.3-0.6l3.5-1l2-2.4l-3.2-2.2
					l-5,0.5l-4.2,1.9l-7.2-1.8l-6.5-1.1l-5.9-5.8l4.1,2.6l4.8,0.3l7.3-2.1l3.3-2.6l-3.2-5.5l-7.9-3.9l-5.9-8.4l-5.4-3.3l-4.6-11.3
					L497.5,372.4L497.5,372.4z M528.1,413.8l1.6,0.2l0.6-1.3l0.4,1.3l1.8-0.2l-1.4-0.8l-0.2-0.9l1-0.4l1.4,1.4l3.2-0.3l-0.7-1.5
					l1.9-0.6l-0.6-1.6l-1.6-0.4l-0.1-1.5l-2.2-1l-1.3-1.4l0.1,2.5l-0.7,2.6l-2.3,1.4L528.1,413.8L528.1,413.8z M240.7,324.3l3.1-0.9
					l-3.1-5.3l1.9-1.9l-3-4.2l2.4-5.3l5.5,11.3l14.9,15.3l17,8.9l8.4,11.8l10.7,7.3l0.9,12.7l3.4,10.2l0.2,8.7l3,8.7l-2.2,2.6
					l-0.1,8.6l-1.2,6.6l2.1,13.3l-4.6-4.9l-3.8-5.4l-6-12.1l-0.6-8.1l-2.3,5.3l-1,6.3l0.1,6.1l-1.7,3.5l0,4.3l-4.1-3.4l-1.9,0.7
					l-4.3-7.8l-2-2.2l2,5.7l1.9,5.4l-5.2-3.6l-3.7-5.4l0.1-5.3l1.5-1.3l-0.3-3.5l-2,1.9l-0.1-3.8l1.6-1.8l-2.3-2.2l-1.2,2l-0.5,2.9
					l-2-2.5l-1.5-0.5l1.5-1.4l-0.3-2.2l-2.6-0.6l-2.7-3.6l-0.1,4.1l-3.4-1.6l-2.8-3l1.5,3.5l-0.6,3.9l1.5,4.1l-5-5.2l-5.1-7.8
					l-1.5,1.9l0,2.7l-2.7-4.4l-3.2-2.2l6-6.8l2.9-4.8l4.1-4.1l1.5-3.7l2.6-1.2l0.4-4.4l3.7-4.6l0.8-7.6l2.4-5.7l3.7-4l-0.3-5.5
					l1.3-3.2l-3.8-2.3l-5.2-3.1l-5.3-0.7l-5,0.6l-0.6,1.8l-5.1,2.4l-2.5-2l-2.6,2.1l-1.2,2l-1.1-2.4l3.6-2.7l-1.3-1.1l2.1-3.6
					l2.7-0.1L240.7,324.3L240.7,324.3z M194.2,344.6l0.4,1.9l1.4,1l0,1.3l1.4,0.1l-1.6,0.6l-2.3,1l-1,1.8l0.9,1.6l-1.2,2.1l0.8,2.9
					l-1.4,2.5l2.3-0.4l1.1,0l0.3-1.4l1.4,0.1l1.2-0.5l0.3,2.3l-0.4,1.8l-1.5,0.6l-1.4,2.6l-0.8,2.2l-1,0.2l-0.1,1.8l-1.8,1.3
					l2.8-0.7l3.5-2l1.5-2.2l2.2-0.7l2.2-2.1l-1.4,2.1l-2.2,1.1l0.2,1.8l1.9-0.1l1.9,0.5l1.5-2.5l1.3-1.1l1.7-3.2l1.4-2.5l2.6-1.5
					l1.6-2.9l2.2-0.5v-2.4l2.2-1.9l0.5-2.1l1-1.8l0.6,2.7l1.9-1.8l1.6-0.7l-0.4,2.7l-1.3,2.2l-2.2,3.2l0.9,3.1l-2.6,2.3l-1.9,3.2
					l2.5-0.2l3.5,0.4l4.7-0.2l6.4-2.3l-5.8,3.1l-8.2,1.3l-4.1,1.2l-0.6,1.7l-0.5-2.1l-0.6,0.8l-1.3-1.1l-1.9,0.3l-0.5,2.2v2.1
					l-1.1,1.3l-0.1-1.1l-1.4-0.3l-1.7,1.5l-0.8,2.8l-3.2,1v1.6l-1.9,0.1l-2.1,2.6l-2.2,0.8h-4.2l-1.5-1.7l-0.1,1.4l1.1,1.5l2.2-0.1
					l1,0.8l-1.5,0.5l-0.1,1.5l-1.9,0.9l-1.8-0.4l0.3-1.4l-1.7-1.7l-1.5,0.5l-0.5,2.5l0.5,2.4l-0.9,2.5l-0.6,1.3l-1.9,1.6l0.3,2.2
					l-0.5,2.8l0.8,1.3l-0.5,2.7l-0.6,2.1l-1.5,1.1l-2.8,0.6l-1.4,2.4l-3,0.5l-2.1,1.9l0.2-3.9l0.1-3.4l-0.4-2.1l0.9-1.3l-0.1-2.6
					l1-1.8l0.3-2.6l0.3,1.2l1.4,1.6l2.2-0.2l-0.4-2.3l0.4-2.4l2.1-1.7l-0.6-1.7l1.2-0.6l0.9-2.8l1.1-2.6l1.8-0.5l0.5-2.5l-0.9-1.9
					l-1.7,0.6l-0.1,1.1l1.7,0.3l0.4,0.9l-3.2,0.1l-1.2,1.8l-0.3,2l-0.9,1.8l-1.4-0.3l-2,0.3l1.2-1.4l1.1-1.4l-0.2-1.1v-1.8l-1.2,1.7
					l-1.3,0.4l1.8-3l1.1-1.6l-0.6-0.4l-1.7,0.9l0.4-1.5l1.3-1.3l0.3,1.7l1.2,0.2h1.8l1.4-2.3l1.1-1.3l-1-0.6l-0.6-1.4h1.1l0.2-1.4
					l-0.2-2.6l-1.2-0.4l-0.9,0.4l0.5-2.4l1.4-1.4l1.7-0.2l0.2-1.7l1-1.5l1.1-1.7l1.4-1l0.3-1.8h1.2l1.5-0.4L188,355l-0.6-0.9
					l0.8-0.9l1.9-1l1.8-0.1l0.2-1.6l-1-0.4l-0.5-1.2l1.6,0.3l0.5-1.5l0.5-1.9l-0.4-1.7L194.2,344.6L194.2,344.6z M72.5,420.8
					l4.1-3.5l0.9-2.7l1.9-3.7l3-0.8l1.4-2.4l2.8-2.7l3.5-2.6l2.3-1.9l-2.6,3l-2.3,3.4l1.5,0.5l3.3-0.1l2.4-1.4l-0.6,1.5l-2.1,1.1
					l-2.7,0l-1.3,0.8l-0.3,1.4l-1.5,0.1l-2.8,1.5l-0.9,1.7l0.3,2.3l2.2,1.3l0.4,1.2l2.9,1.7l4.4,0l3-1.7l1.8-2.2l2.7-2.3l3.2,0.1
					l2.1,0.8l2.2,0.4l-0.7,1l-3-0.4l-4.4-0.3l-1.5,1.5l-1.7,3.4l-1.4,1.9l0.1,1.2l1.6-0.2l1-0.3l-0.5-0.9l0.4-1.5l0.7,0l0.1,1.5
					l1.9,1.5l1.1-0.1l0.2,1.3l0.8,1.6l0.1,2l2.1,0.1l1.7-0.6l1.6-1.5l3.5-1.4l1.3-2.2l0.4-3.8l2-2.7l4.3-0.3l0.7,2.8l2.7,1.9
					l1.3-0.5l0-3.1l0.7-3.2l2.6-2.1l4.5-1.5l-5.4,3.9l-0.9,2.4l0,5.5l0.7,4.8l-0.2,3.1l-1.9,1.7l-1.4,1.7l-1.1,2.6l-0.7,3.7l1.6-3.6
					l1.4-2l2-0.8l1.9-1.3l3.9-1.4l-1.4-1.1l-0.3-1.8l-2.5-4.9l6.8-1.4l5.4,1.7l6-1.1l-5.4-0.9l-2.7-3.1l-4.5-2.3l4.8-0.3l6,2.5
					l4.3,3.9l4.5,0.4l-3.8-5.5l-1.3-4.3l-4.6-3.6l3.9-4l2.4-0.7l4.7-5.9l5.1,0.1l0.3-3.5l1.6-0.5l1.2-5.8l3.2-4.7l-0.7-1.6l-1.3,0.3
					l-2.2-1.6l2.4-2.9l0.5-1.8l-2.5-2.2l0-1.1l5.2-1.1l1.9-2.2l2.5-4.5l-0.4-1.9l1.1-3l1.6-1.1l0.1-2.1l1.6-0.6l3.1-3.2l0.4-1
					l-1-0.1l0-0.8l2.2-2.4l-2.2,0.2l-2.8,2.3l-1.4,2.7l-0.5,1.8l-1.5,0.5l-0.4,1.3l-1.5,0.5l-0.3,1.6l1.1,0.4l-0.3,1.8l-1.9,0
					l-2.4,0.4l-1.1,0.8l-1.6-0.8l0.2-1.7l-1.9-0.1l-1-1.7l0.5,3.5l1.8,3l1.8,0.8l1.8-0.6l1-1.8l1.2,0l0.8,1.5l-2.8,3l-3.1,1
					l-0.2-0.8l-1-0.4l-0.2-1.2l-1.2,0.1l-0.3,1.8l-0.8,0l-0.3-1.5l0.1-2.9l-1.8-3.9l-0.3-4.1l1.4-1.6l-4.3-5.2l-7.7-4.1l-2.8,6.5
					l3.2,3.6l-9.7,10.1l-0.2,4.4l-11.1,7.5l-5.9,0.9l1,2.1l-2.4,2.7l-8.9,3.6l-5.6,3.4l-3.9,3.2l-4.3,5.7l-3,0l2.5-3.2l1.7-0.2
					l1.9-2.3l3-3l3.3-2.6l3.6-2.1l4.1-2.8l0.1-1.5l-0.7-1l-1.3,0l0.6,0.7l0,1.1l-2.1,0.6l0.1-1.8l-2.6,0.5l-2,1.1l0.2,1.2l3.5-0.8
					l-1.1,1l-1.9,0.5l-0.8,0.5l-0.2-1l-1.1-1l-2,1.8l2.2,0.3l-0.1,1.1l0.3,1.8l-3,1.7l-0.3-0.7l1.5-1.6l-0.1-1.1l-4.2,0.2l0.9,0.6
					l-0.1,0.7l-1.1,0.2l-1.1,0.6l2.3,0.4l-2.5,1.7l-0.5,1.6l-2.3,0.4l-2.1,2.5l-0.5-0.5l-0.1-1.2l-3.9,2.6l-1.6,2.2l-2.8,1.4
					l-0.6,1.2l-2.9,0.8l-1.3,2.5l-1.2,2.8l-2.9,2.2l-2.7,4.3l-0.5,2.9l-5,3.9l2.7,0l1.5-1L72.5,420.8L72.5,420.8z M35.6,399.6
					l-1.8-4.2l0.9-2.6l12.6,6.1l8.7,9.7l-5.8,4.8l-5.6,6.6l-2.8,2.5l-2.2,1l-0.1,1.7l-0.8-1.6l1.9-1.3l1.5-2.9l1.5-0.4l0.3-1.7
					l-0.9-1l-0.5,1.8l-1.4,1l-1.6,1.7l-0.9,1.1l-3,0.8l-2,1.1l1.1,1.4l5,0.5l0.8,1.5l-2-0.8l-4,0.2l-3.5,0.3l-1.7,0.5l-2.8,0.5
					l-2.4,2.6l0.8-3.3l2.2-2.8l3.3-1.3l2.4-2.5l1.1-1.9l1.1-3.7l3.4-1.2l-0.7-1.1l0.1-4.1l1.3-1.8l-0.6,2.2l0.7,2.4l2,2.5l3.1,0.1
					l0.3-0.4l-0.5-1.8l1.2,0.9l1.2-1l-0.5-3.2l-1.5-1.3l-1.4-2.9l-2.6-2.5L35.6,399.6z"/>
			</g>
		</g>
	</g>
	<g>
		<g>
			<path class="st1" d="M149.6,214.6h-24.1l-5.2,11.6h-4.8l19.8-43.3h4.5l19.8,43.3h-4.8L149.6,214.6z M148,210.8l-10.4-23.3
				l-10.4,23.3H148z"/>
			<path class="st1" d="M203.1,182.8v43.3h-3.8L171.4,191v35.2h-4.6v-43.3h3.8l27.9,35.2v-35.2H203.1z"/>
			<path class="st1" d="M247.7,204.5h4.4V221c-2,1.8-4.4,3.1-7.2,4.1c-2.8,0.9-5.7,1.4-8.7,1.4c-4.3,0-8.2-0.9-11.7-2.8
				c-3.5-1.9-6.2-4.5-8.2-7.9c-2-3.4-3-7.1-3-11.3c0-4.2,1-7.9,3-11.3c2-3.4,4.7-6,8.2-7.9c3.5-1.9,7.4-2.8,11.8-2.8
				c3.3,0,6.3,0.5,9.1,1.6c2.8,1.1,5.1,2.6,7,4.7l-2.8,2.9c-3.4-3.4-7.8-5.1-13.1-5.1c-3.5,0-6.7,0.8-9.5,2.3
				c-2.8,1.5-5,3.7-6.7,6.4c-1.6,2.7-2.4,5.8-2.4,9.2c0,3.4,0.8,6.4,2.4,9.2c1.6,2.7,3.8,4.9,6.6,6.4c2.8,1.6,6,2.4,9.5,2.4
				c4.5,0,8.2-1.1,11.3-3.3V204.5z"/>
			<path class="st1" d="M269.3,221.7c-3.1-3.2-4.7-7.9-4.7-14v-24.8h4.6v24.6c0,5,1.1,8.8,3.4,11.3c2.3,2.5,5.5,3.7,9.8,3.7
				c4.3,0,7.6-1.2,9.9-3.7c2.3-2.5,3.4-6.2,3.4-11.3v-24.6h4.5v24.8c0,6.1-1.6,10.8-4.7,14c-3.1,3.2-7.5,4.8-13.1,4.8
				C276.8,226.5,272.5,224.9,269.3,221.7z"/>
			<path class="st1" d="M314,182.8h4.6v39.4h24.3v4H314V182.8z"/>
			<path class="st1" d="M377.8,214.6h-24.1l-5.2,11.6h-4.8l19.8-43.3h4.5l19.8,43.3H383L377.8,214.6z M376.1,210.8l-10.4-23.3
				l-10.4,23.3H376.1z"/>
			<path class="st1" d="M424.6,226.1l-9.9-13.9c-1.1,0.1-2.3,0.2-3.5,0.2h-11.6v13.7H395v-43.3h16.2c5.5,0,9.9,1.3,13,4
				c3.1,2.6,4.7,6.3,4.7,10.9c0,3.4-0.9,6.2-2.6,8.6c-1.7,2.3-4.2,4-7.3,5l10.6,14.9H424.6z M420.9,205.6c2.3-1.9,3.4-4.6,3.4-8
				c0-3.5-1.1-6.2-3.4-8.1c-2.3-1.9-5.5-2.8-9.8-2.8h-11.5v21.7h11.5C415.4,208.5,418.6,207.5,420.9,205.6z"/>
		</g>
		<g>
			<path class="st1" d="M175,285.1c-4.4-2.4-7.8-5.6-10.3-9.8c-2.5-4.2-3.8-8.9-3.8-14.2c0-5.3,1.3-10,3.8-14.2
				c2.5-4.2,6-7.4,10.3-9.8c4.4-2.4,9.3-3.5,14.8-3.5c4.6,0,8.8,0.8,12.5,2.4c3.7,1.6,6.9,4,9.4,7l-7.9,7.3
				c-3.6-4.2-8.1-6.2-13.4-6.2c-3.3,0-6.2,0.7-8.8,2.2c-2.6,1.4-4.6,3.5-6,6c-1.4,2.6-2.2,5.5-2.2,8.8c0,3.3,0.7,6.2,2.2,8.8
				c1.4,2.6,3.5,4.6,6,6c2.6,1.4,5.5,2.2,8.8,2.2c5.3,0,9.8-2.1,13.4-6.3l7.9,7.3c-2.5,3.1-5.7,5.4-9.4,7.1
				c-3.8,1.6-7.9,2.4-12.5,2.4C184.3,288.7,179.4,287.5,175,285.1z"/>
			<path class="st1" d="M268.8,234.6v53.2h-12.3V266h-24.2v21.8H220v-53.2h12.3v21h24.2v-21H268.8z"/>
			<path class="st1" d="M281.4,234.6h12.3v53.2h-12.3V234.6z"/>
			<path class="st1" d="M306.3,234.6h12.3v43.2h26.7v10h-39V234.6z"/>
			<path class="st1" d="M393.4,277.9v9.9h-41.2v-53.2h40.2v9.9h-28V256h24.7v9.6h-24.7v12.3H393.4z"/>
		</g>
	</g>
</g>
</svg>
