<?xml version="1.0" encoding="UTF-8" standalone="no"?>
<svg
   xmlns:dc="http://purl.org/dc/elements/1.1/"
   xmlns:cc="http://creativecommons.org/ns#"
   xmlns:rdf="http://www.w3.org/1999/02/22-rdf-syntax-ns#"
   xmlns:svg="http://www.w3.org/2000/svg"
   xmlns="http://www.w3.org/2000/svg"
   viewBox="0 0 2099.6001 2000"
   height="2000"
   width="2099.6001"
   xml:space="preserve"
   id="svg2"
   version="1.1"><metadata
     id="metadata8"><rdf:RDF><cc:Work
         rdf:about=""><dc:format>image/svg+xml</dc:format><dc:type
           rdf:resource="http://purl.org/dc/dcmitype/StillImage" /></cc:Work></rdf:RDF></metadata><defs
     id="defs6"><clipPath
       id="clipPath26"
       clipPathUnits="userSpaceOnUse"><path
         id="path24"
         d="M 0,1500 H 1574.702 V 0 H 0 Z" /></clipPath></defs><g
     transform="matrix(1.3333333,0,0,-1.3333333,0,2000)"
     id="g10"><g
       transform="translate(781.0754,1272.769)"
       id="g12"><path
         id="path14"
         style="fill:#ffffff;fill-opacity:1;fill-rule:evenodd;stroke:none"
         d="m 0,0 v -1023.354 l 409.784,226.674 79.004,629.812 z" /></g><g
       transform="translate(304.839,1102.9482)"
       id="g16"><path
         id="path18"
         style="fill:#e23237;fill-opacity:1;fill-rule:evenodd;stroke:none"
         d="m 0,0 476.236,169.821 29.475,-10.063 1.546,-996.132 -31.021,-17.159 -403.139,223.72 z" /></g><g
       id="g20"><g
         clip-path="url(#clipPath26)"
         id="g22"><g
           transform="translate(1112.6554,1159.5708)"
           id="g28"><path
             id="path30"
             style="fill:#b52e31;fill-opacity:1;fill-rule:evenodd;stroke:none"
             d="m 0,0 c -0.806,-23.644 -1.443,-47.038 -1.932,-70.135 30.864,-9.019 52.149,-24.082 53.988,-40.004 v 0 c 0.142,-1.238 0.174,-2.481 0.078,-3.727 -0.088,-1.126 -0.275,-2.234 -0.555,-3.323 l -1.945,-28.821 c -1.245,-16.011 -22.364,-28.449 -52.822,-33.732 -0.523,-259.343 16.129,-465.762 22.627,-536.247 l 58.765,32.507 79.004,629.813 v 0 z" /></g><g
           transform="translate(1001.9699,371.6035)"
           id="g32"><path
             id="path34"
             style="fill:#b52e31;fill-opacity:1;fill-rule:evenodd;stroke:none"
             d="M 0,0 C 7.298,105.713 32.445,412.701 32.445,412.701 12.012,249.228 -32.446,-17.948 -32.446,-17.948 Z" /></g><g
           transform="translate(959.173,1029.3594)"
           id="g36"><path
             id="path38"
             style="fill:#b52e31;fill-opacity:1;fill-rule:evenodd;stroke:none"
             d="m 0,0 2.5,32.144 c 1.38,17.739 27.151,31.096 62.995,35.19 3.73,34.349 6.859,64.706 9.357,89.721 l -252.95,86.355 V -779.944 l 110.708,61.238 C -14.312,-548.702 27.223,-258.65 52.89,-43.382 20.279,-33.614 -1.327,-17.066 0,0" /></g><g
           transform="translate(694.6877,731.5576)"
           id="g40"><path
             id="path42"
             style="fill:#ffffff;fill-opacity:1;fill-rule:evenodd;stroke:none"
             d="M 0,0 87.864,209.692 188.279,0 Z m 239.861,-119.408 c 8.993,44.094 19.979,102.877 26.855,156.965 L 87.126,421.598 v 10e-4 l -296.817,-660.086 110.753,2.216 59.805,149.146 h 265.069 z" /></g></g></g></g></svg>
