<?xml version="1.0" encoding="UTF-8" standalone="no"?>
<svg
   xmlns:dc="http://purl.org/dc/elements/1.1/"
   xmlns:cc="http://creativecommons.org/ns#"
   xmlns:rdf="http://www.w3.org/1999/02/22-rdf-syntax-ns#"
   xmlns:svg="http://www.w3.org/2000/svg"
   xmlns="http://www.w3.org/2000/svg"
   viewBox="0 0 1575.1067 1263.4133"
   height="1263.4133"
   width="1575.1067"
   xml:space="preserve"
   id="svg2"
   version="1.1"><metadata
     id="metadata8"><rdf:RDF><cc:Work
         rdf:about=""><dc:format>image/svg+xml</dc:format><dc:type
           rdf:resource="http://purl.org/dc/dcmitype/StillImage" /></cc:Work></rdf:RDF></metadata><defs
     id="defs6" /><g
     transform="matrix(1.3333333,0,0,-1.3333333,0,1263.4133)"
     id="g10"><g
       transform="scale(0.1)"
       id="g12"><path
         id="path14"
         style="fill:#d91e25;fill-opacity:1;fill-rule:nonzero;stroke:none"
         d="M 9957.01,4776.96 10317.6,7902.69 5906.66,9475.65 1495.75,7902.69 1856.31,4776.96 c 2674.49,525.76 5426.22,525.76 8100.7,0" /><path
         id="path16"
         style="fill:#6e1417;fill-opacity:1;fill-rule:nonzero;stroke:none"
         d="M 9957.01,4776.96 10317.6,7902.69 5906.66,9475.65 V 5171.39 c 1356.56,0 2713.1,-131.55 4050.35,-394.43" /><path
         id="path18"
         style="fill:#d91e25;fill-opacity:1;fill-rule:nonzero;stroke:none"
         d="M 3556.1,1301.9 5906.66,0 8257.22,1301.9 c -1551.63,309.95 -3149.5,309.95 -4701.12,0" /><path
         id="path20"
         style="fill:#6e1417;fill-opacity:1;fill-rule:nonzero;stroke:none"
         d="M 5906.66,1534.43 V 0 l 2350.56,1301.9 c -775.81,154.98 -1563.18,232.53 -2350.56,232.53" /><path
         id="path22"
         style="fill:#6e1417;fill-opacity:1;fill-rule:nonzero;stroke:none"
         d="m 9292.66,2085.83 c 10.58,-64.54 20.65,-129.05 30.47,-193.56 l 321.67,178.16 56.88,493.02 c -139.77,-157.33 -276.2,-316.52 -409.02,-477.62" /><path
         id="path24"
         style="fill:#6e1417;fill-opacity:1;fill-rule:nonzero;stroke:none"
         d="m 9720.51,2784.42 c -2516.29,515.65 -5111.43,515.65 -7627.72,0 194.24,-217.39 381.93,-438.45 562.9,-662.95 -55.61,-318.39 -102.05,-636.54 -139.36,-954.03 2214.11,645.31 4566.55,645.31 6780.65,0 -37.32,317.49 -83.76,635.65 -139.38,954.04 180.97,224.5 368.68,445.56 562.91,662.94" /><path
         id="path26"
         style="fill:#ffffff;fill-opacity:1;fill-rule:nonzero;stroke:none"
         d="m 3338.72,2375.9 c -14.18,-97.34 -27.65,-194.68 -40.39,-291.98 63.57,13.35 127.22,26.22 190.94,38.58 -48.47,84.93 -97.61,169.61 -147.41,254.03 -1.05,-0.21 -2.09,-0.42 -3.14,-0.63 z m -173.07,-476.42 c 21.14,159.93 44.31,319.93 69.5,479.95 -22.44,-2.72 -44.9,-5.5 -67.35,-8.35 -5.54,25.73 -11.09,51.45 -16.64,77.17 80.59,17.39 161.31,33.99 242.14,49.83 108.05,-169.9 213.09,-341 315.1,-513.24 0.34,0.05 0.68,0.12 1.01,0.18 19.47,2.48 38.95,4.91 58.42,7.31 4.72,-27.22 9.45,-54.44 14.17,-81.65 -86.81,-15.06 -173.49,-31.06 -260.05,-47.98 -5.05,25.83 -10.1,51.66 -15.15,77.49 12.64,3.46 25.29,6.91 37.94,10.34 11.23,3.48 18.52,7.53 21.86,12.11 3.33,4.61 2.33,11.68 -3.01,21.27 -10.87,18.43 -21.78,36.85 -32.73,55.27 -79.62,-15.29 -159.14,-31.36 -238.53,-48.2 -4.24,-30.13 -8.41,-60.26 -12.51,-90.38 20.41,3.39 40.83,6.72 61.25,10 5.66,-27.03 11.33,-54.07 17,-81.1 -77.34,-16.21 -154.55,-33.16 -231.65,-50.86 -5.89,25.66 -11.78,51.3 -17.66,76.96 10.86,3.49 21.73,6.97 32.6,10.44 13.84,4.46 21.93,15.59 24.29,33.44" /><path
         id="path28"
         style="fill:#ffffff;fill-opacity:1;fill-rule:nonzero;stroke:none"
         d="m 3981.05,1943.57 c -4.09,25.99 -8.16,52 -12.24,77.99 12.06,2.88 24.13,5.76 36.2,8.6 17.45,3.98 24.93,14.29 22.4,31.02 -22.65,149.39 -45.31,298.78 -67.96,448.17 -20.25,-2.08 -40.49,-4.21 -60.74,-6.39 -4.27,27.3 -8.54,54.58 -12.81,81.87 63.86,9.99 127.77,19.5 191.74,28.54 121.43,-133.48 239.54,-268.61 354.3,-405.3 0.7,0.09 1.39,0.16 2.07,0.24 -14.06,119.74 -28.12,239.46 -42.18,359.19 -23.47,-1.77 -46.94,-3.61 -70.4,-5.51 -3.38,27.42 -6.75,54.83 -10.12,82.25 86.86,10.67 173.81,20.48 260.83,29.4 2.68,-26.18 5.37,-52.36 8.06,-78.54 -12.66,-2.29 -25.32,-4.58 -37.97,-6.9 -16.88,-3.1 -24.29,-14.02 -22.28,-32.76 19.12,-177.69 38.24,-355.39 57.37,-533.08 -39.64,-4.26 -79.27,-8.72 -118.87,-13.36 -115.48,138.9 -234.43,276.23 -356.82,411.83 -0.7,-0.1 -1.4,-0.19 -2.1,-0.29 17.23,-121.61 34.46,-243.22 51.7,-364.84 22.24,2.17 44.48,4.28 66.72,6.32 3.73,-27.36 7.46,-54.73 11.19,-82.1 -82.79,-11.29 -165.49,-23.41 -248.09,-36.35" /><path
         id="path30"
         style="fill:#ffffff;fill-opacity:1;fill-rule:nonzero;stroke:none"
         d="m 5392.09,2310.34 c 2.39,-58.77 4.78,-117.54 7.17,-176.31 -61.83,-44.14 -139.15,-68.55 -232.83,-74.14 -93.66,-5.6 -168.6,17.05 -225.9,69 -57.23,51.91 -91.01,132.65 -100.29,242.76 -4.08,48.58 -0.95,92.86 9.57,132.85 10.52,39.99 25.96,73.53 46.31,100.54 20.37,27.01 44.91,50.06 73.64,69.07 54.81,34.57 118.86,54.12 191.52,58.26 72.64,4.14 141.25,-5.89 205.18,-29.9 2.3,-55.19 4.58,-110.39 6.87,-165.58 -35.86,-3.76 -71.69,-7.67 -107.51,-11.73 -1.26,25.31 -2.52,50.62 -3.78,75.93 -0.49,9.73 -2.27,16.82 -5.33,21.22 -8.42,11.91 -41.09,16.53 -97.93,13.27 -137.41,-8.05 -200.19,-91.12 -188.51,-245.85 12.29,-163.43 77.77,-240.29 196.57,-233.15 47.22,2.8 83.05,12.48 107.64,29.34 -2.44,48.36 -4.88,96.71 -7.33,145.07 -0.34,-0.02 -0.69,-0.04 -1.03,-0.05 -26.76,-0.38 -53.53,-0.84 -80.29,-1.39 -1.57,27.58 -3.14,55.16 -4.71,82.74 86.93,4.94 173.91,9 260.9,12.16 0.94,-25.97 1.89,-51.95 2.84,-77.93 -7.96,-0.94 -15.93,-1.89 -23.89,-2.85 -11.06,-1.74 -18.77,-4.79 -23.09,-9.2 -4.36,-4.4 -6.27,-12.44 -5.79,-24.13" /><path
         id="path32"
         style="fill:#ffffff;fill-opacity:1;fill-rule:nonzero;stroke:none"
         d="m 5835.16,2627.69 c 0.6,-107.88 1.18,-215.77 1.78,-323.66 0.26,-45.49 12,-77.41 35.06,-95.86 23.05,-18.46 55.92,-27.69 98.76,-27.91 42.82,-0.21 76.13,9.47 100.1,29.31 23.95,19.84 36.33,49.18 36.97,88.19 1.88,118.9 3.78,237.82 5.67,356.73 -20.61,1.3 -41.23,2.56 -61.85,3.77 0.31,27.62 0.61,55.24 0.92,82.85 84.85,-0.94 169.68,-2.71 254.51,-5.31 -0.81,-26.31 -1.62,-52.62 -2.43,-78.92 -11.76,-0.62 -23.52,-1.25 -35.29,-1.91 -20.7,-1.36 -31.25,-10.87 -31.69,-28.41 -2.96,-115.95 -5.93,-231.92 -8.89,-347.89 -1.63,-63.02 -26.29,-111.75 -73.41,-146.55 -47.16,-34.81 -111.2,-51.64 -192.77,-51.26 -81.56,0.36 -143.28,17.27 -185.63,51.62 -42.33,34.3 -64.34,88.99 -65.53,164.4 -1.84,119.23 -3.68,238.47 -5.53,357.71 -20.64,0.66 -41.29,1.26 -61.94,1.83 -0.56,27.6 -1.11,55.22 -1.67,82.84 86.62,1.75 173.26,2.64 259.9,2.67 0.01,-26.32 0.02,-52.64 0.03,-78.96 -11.75,-0.98 -23.48,-1.97 -35.23,-2.99 -11.38,-1.34 -19.55,-4.13 -24.49,-8.38 -4.96,-4.26 -7.42,-12.21 -7.35,-23.91" /><path
         id="path34"
         style="fill:#ffffff;fill-opacity:1;fill-rule:nonzero;stroke:none"
         d="m 6985.49,2046.75 c -161.17,14.04 -322.54,24.94 -484.03,32.68 1.26,26.28 2.52,52.57 3.78,78.86 11.35,0.44 22.69,0.86 34.02,1.26 19.93,0.94 30.36,9.47 31.22,25.71 8.01,150.87 16.01,301.76 24.01,452.65 -20.21,2.05 -40.41,4.05 -60.63,6.01 1.33,27.59 2.67,55.17 4,82.76 86.21,-4.16 172.38,-9.18 258.51,-15.06 -1.78,-26.26 -3.58,-52.51 -5.37,-78.77 -11.79,-0.17 -23.57,-0.37 -35.35,-0.57 -20.75,-0.59 -31.7,-10.35 -32.87,-29.14 -9.13,-144.64 -18.25,-289.27 -27.38,-433.91 56.85,-3.58 113.69,-7.56 170.5,-11.92 9.58,-0.74 16.12,1.2 19.56,5.81 3.47,4.62 5.65,12.4 6.51,23.43 1.79,22.68 3.57,45.36 5.36,68.03 35,-5.03 69.98,-10.2 104.92,-15.54 -5.58,-64.09 -11.17,-128.19 -16.76,-192.29" /><path
         id="path36"
         style="fill:#ffffff;fill-opacity:1;fill-rule:nonzero;stroke:none"
         d="m 7576.24,2524.82 c -44.73,-87.59 -88.77,-175.39 -132.12,-263.38 64.25,-7.85 128.47,-16.18 192.63,-25.02 -18.41,96.01 -37.53,192.02 -57.33,287.98 -1.06,0.14 -2.12,0.28 -3.18,0.42 z m -316.56,-395.21 c 71.37,144.57 144.71,288.56 220,431.92 -22.05,4.66 -44.12,9.25 -66.2,13.79 3.06,26.15 6.11,52.29 9.16,78.42 81.56,-9.51 163.07,-19.8 244.49,-30.88 47.29,-195.63 91.39,-391.45 132.31,-587.39 0.34,-0.06 0.68,-0.11 1.01,-0.16 19.21,-3.93 38.41,-7.91 57.6,-11.92 -4.3,-27.29 -8.61,-54.57 -12.92,-81.85 -86.97,13.73 -174.06,26.54 -261.24,38.41 3.56,26.09 7.11,52.16 10.67,78.24 13.04,-0.79 26.1,-1.6 39.15,-2.44 11.73,-0.33 19.93,1.16 24.56,4.42 4.64,3.28 5.95,10.31 4.02,21.1 -4.34,20.96 -8.71,41.91 -13.1,62.87 -80.14,11.19 -160.37,21.61 -240.65,31.25 -13.7,-27.15 -27.33,-54.32 -40.9,-81.51 20.34,-3.38 40.67,-6.81 60.99,-10.29 -3.37,-27.41 -6.73,-54.82 -10.09,-82.23 -78.15,9.57 -156.39,18.41 -234.67,26.5 2.71,26.17 5.41,52.36 8.12,78.54 11.35,-0.19 22.7,-0.39 34.05,-0.62 14.46,-0.23 25.66,7.69 33.64,23.83" /><path
         id="path38"
         style="fill:#ffffff;fill-opacity:1;fill-rule:nonzero;stroke:none"
         d="m 8294.71,2216.48 c 30.03,-5.73 60.05,-11.55 90.05,-17.47 84.72,-16.81 134.31,9.13 148.98,79.16 8.36,40.09 2.47,68.53 -17.76,85.32 -20.22,16.74 -55.56,30.29 -106.03,40.21 -25.59,5.02 -51.17,9.97 -76.78,14.85 -12.81,-67.36 -25.64,-134.72 -38.46,-202.07 z m -250.55,-308.03 c 4.53,25.93 9.05,51.85 13.58,77.78 11.33,-0.98 22.68,-1.99 34,-3.02 19.98,-1.57 31.41,5.61 34.29,21.6 26.76,148.71 53.51,297.42 80.25,446.13 -19.85,4.57 -39.71,9.08 -59.59,13.55 4.77,27.21 9.53,54.42 14.29,81.62 96.62,-16.91 193.11,-34.92 289.43,-54.03 81.85,-16.25 141.77,-43.14 179.45,-79.76 37.67,-36.65 49.48,-86.19 35.82,-148.38 -9.46,-43.18 -29.54,-76.03 -60.01,-98.68 -30.47,-22.69 -63.79,-36.84 -100.03,-42.54 22.98,-13.44 38.39,-36.97 46.18,-70.52 13.91,-55.15 27.5,-110.29 40.79,-165.46 19.04,-4.84 38.07,-9.75 57.09,-14.68 -6.06,-26.94 -12.12,-53.89 -18.17,-80.84 -82.5,18.55 -165.15,36.23 -247.91,53.07 5.24,25.79 10.49,51.58 15.73,77.37 9.98,-1.03 19.96,-2.08 29.93,-3.12 15.9,-1.31 24.84,2.8 26.82,12.35 0.8,3.81 0.38,8.56 -1.26,14.21 -9.28,35.11 -18.69,70.21 -28.23,105.32 -4.27,17.44 -10.33,30.44 -18.22,39.01 -7.89,8.53 -20.4,14.53 -37.49,17.91 -31.15,6.17 -62.32,12.22 -93.5,18.16 -10.57,-55.55 -21.13,-111.08 -31.71,-166.62 21.8,-5.14 43.57,-10.34 65.33,-15.6 -5.31,-27.11 -10.61,-54.21 -15.93,-81.32 -83.52,16.37 -167.17,31.86 -250.93,46.49" /><path
         id="path40"
         style="fill:#6e1417;fill-opacity:1;fill-rule:nonzero;stroke:none"
         d="m 11313.7,2507.62 c -3529.48,1040.91 -7284.61,1040.91 -10814.126,0 107.547,338.6 224.567,676.76 351.074,1014.05 C 575.305,3753.96 291.699,3980.73 0,4201.6 c 3855.62,1137.08 7957.7,1137.08 11813.3,0 -291.7,-220.87 -575.3,-447.65 -850.6,-679.94 126.5,-337.29 243.5,-675.45 351,-1014.04" /><path
         id="path42"
         style="fill:#ffffff;fill-opacity:1;fill-rule:nonzero;stroke:none"
         d="m 3064.51,3422.61 c 169.67,24.92 246,101.31 228.59,232.55 -9.13,68.25 -53.99,113.79 -135.02,135.85 -43.06,13.43 -97.96,23.71 -164.66,30.55 -66.72,6.81 -122.79,15.23 -168.13,25.59 -45.36,10.31 -92.17,26.88 -140.6,49.72 -95.36,45.79 -154.13,130.35 -175.31,254.64 -21.18,124.25 9.02,230.19 92.27,317.07 83.14,86.81 202.49,142.24 356.73,164.49 154.19,22.22 301.65,13.15 440.64,-26.69 12.59,-102.57 25.17,-205.13 37.76,-307.7 -74.82,-14.03 -149.56,-28.48 -224.19,-43.36 -5.31,39.59 -10.63,79.19 -15.94,118.79 -2.74,20.49 -7.76,35.1 -14.98,43.86 -19.86,23.7 -74.19,29.69 -162.82,17.08 -88.66,-12.65 -152.04,-36.84 -189.99,-71.88 -37.98,-35.07 -52.14,-82.63 -42.81,-142.5 6.79,-43.6 30.4,-78.92 70.59,-106.23 26.78,-18.21 64.31,-30.94 112.53,-38.45 48.21,-7.52 99.31,-15.14 153.3,-22.85 53.96,-7.78 102.19,-17.9 144.69,-30.32 42.47,-12.42 87.6,-31.57 135.21,-57.48 96.53,-50.31 151.92,-140.29 167.25,-268.83 15.36,-128.65 -20.74,-235.45 -106.55,-321.34 -85.9,-85.94 -205.47,-139.3 -360.12,-162.05 -154.69,-22.8 -297.63,-17.22 -430.5,17.56 -18.21,107.3 -36.42,214.61 -54.63,321.92 71.93,17.1 143.96,33.8 216.1,50.09 6.56,-41.51 13.13,-83.01 19.69,-124.51 3.23,-20.43 8.43,-34.97 15.6,-43.58 7.16,-8.65 25.97,-15.09 56.36,-19.43 30.37,-4.38 76.65,-1.77 138.94,7.44" /><path
         id="path44"
         style="fill:#ffffff;fill-opacity:1;fill-rule:nonzero;stroke:none"
         d="m 5748.14,4651.59 c -24.77,-2.26 -49.52,-4.57 -74.27,-6.92 -39.04,-3.23 -63.46,-28.39 -73.2,-75.38 -88.6,-376.81 -172,-754.18 -250.19,-1132.03 -96.79,-2.8 -193.57,-6.32 -290.32,-10.58 -87.61,303 -178.75,605.41 -273.41,907.18 -2.21,-0.13 -4.43,-0.26 -6.65,-0.37 -58.33,-310.3 -113.21,-620.81 -164.63,-931.51 -99.48,-6.68 -198.91,-14.13 -298.3,-22.35 -130.06,388.08 -266.09,774.92 -408.08,1160.39 -42.82,-2.13 -85.65,-4.38 -128.47,-6.77 -6.08,58.24 -12.16,116.47 -18.25,174.71 187,19.52 374.19,36.48 561.54,50.89 4.27,-55.64 8.55,-111.27 12.83,-166.91 -24.57,-3.96 -49.13,-7.96 -73.68,-12.02 -46.11,-7.87 -67.8,-27.71 -65.13,-59.26 0.46,-5.51 1.71,-11.64 3.79,-18.35 87.13,-259.54 171.75,-519.6 253.84,-780.14 2.87,0.2 5.74,0.42 8.61,0.63 51.69,316.04 106.96,631.91 165.81,947.55 97.01,6.04 194.05,11.39 291.11,16.05 96.27,-308.48 188.85,-617.63 277.72,-927.38 1.44,0.05 2.88,0.11 4.31,0.16 50.72,289.95 104.14,579.73 160.26,869.26 -40.58,1.69 -81.17,3.26 -121.78,4.69 -1.9,58.52 -3.8,117.05 -5.71,175.57 170.28,5.53 340.61,8.96 510.95,10.28 0.44,-55.79 0.87,-111.6 1.3,-167.39" /><path
         id="path46"
         style="fill:#ffffff;fill-opacity:1;fill-rule:nonzero;stroke:none"
         d="m 6182.79,3685.13 c 4.48,316.85 8.96,633.7 13.45,950.55 -42.75,2.68 -85.5,5.22 -128.28,7.62 0.47,58.55 0.93,117.11 1.39,175.66 183.22,-1.45 366.43,-5.33 549.56,-11.65 -1.92,-55.77 -3.85,-111.53 -5.77,-167.29 -24.84,-1.22 -49.68,-2.48 -74.51,-3.78 -43.69,-2.79 -66.04,-24.26 -67.13,-64.19 -8.79,-317.45 -17.58,-634.9 -26.37,-952.35 40.59,-3.2 81.17,-6.52 121.73,-9.97 -1.98,-58.52 -3.97,-117.03 -5.96,-175.56 -170.94,5.81 -341.95,9.34 -512.96,10.6 0.41,55.79 0.82,111.59 1.23,167.39 23.53,1.89 47.08,3.75 70.63,5.56 21.42,2.51 37.16,8.15 47.3,16.98 10.07,8.81 15.34,25.62 15.69,50.43" /><path
         id="path48"
         style="fill:#ffffff;fill-opacity:1;fill-rule:nonzero;stroke:none"
         d="m 7366.84,3576.42 c 170.67,-12.97 261.85,44.76 273.71,176.64 6.11,68.58 -27.6,122.88 -101.69,162.19 -38.98,22.57 -90.17,44.67 -153.61,65.99 -63.49,21.31 -116.2,41.84 -158.04,61.91 -41.89,20.03 -83.8,46.49 -125.9,79.39 -82.71,65.64 -121.29,161.05 -114.63,286.95 6.68,125.87 59.28,222.58 159.33,289.03 99.93,66.42 228.25,94.28 383.33,82.09 155.04,-12.21 296.73,-53.46 423.49,-122.88 -10.27,-102.83 -20.54,-205.64 -30.81,-308.47 -76.04,2.75 -152.06,5.08 -228.05,6.97 3.53,39.8 7.05,79.59 10.58,119.39 1.81,20.59 0.14,35.94 -4.95,46.08 -14.15,27.48 -65.79,45.26 -154.86,52.43 -89.14,7.15 -156.14,-2.51 -200.77,-28.37 -44.67,-25.86 -68.9,-69.15 -72.96,-129.61 -2.96,-44.02 12.28,-83.66 45.38,-119.13 22.08,-23.65 55.81,-44.33 101.1,-62.25 45.3,-17.92 93.37,-36.58 144.28,-55.98 50.84,-19.42 95.61,-39.92 134.3,-61.36 38.64,-21.45 78.42,-50.05 119.13,-85.79 83.04,-70.3 117.28,-170.24 103.98,-299.01 -13.32,-128.88 -71.99,-225.16 -174.51,-290.07 -102.59,-64.96 -230.84,-90.74 -386.4,-78.97 -155.64,11.77 -293.46,48.62 -415.05,111.74 5.84,108.68 11.67,217.38 17.51,326.06 73.7,0.88 147.43,1.34 221.2,1.37 -2.73,-41.93 -5.45,-83.86 -8.17,-125.79 -1.34,-20.64 0.51,-35.96 5.61,-45.93 5.08,-10.01 21.96,-20.43 50.59,-31.35 28.58,-10.95 74.21,-18.57 136.88,-23.27" /><path
         id="path50"
         style="fill:#ffffff;fill-opacity:1;fill-rule:nonzero;stroke:none"
         d="m 8692.04,3430.9 c 169.7,-24.68 264.77,26.66 285.66,157.4 10.78,68.02 -19.19,124.5 -90.56,168.81 -37.44,25.21 -87.11,50.77 -149.05,76.41 -61.98,25.63 -113.26,49.72 -153.7,72.61 -40.5,22.87 -80.56,52.14 -120.38,87.87 -78.15,71.15 -110.2,168.98 -94.92,294.15 15.27,125.11 74.44,217.96 178.95,277.41 104.41,59.4 234.52,78.4 388.7,55.55 154.12,-22.83 292.96,-73.75 414.95,-151.73 -17.28,-101.88 -34.58,-203.75 -51.87,-305.63 -75.84,7.98 -151.68,15.54 -227.52,22.66 6.25,39.45 12.49,78.91 18.73,118.38 3.22,20.43 2.63,35.84 -1.8,46.31 -12.25,28.4 -62.66,49.68 -151.21,62.97 -88.59,13.26 -156.23,8.23 -202.59,-14.51 -46.41,-22.73 -73.59,-64.26 -81.78,-124.3 -5.97,-43.72 6.54,-84.31 37.21,-121.97 20.44,-25.11 52.76,-48.05 96.78,-69.05 44.05,-21 90.84,-42.92 140.39,-65.77 49.52,-22.89 92.85,-46.41 130.06,-70.46 37.19,-24.07 74.97,-55.34 113.24,-93.8 78.21,-75.84 105.66,-177.93 83.56,-305.49 -22.11,-127.65 -87.38,-219.65 -194.31,-277.37 -107.02,-57.74 -236.97,-74.63 -391.66,-52.18 -154.74,22.43 -289.95,68.65 -407.12,139.97 13.26,108.04 26.53,216.07 39.79,324.1 73.69,-4.19 147.4,-8.79 221.12,-13.81 -5.6,-41.65 -11.18,-83.3 -16.77,-124.95 -2.74,-20.49 -1.94,-35.9 2.47,-46.21 4.39,-10.33 20.55,-21.89 48.41,-34.74 27.82,-12.89 72.89,-23.62 135.22,-32.63" /><path
         id="path52"
         style="fill:#ffffff;fill-opacity:1;fill-rule:nonzero;stroke:none"
         d="M 2247.63,4850.02 1926.39,7634.68 5906.67,9054.07 9886.91,7634.68 9565.69,4850.02 c 52.25,-9.24 104.45,-18.77 156.64,-28.41 l 336.87,2920.26 -4125.85,1471.32 -26.68,9.48 -4152.56,-1480.8 336.88,-2920.26 c 52.19,9.64 104.39,19.16 156.64,28.41" /><path
         id="path54"
         style="fill:#ffffff;fill-opacity:1;fill-rule:nonzero;stroke:none"
         d="m 2767.76,4935.37 c 15.43,28.84 42.43,52.46 92.03,65.63 146,38.75 285.68,101.36 429.05,150.79 75.95,26.18 135.76,72.57 138.37,153.99 5.89,184.69 132.75,261.99 270.22,333.03 104.89,54.19 201.7,120 295.47,191.92 74.03,56.79 106.29,128.09 133.31,218.43 46.45,155.24 -31.68,367.76 185.61,453.36 7.97,3.14 2.94,37.22 5.81,56.6 18.34,123.16 -13.25,258.93 95.8,359.73 15.75,14.56 13.59,58.12 7.71,85.63 -22.7,106.09 -17.45,176.08 124.11,168.8 48.22,-2.49 102.75,52.3 124.56,113.81 13.84,39 37.8,75.11 81.42,76.06 126.93,2.76 135.1,82.93 126.84,181.6 -19.32,230.75 10.68,448.52 130.02,655.63 59.82,103.82 159.9,129.25 245.83,169.44 74.78,34.97 94.27,-78.66 137.92,-125.14 101.79,-108.38 176.51,-234.78 225.96,-377.16 34.31,-98.74 84.52,-190.82 176.76,-247.73 60.41,-37.26 65.4,-69.64 17.23,-124.76 -50.73,-58.07 -108.8,-117.88 -102.44,-205.91 6.33,-87.49 81.07,-193.57 -70.08,-235.52 -11.05,-3.07 -11.46,-45.36 -16.75,-69.43 -16.98,-77.1 -32.68,-154.51 -51.09,-231.25 -83.86,-349.54 -102.58,-677.86 272.15,-883.9 24.87,-13.68 45.29,-37.56 64.29,-59.75 30.84,-36.03 49.58,-84.62 22.09,-123.09 -79.54,-111.31 -75.14,-225.83 -28.18,-353.82 -165.19,95.74 -316.92,200.33 -471.86,299.79 -31.57,20.26 -79.4,83.83 -109.07,29.71 -47.29,-86.27 -136.56,-169.85 -95.34,-282.8 26.03,-71.35 49.42,-143.86 72.3,-216.59 810.1,23.49 1621.21,-0.02 2429.25,-70.33 -9.37,46.48 -36.02,85.79 -86,121.63 -131.37,94.18 -253.59,201.36 -379.48,303.3 -37.98,30.77 -75.52,59.13 -76.92,117.84 -3.67,153.13 -12.79,306.12 -17.93,459.23 -0.88,26.39 -9.32,73.52 32.17,66.62 75.73,-12.59 176.53,-13.24 211.37,-83.25 66.19,-132.97 185.63,-214.55 268.58,-329.22 32.79,-45.31 74.35,-77.16 135.32,-75.15 188.9,6.21 315.65,-103.15 438.47,-231.04 143.5,-149.43 283.12,-302.66 424.26,-454.39 112.93,-15.03 225.77,-30.84 338.51,-47.72 -4.42,6.33 -8.83,12.66 -13.24,18.99 33.99,-13.87 67.53,-24.11 100.76,-32.48 150.32,-23.15 300.45,-47.89 450.37,-74.33 -81.39,47.97 -162.31,96.72 -242.48,146.67 -395.6,246.47 -820.59,440.11 -1202.16,709.06 -27.31,19.26 -61.99,44.1 -91.28,41.71 -262.36,-21.41 -330.83,237.01 -478.8,364.69 -84.04,72.53 -145.88,141.33 -258.4,165.32 -100.69,21.46 -207.17,87.1 -166.91,201.51 75.77,215.3 -8.77,353.83 -160.26,483.01 -27.74,23.65 -40.16,66.77 -56.85,102.25 -86,182.8 -170.89,366.14 -256.66,549.05 -16.46,35.12 -25.26,88.23 -66.61,91.64 -173.7,14.31 -281.56,106.88 -339.23,267.8 -1.46,4.05 -7.17,6.51 -10.84,9.78 -261.54,232.16 -537.45,443.58 -850.5,601.48 h -58.78 c -178.75,-153.83 -397.95,-259.18 -477.49,-519.77 -47.84,-156.76 -54.48,-308.44 -57.68,-464.87 -1.43,-69.72 1.66,-131.41 -94.8,-121.1 -13.97,1.49 -39.59,-0.54 -41.45,-6.64 -50.8,-167.03 -227.66,-160.03 -333.83,-249.37 -24.83,-20.9 -67.47,-47.85 -46.2,-83.43 113.99,-190.71 -113.01,-335.39 -63.94,-515.48 -162.76,-144.41 -137.81,-355.49 -187.36,-539.96 -14.84,-55.22 -43.22,-97.91 -89.47,-130.37 -144.27,-101.21 -286.53,-205.44 -432.72,-303.72 -58.64,-39.41 -114.06,-81.74 -140.65,-146.42 -100.13,-243.58 -333.1,-313.53 -541.12,-387.02 -116.29,-41.08 -167.91,-90.86 -201.33,-193.83 -1.55,-4.78 -2.98,-9.65 -4.36,-14.56 55.51,8.84 111.06,17.37 166.62,25.77" /><path
         id="path56"
         style="fill:#ffffff;fill-opacity:1;fill-rule:nonzero;stroke:none"
         d="m 2391.17,2219.47 33.78,-18.71 c -12.15,14.49 -24.41,28.9 -36.62,43.34 l 2.84,-24.63" /><path
         id="path58"
         style="fill:#ffffff;fill-opacity:1;fill-rule:nonzero;stroke:none"
         d="m 9388.31,2200.72 33.85,18.75 2.85,24.69 c -12.24,-14.48 -24.53,-28.92 -36.7,-43.44" /><path
         id="path60"
         style="fill:#ffffff;fill-opacity:1;fill-rule:nonzero;stroke:none"
         d="M 7632.1,1409.62 5906.67,453.961 4181.23,1409.62 c -85.37,-12.4 -170.63,-25.67 -255.78,-39.93 L 5906.67,272.371 7887.88,1369.69 c -85.15,14.26 -170.42,27.53 -255.78,39.93" /><path
         id="path62"
         style="fill:#d91e25;fill-opacity:1;fill-rule:nonzero;stroke:none"
         d="m 2520.63,2085.82 c -132.81,161.1 -269.23,320.28 -408.98,477.61 l 56.87,-493 321.65,-178.14 c 9.82,64.49 19.88,129 30.46,193.53" /><path
         id="path64"
         style="fill:#d91e25;fill-opacity:1;fill-rule:nonzero;stroke:none"
         d="m 9292.66,2085.83 c 10.58,-64.54 20.65,-129.05 30.47,-193.56 l 321.67,178.16 56.88,493.02 c -139.77,-157.33 -276.2,-316.52 -409.02,-477.62" /></g></g></svg>