<?xml version="1.0" encoding="UTF-8" standalone="no"?>
<svg
   xmlns:dc="http://purl.org/dc/elements/1.1/"
   xmlns:cc="http://creativecommons.org/ns#"
   xmlns:rdf="http://www.w3.org/1999/02/22-rdf-syntax-ns#"
   xmlns:svg="http://www.w3.org/2000/svg"
   xmlns="http://www.w3.org/2000/svg"
   xmlns:sodipodi="http://sodipodi.sourceforge.net/DTD/sodipodi-0.dtd"
   xmlns:inkscape="http://www.inkscape.org/namespaces/inkscape"
   version="1.1"
   id="svg2"
   xml:space="preserve"
   width="333.33334"
   height="333.33334"
   viewBox="0 0 333.33334 333.33334"
   sodipodi:docname="Angular_Thailand3.eps"><metadata
     id="metadata8"><rdf:RDF><cc:Work
         rdf:about=""><dc:format>image/svg+xml</dc:format><dc:type
           rdf:resource="http://purl.org/dc/dcmitype/StillImage" /></cc:Work></rdf:RDF></metadata><defs
     id="defs6" /><sodipodi:namedview
     pagecolor="#ffffff"
     bordercolor="#666666"
     borderopacity="1"
     objecttolerance="10"
     gridtolerance="10"
     guidetolerance="10"
     inkscape:pageopacity="0"
     inkscape:pageshadow="2"
     inkscape:window-width="640"
     inkscape:window-height="480"
     id="namedview4" /><g
     id="g10"
     inkscape:groupmode="layer"
     inkscape:label="ink_ext_XXXXXX"
     transform="matrix(1.3333333,0,0,-1.3333333,0,333.33333)"><g
       id="g12"
       transform="scale(0.1)"><path
         d="m 1250,2215.26 -931,-332 142,-1230.998 789,-437 789,437 142,1230.998 -931,332"
         style="fill:#dd0031;fill-opacity:1;fill-rule:nonzero;stroke:none"
         id="path14" /><path
         d="m 1250,2215.26 v -222 1 -1012.998 -766 l 789,437 142,1230.998 -931,332"
         style="fill:#c3002f;fill-opacity:1;fill-rule:nonzero;stroke:none"
         id="path16" /><path
         d="M 1249.91,1971.33 C 1025.55,1286.3 869.328,988.27 735.641,818.211 l 94.398,-134.82 c 26.551,89.539 154.902,311.898 200.731,392.829 155.47,51.94 300.61,50.05 436.51,0 44.8,-82.279 178.08,-310.341 202.29,-400.04 l 92.84,142.031 c -231.44,320.599 -396.7,710.829 -512.5,1153.119 z m 150.21,-736.06 c -98.54,30.04 -198.8,30.13 -300.43,0 55.32,100.07 101.19,221.66 150.22,361.4 30.28,-131.68 74.54,-255.23 150.21,-361.4"
         style="fill:#ffffff;fill-opacity:1;fill-rule:nonzero;stroke:none"
         id="path18" /><path
         d="m 1613.26,816.109 c 73.5,49.692 99.59,102.012 143.46,163.551 0,0 -94.02,124.77 -48.66,252.68 0,0 -29.69,-109.34 167.24,-228.6 l -113.28,-187.06 -148.76,-0.571"
         style="fill:#ffffff;fill-opacity:1;fill-rule:evenodd;stroke:none"
         id="path20" /><path
         d="m 890.469,819.449 c -68.508,45.129 -99.77,88.949 -148.739,159.641 0,0 94.02,124.77 48.661,252.68 0,0 29.687,-109.34 -167.243,-228.6 l 113.282,-187.061 154.039,3.34"
         style="fill:#ffffff;fill-opacity:1;fill-rule:evenodd;stroke:none"
         id="path22" /></g></g></svg>
