<svg version="1.1" id="Layer_1" xmlns="http://www.w3.org/2000/svg" xmlns:xlink="http://www.w3.org/1999/xlink" x="0px" y="0px"
	 width="133.9px" height="143.3px" viewBox="0 0 133.9 143.3" style="enable-background:new 0 0 133.9 143.3;" xml:space="preserve"
	>
<style type="text/css">
	.st0{fill:#184996;}
	.st1{fill:#FFCB05;}
	.st2{fill:#CC2030;}
	.st3{fill:#DD0031;}
	.st4{fill:#FFFFFF;}
	.st5{opacity:0.15;enable-background:new    ;}
	.st6{fill:none;}
</style>
<g>
	<path class="st0" d="M101.5,12.3l-8-2.8l-2.8-1L66.8,0L37.2,10.6l-12,4.3l-11.7,4.2l4.2,36.3l3.9,34.1l14.3,7.9l6.3-3.4l-6.3,3.4
		l6.3,3.5l2.5,1.4l22.1,12.2l30.3-16.8l12.8-7.1l2-1.1l3.9-34.1l4.2-36.3L101.5,12.3z M66.9,55.3L66.9,55.3L66.9,55.3L66.9,55.3z"/>
	<rect x="66.9" y="45.5" class="st1" width="10.7" height="14.1"/>
	<polygon class="st1" points="42.3,93.9 42.3,93.9 33.4,89.1 42.3,84.2 42.3,84.2 42.3,84.2 33.4,79.4 42.3,74.6 42.3,74.6
		42.3,74.6 33.4,69.8 42.3,64.9 42.3,64.9 42.3,64.9 33.4,60.1 42.3,55.3 17.8,55.3 21.7,89.4 36,97.3 	"/>
	<path class="st2" d="M42.3,55.3L42.3,55.3L42.3,55.3z"/>
	<path class="st2" d="M66.9,55.3L66.9,55.3L66.9,55.3z"/>
	<g>
		<polygon class="st0" points="93.5,55.3 77.6,55.3 76.8,57.9 75.2,63.6 86.9,60.1 83.4,71.8 95.2,68.3 91.7,80.1 103.4,76.6
			100,88.4 111.7,84.9 110,90.6 112.1,89.4 116,55.3 		"/>
		<polygon class="st0" points="91.7,80.1 79.9,83.6 83.4,71.8 71.7,75.3 75.2,63.6 66.9,66 66.9,70.6 66.9,114.4 97.2,97.7
			100,88.4 88.2,91.8 		"/>
	</g>
	<polygon class="st3" points="101.5,12.3 93.5,9.4 90.8,8.5 84.7,11.8 93.5,16.6 84.7,21.4 93.5,26.3 84.7,31.1 93.5,35.9
		93.5,35.9 84.7,40.7 93.5,45.6 84.7,50.4 93.5,55.2 93.5,55.2 93.5,55.3 116,55.3 120.2,18.9 	"/>
	<polygon class="st1" points="84.7,21.4 93.5,16.6 84.7,11.8 90.8,8.5 66.9,-0.1 66.9,12.6 66.9,12.6 66.9,44.6 66.9,51.1
		66.9,55.2 66.9,55.3 66.9,55.3 77.6,55.3 93.5,55.3 93.5,55.2 84.7,50.4 93.5,45.6 84.7,40.7 93.5,35.9 93.5,35.9 84.7,31.1
		93.5,26.3 	"/>
	<g>
		<polygon class="st1" points="91.7,80.1 88.2,91.8 100,88.4 103.4,76.6 		"/>
		<polygon class="st1" points="100,88.4 97.2,97.7 110,90.6 111.7,84.9 		"/>
		<polygon class="st1" points="83.4,71.8 79.9,83.6 91.7,80.1 95.2,68.3 		"/>
		<polygon class="st1" points="75.2,63.6 71.7,75.3 83.4,71.8 86.9,60.1 		"/>
		<polygon class="st1" points="77.6,55.3 66.9,55.3 66.9,55.3 66.9,57.9 66.9,66 75.2,63.6 76.8,57.9 		"/>
	</g>
	<g>
		<polygon class="st0" points="37.3,10.5 33.8,22.2 45.6,18.7 42.1,30.5 53.8,27 50.3,38.7 62.1,35.3 58.6,47 66.9,44.6 66.9,12.6
			66.9,12.6 66.9,-0.1 		"/>
		<polygon class="st0" points="50.3,38.7 38.6,42.2 42.1,30.5 30.3,34 33.8,22.2 22,25.7 25.3,14.8 13.6,18.9 17.8,55.3 42.3,55.3
			42.3,55.3 56.2,55.3 57.4,51.1 58.6,47 46.9,50.5 		"/>
	</g>
	<polygon class="st2" points="66.9,55.3 66.9,55.3 66.9,55.2 	"/>
	<g>
		<polygon class="st1" points="50.3,38.7 46.9,50.5 58.6,47 62.1,35.3 		"/>
		<polygon class="st1" points="58.6,47 57.4,51.1 56.2,55.3 66.9,55.3 66.9,55.2 66.9,51.1 66.9,44.6 		"/>
		<polygon class="st1" points="42.1,30.5 38.6,42.2 50.3,38.7 53.8,27 		"/>
		<polygon class="st1" points="33.8,22.2 30.3,34 42.1,30.5 45.6,18.7 		"/>
		<polygon class="st1" points="25.3,14.8 22,25.7 33.8,22.2 37.3,10.5 		"/>
	</g>
	<polygon class="st3" points="66.9,55.3 56.2,55.3 42.3,55.3 42.3,55.3 42.3,55.3 33.4,60.1 42.3,64.9 42.3,64.9 33.4,69.8
		42.3,74.6 42.3,74.6 33.4,79.4 42.3,84.2 42.3,84.2 42.3,84.2 33.4,89.1 42.3,93.9 42.3,93.9 36,97.3 42.3,100.8 44.8,102.2
		66.9,114.4 66.9,70.6 66.9,66 66.9,57.9 66.9,55.3 	"/>
	<path class="st4" d="M67,12.1L33.7,86.8l0,0h12.4l0,0l6.7-16.7h28.3l6.7,16.7l0,0h12.4l0,0L67,12.1L67,12.1L67,12.1L67,12.1
		L67,12.1z M76.7,59.8H57.2l9.7-23.4L76.7,59.8z"/>
	<polygon class="st5" points="66.9,-0.1 66.9,12.6 66.9,12.6 66.9,70.6 66.9,70.6 66.9,114.4 66.9,114.4 112.1,89.4 120.2,18.9 	"/>
</g>
<g>
	<g>
		<path class="st0" d="M42.2,131.5l-1.9,0.8l0.8,1.9l-1.2,0.5l-2-4.8l3.2-1.3l0.4,0.9l-2,0.9l0.5,1.1l1.9-0.8L42.2,131.5z"/>
		<path class="st0" d="M50.6,128.5c0.1,0.5,0.1,0.9,0.1,1.4c-0.1,0.4-0.3,0.8-0.5,1.1c-0.3,0.3-0.6,0.5-1.1,0.6s-0.8,0.1-1.2,0
			s-0.7-0.3-1-0.6s-0.5-0.7-0.6-1.2l-0.1-0.3c-0.1-0.5-0.2-0.9-0.1-1.4c0.1-0.4,0.3-0.8,0.5-1.1s0.6-0.5,1.1-0.6
			c0.4-0.1,0.8-0.1,1.2,0s0.7,0.3,1,0.7c0.3,0.3,0.5,0.7,0.6,1.2L50.6,128.5z M49.4,128.6c-0.1-0.5-0.3-0.9-0.5-1.1
			c-0.2-0.2-0.5-0.3-0.8-0.2c-0.6,0.2-0.8,0.7-0.6,1.6l0.1,0.4c0.1,0.5,0.3,0.8,0.5,1.1c0.2,0.2,0.5,0.3,0.8,0.2s0.5-0.3,0.6-0.6
			s0.1-0.7,0-1.2L49.4,128.6z"/>
		<path class="st0" d="M57,128.1l-0.7,0.1l0.2,1.8l-1.2,0.2l-0.7-5.1l2-0.3c0.6-0.1,1.1,0,1.5,0.2s0.6,0.6,0.7,1.1
			c0,0.4,0,0.7-0.1,0.9c-0.1,0.3-0.3,0.5-0.6,0.7l1.3,1.9v0.1l-1.3,0.2L57,128.1z M56.2,127.2l0.8-0.1c0.2,0,0.4-0.1,0.5-0.3
			c0.1-0.1,0.1-0.3,0.1-0.5s-0.1-0.4-0.2-0.5c-0.1-0.1-0.3-0.2-0.6-0.1l-0.8,0.1L56.2,127.2z"/>
		<path class="st0" d="M67.5,127.3l0.6-3.3h1.2l-1.1,5.2h-1.3l-0.7-2.9l-0.7,3h-1.3l-1.1-5.2h1.2l0.6,3.2l0.7-3.3h1.1L67.5,127.3z"
			/>
		<path class="st0" d="M76.3,128.9l-1.7-0.2l-0.4,0.9l-1.3-0.1l2.5-4.9l1.2,0.1l1.3,5.4l-1.3-0.1L76.3,128.9z M75,127.8l1.1,0.1
			l-0.4-1.8L75,127.8z"/>
		<path class="st0" d="M83.9,129.4l-0.7-0.2l-0.4,1.8l-1.2-0.3l1.2-5l2,0.5c0.6,0.1,1,0.4,1.3,0.7s0.4,0.8,0.2,1.2
			c-0.1,0.4-0.2,0.6-0.4,0.8s-0.5,0.3-0.8,0.4l0.6,2.3v0.1l-1.3-0.3L83.9,129.4z M83.4,128.3l0.8,0.2c0.2,0.1,0.4,0,0.6-0.1
			s0.2-0.2,0.3-0.5c0.1-0.2,0-0.4-0.1-0.6s-0.2-0.3-0.5-0.3l-0.8-0.2L83.4,128.3z"/>
		<path class="st0" d="M89.5,132.9l1.9-4.8l1.6,0.6c0.4,0.2,0.8,0.4,1,0.7s0.4,0.7,0.5,1.1c0.1,0.4,0,0.9-0.2,1.3l-0.1,0.2
			c-0.2,0.4-0.4,0.8-0.7,1.1s-0.7,0.4-1.1,0.5c-0.4,0.1-0.8,0-1.3-0.1L89.5,132.9z M92.2,129.4l-1.2,3l0.4,0.2
			c0.3,0.1,0.6,0.1,0.9-0.1c0.3-0.2,0.5-0.5,0.7-1l0.1-0.2c0.2-0.5,0.2-0.9,0.1-1.2s-0.3-0.5-0.6-0.7H92.2z"/>
	</g>
	<g>
		<path class="st0" d="M101.4,143.3c-0.1,0-0.2,0-0.3-0.1c-8.3-6.5-20.7-10.2-33.9-10.2s-25.6,3.7-33.9,10.2c-0.2,0.2-0.5,0.1-0.7,0
			l-8.8-8.8c-0.1-0.1-0.2-0.2-0.1-0.4c0-0.1,0.1-0.3,0.2-0.4c9.5-8.2,25.7-13.1,43.4-13.1s33.9,4.9,43.4,13.1
			c0.1,0.1,0.2,0.2,0.2,0.4s0,0.3-0.1,0.4l-8.8,8.8C101.6,143.3,101.5,143.3,101.4,143.3z M67.1,132c13.3,0,25.7,3.7,34.2,10.1
			l8.1-8.1c-9.4-7.8-25.1-12.5-42.3-12.5s-32.9,4.7-42.3,12.5l8.1,8.1C41.4,135.7,53.9,132,67.1,132z"/>
	</g>
	<g>
		<polyline class="st0" points="99.1,127.1 101.2,118.4 110.2,134 		"/>
		<path class="st0" d="M110.2,134.5c-0.2,0-0.3-0.1-0.4-0.3l-8.4-14.4l-1.8,7.4c-0.1,0.3-0.3,0.4-0.6,0.4c-0.3-0.1-0.4-0.3-0.4-0.6
			l2.1-8.7c0-0.2,0.2-0.4,0.4-0.4s0.4,0.1,0.5,0.2l9,15.5c0.1,0.2,0.1,0.6-0.2,0.7C110.4,134.5,110.3,134.5,110.2,134.5z"/>
	</g>
	<g>
		<g>
			<path class="st0" d="M126.4,132.1c-0.1,0-0.1,0-0.2,0c-6.7-2.6-13.1-3.5-18.9-2.7c-0.3,0-0.5-0.2-0.6-0.4c0-0.3,0.2-0.5,0.4-0.6
				c5.8-0.8,12.2,0.1,19,2.6l4.1-7.9c-4.5-3.3-11.6-5.2-19.2-5.2c-3.4,0-6.7,0.4-9.8,1.1c-0.3,0.1-0.5-0.1-0.6-0.4
				c-0.1-0.3,0.1-0.5,0.4-0.6c3.2-0.8,6.6-1.2,10-1.2c7.9,0,15.5,2.1,20.1,5.7c0.2,0.1,0.3,0.4,0.1,0.6l-4.6,8.7
				C126.7,132,126.6,132.1,126.4,132.1z"/>
		</g>
	</g>
	<g>
		<polygon class="st0" points="126.4,131.6 133.4,118.4 122.3,124.4 		"/>
		<path class="st0" d="M126.4,132.1c-0.2,0-0.3-0.1-0.4-0.3l-4.1-7.2c-0.1-0.1-0.1-0.3,0-0.4c0-0.1,0.1-0.2,0.2-0.3l11.1-6
			c0.2-0.1,0.4-0.1,0.6,0.1c0.2,0.2,0.2,0.4,0.1,0.6l-7,13.1C126.8,132,126.6,132.1,126.4,132.1L126.4,132.1z M123,124.6l3.4,5.9
			l5.8-10.9L123,124.6z"/>
	</g>
	<g>
		<polyline class="st0" points="34.8,127.1 32.7,118.4 23.7,134 		"/>
		<path class="st0" d="M23.7,134.5c-0.1,0-0.2,0-0.3-0.1c-0.2-0.1-0.3-0.4-0.2-0.7l9-15.5c0.1-0.2,0.3-0.3,0.5-0.2
			c0.2,0,0.4,0.2,0.4,0.4l2.1,8.7c0.1,0.3-0.1,0.5-0.4,0.6c-0.3,0.1-0.5-0.1-0.6-0.4l-1.8-7.4L24,134.3
			C24.1,134.4,23.9,134.5,23.7,134.5z"/>
	</g>
	<g>
		<g>
			<path class="st0" d="M7.6,132.1c-0.2,0-0.4-0.1-0.4-0.3l-4.6-8.7c-0.1-0.2-0.1-0.5,0.1-0.6c4.7-3.6,12.2-5.7,20.1-5.7
				c3.5,0,6.9,0.4,10,1.2c0.3,0.1,0.4,0.3,0.4,0.6c-0.1,0.3-0.3,0.4-0.6,0.4c-3.1-0.8-6.4-1.1-9.8-1.1c-7.5,0-14.7,1.9-19.2,5.2
				l4.1,7.9c6.7-2.5,13.1-3.4,19-2.6c0.3,0,0.5,0.3,0.4,0.6c0,0.3-0.3,0.5-0.6,0.4C20.7,128.6,14.4,129.5,7.6,132.1
				C7.7,132.1,7.6,132.1,7.6,132.1z"/>
		</g>
	</g>
	<g>
		<polygon class="st0" points="7.5,131.6 0.6,118.4 11.6,124.4 		"/>
		<path class="st0" d="M7.5,132.1L7.5,132.1c-0.2,0-0.4-0.1-0.4-0.3l-7-13.1c-0.1-0.2-0.1-0.4,0.1-0.6c0.2-0.2,0.4-0.2,0.6-0.1
			l11.1,6c0.1,0.1,0.2,0.2,0.2,0.3s0,0.3,0,0.4L8,131.9C7.9,132,7.7,132.1,7.5,132.1z M1.8,119.7l5.8,10.9l3.4-5.9L1.8,119.7z"/>
	</g>
	<g>
		<path class="st0" d="M17.6,123l1.9,0.7v1.1l-3.1-1.3v-1l3.1-1.3v1.1L17.6,123z"/>
		<path class="st0" d="M21.4,125.6h-0.9l1.8-5.6h0.9L21.4,125.6z"/>
	</g>
	<g>
		<path class="st0" d="M113.7,123l-1.9-0.7v-1.1l3.1,1.3v0.9l-3.1,1.3v-1.1L113.7,123z"/>
	</g>
</g>
<rect x="186.6" y="107.8" class="st6" width="138.8" height="22.8"/>
</svg>
