<?xml version="1.0" encoding="utf-8"?>
<!-- Generator: Adobe Illustrator 20.0.0, SVG Export Plug-In . SVG Version: 6.00 Build 0)  -->
<svg version="1.1" xmlns="http://www.w3.org/2000/svg" xmlns:xlink="http://www.w3.org/1999/xlink" x="0px" y="0px"
	 viewBox="0 0 395.8 415.7" style="enable-background:new 0 0 395.8 415.7;" xml:space="preserve">
<style type="text/css">
	.st0{fill:#A6120D;}
	.st1{fill:#DD1B16;}
	.st2{fill:#333333;}
	.st3{fill:#1A1A1A;}
	.st4{fill:#FFFFFF;}
</style>
<g id="Layer_1">
	<title>angular-de-logo</title>
	<desc>Created with Sketch.</desc>
	<g id="Angular.DE" transform="translate(-58.000000, -60.000000)">
		<g id="angular-de-logo" transform="translate(38.136525, 54.068262)">
			<polygon id="Shape" class="st0" points="408.7,80.2 215.6,14.4 215.6,413.6 377.9,328.5 			"/>
			<polygon id="Shape_1_" class="st1" points="26.9,82.1 55.8,329.6 215.6,413.6 215.6,14.4 			"/>
		</g>
	</g>
</g>
<g id="Layer_2">
	<path id="Shape_2_" class="st2" d="M249.1,228l-53.3,23.6h-56.2l-26.5,62.6L64,315.1L195.7,37.5L249.1,228L249.1,228z M243.9,216.1
		l-47.8-89.6l-39.2,88.1h38.9L243.9,216.1L243.9,216.1z"/>
	<polygon id="Shape_3_" class="st3" points="195.7,37.5 196.1,126.5 240.6,214.7 195.8,214.7 195.7,251.6 257.6,251.7 286.5,315.1
		333.5,315.9 	"/>
</g>
<g id="Layer_3">
	<path class="st4" d="M318.8,175.3c-3.2-6.5-7.6-11.7-13-15.6c-5.4-3.9-11.4-6-17.9-6.4c-6.5-0.4-12.9,1-19.3,4.1l-23.2,11.4
		l35.3,72.2l23.7-11.6c6.2-3.1,11.2-7.3,14.8-12.8c3.6-5.4,5.6-11.5,5.8-18.1c0.2-6.6-1.3-13.2-4.5-19.8L318.8,175.3z M306.4,205.1
		c-0.9,4.9-3.9,8.5-8.9,11l-6,3l-22.2-45.4l5.8-2.9c5.1-2.5,9.9-2.6,14.3-0.4c4.4,2.2,8.3,6.8,11.7,13.8l1.5,3.1
		C306.1,194.3,307.3,200.3,306.4,205.1z"/>
	<polygon class="st4" points="343.5,172.2 370.9,158.8 364.6,145.9 337.2,159.3 329.8,144.1 362.2,128.2 355.6,114.8 305.8,139.1
		341.1,211.3 373.8,195.3 376,177.7 352,189.4 	"/>
</g>
</svg>
