<?xml version="1.0" encoding="utf-8"?>
<svg version="1.1" id="Layer_1" xmlns="http://www.w3.org/2000/svg" xmlns:xlink="http://www.w3.org/1999/xlink" x="0px" y="0px"
	viewBox="0 0 250 250" style="enable-background:new 0 0 250 250;" xml:space="preserve">
	<style type="text/css">
		.shield__left {
			fill: #2d333b;
		}

		.shield__right{
			fill: #22272e;
		}

		.face {
			fill: rgb(245, 245, 245);
			opacity: 0.85;
		}
	</style>

	<g>
		<polygon class="shield__left" points="125,30 125,30 125,30 31.9,63.2 46.1,186.3 125,230 125,230 125,230 203.9,186.3 218.1,63.2 	"/>
		<polygon class="shield__right" points="125,30 125,52.2 125,52.1 125,153.4 125,153.4 125,230 125,230 203.9,186.3 218.1,63.2 125,30 	"/>
	</g>

	<g transform="translate(50,200) scale(0.125,-0.125)" stroke="none">
		<path class="face" d="M301 858 c-40 -14 -101 -69 -101 -91 0 -9 9 -21 20 -27 15 -8 24 -6
		38 8 55 55 123 67 202 36 46 -19 70 -13 70 16 0 45 -153 83 -229 58z"/>
		<path class="face" d="M755 856 c-62 -19 -85 -35 -85 -57 0 -28 24 -34 70 -15 79 31 147 19
		202 -36 14 -14 23 -16 38 -8 29 15 25 38 -14 74 -55 52 -131 67 -211 42z"/>
		<path class="face" d="M240 681 c-19 -37 11 -51 107 -51 67 0 91 -4 105 -17 30 -27 72 -7
		76 36 2 20 -2 37 -10 42 -7 5 -70 9 -140 9 -116 0 -128 -2 -138 -19z"/>
		<path class="face" d="M683 693 c-20 -7 -15 -41 6 -53 11 -5 56 -10 101 -10 59 0 86 -4 96
		-15 23 -22 51 -18 70 10 14 21 15 31 6 50 -11 25 -13 25 -139 24 -71 0 -134
		-3 -140 -6z"/>
		<path class="face" d="M540 410 c-86 -15 -146 -54 -176 -112 -23 -44 -5 -53 47 -24 100 56
		278 56 378 0 53 -29 70 -20 47 24 -43 84 -175 134 -296 112z"/>
	</g>
</svg>
