<?xml version="1.0" encoding="UTF-8" standalone="no"?>
<!DOCTYPE svg PUBLIC "-//W3C//DTD SVG 1.1//EN" "http://www.w3.org/Graphics/SVG/1.1/DTD/svg11.dtd">
<!-- Created with Vectornator (http://vectornator.io/) -->
<svg height="250.0pt" stroke-miterlimit="10" style="fill-rule:nonzero;clip-rule:evenodd;stroke-linecap:round;stroke-linejoin:round;" version="1.1" viewBox="0 0 250 250" width="250.0pt" xml:space="preserve" xmlns="http://www.w3.org/2000/svg" xmlns:xlink="http://www.w3.org/1999/xlink">
<defs/>
<g id="g7789">
<path d="M125 30L125 30L125 30L31.9 63.2L46.1 186.3L125 230L125 230L125 230L203.9 186.3L218.1 63.2L125 30Z" fill="#070292" fill-rule="nonzero" opacity="1" stroke="none"/>
<path d="M125 30L125 52.2L125 52.1L125 153.4L125 153.4L125 230L125 230L203.9 186.3L218.1 63.2L125 30Z" fill="#e10011" fill-rule="nonzero" opacity="1" stroke="none"/>
<path d="M125 52.1L66.8 182.6L66.8 182.6L88.5 182.6L88.5 182.6L100.2 153.4L149.6 153.4L161.3 182.6L161.3 182.6L183 182.6L183 182.6L125 52.1L125 52.1L125 52.1L125 52.1L125 52.1ZM142 135.4L108 135.4L125 94.5L142 135.4Z" fill="#ffffff" fill-rule="nonzero" opacity="1" stroke="none"/>
</g>
</svg>
