<svg xmlns="http://www.w3.org/2000/svg" width="802.68" height="933.333">
  <g fill-rule="evenodd">
    <path fill="#f5f012" d="M419.12 145.779l.801 728.02 307.563-173.622L757.1 272.683 419.12 145.779"/>
    <path fill="#eb1d27" d="M365.112 161.508v-90.51L0 205.17l57.548 478.018c46.131 7.808 100.295-42.184 117.333-81.602l190.231-440.079zm0 465.963V333.55L247.685 605.204c53.418-9.6 93.56 7.065 117.427 22.267zm0 229.337v-135.41c-59.805-64.93-101.403-53.57-150.839-38.898l-2.8.83c-40.869 12.135-87.356 25.58-153.925-.14l307.564 173.618"/>
    <path fill="#211d1d" d="M365.112 0l437.575 160.804-67.882 563.835-369.693 208.694v-76.525l307.563-173.619c-46.13 7.808-100.294-42.184-117.332-81.602L365.112 161.508v172.043l117.427 271.653c-53.418-9.6-93.562 7.065-117.427 22.267v93.926c59.804-64.929 101.401-53.569 150.839-38.897l2.8.83c40.868 12.135 87.356 25.58 153.924-.14l57.548-478.02L365.112 70.998V0"/>
  </g>
</svg>
