<?xml version="1.0" encoding="UTF-8"?>
<svg xmlns="http://www.w3.org/2000/svg" width="601.68pt" height="601.72pt" viewBox="0 0 601.68 601.72" version="1.1">
<defs>
<clipPath id="clip1">
  <path d="M 377 680 L 396 680 L 396 708.71875 L 377 708.71875 Z M 377 680 "/>
</clipPath>
<clipPath id="clip2">
  <path d="M 400 680 L 417 680 L 417 708.71875 L 400 708.71875 Z M 400 680 "/>
</clipPath>
<clipPath id="clip3">
  <path d="M 422 680 L 439 680 L 439 708.71875 L 422 708.71875 Z M 422 680 "/>
</clipPath>
<clipPath id="clip4">
  <path d="M 445 679 L 462 679 L 462 708.71875 L 445 708.71875 Z M 445 679 "/>
</clipPath>
<clipPath id="clip5">
  <path d="M 468 679 L 485 679 L 485 708.71875 L 468 708.71875 Z M 468 679 "/>
</clipPath>
<clipPath id="clip6">
  <path d="M 492 680 L 498 680 L 498 708.71875 L 492 708.71875 Z M 492 680 "/>
</clipPath>
<clipPath id="clip7">
  <path d="M 503 680 L 522 680 L 522 708.71875 L 503 708.71875 Z M 503 680 "/>
</clipPath>
<clipPath id="clip8">
  <path d="M 526 680 L 541 680 L 541 708.71875 L 526 708.71875 Z M 526 680 "/>
</clipPath>
<clipPath id="clip9">
  <path d="M 546 680 L 552 680 L 552 708.71875 L 546 708.71875 Z M 546 680 "/>
</clipPath>
<clipPath id="clip10">
  <path d="M 559 679 L 576 679 L 576 708.71875 L 559 708.71875 Z M 559 679 "/>
</clipPath>
<clipPath id="clip11">
  <path d="M 582 680 L 601 680 L 601 708.71875 L 582 708.71875 Z M 582 680 "/>
</clipPath>
<clipPath id="clip12">
  <path d="M 570 626 L 601.679688 626 L 601.679688 674 L 570 674 Z M 570 626 "/>
</clipPath>
</defs>
<g id="surface1">
<path style=" stroke:none;fill-rule:nonzero;fill:rgb(89.804077%,17.64679%,21.176147%);fill-opacity:1;" d="M 65.902344 458.5 L 24.0625 97.335938 L 297.285156 0 L 297.285156 586.996094 Z M 65.902344 458.5 "/>
<path style=" stroke:none;fill-rule:nonzero;fill:rgb(71.372986%,18.03894%,18.431091%);fill-opacity:1;" d="M 297.285156 64.890625 L 297.285156 586.996094 L 529.097656 458.5 L 570.507813 97.335938 L 297.285156 0 L 297.285156 65.316406 Z M 297.285156 64.890625 "/>
<path style=" stroke:none;fill-rule:nonzero;fill:rgb(100%,100%,100%);fill-opacity:1;" d="M 479.148438 549.855469 C 455.242188 549.003906 421.515625 543.027344 412.550781 520.402344 C 412.121094 519.121094 412.550781 517.410156 413.402344 516.558594 C 446.277344 486.675781 462.925781 457.644531 462.496094 431.175781 C 462.496094 416.660156 456.523438 403.429688 446.703125 393.183594 C 440.726563 394.035156 435.175781 394.464844 429.199219 394.464844 C 408.707031 394.464844 381.8125 389.339844 367.722656 363.726563 C 356.625 343.660156 322.898438 341.527344 306.675781 340.671875 C 303.6875 340.671875 301.128906 340.246094 298.566406 339.820313 L 296.429688 339.820313 C 293.867188 340.246094 290.882813 340.246094 288.320313 340.671875 C 272.097656 341.527344 237.945313 343.660156 227.273438 363.726563 C 213.183594 389.339844 186.289063 394.464844 165.796875 394.464844 C 159.820313 394.464844 154.269531 394.035156 148.292969 393.183594 C 138.476563 403.429688 132.496094 417.515625 132.496094 431.605469 C 132.496094 458.070313 149.148438 486.675781 182.019531 516.558594 C 183.300781 517.410156 183.726563 519.121094 182.871094 520.402344 C 179.03125 532.355469 154.695313 541.320313 144.023438 544.734375 C 105.601563 557.113281 50.105469 546.015625 24.917969 512.289063 C -6.246094 469.597656 13.390625 405.988281 14.246094 403.429688 C 14.671875 402.574219 15.097656 402.148438 15.953125 402.148438 C 16.804688 402.148438 17.660156 402.574219 17.660156 403.429688 C 21.929688 411.539063 28.761719 417.941406 36.871094 421.785156 C 28.761719 415.808594 22.355469 407.695313 18.515625 398.304688 C 9.550781 376.960938 13.816406 349.636719 30.894531 317.191406 C 31.320313 316.339844 32.8125 314.34375 33.238281 314.34375 C 33.238281 314.34375 34.738281 317.191406 34.738281 318.046875 C 34.738281 318.046875 33.882813 335.976563 41.566406 344.089844 C 42.421875 344.941406 43.703125 346.222656 44.980469 346.648438 C 39.433594 336.832031 26.222656 304.105469 44.578125 239.640625 C 45.003906 238.785156 46.765625 237.171875 47.621094 236.746094 L 48.515625 236.746094 C 49.371094 236.746094 50.617188 241.058594 50.617188 242.339844 C 50.617188 243.617188 56.507813 353.90625 98.773438 353.90625 C 102.613281 353.90625 106.457031 353.054688 110.300781 351.773438 C 107.738281 344.515625 102.1875 320.179688 129.082031 295.421875 C 129.511719 294.992188 129.9375 294.992188 130.363281 294.992188 C 130.789063 294.992188 131.21875 294.992188 131.644531 295.421875 C 132.496094 295.847656 132.925781 296.699219 132.496094 297.980469 C 132.496094 297.980469 127.375 315.484375 133.777344 324.023438 C 136.765625 327.4375 141.035156 329.574219 145.304688 329.144531 C 164.089844 329.144531 198.667969 309.507813 247.761719 271.085938 C 250.324219 268.949219 253.3125 268.097656 256.726563 268.097656 C 262.703125 268.523438 268.683594 270.660156 273.804688 273.648438 C 280.207031 277.488281 287.890625 280.050781 295.578125 280.476563 L 301.554688 280.476563 C 309.238281 280.050781 316.496094 277.488281 323.324219 273.648438 C 328.449219 270.660156 334.425781 268.523438 340.402344 268.097656 C 343.816406 268.097656 346.804688 269.378906 349.367188 271.085938 C 398.460938 309.507813 433.535156 329.527344 452.320313 329.527344 C 455.429688 329.835938 458.039063 328.578125 460.617188 326.628906 C 461.574219 325.898438 462.652344 325.070313 463.351563 324.023438 C 469.757813 315.484375 464.632813 297.980469 464.632813 297.980469 C 464.207031 297.128906 464.632813 296.273438 465.488281 295.421875 C 465.914063 295.421875 466.339844 294.992188 466.765625 294.992188 C 467.195313 294.992188 467.621094 294.992188 468.046875 295.421875 C 494.941406 320.179688 489.394531 344.515625 486.832031 351.773438 C 490.246094 353.054688 494.089844 353.90625 497.933594 353.90625 C 540.195313 353.90625 544.132813 246.195313 544.160156 245.34375 C 544.285156 241.707031 545.523438 240.941406 545.523438 240.941406 C 548.566406 237.765625 550.988281 242.628906 551.414063 243.910156 C 569.769531 308.371094 557.273438 336.402344 551.722656 346.648438 C 553.003906 345.796875 554.28125 344.941406 555.136719 344.089844 C 562.820313 335.976563 561.933594 318.519531 561.933594 318.519531 C 561.933594 317.667969 562.210938 316.347656 563.492188 315.921875 L 564.917969 315.695313 C 565.769531 315.695313 567.441406 318.71875 567.867188 319.570313 C 584.945313 352.015625 587.15625 376.960938 578.191406 398.304688 C 574.347656 407.695313 567.945313 415.808594 559.832031 421.785156 C 560.753906 421.296875 561.652344 420.785156 562.53125 420.246094 C 569.375 416.039063 574.882813 410.191406 579.042969 403 C 579.472656 402.148438 580.324219 401.71875 580.753906 401.71875 C 581.605469 401.71875 582.460938 402.148438 582.460938 403 C 583.3125 405.5625 602.949219 469.171875 571.785156 511.863281 C 553.003906 537.050781 521.410156 549.003906 490.675781 549.855469 Z M 479.148438 549.855469 "/>
<path style=" stroke:none;fill-rule:nonzero;fill:rgb(60.392761%,59.608459%,59.216309%);fill-opacity:1;" d="M 586.867188 421.871094 C 585.648438 415.277344 583.339844 406.554688 582.460938 403.429688 C 583.3125 402.148438 585.007813 397.695313 585.863281 396.414063 C 585.863281 395.558594 585.292969 399.507813 586.785156 400.546875 C 587.570313 401.09375 589.386719 402.695313 589.71875 403.429688 C 590.816406 405.898438 610.636719 471.304688 579.042969 515.277344 C 559.832031 541.320313 526.960938 553.699219 495.371094 554.125 L 485.125 554.125 C 463.777344 553.699219 430.480469 545.160156 417.246094 528.511719 C 430.90625 542.601563 461.21875 549.003906 480.855469 549.855469 L 491.101563 549.855469 C 501.070313 549.578125 516.8125 546.402344 516.8125 546.402344 C 514.679688 545.976563 494.089844 546.015625 474.023438 537.050781 C 453.960938 528.511719 448.835938 519.972656 448.835938 519.972656 C 446.277344 516.132813 448.835938 514.425781 448.835938 514.425781 C 482.042969 546.976563 521.765625 542.144531 538.960938 538.082031 C 551.734375 531.789063 563.550781 523.050781 572.214844 511.433594 C 588.957031 487.519531 590.070313 459.214844 588.699219 437.140625 C 589.574219 432.757813 587.351563 425.703125 587.183594 421.742188 C 587.988281 426.070313 588.855469 430.097656 589.375 435.453125 C 588.386719 440.425781 586.535156 446.21875 584.59375 450.816406 C 584.59375 451.242188 584.167969 451.667969 584.167969 452.09375 C 579.898438 462.769531 573.921875 472.585938 566.238281 481.550781 C 565.382813 482.832031 564.101563 483.6875 562.820313 484.96875 C 547.453125 500.761719 538.0625 502.46875 538.0625 502.46875 C 533.363281 503.75 532.9375 500.761719 532.9375 500.761719 C 577.011719 479.921875 585.21875 437.878906 586.867188 421.871094 Z M 78.605469 545.707031 C 78.605469 545.707031 125.988281 550.207031 145.730469 543.699219 C 152.136719 541.566406 168.308594 534.265625 177.273438 528.289063 C 173.320313 531.316406 171.714844 532.617188 166.847656 535.316406 C 157.738281 540.375 145.929688 546.46875 140.609375 548.148438 C 100.90625 560.957031 43.703125 549.855469 18.085938 514.851563 C -13.929688 471.304688 6.132813 405.5625 6.988281 403 C 6.988281 402.574219 10.449219 393.351563 11.222656 392.988281 C 12.171875 392.550781 14.074219 401.136719 14.09375 403.367188 C 9.523438 422.847656 11.394531 421.613281 11.480469 427.640625 C 14.542969 446.433594 26.949219 485.707031 66.363281 504.339844 C 66.363281 504.339844 63.339844 503.75 58.644531 502.46875 C 58.644531 502.46875 49.25 500.761719 33.882813 484.96875 C 18.515625 469.171875 13.191406 454.472656 12.335938 452.339844 C 11.183594 449.457031 10.242188 447.453125 8.820313 441.972656 C 9.128906 436.847656 10.230469 490.917969 26.199219 512.714844 C 34.601563 524.105469 46.375 532.773438 59.78125 538.785156 C 78.125 542.640625 116.164063 545.503906 147.867188 514.425781 C 147.867188 514.425781 150.429688 516.132813 147.867188 519.972656 C 147.867188 519.972656 142.742188 528.511719 122.679688 537.050781 C 102.613281 546.015625 80.742188 545.28125 78.605469 545.707031 Z M 446.890625 397.363281 C 446.890625 397.363281 484.269531 441.851563 406.574219 512.289063 C 406.574219 512.289063 400.167969 516.132813 417.246094 528.511719 C 417.246094 528.511719 409.5625 519.972656 415.109375 515.703125 C 420.660156 511.007813 454.386719 481.550781 461.644531 445.691406 C 461.644531 445.691406 468.394531 415.601563 449.609375 396.394531 Z M 144.496094 397.53125 C 140.707031 396.371094 137.535156 394.609375 134.207031 392.328125 C 126.09375 386.777344 119.691406 378.667969 118.410156 368.847656 C 128.65625 384.21875 147.011719 393.609375 165.371094 392.753906 C 183.726563 391.476563 198.242188 381.65625 211.476563 370.128906 C 233.246094 351.773438 247.761719 336.402344 285.757813 332.5625 C 315.640625 329.574219 346.804688 335.121094 368.578125 356.039063 C 389.496094 376.53125 402.730469 389.765625 427.066406 391.902344 C 437.3125 392.753906 447.558594 391.476563 455.667969 386.777344 C 463.777344 383.363281 471.890625 378.238281 475.730469 370.128906 C 471.890625 384.644531 458.230469 394.464844 443.714844 398.304688 C 423.222656 404.28125 399.742188 399.585938 383.09375 385.925781 C 373.699219 378.238281 366.441406 368.421875 357.050781 360.738281 C 343.390625 350.066406 325.886719 344.941406 308.382813 344.089844 C 285.332031 342.808594 260.570313 344.941406 240.933594 358.175781 C 227.273438 367.566406 217.453125 381.230469 203.363281 389.765625 C 190.984375 397.449219 176.46875 400.441406 161.953125 400.011719 C 156.996094 399.796875 152.035156 399.253906 147.296875 398.054688 C 147.390625 397.9375 110.746094 443.988281 185.585938 511.835938 C 185.585938 511.835938 193.722656 516.164063 177.660156 528.070313 C 177.164063 528.453125 177.371094 527.902344 177.636719 527.703125 C 180.019531 525.878906 185.152344 519.894531 181.746094 516.429688 C 176.652344 511.242188 142.828125 482.933594 134.273438 447.398438 C 134.273438 447.398438 125.746094 417.183594 144.496094 397.53125 Z M 563.675781 316.339844 C 562.394531 316.765625 561.96875 317.621094 561.96875 318.472656 C 561.96875 318.472656 562.820313 336.402344 555.136719 344.515625 C 554.28125 345.367188 552.53125 345.988281 551.253906 346.839844 C 556.800781 337.449219 567.113281 305.339844 551.316406 244.714844 C 550.539063 241.71875 548.128906 239.738281 548.128906 239.738281 C 552.265625 237.402344 553.398438 240.304688 553.972656 240.851563 C 555.15625 243.265625 555.597656 245.21875 556.023438 246.074219 C 564.433594 276.417969 565.839844 293.019531 566.035156 309.402344 L 568.679688 310.886719 C 569.847656 311.21875 572.214844 313.351563 572.640625 314.203125 C 590.144531 347.503906 594.414063 375.679688 585.445313 397.449219 C 584.59375 399.585938 583.3125 401.71875 582.460938 403.429688 C 582.460938 402.574219 581.605469 402.148438 580.753906 402.148438 C 580.324219 402.148438 579.472656 402.574219 579.042969 403.429688 C 574.347656 411.539063 568.007813 417.523438 559.898438 421.792969 C 567.863281 415.492188 574.347656 408.125 578.191406 397.878906 C 584.535156 382.183594 583.96875 358.703125 574.9375 335.703125 C 573.945313 331.121094 569.257813 323.351563 569.308594 323.527344 C 572.160156 326.964844 574.035156 331.523438 574.9375 335.703125 C 576.78125 344.226563 576.054688 352.765625 576.054688 353.054688 C 575.628906 354.761719 575.203125 369.273438 567.089844 385.496094 C 558.980469 401.71875 551.722656 405.5625 551.722656 405.5625 C 548.308594 407.269531 547.027344 405.136719 547.027344 405.136719 C 582.5625 372.460938 570.425781 327.367188 569.308594 323.527344 C 568.238281 321.53125 567.101563 319.550781 565.894531 317.589844 C 565.46875 317.164063 564.527344 316.339844 564.101563 316.339844 Z M 15.097656 405.136719 C 15.097656 404.714844 15.097656 404.710938 15.097656 405.136719 C 13.816406 403 12.539063 400.441406 11.683594 397.878906 C 2.71875 376.105469 6.988281 347.929688 24.492188 314.632813 C 24.492188 313.777344 30.5 305.363281 31.351563 305.363281 C 31.351563 305.363281 29.734375 313.808594 30.160156 318.929688 C 29.082031 321.183594 26.285156 328.121094 25.722656 331.554688 C 23.261719 346.492188 21.835938 379.535156 49.679688 405.136719 C 49.679688 405.136719 48.398438 407.269531 44.980469 405.5625 C 44.980469 405.5625 37.726563 401.71875 29.613281 385.496094 C 21.503906 369.273438 21.074219 354.761719 20.648438 353.054688 C 20.648438 352.878906 20.371094 349.566406 20.601563 345.0625 C 21.054688 343.664063 13.609375 383.757813 19.792969 398.730469 C 23.636719 408.125 28.832031 415.890625 36.941406 421.867188 C 28.832031 418.023438 19.367188 413.246094 15.097656 405.136719 Z M 130.40625 289.984375 C 131.25 290.875 132.25 293.3125 131.828125 294.152344 C 131.828125 294.152344 127.375 296.699219 126.949219 299.261719 C 103.46875 323.167969 108.589844 345.796875 111.152344 352.625 C 107.738281 353.90625 103.894531 354.761719 100.054688 354.761719 C 96.210938 354.761719 93.058594 353.484375 90.070313 352.203125 C 91.351563 352.628906 92.367188 353.054688 93.648438 353.054688 C 97.492188 353.054688 101.761719 352.199219 105.175781 350.492188 C 102.613281 343.234375 96.636719 318.046875 124.386719 292.433594 C 124.8125 292.003906 125.242188 292.003906 125.667969 292.003906 C 125.855469 292.003906 126.695313 291.609375 127.617188 291.164063 L 128.414063 290.78125 C 129.335938 290.335938 130.179688 289.941406 130.363281 289.941406 Z M 486.628906 352.121094 C 488.761719 345.289063 493.953125 327.25 473.714844 301.855469 C 468.855469 295.757813 465.523438 295.402344 465.523438 295.402344 C 468.191406 293.136719 469.328125 293.285156 470.183594 292.859375 C 470.609375 292.433594 473.734375 293.894531 474.160156 294.324219 C 501.910156 319.9375 494.515625 343.660156 491.953125 350.917969 C 495.371094 352.199219 498.144531 352.699219 501.988281 352.699219 C 504.121094 352.699219 507.304688 351.4375 509.441406 351.011719 C 506.027344 352.71875 502.199219 354.761719 498.359375 354.761719 C 494.515625 354.761719 490.042969 353.402344 486.628906 352.121094 Z M 44.832031 236.328125 C 44.832031 236.328125 48.5 236.003906 48.5 236.855469 C 48.5 236.855469 45.335938 235.707031 43.902344 243.976563 C 28.960938 301.609375 39.367188 337.261719 44.917969 346.652344 C 43.636719 346.226563 42.101563 344.8125 41.246094 343.960938 C 33.5625 335.847656 34.546875 317.921875 34.546875 317.921875 C 34.472656 315.914063 32.96875 315.882813 32.96875 315.882813 C 32.542969 315.882813 31.648438 316.242188 31.222656 317.09375 C 30.796875 317.523438 30.160156 318.503906 30.160156 318.929688 C 28.878906 302.28125 30.71875 276.96875 40.964844 240.253906 C 41.390625 238.972656 43.980469 236.328125 44.832031 236.328125 Z M 301.128906 276.636719 C 308.8125 276.210938 316.496094 273.648438 323.324219 269.804688 C 328.875 266.390625 334.851563 264.253906 340.828125 263.828125 C 344.242188 263.828125 347.660156 265.109375 350.222656 267.242188 C 400.597656 306.945313 436.03125 327.011719 455.667969 327.011719 C 458.230469 327.011719 460.285156 326.144531 462.421875 325.289063 C 459.433594 327.851563 456.09375 330 452.253906 329.574219 C 433.46875 329.574219 398.886719 309.933594 349.792969 271.511719 C 347.234375 269.804688 344.242188 268.523438 340.828125 268.523438 C 334.851563 268.949219 328.875 271.085938 323.753906 274.074219 C 316.921875 277.914063 309.664063 280.476563 301.980469 280.90625 L 296.003906 280.90625 C 288.320313 280.476563 280.636719 277.914063 274.230469 274.074219 C 269.109375 271.085938 263.132813 268.949219 257.15625 268.523438 C 253.738281 268.523438 250.753906 269.378906 248.191406 271.511719 C 199.097656 309.933594 164.515625 329.574219 145.730469 329.574219 C 141.890625 330 138.425781 328.199219 135.863281 326.0625 C 137.570313 326.492188 138.902344 327.011719 140.609375 327.011719 C 160.246094 327.011719 195.679688 306.945313 246.054688 267.242188 C 248.617188 265.109375 252.03125 263.828125 255.449219 263.828125 C 261.425781 264.683594 267.402344 266.816406 272.949219 269.804688 C 279.78125 273.648438 287.464844 276.210938 295.148438 276.636719 Z M 301.128906 276.636719 "/>
<path style=" stroke:none;fill-rule:nonzero;fill:rgb(95.68634%,94.902039%,94.509888%);fill-opacity:1;" d="M 20.269531 361.554688 C 19.65625 371.863281 18.980469 376.300781 21.347656 386.414063 C 23.097656 393.574219 29.550781 407.03125 34.566406 411.839844 C 37.773438 415.054688 55.4375 436.304688 51.828125 420.28125 C 50.644531 415.226563 50.320313 416.816406 44.703125 412.109375 C 32.34375 401.761719 18.875 379.609375 20.269531 361.554688 Z M 20.269531 361.554688 "/>
<path style=" stroke:none;fill-rule:nonzero;fill:rgb(95.68634%,94.902039%,94.509888%);fill-opacity:1;" d="M 576.824219 361.554688 C 577.4375 371.863281 578.113281 376.300781 575.742188 386.414063 C 573.992188 393.574219 567.542969 407.03125 562.527344 411.839844 C 559.320313 415.054688 541.65625 436.304688 545.261719 420.28125 C 546.449219 415.226563 546.773438 416.816406 552.390625 412.109375 C 564.746094 401.761719 578.21875 379.609375 576.824219 361.554688 Z M 576.824219 361.554688 "/>
<path style=" stroke:none;fill-rule:nonzero;fill:rgb(95.68634%,94.902039%,94.509888%);fill-opacity:1;" d="M 118.835938 325.730469 C 118.835938 325.730469 123.960938 350.917969 158.539063 338.109375 C 193.117188 325.304688 225.992188 297.128906 225.992188 297.128906 C 225.992188 297.128906 186.289063 345.367188 140.609375 348.785156 C 141.035156 348.785156 113.285156 349.636719 118.835938 325.730469 Z M 118.835938 325.730469 "/>
<path style=" stroke:none;fill-rule:nonzero;fill:rgb(95.68634%,94.902039%,94.509888%);fill-opacity:1;" d="M 47.96875 274.929688 C 47.96875 274.929688 40.285156 312.925781 47.96875 333.414063 C 55.65625 353.90625 51.8125 323.167969 51.8125 323.167969 C 51.8125 323.167969 47.96875 287.734375 47.96875 274.929688 Z M 47.96875 274.929688 "/>
<path style=" stroke:none;fill-rule:nonzero;fill:rgb(95.68634%,94.902039%,94.509888%);fill-opacity:1;" d="M 20.648438 437.152344 C 21.074219 440.140625 22.78125 444.410156 23.210938 445.691406 C 27.050781 454.230469 33.027344 461.914063 38.578125 469.171875 C 52.238281 487.101563 71.449219 501.191406 94.503906 502.898438 C 76.574219 501.191406 60.777344 487.527344 50.53125 473.441406 C 44.554688 465.328125 39.859375 455.511719 34.308594 446.546875 C 32.175781 443.128906 28.332031 435.445313 24.492188 434.164063 C 21.074219 433.3125 20.222656 434.59375 20.648438 437.152344 Z M 20.648438 437.152344 "/>
<path style=" stroke:none;fill-rule:nonzero;fill:rgb(95.68634%,94.902039%,94.509888%);fill-opacity:1;" d="M 456.09375 348.785156 C 410.414063 345.367188 370.710938 297.128906 370.710938 297.128906 C 370.710938 297.128906 403.585938 325.304688 438.164063 338.109375 C 472.742188 350.917969 477.867188 325.730469 477.867188 325.730469 C 483.417969 349.636719 455.667969 348.785156 456.09375 348.785156 Z M 456.09375 348.785156 "/>
<path style=" stroke:none;fill-rule:nonzero;fill:rgb(95.68634%,94.902039%,94.509888%);fill-opacity:1;" d="M 544.890625 323.167969 C 544.890625 323.167969 541.050781 353.90625 548.734375 333.414063 C 556.417969 312.925781 548.734375 274.929688 548.734375 274.929688 C 548.734375 287.734375 544.890625 323.167969 544.890625 323.167969 Z M 544.890625 323.167969 "/>
<path style=" stroke:none;fill-rule:nonzero;fill:rgb(95.68634%,94.902039%,94.509888%);fill-opacity:1;" d="M 572.214844 434.164063 C 568.371094 435.445313 564.527344 443.128906 562.394531 446.546875 C 556.84375 455.511719 552.148438 465.328125 546.171875 473.441406 C 535.925781 487.527344 520.132813 501.191406 502.199219 502.898438 C 525.253906 501.191406 544.464844 487.101563 558.125 469.171875 C 563.675781 461.914063 569.652344 454.230469 573.492188 445.691406 C 573.921875 444.410156 575.628906 440.140625 576.054688 437.152344 C 576.480469 434.59375 575.628906 433.3125 572.214844 434.164063 Z M 572.214844 434.164063 "/>
</g>
</svg>
