<?xml version="1.0" encoding="utf-8"?>
<!-- Generator: Adobe Illustrator 21.0.2, SVG Export Plug-In . SVG Version: 6.00 Build 0)  -->
<svg version="1.1" xmlns="http://www.w3.org/2000/svg" xmlns:xlink="http://www.w3.org/1999/xlink" x="0px" y="0px"
	 viewBox="0 0 400 400" style="enable-background:new 0 0 400 400;" xml:space="preserve">
<style type="text/css">
	.st0{opacity:0.4;}
	.st1{fill:#DD1E34;}
	.st2{fill:#C32033;}
	.st3{fill:#FFFFFF;}
</style>
<g id="Layer_1">
</g>
<g id="Layer_2">
	<g class="st0">
		<path d="M94.4,189.8c0.5,0.1,1,0.2,1.4,0.2c1,0,2-0.3,2.9-0.8c1.3-0.7,2.3-1.9,2.7-3.4c0.4-1.5,0.2-3.1-0.7-4.4
			c-10.6-18.5-12.7-35.1-6-46.8c4.5-7.8,13-13.3,24.6-16.2c11.9-2.9,26.9-2.8,43.4,0.2c3.1,0.6,6-1.4,6.6-4.6c0.3-1.5,0-3-0.8-4.2
			c-0.8-1.3-2.1-2.1-3.6-2.4c-18.5-3.4-35.6-3.4-49.3,0.2c-14.1,3.6-24.7,11-30.7,21.2c-9,15.4-6.8,36,6,58.2
			C91.7,188.5,92.9,189.4,94.4,189.8z"/>
		<path d="M268.9,116.6c20.8,0.2,35.9,6.7,42.6,18.2c4.5,7.7,5.1,17.9,1.7,29.3c-3.5,11.7-11,24.6-21.8,37.4c-1,1.1-1.4,2.6-1.3,4.1
			c0.1,1.5,0.8,2.9,1.9,3.9c1,0.9,2.3,1.4,3.7,1.4c0.1,0,0.3,0,0.4,0c1.5-0.1,2.9-0.8,3.9-1.9l0,0c12.2-14.4,20.6-29.1,24.4-42.7
			c3.9-14,2.8-26.8-3.1-37c-8.7-15-27.2-23.5-52.3-23.9c-3.1,0-5.7,2.5-5.7,5.7C263.3,114,265.8,116.6,268.9,116.6z"/>
		<path d="M315.4,243.7c-11.1,0-20.1,9-20.1,20.1c0,2.9,0.6,5.7,1.8,8.2c-11.9,5.7-29.1,7.2-49.2,4.2c-23.6-3.6-50.1-13.4-74.6-27.5
			c-21.2-12.2-40-27-54.4-42.9c-1-1.1-2.5-1.8-4-1.9c-1.5-0.1-2.9,0.5-4,1.6c-1.1,1-1.8,2.4-1.8,4c-0.1,1.5,0.5,3,1.6,4
			c15.2,16.8,34.9,32.3,57,44.9c26.6,15.3,54.1,25.4,79.7,29.1c7.1,1,13.9,1.5,20.2,1.5c14.8,0,27.4-2.8,37.2-8.2
			c3.1,1.9,6.7,3.1,10.6,3.1c5.4,0,10.5-2.1,14.3-5.9c3.7-3.8,5.8-8.8,5.8-14.2C335.5,252.7,326.5,243.7,315.4,243.7z M310.2,270.6
			c-0.5-0.7-1.1-1.3-1.9-1.7c-1-1.4-1.6-3.1-1.6-5c0-4.8,3.9-8.7,8.7-8.7s8.7,3.9,8.7,8.7s-3.9,8.7-8.7,8.7c-1.9,0-3.6-0.6-5-1.6
			C310.3,270.8,310.3,270.7,310.2,270.6z"/>
		<path d="M247.9,292.7c-1.3-0.8-2.8-1-4.3-0.7c-1.5,0.4-2.7,1.4-3.4,2.7c-10.7,17.9-23.4,27.3-36.9,27.3c-18.5,0-36.3-19-47.8-50.9
			l0-0.1c-1.2-2.9-4.4-4.4-7.3-3.3c-1.5,0.5-2.6,1.6-3.3,3c-0.6,1.4-0.7,2.9-0.1,4.3c6.4,17.7,15,32.4,24.8,42.4
			c10.2,10.4,21.8,15.9,33.7,15.9c17.5,0,33.6-11.4,46.6-32.9c0.8-1.3,1.1-2.9,0.7-4.4C250.2,294.7,249.2,293.4,247.9,292.7z"/>
		<path d="M91.1,243.7c0.1-13.3,7-29.3,19.8-45.7c15-19.2,37.2-37.8,62.5-52.5c21.5-12.3,43.9-21.2,64.9-25.8
			c1.5-0.3,2.8-1.2,3.6-2.5c0.8-1.3,1.1-2.9,0.7-4.4l0,0c-0.9-2.9-3.7-4.7-6.7-4.2l-0.1,0c-22.4,4.9-45.9,14.2-68.1,27
			c-27.1,15.6-50.7,35.7-66.6,56.4c-7.9,10.3-13.7,20.5-17.3,30.4c-3.2,8.7-4.5,16.8-4.1,24.4c-5.6,3.6-9.3,9.8-9.3,16.9
			c0,11.1,9,20.1,20.1,20.1c11.1,0,20.1-9,20.1-20.1C110.7,252.9,102,244,91.1,243.7z M90.6,255.1c4.8,0,8.7,3.9,8.7,8.7
			s-3.9,8.7-8.7,8.7c-4.8,0-8.7-3.9-8.7-8.7S85.8,255.1,90.6,255.1z"/>
		<path d="M203.3,86.6c7,0,13.2-3.6,16.8-9.1c11.2,7.1,21.4,21.2,29,40.4c8.9,22.4,13.8,50.6,13.8,79.4c0,23.8-3.3,47.2-9.6,67.6
			l0,0.1c-0.8,3,0.9,6.2,3.7,7c0.5,0.2,1,0.2,1.6,0.2c2.3,0,4.6-1.5,5.5-3.8l0-0.1c6.6-20.9,10.1-45.4,10.1-71
			c0-61.5-20.7-114.3-50.9-130.9c-0.1-11-9.1-20-20.1-20c-11.1,0-20.1,9-20.1,20.1C183.2,77.6,192.2,86.6,203.3,86.6z M203.3,75.2
			c-4.8,0-8.7-3.9-8.7-8.7c0-4.8,3.9-8.7,8.7-8.7c4.8,0,8.7,3.9,8.7,8.7C212,71.2,208,75.2,203.3,75.2z"/>
		<path d="M211.3,184.8c-3.4-2.2-7.4-2.9-11.3-2.1c-3.9,0.8-7.2,3.2-9.4,6.5c-2.2,3.4-2.9,7.4-2.1,11.3c1.5,7,7.7,11.8,14.6,11.8
			c1,0,2.1-0.1,3.2-0.3c3.9-0.8,7.3-3.1,9.4-6.5c2.2-3.4,2.9-7.4,2.1-11.3C217,190.3,214.7,186.9,211.3,184.8z"/>
	</g>
</g>
<g id="Layer_3">
	<g>
		<g>
			<polygon class="st1" points="200,16 200,16 200,16 28.7,77.1 54.8,303.6 200,384 200,384 200,384 345.2,303.6 371.3,77.1 			"/>
			<polygon class="st2" points="200,16 200,56.8 200,56.6 200,243.1 200,243.1 200,384 200,384 345.2,303.6 371.3,77.1 			"/>
		</g>
		<g>
			<path class="st3" d="M91.4,186.8c0.5,0.1,1,0.2,1.4,0.2c1,0,2-0.3,2.9-0.8c1.3-0.7,2.3-1.9,2.7-3.4c0.4-1.5,0.2-3.1-0.7-4.4
				c-10.6-18.5-12.7-35.1-6-46.8c4.5-7.8,13-13.3,24.6-16.2c11.9-2.9,26.9-2.8,43.4,0.2c3.1,0.6,6-1.4,6.6-4.6c0.3-1.5,0-3-0.8-4.2
				c-0.8-1.3-2.1-2.1-3.6-2.4c-18.5-3.4-35.6-3.4-49.3,0.2c-14.1,3.6-24.7,11-30.7,21.2c-9,15.4-6.8,36,6,58.2
				C88.7,185.4,89.9,186.4,91.4,186.8z"/>
			<path class="st3" d="M265.9,113.5c20.8,0.2,35.9,6.7,42.6,18.2c4.5,7.7,5.1,17.9,1.7,29.3c-3.5,11.7-11,24.6-21.8,37.4
				c-1,1.1-1.4,2.6-1.3,4.1c0.1,1.5,0.8,2.9,1.9,3.9c1,0.9,2.3,1.4,3.7,1.4c0.1,0,0.3,0,0.4,0c1.5-0.1,2.9-0.8,3.9-1.9l0,0
				c12.2-14.4,20.6-29.1,24.4-42.7c3.9-14,2.8-26.8-3.1-37c-8.7-15-27.2-23.5-52.3-23.9c-3.1,0-5.7,2.5-5.7,5.7
				C260.3,111,262.8,113.5,265.9,113.5z"/>
			<path class="st3" d="M312.4,240.7c-11.1,0-20.1,9-20.1,20.1c0,2.9,0.6,5.7,1.8,8.2c-11.9,5.7-29.1,7.2-49.2,4.2
				c-23.6-3.6-50.1-13.4-74.6-27.5c-21.2-12.2-40-27-54.4-42.9c-1-1.1-2.5-1.8-4-1.9c-1.5-0.1-2.9,0.5-4,1.6c-1.1,1-1.8,2.4-1.8,4
				c-0.1,1.5,0.5,3,1.6,4c15.2,16.8,34.9,32.3,57,44.9c26.6,15.3,54.1,25.4,79.7,29.1c7.1,1,13.9,1.5,20.2,1.5
				c14.8,0,27.4-2.8,37.2-8.2c3.1,1.9,6.7,3.1,10.6,3.1c5.4,0,10.5-2.1,14.3-5.9c3.7-3.8,5.8-8.8,5.8-14.2
				C332.5,249.7,323.5,240.7,312.4,240.7z M307.2,267.5c-0.5-0.7-1.1-1.3-1.9-1.7c-1-1.4-1.6-3.1-1.6-5c0-4.8,3.9-8.7,8.7-8.7
				s8.7,3.9,8.7,8.7c0,4.8-3.9,8.7-8.7,8.7c-1.9,0-3.6-0.6-5-1.6C307.3,267.8,307.2,267.6,307.2,267.5z"/>
			<path class="st3" d="M244.9,289.7c-1.3-0.8-2.8-1-4.3-0.7c-1.5,0.4-2.7,1.4-3.4,2.7c-10.7,17.9-23.4,27.3-36.9,27.3
				c-18.5,0-36.3-19-47.8-50.9l0-0.1c-1.2-2.9-4.4-4.4-7.3-3.3c-1.5,0.5-2.6,1.6-3.3,3c-0.6,1.4-0.7,2.9-0.1,4.3
				c6.4,17.7,15,32.4,24.8,42.4c10.2,10.4,21.8,15.9,33.7,15.9c17.5,0,33.6-11.4,46.6-32.9c0.8-1.3,1.1-2.9,0.7-4.4
				C247.1,291.6,246.2,290.4,244.9,289.7z"/>
			<path class="st3" d="M88.1,240.7c0.1-13.3,7-29.3,19.8-45.7c15-19.2,37.2-37.8,62.5-52.5c21.5-12.3,43.9-21.2,64.9-25.8
				c1.5-0.3,2.8-1.2,3.6-2.5c0.8-1.3,1.1-2.9,0.7-4.4l0,0c-0.9-2.9-3.7-4.7-6.7-4.2l-0.1,0c-22.4,4.9-45.9,14.2-68.1,27
				c-27.1,15.6-50.7,35.7-66.6,56.4c-7.9,10.3-13.7,20.5-17.3,30.4c-3.2,8.7-4.5,16.8-4.1,24.4c-5.6,3.6-9.3,9.8-9.3,16.9
				c0,11.1,9,20.1,20.1,20.1c11.1,0,20.1-9,20.1-20.1C107.7,249.9,98.9,241,88.1,240.7z M87.6,252c4.8,0,8.7,3.9,8.7,8.7
				c0,4.8-3.9,8.7-8.7,8.7c-4.8,0-8.7-3.9-8.7-8.7C78.8,255.9,82.8,252,87.6,252z"/>
			<path class="st3" d="M200.3,83.5c7,0,13.2-3.6,16.8-9.1c11.2,7.1,21.4,21.2,29,40.4c8.9,22.4,13.8,50.6,13.8,79.4
				c0,23.8-3.3,47.2-9.6,67.6l0,0.1c-0.8,3,0.9,6.2,3.7,7c0.5,0.2,1,0.2,1.6,0.2c2.3,0,4.6-1.5,5.5-3.8l0-0.1
				c6.6-20.9,10.1-45.4,10.1-71c0-61.5-20.7-114.3-50.9-130.9c-0.1-11-9.1-20-20.1-20c-11.1,0-20.1,9-20.1,20.1
				C180.2,74.5,189.2,83.5,200.3,83.5z M200.3,72.2c-4.8,0-8.7-3.9-8.7-8.7s3.9-8.7,8.7-8.7s8.7,3.9,8.7,8.7
				C209,68.2,205,72.2,200.3,72.2z"/>
			<path class="st3" d="M208.3,181.7c-3.4-2.2-7.4-2.9-11.3-2.1c-3.9,0.8-7.2,3.2-9.4,6.5c-2.2,3.4-2.9,7.4-2.1,11.3
				c1.5,7,7.7,11.8,14.6,11.8c1,0,2.1-0.1,3.2-0.3c3.9-0.8,7.3-3.1,9.4-6.5c2.2-3.4,2.9-7.4,2.1-11.3
				C214,187.2,211.7,183.9,208.3,181.7z"/>
		</g>
	</g>
</g>
</svg>
