<svg id="svg" version="1.1" width="400" height="420.87542087542084" xmlns="http://www.w3.org/2000/svg" xmlns:xlink="http://www.w3.org/1999/xlink" style="display: block;"><g id="svgg"><path id="path0" d="M127.273 54.005 C 84.032 68.109,48.449 79.726,48.200 79.819 C 47.662 80.020,79.250 293.834,79.915 294.491 C 81.063 295.625,206.843 383.190,207.197 383.102 C 207.428 383.044,236.175 363.041,271.077 338.650 L 334.536 294.304 350.444 187.174 C 359.193 128.253,366.309 80.008,366.257 79.963 C 365.822 79.590,207.340 28.292,206.713 28.321 C 206.262 28.342,170.513 39.900,127.273 54.005 M289.562 73.899 C 323.359 85.332,351.115 94.784,351.243 94.902 C 351.489 95.130,332.033 210.782,331.684 211.166 C 331.518 211.348,227.733 54.159,227.311 53.086 C 227.239 52.904,227.391 52.835,227.648 52.932 C 227.904 53.030,255.766 62.465,289.562 73.899 M182.897 60.729 C 154.504 103.913,83.659 211.381,83.614 211.336 C 83.435 211.157,63.967 95.471,64.066 95.175 C 64.183 94.824,186.158 53.303,187.274 53.234 C 187.670 53.210,186.315 55.530,182.897 60.729 M33.233 67.945 L 30.622 70.571 30.724 76.110 L 30.826 81.650 30.901 76.102 L 30.976 70.554 33.578 67.937 C 35.009 66.497,36.104 65.320,36.011 65.320 C 35.919 65.320,34.668 66.501,33.233 67.945 M380.640 68.013 C 382.113 69.495,383.393 70.707,383.486 70.707 C 383.578 70.707,382.449 69.495,380.976 68.013 C 379.504 66.532,378.223 65.320,378.130 65.320 C 378.038 65.320,379.167 66.532,380.640 68.013 M208.516 73.148 C 209.520 74.676,235.457 114.714,266.155 162.121 C 296.852 209.529,322.075 248.468,322.205 248.653 C 322.517 249.096,318.069 285.777,317.657 286.156 C 317.157 286.617,211.417 360.269,211.256 360.269 C 211.176 360.269,211.111 351.254,211.111 340.236 C 211.111 329.217,211.225 320.201,211.364 320.199 C 211.503 320.198,221.364 321.194,233.279 322.414 C 245.194 323.634,255.020 324.554,255.115 324.458 C 255.211 324.363,253.893 320.954,252.186 316.884 C 250.480 312.813,249.138 309.339,249.205 309.164 C 249.272 308.988,259.099 300.793,271.044 290.952 C 282.988 281.111,292.796 272.946,292.840 272.809 C 292.883 272.671,290.040 270.913,286.523 268.901 C 283.005 266.889,280.045 265.110,279.945 264.948 C 279.812 264.733,287.619 243.158,290.074 236.955 C 290.288 236.414,290.218 236.405,289.176 236.840 C 285.026 238.574,262.119 241.031,260.430 239.925 C 258.946 238.953,257.260 233.932,257.245 230.443 C 257.236 228.297,256.945 228.430,254.808 231.563 C 250.335 238.117,235.249 253.199,233.165 253.199 C 231.756 253.199,234.774 226.409,238.343 207.239 C 238.860 204.461,239.257 202.150,239.224 202.103 C 239.192 202.055,237.891 202.873,236.334 203.921 C 231.033 207.484,225.144 209.706,223.924 208.603 C 221.375 206.296,213.002 191.198,207.903 179.716 C 206.513 176.584,206.377 176.516,205.723 178.620 C 204.438 182.750,192.641 204.690,188.380 210.872 C 188.004 211.418,187.384 211.003,181.670 206.378 C 178.207 203.575,175.330 201.334,175.276 201.398 C 175.221 201.463,176.737 213.179,178.643 227.436 C 180.550 241.692,182.057 253.409,181.993 253.473 C 181.929 253.537,181.371 253.051,180.753 252.393 C 166.339 237.051,156.689 227.022,156.517 227.207 C 156.397 227.336,155.573 230.282,154.685 233.754 L 153.071 240.067 151.872 240.060 C 151.213 240.056,145.143 239.313,138.384 238.408 C 131.625 237.503,126.060 236.796,126.019 236.836 C 125.917 236.933,129.760 250.691,132.316 259.380 C 133.452 263.243,134.335 266.443,134.278 266.491 C 134.222 266.539,131.784 267.986,128.862 269.707 C 125.940 271.427,123.591 272.942,123.643 273.072 C 123.695 273.202,132.601 281.229,143.434 290.908 C 154.268 300.587,163.794 309.113,164.605 309.855 L 166.078 311.203 164.359 317.617 C 163.413 321.145,162.691 324.083,162.755 324.146 C 162.818 324.209,172.169 323.434,183.534 322.423 C 194.900 321.412,204.221 320.613,204.248 320.646 C 204.355 320.779,202.967 360.782,202.851 360.897 C 202.783 360.966,182.227 346.730,157.172 329.262 C 132.116 311.794,107.927 294.933,103.419 291.792 C 98.911 288.652,95.164 285.919,95.093 285.718 C 95.022 285.518,93.981 277.177,92.779 267.182 L 90.595 249.011 94.203 243.417 C 123.384 198.175,206.287 70.384,206.460 70.378 C 206.587 70.374,207.513 71.620,208.516 73.148 M66.498 305.724 C 68.157 307.391,69.590 308.754,69.683 308.754 C 69.776 308.754,68.494 307.391,66.835 305.724 C 65.176 304.057,63.743 302.694,63.650 302.694 C 63.558 302.694,64.839 304.057,66.498 305.724 " stroke="none" fill="#ffffff" fill-rule="evenodd"></path><path id="path1" d="M207.744 24.943 L 207.744 27.923 215.909 30.584 C 220.400 32.048,256.120 43.667,295.286 56.405 C 334.453 69.142,366.558 79.613,366.631 79.673 C 366.704 79.733,359.586 128.121,350.814 187.201 L 334.864 294.619 271.893 338.595 C 237.259 362.782,208.652 382.828,208.320 383.143 C 207.808 383.629,207.733 384.199,207.815 386.959 L 207.912 390.203 273.906 344.099 C 318.758 312.765,339.980 297.751,340.152 297.230 C 340.670 295.665,373.079 75.976,372.824 75.759 C 372.620 75.585,255.353 37.356,214.731 24.221 L 207.744 21.962 207.744 24.943 M228.344 53.846 C 228.949 55.421,331.510 210.405,331.614 209.901 C 332.553 205.338,351.018 95.392,350.873 95.228 C 350.720 95.054,287.116 73.442,233.058 55.195 C 230.407 54.300,228.286 53.693,228.344 53.846 M207.744 125.741 L 207.744 178.552 211.724 186.667 C 217.227 197.885,222.124 206.357,224.161 208.182 C 225.377 209.271,233.126 206.039,237.422 202.651 C 238.944 201.451,239.883 201.361,239.617 202.441 C 239.117 204.470,236.631 219.154,235.726 225.421 C 233.445 241.229,232.617 253.161,233.869 252.200 C 241.966 245.980,251.312 236.370,255.161 230.307 C 257.091 227.268,257.370 227.360,257.678 231.145 C 258.212 237.693,259.953 240.154,263.854 239.877 C 276.241 238.996,284.662 237.898,288.219 236.699 C 290.572 235.906,290.574 235.906,290.566 236.448 C 290.563 236.679,288.216 243.145,285.350 250.816 C 282.484 258.487,280.176 264.788,280.221 264.819 C 280.266 264.850,283.218 266.528,286.781 268.548 C 290.763 270.807,293.260 272.421,293.263 272.739 C 293.265 273.110,254.004 305.897,249.925 308.930 C 249.548 309.211,250.026 310.622,252.509 316.554 C 254.185 320.557,255.556 324.077,255.556 324.374 C 255.556 325.105,256.797 325.195,232.849 322.733 C 221.193 321.535,211.608 320.603,211.549 320.662 C 211.491 320.720,211.481 329.499,211.529 340.169 L 211.616 359.570 264.478 322.726 C 300.647 297.517,317.420 285.640,317.593 285.113 C 317.972 283.960,321.954 250.118,321.804 249.331 C 321.696 248.769,208.937 74.253,208.032 73.249 C 207.872 73.072,207.744 96.442,207.744 125.741 " stroke="none" fill="#c11718" fill-rule="evenodd"></path><path id="path2" d="" stroke="none" fill="#cb2727" fill-rule="evenodd"></path><path id="path3" d="M123.949 48.824 C 78.511 63.620,41.286 75.773,41.229 75.831 C 41.117 75.943,74.011 297.705,74.156 297.819 C 76.535 299.686,206.731 390.340,207.071 390.366 C 207.484 390.397,207.593 389.774,207.672 386.953 C 207.762 383.689,207.731 383.502,207.091 383.502 C 206.275 383.502,79.125 294.728,79.125 294.158 C 79.125 293.939,72.003 245.815,63.300 187.216 C 54.596 128.617,47.475 80.427,47.475 80.125 C 47.475 79.557,205.297 27.924,206.987 27.939 C 207.717 27.946,207.744 27.836,207.744 24.916 C 207.744 22.247,207.674 21.888,207.155 21.904 C 206.831 21.914,169.388 34.028,123.949 48.824 M125.253 74.546 L 64.478 95.161 64.546 96.149 C 64.663 97.831,83.599 209.581,83.810 209.833 C 83.920 209.963,105.675 177.179,132.156 136.979 C 190.554 48.327,186.935 53.866,186.436 53.902 C 186.211 53.918,158.678 63.208,125.253 74.546 M205.801 71.961 C 197.394 83.969,91.105 249.207,91.169 250.168 C 91.602 256.647,95.412 285.429,95.899 285.899 C 96.699 286.670,202.429 360.309,202.556 360.183 C 202.652 360.087,204.002 321.095,203.912 321.002 C 203.890 320.979,194.580 321.788,183.223 322.800 C 171.866 323.811,162.485 324.550,162.377 324.442 C 162.268 324.333,162.952 321.362,163.896 317.839 L 165.613 311.434 164.035 309.977 C 163.168 309.175,153.670 300.670,142.929 291.076 C 132.189 281.483,123.356 273.381,123.301 273.073 C 123.229 272.665,124.660 271.654,128.545 269.373 L 133.888 266.234 131.240 257.107 C 127.872 245.500,125.488 236.689,125.667 236.511 C 125.743 236.434,130.871 237.044,137.061 237.866 C 143.252 238.688,149.310 239.462,150.525 239.585 L 152.734 239.811 154.410 233.289 C 155.696 228.285,156.209 226.768,156.617 226.768 C 156.908 226.768,162.577 232.511,169.213 239.530 C 175.849 246.550,181.328 252.143,181.389 251.960 C 181.486 251.670,175.383 205.024,174.866 202.104 C 174.536 200.241,175.454 200.741,181.797 205.885 C 186.227 209.476,187.894 210.650,188.133 210.346 C 190.851 206.879,202.630 185.220,205.067 179.209 C 206.235 176.327,206.712 175.902,207.333 177.189 C 207.598 177.737,207.705 163.408,207.721 125.306 C 207.744 73.946,207.728 72.645,207.100 71.846 L 206.455 71.027 205.801 71.961 " stroke="none" fill="#e51b1e" fill-rule="evenodd"></path><path id="path4" d="" stroke="none" fill="#d95253" fill-rule="evenodd"></path><path id="path5" d="M186.843 210.185 C 187.810 211.282,187.689 211.253,188.242 210.522 C 188.621 210.022,188.617 209.996,188.218 210.351 C 187.838 210.690,187.585 210.626,186.888 210.014 L 186.027 209.259 186.843 210.185 M161.279 231.481 C 162.845 233.056,164.202 234.343,164.295 234.343 C 164.387 234.343,163.182 233.056,161.616 231.481 C 160.050 229.907,158.693 228.620,158.601 228.620 C 158.508 228.620,159.714 229.907,161.279 231.481 M167.003 237.542 C 168.569 239.116,169.926 240.404,170.019 240.404 C 170.111 240.404,168.906 239.116,167.340 237.542 C 165.774 235.968,164.417 234.680,164.325 234.680 C 164.232 234.680,165.437 235.968,167.003 237.542 M245.113 242.340 L 240.909 246.633 245.202 242.429 C 249.190 238.524,249.648 238.047,249.406 238.047 C 249.357 238.047,247.425 239.979,245.113 242.340 M172.727 243.603 C 174.293 245.177,175.650 246.465,175.743 246.465 C 175.835 246.465,174.630 245.177,173.064 243.603 C 171.498 242.029,170.141 240.741,170.049 240.741 C 169.956 240.741,171.161 242.029,172.727 243.603 M239.376 247.727 L 238.215 248.990 239.478 247.830 C 240.653 246.750,240.896 246.465,240.638 246.465 C 240.582 246.465,240.014 247.033,239.376 247.727 M178.628 249.834 C 180.290 251.595,181.719 252.991,181.803 252.936 C 181.887 252.881,180.528 251.440,178.782 249.735 L 175.607 246.633 178.628 249.834 M125.575 275.505 C 126.970 276.992,127.273 277.259,127.273 277.006 C 127.273 276.952,126.553 276.232,125.673 275.407 L 124.074 273.906 125.575 275.505 M128.788 278.451 C 129.511 279.192,130.179 279.798,130.271 279.798 C 130.364 279.798,129.848 279.192,129.125 278.451 C 128.401 277.710,127.734 277.104,127.641 277.104 C 127.549 277.104,128.065 277.710,128.788 278.451 M131.818 281.145 C 132.541 281.886,133.209 282.492,133.302 282.492 C 133.394 282.492,132.878 281.886,132.155 281.145 C 131.432 280.404,130.764 279.798,130.671 279.798 C 130.579 279.798,131.095 280.404,131.818 281.145 M135.003 283.923 C 136.398 285.409,136.700 285.676,136.700 285.424 C 136.700 285.370,135.981 284.650,135.101 283.824 L 133.502 282.323 135.003 283.923 M138.215 286.869 C 138.939 287.609,139.606 288.215,139.699 288.215 C 139.792 288.215,139.276 287.609,138.552 286.869 C 137.829 286.128,137.161 285.522,137.069 285.522 C 136.976 285.522,137.492 286.128,138.215 286.869 M141.400 289.646 C 142.795 291.133,143.098 291.400,143.098 291.148 C 143.098 291.094,142.378 290.374,141.498 289.548 L 139.899 288.047 141.400 289.646 M144.613 292.593 C 145.336 293.333,146.004 293.939,146.096 293.939 C 146.189 293.939,145.673 293.333,144.949 292.593 C 144.226 291.852,143.559 291.246,143.466 291.246 C 143.373 291.246,143.889 291.852,144.613 292.593 M147.797 295.370 C 149.193 296.857,149.495 297.124,149.495 296.871 C 149.495 296.817,148.775 296.098,147.896 295.272 L 146.296 293.771 147.797 295.370 M151.010 298.316 C 151.733 299.057,152.401 299.663,152.494 299.663 C 152.586 299.663,152.070 299.057,151.347 298.316 C 150.623 297.576,149.956 296.970,149.863 296.970 C 149.771 296.970,150.287 297.576,151.010 298.316 M154.195 301.094 C 155.590 302.581,155.892 302.848,155.892 302.595 C 155.892 302.541,155.173 301.822,154.293 300.996 L 152.694 299.495 154.195 301.094 M157.407 304.040 C 158.131 304.781,158.798 305.387,158.891 305.387 C 158.983 305.387,158.467 304.781,157.744 304.040 C 157.021 303.300,156.353 302.694,156.261 302.694 C 156.168 302.694,156.684 303.300,157.407 304.040 M160.438 306.734 C 161.161 307.475,161.829 308.081,161.921 308.081 C 162.014 308.081,161.498 307.475,160.774 306.734 C 160.051 305.993,159.384 305.387,159.291 305.387 C 159.198 305.387,159.714 305.993,160.438 306.734 M163.622 309.512 C 165.018 310.998,165.320 311.266,165.320 311.013 C 165.320 310.959,164.600 310.239,163.721 309.414 L 162.121 307.912 163.622 309.512 " stroke="none" fill="#e83c3f" fill-rule="evenodd"></path><path id="path6" d="" stroke="none" fill="#ed6264" fill-rule="evenodd"></path><path id="path7" d="" stroke="none" fill="#e27b7c" fill-rule="evenodd"></path><path id="path8" d="M47.604 79.947 C 47.502 80.214,47.477 80.706,47.550 81.041 C 47.632 81.421,47.747 81.239,47.857 80.556 C 48.040 79.409,47.921 79.121,47.604 79.947 M365.870 79.688 C 366.080 79.841,366.335 80.269,366.437 80.640 C 366.583 81.171,366.610 81.141,366.560 80.498 C 366.526 80.049,366.271 79.621,365.993 79.546 C 365.660 79.456,365.618 79.504,365.870 79.688 M175.499 206.061 C 175.499 206.709,175.568 206.974,175.653 206.650 C 175.738 206.326,175.738 205.795,175.653 205.471 C 175.568 205.147,175.499 205.412,175.499 206.061 M176.172 211.111 C 176.172 211.759,176.242 212.024,176.326 211.700 C 176.411 211.376,176.411 210.846,176.326 210.522 C 176.242 210.198,176.172 210.463,176.172 211.111 M176.846 216.162 C 176.846 216.810,176.915 217.075,177.000 216.751 C 177.084 216.427,177.084 215.896,177.000 215.572 C 176.915 215.248,176.846 215.513,176.846 216.162 M177.519 221.212 C 177.519 221.860,177.588 222.125,177.673 221.801 C 177.758 221.477,177.758 220.947,177.673 220.623 C 177.588 220.299,177.519 220.564,177.519 221.212 M178.193 226.263 C 178.193 226.911,178.262 227.176,178.347 226.852 C 178.431 226.528,178.431 225.997,178.347 225.673 C 178.262 225.349,178.193 225.614,178.193 226.263 M257.331 230.303 C 257.331 231.136,257.396 231.477,257.477 231.061 C 257.557 230.644,257.557 229.962,257.477 229.545 C 257.396 229.129,257.331 229.470,257.331 230.303 M178.866 231.313 C 178.866 231.961,178.935 232.226,179.020 231.902 C 179.105 231.578,179.105 231.048,179.020 230.724 C 178.935 230.400,178.866 230.665,178.866 231.313 M234.422 232.997 C 234.422 233.645,234.491 233.910,234.576 233.586 C 234.660 233.262,234.660 232.731,234.576 232.407 C 234.491 232.083,234.422 232.348,234.422 232.997 M234.085 235.690 C 234.085 236.338,234.154 236.604,234.239 236.279 C 234.324 235.955,234.324 235.425,234.239 235.101 C 234.154 234.777,234.085 235.042,234.085 235.690 M179.539 236.364 C 179.539 237.012,179.609 237.277,179.693 236.953 C 179.778 236.629,179.778 236.098,179.693 235.774 C 179.609 235.450,179.539 235.715,179.539 236.364 M233.755 238.889 C 233.759 239.630,233.828 239.893,233.908 239.474 C 233.989 239.055,233.986 238.449,233.901 238.127 C 233.817 237.805,233.751 238.148,233.755 238.889 M276.515 238.953 C 276.839 239.037,277.370 239.037,277.694 238.953 C 278.018 238.868,277.753 238.799,277.104 238.799 C 276.456 238.799,276.191 238.868,276.515 238.953 M273.320 239.295 C 273.739 239.376,274.345 239.373,274.667 239.289 C 274.989 239.204,274.646 239.138,273.906 239.142 C 273.165 239.146,272.902 239.215,273.320 239.295 M148.232 239.626 C 148.556 239.711,149.087 239.711,149.411 239.626 C 149.735 239.541,149.470 239.472,148.822 239.472 C 148.173 239.472,147.908 239.541,148.232 239.626 M269.449 239.636 C 269.961 239.713,270.718 239.711,271.133 239.631 C 271.547 239.551,271.128 239.488,270.202 239.490 C 269.276 239.493,268.937 239.558,269.449 239.636 M264.226 239.974 C 264.827 240.049,265.812 240.049,266.414 239.974 C 267.016 239.900,266.524 239.838,265.320 239.838 C 264.116 239.838,263.624 239.900,264.226 239.974 M180.213 241.414 C 180.213 242.062,180.282 242.327,180.367 242.003 C 180.451 241.679,180.451 241.149,180.367 240.825 C 180.282 240.501,180.213 240.766,180.213 241.414 M233.430 242.593 C 233.432 243.519,233.498 243.857,233.575 243.346 C 233.652 242.834,233.650 242.076,233.570 241.662 C 233.490 241.248,233.427 241.667,233.430 242.593 M180.886 246.465 C 180.886 247.113,180.955 247.378,181.040 247.054 C 181.125 246.730,181.125 246.199,181.040 245.875 C 180.955 245.551,180.886 245.816,180.886 246.465 M233.124 249.158 C 233.124 251.288,233.179 252.159,233.245 251.094 C 233.312 250.029,233.312 248.287,233.245 247.222 C 233.179 246.157,233.124 247.029,233.124 249.158 M321.964 250.168 C 321.964 250.816,322.033 251.082,322.118 250.758 C 322.202 250.434,322.202 249.903,322.118 249.579 C 322.033 249.255,321.964 249.520,321.964 250.168 M90.987 251.178 C 90.987 251.827,91.056 252.092,91.141 251.768 C 91.226 251.444,91.226 250.913,91.141 250.589 C 91.056 250.265,90.987 250.530,90.987 251.178 M181.455 251.599 C 181.355 252.323,181.406 252.735,181.575 252.566 C 181.738 252.404,181.817 251.835,181.750 251.304 C 181.639 250.414,181.616 250.437,181.455 251.599 M321.290 255.892 C 321.290 256.540,321.360 256.806,321.444 256.481 C 321.529 256.157,321.529 255.627,321.444 255.303 C 321.360 254.979,321.290 255.244,321.290 255.892 M91.661 256.902 C 91.661 257.551,91.730 257.816,91.815 257.492 C 91.899 257.168,91.899 256.637,91.815 256.313 C 91.730 255.989,91.661 256.254,91.661 256.902 M320.954 258.586 C 320.954 259.234,321.023 259.499,321.108 259.175 C 321.192 258.851,321.192 258.321,321.108 257.997 C 321.023 257.673,320.954 257.938,320.954 258.586 M91.997 259.596 C 91.997 260.244,92.067 260.509,92.151 260.185 C 92.236 259.861,92.236 259.331,92.151 259.007 C 92.067 258.683,91.997 258.948,91.997 259.596 M320.280 264.310 C 320.280 264.958,320.349 265.223,320.434 264.899 C 320.519 264.575,320.519 264.045,320.434 263.721 C 320.349 263.396,320.280 263.662,320.280 264.310 M92.671 265.320 C 92.671 265.968,92.740 266.233,92.825 265.909 C 92.909 265.585,92.909 265.055,92.825 264.731 C 92.740 264.407,92.671 264.672,92.671 265.320 M319.943 267.003 C 319.943 267.652,320.013 267.917,320.097 267.593 C 320.182 267.269,320.182 266.738,320.097 266.414 C 320.013 266.090,319.943 266.355,319.943 267.003 M93.007 268.013 C 93.007 268.662,93.077 268.927,93.161 268.603 C 93.246 268.279,93.246 267.748,93.161 267.424 C 93.077 267.100,93.007 267.365,93.007 268.013 M319.607 269.697 C 319.607 270.345,319.676 270.610,319.761 270.286 C 319.845 269.962,319.845 269.432,319.761 269.108 C 319.676 268.784,319.607 269.049,319.607 269.697 M93.344 270.707 C 93.344 271.355,93.413 271.620,93.498 271.296 C 93.583 270.972,93.583 270.442,93.498 270.118 C 93.413 269.794,93.344 270.059,93.344 270.707 M318.933 275.421 C 318.933 276.069,319.003 276.334,319.087 276.010 C 319.172 275.686,319.172 275.156,319.087 274.832 C 319.003 274.508,318.933 274.773,318.933 275.421 M94.018 276.431 C 94.018 277.079,94.087 277.344,94.171 277.020 C 94.256 276.696,94.256 276.166,94.171 275.842 C 94.087 275.518,94.018 275.783,94.018 276.431 M318.597 278.114 C 318.597 278.763,318.666 279.028,318.751 278.704 C 318.835 278.380,318.835 277.849,318.751 277.525 C 318.666 277.201,318.597 277.466,318.597 278.114 M94.354 279.125 C 94.354 279.773,94.424 280.038,94.508 279.714 C 94.593 279.390,94.593 278.859,94.508 278.535 C 94.424 278.211,94.354 278.476,94.354 279.125 M317.923 283.838 C 317.923 284.487,317.993 284.752,318.077 284.428 C 318.162 284.104,318.162 283.573,318.077 283.249 C 317.993 282.925,317.923 283.190,317.923 283.838 M214.061 320.777 C 214.480 320.857,215.086 320.854,215.408 320.770 C 215.730 320.686,215.387 320.620,214.646 320.624 C 213.906 320.627,213.642 320.696,214.061 320.777 M200.589 321.113 C 201.006 321.193,201.688 321.193,202.104 321.113 C 202.521 321.033,202.180 320.967,201.347 320.967 C 200.513 320.967,200.173 321.033,200.589 321.113 M217.256 321.108 C 217.580 321.192,218.110 321.192,218.434 321.108 C 218.758 321.023,218.493 320.954,217.845 320.954 C 217.197 320.954,216.932 321.023,217.256 321.108 M196.886 321.450 C 197.302 321.530,197.984 321.530,198.401 321.450 C 198.817 321.369,198.476 321.304,197.643 321.304 C 196.810 321.304,196.469 321.369,196.886 321.450 M220.458 321.450 C 220.877 321.531,221.483 321.528,221.805 321.443 C 222.127 321.359,221.785 321.293,221.044 321.297 C 220.303 321.301,220.040 321.370,220.458 321.450 M193.182 321.786 C 193.598 321.867,194.280 321.867,194.697 321.786 C 195.114 321.706,194.773 321.641,193.939 321.641 C 193.106 321.641,192.765 321.706,193.182 321.786 M223.825 321.787 C 224.244 321.867,224.850 321.864,225.172 321.780 C 225.494 321.696,225.152 321.630,224.411 321.634 C 223.670 321.637,223.407 321.706,223.825 321.787 M189.482 322.124 C 189.901 322.204,190.507 322.201,190.829 322.117 C 191.151 322.033,190.808 321.967,190.067 321.970 C 189.327 321.974,189.063 322.043,189.482 322.124 M227.192 322.124 C 227.611 322.204,228.217 322.201,228.539 322.117 C 228.861 322.033,228.519 321.967,227.778 321.970 C 227.037 321.974,226.774 322.043,227.192 322.124 M185.438 322.460 C 185.854 322.540,186.536 322.540,186.953 322.460 C 187.370 322.380,187.029 322.314,186.195 322.314 C 185.362 322.314,185.021 322.380,185.438 322.460 M230.559 322.460 C 230.978 322.541,231.584 322.538,231.906 322.454 C 232.228 322.369,231.886 322.303,231.145 322.307 C 230.404 322.311,230.141 322.380,230.559 322.460 M181.734 322.797 C 182.151 322.877,182.832 322.877,183.249 322.797 C 183.666 322.716,183.325 322.651,182.492 322.651 C 181.658 322.651,181.317 322.716,181.734 322.797 M233.590 322.797 C 234.009 322.878,234.615 322.875,234.937 322.790 C 235.259 322.706,234.916 322.640,234.175 322.644 C 233.434 322.648,233.171 322.717,233.590 322.797 M178.030 323.133 C 178.447 323.213,179.129 323.213,179.545 323.133 C 179.962 323.053,179.621 322.987,178.788 322.987 C 177.955 322.987,177.614 323.053,178.030 323.133 M236.957 323.134 C 237.376 323.214,237.982 323.211,238.304 323.127 C 238.626 323.043,238.283 322.977,237.542 322.981 C 236.801 322.984,236.538 323.053,236.957 323.134 M173.990 323.470 C 174.407 323.550,175.088 323.550,175.505 323.470 C 175.922 323.390,175.581 323.324,174.747 323.324 C 173.914 323.324,173.573 323.390,173.990 323.470 M203.831 326.936 C 203.831 329.066,203.886 329.937,203.953 328.872 C 204.019 327.807,204.019 326.065,203.953 325.000 C 203.886 323.935,203.831 324.806,203.831 326.936 M240.324 323.470 C 240.743 323.551,241.349 323.548,241.671 323.464 C 241.993 323.379,241.650 323.313,240.909 323.317 C 240.168 323.321,239.905 323.390,240.324 323.470 M162.374 323.906 C 162.458 324.217,162.953 324.429,163.662 324.458 C 164.718 324.502,164.730 324.492,163.806 324.344 C 163.251 324.255,162.671 324.006,162.518 323.791 C 162.329 323.527,162.282 323.565,162.374 323.906 M170.286 323.807 C 170.703 323.887,171.385 323.887,171.801 323.807 C 172.218 323.726,171.877 323.661,171.044 323.661 C 170.210 323.661,169.870 323.726,170.286 323.807 M243.691 323.807 C 244.110 323.888,244.716 323.885,245.038 323.800 C 245.360 323.716,245.017 323.650,244.276 323.654 C 243.535 323.658,243.272 323.727,243.691 323.807 M166.582 324.143 C 166.999 324.224,167.681 324.224,168.098 324.143 C 168.514 324.063,168.173 323.997,167.340 323.997 C 166.507 323.997,166.166 324.063,166.582 324.143 M246.886 324.138 C 247.210 324.223,247.740 324.223,248.064 324.138 C 248.388 324.053,248.123 323.984,247.475 323.984 C 246.827 323.984,246.561 324.053,246.886 324.138 M250.088 324.481 C 250.507 324.561,251.113 324.558,251.435 324.474 C 251.757 324.389,251.414 324.324,250.673 324.327 C 249.933 324.331,249.669 324.400,250.088 324.481 M253.455 324.817 C 253.874 324.898,254.480 324.895,254.802 324.810 C 255.124 324.726,254.781 324.660,254.040 324.664 C 253.300 324.668,253.036 324.737,253.455 324.817 M203.494 337.374 C 203.494 339.503,203.549 340.375,203.616 339.310 C 203.683 338.245,203.683 336.503,203.616 335.438 C 203.549 334.373,203.494 335.244,203.494 337.374 M211.257 351.852 C 211.257 356.389,211.304 358.245,211.363 355.976 C 211.421 353.708,211.421 349.996,211.363 347.727 C 211.304 345.459,211.257 347.315,211.257 351.852 M203.158 347.811 C 203.158 349.941,203.212 350.812,203.279 349.747 C 203.346 348.683,203.346 346.940,203.279 345.875 C 203.212 344.811,203.158 345.682,203.158 347.811 M202.817 357.744 C 202.817 359.596,202.874 360.311,202.942 359.332 C 203.010 358.354,203.010 356.839,202.941 355.965 C 202.872 355.092,202.816 355.892,202.817 357.744 " stroke="none" fill="#f18c8e" fill-rule="evenodd"></path><path id="path9" d="M162.458 232.997 C 163.181 233.737,163.849 234.343,163.941 234.343 C 164.034 234.343,163.518 233.737,162.795 232.997 C 162.071 232.256,161.404 231.650,161.311 231.650 C 161.219 231.650,161.735 232.256,162.458 232.997 M168.182 239.057 C 168.905 239.798,169.573 240.404,169.665 240.404 C 169.758 240.404,169.242 239.798,168.519 239.057 C 167.795 238.316,167.128 237.710,167.035 237.710 C 166.942 237.710,167.459 238.316,168.182 239.057 M245.277 242.508 L 242.929 244.949 245.370 242.602 C 247.638 240.421,247.965 240.067,247.718 240.067 C 247.667 240.067,246.568 241.166,245.277 242.508 M173.906 245.118 C 174.629 245.859,175.297 246.465,175.389 246.465 C 175.482 246.465,174.966 245.859,174.242 245.118 C 173.519 244.377,172.852 243.771,172.759 243.771 C 172.666 243.771,173.182 244.377,173.906 245.118 M179.630 251.178 C 180.353 251.919,181.021 252.525,181.113 252.525 C 181.206 252.525,180.690 251.919,179.966 251.178 C 179.243 250.438,178.575 249.832,178.483 249.832 C 178.390 249.832,178.906 250.438,179.630 251.178 M203.431 320.747 C 203.745 320.841,204.062 321.324,204.136 321.822 C 204.259 322.641,204.269 322.631,204.240 321.720 C 204.217 320.972,204.035 320.695,203.535 320.645 C 203.048 320.596,203.019 320.624,203.431 320.747 M211.263 332.155 C 211.263 338.636,211.308 341.240,211.363 337.941 C 211.418 334.642,211.418 329.339,211.363 326.157 C 211.308 322.974,211.263 325.673,211.263 332.155 M203.795 331.987 C 203.795 332.820,203.861 333.161,203.941 332.744 C 204.022 332.327,204.022 331.646,203.941 331.229 C 203.861 330.812,203.795 331.153,203.795 331.987 M203.459 342.424 C 203.459 343.258,203.524 343.598,203.605 343.182 C 203.685 342.765,203.685 342.083,203.605 341.667 C 203.524 341.250,203.459 341.591,203.459 342.424 M203.122 352.862 C 203.122 353.695,203.188 354.036,203.268 353.620 C 203.348 353.203,203.348 352.521,203.268 352.104 C 203.188 351.688,203.122 352.029,203.122 352.862 " stroke="none" fill="#f6b6b7" fill-rule="evenodd"></path><path id="path10" d="" stroke="none" fill="#f9cdce" fill-rule="evenodd"></path><path id="path11" d="" stroke="none" fill="#f8e2e2" fill-rule="evenodd"></path></g></svg>