<svg height="600" viewBox="0 0 559 600" width="559"
  xmlns="http://www.w3.org/2000/svg">
  <g fill="none" fill-rule="evenodd">
    <path d="m279.3 0-279.3 99.6 42.6 369.3 236.7 131.1 236.7-131.1 42.6-369.3z" fill="#da251d" fill-rule="nonzero"/>
    <path d="m279.3 0v66.6-.3 303.9 229.8l236.7-131.1 42.6-369.3z" fill="#cb160e" fill-rule="nonzero"/>
    <path d="m453.3 201.555804-47.610605 34.974573 18.550309-56.088114-47.975282-34.47264 59.075327.310213 17.960251-56.279836 17.960251 56.279836 59.075327-.310213-47.975282 34.47264 18.550309 56.088114z" fill="#fffb00"/>
    <path d="m279.3 66.3-174.6 391.5h65.1l35.1-87.6h148.2l35.1 87.6h65.1zm51 249.9h-102l51-122.7z" fill="#fff" fill-rule="nonzero"/>
  </g>
</svg>