<?xml version="1.0" encoding="UTF-8" ?>
<!DOCTYPE svg PUBLIC "-//W3C//DTD SVG 1.1//EN" "http://www.w3.org/Graphics/SVG/1.1/DTD/svg11.dtd">
<svg width="337pt" height="360pt" viewBox="0 0 337 360" version="1.1" xmlns="http://www.w3.org/2000/svg">
<path fill="#ffffff" opacity="1.00" d=" M 0.00 0.00 L 337.00 0.00 L 337.00 360.00 L 0.00 360.00 L 0.00 0.00 M 58.89 42.20 C 40.08 48.76 21.44 55.82 2.54 62.04 C 2.76 69.73 4.36 77.33 4.86 85.02 C 11.60 142.69 18.44 200.39 24.80 258.11 L 25.27 258.84 C 25.49 266.06 26.96 273.18 27.46 280.38 C 72.30 305.09 116.98 330.17 161.93 354.64 C 163.67 355.75 165.51 356.70 167.24 357.83 C 214.64 331.76 262.00 305.59 309.27 279.29 C 317.56 212.14 326.13 145.04 334.49 77.91 C 335.28 72.32 336.04 66.70 336.02 61.04 C 279.73 41.85 223.46 22.61 167.13 3.55 C 131.15 16.71 94.95 29.28 58.89 42.20 Z" />
<path fill="#14b103" opacity="1.00" d=" M 58.89 42.20 C 94.95 29.28 131.15 16.71 167.13 3.55 C 167.40 9.37 167.34 15.19 167.28 21.02 C 167.24 87.03 167.27 153.03 167.26 219.04 C 167.05 229.65 167.80 240.29 166.90 250.88 C 168.67 251.03 170.45 251.20 172.23 251.29 C 159.86 252.25 146.64 248.19 138.46 238.50 C 129.04 228.12 128.38 213.24 127.83 199.97 C 127.75 162.42 127.85 124.87 127.78 87.31 C 118.37 86.99 108.93 87.21 99.52 87.41 C 99.70 128.27 99.49 169.13 99.62 209.99 C 99.94 227.31 106.06 245.08 118.84 257.16 C 127.80 266.59 139.57 273.24 152.23 276.19 C 152.55 276.76 153.18 277.90 153.50 278.47 C 158.07 278.50 162.64 278.43 167.20 278.81 C 167.39 300.22 167.16 321.63 167.29 343.04 C 167.41 346.99 167.50 350.96 167.08 354.90 C 165.37 354.81 163.65 354.75 161.93 354.64 C 116.98 330.17 72.30 305.09 27.46 280.38 C 26.96 273.18 25.49 266.06 25.27 258.84 L 24.80 258.11 C 18.44 200.39 11.60 142.69 4.86 85.02 C 4.36 77.33 2.76 69.73 2.54 62.04 C 21.44 55.82 40.08 48.76 58.89 42.20 Z" />
<path fill="#248200" opacity="1.00" d=" M 167.13 3.55 C 223.46 22.61 279.73 41.85 336.02 61.04 C 336.04 66.70 335.28 72.32 334.49 77.91 C 326.13 145.04 317.56 212.14 309.27 279.29 C 262.00 305.59 214.64 331.76 167.24 357.83 C 165.51 356.70 163.67 355.75 161.93 354.64 C 163.65 354.75 165.37 354.81 167.08 354.90 C 167.50 350.96 167.41 346.99 167.29 343.04 C 167.16 321.63 167.39 300.22 167.20 278.81 C 162.64 278.43 158.07 278.50 153.50 278.47 C 153.18 277.90 152.55 276.76 152.23 276.19 C 168.16 279.41 185.31 278.31 200.06 271.13 C 214.97 263.75 227.54 251.08 233.59 235.46 C 237.26 226.12 238.63 216.03 238.56 206.04 C 238.57 166.44 238.56 126.83 238.57 87.23 C 229.12 87.20 219.68 87.22 210.23 87.23 C 210.11 126.48 210.32 165.72 210.12 204.96 C 209.42 216.02 208.22 228.04 200.93 236.96 C 194.09 245.73 183.28 250.85 172.23 251.29 C 170.45 251.20 168.67 251.03 166.90 250.88 C 167.80 240.29 167.05 229.65 167.26 219.04 C 167.27 153.03 167.24 87.03 167.28 21.02 C 167.34 15.19 167.40 9.37 167.13 3.55 Z" />
<path fill="#ffffff" opacity="1.00" d=" M 99.52 87.41 C 108.93 87.21 118.37 86.99 127.78 87.31 C 127.85 124.87 127.75 162.42 127.83 199.97 C 128.38 213.24 129.04 228.12 138.46 238.50 C 146.64 248.19 159.86 252.25 172.23 251.29 C 183.28 250.85 194.09 245.73 200.93 236.96 C 208.22 228.04 209.42 216.02 210.12 204.96 C 210.32 165.72 210.11 126.48 210.23 87.23 C 219.68 87.22 229.12 87.20 238.57 87.23 C 238.56 126.83 238.57 166.44 238.56 206.04 C 238.63 216.03 237.26 226.12 233.59 235.46 C 227.54 251.08 214.97 263.75 200.06 271.13 C 185.31 278.31 168.16 279.41 152.23 276.19 C 139.57 273.24 127.80 266.59 118.84 257.16 C 106.06 245.08 99.94 227.31 99.62 209.99 C 99.49 169.13 99.70 128.27 99.52 87.41 Z" />
</svg>
