<?xml version="1.0" encoding="utf-8"?>
<svg version="1.1" id="Ebene_1" xmlns="http://www.w3.org/2000/svg" xmlns:xlink="http://www.w3.org/1999/xlink" x="0px" y="0px"
	 viewBox="0 0 167.8 177.4" style="enable-background:new 0 0 167.8 177.4;" xml:space="preserve">
<style type="text/css">
	.st0{fill-rule:evenodd;clip-rule:evenodd;fill:#E23237;}
	.st1{fill-rule:evenodd;clip-rule:evenodd;fill:#B52E31;}
	.st2{fill:#C63D14;}
	.st3{fill:#FFFFFF;}
</style>
<path id="Fill-1" class="st0" d="M83,0L83,0L0.1,29.4l12.6,109.2l70.1,38.8l71.1-39.3l13.9-109.2L83,0"/>
<path id="Fill-2" class="st1" d="M167.6,28.9L82.8,0v177.4l71.1-39.3L167.6,28.9L167.6,28.9z"/>
<path id="Fill-3" class="st0" d="M0,29.4l12.6,109.2l70.1,38.8V0L0,29.4L0,29.4z"/>
<path class="st2" d="M122.5,84.2c0-5.3-4.3-9.7-9.7-9.7c-0.3,0-0.7,0-1,0.1l13.3-39.2H68.6l13.3,39.2c-0.2,0-0.4,0-0.6,0
	c-5.3,0-9.7,4.3-9.7,9.7c0,4.3,2.8,8,6.7,9.2c-2.1,3.6-4.7,6.8-7.6,9.6c-4,3.8-8.6,6.7-13.6,8.4c-5.9-3-8.7-9.8-6.2-15.7
	c0.3-0.7,0.6-1.3,0.9-2c4.3-1,7.5-4.8,7.5-9.4c0-5.3-4.3-9.7-9.7-9.7c-5.3,0-9.7,4.3-9.7,9.7c0,3.3,1.6,6.2,4.1,7.9
	c-2.4,5.5-5.9,11.2-7,17.8c-1.3,7.9,0,16.4,6.9,21.1c16,11.1,33.3-6.9,51.6-11.4c6.6-1.6,13.9-1.4,19.7-4.8
	c4.4-2.5,7.3-6.7,8.1-11.5c0.8-4.7-0.4-9.3-3.1-13.1C121.7,88.7,122.5,86.5,122.5,84.2L122.5,84.2z M90.9,84.2L90.9,84.2
	c0-3.5-1.9-6.6-4.7-8.3l10.6-21.4l10.6,21.6c-2.6,1.7-4.3,4.7-4.3,8.1c0,0.1,0,0.1,0,0.2L90.9,84.2z"/>
<path class="st3" d="M124.8,84.2c0-5.9-4.2-10.8-9.8-11.8L128.4,33H65.3l13.4,39.5c-5.4,1.2-9.4,6-9.4,11.8c0,4.3,2.3,8.1,5.7,10.2
	c-1.6,2.4-3.6,4.8-5.8,6.9c-3.5,3.3-7.5,5.9-11.7,7.5c-4.3-2.7-6.1-7.8-4.2-12.2l0.1-0.3l0.3-0.7c4.7-1.6,8.1-6.1,8.1-11.4
	c0-6.6-5.4-12-12-12s-12,5.4-12,12c0,3.4,1.4,6.4,3.6,8.6c-0.4,0.9-0.8,1.8-1.3,2.6c-2,4.2-4.3,8.9-5.2,14.1
	c-1.7,10.4,1.1,18.7,7.8,23.4c4.1,2.9,8.3,4,12.5,4c7.9,0,15.9-4,23.8-7.9c5.6-2.8,11.5-5.7,17.2-7.1c2.1-0.5,4.4-0.8,6.7-1.2
	c4.6-0.7,9.4-1.4,13.7-3.8c4.9-2.8,8.3-7.6,9.2-13.1c0.8-4.7-0.2-9.4-2.6-13.4C124.2,88.6,124.8,86.4,124.8,84.2L124.8,84.2z
	 M120.1,84.2c0,4-3.3,7.3-7.3,7.3c-4,0-7.3-3.3-7.3-7.3c0-4,3.3-7.3,7.3-7.3C116.8,76.9,120.1,80.2,120.1,84.2z M121.8,37.7
	L110,72.5c-0.5,0.1-1,0.3-1.5,0.5L96.8,49.2L85.2,72.8c-0.5-0.2-1-0.3-1.6-0.4L71.8,37.7H121.8L121.8,37.7z M81.2,76.9
	c4,0,7.3,3.3,7.3,7.3c0,4-3.3,7.3-7.3,7.3c-4,0-7.3-3.3-7.3-7.3C73.9,80.2,77.2,76.9,81.2,76.9z M49.6,76.9c4,0,7.3,3.3,7.3,7.3
	c0,4-3.3,7.3-7.3,7.3c-4,0-7.3-3.3-7.3-7.3C42.3,80.2,45.5,76.9,49.6,76.9L49.6,76.9z M121,103.1c-0.7,4.1-3.2,7.7-7,9.8
	c-3.5,2-7.6,2.6-12,3.2c-2.3,0.3-4.8,0.7-7.1,1.3c-6.3,1.5-12.3,4.6-18.2,7.5c-11.8,5.8-21.9,10.9-31.5,4.2
	c-7-4.9-6.7-13.9-5.9-18.8c0.8-4.6,2.8-8.8,4.8-12.8c0.3-0.7,0.7-1.4,1-2.1c1,0.4,2,0.7,3.1,0.8c-2,6.6,1.2,13.9,7.8,17.3l0.9,0.5
	l1-0.3c5.3-1.9,10.1-4.9,14.4-8.9c2.8-2.6,5.2-5.5,7.1-8.6c0.6,0.1,1.2,0.1,1.8,0.1c6.6,0,12-5.4,12-12c0-3.6-1.6-6.8-4-9l7.6-15.3
	l7.6,15.6c-2.3,2.2-3.7,5.3-3.7,8.7c0,6.6,5.4,12,12,12c2.5,0,4.9-0.8,6.9-2.2C121,96.9,121.5,100,121,103.1L121,103.1z"/>
</svg>
