<?xml version="1.0" encoding="utf-8"?>
<!-- Generator: Adobe Illustrator 24.0.1, SVG Export Plug-In . SVG Version: 6.00 Build 0)  -->
<svg version="1.1" id="Ebene_1" xmlns="http://www.w3.org/2000/svg" xmlns:xlink="http://www.w3.org/1999/xlink" x="0px" y="0px"
	 viewBox="0 0 2830.88 3036.27" style="enable-background:new 0 0 2830.88 3036.27;" xml:space="preserve">
<style type="text/css">
	.st0{fill:#DD0932;}
	.st1{fill:#C31532;}
	.st2{fill:#FFFFFF;}
</style>
<g>
	<polygon class="st0" points="1414.67,19.54 1414.67,19.54 1414.67,19.54 29.08,513.64 240.42,2345.71 1414.67,2996.09 
		1414.67,2996.09 1414.67,2996.09 2588.91,2345.71 2800.25,513.64 	"/>
	<polygon class="st1" points="1414.67,19.54 1414.67,349.93 1414.67,348.44 1414.67,1856.07 1414.67,1856.07 1414.67,2996.09 
		1414.67,2996.09 2588.91,2345.71 2800.25,513.64 	"/>
</g>
<path class="st2" d="M1717.28,924.94c3.1,2.83,5.94,5.46,8.81,8.04c3.65,3.28,6.07,7.22,5.91,12.24
	c-0.21,6.77,0.73,12.87,5.44,18.39c3.12,3.66,2.07,8.96-1.2,11.82c-6.96,6.09-6.48,13.53-5.93,21.42
	c1.7,24.52,3.23,49.04,4.91,73.56c0.18,2.66,0.96,5.28,1.55,8.43c3.49,0.93,6.77,1.94,10.11,2.67c3.94,0.86,6.04,3.25,6.67,7.13
	c0.68,4.18,1.37,8.36,1.92,11.7c-1.1,1.61-1.39,2.47-1.99,2.86c-8.42,5.46-9.46,13.71-8.62,22.66c1.78,19.03,4.01,37.99,8,56.73
	c1.51,7.08,3.34,13.58,10.44,17.25c3.22,1.66,5.29,4.65,6.24,8.16c1.72,6.37,3.83,12.71,4.75,19.21c1.37,9.64,1.83,19.41,2.75,29.11
	c0.14,1.5,0.68,2.97,1.18,5.05c2.24,0.4,4.42,0.99,6.62,1.12c3.11,0.19,6.24-0.04,9.36,0.03c10.8,0.27,13.51,2.21,14.62,12.47
	c2.34,21.71,4.48,43.45,6.13,65.22c0.43,5.69-0.78,11.65-2.05,17.3c-4.26,19.02-8.72,37.99-13.42,56.91
	c-3.42,13.79-4.07,27.46-2.35,41.67c4.49,37.17,8.18,74.43,11.94,111.68c3.57,35.31,6.78,70.66,10.22,105.99
	c1.89,19.41,4.06,38.79,5.85,58.2c0.75,8.15,0.75,16.37,1.25,24.54c0.53,8.56,1.2,17.12,1.94,25.66c0.16,1.86,0.87,3.68,1.43,5.92
	c2.14,0.43,3.96,0.93,5.81,1.15c16.59,1.93,22.05,8.82,20.85,25.81c-0.58,8.16-0.66,16.36-0.8,24.55c-0.04,2.24,0.54,4.5,0.83,6.68
	c4.15,2.28,8.06,1.12,11.86,1.01c16.37-0.47,32.76-0.57,49.1-1.62c18.57-1.19,24.99,12.53,22.5,26.07
	c-0.98,5.34-1.28,10.83-1.51,16.27c-0.19,4.63,0.17,9.29,0.28,13.39c4.03,3.3,8.1,2.44,11.9,2.49c17.16,0.23,34.32,0.29,51.47,0.41
	c2.73,0.02,5.47-0.08,8.19,0.09c13.75,0.89,20.96,9.56,19.96,23.29c-0.71,9.71-0.91,19.46-1.22,29.2c-0.07,2.31,0.31,4.64,0.47,6.75
	c2.98,3.3,6.68,2.32,10.06,2.3c16.77-0.1,33.54-0.35,50.3-0.51c3.12-0.03,6.26-0.17,9.35,0.13c12.65,1.2,20.4,9.23,19.19,21.73
	c-1.87,19.29,1.23,38.13,3.58,57.06c4.23,34.05,8.64,68.08,13.09,102.1c1.92,14.69,3.97,29.37,6.27,44c1.26,8,2.28,8.74,10.3,10.3
	c2.28,0.44,4.64,0.69,6.96,0.69c4.55-0.01,7.43,2.34,8.82,6.34c1.26,3.65,2.64,7.49,2.75,11.28c0.37,12.47,0.22,24.96,0.17,37.44
	c0,1.04-0.8,2.09-1.47,3.74c-2.13,0.22-4.38,0.59-6.63,0.66c-64.22,1.85-1486.76,1.03-1501.68-0.96c-0.39-1.88-1.2-4.03-1.23-6.2
	c-0.11-10.53-0.14-21.06,0.08-31.59c0.07-3.47,0.71-7,1.54-10.38c1.65-6.67,5.1-10.37,12.99-10.73
	c12.51-0.57,13.62-2.13,15.33-14.49c3.65-26.26,7.1-52.54,10.51-78.83c3.46-26.68,6.73-53.39,10.18-80.08
	c1.6-12.4,3-24.78,1.53-37.29c-0.14-1.16-0.08-2.34-0.19-3.51c-1.22-13.43,9.28-20.31,18.59-21.3c3.09-0.33,6.23-0.24,9.35-0.22
	c17.16,0.15,34.32,0.36,51.47,0.49c2.69,0.02,5.38-0.29,8.64-0.48c0.49-2.35,1.39-4.54,1.34-6.71c-0.23-10.52-0.47-21.04-1.16-31.54
	c-0.85-12.91,6.39-21.81,19.43-22.71c6.21-0.43,12.47-0.19,18.71-0.24c13.65-0.11,27.3-0.13,40.95-0.34
	c3.82-0.06,7.84,0.66,12.05-2.07c1.4-7.99,1.14-16.45,0.18-24.93c-0.39-3.48-1.09-6.94-1.29-10.43
	c-0.67-11.67,7.59-21.23,19.99-20.73c17.53,0.7,35.08,1.01,52.62,1.46c3.42,0.09,6.85,0.01,10.93,0.01
	c0.43-2.76,1.09-4.98,1.06-7.18c-0.13-8.58-0.26-17.16-0.79-25.72c-1-16.18,4.47-22.98,20.52-25.05c1.87-0.24,3.72-0.67,5.96-1.08
	c0.61-2.05,1.46-3.83,1.64-5.67c0.74-7.37,1.66-14.76,1.82-22.15c0.44-19.53,2.41-38.91,4.52-58.31c2.03-18.61,3.5-37.28,5.34-55.91
	c2.07-20.95,4.31-41.89,6.41-62.84c1.83-18.24,3.48-36.49,5.35-54.72c1.95-19.01,4.09-38,6.12-57c0.99-9.31,2.05-18.61,2.83-27.93
	c0.45-5.42,0.3-10.77-1.01-16.23c-5.36-22.36-10.1-44.87-15.46-67.23c-2.11-8.82-3.26-17.52-2.28-26.6
	c2.05-18.99,3.77-38.03,5.63-57.04c0.11-1.16,0.25-2.33,0.48-3.48c1.54-7.7,3.98-9.97,11.72-10.44c3.89-0.24,7.8-0.01,11.69-0.1
	c1.92-0.04,3.84-0.32,6.24-0.54c0.67-2.24,1.67-4.35,1.91-6.54c1.03-9.69,1.68-19.43,2.82-29.11c0.54-4.62,1.56-9.24,2.91-13.7
	c1.71-5.62,3.93-11.07,9.68-14.06c4.93-2.56,7.12-7.12,7.98-12.27c2.57-15.37,5.08-30.76,7.36-46.18c0.86-5.78,1.16-11.64,1.5-17.48
	c0.43-7.36-1.08-13.97-7.82-18.35c-0.93-0.6-1.47-1.78-2.35-2.9c-0.59-6.21,0.86-12.13,3.69-18.35c4.32-1.22,8.76-2.47,14.05-3.96
	c0.64-2.62,1.78-5.52,1.99-8.48c1.08-14.78,1.91-29.58,2.86-44.37c0.73-11.29,1.44-22.58,2.3-33.86c0.43-5.64-0.39-10.36-4.64-14.91
	c-5.74-6.14-5.75-9.98-0.81-16.58c2.57-3.43,3.72-6.83,3.36-10.79c-0.78-8.63,2.59-15.15,9.5-20.08c1.89-1.35,3.67-2.86,5.89-4.6
	c-5.01-7.49-5.93-15.2-7.5-22.71c-0.48-2.27-0.89-4.62-0.81-6.91c0.13-3.84,3.1-6.2,7.05-5.99c4.63,0.25,9.25,0.52,14.64,0.83
	c0.3,0.18,1.52,0.59,2.23,1.42c8.71,10.24,21.27,10.19,32.97,12.18c4.06,0.69,6.06-1.69,6.32-6.47c0.84-15.19,1.53-30.39,2.3-45.59
	c0.16-3.12,0.22-6.25,0.61-9.34c0.8-6.29,3.41-11.16,10.35-12.42c1.49-0.27,2.93-0.83,4.72-1.35c0.58-1.91,1.49-3.71,1.63-5.57
	c0.58-8.01,5.71-12.2,12.07-15.99c12.38-7.37,24.63-14.97,36.61-22.97c10.47-6.99,18.59-16.57,26.72-26.07
	c3.7-4.33,5.35-9.21,5.35-15.01c-0.01-12.09,0.58-24.18,0.65-36.27c0.03-6.06,1.18-11.59,4.96-16.44c3.74-4.81,8.21-8.31,14.62-8.5
	c0.78-0.02,1.56-0.06,2.33-0.17c9-1.28,10.41-2.48,10.53-12.04c0.31-23.79,0.27-47.59,0.38-71.39c0.02-4.29-0.09-8.59,0.23-12.86
	c0.13-1.84,1.19-3.61,1.7-5.08c4.01-2.43,8-1.65,11.84-1.65c13.26,0.01,26.52,0.26,39.78,0.26c51.86-0.02,103.73-0.11,155.59-0.15
	c4.64,0,9.28,0.16,13.04,0.22c4.19,3.07,4.07,6.68,4.04,10.15c-0.11,12.1-0.54,24.19-0.47,36.28c0.09,15.21,0.54,30.42,0.87,45.63
	c0.03,1.55,0.28,3.1,0.5,4.64c0.38,2.61,2.12,4.21,4.43,4.93c2.2,0.69,4.56,0.93,6.86,1.25c12.63,1.72,20.03,9.79,20.48,22.78
	c0.39,11.3,1.12,22.65,0.55,33.92c-0.52,10.27,3.46,17.88,10.13,25.07c10.95,11.79,22.7,22.46,36.8,30.42
	c7.8,4.4,15.25,9.42,23.07,13.79c6.22,3.48,10.4,8.03,10.94,15.43c0.11,1.52,0.81,3,1.28,4.66c0.93,0.55,1.84,1.48,2.88,1.65
	c8.91,1.46,12.07,4.13,12.89,16.47c1.03,15.57,1.74,31.17,2.36,46.76c0.35,8.88-0.5,13.43,13.56,10.41
	c5.33-1.14,10.57-2.66,15.91-3.78c3.77-0.79,5.9-3.61,8.37-6.05c2.65-2.62,5.48-3.92,9.42-3.36c3.01,0.43,6.17-0.31,9.27-0.45
	c4.47-0.2,7.94,2.77,6.97,7.17c-1.82,8.25-1.36,17.21-6.78,24.49C1717.9,922.09,1717.87,922.96,1717.28,924.94z M1567.57,1984.79
	c2.16-5.46,1.34-10.59,1.35-15.61c0.05-89.36,0.04-178.73,0.02-268.09c0-6.63-0.25-13.26-0.38-19.89
	c-0.24-11.8-2.59-23.26-6.02-34.47c-23.27-76.08-102.39-125.77-187.78-105.58c-67.68,16.01-119.8,76.31-119.55,152.62
	c0.31,92.88,0.07,185.75,0.08,278.63c0,3.84,0.22,7.69,0.34,11.7c1.98,0.66,3.39,1.43,4.85,1.56
	C1272.52,1986.77,1559.28,1985.99,1567.57,1984.79z M1504.58,1388.32c-0.48,2.5-1,3.98-1.01,5.46c-0.06,19.09-0.08,38.18,0.01,57.27
	c0.01,1.81,0.84,3.62,1.46,6.1c7.7,0,15.06,0,22.43,0c7.4,0,14.8,0.09,22.19-0.03c7.28-0.12,14.62,0.59,22.52-0.75
	c0.88-11.87,0.59-23.11,0.4-34.3c-0.19-11.11,1.31-22.34-1.17-33.74C1549.05,1388.32,1527.33,1388.32,1504.58,1388.32z
	 M1250.44,1389.33c0,7.86,0,15.22,0,22.57c0,7.4-0.1,14.81,0.03,22.21c0.12,7.27-0.63,14.62,0.74,22.03
	c2.24,0.35,3.73,0.79,5.21,0.79c19.47,0.02,38.94-0.01,58.4-0.1c1.07,0,2.13-0.65,3.58-1.13c0.31-1.45,0.9-2.92,0.9-4.4
	c0.07-19.09,0.09-38.18-0.02-57.27c-0.01-1.79-1-3.56-1.47-5.13C1306.31,1387.54,1261.25,1387.7,1250.44,1389.33z M1379.66,1389.38
	c-2.4,8.17-2.94,23.86-1.84,57.85c0.1,2.95,0.87,5.88,1.44,9.5c8.02,0.1,15.34,0.22,22.65,0.28c7.38,0.07,14.77,0.27,22.15,0.07
	c7.23-0.19,14.61,1.12,21.46-1.11c0.43-1.32,0.88-2.04,0.88-2.77c0.06-20.22,0.11-40.43,0.04-60.65c-0.01-1.38-0.94-2.76-1.36-3.9
	C1430.15,1387.2,1387.72,1387.71,1379.66,1389.38z"/>
</svg>
