<svg id="master-artboard" viewBox="0 0 731.8692626953125 785.4692993164062" version="1.1"
     xmlns="http://www.w3.org/2000/svg" x="0px" y="0px" style="enable-background:new 0 0 1400 980;"
     width="731.8692626953125px" height="785.4692993164062px">
    <defs>
        <path id="text-path-0"
              d="M 778.8464965820312 213.4612274169922 A 100 18 0 0 1 988.3533935546875 213.4612274169922 A 100 18 0 0 1 778.8464965820312 213.4612274169922 Z"
              style="fill: none; stroke: red; stroke-width: 2;"/>
        <path id="text-path-1"
              d="M 664.5464477539062 37.96122741699219 A 100 19 0 0 1 876.5812377929688 37.96122741699219 A 100 19 0 0 1 664.5464477539062 37.96122741699219"
              style="fill: none; stroke: red; stroke-width: 2;"/>
        <path id="text-path-2"
              d="M 765.3650512695312 211.70851135253906 A 100 17 0 0 1 991.5017700195312 211.70851135253906 A 100 17 0 0 1 765.3650512695312 211.70851135253906"
              style="fill: none; stroke: red; stroke-width: 2;"/>
        <path id="path-1"
              d="M 765.3650512695312 211.70851135253906 A 100 17 0 0 1 991.5017700195312 211.70851135253906 A 100 17 0 0 1 765.3650512695312 211.70851135253906"
              style="fill: none; stroke: red; stroke-width: 2;"/>
        <clipPath id="clip0">
            <path d="M397 117 883 117 883 603 397 603Z" fill-rule="evenodd" clip-rule="evenodd"/>
        </clipPath>
        <clipPath id="clip1">
            <path d="M398 118 882 118 882 602 398 602Z" fill-rule="evenodd" clip-rule="evenodd"/>
        </clipPath>
        <clipPath id="clip2">
            <path d="M398 118 882 118 882 602 398 602Z" fill-rule="evenodd" clip-rule="evenodd"/>
        </clipPath>
        <clipPath id="clip3">
            <path d="M398 118 882 118 882 602 398 602Z" fill-rule="evenodd" clip-rule="evenodd"/>
        </clipPath>
        <clipPath id="clip4">
            <path d="M497 213 783 213 783 507 497 507Z" fill-rule="evenodd" clip-rule="evenodd"/>
        </clipPath>
        <clipPath id="clip5">
            <path d="M497 213 783 213 783 507 497 507Z" fill-rule="evenodd" clip-rule="evenodd"/>
        </clipPath>
        <clipPath id="clip6">
            <path d="M497 213 783 213 783 507 497 507Z" fill-rule="evenodd" clip-rule="evenodd"/>
        </clipPath>
    </defs>
    <g transform="matrix(2.01646089553833, 0, 0, 2.01646089553833, -124.05957579612732, -117.00119018554688)">
        <g clip-path="url(#clip0)" transform="translate(-397 -117)">
            <g clip-path="url(#clip1)">
                <g clip-path="url(#clip2)">
                    <g clip-path="url(#clip3)">
                        <path d="M640 176.08 640 176.08 640 176.08 459.758 240.355 487.25 478.677 640 563.28 640 563.28 640 563.28 792.75 478.677 820.242 240.355Z"
                              fill="#DD0031" style="stroke-opacity: 1; stroke: rgb(0, 0, 0); stroke-width: 0;"/>
                        <path d="M640 176.08 640 219.059 640 218.866 640 414.982 640 414.982 640 563.28 640 563.28 792.75 478.677 820.242 240.355 640 176.08Z"
                              fill="#C3002F" style="stroke-opacity: 1; stroke: rgb(0, 0, 0); stroke-width: 0;"/>
                    </g>
                </g>
            </g>
            <g clip-path="url(#clip4)">
                <g clip-path="url(#clip5)">
                    <g clip-path="url(#clip6)">
                        <path d="M-147.178-283.501C-146.419-283.311-144.713-282.695-143.433-282.126-142.153-281.557-140.874-281.083-140.542-281.083-139.689-281.083-138.267-279.33-138.646-278.666-138.835-278.382-139.072-274.21-139.12-269.423-139.215-261.033-139.262-260.701-140.305-259.848-141.205-259.137-141.3-258.711-141.063-257.099-140.637-254.729-139.309-252.501-137.745-251.458-137.081-251.032-134.901-249.941-132.863-249.088-129.213-247.524-129.166-247.477-127.364-244.159-126.322-242.168-125.374-240.935-124.994-241.078-124.71-241.22-123.478-242.784-122.293-244.633-118.832-250.084-117.031-251.079-114.614-248.993-113.855-248.33-113.618-248.377-112.102-249.752-109.352-252.122-107.456-251.553-106.224-247.951-105.56-245.912-105.513-246.007-106.698-246.007-107.599-246.007-107.646-245.818-107.362-243.495-107.077-241.267-107.172-240.746-108.262-239.134-109.258-237.712-109.495-236.812-109.447-234.679-109.4-231.029-108.926-229.749-107.551-229.085-106.745-228.706-106.129-227.806-105.75-226.526-105.418-225.483-105.229-224.488-105.323-224.44-105.418-224.345-108.357-224.108-111.865-223.919L-118.264-223.634-121.345-220.648C-125.563-216.619-128.028-214.913-130.825-214.249-132.958-213.728-133.195-213.538-133.195-212.353-133.195-211.595-133.432-210.836-133.716-210.647-134.664-210.078-133.337-198.038-131.725-192.445-130.114-187.089-129.734-183.155-130.114-176.329-130.493-169.693-130.54-165.142-130.351-160.687-130.303-159.265-130.398-156.895-130.588-155.425-130.825-153.435-130.682-151.823-129.924-148.789-129.26-146.04-128.786-141.916-128.455-135.565-127.933-125.184-127.791-123.857-126.701-119.306-126.037-116.415-125.8-115.988-123.999-114.756-122.956-114.045-121.06-113.097-119.828-112.67-117.695-111.959-113.287-109.305-113.287-108.689-113.287-108.547-113.618-108.167-114.045-107.883-114.661-107.409-114.709-106.508-114.424-101.484-114.14-96.0329-114.045-95.6537-113.002-95.2745-112.433-95.0375-108.547-94.4213-104.423-93.8525-93.8999-92.4779-88.6859-91.4825-87.8801-90.6767-87.3587-90.1553-87.2164-88.5911-87.2164-84.1354L-87.2164-78.2578-88.7807-77.9734C-89.5865-77.8312-93.3785-77.3098-97.1705-76.7884-100.915-76.3144-104.091-75.6508-104.186-75.3664-104.281-75.082-106.082-72.5698-108.167-69.7732-110.253-66.9765-112.291-63.9429-112.67-63.0423-113.287-61.6203-113.381-58.7289-113.097-42.4232-112.955-31.9952-112.67-20.3347-112.528-16.4953L-112.196-9.48005-141.727-9.48005-171.21-9.48005-170.925-12.7033C-170.404-18.5809-169.598-56.5011-169.93-59.5821-170.214-62.5209-170.404-62.8527-174.67-68.4934-177.135-71.764-179.22-74.7976-179.41-75.319-179.742-76.4092-180.5-76.5988-187.942-77.2624-191.07-77.5942-194.388-77.9734-195.289-78.163L-196.948-78.4948-197.09-85.1782-197.232-91.8617-195.905-92.1461C-195.147-92.2883-192.255-92.6201-189.364-92.9045-183.629-93.4733-171.352-95.1323-170.072-95.5589-169.314-95.7959-169.219-96.4595-169.219-100.678L-169.219-105.56-166.659-108.452-164.147-111.296-163.815-116.415C-163.483-121.345-163.578-121.913-165.285-128.929-166.896-135.66-167.038-136.844-167.038-142.912-167.038-149.5-167.038-149.595-165.237-154.051-162.109-161.777-161.967-162.63-162.346-168.745-162.772-175.191-162.772-175.57-162.346-182.017-162.014-186.662-162.061-187.184-163.246-190.265-163.91-192.018-164.479-194.151-164.479-194.957-164.479-196.095-162.867-202.826-161.35-208.182-161.161-208.798-161.824-209.367-163.957-210.457-165.522-211.215-167.181-212.4-167.607-213.064-168.603-214.581-170.167-227.332-170.262-234.726-170.262-237.854-163.436-248.567-158.838-252.548-154.667-256.151-154.335-257.052-154.667-262.834-154.857-265.963-155.378-268.712-156.136-270.987-158.032-276.486-157.985-278.95-155.947-281.226-154.003-283.501-150.638-284.354-147.178-283.501ZM-124.568-236.764-126.322-235.579-126.322-231.645C-126.322-229.512-126.511-227.189-126.748-226.478-127.08-225.341-126.985-225.151-126.179-225.151-125.705-225.151-124.52-225.673-123.62-226.289-122.672-226.905-120.965-227.995-119.733-228.706-118.548-229.417-117.553-230.27-117.553-230.65-117.553-231.598-118.216-231.455-119.212-230.365-120.017-229.465-122.245-229.085-122.909-229.702-123.051-229.844-122.53-230.981-121.771-232.261-120.16-234.916-120.112-235.153-121.345-235.958-121.866-236.29-122.293-236.859-122.293-237.238-122.293-238.186-122.53-238.139-124.568-236.764ZM-115.657-231.74C-115.941-231.266-116.131-230.697-116.131-230.46-116.131-229.844-113.524-228.943-111.77-228.943-109.779-228.943-109.589-230.128-111.343-231.74-112.149-232.498-112.813-233.351-112.813-233.636-112.813-234.347-115.088-232.877-115.657-231.74ZM-144.286-155.236C-144.618-147.652-146.325-125.658-146.941-120.965-147.747-115.135-147.747-115.23-145.187-115.325-143.907-115.325-140.684-115.183-137.982-114.946L-133.052-114.566-133.384-116.984C-133.858-120.539-138.646-134.948-140.02-136.939-141.49-139.072-141.585-139.926-141.063-147.984-140.731-153.435-140.826-154.809-141.442-156.516-141.822-157.653-142.39-159.502-142.722-160.687-143.528-163.863-143.955-162.298-144.286-155.236ZM-151.87-159.549C-152.297-158.175-152.961-156.753-153.34-156.421-154.809-155.188-155.236-153.719-155.757-147.415-156.089-143.907-156.705-139.404-157.132-137.461-158.269-132.484-157.89-124.52-156.231-118.832-155.615-116.51-154.951-114.519-154.809-114.377-154.714-114.235-153.956-114.282-153.15-114.472L-151.681-114.803-151.681-123.43C-151.681-128.218-151.491-134.759-151.254-137.982-150.97-141.205-150.638-148.078-150.496-153.292-150.164-163.152-150.448-164.479-151.87-159.549Z"
                              fill="#FFFFFF" transform="matrix(-1.00562 -0 -0 1 497 506.941)"
                              style="stroke-opacity: 1; stroke: rgb(0, 0, 0); stroke-width: 0;"/>
                    </g>
                </g>
            </g>
        </g>
    </g>
</svg>
