<svg xmlns="http://www.w3.org/2000/svg" width="186.20001" height="200" viewBox="0 0 186.20001 200"><title>angular-sf</title><polygon points="93.1 0 93.1 0 93.1 0 0 33.2 14.2 156.3 93.1 200 93.1 200 93.1 200 172 156.3 186.2 33.2 93.1 0" fill="#006cb7"/><polygon points="93.1 0 93.1 22.2 93.1 22.1 93.1 123.4 93.1 123.4 93.1 200 93.1 200 172 156.3 186.2 33.2 93.1 0" fill="#0062ad"/><path d="M125,52.1,66.8,182.6H88.5l11.7-29.2h49.4l11.7,29.2H183L125,52.1Zm17,83.3H108l17-40.9Z" transform="translate(-31.9 -30)" fill="#fdb928"/></svg>