<svg xmlns="http://www.w3.org/2000/svg" xmlns:xlink="http://www.w3.org/1999/xlink" viewBox="0 0 165.22 203.38"><defs><style>.cls-1{fill:#b3ffe2;}.cls-2{clip-path:url(#clip-path);}.cls-3{fill:#9eddc3;}.cls-4{clip-path:url(#clip-path-2);}</style><clipPath id="clip-path"><polygon id="_Clipping_Path_" data-name="&lt;Clipping Path&gt;" class="cls-1" points="63.95 97.38 78.19 97.38 92.44 97.38 78.19 62.64 63.95 97.38"/></clipPath><clipPath id="clip-path-2"><path id="_Compound_Clipping_Path_" data-name="&lt;Compound Clipping Path&gt;" class="cls-1" d="M78.19,9.77,0,38,12.48,140l65.71,36.74L143.9,140,156.39,38ZM108.65,137l-9.73-24.34H57.47L47.73,137H29L78.19,27.43,127.34,137Z"/></clipPath></defs><title>Asset 1</title><g id="Layer_2" data-name="Layer 2"><g id="Capa_1" data-name="Capa 1"><polygon points="64.97 98.41 79.22 98.41 93.47 98.41 79.22 63.67 64.97 98.41"/><path d="M79.22,10.79,1,39.05,13.5,141l65.71,36.74L144.93,141l12.48-102Zm30.46,127.26-9.73-24.34H58.49l-9.73,24.34H30.07L79.22,28.46l49.15,109.6Z"/><polygon id="_Clipping_Path_2" data-name="&lt;Clipping Path&gt;" class="cls-1" points="63.95 97.38 78.19 97.38 92.44 97.38 78.19 62.64 63.95 97.38"/><g class="cls-2"><polyline class="cls-3" points="78.19 62.64 78.19 103.5 102.27 103.5 78.19 62.64"/></g><path id="_Compound_Clipping_Path_2" data-name="&lt;Compound Clipping Path&gt;" class="cls-1" d="M78.19,9.77,0,38,12.48,140l65.71,36.74L143.9,140,156.39,38ZM108.65,137l-9.73-24.34H57.47L47.73,137H29L78.19,27.43,127.34,137Z"/><g class="cls-4"><polygon class="cls-3" points="78.19 1.21 78.19 203.38 165.22 203.38 165.22 0 78.19 1.21"/></g></g></g></svg>