<?xml version="1.0" encoding="utf-8"?>
<!-- Generator: Adobe Illustrator 19.1.0, SVG Export Plug-In . SVG Version: 6.00 Build 0)  -->
<!DOCTYPE svg PUBLIC "-//W3C//DTD SVG 1.1//EN" "http://www.w3.org/Graphics/SVG/1.1/DTD/svg11.dtd">
<svg version="1.1" id="Layer_1" xmlns="http://www.w3.org/2000/svg" xmlns:xlink="http://www.w3.org/1999/xlink" x="0px" y="0px"
	 viewBox="-874 626 250 250" style="enable-background:new -874 626 250 250;" xml:space="preserve">
<style type="text/css">
	.st0{fill:#133975;}
	.st1{fill:#184996;}
	.st2{fill:#FFCB05;}
	.st3{fill:#CC2030;}
	.st4{fill:#DD0031;}
	.st5{fill:#FFFFFF;}
	.st6{opacity:0.15;}
	.st7{fill:none;}
	.st8{font-family:'Roboto-Black';}
	.st9{font-size:5.5px;}
	.st10{letter-spacing:2;}
	.st11{fill:none;stroke:#184996;stroke-width:0.75;stroke-miterlimit:10;}
	.st12{fill:none;stroke:#184996;stroke-width:0.6488;stroke-linecap:round;stroke-linejoin:round;stroke-miterlimit:10;}
	.st13{fill:#184996;stroke:#184996;stroke-width:0.6488;stroke-linecap:round;stroke-linejoin:round;stroke-miterlimit:10;}
	.st14{fill:none;stroke:#FFFFFF;stroke-width:0.25;stroke-miterlimit:10;}
	.st15{fill:none;stroke:#FFFFFF;stroke-width:0.6488;stroke-linecap:round;stroke-linejoin:round;stroke-miterlimit:10;}
	.st16{fill:#FFFFFF;stroke:#FFFFFF;stroke-width:0.6488;stroke-linecap:round;stroke-linejoin:round;stroke-miterlimit:10;}
	.st17{fill:#FFFFFF;stroke:#FFFFFF;stroke-width:0.4766;stroke-linecap:round;stroke-linejoin:round;stroke-miterlimit:10;}
	.st18{fill:#B3B3B3;stroke:#B3B3B3;stroke-width:0.4766;stroke-linecap:round;stroke-linejoin:round;stroke-miterlimit:10;}
</style>
<g>
	<path class="st1" d="M-720.4,685.8l-8-2.8l-2.8-1l-23.9-8.5l-29.6,10.6l-12,4.3l-11.7,4.2l4.2,36.3l3.9,34.1l14.3,7.9l6.3-3.4
		l-6.3,3.4l6.3,3.5l2.5,1.4l22.1,12.2l30.3-16.8l12.8-7.1l2-1.1l3.9-34.1l4.2-36.3L-720.4,685.8z M-755,728.8L-755,728.8L-755,728.8
		L-755,728.8z"/>
	<rect x="-755" y="719" class="st2" width="10.7" height="14.1"/>
	<polygon class="st2" points="-779.6,767.4 -779.6,767.4 -788.5,762.6 -779.6,757.7 -779.6,757.7 -779.6,757.7 -788.5,752.9
		-779.6,748.1 -779.6,748.1 -779.6,748.1 -788.5,743.3 -779.6,738.4 -779.6,738.4 -779.6,738.4 -788.5,733.6 -779.6,728.8
		-804.1,728.8 -800.2,762.9 -785.9,770.8 -779.6,767.4 	"/>
	<polygon class="st3" points="-779.6,728.8 -779.6,728.8 -779.6,728.8 	"/>
	<polygon class="st3" points="-755,728.8 -755,728.8 -755,728.8 	"/>
	<g>
		<polygon class="st1" points="-728.4,728.8 -744.3,728.8 -745.1,731.4 -746.7,737.1 -735,733.6 -738.5,745.3 -726.7,741.8
			-730.2,753.6 -718.5,750.1 -721.9,761.9 -710.2,758.4 -711.9,764.1 -709.8,762.9 -705.9,728.8 		"/>
		<polygon class="st1" points="-730.2,753.6 -742,757.1 -738.5,745.3 -750.2,748.8 -746.7,737.1 -755,739.5 -755,744.1 -755,787.9
			-724.7,771.2 -721.9,761.9 -733.7,765.3 		"/>
	</g>
	<polygon class="st4" points="-720.4,685.8 -728.4,682.9 -731.1,682 -737.2,685.3 -728.4,690.1 -737.2,694.9 -728.4,699.8
		-737.2,704.6 -728.4,709.4 -728.4,709.4 -737.2,714.2 -728.4,719.1 -737.2,723.9 -728.4,728.7 -728.4,728.7 -728.4,728.8
		-705.9,728.8 -701.7,692.4 	"/>
	<polygon class="st2" points="-737.2,694.9 -728.4,690.1 -737.2,685.3 -731.1,682 -755,673.4 -755,686.1 -755,686.1 -755,718.1
		-755,724.6 -755,728.7 -755,728.8 -755,728.8 -744.3,728.8 -728.4,728.8 -728.4,728.7 -737.2,723.9 -728.4,719.1 -737.2,714.2
		-728.4,709.4 -728.4,709.4 -737.2,704.6 -728.4,699.8 	"/>
	<g>
		<polygon class="st2" points="-730.2,753.6 -733.7,765.3 -721.9,761.9 -718.5,750.1 		"/>
		<polygon class="st2" points="-721.9,761.9 -724.7,771.2 -711.9,764.1 -710.2,758.4 		"/>
		<polygon class="st2" points="-738.5,745.3 -742,757.1 -730.2,753.6 -726.7,741.8 		"/>
		<polygon class="st2" points="-746.7,737.1 -750.2,748.8 -738.5,745.3 -735,733.6 		"/>
		<polygon class="st2" points="-744.3,728.8 -755,728.8 -755,728.8 -755,731.4 -755,739.5 -746.7,737.1 -745.1,731.4 		"/>
	</g>
	<g>
		<polygon class="st1" points="-784.6,684 -788.1,695.7 -776.3,692.2 -779.8,704 -768.1,700.5 -771.6,712.2 -759.8,708.8
			-763.3,720.5 -755,718.1 -755,686.1 -755,686.1 -755,673.4 		"/>
		<polygon class="st1" points="-771.6,712.2 -783.3,715.7 -779.8,704 -791.6,707.5 -788.1,695.7 -799.9,699.2 -796.6,688.3
			-808.3,692.4 -804.1,728.8 -779.6,728.8 -779.6,728.8 -765.7,728.8 -764.5,724.6 -763.3,720.5 -775,724 		"/>
	</g>
	<polygon class="st3" points="-755,728.8 -755,728.8 -755,728.7 	"/>
	<g>
		<polygon class="st2" points="-771.6,712.2 -775,724 -763.3,720.5 -759.8,708.8 		"/>
		<polygon class="st2" points="-763.3,720.5 -764.5,724.6 -765.7,728.8 -755,728.8 -755,728.7 -755,724.6 -755,718.1 		"/>
		<polygon class="st2" points="-779.8,704 -783.3,715.7 -771.6,712.2 -768.1,700.5 		"/>
		<polygon class="st2" points="-788.1,695.7 -791.6,707.5 -779.8,704 -776.3,692.2 		"/>
		<polygon class="st2" points="-796.6,688.3 -799.9,699.2 -788.1,695.7 -784.6,684 		"/>
	</g>
	<polygon class="st4" points="-755,728.8 -765.7,728.8 -779.6,728.8 -779.6,728.8 -779.6,728.8 -788.5,733.6 -779.6,738.4
		-779.6,738.4 -788.5,743.3 -779.6,748.1 -779.6,748.1 -788.5,752.9 -779.6,757.7 -779.6,757.7 -779.6,757.7 -788.5,762.6
		-779.6,767.4 -779.6,767.4 -785.9,770.8 -779.6,774.3 -777.1,775.7 -755,787.9 -755,744.1 -755,739.5 -755,731.4 -755,728.8
		-755,728.8 	"/>
	<path class="st5" d="M-754.9,685.6l-33.3,74.7l0,0h12.4l0,0l6.7-16.7h28.3l6.7,16.7l0,0h12.4l0,0L-754.9,685.6L-754.9,685.6
		L-754.9,685.6L-754.9,685.6L-754.9,685.6z M-745.2,733.3h-19.5l9.7-23.4L-745.2,733.3z"/>
	<polygon class="st6" points="-755,673.4 -755,686.1 -755,686.1 -755,744.1 -755,744.1 -755,787.9 -755,787.9 -709.8,762.9
		-701.7,692.4 	"/>
</g>
<g>
	<g>
		<path class="st1" d="M-779.7,805l-1.9,0.8l0.8,1.9l-1.2,0.5l-2-4.8l3.2-1.3l0.4,0.9l-2,0.9l0.5,1.1l1.9-0.8L-779.7,805z"/>
		<path class="st1" d="M-771.3,802c0.1,0.5,0.1,0.9,0.1,1.4c-0.1,0.4-0.3,0.8-0.5,1.1c-0.3,0.3-0.6,0.5-1.1,0.6s-0.8,0.1-1.2,0
			c-0.4-0.1-0.7-0.3-1-0.6s-0.5-0.7-0.6-1.2l-0.1-0.3c-0.1-0.5-0.2-0.9-0.1-1.4c0.1-0.4,0.3-0.8,0.5-1.1s0.6-0.5,1.1-0.6
			c0.4-0.1,0.8-0.1,1.2,0c0.4,0.1,0.7,0.3,1,0.7c0.3,0.3,0.5,0.7,0.6,1.2L-771.3,802z M-772.5,802.1c-0.1-0.5-0.3-0.9-0.5-1.1
			c-0.2-0.2-0.5-0.3-0.8-0.2c-0.6,0.2-0.8,0.7-0.6,1.6l0.1,0.4c0.1,0.5,0.3,0.8,0.5,1.1c0.2,0.2,0.5,0.3,0.8,0.2
			c0.3-0.1,0.5-0.3,0.6-0.6c0.1-0.3,0.1-0.7,0-1.2L-772.5,802.1z"/>
		<path class="st1" d="M-764.9,801.6l-0.7,0.1l0.2,1.8l-1.2,0.2l-0.7-5.1l2-0.3c0.6-0.1,1.1,0,1.5,0.2c0.4,0.2,0.6,0.6,0.7,1.1
			c0,0.4,0,0.7-0.1,0.9c-0.1,0.3-0.3,0.5-0.6,0.7l1.3,1.9l0,0.1l-1.3,0.2L-764.9,801.6z M-765.7,800.7l0.8-0.1
			c0.2,0,0.4-0.1,0.5-0.3c0.1-0.1,0.1-0.3,0.1-0.5c0-0.2-0.1-0.4-0.2-0.5c-0.1-0.1-0.3-0.2-0.6-0.1l-0.8,0.1L-765.7,800.7z"/>
		<path class="st1" d="M-754.4,800.8l0.6-3.3l1.2,0l-1.1,5.2l-1.3,0l-0.7-2.9l-0.7,3l-1.3,0l-1.1-5.2l1.2,0l0.6,3.2l0.7-3.3l1.1,0
			L-754.4,800.8z"/>
		<path class="st1" d="M-745.6,802.4l-1.7-0.2l-0.4,0.9l-1.3-0.1l2.5-4.9l1.2,0.1l1.3,5.4l-1.3-0.1L-745.6,802.4z M-746.9,801.3
			l1.1,0.1l-0.4-1.8L-746.9,801.3z"/>
		<path class="st1" d="M-738,802.9l-0.7-0.2l-0.4,1.8l-1.2-0.3l1.2-5l2,0.5c0.6,0.1,1,0.4,1.3,0.7s0.4,0.8,0.2,1.2
			c-0.1,0.4-0.2,0.6-0.4,0.8c-0.2,0.2-0.5,0.3-0.8,0.4l0.6,2.3l0,0.1l-1.3-0.3L-738,802.9z M-738.5,801.8l0.8,0.2
			c0.2,0.1,0.4,0,0.6-0.1s0.2-0.2,0.3-0.5c0.1-0.2,0-0.4-0.1-0.6s-0.2-0.3-0.5-0.3l-0.8-0.2L-738.5,801.8z"/>
		<path class="st1" d="M-732.4,806.4l1.9-4.8l1.6,0.6c0.4,0.2,0.8,0.4,1,0.7s0.4,0.7,0.5,1.1c0.1,0.4,0,0.9-0.2,1.3l-0.1,0.2
			c-0.2,0.4-0.4,0.8-0.7,1.1s-0.7,0.4-1.1,0.5c-0.4,0.1-0.8,0-1.3-0.1L-732.4,806.4z M-729.7,802.9l-1.2,3l0.4,0.2
			c0.3,0.1,0.6,0.1,0.9-0.1c0.3-0.2,0.5-0.5,0.7-1l0.1-0.2c0.2-0.5,0.2-0.9,0.1-1.2s-0.3-0.5-0.6-0.7L-729.7,802.9z"/>
	</g>
	<g>
		<path class="st1" d="M-720.5,816.8c-0.1,0-0.2,0-0.3-0.1c-8.3-6.5-20.7-10.2-33.9-10.2c-13.2,0-25.6,3.7-33.9,10.2
			c-0.2,0.2-0.5,0.1-0.7,0l-8.8-8.8c-0.1-0.1-0.2-0.2-0.1-0.4c0-0.1,0.1-0.3,0.2-0.4c9.5-8.2,25.7-13.1,43.4-13.1
			c17.7,0,33.9,4.9,43.4,13.1c0.1,0.1,0.2,0.2,0.2,0.4s0,0.3-0.1,0.4l-8.8,8.8C-720.3,816.8-720.4,816.8-720.5,816.8z M-754.8,805.5
			c13.3,0,25.7,3.7,34.2,10.1l8.1-8.1c-9.4-7.8-25.1-12.5-42.3-12.5c-17.2,0-32.9,4.7-42.3,12.5l8.1,8.1
			C-780.5,809.2-768,805.5-754.8,805.5z"/>
	</g>
	<g>
		<polyline class="st1" points="-722.8,800.6 -720.7,791.9 -711.7,807.5 		"/>
		<path class="st1" d="M-711.7,808c-0.2,0-0.3-0.1-0.4-0.3l-8.4-14.4l-1.8,7.4c-0.1,0.3-0.3,0.4-0.6,0.4c-0.3-0.1-0.4-0.3-0.4-0.6
			l2.1-8.7c0-0.2,0.2-0.4,0.4-0.4c0.2,0,0.4,0.1,0.5,0.2l9,15.5c0.1,0.2,0.1,0.6-0.2,0.7C-711.5,808-711.6,808-711.7,808z"/>
	</g>
	<g>
		<g>
			<path class="st1" d="M-695.5,805.6c-0.1,0-0.1,0-0.2,0c-6.7-2.6-13.1-3.5-18.9-2.7c-0.3,0-0.5-0.2-0.6-0.4c0-0.3,0.2-0.5,0.4-0.6
				c5.8-0.8,12.2,0.1,19,2.6l4.1-7.9c-4.5-3.3-11.6-5.2-19.2-5.2c-3.4,0-6.7,0.4-9.8,1.1c-0.3,0.1-0.5-0.1-0.6-0.4
				c-0.1-0.3,0.1-0.5,0.4-0.6c3.2-0.8,6.6-1.2,10-1.2c7.9,0,15.5,2.1,20.1,5.7c0.2,0.1,0.3,0.4,0.1,0.6l-4.6,8.7
				C-695.2,805.5-695.3,805.6-695.5,805.6z"/>
		</g>
	</g>
	<g>
		<polygon class="st1" points="-695.5,805.1 -688.5,791.9 -699.6,797.9 		"/>
		<path class="st1" d="M-695.5,805.6c-0.2,0-0.3-0.1-0.4-0.3l-4.1-7.2c-0.1-0.1-0.1-0.3,0-0.4c0-0.1,0.1-0.2,0.2-0.3l11.1-6
			c0.2-0.1,0.4-0.1,0.6,0.1c0.2,0.2,0.2,0.4,0.1,0.6l-7,13.1C-695.1,805.5-695.3,805.6-695.5,805.6
			C-695.5,805.6-695.5,805.6-695.5,805.6z M-698.9,798.1l3.4,5.9l5.8-10.9L-698.9,798.1z"/>
	</g>
	<g>
		<polyline class="st1" points="-787.1,800.6 -789.2,791.9 -798.2,807.5 		"/>
		<path class="st1" d="M-798.2,808c-0.1,0-0.2,0-0.3-0.1c-0.2-0.1-0.3-0.4-0.2-0.7l9-15.5c0.1-0.2,0.3-0.3,0.5-0.2
			c0.2,0,0.4,0.2,0.4,0.4l2.1,8.7c0.1,0.3-0.1,0.5-0.4,0.6c-0.3,0.1-0.5-0.1-0.6-0.4l-1.8-7.4l-8.4,14.4
			C-797.8,807.9-798,808-798.2,808z"/>
	</g>
	<g>
		<g>
			<path class="st1" d="M-814.3,805.6c-0.2,0-0.4-0.1-0.4-0.3l-4.6-8.7c-0.1-0.2-0.1-0.5,0.1-0.6c4.7-3.6,12.2-5.7,20.1-5.7
				c3.5,0,6.9,0.4,10,1.2c0.3,0.1,0.4,0.3,0.4,0.6c-0.1,0.3-0.3,0.4-0.6,0.4c-3.1-0.8-6.4-1.1-9.8-1.1c-7.5,0-14.7,1.9-19.2,5.2
				l4.1,7.9c6.7-2.5,13.1-3.4,19-2.6c0.3,0,0.5,0.3,0.4,0.6c0,0.3-0.3,0.5-0.6,0.4c-5.8-0.8-12.1,0.1-18.9,2.7
				C-814.2,805.6-814.3,805.6-814.3,805.6z"/>
		</g>
	</g>
	<g>
		<polygon class="st1" points="-814.4,805.1 -821.3,791.9 -810.3,797.9 		"/>
		<path class="st1" d="M-814.4,805.6C-814.4,805.6-814.4,805.6-814.4,805.6c-0.2,0-0.4-0.1-0.4-0.3l-7-13.1
			c-0.1-0.2-0.1-0.4,0.1-0.6c0.2-0.2,0.4-0.2,0.6-0.1l11.1,6c0.1,0.1,0.2,0.2,0.2,0.3c0,0.1,0,0.3,0,0.4l-4.1,7.2
			C-814,805.5-814.2,805.6-814.4,805.6z M-820.1,793.2l5.8,10.9l3.4-5.9L-820.1,793.2z"/>
	</g>
	<g>
		<path class="st1" d="M-804.3,796.5l1.9,0.7v1.1l-3.1-1.3V796l3.1-1.3v1.1L-804.3,796.5z"/>
		<path class="st1" d="M-800.5,799.1h-0.9l1.8-5.6h0.9L-800.5,799.1z"/>
	</g>
	<g>
		<path class="st1" d="M-708.2,796.5l-1.9-0.7v-1.1l3.1,1.3v0.9l-3.1,1.3v-1.1L-708.2,796.5z"/>
	</g>
</g>
</svg>
