<svg xmlns="http://www.w3.org/2000/svg" width="377" height="227" viewBox="0 0 377 227">
  <g fill="none" fill-rule="evenodd">
    <path fill="#1E93D1" fill-rule="nonzero" d="M201.1,100.6 C201.1,155.9 156.3,200.7 101,200.7 C45.7,200.7 0.9,155.9 0.9,100.6 C0.9,45.3 45.7,0.5 101,0.5 C156.3,0.5 201.1,45.3 201.1,100.6 Z" transform="translate(175 14)"/>
    <path fill="#EB5A5C" d="M0.1,39.5 C-0.2,37.1 0.8,36.1 3.1,35.4 C3.1,35.4 91.4,4.6 105.5,0.4 C105.8,0.3 106.1,0.2 106.3,0.2 C106.8,0.1 107.7,-1.44328993e-15 108.2,0.2 C118,2.9 205,33.4 211.5,35.4 C213.8,36.1 214.8,37.2 214.5,39.5 C213.3,47.8 198.5,169.1 198.5,173.9 C198.3,176.2 197.5,177.7 195.4,178.9 C195.4,178.9 116.5,222.8 107.9,226 C107.6,226.1 106.8,226.1 106.4,225.9 C98.5,222.9 44.4,192.7 19.2,178.8 C17.1,177.6 16.4,176.1 16.1,173.8 C15,164.7 0.1,39.5 0.1,39.5 Z"/>
    <path fill="#FFF" d="M43.3,112.7 C35.7,112.7 37.6,112.4 35,118.2 C31.2,126.5 27.2,134.8 23.4,143.2 C22.4,145.4 21.9,145.7 20.2,145.7 C14.2,145.7 8.2,145.7 0.2,145.7 C1.4,142.9 2.9,139.9 4.2,137.2 C23.2,95 62,10.5 66.8,0.9 C67.1,0.4 67.4,0.4 67.7,0.9 C75.6,18.2 134,144.8 134.3,145.7 C133.3,145.7 116.3,145.7 114.3,145.7 C111.9,145.7 112.2,145.6 111.4,143.6 C107.1,134.1 102.6,124.4 98.3,114.8 C97.9,114 97.4,112.7 94.3,112.7 C93.3,112.8 50.3,112.7 43.3,112.7 Z M88.3,92.8 C88.2,92 69,51.3 67.4,47.9 C67.3,47.8 67.3,47.8 67.2,47.9 C66.1,50.1 49.4,87.1 47.1,92.8 C49.3,92.8 86.3,92.8 88.3,92.8 Z" transform="translate(40 26)"/>
    <path fill="#FFF" fill-rule="nonzero" d="M58.1,115.2 C42.6,115.2 28.1,109.3 17.2,98.5 C6.3,87.7 0.3,73.2 0.3,57.8 C0.3,42.3 6.3,27.8 17.2,16.9 C28.1,6 42.7,0 58.1,0 C73,0 85,4.6 96.8,14.9 C97.8,15.8 100.4,18.3 100.4,18.3 C100.4,18.3 98,20.7 97,21.6 L90.2,28.5 C87.7,31.2 86.9,31.2 84,28.6 C76.8,22.3 67.2,18.6 58.2,18.6 C48,18.6 38.6,22.7 31.5,30.1 C24.6,37.4 20.8,47.1 20.8,57.3 C20.8,67.5 24.6,77.2 31.6,84.5 C38.7,91.9 48.2,96 58.3,96 C69.6,96 77.2,91 84,86.1 C86.9,84 87,83.6 89.8,86 L89.9,86.1 L97,93.1 C97.8,93.8 100.2,96.2 100.2,96.2 C100.2,96.2 97.8,98.7 96.9,99.6 C86.6,109.8 73.1,115.2 58.1,115.2 Z" transform="translate(225 57)"/>
  </g>
</svg>
