<?xml version="1.0" encoding="UTF-8"?>
<svg width="693px" height="735px" viewBox="0 0 693 735" version="1.1" xmlns="http://www.w3.org/2000/svg" xmlns:xlink="http://www.w3.org/1999/xlink">
    <!-- Generator: Sketch 43.2 (39069) - http://www.bohemiancoding.com/sketch -->
    <title>LOGO1</title>
    <desc>Created with Sketch.</desc>
    <defs>
        <polygon id="path-1" points="0.2703 122.512 341.6185 0.892 692.156 120.35 635.4 571.968 341.6185 734.669 52.432 574.13"></polygon>
        <polygon id="path-3" points="175.88725 60.621 351.156 120.35 294.4 571.968 0.6185 734.669 0.6185 0.892"></polygon>
        <polygon id="path-5" points="82.1961888 2.72848411e-12 97.007 5.04730559 97.007 63.108 102.879 63.108 112.161 63.108 102.879 74.187 102.879 80.882 106.638 80.882 106.638 102.917 116.944 102.917 108.69 124.932 114.451 124.932 114.451 131.252 108.784 131.252 108.784 157.914 138.974 157.914 132.79 181.029 179.78 181.029 154.303 281.177 179.78 281.177 155.295 368.768 179.78 368.768 154.303 459.903 179.78 459.903 156.654775 542.625352 19.0687157 618.822762 0.1173 551.035 25.5959 551.035 0.1173 459.9 25.5959 459.9 0.1173 368.765 24.6027 368.765 0.1173 281.174 25.5959 281.174 0.1173 181.029 44.24 181.029 37.129 157.913 67.1891 157.913 67.1891 131.252 61.2899 131.252 61.2899 124.932 67.7513 124.932 58.0677 102.917 69.3344 102.917 69.3344 80.882 73.2242 80.882 73.2242 74.187 63.9399 63.108 73.2242 63.108 78.261 63.108 78.261 0 82.1961888 0"></polygon>
        <linearGradient x1="58.7301587%" y1="7.89115646%" x2="58.7301587%" y2="147.210884%" id="linearGradient-7">
            <stop stop-color="#E23237" offset="0%"></stop>
            <stop stop-color="#B52E31" offset="100%"></stop>
        </linearGradient>
        <polygon id="path-8" points="82.1961888 2.72848411e-12 97.007 5.04730559 97.007 63.108 102.879 63.108 112.161 63.108 102.879 74.187 102.879 80.882 106.638 80.882 106.638 102.917 116.944 102.917 108.69 124.932 114.451 124.932 114.451 131.252 108.784 131.252 108.784 157.914 138.974 157.914 132.79 181.029 179.78 181.029 154.303 281.177 179.78 281.177 155.295 368.768 179.78 368.768 154.303 459.903 179.78 459.903 156.654775 542.625352 19.0687157 618.822762 0.1173 551.035 25.5959 551.035 0.1173 459.9 25.5959 459.9 0.1173 368.765 24.6027 368.765 0.1173 281.174 25.5959 281.174 0.1173 181.029 44.24 181.029 37.129 157.913 67.1891 157.913 67.1891 131.252 61.2899 131.252 61.2899 124.932 67.7513 124.932 58.0677 102.917 69.3344 102.917 69.3344 80.882 73.2242 80.882 73.2242 74.187 63.9399 63.108 73.2242 63.108 78.261 63.108 78.261 0 82.1961888 0"></polygon>
        <linearGradient x1="74.59557%" y1="7.89115646%" x2="74.59557%" y2="107.363946%" id="linearGradient-10">
            <stop stop-color="#E23237" offset="0%"></stop>
            <stop stop-color="#B52E31" offset="100%"></stop>
        </linearGradient>
        <path d="M0.6173,472.454 L212.159,0.567 L435.13,475.157 L359.1847,473.806 L311.2694,366.158 L213.167,366.158 L211,366.158 L120.4603,366.158 L78.917,472.454 L0.6173,472.454 Z M284.5908,287.456 L212.6996,137.187 L149.4569,287.456 L211.6163,259.564 L211.6163,287.456 L284.5908,287.456 Z" id="path-11"></path>
        <path d="M33.9062,0 L33.9062,7.188 L21.0938,7.188 L21.0938,44.688 L12.8125,44.688 L12.8125,7.188 L0,7.188 L0,0 L33.9062,0 Z M38.5,44.688 L30,44.688 L48.9688,0 L57.875,0 L77.25,44.688 L68.3438,44.688 L63.25,32.5 L48.4062,32.5 L51.25,25.312 L60.25,25.312 L53.2188,8.531 L38.5,44.688 Z M91,0 L91,44.688 L82.7188,44.688 L82.7188,0 L91,0 Z M96.7812,0 L105.1875,0 L109.9688,32.094 L121.5938,0 L129.5625,0 L140.4375,30.844 L145.5,0 L153.6562,0 L145.25,44.688 L137.375,44.688 L125.0938,9.625 L111.9062,44.688 L104.125,44.688 L96.7812,0 Z M164.0312,44.688 L155.5312,44.688 L174.5,0 L183.4062,0 L202.7812,44.688 L193.875,44.688 L188.7812,32.5 L173.9375,32.5 L176.7812,25.312 L185.7812,25.312 L178.75,8.531 L164.0312,44.688 Z M208.25,44.688 L208.25,0 L216.5312,0 L240.125,32.562 L240.125,0 L248.0938,0 L248.0938,44.688 L239.8125,44.688 L216.2188,11.438 L216.2188,44.688 L208.25,44.688 Z" id="path-13"></path>
    </defs>
    <g id="Page-9" stroke="none" stroke-width="1" fill="none" fill-rule="evenodd">
        <g id="LOGO1">
            <g id="Left">
                <mask id="mask-2" fill="white">
                    <use xlink:href="#path-1"></use>
                </mask>
                <g id="Clip-6"></g>
                <polygon id="Fill-5" fill="#E23237" mask="url(#mask-2)" points="-4.7297 739.669 697.1559 739.669 697.1559 -4.1081 -4.7297 -4.1081"></polygon>
            </g>
            <g id="Right" transform="translate(341.000000, 0.000000)">
                <g id="Group-13">
                    <mask id="mask-4" fill="white">
                        <use xlink:href="#path-3"></use>
                    </mask>
                    <g id="Clip-12"></g>
                    <polygon id="Fill-11" fill="#B52E31" mask="url(#mask-4)" points="-4.3815 739.669 356.1558 739.669 356.1558 -4.1081 -4.3815 -4.1081"></polygon>
                </g>
                <g id="Group-20" transform="translate(86.000000, 58.000000)">
                    <g id="Group-16">
                        <mask id="mask-6" fill="white">
                            <use xlink:href="#path-5"></use>
                        </mask>
                        <g id="Clip-15"></g>
                        <polygon id="Fill-14" fill="url(#linearGradient-7)" mask="url(#mask-6)" points="-427 677 266 677 266 -58 -427 -58"></polygon>
                    </g>
                    <g id="Group-19">
                        <mask id="mask-9" fill="white">
                            <use xlink:href="#path-8"></use>
                        </mask>
                        <g id="Clip-18"></g>
                        <polygon id="Fill-17" fill="url(#linearGradient-10)" mask="url(#mask-9)" points="-427 677 266 677 266 -58 -427 -58"></polygon>
                    </g>
                </g>
            </g>
            <g id="Center" transform="translate(130.000000, 101.000000)">
                <mask id="mask-12" fill="white">
                    <use xlink:href="#path-11"></use>
                </mask>
                <g id="Clip-23"></g>
                <polygon id="Fill-22" fill="#FFFFFF" mask="url(#mask-12)" points="-4.3827 480.157 440.13 480.157 440.13 -4.4332 -4.3827 -4.4332"></polygon>
            </g>
            <g id="Taiwan" transform="translate(222.000000, 407.000000)">
                <mask id="mask-14" fill="white">
                    <use xlink:href="#path-13"></use>
                </mask>
                <g id="Clip-26"></g>
                <polygon id="Fill-25" fill="#E23237" mask="url(#mask-14)" points="-5 49.688 253.0938 49.688 253.0938 -4.9995 -5 -4.9995"></polygon>
            </g>
        </g>
    </g>
</svg>