<?xml version="1.0" encoding="utf-8"?>
<!-- Generator: Adobe Illustrator 22.0.1, SVG Export Plug-In . SVG Version: 6.00 Build 0)  -->
<svg version="1.1" id="Layer_1" xmlns="http://www.w3.org/2000/svg" xmlns:xlink="http://www.w3.org/1999/xlink" x="0px" y="0px"
	 viewBox="0 0 257 270.1" style="enable-background:new 0 0 257 270.1;" xml:space="preserve">
<style type="text/css">
	.st0{fill:#FBDF00;}
	.st1{fill:#BF092D;}
	.st2{fill:#FFFFFF;}
	.st3{opacity:0.2;fill:#52092D;}
</style>
<g>
	<polygon class="st0" points="45.8,195.8 29.8,64 128.2,28.9 227.2,64 211.4,195.8 128,240 	"/>
	<g>
		<path class="st1" d="M128.2,255l-95.4-52.7L16.8,54.9l111.3-39.7l112.1,39.7l-16.6,147.4L128.2,255z M35.9,200.1l92.2,51l92.2-51
			l16.1-143L128.2,18.7L20.5,57.2L35.9,200.1z"/>
	</g>
	<path class="st1" d="M128.2,23.5L24.3,60.6l14.8,137.1l89.1,49.2l89.1-49.2l15.5-137.1L128.2,23.5z M128.2,34.3l93.5,33.2
		l-8.4,74.3l-36.8-25c-1.2-0.9-2.8-1.2-4.2-0.7c-10.4,3.4-44.2,18.3-44.2,18.3l-39.9-40c-1.9-1.9-5-2-6.9-0.1l-39.1,36.3l-6.8-63.2
		L128.2,34.3z"/>
	<g>
		<path class="st2" d="M98.7,175.7h5.2c0.6,0,1.1,0.1,1.6,0.3c0.5,0.2,0.9,0.4,1.3,0.7c0.4,0.3,0.7,0.7,0.9,1.1
			c0.2,0.4,0.3,0.9,0.3,1.4c0,0.7-0.2,1.3-0.5,1.8c-0.3,0.5-0.8,0.8-1.3,1.1v0.1c0.7,0.2,1.2,0.6,1.7,1.2c0.4,0.5,0.6,1.2,0.6,2
			c0,0.6-0.1,1.1-0.3,1.5c-0.2,0.5-0.5,0.8-0.9,1.2c-0.4,0.3-0.9,0.6-1.4,0.7c-0.5,0.2-1.1,0.3-1.7,0.3h-5.4V175.7z M103.8,181.2
			c0.6,0,1-0.2,1.4-0.5c0.3-0.3,0.5-0.7,0.5-1.1c0-0.4-0.2-0.8-0.5-1.1c-0.3-0.3-0.7-0.5-1.3-0.5h-2.6v3.2H103.8z M104,186.8
			c0.6,0,1.1-0.2,1.5-0.5c0.3-0.3,0.5-0.7,0.5-1.2c0-0.5-0.2-0.9-0.5-1.2c-0.3-0.3-0.8-0.5-1.5-0.5h-2.7v3.4H104z"/>
		<path class="st2" d="M128,189.4c-1,0-1.9-0.2-2.8-0.5c-0.9-0.4-1.6-0.9-2.2-1.5c-0.6-0.6-1.1-1.4-1.5-2.2
			c-0.4-0.9-0.5-1.8-0.5-2.7c0-1,0.2-1.9,0.5-2.7c0.4-0.9,0.8-1.6,1.5-2.2c0.6-0.6,1.4-1.1,2.2-1.5c0.9-0.4,1.8-0.5,2.8-0.5
			c1,0,1.9,0.2,2.8,0.5c0.9,0.4,1.6,0.9,2.2,1.5c0.6,0.6,1.1,1.4,1.5,2.2c0.4,0.9,0.5,1.8,0.5,2.7c0,1-0.2,1.9-0.5,2.7
			c-0.4,0.9-0.8,1.6-1.5,2.2c-0.6,0.6-1.4,1.1-2.2,1.5C129.9,189.2,129,189.4,128,189.4z M128,187c0.6,0,1.2-0.1,1.7-0.3
			s1-0.5,1.4-0.9c0.4-0.4,0.7-0.9,1-1.4c0.2-0.6,0.3-1.2,0.3-1.9c0-0.7-0.1-1.3-0.3-1.9c-0.2-0.6-0.5-1-1-1.4
			c-0.4-0.4-0.9-0.7-1.4-0.9s-1.1-0.3-1.7-0.3c-0.6,0-1.2,0.1-1.7,0.3c-0.5,0.2-1,0.5-1.4,0.9c-0.4,0.4-0.7,0.9-1,1.4
			c-0.2,0.6-0.3,1.2-0.3,1.9c0,0.7,0.1,1.3,0.3,1.9c0.2,0.6,0.5,1,1,1.4c0.4,0.4,0.9,0.7,1.4,0.9C126.8,186.9,127.4,187,128,187z"/>
		<path class="st2" d="M154.3,181.7h6.5c0,0.1,0.1,0.3,0.1,0.5c0,0.2,0,0.4,0,0.6c0,0.9-0.1,1.7-0.4,2.4c-0.3,0.8-0.7,1.4-1.2,2
			c-0.6,0.6-1.3,1.1-2.1,1.5c-0.8,0.3-1.8,0.5-2.9,0.5c-1,0-1.9-0.2-2.7-0.5c-0.9-0.3-1.6-0.8-2.2-1.5c-0.6-0.6-1.1-1.4-1.5-2.2
			c-0.4-0.9-0.6-1.8-0.6-2.8c0-1,0.2-1.9,0.6-2.8c0.4-0.9,0.9-1.6,1.5-2.2c0.6-0.6,1.4-1.1,2.2-1.5c0.9-0.3,1.8-0.5,2.7-0.5
			c1.1,0,2,0.2,2.9,0.6c0.9,0.4,1.6,0.9,2.2,1.5l-1.7,1.7c-0.4-0.5-0.9-0.8-1.5-1.1c-0.5-0.2-1.2-0.4-1.9-0.4
			c-0.6,0-1.2,0.1-1.7,0.3c-0.5,0.2-1,0.5-1.4,0.9c-0.4,0.4-0.7,0.9-1,1.4c-0.2,0.6-0.4,1.2-0.4,1.9c0,0.7,0.1,1.3,0.4,1.9
			c0.2,0.6,0.6,1,1,1.4c0.4,0.4,0.9,0.7,1.4,0.9c0.5,0.2,1.1,0.3,1.8,0.3c0.7,0,1.3-0.1,1.8-0.3c0.5-0.2,0.9-0.5,1.3-0.8
			c0.2-0.2,0.5-0.5,0.6-0.8c0.2-0.3,0.3-0.7,0.4-1.1h-4.2V181.7z"/>
	</g>
	<polygon class="st2" points="60.3,189.5 128.2,66.4 196.1,189.5 173.5,189.5 128.2,107.2 83,189.5 	"/>
	<polygon class="st3" points="217.3,197.7 128.2,246.9 128.2,23.5 232.8,60.6 	"/>
</g>
</svg>
