<svg id="svg" version="1.1" xmlns="http://www.w3.org/2000/svg" xmlns:xlink="http://www.w3.org/1999/xlink" width="400" height="432.47553461399053" viewBox="0, 0, 400,432.47553461399053"><g id="svgg"><path id="path0" d="M197.386 100.337 C 190.237 100.687,182.884 102.025,177.764 103.907 C 177.403 104.039,176.823 104.248,176.476 104.370 C 167.216 107.621,157.381 114.013,150.518 121.243 C 118.422 155.053,127.967 209.072,169.736 230.001 L 172.100 231.185 171.577 232.898 C 171.290 233.840,170.858 235.259,170.618 236.052 C 170.377 236.845,168.628 242.564,166.731 248.761 C 163.278 260.043,157.386 279.309,156.560 282.019 C 156.318 282.812,154.667 288.206,152.892 294.006 C 147.357 312.080,145.421 318.405,145.180 319.198 L 144.947 319.964 199.648 319.964 C 248.086 319.964,254.349 319.933,254.349 319.694 C 254.349 319.546,254.195 318.958,254.007 318.387 C 253.819 317.817,253.457 316.661,253.203 315.818 C 252.486 313.440,248.433 300.175,248.053 298.963 C 247.867 298.369,247.494 297.152,247.226 296.260 C 246.957 295.367,246.426 293.623,246.044 292.384 C 245.040 289.124,241.076 276.159,240.532 274.358 C 240.278 273.515,239.963 272.501,239.833 272.105 C 239.703 271.708,239.391 270.694,239.139 269.851 C 238.575 267.965,234.460 254.486,233.993 252.997 C 233.806 252.402,233.434 251.185,233.166 250.293 C 232.897 249.401,232.365 247.657,231.983 246.417 C 231.601 245.178,230.432 241.365,229.384 237.945 C 228.337 234.525,227.436 231.584,227.382 231.411 C 227.313 231.186,227.428 231.041,227.782 230.907 C 228.055 230.803,229.172 230.271,230.264 229.724 C 249.811 219.939,263.571 201.241,267.130 179.630 C 272.998 143.994,250.515 110.688,214.691 101.950 C 210.316 100.882,202.027 100.110,197.386 100.337 M205.858 111.403 C 230.310 114.816,249.207 138.209,246.688 161.947 C 246.331 165.317,246.328 165.318,245.690 162.235 C 245.103 159.401,244.361 156.612,243.292 153.222 C 236.605 132.007,217.241 115.696,194.186 111.858 C 192.977 111.657,193.429 111.462,195.626 111.238 C 196.743 111.125,197.941 111.001,198.288 110.964 C 199.487 110.836,203.434 111.065,205.858 111.403 M214.455 241.560 C 215.184 243.389,216.441 246.629,217.248 248.761 C 218.056 250.892,219.116 253.691,219.604 254.980 C 220.092 256.269,220.561 257.526,220.647 257.774 C 220.732 258.022,220.998 258.752,221.238 259.396 C 221.478 260.041,222.491 262.799,223.489 265.525 C 224.487 268.251,225.644 271.334,226.060 272.375 C 228.371 278.159,229.180 280.837,230.278 286.345 C 231.268 291.310,232.049 299.054,231.560 299.054 C 231.519 299.054,231.367 299.099,231.224 299.154 C 230.766 299.329,227.668 293.837,225.726 289.410 C 223.483 284.294,222.340 280.880,221.261 276.070 C 220.589 273.076,219.608 268.971,217.922 262.100 C 216.318 255.560,215.996 254.234,215.321 251.374 C 215.064 250.284,214.739 248.905,214.598 248.310 C 214.458 247.715,214.135 246.296,213.881 245.155 C 213.628 244.015,213.255 242.352,213.054 241.460 C 212.852 240.568,212.615 239.516,212.527 239.122 C 212.368 238.416,212.539 238.049,212.964 238.183 C 213.056 238.212,213.727 239.732,214.455 241.560 " stroke="none" fill="#f3f2f2" fill-rule="evenodd"></path><path id="path1" d="M198.558 0.361 C 198.161 0.552,197.717 0.712,197.570 0.715 C 197.423 0.718,196.876 0.883,196.353 1.082 C 195.831 1.280,194.971 1.606,194.443 1.807 C 193.915 2.008,193.327 2.205,193.136 2.246 C 192.945 2.287,192.100 2.576,191.257 2.889 C 190.415 3.201,189.360 3.567,188.914 3.703 C 187.733 4.061,186.391 4.531,185.672 4.837 C 185.327 4.984,184.799 5.164,184.500 5.237 C 183.891 5.386,182.563 5.838,181.343 6.312 C 180.897 6.485,179.883 6.839,179.090 7.098 C 178.297 7.358,176.836 7.859,175.845 8.212 C 174.854 8.565,173.921 8.886,173.772 8.926 C 173.623 8.966,172.325 9.415,170.888 9.924 C 169.450 10.433,167.909 10.960,167.463 11.095 C 167.017 11.231,165.962 11.596,165.119 11.906 C 164.277 12.217,163.344 12.537,163.046 12.618 C 162.749 12.699,161.816 13.020,160.973 13.330 C 160.131 13.641,159.076 14.005,158.630 14.139 C 158.184 14.272,156.845 14.726,155.656 15.147 C 151.354 16.670,146.806 18.244,146.012 18.485 C 145.566 18.621,144.511 18.986,143.668 19.297 C 142.826 19.608,141.893 19.930,141.595 20.014 C 140.979 20.188,136.013 21.916,134.385 22.522 C 133.790 22.744,133.060 22.993,132.763 23.077 C 132.465 23.160,130.680 23.768,128.797 24.429 C 126.913 25.089,125.007 25.738,124.561 25.869 C 123.663 26.135,120.854 27.150,120.625 27.291 C 120.545 27.340,120.282 27.420,120.041 27.468 C 119.801 27.515,118.792 27.851,117.801 28.213 C 116.809 28.576,115.754 28.934,115.455 29.009 C 115.156 29.084,114.628 29.267,114.283 29.415 C 113.499 29.751,112.026 30.275,111.311 30.470 C 111.014 30.551,109.594 31.034,108.157 31.543 C 106.719 32.052,105.300 32.538,105.002 32.624 C 104.327 32.819,101.881 33.673,101.397 33.883 C 101.199 33.969,100.874 34.081,100.676 34.131 C 100.478 34.182,99.504 34.518,98.513 34.879 C 97.521 35.239,96.467 35.601,96.169 35.684 C 95.519 35.864,94.126 36.346,93.015 36.773 C 91.661 37.295,90.438 37.704,89.719 37.876 C 89.344 37.966,88.898 38.120,88.728 38.218 C 88.557 38.316,87.566 38.675,86.525 39.015 C 84.320 39.736,83.709 39.946,82.432 40.424 C 81.915 40.617,81.469 40.757,81.440 40.736 C 81.412 40.714,81.064 40.834,80.667 41.001 C 79.855 41.345,75.548 42.846,74.718 43.075 C 73.940 43.290,72.497 43.810,71.611 44.193 C 71.191 44.376,70.719 44.525,70.563 44.525 C 70.406 44.525,69.899 44.674,69.434 44.858 C 68.493 45.229,68.116 45.362,65.525 46.242 C 64.534 46.579,63.033 47.097,62.190 47.393 C 57.417 49.070,53.742 50.337,53.267 50.468 C 52.970 50.550,52.037 50.875,51.194 51.190 C 50.352 51.506,49.297 51.870,48.851 52.000 C 48.405 52.130,47.350 52.493,46.507 52.808 C 45.665 53.122,44.778 53.419,44.537 53.468 C 44.296 53.516,44.029 53.600,43.943 53.653 C 43.732 53.784,41.020 54.757,40.018 55.061 C 39.572 55.197,37.666 55.848,35.782 56.509 C 33.898 57.169,32.114 57.777,31.816 57.860 C 31.519 57.943,30.586 58.265,29.743 58.576 C 28.900 58.887,27.846 59.250,27.400 59.384 C 26.954 59.518,25.899 59.886,25.056 60.203 C 24.214 60.520,23.280 60.840,22.981 60.915 C 22.682 60.990,22.154 61.172,21.809 61.319 C 21.090 61.625,19.748 62.094,18.567 62.453 C 18.121 62.589,16.701 63.076,15.412 63.536 C 14.123 63.996,12.826 64.438,12.528 64.518 C 12.231 64.598,11.672 64.796,11.287 64.960 C 10.902 65.123,10.394 65.291,10.157 65.334 C 9.920 65.377,9.469 65.541,9.154 65.698 C 8.840 65.854,8.366 66.021,8.100 66.068 C 7.834 66.115,7.262 66.314,6.828 66.511 C 6.394 66.708,5.893 66.871,5.714 66.873 C 5.536 66.875,5.130 67.012,4.813 67.176 C 4.496 67.340,3.993 67.535,3.695 67.608 C 3.077 67.759,1.667 68.242,0.676 68.642 C -0.141 68.972,-0.140 68.964,0.349 72.285 C 0.547 73.623,0.868 75.895,1.064 77.332 C 1.260 78.770,1.586 81.122,1.788 82.560 C 1.991 83.997,2.198 85.539,2.247 85.985 C 2.297 86.431,2.456 87.607,2.599 88.598 C 3.068 91.830,3.774 96.833,4.152 99.594 C 4.356 101.082,4.683 103.475,4.880 104.912 C 5.076 106.350,5.393 108.662,5.583 110.050 C 5.773 111.438,6.100 113.831,6.309 115.367 C 6.683 118.113,7.067 120.913,7.755 125.913 C 7.947 127.301,8.265 129.572,8.462 130.960 C 8.660 132.348,8.866 133.930,8.920 134.475 C 8.974 135.020,9.142 136.178,9.292 137.048 C 9.443 137.918,9.594 139.013,9.628 139.482 C 9.662 139.950,9.857 141.429,10.062 142.767 C 10.267 144.105,10.606 146.458,10.815 147.995 C 11.025 149.531,11.354 151.945,11.547 153.357 C 11.739 154.770,12.055 157.082,12.248 158.495 C 13.192 165.411,13.386 166.829,13.700 169.085 C 14.061 171.682,14.583 175.474,15.164 179.721 C 15.360 181.158,15.681 183.429,15.877 184.768 C 16.072 186.106,16.270 187.607,16.315 188.103 C 16.361 188.598,16.558 190.059,16.753 191.347 C 16.949 192.636,17.280 194.948,17.490 196.485 C 17.996 200.203,18.509 203.950,18.932 207.030 C 19.122 208.418,19.445 210.771,19.648 212.258 C 19.852 213.745,20.181 216.138,20.379 217.575 C 20.577 219.013,20.895 221.325,21.086 222.713 C 21.277 224.101,21.598 226.413,21.799 227.850 C 22.001 229.288,22.207 230.829,22.258 231.275 C 22.308 231.721,22.477 232.979,22.631 234.069 C 22.786 235.160,23.109 237.431,23.349 239.117 C 23.756 241.984,24.011 243.824,24.870 250.113 C 25.060 251.501,25.379 253.813,25.579 255.250 C 25.778 256.688,26.112 259.121,26.320 260.658 C 26.836 264.467,27.344 268.187,27.760 271.203 C 27.952 272.591,28.269 274.903,28.464 276.341 C 28.660 277.778,28.992 280.131,29.203 281.568 C 29.414 283.006,29.622 284.584,29.665 285.075 C 29.709 285.566,29.859 286.661,30.000 287.509 C 30.140 288.356,30.302 289.455,30.360 289.950 C 30.418 290.446,30.633 292.028,30.837 293.466 C 31.040 294.903,31.367 297.256,31.563 298.693 C 31.758 300.131,32.075 302.443,32.267 303.831 C 32.683 306.847,33.191 310.567,33.707 314.376 C 34.243 318.330,34.753 322.005,35.158 324.831 C 35.350 326.169,35.547 327.670,35.596 328.166 C 35.644 328.662,35.800 329.757,35.942 330.599 C 36.083 331.442,36.246 332.618,36.303 333.213 C 36.360 333.808,36.528 335.106,36.676 336.097 C 36.824 337.089,37.160 339.340,37.422 341.100 C 37.684 342.859,37.963 344.299,38.041 344.299 C 38.119 344.299,38.742 344.616,39.425 345.003 C 40.107 345.390,41.149 345.971,41.739 346.295 C 42.329 346.619,43.177 347.084,43.623 347.329 C 44.069 347.575,45.002 348.077,45.696 348.445 C 47.151 349.218,48.601 350.012,50.354 350.997 C 51.032 351.378,51.641 351.692,51.706 351.694 C 51.772 351.696,52.028 351.857,52.276 352.050 C 52.524 352.244,52.862 352.405,53.027 352.407 C 53.192 352.409,53.354 352.486,53.387 352.577 C 53.442 352.728,55.412 353.844,57.233 354.756 C 57.630 354.955,58.279 355.303,58.675 355.530 C 59.072 355.756,59.842 356.178,60.388 356.467 C 60.933 356.756,61.594 357.138,61.857 357.316 C 62.121 357.493,62.465 357.639,62.624 357.639 C 62.782 357.639,62.911 357.713,62.911 357.804 C 62.911 357.895,63.276 358.109,63.722 358.279 C 64.169 358.449,64.534 358.647,64.534 358.717 C 64.534 358.788,64.838 358.980,65.210 359.144 C 65.581 359.308,66.129 359.584,66.426 359.757 C 67.296 360.264,69.187 361.308,70.933 362.248 C 71.825 362.728,72.880 363.306,73.276 363.533 C 73.673 363.760,74.322 364.109,74.718 364.308 C 75.115 364.508,75.845 364.896,76.341 365.171 C 76.836 365.446,77.769 365.960,78.414 366.314 C 79.058 366.668,79.950 367.162,80.397 367.411 C 81.335 367.937,83.446 369.085,84.362 369.569 C 84.709 369.752,85.115 369.969,85.264 370.051 C 85.412 370.133,85.730 370.304,85.970 370.430 C 86.663 370.793,87.882 371.468,90.401 372.880 C 92.462 374.035,94.323 375.050,96.440 376.171 C 98.261 377.136,100.137 378.171,102.180 379.338 C 102.810 379.697,103.438 379.991,103.577 379.991 C 103.717 379.991,103.831 380.063,103.831 380.152 C 103.831 380.240,104.135 380.448,104.507 380.615 C 104.878 380.781,105.570 381.134,106.044 381.400 C 106.518 381.666,107.410 382.157,108.027 382.491 C 110.935 384.064,114.298 385.916,114.646 386.135 C 114.795 386.228,115.241 386.467,115.638 386.666 C 116.361 387.028,117.717 387.767,120.234 389.171 C 120.978 389.585,121.830 390.048,122.127 390.199 C 122.425 390.350,123.073 390.707,123.569 390.992 C 124.065 391.276,124.795 391.676,125.192 391.880 C 126.225 392.411,129.187 394.035,131.832 395.522 C 132.510 395.903,133.119 396.216,133.184 396.219 C 133.250 396.221,133.506 396.381,133.754 396.575 C 134.002 396.769,134.320 396.929,134.461 396.932 C 134.602 396.934,134.845 397.046,135.002 397.182 C 135.158 397.318,135.895 397.752,136.638 398.148 C 138.473 399.126,139.812 399.855,141.019 400.536 C 142.350 401.288,144.479 402.432,145.381 402.881 C 145.777 403.079,146.224 403.319,146.372 403.415 C 147.195 403.949,153.900 407.612,154.845 408.044 C 155.192 408.203,155.516 408.395,155.566 408.472 C 155.615 408.549,155.940 408.743,156.287 408.903 C 156.634 409.063,157.323 409.419,157.819 409.694 C 158.315 409.970,159.288 410.510,159.982 410.896 C 160.676 411.281,161.789 411.887,162.454 412.243 C 163.120 412.598,164.053 413.106,164.527 413.372 C 165.002 413.638,165.694 413.992,166.066 414.158 C 166.438 414.324,166.742 414.532,166.742 414.621 C 166.742 414.709,166.884 414.783,167.057 414.785 C 167.231 414.788,167.575 414.948,167.823 415.142 C 168.071 415.336,168.329 415.496,168.396 415.498 C 168.463 415.501,169.355 415.977,170.379 416.557 C 172.364 417.683,173.990 418.573,176.025 419.649 C 176.719 420.015,177.693 420.540,178.188 420.815 C 178.684 421.090,179.495 421.538,179.991 421.812 C 180.487 422.085,181.298 422.537,181.794 422.815 C 182.580 423.257,183.455 423.729,186.210 425.200 C 187.139 425.695,188.718 426.565,189.870 427.215 C 191.078 427.897,193.263 429.074,194.142 429.516 C 194.489 429.690,194.813 429.885,194.863 429.947 C 194.947 430.054,195.347 430.272,197.116 431.177 C 197.512 431.379,198.242 431.783,198.738 432.074 C 199.912 432.763,200.076 432.755,201.501 431.934 C 202.163 431.553,202.826 431.189,202.974 431.124 C 203.123 431.060,203.650 430.769,204.146 430.479 C 204.642 430.188,205.372 429.784,205.768 429.581 C 206.165 429.378,206.611 429.141,206.760 429.055 C 206.909 428.968,207.233 428.790,207.481 428.658 C 208.531 428.099,210.327 427.116,210.996 426.733 C 211.393 426.506,212.041 426.158,212.438 425.960 C 213.566 425.395,216.141 423.999,217.035 423.467 C 217.910 422.947,219.572 422.042,220.730 421.454 C 221.127 421.253,222.039 420.765,222.758 420.369 C 223.477 419.973,224.653 419.324,225.372 418.928 C 226.091 418.532,227.003 418.044,227.400 417.844 C 227.796 417.644,228.526 417.245,229.022 416.957 C 229.518 416.670,230.167 416.309,230.464 416.155 C 230.762 416.001,231.897 415.385,232.988 414.787 C 234.078 414.188,235.295 413.536,235.692 413.337 C 236.088 413.139,236.778 412.767,237.224 412.512 C 237.670 412.256,238.797 411.645,239.729 411.154 C 240.660 410.664,241.646 410.103,241.920 409.908 C 242.193 409.713,242.526 409.552,242.660 409.550 C 242.793 409.548,243.105 409.387,243.353 409.193 C 243.601 408.999,243.857 408.839,243.923 408.837 C 243.988 408.835,244.600 408.516,245.283 408.129 C 246.907 407.209,248.250 406.482,250.563 405.271 C 251.604 404.726,252.659 404.141,252.907 403.971 C 253.155 403.801,253.804 403.436,254.349 403.160 C 254.894 402.884,255.746 402.431,256.242 402.153 C 256.737 401.874,257.447 401.511,257.819 401.345 C 258.191 401.178,258.495 400.970,258.495 400.882 C 258.495 400.793,258.624 400.721,258.782 400.721 C 258.941 400.721,259.285 400.572,259.549 400.389 C 259.812 400.206,260.473 399.831,261.018 399.555 C 261.564 399.279,262.416 398.826,262.911 398.547 C 263.407 398.269,264.117 397.906,264.489 397.739 C 264.860 397.573,265.164 397.377,265.164 397.304 C 265.164 397.231,265.469 397.040,265.840 396.881 C 266.212 396.722,267.409 396.101,268.499 395.501 C 269.590 394.901,270.807 394.248,271.203 394.049 C 271.600 393.851,272.249 393.503,272.645 393.277 C 273.042 393.050,273.975 392.534,274.718 392.129 C 275.462 391.725,276.363 391.229,276.722 391.027 C 277.080 390.825,277.566 390.559,277.803 390.435 C 278.040 390.311,278.355 390.143,278.504 390.060 C 278.653 389.978,279.058 389.761,279.405 389.578 C 280.309 389.101,282.422 387.952,283.371 387.421 C 283.817 387.171,284.750 386.667,285.444 386.299 C 288.113 384.887,289.597 384.083,289.770 383.955 C 289.994 383.790,292.239 382.570,293.139 382.125 C 293.504 381.944,293.854 381.715,293.915 381.615 C 293.977 381.515,294.138 381.433,294.274 381.433 C 294.484 381.433,297.474 379.839,298.873 378.981 C 299.121 378.829,299.628 378.576,300.000 378.419 C 300.372 378.262,300.676 378.076,300.676 378.005 C 300.676 377.935,301.041 377.737,301.487 377.567 C 301.933 377.397,302.298 377.183,302.298 377.092 C 302.298 377.001,302.444 376.927,302.623 376.927 C 302.801 376.927,303.024 376.851,303.119 376.758 C 303.354 376.526,305.843 375.164,306.670 374.814 C 307.041 374.657,307.346 374.466,307.346 374.390 C 307.346 374.313,307.630 374.157,307.978 374.042 C 308.326 373.927,308.711 373.738,308.834 373.622 C 308.957 373.506,309.504 373.188,310.050 372.914 C 311.399 372.237,312.987 371.343,313.195 371.143 C 313.289 371.052,313.512 370.978,313.691 370.978 C 313.869 370.978,314.015 370.906,314.015 370.817 C 314.015 370.729,314.320 370.521,314.691 370.356 C 315.360 370.058,315.973 369.733,318.432 368.375 C 321.278 366.802,322.252 366.276,322.938 365.940 C 323.335 365.746,323.862 365.466,324.110 365.318 C 325.105 364.725,327.176 363.583,328.797 362.734 C 331.187 361.483,333.000 360.501,333.213 360.344 C 333.373 360.227,335.094 359.287,336.909 358.328 C 337.256 358.144,337.661 357.927,337.810 357.844 C 337.959 357.762,338.277 357.592,338.517 357.466 C 338.757 357.340,339.284 357.054,339.688 356.831 C 340.634 356.308,342.767 355.151,343.578 354.719 C 345.237 353.836,346.816 352.976,347.634 352.509 C 348.956 351.756,350.955 350.667,351.780 350.250 C 352.177 350.050,353.110 349.552,353.853 349.144 C 354.597 348.735,355.773 348.110,356.467 347.754 C 357.161 347.398,357.772 347.046,357.825 346.972 C 357.878 346.898,358.203 346.706,358.546 346.546 C 358.890 346.385,359.576 346.023,360.072 345.741 C 360.568 345.459,361.237 345.105,361.559 344.953 C 362.019 344.738,362.144 344.569,362.139 344.173 C 362.135 343.896,362.338 342.330,362.589 340.694 C 362.840 339.058,363.210 336.503,363.412 335.016 C 363.614 333.529,363.937 331.176,364.128 329.788 C 364.320 328.400,364.648 326.007,364.856 324.470 C 365.364 320.720,365.873 316.999,366.311 313.835 C 366.510 312.397,366.828 310.086,367.018 308.698 C 367.208 307.310,367.530 304.957,367.733 303.470 C 367.937 301.983,368.259 299.630,368.449 298.242 C 368.639 296.854,368.997 294.299,369.244 292.564 C 369.491 290.829,369.864 288.152,370.073 286.616 C 370.282 285.079,370.610 282.686,370.801 281.298 C 371.435 276.705,371.865 273.580,372.240 270.843 C 372.443 269.356,372.766 267.003,372.958 265.615 C 373.149 264.227,373.477 261.834,373.686 260.297 C 373.896 258.761,374.229 256.327,374.426 254.890 C 374.624 253.452,374.945 251.100,375.141 249.662 C 375.336 248.224,375.695 245.669,375.937 243.984 C 376.179 242.298,376.547 239.662,376.753 238.125 C 376.960 236.589,377.281 234.236,377.467 232.898 C 377.653 231.559,377.978 229.207,378.189 227.670 C 378.401 226.133,378.735 223.700,378.933 222.262 C 379.130 220.825,379.449 218.493,379.641 217.080 C 380.104 213.681,380.606 210.004,381.075 206.580 C 381.285 205.043,381.618 202.609,381.815 201.172 C 382.442 196.585,382.884 193.412,383.335 190.266 C 383.576 188.580,383.936 186.005,384.135 184.543 C 384.648 180.781,385.138 177.194,385.582 173.952 C 385.792 172.416,386.125 169.982,386.322 168.544 C 386.518 167.107,386.842 164.754,387.041 163.317 C 387.240 161.879,387.560 159.547,387.753 158.134 C 387.945 156.721,388.264 154.410,388.461 152.997 C 388.658 151.584,388.852 150.063,388.893 149.617 C 388.933 149.171,389.094 147.995,389.249 147.003 C 389.529 145.220,390.132 140.982,390.826 135.917 C 391.023 134.479,391.341 132.168,391.533 130.780 C 391.724 129.392,392.040 127.080,392.234 125.642 C 392.795 121.480,393.318 117.645,393.709 114.826 C 394.425 109.675,394.777 107.124,395.141 104.461 C 395.871 99.121,396.236 96.481,396.662 93.466 C 396.900 91.780,397.265 89.144,397.474 87.607 C 397.682 86.070,398.013 83.657,398.208 82.245 C 398.404 80.832,398.724 78.520,398.919 77.107 C 399.115 75.694,399.438 73.443,399.638 72.105 C 400.134 68.776,400.158 68.946,399.144 68.584 C 398.673 68.416,397.963 68.156,397.566 68.005 C 397.170 67.855,396.602 67.669,396.305 67.591 C 396.007 67.514,395.074 67.193,394.232 66.878 C 393.389 66.562,392.334 66.193,391.888 66.057 C 391.442 65.922,390.388 65.556,389.545 65.246 C 388.702 64.935,387.769 64.613,387.472 64.530 C 387.174 64.447,385.390 63.839,383.506 63.178 C 381.622 62.518,379.716 61.866,379.270 61.731 C 378.824 61.595,377.769 61.230,376.927 60.919 C 376.084 60.608,374.948 60.207,374.403 60.026 C 373.059 59.582,372.305 59.313,371.305 58.918 C 370.840 58.735,370.333 58.585,370.176 58.585 C 370.020 58.585,369.549 58.436,369.128 58.254 C 368.235 57.867,366.790 57.348,366.021 57.137 C 365.723 57.056,364.304 56.573,362.866 56.064 C 361.429 55.556,360.009 55.068,359.712 54.981 C 358.809 54.718,357.414 54.225,356.557 53.866 C 356.111 53.680,355.584 53.493,355.385 53.451 C 354.848 53.338,352.367 52.471,352.011 52.273 C 351.841 52.178,351.395 52.023,351.020 51.930 C 350.276 51.744,348.994 51.317,347.724 50.831 C 346.614 50.407,345.220 49.925,344.570 49.741 C 343.695 49.494,339.735 48.134,339.342 47.946 C 338.944 47.755,336.587 46.930,335.737 46.684 C 335.439 46.597,334.142 46.150,332.853 45.690 C 331.564 45.230,330.144 44.746,329.698 44.614 C 328.548 44.275,327.210 43.799,326.320 43.414 C 325.900 43.231,325.443 43.082,325.306 43.082 C 325.168 43.082,324.741 42.949,324.357 42.787 C 323.973 42.624,323.416 42.424,323.119 42.343 C 322.457 42.161,320.569 41.501,318.522 40.735 C 317.679 40.420,316.746 40.095,316.449 40.013 C 316.151 39.931,314.245 39.285,312.213 38.576 C 310.180 37.867,308.274 37.221,307.977 37.139 C 307.262 36.944,305.789 36.421,305.005 36.085 C 304.660 35.936,304.132 35.755,303.833 35.681 C 303.534 35.607,302.479 35.248,301.487 34.883 C 300.496 34.518,299.441 34.153,299.144 34.072 C 298.846 33.992,297.913 33.667,297.071 33.352 C 296.228 33.037,295.174 32.671,294.727 32.539 C 294.281 32.407,292.375 31.759,290.491 31.098 C 288.607 30.438,286.823 29.830,286.525 29.748 C 285.906 29.577,283.079 28.545,282.860 28.410 C 282.780 28.360,282.518 28.280,282.277 28.231 C 282.036 28.182,281.027 27.845,280.036 27.483 C 279.045 27.121,277.990 26.759,277.693 26.679 C 277.395 26.600,276.462 26.277,275.620 25.961 C 274.777 25.646,273.722 25.280,273.276 25.148 C 272.830 25.016,270.924 24.368,269.040 23.708 C 267.156 23.047,265.372 22.444,265.074 22.366 C 264.777 22.289,264.128 22.058,263.632 21.854 C 263.137 21.649,262.163 21.301,261.469 21.080 C 260.775 20.858,259.842 20.538,259.396 20.367 C 258.112 19.876,256.829 19.442,256.239 19.297 C 255.940 19.224,255.413 19.044,255.067 18.897 C 254.332 18.585,252.972 18.110,251.825 17.767 C 251.058 17.537,248.408 16.632,247.228 16.197 C 246.931 16.087,245.755 15.682,244.615 15.297 C 243.475 14.912,242.420 14.532,242.271 14.454 C 242.123 14.375,241.271 14.083,240.379 13.805 C 239.486 13.527,238.391 13.157,237.945 12.983 C 236.777 12.527,235.415 12.061,234.790 11.902 C 234.493 11.827,233.966 11.644,233.619 11.496 C 232.771 11.135,231.338 10.649,230.503 10.441 C 230.128 10.347,229.682 10.193,229.512 10.098 C 229.171 9.907,226.701 9.041,226.152 8.919 C 225.961 8.876,225.373 8.677,224.845 8.477 C 224.317 8.276,223.459 7.963,222.938 7.781 C 222.418 7.598,221.708 7.346,221.361 7.219 C 221.014 7.093,220.365 6.881,219.919 6.748 C 218.783 6.409,217.418 5.933,216.677 5.618 C 216.332 5.471,215.804 5.291,215.505 5.218 C 214.835 5.054,213.372 4.550,212.528 4.193 C 212.181 4.045,211.532 3.820,211.086 3.691 C 210.640 3.562,209.585 3.199,208.743 2.884 C 207.900 2.568,206.967 2.244,206.670 2.163 C 206.372 2.082,205.439 1.760,204.597 1.447 C 203.754 1.134,202.780 0.806,202.431 0.718 C 202.083 0.630,201.498 0.433,201.130 0.279 C 200.247 -0.090,199.438 -0.065,198.558 0.361 M209.644 100.833 C 213.740 101.490,215.434 101.875,220.009 103.191 C 220.505 103.334,221.478 103.653,222.172 103.900 C 223.363 104.324,223.857 104.513,226.203 105.444 C 236.666 109.595,248.358 118.897,255.216 128.526 C 256.132 129.813,258.419 133.276,258.549 133.574 C 258.614 133.722,258.912 134.250,259.212 134.745 C 262.106 139.532,265.685 148.785,266.602 153.853 C 266.674 154.250,266.865 155.223,267.026 156.016 C 269.032 165.897,268.383 177.949,265.283 188.373 C 264.570 190.771,262.994 195.094,262.468 196.092 C 262.381 196.259,261.922 197.206,261.449 198.197 C 258.090 205.232,253.804 211.281,248.225 216.858 C 245.216 219.866,245.004 220.059,242.543 222.031 C 240.270 223.851,240.319 223.816,237.314 225.825 C 234.621 227.626,232.336 228.926,229.149 230.471 C 228.228 230.918,227.508 231.343,227.550 231.415 C 227.592 231.487,228.206 233.452,228.914 235.782 C 229.622 238.112,230.394 240.626,230.629 241.370 C 230.864 242.114,231.226 243.290,231.432 243.984 C 232.214 246.616,235.442 257.201,235.857 258.495 C 236.095 259.238,236.469 260.455,236.689 261.199 C 236.908 261.942,237.233 262.997,237.411 263.542 C 237.589 264.087,237.911 265.142,238.127 265.886 C 238.342 266.629,238.662 267.684,238.837 268.229 C 239.012 268.774,239.328 269.788,239.539 270.482 C 239.853 271.514,243.279 282.737,244.822 287.787 C 245.034 288.481,245.348 289.495,245.520 290.041 C 245.692 290.586,246.002 291.600,246.209 292.294 C 246.732 294.051,250.117 305.141,250.665 306.895 C 251.362 309.121,251.749 310.380,252.192 311.852 C 252.415 312.596,252.737 313.650,252.907 314.196 C 253.077 314.741,253.386 315.755,253.594 316.449 C 254.121 318.211,254.567 319.653,254.665 319.919 C 254.731 320.099,243.672 320.144,199.749 320.144 C 169.499 320.144,144.750 320.094,144.750 320.033 C 144.750 319.972,144.884 319.506,145.047 318.997 C 145.843 316.519,146.006 315.999,146.353 314.826 C 146.777 313.399,150.348 301.701,150.866 300.045 C 151.052 299.450,151.422 298.233,151.687 297.341 C 151.953 296.449,152.276 295.394,152.406 294.998 C 152.535 294.601,152.820 293.668,153.039 292.925 C 153.257 292.181,153.592 291.086,153.782 290.491 C 154.153 289.328,157.677 277.794,158.298 275.710 C 158.504 275.016,158.818 274.002,158.995 273.457 C 159.325 272.437,159.747 271.065,160.409 268.860 C 160.618 268.166,161.644 264.799,162.690 261.379 C 163.736 257.959,164.761 254.592,164.967 253.898 C 165.174 253.204,165.488 252.190,165.666 251.645 C 165.844 251.100,166.206 249.923,166.470 249.031 C 167.078 246.979,167.353 246.080,167.820 244.615 C 168.025 243.970,169.033 240.699,170.060 237.344 L 171.928 231.245 170.101 230.364 C 125.935 209.049,117.706 148.676,154.664 117.106 C 155.606 116.302,156.417 115.595,156.467 115.537 C 156.576 115.408,159.440 113.229,160.072 112.794 C 164.695 109.613,169.503 106.933,173.256 105.444 C 173.788 105.233,174.628 104.899,175.124 104.701 C 180.290 102.640,188.318 100.773,193.871 100.339 C 197.072 100.089,206.930 100.398,209.644 100.833 M194.996 111.394 C 193.954 111.596,194.021 111.699,195.350 111.940 C 196.523 112.151,199.466 112.870,201.667 113.482 C 203.124 113.887,206.823 115.144,208.112 115.672 C 208.707 115.915,209.433 116.210,209.726 116.327 C 220.879 120.773,232.160 130.821,238.400 141.866 C 241.908 148.076,245.056 156.823,245.973 162.911 C 246.317 165.192,246.692 162.337,246.678 157.548 C 246.655 149.876,244.541 142.345,240.327 134.923 C 234.302 124.312,223.057 115.763,210.906 112.555 C 206.450 111.378,198.187 110.775,194.996 111.394 M212.528 238.402 C 212.528 238.455,212.693 239.206,212.894 240.070 C 213.270 241.682,213.663 243.413,214.334 246.417 C 214.544 247.359,214.909 248.941,215.145 249.932 C 215.382 250.924,215.787 252.627,216.046 253.718 C 216.973 257.624,217.790 260.969,218.421 263.452 C 218.774 264.840,219.123 266.260,219.196 266.607 C 219.270 266.954,219.620 268.414,219.973 269.851 C 220.327 271.289,220.790 273.236,221.002 274.178 C 222.131 279.193,223.107 282.651,224.056 284.993 C 225.318 288.107,225.389 288.272,226.616 290.942 C 228.317 294.644,230.864 299.054,231.302 299.054 C 231.679 299.054,231.330 293.380,230.736 289.847 C 229.552 282.799,228.626 279.354,226.405 273.727 C 225.897 272.438,224.867 269.721,224.118 267.688 C 223.368 265.656,222.559 263.466,222.320 262.821 C 222.081 262.177,221.738 261.244,221.558 260.748 C 220.672 258.308,219.758 255.834,219.593 255.430 C 219.492 255.183,219.247 254.534,219.047 253.988 C 218.529 252.571,217.780 250.578,217.489 249.842 C 217.351 249.495,217.040 248.684,216.796 248.040 C 216.131 246.281,214.166 241.213,213.791 240.288 C 213.610 239.842,213.363 239.214,213.243 238.891 C 213.065 238.412,212.528 238.045,212.528 238.402 " stroke="none" fill="#d00434" fill-rule="evenodd"></path><path id="path2" d="M152.219 119.378 L 151.690 119.964 152.276 119.435 C 152.598 119.143,152.862 118.880,152.862 118.849 C 152.862 118.709,152.713 118.832,152.219 119.378 M131.294 168.635 C 131.294 169.527,131.324 169.915,131.362 169.496 C 131.400 169.078,131.400 168.348,131.363 167.874 C 131.326 167.400,131.295 167.742,131.294 168.635 M151.239 216.945 C 151.878 217.589,152.441 218.116,152.491 218.116 C 152.540 218.116,152.058 217.589,151.420 216.945 C 150.781 216.300,150.218 215.773,150.168 215.773 C 150.119 215.773,150.601 216.300,151.239 216.945 " stroke="none" fill="#de5b79" fill-rule="evenodd"></path><path id="path3" d="M196.800 100.356 C 197.123 100.396,197.650 100.396,197.972 100.356 C 198.294 100.316,198.031 100.283,197.386 100.283 C 196.742 100.283,196.478 100.316,196.800 100.356 M201.487 100.356 C 201.809 100.396,202.337 100.396,202.659 100.356 C 202.981 100.316,202.717 100.283,202.073 100.283 C 201.429 100.283,201.165 100.316,201.487 100.356 M206.805 100.710 C 206.978 100.755,207.262 100.755,207.436 100.710 C 207.609 100.665,207.467 100.628,207.120 100.628 C 206.773 100.628,206.631 100.665,206.805 100.710 M199.500 110.991 C 199.820 111.031,200.388 111.031,200.762 110.992 C 201.136 110.953,200.874 110.921,200.180 110.920 C 199.486 110.919,199.180 110.951,199.500 110.991 M245.696 118.161 C 246.033 118.508,246.348 118.792,246.398 118.792 C 246.447 118.792,246.213 118.508,245.877 118.161 C 245.540 117.814,245.224 117.530,245.175 117.530 C 245.125 117.530,245.360 117.814,245.696 118.161 M250.023 122.488 C 250.359 122.835,250.675 123.119,250.724 123.119 C 250.774 123.119,250.539 122.835,250.203 122.488 C 249.866 122.141,249.551 121.857,249.501 121.857 C 249.452 121.857,249.686 122.141,250.023 122.488 M231.275 123.529 C 231.275 123.556,231.904 124.185,232.672 124.926 L 234.069 126.273 232.722 124.876 C 231.470 123.579,231.275 123.397,231.275 123.529 M228.571 129.338 C 229.708 130.478,230.679 131.411,230.729 131.411 C 230.778 131.411,229.889 130.478,228.752 129.338 C 227.615 128.197,226.644 127.265,226.594 127.265 C 226.545 127.265,227.435 128.197,228.571 129.338 M246.847 157.909 C 246.847 159.148,246.876 159.655,246.911 159.036 C 246.946 158.416,246.946 157.402,246.911 156.782 C 246.876 156.163,246.847 156.670,246.847 157.909 M267.730 162.416 C 267.730 162.763,267.767 162.904,267.812 162.731 C 267.858 162.557,267.858 162.274,267.812 162.100 C 267.767 161.927,267.730 162.068,267.730 162.416 M131.462 164.308 C 131.463 164.804,131.498 164.985,131.540 164.711 C 131.581 164.437,131.580 164.032,131.537 163.810 C 131.495 163.588,131.461 163.813,131.462 164.308 M267.910 164.939 C 267.910 165.286,267.947 165.428,267.993 165.255 C 268.038 165.081,268.038 164.797,267.993 164.624 C 267.947 164.450,267.910 164.592,267.910 164.939 M131.462 172.961 C 131.463 173.457,131.498 173.638,131.540 173.364 C 131.581 173.090,131.580 172.684,131.537 172.463 C 131.495 172.241,131.461 172.465,131.462 172.961 M267.734 174.763 C 267.736 175.160,267.773 175.301,267.816 175.077 C 267.859 174.853,267.857 174.528,267.812 174.356 C 267.767 174.183,267.732 174.367,267.734 174.763 M148.535 214.027 C 148.535 214.058,148.799 214.321,149.121 214.613 L 149.707 215.142 149.178 214.556 C 148.684 214.010,148.535 213.887,148.535 214.027 M245.955 218.882 L 245.426 219.468 246.012 218.939 C 246.558 218.445,246.680 218.297,246.541 218.297 C 246.510 218.297,246.247 218.560,245.955 218.882 M231.507 295.539 C 231.509 296.034,231.544 296.216,231.585 295.942 C 231.626 295.668,231.625 295.262,231.583 295.040 C 231.540 294.819,231.506 295.043,231.507 295.539 M254.349 319.783 C 254.349 319.903,235.887 319.979,199.594 320.009 L 144.840 320.055 199.685 320.099 C 248.335 320.139,254.529 320.114,254.529 319.874 C 254.529 319.725,254.489 319.603,254.439 319.603 C 254.389 319.603,254.349 319.684,254.349 319.783 " stroke="none" fill="#de849c" fill-rule="evenodd"></path><path id="path4" d="M267.910 163.497 C 267.910 163.844,267.947 163.986,267.993 163.813 C 268.038 163.639,268.038 163.355,267.993 163.182 C 267.947 163.008,267.910 163.150,267.910 163.497 M268.108 168.635 C 268.109 169.329,268.141 169.590,268.180 169.216 C 268.219 168.842,268.219 168.275,268.179 167.955 C 268.139 167.635,268.107 167.941,268.108 168.635 M248.125 216.900 L 246.868 218.206 248.175 216.949 C 249.389 215.782,249.564 215.593,249.432 215.593 C 249.404 215.593,248.816 216.181,248.125 216.900 " stroke="none" fill="#cf3c64" fill-rule="evenodd"></path><path id="path5" d="M197.521 111.168 C 197.744 111.211,198.110 111.211,198.333 111.168 C 198.556 111.125,198.373 111.090,197.927 111.090 C 197.481 111.090,197.298 111.125,197.521 111.168 M131.276 166.471 C 131.278 166.868,131.315 167.009,131.358 166.785 C 131.401 166.561,131.399 166.236,131.354 166.064 C 131.309 165.891,131.274 166.075,131.276 166.471 M131.276 170.798 C 131.278 171.194,131.315 171.335,131.358 171.111 C 131.401 170.887,131.399 170.562,131.354 170.390 C 131.309 170.218,131.274 170.401,131.276 170.798 M231.507 297.882 C 231.509 298.378,231.544 298.559,231.585 298.285 C 231.626 298.011,231.625 297.605,231.583 297.384 C 231.540 297.162,231.506 297.386,231.507 297.882 " stroke="none" fill="#e43c5c" fill-rule="evenodd"></path><path id="path6" d="M199.510 111.174 C 200.034 111.211,200.845 111.210,201.313 111.173 C 201.781 111.136,201.352 111.106,200.361 111.107 C 199.369 111.107,198.986 111.138,199.510 111.174 M228.662 129.247 C 229.450 130.041,230.136 130.689,230.185 130.689 C 230.235 130.689,229.630 130.041,228.842 129.247 C 228.053 128.454,227.368 127.805,227.318 127.805 C 227.268 127.805,227.873 128.454,228.662 129.247 M131.276 165.210 C 131.278 165.606,131.315 165.747,131.358 165.523 C 131.401 165.299,131.399 164.974,131.354 164.802 C 131.309 164.630,131.274 164.813,131.276 165.210 M131.276 172.059 C 131.278 172.456,131.315 172.597,131.358 172.373 C 131.401 172.149,131.399 171.824,131.354 171.652 C 131.309 171.479,131.274 171.663,131.276 172.059 " stroke="none" fill="#d52c54" fill-rule="evenodd"></path><path id="path7" d="" stroke="none" fill="#ec7c9c" fill-rule="evenodd"></path><path id="path8" d="M204.101 100.350 C 204.274 100.395,204.558 100.395,204.732 100.350 C 204.905 100.304,204.763 100.267,204.416 100.267 C 204.069 100.267,203.927 100.304,204.101 100.350 " stroke="none" fill="#ce1c4c" fill-rule="evenodd"></path></g></svg>