<svg xmlns="http://www.w3.org/2000/svg" viewBox="0 0 430.84 456.87"><defs><style>.cls-1{fill:#1c1314;}.cls-1,.cls-4,.cls-5{fill-rule:evenodd;}.cls-2,.cls-5{fill:#fff;}.cls-3{fill:#b00;}.cls-4{opacity:0.5;}</style></defs><g id="Layer_2" data-name="Layer 2"><g id="Layer_1-2" data-name="Layer 1"><polygon class="cls-1" points="430.84 74.49 419.13 167.8 418.36 173.99 413.7 211.14 412.91 217.34 395.56 355.68 212.62 456.87 32.63 356.99 16.27 216.01 15.54 209.77 14.18 197.97 13.31 190.57 11.22 172.52 10.5 166.3 8.17 146.28 7.32 138.89 0 75.81 212.62 0 430.84 74.49"/><g id="stripes"><polygon class="cls-2" points="212.62 143.08 212.62 149.56 101.49 187.17 99.28 187.92 95.3 189.27 93.38 189.91 88.29 191.62 85.18 192.68 83.5 193.26 80.34 194.32 74.91 196.16 72.91 196.84 69.03 198.16 67.58 198.64 16.27 216.01 15.54 209.77 64.32 193.27 68.86 191.74 74.09 189.97 76.09 189.29 79.35 188.19 81.77 187.37 83.45 186.8 85.84 185.99 88.87 184.97 90.78 184.33 96.11 182.52 101.23 180.78 201.53 146.84 212.62 143.08"/><polygon class="cls-3" points="212.62 104.36 212.62 143.08 201.53 146.84 101.23 180.78 96.11 182.52 90.78 184.33 88.87 184.97 85.84 185.99 83.45 186.8 81.77 187.37 79.35 188.19 76.09 189.29 74.09 189.97 68.86 191.74 64.32 193.27 15.54 209.77 14.18 197.97 13.31 190.57 11.22 172.52 54.83 157.76 57.65 156.81 61.85 155.39 63.76 154.74 68.42 153.16 71.45 152.14 73.14 151.57 76.2 150.53 81.17 148.85 83.17 148.16 87.29 146.77 89.36 146.07 198 109.3 212.62 104.36"/><polygon class="cls-2" points="212.62 97.92 212.62 104.36 198 109.3 89.36 146.07 87.29 146.77 83.17 148.16 81.17 148.85 76.2 150.53 73.14 151.57 71.45 152.14 68.42 153.16 63.76 154.74 61.85 155.39 57.65 156.81 54.83 157.76 11.22 172.52 10.5 166.3 54.87 151.29 57.34 150.45 59.27 149.8 66.35 147.4 69.72 146.27 71.42 145.69 74.79 144.55 82.35 141.99 84.34 141.31 85.79 140.83 198 102.86 212.6 97.92 212.62 97.92"/><polygon class="cls-2" points="413.7 211.14 412.91 217.34 266.43 167.77 214.3 150.12 212.63 149.56 212.62 149.56 212.62 143.08 223.71 146.84 262.84 160.08 413.7 211.14"/><polygon class="cls-3" points="418.36 173.99 413.7 211.14 262.84 160.08 223.71 146.84 212.62 143.08 212.62 104.36 227.24 109.3 241.33 114.07 418.36 173.99"/><polygon class="cls-2" points="419.13 167.8 418.36 173.99 241.33 114.07 227.24 109.3 212.62 104.36 212.62 97.92 212.63 97.92 227.24 102.86 237.74 106.4 419.13 167.8"/></g><g id="shield"><path id="spearshape" class="cls-2" d="M120.17,213.17l-1.24,1.44L55.31,142.05c-2.6-.1-4.64-2.43-6.68-4.76a69.22,69.22,0,0,1-10.85-16.67A61.85,61.85,0,0,1,52.34,133c2,2.33,4.09,4.66,4.21,7.66Z"/><path id="spearshape-2" data-name="spearshape" class="cls-2" d="M70.06,226.74l1.8.63,18.29-94.75c2.19-1.41,2.77-4.45,3.36-7.49a69.18,69.18,0,0,0,1-19.87,61.57,61.57,0,0,0-6.35,18c-.59,3-1.18,6.08.23,8.73Z"/><path class="cls-3" d="M102.85,165.15c2.24,8.27,2.73,17,2.34,26-.06,1.31-.2,2.82-.41,4.47-.1.79-.22,1.61-.35,2.45h0c-1.52,9.41-5.05,21.29-9.17,22.41S82.09,213.12,76,205.76c-.54-.66-1.06-1.3-1.54-1.93-1-1.32-1.9-2.56-2.61-3.66C67,192.61,63,184.82,60.77,176.55s-2.73-17-2.34-26c.06-1.3.2-2.82.41-4.47.1-.79.22-1.6.36-2.45h0c1.51-9.41,5-21.29,9.16-22.4s13.17,7.35,19.23,14.71h0c.54.66,1.06,1.3,1.54,1.94,1,1.31,1.9,2.55,2.61,3.65C96.61,149.08,100.61,156.87,102.85,165.15Z"/><ellipse cx="98.47" cy="166.33" rx="4.54" ry="25.71" transform="translate(-40.07 31.54) rotate(-15.16)"/><ellipse cx="65.15" cy="175.36" rx="4.54" ry="25.71" transform="translate(-43.59 23.14) rotate(-15.16)"/><ellipse class="cls-2" cx="81.81" cy="170.84" rx="3.63" ry="6.43" transform="translate(-41.83 27.34) rotate(-15.16)"/><path id="deco_br" data-name="deco br" class="cls-2" d="M84.33,176.66s5.74,7.32,9.38,20.76,2.38,22.66,2.38,22.66Z"/><path id="deco_br-2" data-name="deco br" class="cls-2" d="M79.29,165s-5.74-7.32-9.39-20.76-2.37-22.66-2.37-22.66Z"/><path id="deco_br-3" data-name="deco br" class="cls-2" d="M82.57,177.13s-1.26,9.22,2.38,22.66,9.39,20.77,9.39,20.77Z"/><path id="deco_br-4" data-name="deco br" class="cls-2" d="M81.05,164.56s1.26-9.22-2.38-22.66-9.39-20.77-9.39-20.77Z"/></g><polygon id="overlay" class="cls-4" points="430.84 74.49 419.13 167.8 418.36 173.99 413.7 211.14 412.91 217.34 395.56 355.68 212.62 456.87 212.62 0 430.84 74.49"/><path id="A" class="cls-5" d="M266.43,167.77l-3.59-7.69-21.51-46-3.59-7.67L213,53.39l-.33.74L189.4,105.77l-3.42,7.6-20.54,45.68L162,166.69,80.44,348.1l49.44-1,26.7-66.59H274.92l29,67.25,47.13,1ZM174,241.63l38.58-92v0l.65-1.55,1,2.11,43.8,91.51Z"/></g></g></svg>