<svg xmlns="http://www.w3.org/2000/svg" viewBox="0 0 417.1 448"><defs><style>.cls-1{fill:#dd0031;}.cls-2{fill:#c3002f;}.cls-3{fill:#fff;}.cls-4{isolation:isolate;}</style></defs><title>Asset 1</title><g id="Layer_2" data-name="Layer 2"><g id="Layer_1-2" data-name="Layer 1"><g id="bg"><polygon class="cls-1" points="208.5 0 0 74.4 31.8 350.1 208.5 448 385.3 350.1 417.1 74.4 208.5 0"/><polygon class="cls-2" points="208.5 0 208.5 49.7 208.5 49.5 208.5 276.4 208.5 276.4 208.5 448 208.5 448 385.3 350.1 417.1 74.4 208.5 0"/></g><g id="Layer_1-3" data-name="Layer 1"><g id="athens"><path class="cls-3" d="M243.3,419.3a7.3,7.3,0,0,1-3.6-3.4,26.89,26.89,0,0,1-2.5-7.1,18.81,18.81,0,0,1-.3-7.4,5.92,5.92,0,0,1,2.5-4.5,4,4,0,0,1,3.8,0,15.16,15.16,0,0,1,4.4,3.6c.1.1.3.2.4.1s.1-.2,0-.4l-.6-2.4c-.3-1.5-.6-2.9-1-4.3a3,3,0,0,1-.1-1.3,1.13,1.13,0,0,1,.5-.8,3.19,3.19,0,0,1,1.8-.2,7.94,7.94,0,0,1,2.2.6,2.44,2.44,0,0,1,1.4,1.2,19.1,19.1,0,0,1,1.2,5.7,39.31,39.31,0,0,1,0,8.4,2.58,2.58,0,0,0,2.8,0,4.2,4.2,0,0,0,1.7-1.5,14.56,14.56,0,0,0,.9-1.6,4.13,4.13,0,0,1,.4-.9l.1-.1a1.1,1.1,0,0,1,.8,0,3.56,3.56,0,0,1,1.3,1.4,6.74,6.74,0,0,1,.8,3,5.38,5.38,0,0,1-.8,2.8,4.44,4.44,0,0,1-1.8,1.8,3.41,3.41,0,0,1-3.1-.1,10.63,10.63,0,0,1-3.6-3,21.49,21.49,0,0,1-1.9,5.9,8.68,8.68,0,0,1-3.5,3.8A4.09,4.09,0,0,1,243.3,419.3Zm4.5-5.9a36,36,0,0,0,.8-6.5v-3.3a8.39,8.39,0,0,0-2.9-1.9,2.65,2.65,0,0,0-2.3.2,4.07,4.07,0,0,0-1.6,3.2,16.3,16.3,0,0,0,0,5.4,14.38,14.38,0,0,0,1.4,4.8c.9,1.6,1.8,2,2.9,1.4C246.8,416.3,247.3,415.2,247.8,413.4Z"/><path class="cls-3" d="M274.7,401a20.08,20.08,0,0,1-6-4.6,37.07,37.07,0,0,1-5.2-7.1,28.54,28.54,0,0,1-3.1-8.6,20.66,20.66,0,0,1-.1-8.2,7.05,7.05,0,0,1,3.2-5c1.4-.8,3.2-.7,5.3.3a22,22,0,0,1,6.3,4.8,35.39,35.39,0,0,1,5.4,7.3,26.43,26.43,0,0,1,2.9,8.3,19.56,19.56,0,0,1,0,8,7.8,7.8,0,0,1-3.5,5.1A6,6,0,0,1,274.7,401Zm.7-22.2a.49.49,0,0,0,.3-.6,2.77,2.77,0,0,0-.5-1.2c-1.3-2.4-2.6-4-3.9-4.6a4.72,4.72,0,0,0-4.4.4,4.81,4.81,0,0,0-2.7,3.8,20,20,0,0,0,1,7.3l.1.1c.1.2.3.2.5.1Zm4.2,12.5a15.13,15.13,0,0,0-1.3-7.2l-.1-.2c-.1-.3-.3-.3-.6-.2l-10.2,5.6c-.4.2-.4.5-.2.9,1.6,2.9,3.1,4.7,4.6,5.6a4.6,4.6,0,0,0,4.8,0A5,5,0,0,0,279.6,391.3Z"/><path class="cls-3" d="M299.5,388.4a5.61,5.61,0,0,1-4.1-2.9,4.33,4.33,0,0,1-.4-2.4,18.63,18.63,0,0,1,.5-2.7.85.85,0,0,0,0-.7c-.1-.2-.3-.3-.7-.3a4.18,4.18,0,0,1-2.3-.3,3.79,3.79,0,0,1-1.6-1.7,5.92,5.92,0,0,1-.6-4.2,11.45,11.45,0,0,1,2.1-4.5,13.87,13.87,0,0,1,4.1-3.5,4.19,4.19,0,0,1,2.6-.5,2.45,2.45,0,0,1,1.8,1.2,2.31,2.31,0,0,1,0,2,3.52,3.52,0,0,1-1.3,1.8,13.47,13.47,0,0,0-4.5,3.7c-.9,1.3-1.2,2.4-.7,3.3a1.34,1.34,0,0,0,.8.7,1.17,1.17,0,0,0,1.1-.2c.3-.1.7-.7,1.3-1.7a25,25,0,0,1,1.8-2.4,4.73,4.73,0,0,1,1.7-1.5,2.43,2.43,0,0,1,1.9-.4,2.33,2.33,0,0,1,1.2,1.2,3.86,3.86,0,0,1,.3,3,3.73,3.73,0,0,1-1.8,2.4l-1.6.8c-.7.3-1.4.6-2,.9a3.61,3.61,0,0,0-1.5,1.5,1.83,1.83,0,0,0-.1,1.6,1.75,1.75,0,0,0,1.6.7,5.65,5.65,0,0,0,2.6-.7,13.83,13.83,0,0,0,2.9-2.3,16.76,16.76,0,0,0,2.3-2.8q.75-1,.9-1.2c.5-.3.9-.2,1.2.4a5.56,5.56,0,0,1,.5,3.5,10.3,10.3,0,0,1-1.5,4,7.57,7.57,0,0,1-3,2.9A7.45,7.45,0,0,1,299.5,388.4Z"/><path class="cls-3" d="M327.6,374.4a1.37,1.37,0,0,1-1-.8c0-.1-.2-.5-.5-1.3a29.21,29.21,0,0,0-1.8-3.6,19.48,19.48,0,0,0-3.4-4.9,5.16,5.16,0,0,0-3-1.7,5.08,5.08,0,0,0-3.2.8,14.29,14.29,0,0,0-2.6,1.9l-.2.1q-.45.3-.9-.6a4.87,4.87,0,0,1-.5-2.8,7.48,7.48,0,0,1,1-3.2,6.89,6.89,0,0,1,2.4-2.4,3.28,3.28,0,0,1,3.3-.2,8.07,8.07,0,0,1,2.9,2.7,61.4,61.4,0,0,1,3.5,5.8l1,1.7c.2.3.4.5.5.4a1.83,1.83,0,0,0,.6-.8,19,19,0,0,0,1.4-5.8,9.92,9.92,0,0,0-.9-5.6,8,8,0,0,0-1.5-2,6.58,6.58,0,0,1-.9-.9.64.64,0,0,1,0-.6,1.83,1.83,0,0,1,.8-.6,3.12,3.12,0,0,1,3.2.3,7.39,7.39,0,0,1,2.8,3,15.37,15.37,0,0,1,1.7,9,29.51,29.51,0,0,1-2.2,9.3c-.1.3-.3.7-.5,1.2a13,13,0,0,1-.6,1.2c-.2.2-.3.4-.5.5A3.87,3.87,0,0,1,327.6,374.4Z"/><path class="cls-3" d="M351.4,361.9a4.53,4.53,0,0,1-1.6-.3,2,2,0,0,1-1-.7c-.5-.9-.4-1.5.4-1.9a6.68,6.68,0,0,0,2-1.7,7,7,0,0,0,1-1.9c.2-.6.2-1.1,0-1.3s-.2-.3-.4-.3a1.27,1.27,0,0,0-.6.1l-2.3,1.3-2.3,1.3a3.25,3.25,0,0,1-3.3,0,9,9,0,0,1-3.4-3.9,9.84,9.84,0,0,1-1.2-5.7,12.3,12.3,0,0,1,1.7-5.2,8.77,8.77,0,0,1,2.9-3.1,2.37,2.37,0,0,1,3.2.9,3.61,3.61,0,0,1,.5,1.9,2,2,0,0,1-1.1,1.5,13.48,13.48,0,0,0-4.8,3.8,3.81,3.81,0,0,0,.1,4.1,2.59,2.59,0,0,0,1.7,1.4,2.82,2.82,0,0,0,2.2-.3c.4-.2.7-.4,1.1-.6a8.79,8.79,0,0,0,1-.6,15.07,15.07,0,0,1,2-1.2,2,2,0,0,1,2.1,0,5.64,5.64,0,0,1,1.9,2.1,12.81,12.81,0,0,1,1.3,3.9,10.06,10.06,0,0,1-.2,3.9,4,4,0,0,1-1.6,2.4C352.3,361.8,351.9,361.9,351.4,361.9Z"/></g><g id="angular"><path class="cls-3" d="M41.5,345.7a6.71,6.71,0,0,1,1-4.8,24.84,24.84,0,0,1,4.7-5.9,20.88,20.88,0,0,1,6.1-4.2c2.1-.9,3.8-1,5.1-.2a3.91,3.91,0,0,1,2,3.3,17.4,17.4,0,0,1-.7,5.6c0,.2,0,.3.1.4s.2,0,.3-.1l1.8-1.8c1.1-1,2.1-2.1,3.1-3.1a3.51,3.51,0,0,1,1-.8,1.39,1.39,0,0,1,.9,0,2.75,2.75,0,0,1,1.1,1.4,8.08,8.08,0,0,1,.7,2.2,2.85,2.85,0,0,1-.3,1.9c-.5,1-1.9,2.3-4.2,4a47.35,47.35,0,0,1-7.1,4.5,2.81,2.81,0,0,0,1.4,2.4,7,7,0,0,0,2.2.7,5.75,5.75,0,0,0,1.9-.1,4.59,4.59,0,0,1,1-.1l.1.1a.75.75,0,0,1,.4.7,3.8,3.8,0,0,1-.6,1.8,6.08,6.08,0,0,1-2.2,2.3,7.09,7.09,0,0,1-2.8.9,4.87,4.87,0,0,1-2.5-.5,3.11,3.11,0,0,1-1.5-2.7,11.88,11.88,0,0,1,.6-4.7,16.56,16.56,0,0,1-6,1.5,8.38,8.38,0,0,1-5.1-.9A6.73,6.73,0,0,1,41.5,345.7Zm7.4.7a41.37,41.37,0,0,0,5.9-2.7l2.8-1.8a8,8,0,0,0,.1-3.4,2.71,2.71,0,0,0-1.4-1.9q-1.2-.75-3.6.3a15.37,15.37,0,0,0-4.6,2.9,15.42,15.42,0,0,0-3.3,3.7c-.9,1.5-.8,2.6.3,3.2C46,347.1,47.2,347,48.9,346.4Z"/><path class="cls-3" d="M70.6,363.8a1.57,1.57,0,0,1,.1-1.2,6.42,6.42,0,0,1,.9-1.1,34.58,34.58,0,0,0,2.2-3.4,26.19,26.19,0,0,0,2.4-5.5,5.08,5.08,0,0,0-.1-3.5,5.63,5.63,0,0,0-2.3-2.3,9.77,9.77,0,0,0-3-1.1l-.2-.1c-.3-.2-.3-.5,0-1.1a5.64,5.64,0,0,1,2.1-1.9,6.22,6.22,0,0,1,3.3-.8,7.25,7.25,0,0,1,3.3.7,3.55,3.55,0,0,1,2,2.7,8.76,8.76,0,0,1-.8,3.9,50.21,50.21,0,0,1-3.1,6.1l-1,1.7c-.2.3-.2.5-.1.6a2.51,2.51,0,0,0,1,.1,17.38,17.38,0,0,0,5.7-1.9,10,10,0,0,0,4.3-3.7,6.08,6.08,0,0,0,.9-2.3,4.91,4.91,0,0,1,.3-1.3.55.55,0,0,1,.5-.3,2.65,2.65,0,0,1,1,.3,3,3,0,0,1,1.5,2.9,8.19,8.19,0,0,1-1,4,15.6,15.6,0,0,1-6.7,6.2,28,28,0,0,1-9,3,12.29,12.29,0,0,1-1.3.2,7.77,7.77,0,0,1-1.3.1,1.45,1.45,0,0,1-.7-.2A1,1,0,0,1,70.6,363.8Z"/><path class="cls-3" d="M91.1,376.3a3.51,3.51,0,0,1-.6-1.6,2.4,2.4,0,0,1,.2-1.5,8,8,0,0,1,2.2-2.4,35.33,35.33,0,0,1,3.5-2.5l.6-.4a9.43,9.43,0,0,0,1-1,8.34,8.34,0,0,0,.8-1.2,13.29,13.29,0,0,0,1.5-5.2,3.85,3.85,0,0,0-2-3.8,6.12,6.12,0,0,0-1.2-.5,4.1,4.1,0,0,0-1.1-.1c-.4,0-.6,0-.7-.1s-.3-.2-.3-.3a1.09,1.09,0,0,1,.1-.5,4.85,4.85,0,0,1,1.7-1.8,4.07,4.07,0,0,1,2.4-.8,3.87,3.87,0,0,1,2.4.5c1.4.8,2,2.3,1.6,4.5a21,21,0,0,1-2.6,6.9.37.37,0,0,0-.1.3c0,.1,0,.2.1.2s.2.1.2,0,.2-.1.4-.3a38.79,38.79,0,0,0,4.2-3.5c1.5-1.4,2.8-2.6,3.9-3.7a.76.76,0,0,1,.5-.2,1.27,1.27,0,0,1,.6.1,2,2,0,0,1,.8,1,3.89,3.89,0,0,1,.2,1.5,3.26,3.26,0,0,1-.4,1.4,7.15,7.15,0,0,1-1.7,1.4c-1,.6-2.5,1.5-4.5,2.8-2.3,1.4-4,2.3-4.9,2.9a2.65,2.65,0,0,0-.6.5l-.4.4-4.6,7.2a1.5,1.5,0,0,1-.9.7,1.47,1.47,0,0,1-1.1-.2C91.8,377.2,91.4,376.8,91.1,376.3Z"/><path class="cls-3" d="M111.1,385.6a7.6,7.6,0,0,1-1.1-3.3,5.09,5.09,0,0,1,.6-3c.2-.3.6-.8,1.1-1.5s.9-1,1.1-1.2a26.46,26.46,0,0,0,3.6-4.4,2.43,2.43,0,0,0,.4-1.9,3.34,3.34,0,0,0-1.6-1.5,6.76,6.76,0,0,0-1.7-.7c-.4-.1-.7-.2-.8-.2s-.3-.2-.3-.3a1.76,1.76,0,0,1,.1-.6,4.79,4.79,0,0,1,1.8-1.6,6.4,6.4,0,0,1,6.2,0,5,5,0,0,1,2.2,2.1,3.18,3.18,0,0,1-.5,2.7,6.44,6.44,0,0,1-1.2,1.5c-.6.6-1.2,1.3-1.9,1.9a36.56,36.56,0,0,0-2.8,2.8,9.3,9.3,0,0,0-1.6,2.2,2.27,2.27,0,0,0-.3,2.2,4,4,0,0,0,1.9,1.7,4.32,4.32,0,0,0,3.2.4,9.52,9.52,0,0,0,3.6-1.6,9.22,9.22,0,0,0,2.8-3.1,16,16,0,0,0,1.8-4.2,19.82,19.82,0,0,0,.7-3c.1-.7.2-1.2.2-1.3h0a.37.37,0,0,1,.3-.1c.2,0,.3,0,.4.1a3.74,3.74,0,0,1,1.3,1.2c.3.5.7,1.3,1.3,2.4.4.8.3,2.1-.1,3.8a31.47,31.47,0,0,1-2.1,5.2,13.14,13.14,0,0,1-4.4,4.7,14.26,14.26,0,0,1-6.1,2.3,9,9,0,0,1-5.7-1A15,15,0,0,1,111.1,385.6Z"/><path class="cls-3" d="M129.3,396.4a8.71,8.71,0,0,1-1.1-1.8,2.2,2.2,0,0,1,0-1.6c.2-.3.3-.5.6-.6a5.94,5.94,0,0,1,.8-.4,3.33,3.33,0,0,0,.6-.3c3.2-1.6,6.3-3.2,9.2-4.9a67,67,0,0,0,8.3-5.6,3.92,3.92,0,0,0,.8-1,3.58,3.58,0,0,0,.4-1.1c.7-2.8.7-5,0-6.7a8.73,8.73,0,0,0-4.1-4.2,5.43,5.43,0,0,0-2.9-.7,7.1,7.1,0,0,1-1.4-.2c-.3-.2-.4-.5-.1-.9a6,6,0,0,1,2-1.8,9,9,0,0,1,3.3-.9,5.91,5.91,0,0,1,3.4.8,6.92,6.92,0,0,1,3.7,5.8c.3,2.6-.3,6.2-1.8,10.9l-1.6,5.1c-.5,1.7-1,3.2-1.4,4.5s-.7,2.4-.9,3.2a6.43,6.43,0,0,0,.1,3.7,5.52,5.52,0,0,0,2.4,2.4,12.78,12.78,0,0,0,2.2.9,11.06,11.06,0,0,1,1.3.4c.4.2.4.5.2.9a9.14,9.14,0,0,1-2,2.4,6,6,0,0,1-3,1.4,4.82,4.82,0,0,1-3.6-.8,3.8,3.8,0,0,1-1.7-2.2,8.36,8.36,0,0,1-.2-3.6c.3-1.7,1.1-4.4,2.2-8.2l1.2-3.9a.45.45,0,0,0,0-.5c-.1-.1-.2-.1-.4.1-1.3,1.2-3.4,2.8-6.2,5s-4.9,3.7-6.4,4.8a5.42,5.42,0,0,1-1.6.9,2,2,0,0,1-1.1-.1A13.26,13.26,0,0,0,129.3,396.4Z"/><path class="cls-3" d="M154.9,408.4a6.71,6.71,0,0,1,1-4.8,24.84,24.84,0,0,1,4.7-5.9,20.88,20.88,0,0,1,6.1-4.2c2.1-.9,3.8-1,5.1-.2a3.91,3.91,0,0,1,2,3.3,15,15,0,0,1-.7,5.6c0,.2,0,.3.1.4s.2,0,.3-.1l1.8-1.8c1.1-1,2.1-2.1,3.1-3.1a3.51,3.51,0,0,1,1-.8,1.39,1.39,0,0,1,.9,0,2.75,2.75,0,0,1,1.1,1.4,8.08,8.08,0,0,1,.7,2.2,2.85,2.85,0,0,1-.3,1.9c-.5,1-1.9,2.3-4.2,4a53,53,0,0,1-7.1,4.5,2.81,2.81,0,0,0,1.4,2.4,4.87,4.87,0,0,0,2.2.6,10.89,10.89,0,0,0,1.9-.1,4.59,4.59,0,0,1,1-.1l.1.1a.75.75,0,0,1,.4.7,3.8,3.8,0,0,1-.6,1.8,6.08,6.08,0,0,1-2.2,2.3,7.09,7.09,0,0,1-2.8.9,4,4,0,0,1-2.5-.5,3.11,3.11,0,0,1-1.5-2.7,11.88,11.88,0,0,1,.6-4.7,16.56,16.56,0,0,1-6,1.5,8.38,8.38,0,0,1-5.1-.9A6.5,6.5,0,0,1,154.9,408.4Zm7.4.7a41.37,41.37,0,0,0,5.9-2.7l2.8-1.8a7.94,7.94,0,0,0,.1-3.4,2.71,2.71,0,0,0-1.4-1.9q-1.2-.75-3.6.3a18.63,18.63,0,0,0-7.9,6.6c-.9,1.5-.8,2.6.3,3.2C159.3,409.8,160.6,409.7,162.3,409.1Z"/><path class="cls-3" d="M178.4,424.5a2,2,0,0,1-.2-2.1c1.3-2.3,2.5-4.5,3.6-6.7q.6-1.05,1.8-3.3c.8-1.5,1.5-2.8,2.2-4a11.18,11.18,0,0,1,2.8-3.3,8.16,8.16,0,0,1,3.6-1.5,5.65,5.65,0,0,1,3.9.9,5.12,5.12,0,0,1,2.8,4.5,11,11,0,0,1-1.6,6.1,9.06,9.06,0,0,1-2.7,3.1,7,7,0,0,1-3.5,1.4,6.32,6.32,0,0,1-3.6-.7,3.21,3.21,0,0,1-.9-1.5,12.3,12.3,0,0,1-.6-2.2c0-.1,0-.1-.1-.2s-.3.1-.5.5a16.72,16.72,0,0,0-1.5,3.8l-.9,3.4a12.68,12.68,0,0,0-.4,1.5,8.09,8.09,0,0,1-.5,1.5,1.38,1.38,0,0,1-2,.7A5.19,5.19,0,0,1,178.4,424.5Zm12.5-9.1a7.6,7.6,0,0,0,3.3-1.1,8.09,8.09,0,0,0,2.5-2.7,2,2,0,0,0,.2-1.7,2.3,2.3,0,0,0-1.1-1.5,4.91,4.91,0,0,0-4.8-.4,10.07,10.07,0,0,0-4.1,4.3,1.81,1.81,0,0,0-.2,1.4,1.89,1.89,0,0,0,.8,1A5.82,5.82,0,0,0,190.9,415.4Z"/></g><g id="normal"><g id="right_a" data-name="right a" class="cls-4"><path class="cls-3" d="M70.5,267.4c-4.4-5-6.6-12.1-6.6-21.1a110.65,110.65,0,0,1,5.5-33.1c3.7-11.8,8.5-21.7,14.6-29.7s12.6-12,19.6-12q9.15,0,15,8.4c4,5.6,7.2,13.4,9.7,23.5.3.8.7,1.2,1.2,1.3s.8-.3.9-1.3l3-10.7c2-6.4,3.8-12.7,5.4-19.1a13.16,13.16,0,0,1,2.2-5.2,4.49,4.49,0,0,1,3.6-2c2,0,4.5,1,7.3,2.9a28.63,28.63,0,0,1,7.3,7,13.23,13.23,0,0,1,3,7.8c0,5-2.5,13.3-7.5,24.8a189.38,189.38,0,0,1-18.2,33,11.61,11.61,0,0,0,10.7,6.1,21.22,21.22,0,0,0,10.1-2.3,53.72,53.72,0,0,0,7-4.5,26,26,0,0,1,3.6-2.7h.5a3.65,3.65,0,0,1,3.3,1.9,16.32,16.32,0,0,1,1.9,8.4,26.62,26.62,0,0,1-3.5,13.5,25.69,25.69,0,0,1-9.1,9.4,20.74,20.74,0,0,1-11,3.4c-4.5,0-8.5-2.4-11.9-7.1s-6.1-11.2-7.9-19.5a88.09,88.09,0,0,1-20.1,19.1q-10.95,7.5-21.9,7.5C80.9,275,75,272.4,70.5,267.4Zm30.3-13.5a149.19,149.19,0,0,0,17.1-23.7l7.2-13.1c-2.2-6.2-4.5-10.8-7.1-13.6a12.09,12.09,0,0,0-9.4-4.3c-4.2,0-8.6,3-13.3,8.9a81.11,81.11,0,0,0-11.8,21.2c-3.2,8.2-4.8,15.5-4.8,21.7,0,7.9,2.7,11.9,8.2,11.9C90.7,262.8,95.3,259.9,100.8,253.9Z"/></g><g id="left_a" data-name="left a" class="cls-4"><path class="cls-3" d="M318.3,275q-10.95,0-21.9-7.5a90.18,90.18,0,0,1-20.1-19.1c-1.9,8.2-4.5,14.7-7.9,19.5S261,275,256.5,275a21,21,0,0,1-11-3.4,26.51,26.51,0,0,1-12.6-22.9c0-3.6.6-6.4,1.9-8.4a3.86,3.86,0,0,1,3.3-1.9h.5a26,26,0,0,1,3.6,2.7,38.65,38.65,0,0,0,7,4.5,20.63,20.63,0,0,0,10.1,2.3,11.43,11.43,0,0,0,10.7-6.1,196.21,196.21,0,0,1-18.2-33c-5-11.6-7.5-19.9-7.5-24.8a13.23,13.23,0,0,1,3-7.8,32.4,32.4,0,0,1,7.3-7c2.9-1.9,5.3-2.9,7.3-2.9a4.49,4.49,0,0,1,3.6,2,13.84,13.84,0,0,1,2.2,5.2c1.6,6.4,3.3,12.7,5.4,19.1l3,10.7c.2.9.5,1.4.9,1.3s.9-.5,1.2-1.3c2.5-10.1,5.7-18,9.7-23.5s9-8.4,15-8.4c7,0,13.5,4,19.6,12s10.9,17.9,14.6,29.7a110.65,110.65,0,0,1,5.5,33.1c0,9-2.2,16.1-6.6,21.1S325.8,275,318.3,275Zm1.4-12.2c5.4,0,8.2-4,8.2-11.9,0-6.2-1.6-13.4-4.8-21.7A81.11,81.11,0,0,0,311.3,208c-4.7-5.9-9.1-8.9-13.3-8.9a11.94,11.94,0,0,0-9.4,4.3c-2.6,2.9-4.9,7.4-7.1,13.6l7.2,13.1a149.19,149.19,0,0,0,17.1,23.7C311.4,259.9,316,262.8,319.7,262.8Z"/></g></g></g></g></g></svg>