<?xml version="1.0" standalone="no"?>
<!DOCTYPE svg PUBLIC "-//W3C//DTD SVG 20010904//EN"
 "http://www.w3.org/TR/2001/REC-SVG-20010904/DTD/svg10.dtd">
<svg version="1.0" xmlns="http://www.w3.org/2000/svg"
 width="1538.000000pt" height="1630.000000pt" viewBox="0 0 1538.000000 1630.000000"
 preserveAspectRatio="xMidYMid meet">
<metadata>
Created by potrace 1.15, written by Peter Selinger 2001-2017
</metadata>
<g transform="translate(0.000000,1630.000000) scale(0.100000,-0.100000)"
fill="#000000" stroke="none">
<path d="M7185 16286 c-16 -12 -17 -16 -6 -30 7 -9 26 -16 41 -16 29 0 115
-34 125 -49 10 -17 -7 -41 -30 -41 -13 0 -51 -16 -85 -35 -34 -19 -74 -35 -90
-35 -18 0 -41 -13 -66 -35 -21 -19 -47 -35 -59 -35 -12 0 -30 -7 -41 -15 -26
-21 -103 -55 -123 -55 -9 0 -30 -8 -46 -18 -17 -10 -50 -21 -74 -25 -24 -3
-62 -14 -85 -25 -61 -30 -256 -75 -396 -92 -94 -11 -186 -35 -400 -106 -58
-18 -121 -34 -140 -34 -42 0 -367 -93 -421 -121 -23 -11 -59 -19 -88 -19 -28
0 -85 -11 -128 -25 -43 -14 -92 -25 -110 -25 -18 0 -55 -9 -83 -20 -48 -19
-111 -32 -240 -49 -30 -5 -75 -17 -100 -29 -25 -12 -61 -22 -80 -22 -19 0 -44
-7 -55 -16 -11 -8 -56 -26 -100 -40 -44 -14 -89 -31 -100 -38 -11 -7 -42 -21
-70 -31 -27 -10 -69 -31 -93 -46 -24 -15 -62 -30 -85 -34 -23 -4 -82 -25 -130
-47 -49 -22 -110 -46 -135 -54 -109 -31 -169 -57 -195 -85 -19 -19 -38 -29
-58 -29 -19 0 -56 -19 -110 -55 -81 -57 -116 -69 -265 -95 -33 -5 -90 -10
-126 -10 -50 0 -76 -6 -112 -25 -37 -20 -62 -25 -118 -25 -54 0 -80 -5 -117
-24 -55 -29 -125 -46 -187 -46 -26 0 -62 -9 -85 -21 -23 -11 -66 -25 -97 -31
-120 -21 -138 -26 -177 -41 -22 -9 -83 -27 -135 -41 -148 -39 -160 -44 -194
-69 -17 -13 -49 -30 -71 -37 -67 -21 -112 -48 -134 -79 -12 -17 -35 -32 -52
-36 -16 -4 -46 -23 -66 -43 -37 -38 -115 -87 -192 -122 -24 -11 -55 -29 -70
-39 -14 -10 -37 -22 -51 -25 -14 -4 -50 -19 -80 -34 -66 -32 -169 -52 -310
-61 -70 -5 -122 -14 -155 -28 -82 -34 -119 -43 -169 -43 -51 0 -100 -20 -110
-45 -3 -9 -6 -36 -6 -59 0 -36 -4 -44 -30 -59 -21 -13 -31 -28 -36 -54 -8 -40
-66 -109 -98 -115 -23 -4 -90 -93 -81 -108 3 -5 17 -10 31 -10 14 0 33 -7 42
-16 15 -15 18 -14 39 12 l23 29 3 -640 c2 -440 7 -656 15 -690 6 -27 16 -87
21 -132 5 -46 12 -87 16 -92 6 -11 24 -166 35 -301 8 -102 24 -204 40 -246 6
-14 10 -96 10 -182 0 -105 5 -182 16 -232 9 -41 20 -133 24 -205 5 -71 13
-148 19 -170 6 -22 11 -74 11 -115 0 -50 7 -92 20 -128 11 -29 20 -76 20 -105
0 -58 16 -139 65 -332 45 -177 55 -221 55 -249 0 -13 11 -43 23 -67 13 -24 27
-71 31 -104 4 -33 11 -85 17 -115 5 -30 13 -109 18 -175 8 -99 16 -134 42
-200 18 -44 36 -109 41 -145 4 -36 12 -103 17 -150 14 -116 30 -220 37 -231 3
-5 10 -57 15 -116 18 -179 31 -279 59 -422 5 -29 10 -99 10 -155 0 -68 7 -126
20 -176 18 -67 20 -110 20 -405 1 -242 5 -351 15 -410 8 -44 15 -120 16 -170
0 -49 4 -101 8 -115 5 -16 0 -44 -13 -80 -19 -50 -21 -81 -24 -363 -3 -305 -3
-309 22 -397 25 -87 26 -95 26 -412 0 -315 1 -325 24 -388 37 -102 44 -121 65
-190 11 -36 27 -82 35 -102 9 -21 16 -57 16 -80 0 -27 8 -54 21 -73 11 -16 25
-41 31 -55 12 -26 29 -147 28 -190 -1 -14 -4 -121 -6 -239 -5 -217 -1 -247 32
-234 11 4 14 40 14 197 0 127 4 186 10 176 5 -8 10 -28 10 -43 0 -15 11 -50
25 -77 14 -27 25 -63 25 -79 0 -17 6 -34 14 -38 7 -4 17 -18 20 -30 7 -23 7
-23 -22 -6 -25 14 -32 15 -46 4 -24 -20 -20 -29 22 -50 20 -10 55 -35 77 -55
21 -20 43 -36 47 -36 8 0 85 -75 123 -119 l20 -23 -30 16 c-17 8 -50 25 -75
36 -25 11 -69 37 -97 57 -45 32 -53 42 -53 69 0 34 -20 50 -39 31 -14 -14 -14
-62 -1 -87 8 -14 5 -19 -11 -23 -13 -4 -20 -12 -17 -24 2 -14 15 -19 58 -23
56 -5 119 -36 143 -69 13 -19 68 -51 88 -51 7 0 30 -14 53 -30 85 -63 113 -81
184 -115 48 -22 97 -57 140 -98 94 -89 293 -244 339 -263 21 -9 57 -29 81 -45
23 -16 62 -43 87 -59 24 -17 70 -40 100 -50 31 -11 69 -29 86 -40 29 -21 165
-83 261 -120 26 -10 60 -27 77 -39 16 -12 44 -24 63 -27 18 -4 47 -14 63 -24
17 -10 43 -21 59 -24 17 -4 41 -16 55 -25 14 -10 49 -30 76 -43 76 -38 206
-110 243 -134 18 -13 47 -26 65 -29 18 -4 46 -17 62 -30 28 -21 85 -53 174
-98 20 -11 45 -27 56 -37 11 -10 36 -26 55 -35 19 -10 30 -20 23 -22 -6 -2
-39 10 -74 27 -57 29 -63 30 -78 15 -15 -15 -14 -17 4 -31 52 -40 124 -67 217
-81 64 -10 106 -22 116 -33 10 -9 33 -26 52 -38 19 -11 53 -39 75 -62 22 -23
58 -51 80 -62 22 -11 54 -32 70 -47 17 -15 64 -47 105 -71 41 -24 89 -54 106
-67 17 -12 45 -28 63 -34 17 -6 57 -37 89 -68 41 -42 74 -64 117 -80 32 -12
80 -38 106 -57 26 -19 81 -50 122 -68 41 -19 78 -40 82 -46 14 -22 187 -130
209 -130 12 0 38 -11 57 -25 42 -32 185 -110 219 -120 14 -4 41 -21 61 -36 20
-16 42 -29 49 -29 19 0 132 -52 165 -76 48 -35 106 -61 153 -68 24 -3 60 -17
81 -30 21 -14 57 -30 81 -36 24 -6 59 -20 79 -31 20 -10 40 -19 45 -19 12 0
168 -79 186 -95 8 -7 31 -16 50 -20 19 -4 49 -16 66 -26 17 -10 40 -19 50 -19
10 0 48 -16 86 -35 37 -20 89 -38 115 -42 27 -3 59 -14 72 -25 13 -10 34 -18
48 -18 13 0 40 -7 61 -16 83 -36 138 -54 168 -54 17 0 52 -11 78 -25 36 -19
62 -25 109 -25 61 0 88 -11 129 -50 12 -11 12 -20 4 -43 -9 -22 -8 -30 4 -38
12 -8 8 -16 -25 -44 -38 -34 -39 -36 -21 -50 25 -19 58 -11 120 28 27 17 68
34 90 37 37 4 43 10 63 50 18 38 19 47 8 60 -32 35 43 70 149 70 64 0 136 21
136 40 0 4 13 10 29 13 16 3 49 20 74 37 25 16 53 30 63 30 11 1 48 11 84 24
36 13 81 29 100 36 64 23 370 178 398 202 9 9 28 19 42 23 14 4 36 15 50 25
14 10 59 34 100 55 41 21 88 46 103 57 15 11 44 24 64 30 19 5 56 25 82 44 25
19 73 48 106 64 33 17 80 42 105 57 40 23 107 59 205 111 17 8 43 26 58 39 16
12 34 23 41 23 7 0 69 29 138 65 111 57 266 120 275 111 5 -4 -95 -95 -162
-146 -32 -25 -102 -67 -154 -93 -53 -26 -103 -52 -111 -57 -8 -6 -42 -24 -75
-41 -33 -18 -74 -42 -91 -55 -17 -13 -56 -33 -86 -43 -75 -26 -259 -123 -297
-157 -31 -28 -97 -68 -176 -106 -22 -11 -54 -33 -71 -49 -28 -27 -169 -89
-202 -89 -24 0 -72 -30 -72 -45 0 -20 -32 -35 -72 -35 -21 0 -56 -13 -92 -35
-40 -24 -71 -35 -97 -35 -42 0 -57 -13 -39 -35 14 -17 105 -21 115 -5 12 19
104 60 136 60 l32 0 -24 -18 c-46 -36 -175 -90 -222 -95 -27 -3 -75 -19 -108
-36 -71 -37 -134 -42 -142 -11 -6 22 -43 28 -50 8 -2 -7 3 -28 11 -45 15 -32
18 -33 73 -33 42 0 73 8 122 30 35 17 89 33 118 37 30 3 61 11 69 18 8 7 41
24 73 38 32 15 75 40 95 56 21 15 55 38 77 50 22 12 71 48 109 81 38 33 75 60
82 60 20 0 306 150 334 175 14 12 66 41 115 65 50 23 106 52 125 65 19 13 58
31 85 41 28 9 70 31 94 48 145 104 214 148 276 180 39 19 95 51 125 71 30 19
59 35 64 35 5 0 23 11 40 24 17 13 49 32 72 44 35 18 105 86 154 150 22 28 54
42 95 42 41 0 81 18 109 49 11 12 29 21 40 21 12 0 66 23 120 50 55 28 105 50
111 50 7 0 24 9 39 21 24 19 78 43 199 90 27 10 60 26 74 36 40 28 45 30 90
42 23 6 61 27 84 47 24 20 68 49 98 65 31 16 63 33 71 37 29 16 106 56 210
108 58 29 110 58 117 63 7 6 38 21 70 33 32 11 81 36 110 55 29 18 59 33 67
33 7 0 37 16 66 35 29 19 60 35 71 35 10 0 34 13 52 30 37 32 152 90 179 90 9
0 20 5 23 10 10 16 -14 40 -39 40 -30 0 -177 -76 -193 -100 -8 -11 -25 -20
-38 -20 -14 0 -45 -16 -71 -35 -25 -19 -52 -35 -60 -35 -8 0 -49 -20 -92 -45
-42 -25 -82 -45 -89 -45 -12 0 -197 -93 -218 -109 -5 -5 -21 -12 -34 -16 -14
-4 -42 -20 -64 -36 -22 -16 -47 -29 -56 -29 -9 0 -29 -9 -46 -21 -16 -11 -51
-31 -76 -44 -25 -13 -64 -39 -87 -58 -22 -19 -58 -38 -79 -42 -21 -4 -52 -17
-69 -30 -29 -22 -60 -37 -186 -85 -26 -10 -71 -31 -100 -48 -29 -16 -64 -33
-78 -37 -14 -5 -41 -18 -61 -30 -19 -13 -60 -31 -90 -41 -30 -10 -71 -31 -92
-47 -41 -31 -117 -51 -102 -27 13 22 67 66 141 117 38 26 83 60 100 75 72 65
192 149 314 217 71 40 171 104 222 143 51 39 113 79 138 90 25 11 59 30 75 42
17 13 64 35 104 50 41 15 104 46 140 70 78 51 125 76 144 76 8 0 32 13 53 29
22 15 76 39 119 51 44 13 86 28 94 34 8 6 39 18 70 27 103 31 212 77 264 113
29 20 95 53 147 75 52 21 115 50 140 64 25 14 56 28 68 32 13 4 43 20 66 35
23 16 64 37 91 48 28 10 72 33 99 50 28 18 55 32 62 32 19 0 163 69 208 99 23
16 71 41 106 55 74 30 276 155 328 204 33 29 42 28 42 -8 0 -16 -5 -30 -11
-30 -19 0 -5 -55 15 -59 31 -5 46 27 46 96 l0 62 55 41 c67 49 93 85 79 108
-17 26 -33 25 -43 -1 -9 -23 -68 -77 -84 -77 -12 0 -8 108 5 137 7 15 23 41
35 56 14 17 23 42 23 61 0 18 16 63 35 100 23 44 35 81 35 107 0 21 4 39 8 39
15 0 42 59 42 93 0 18 7 48 16 65 8 17 18 48 21 69 3 21 14 57 25 80 21 45 34
108 48 233 4 41 16 107 26 145 16 61 19 133 24 580 4 454 7 513 22 535 9 14
22 45 28 70 7 25 25 76 41 114 29 68 29 69 29 275 0 208 -5 236 -36 224 -12
-4 -14 27 -14 184 0 173 2 192 21 228 12 23 25 72 30 115 12 110 19 143 39
165 16 19 52 113 71 185 4 19 9 109 9 200 0 146 2 170 20 203 13 25 20 56 20
95 0 31 5 73 12 92 7 22 14 171 19 405 4 204 12 404 17 445 13 105 29 198 36
208 12 20 33 209 53 482 5 58 13 112 18 120 6 9 13 181 17 410 9 493 13 548
41 578 16 18 22 40 26 105 4 61 11 88 24 101 10 11 17 33 17 59 1 23 7 60 15
82 8 22 15 50 15 61 0 12 8 39 17 60 9 22 20 62 23 89 7 49 23 121 41 181 5
17 9 53 9 80 1 44 28 145 44 161 3 3 6 108 6 232 0 225 0 226 23 236 12 6 24
21 26 35 1 14 12 37 22 51 13 18 19 44 19 77 0 27 7 66 16 87 24 58 16 461
-10 525 -16 38 -20 83 -26 305 -4 143 -10 271 -15 284 -7 20 -5 23 8 18 10 -4
24 -4 32 -1 23 9 18 44 -7 53 l-22 8 22 5 c32 9 29 46 -5 59 -14 5 -46 23 -70
39 -25 17 -48 28 -52 25 -5 -2 -28 10 -52 28 -24 17 -55 38 -69 45 -14 7 -16
9 -5 6 11 -3 70 -10 130 -14 92 -6 122 -12 182 -38 57 -26 85 -32 140 -32 38
0 74 -5 80 -11 14 -14 43 -5 43 14 0 28 -33 42 -114 48 -53 5 -103 17 -146 35
-49 20 -91 29 -167 35 -81 6 -138 18 -267 58 -90 28 -183 55 -207 60 -24 5
-84 21 -134 37 -51 15 -129 31 -180 35 -66 5 -117 17 -190 44 -55 20 -122 44
-150 52 -27 9 -68 27 -90 41 -60 38 -287 142 -311 142 -11 0 -35 11 -54 25
-19 14 -42 25 -53 25 -10 0 -38 11 -61 25 -23 14 -67 33 -98 44 -30 10 -70 27
-89 37 -19 9 -74 29 -124 44 -49 15 -112 37 -140 48 -113 46 -245 82 -299 82
-31 0 -89 11 -133 25 -43 13 -125 36 -183 50 -58 14 -130 32 -160 40 -30 8
-98 22 -150 30 -52 9 -142 31 -200 49 -58 19 -132 39 -165 46 -35 7 -70 21
-85 35 -36 33 -64 45 -127 55 -31 5 -95 28 -142 51 -47 23 -162 69 -256 101
-93 33 -201 71 -240 85 -38 14 -104 36 -145 49 -41 12 -140 46 -220 74 -82 29
-176 55 -217 60 -40 5 -107 23 -149 40 -43 17 -112 40 -153 51 -74 20 -238 95
-355 163 -32 19 -90 44 -130 56 -39 13 -118 46 -176 75 -170 84 -284 131 -470
190 -96 31 -224 74 -285 95 -151 53 -235 77 -330 96 -82 16 -190 50 -212 67
-7 5 -13 20 -13 33 0 26 -27 33 -48 12 -9 -9 -19 -6 -44 12 -18 14 -53 27 -77
30 l-44 5 59 19 c75 25 88 34 73 52 -15 19 -41 18 -108 -5 -31 -10 -91 -27
-134 -37 l-77 -17 -28 26 c-53 50 -165 87 -197 63z m400 -236 l60 -1 -35 -15
c-19 -8 -38 -22 -43 -30 -4 -7 -19 -14 -32 -14 -14 0 -48 -19 -80 -45 -30 -25
-72 -53 -93 -61 -20 -9 -46 -21 -57 -27 -61 -32 -117 -57 -130 -57 -8 0 -24
-9 -35 -20 -16 -16 -33 -20 -77 -19 l-58 0 107 53 c59 28 120 63 135 77 15 15
66 50 113 80 47 29 98 64 114 77 20 16 32 20 39 13 6 -6 38 -11 72 -11z m210
-90 c47 -22 111 -57 142 -79 75 -51 192 -111 218 -111 11 0 52 -12 90 -26 39
-14 96 -31 127 -39 31 -7 71 -24 90 -38 18 -14 45 -28 60 -32 14 -4 34 -15 44
-26 9 -10 22 -19 27 -19 6 0 54 -20 107 -45 52 -25 120 -49 150 -55 29 -6 81
-24 115 -40 34 -17 78 -30 98 -30 25 0 74 -18 147 -55 107 -53 155 -68 275
-85 33 -5 114 -22 180 -38 66 -16 154 -37 195 -47 41 -9 82 -21 90 -26 34 -21
187 -69 315 -100 22 -6 54 -19 71 -30 17 -10 41 -19 52 -19 12 0 52 -12 89
-26 86 -33 135 -49 253 -80 52 -14 138 -43 190 -64 52 -22 140 -51 195 -65
138 -36 226 -64 240 -75 10 -8 45 -19 125 -37 14 -3 41 -17 60 -30 22 -14 49
-23 74 -23 28 0 47 -8 72 -30 18 -16 51 -32 71 -36 42 -7 110 -36 223 -94 41
-21 100 -45 130 -54 212 -60 282 -83 335 -108 37 -17 77 -28 103 -28 26 0 71
-12 110 -29 37 -16 83 -32 102 -36 19 -4 52 -16 74 -27 21 -11 81 -33 134 -50
52 -17 112 -43 133 -58 22 -16 58 -30 85 -34 26 -3 55 -13 65 -21 28 -27 144
-87 194 -102 22 -6 30 -14 30 -33 0 -23 5 -25 60 -31 61 -7 174 -41 255 -78
25 -11 61 -21 82 -21 20 0 58 -11 85 -25 26 -14 77 -30 113 -36 36 -7 76 -20
89 -30 13 -11 36 -19 51 -19 15 0 47 -7 70 -15 23 -8 59 -15 79 -15 20 0 68
-14 106 -30 39 -17 87 -33 108 -37 27 -4 42 -13 49 -29 6 -13 14 -24 18 -24 4
0 26 -17 48 -37 22 -21 53 -50 69 -64 15 -15 34 -34 42 -44 8 -11 22 -15 38
-12 l24 4 -22 -23 c-17 -18 -20 -30 -15 -54 4 -22 -1 -46 -16 -78 -17 -37 -23
-74 -29 -177 -3 -71 -11 -143 -18 -158 -6 -16 -11 -43 -11 -61 0 -18 -9 -51
-20 -74 -16 -32 -20 -61 -20 -136 0 -52 -5 -107 -11 -123 -11 -27 -20 -75 -39
-198 -5 -33 -14 -76 -20 -95 -5 -19 -10 -48 -10 -65 0 -16 -9 -43 -20 -60 -16
-24 -20 -47 -20 -110 0 -59 -6 -98 -25 -150 -18 -50 -25 -91 -25 -145 0 -52
-7 -92 -21 -130 -27 -72 -39 -166 -48 -380 -6 -139 -11 -184 -26 -220 -18 -42
-20 -82 -27 -560 -6 -513 -12 -626 -29 -645 -5 -5 -9 -63 -9 -130 0 -68 -5
-135 -12 -155 -8 -24 -15 -184 -20 -505 -23 -1313 -26 -1393 -57 -1525 -6 -25
-11 -105 -11 -178 0 -99 -4 -141 -15 -162 -25 -48 -55 -252 -55 -370 0 -80 -4
-117 -17 -146 -13 -28 -19 -78 -23 -179 -5 -112 -10 -147 -25 -175 -26 -46
-35 -141 -44 -455 -6 -224 -10 -270 -29 -332 -15 -50 -22 -100 -22 -160 -1
-73 -5 -97 -25 -138 -18 -36 -25 -67 -25 -111 0 -35 -9 -86 -20 -120 -27 -77
-50 -177 -50 -215 0 -16 -9 -40 -20 -52 -26 -27 -50 -107 -50 -166 0 -24 -11
-72 -24 -105 -13 -34 -31 -92 -39 -131 -8 -38 -27 -97 -42 -130 -15 -33 -32
-81 -36 -107 -5 -27 -13 -69 -18 -95 -4 -27 -13 -61 -20 -76 -6 -16 -11 -59
-11 -97 0 -55 -4 -71 -18 -82 -10 -7 -22 -22 -27 -33 -7 -19 -8 -19 -14 5 -5
16 -14 25 -26 25 -16 0 -21 -8 -23 -40 -3 -37 -8 -43 -65 -81 -73 -49 -141
-84 -160 -84 -8 0 -26 -9 -40 -20 -15 -12 -28 -16 -32 -11 -9 16 -35 1 -35
-20 0 -14 -7 -19 -26 -19 -24 0 -58 -11 -213 -69 -29 -11 -81 -38 -115 -60
-63 -41 -162 -81 -200 -81 -12 0 -44 -15 -71 -34 -37 -25 -64 -34 -106 -38
-51 -4 -64 -11 -159 -82 -58 -42 -117 -80 -132 -83 -16 -3 -31 -10 -34 -14 -3
-5 -22 -9 -43 -9 -23 0 -48 -8 -64 -20 -14 -11 -65 -32 -114 -46 -102 -30
-247 -96 -283 -129 -14 -13 -43 -30 -65 -39 -21 -9 -42 -20 -45 -24 -8 -13
-132 -78 -172 -91 -20 -7 -56 -29 -81 -51 -24 -21 -56 -42 -70 -45 -14 -4 -31
-13 -38 -21 -6 -8 -30 -19 -53 -25 -22 -6 -57 -24 -77 -40 -20 -16 -41 -29
-45 -29 -5 0 -29 -18 -54 -41 -25 -23 -61 -49 -80 -59 -19 -10 -44 -28 -54
-39 -23 -26 -99 -66 -175 -92 -30 -11 -62 -25 -70 -33 -9 -7 -27 -17 -41 -21
-14 -4 -38 -18 -53 -31 -15 -13 -46 -28 -69 -34 -60 -17 -185 -105 -270 -190
-15 -15 -56 -49 -90 -75 -35 -26 -81 -70 -103 -98 -29 -37 -57 -58 -103 -79
-35 -16 -85 -44 -112 -63 -27 -19 -60 -37 -74 -41 -15 -3 -36 -18 -49 -33 -13
-15 -38 -31 -56 -34 -18 -4 -44 -16 -58 -27 -14 -11 -38 -20 -53 -20 -58 0
-178 -33 -255 -70 -103 -49 -222 -108 -260 -127 -56 -29 -80 -41 -150 -77 -39
-19 -88 -49 -110 -66 -22 -18 -64 -44 -93 -57 -29 -14 -55 -29 -57 -34 -3 -4
-45 -20 -93 -34 -48 -15 -107 -38 -132 -51 -25 -12 -57 -25 -71 -28 -14 -3
-43 -19 -64 -36 -21 -16 -44 -30 -52 -30 -26 0 -142 -71 -191 -116 -26 -24
-53 -42 -62 -39 -8 2 -28 7 -45 11 -16 4 -41 15 -55 24 -14 10 -41 23 -61 29
-20 7 -50 23 -65 36 -16 13 -41 27 -56 30 -15 4 -30 11 -33 16 -4 5 -18 9 -33
9 -38 0 -98 23 -124 47 -43 38 -89 65 -143 84 -30 11 -77 33 -104 49 -26 17
-59 30 -73 30 -14 0 -42 13 -62 29 -21 17 -54 35 -74 42 -20 7 -59 28 -86 47
-27 19 -79 47 -115 62 -36 15 -79 35 -96 44 -16 9 -34 16 -39 16 -5 0 -17 7
-26 15 -9 8 -40 19 -68 25 -28 5 -82 25 -121 44 -38 20 -114 47 -170 60 -55
14 -111 32 -123 40 -13 8 -55 19 -93 24 -64 9 -136 35 -326 118 -31 13 -60 24
-65 24 -5 0 -43 20 -84 45 -41 25 -86 45 -100 45 -14 0 -34 6 -45 14 -11 7
-49 24 -85 36 -36 13 -72 29 -80 35 -39 32 -238 111 -365 145 -84 22 -244 86
-266 106 -8 8 -18 14 -22 14 -3 0 -32 16 -64 35 -32 19 -80 42 -108 51 -27 8
-97 38 -155 66 -58 28 -125 60 -150 72 -25 11 -65 34 -89 50 -24 16 -80 44
-124 63 -43 18 -125 56 -182 83 -57 28 -108 50 -113 50 -5 0 -57 23 -114 50
-112 53 -203 87 -333 124 -102 29 -323 133 -442 208 -51 32 -96 58 -101 58 -5
0 -30 16 -55 35 -26 20 -54 39 -64 43 -23 9 -153 95 -150 99 2 1 37 -11 77
-27 41 -16 102 -38 135 -48 33 -11 112 -39 175 -62 63 -23 138 -47 165 -52
107 -22 276 -80 412 -142 55 -25 106 -46 113 -46 38 0 221 -76 415 -171 278
-138 308 -156 415 -256 49 -44 112 -99 142 -121 29 -22 63 -52 76 -66 18 -22
30 -27 60 -24 41 3 50 24 17 41 -11 6 -25 13 -31 16 -25 13 -164 130 -239 201
-44 42 -95 82 -112 89 -18 7 -33 17 -33 22 0 10 -457 236 -561 277 -42 17 -93
34 -115 37 -21 4 -91 31 -155 61 -65 30 -124 54 -132 54 -8 0 -47 14 -87 30
-40 17 -100 35 -134 40 -34 5 -117 30 -186 54 -69 25 -154 54 -190 67 -119 40
-174 61 -286 110 -62 27 -119 49 -128 49 -9 0 -16 4 -16 8 0 5 -21 24 -47 42
-27 19 -81 62 -121 97 -40 35 -78 63 -84 63 -7 0 -21 9 -32 19 -12 10 -64 42
-116 71 -52 29 -102 60 -110 69 -8 9 -29 28 -47 43 -32 26 -32 26 -9 32 14 3
29 19 36 37 11 26 11 39 -3 83 -10 29 -17 60 -17 70 0 9 -10 30 -21 46 -13 17
-24 49 -27 82 -2 30 -12 62 -22 73 -22 26 -50 109 -50 152 0 18 -9 47 -20 65
-14 24 -20 51 -20 94 0 49 -5 69 -25 98 -14 20 -25 45 -25 54 0 9 -16 55 -35
102 -23 57 -35 101 -35 135 0 28 -7 64 -16 80 -9 17 -29 81 -45 144 -23 90
-29 135 -29 221 0 84 -5 119 -21 166 -30 82 -39 234 -47 809 -4 264 -11 486
-15 493 -23 35 -45 219 -55 457 -4 99 -12 187 -17 195 -12 20 -25 218 -34 530
-7 234 -20 372 -38 410 -4 8 -11 107 -15 220 -7 230 -20 389 -31 407 -16 26
-30 217 -37 498 -6 286 -7 291 -35 370 -28 77 -29 88 -36 340 -10 330 -20 442
-42 476 -9 14 -21 45 -26 70 -22 101 -54 217 -72 254 -16 34 -19 64 -19 212 0
108 -4 182 -12 200 -15 36 -26 124 -38 293 -5 74 -16 171 -25 215 -24 118 -35
212 -44 380 -5 110 -12 161 -26 190 -10 22 -21 78 -26 125 -13 129 -20 174
-30 185 -5 5 -9 50 -9 100 0 49 -5 106 -12 125 -6 19 -15 123 -19 230 -4 107
-12 220 -18 250 -25 122 -25 140 -5 140 11 0 37 12 59 25 22 14 53 25 68 25
16 0 41 8 55 19 15 10 57 28 93 39 63 20 126 47 254 113 33 17 76 33 95 36 34
5 34 5 15 -11 -11 -9 -38 -25 -60 -36 -127 -64 -214 -128 -201 -148 9 -15 122
-16 131 -2 4 6 1 18 -7 27 -8 10 -9 18 -3 20 6 2 19 9 31 16 12 6 43 24 70 39
27 15 65 41 84 58 76 69 133 110 151 110 10 0 33 9 51 20 20 12 51 20 76 20
24 0 53 5 65 12 12 7 47 15 77 19 30 3 93 23 140 44 57 25 108 40 155 45 39 4
107 22 153 39 48 18 102 31 128 31 25 0 71 11 104 25 33 14 70 25 82 25 13 0
51 13 84 29 34 16 90 38 125 49 95 30 180 58 214 70 17 6 59 18 95 27 36 9 88
25 115 35 28 10 70 21 94 24 23 4 59 15 80 25 20 11 54 24 76 29 64 17 137 45
176 69 19 12 60 29 90 37 30 7 70 21 89 29 19 9 62 24 95 33 33 10 83 28 110
41 28 12 61 23 76 23 16 0 38 13 59 35 19 19 41 35 51 35 9 0 49 15 90 34 41
19 110 46 154 62 44 15 92 36 107 46 14 10 34 18 45 18 10 0 43 17 73 38 52
35 77 48 205 108 29 14 110 34 190 48 77 13 167 34 200 47 33 12 116 33 185
46 69 14 180 45 248 69 68 25 165 56 215 70 51 14 115 34 142 44 28 11 84 29
125 41 41 12 91 30 110 39 19 10 76 28 125 41 50 13 144 45 210 72 173 70 260
105 349 138 43 16 98 43 121 59 43 30 44 30 190 30 136 0 149 2 178 22 18 13
54 31 81 40 27 10 59 27 71 38 12 11 29 20 39 20 20 0 92 36 101 51 14 22 89
69 110 69 12 0 30 9 40 20 10 11 24 20 31 20 7 0 26 11 41 24 22 20 30 22 36
11 4 -8 46 -32 92 -55z m382 -24 c21 -8 52 -17 68 -21 17 -3 71 -21 120 -39
50 -19 171 -60 270 -91 99 -32 216 -73 260 -92 126 -54 225 -102 225 -107 0
-8 -61 12 -85 28 -12 8 -40 18 -61 22 -21 4 -51 15 -65 25 -14 10 -57 27 -95
38 -38 11 -114 33 -169 50 -55 17 -108 31 -119 31 -10 0 -60 16 -112 35 -51
19 -104 35 -117 35 -13 0 -45 15 -71 33 -26 17 -62 40 -79 49 -39 21 -21 23
30 4z m523 -257 c74 -22 158 -51 185 -64 28 -14 64 -28 80 -32 17 -3 51 -17
76 -30 26 -13 52 -23 58 -23 7 0 31 -10 54 -22 107 -54 532 -207 579 -208 28
0 161 -50 154 -57 -2 -2 -44 7 -92 20 -137 38 -267 67 -292 67 -51 0 -163 35
-273 86 -64 30 -127 54 -140 54 -40 0 -93 18 -128 44 -19 14 -55 28 -80 32
-25 4 -62 15 -81 25 -19 10 -75 37 -125 61 -49 23 -99 51 -109 60 -11 10 -27
18 -35 18 -9 0 -23 5 -31 11 -25 17 52 1 200 -42z m-2346 -103 c-98 -48 -153
-72 -199 -86 -22 -7 -54 -20 -72 -30 -17 -10 -57 -23 -88 -30 -31 -6 -73 -19
-93 -27 -52 -22 -149 -42 -202 -42 -44 1 -44 1 -15 11 17 6 71 28 120 50 50
22 140 61 200 88 61 27 124 51 140 54 17 3 62 15 100 25 39 11 94 20 124 20
l55 1 -70 -34z m-935 -161 c-26 -13 -76 -29 -112 -35 -36 -5 -105 -22 -153
-37 -49 -14 -112 -29 -140 -32 -29 -4 -58 -12 -65 -18 -8 -6 -38 -18 -68 -27
-30 -9 -69 -25 -88 -36 -32 -19 -88 -37 -208 -66 -33 -8 -84 -21 -112 -28 -29
-7 -53 -12 -53 -10 0 11 64 34 93 34 20 0 42 8 55 21 13 11 39 23 60 26 20 3
51 16 68 28 38 29 152 81 196 90 18 4 47 15 63 25 17 10 46 21 66 25 20 4 58
20 85 35 48 29 51 29 204 29 l155 0 -46 -24z m-667 -90 c-29 -13 -65 -33 -79
-45 -14 -11 -39 -20 -55 -20 -17 0 -42 -8 -56 -19 -15 -10 -43 -21 -63 -25
-20 -3 -60 -19 -90 -35 -30 -16 -70 -32 -89 -36 -32 -7 -79 -29 -194 -92 -23
-12 -50 -23 -61 -23 -11 0 -35 -9 -53 -20 -18 -11 -53 -25 -79 -30 -25 -6 -59
-22 -75 -35 -16 -13 -45 -27 -66 -30 -20 -3 -77 -20 -127 -37 -96 -34 -266
-53 -251 -29 4 6 18 11 32 11 32 0 64 16 85 43 9 11 36 26 60 33 77 22 182 61
249 93 36 17 89 35 118 41 30 5 79 25 110 44 31 19 75 40 97 47 22 6 49 18 60
25 11 7 55 24 99 39 43 14 88 32 100 40 11 8 38 15 60 15 21 0 53 9 71 20 19
11 64 24 105 29 39 5 74 12 78 15 3 3 19 6 36 5 29 0 27 -2 -22 -24z m5488
-160 c74 -25 158 -54 185 -65 28 -10 97 -33 155 -50 58 -17 128 -42 155 -55
28 -12 57 -25 65 -28 12 -4 11 -6 -3 -6 -10 -1 -34 7 -55 18 -20 10 -95 33
-167 51 -133 33 -344 108 -431 154 -27 14 -47 25 -44 26 3 0 66 -20 140 -45z
m-5350 -17 c-14 -5 -43 -18 -65 -28 -134 -62 -313 -106 -545 -135 l-35 -4 40
19 c22 11 54 20 71 20 17 0 60 9 95 20 35 12 96 28 134 37 39 8 95 25 125 36
58 22 152 45 185 45 17 1 16 -1 -5 -10z m-625 -238 c-18 -12 -47 -20 -71 -20
-56 0 -180 -28 -226 -51 -21 -11 -50 -19 -65 -19 -15 0 -50 -12 -78 -25 -27
-14 -61 -25 -74 -25 -13 0 -39 -9 -58 -21 -18 -12 -62 -25 -96 -30 -34 -5 -82
-13 -107 -18 -25 -5 -63 -12 -85 -15 l-40 -6 34 15 c18 9 56 21 85 26 28 6 68
15 89 19 22 4 52 17 68 29 15 11 38 21 49 21 11 0 53 16 93 35 39 19 81 35 92
35 11 0 62 12 114 26 97 26 183 41 261 43 l45 1 -30 -20z m-66 -84 c-2 -2 -40
-16 -84 -31 -43 -14 -111 -41 -150 -60 -38 -18 -84 -36 -101 -39 -18 -4 -40
-20 -53 -36 -14 -20 -30 -30 -47 -30 -14 0 -41 -8 -62 -19 -20 -10 -64 -26
-97 -35 -33 -10 -82 -26 -110 -37 -27 -11 -75 -27 -105 -35 -30 -8 -72 -26
-92 -39 -21 -14 -42 -25 -48 -25 -6 0 -29 -9 -51 -19 -21 -11 -58 -22 -81 -26
-23 -4 -55 -16 -72 -26 -17 -10 -47 -19 -66 -19 -19 0 -54 -9 -77 -20 -45 -20
-153 -50 -182 -50 -9 0 -35 -9 -56 -21 -22 -11 -74 -29 -115 -40 -86 -23 -112
-32 -195 -69 -33 -15 -76 -31 -95 -34 -19 -4 -57 -16 -85 -26 -27 -10 -73 -20
-102 -23 l-51 -4 34 24 c19 12 37 23 41 23 3 0 33 13 67 29 33 16 79 33 101
36 22 4 56 16 75 26 45 24 119 49 145 49 27 0 117 33 146 54 13 9 33 16 44 16
11 0 40 14 64 30 24 16 60 32 80 35 57 10 282 108 328 145 14 11 38 20 54 20
16 0 46 14 72 34 34 26 57 35 98 39 30 3 86 13 124 22 39 9 95 20 125 24 30 5
71 18 90 30 19 11 45 21 58 21 12 0 40 9 62 20 22 11 52 20 67 20 15 0 48 10
73 22 59 27 134 46 189 47 24 1 42 -1 40 -3z m-1176 -159 c-21 -18 -58 -41
-83 -51 -25 -10 -60 -25 -79 -33 -76 -32 -269 -92 -318 -97 -28 -4 -72 -15
-96 -26 -24 -11 -76 -26 -115 -34 -38 -9 -94 -24 -123 -36 -73 -27 -87 -25
-48 7 35 30 147 67 243 83 33 5 74 20 95 34 23 16 81 35 166 54 72 17 160 42
195 57 86 36 183 74 193 74 4 1 -10 -14 -30 -32z m-535 -101 c-19 -13 -57 -26
-84 -30 -27 -4 -76 -15 -109 -26 -33 -10 -72 -21 -86 -24 -14 -3 -43 -20 -65
-37 -21 -17 -70 -47 -109 -66 -38 -19 -83 -45 -100 -57 -16 -12 -56 -32 -89
-44 -32 -12 -77 -37 -99 -55 -45 -35 -109 -67 -136 -67 -9 0 -34 -10 -56 -21
-26 -14 -68 -24 -126 -29 -65 -5 -98 -13 -133 -33 -26 -15 -64 -29 -84 -32
-33 -5 -35 -4 -12 6 14 6 36 17 50 24 14 8 51 28 82 45 32 16 67 44 80 60 13
18 37 34 59 40 23 6 49 24 67 45 28 35 97 75 127 75 9 0 36 14 59 30 27 20 81
41 152 61 60 16 143 40 184 54 41 13 107 29 145 36 39 7 87 21 107 31 21 10
57 19 80 19 24 1 57 5 73 9 53 14 58 10 23 -14z m9697 -36 c66 -16 147 -38
179 -49 36 -13 84 -21 123 -21 35 0 80 -7 101 -16 20 -8 77 -26 126 -40 49
-14 105 -33 125 -43 20 -10 71 -28 114 -40 43 -12 97 -31 120 -42 22 -12 65
-30 94 -40 30 -10 67 -27 82 -39 16 -11 38 -20 48 -20 11 0 34 -11 53 -25 19
-14 43 -25 53 -25 31 0 268 -109 322 -148 18 -13 17 -13 -20 -7 -22 3 -55 15
-72 25 -18 11 -54 26 -80 34 -27 8 -91 31 -143 51 -52 20 -122 42 -155 49 -33
7 -80 22 -105 33 -25 11 -61 26 -80 33 -19 8 -46 22 -59 32 -13 10 -36 18 -50
18 -14 0 -47 11 -73 25 -26 14 -53 25 -61 25 -8 0 -54 14 -103 31 -49 17 -139
43 -200 59 -61 15 -124 35 -140 43 -17 9 -59 23 -94 32 -62 16 -248 89 -260
102 -3 3 4 3 15 -1 11 -4 74 -20 140 -36z m-9217 10 c-14 -10 -44 -24 -67 -29
-23 -5 -60 -21 -81 -35 -21 -14 -51 -28 -67 -32 -15 -3 -91 -37 -168 -75 -77
-38 -152 -69 -167 -69 -15 0 -42 -9 -61 -20 -44 -26 -156 -70 -178 -70 -9 0
-27 -9 -41 -20 -31 -24 -104 -50 -141 -50 -15 0 -54 -11 -87 -25 -33 -14 -79
-25 -103 -25 -24 0 -71 -11 -105 -25 -34 -14 -65 -25 -69 -25 -3 0 20 20 53
45 35 26 70 45 86 45 14 0 46 8 70 19 24 10 69 22 98 26 30 4 64 13 75 20 11
7 74 34 140 60 66 26 133 56 150 66 16 11 40 19 51 19 12 0 64 16 115 35 52
19 111 35 132 35 39 0 70 12 227 88 131 64 187 81 138 42z m10387 -489 c28
-11 95 -37 150 -57 55 -20 114 -43 130 -52 17 -9 59 -19 95 -22 39 -4 87 -17
120 -33 50 -24 52 -26 20 -22 -19 3 -57 10 -85 16 -27 6 -79 13 -115 15 -59 5
-84 13 -192 66 -10 4 -28 8 -41 8 -13 0 -46 16 -73 35 -27 19 -53 35 -57 35
-5 0 -21 10 -35 21 l-27 22 30 -6 c17 -2 53 -14 80 -26z m-11965 -26 c-30 -19
-73 -40 -95 -46 -22 -5 -54 -15 -71 -20 -17 -5 -38 -9 -46 -9 -9 0 -40 -11
-70 -25 -41 -19 -69 -25 -125 -25 -40 0 -73 4 -73 8 0 10 60 32 89 32 12 0 48
11 81 25 35 15 79 25 107 25 31 0 68 10 103 26 68 32 98 42 130 43 21 0 15 -6
-30 -34z m543 6 c-43 -17 -98 -30 -141 -33 -42 -3 -85 -13 -108 -25 -89 -47
-163 -73 -207 -73 -25 0 -49 -4 -52 -10 -3 -5 -21 -10 -38 -10 -30 1 -29 2 17
20 27 11 54 24 60 30 5 5 30 10 55 10 28 0 65 10 96 25 28 13 56 25 63 25 7 0
30 9 52 20 21 11 65 23 97 26 32 4 65 10 73 15 8 5 35 8 60 8 l45 0 -72 -28z
m-1697 -556 c7 -13 9 -24 5 -23 -36 4 -41 -23 -11 -62 13 -17 16 -28 8 -37 -6
-7 -7 -34 -4 -65 4 -29 10 -123 15 -208 6 -117 12 -165 26 -195 19 -40 27
-102 44 -350 4 -66 18 -162 30 -214 15 -69 21 -128 21 -220 0 -117 6 -173 32
-296 6 -27 14 -90 19 -140 5 -49 13 -130 19 -180 6 -49 14 -227 18 -395 4
-174 11 -311 17 -320 6 -8 13 -123 17 -255 10 -329 20 -432 43 -475 17 -30 20
-58 22 -195 2 -102 -1 -153 -7 -140 -5 11 -9 31 -9 45 -1 14 -16 79 -34 145
-42 149 -57 226 -57 292 0 28 -10 80 -21 115 -21 61 -27 113 -48 398 -5 74
-19 176 -30 225 -16 71 -21 125 -21 252 0 89 -5 174 -10 189 -14 37 -31 141
-41 254 -15 179 -27 278 -34 289 -3 6 -11 48 -16 94 -5 45 -14 105 -21 132
-15 66 -27 1347 -13 1357 18 13 30 8 41 -17z m14683 -830 c1 -230 -14 -409
-39 -470 -5 -11 -12 -33 -17 -50 -6 -25 -8 -18 -11 39 -2 39 2 74 8 80 5 5 10
49 10 96 0 48 7 109 15 136 11 36 15 102 16 249 0 121 4 192 9 180 5 -11 9
-128 9 -260z m-109 50 c-6 -38 -15 -92 -20 -118 -6 -27 -10 -169 -10 -315 0
-265 0 -267 -25 -316 -22 -43 -25 -62 -25 -153 0 -86 -4 -111 -21 -146 -22
-42 -33 -97 -47 -242 -5 -44 -17 -96 -27 -115 -10 -19 -22 -69 -26 -110 -5
-41 -13 -95 -19 -120 -6 -25 -15 -101 -20 -170 -6 -91 -14 -137 -29 -170 -20
-43 -21 -62 -21 -490 0 -305 -4 -456 -11 -480 -7 -19 -15 -136 -20 -260 -4
-124 -13 -254 -20 -290 -6 -36 -14 -184 -19 -330 -5 -185 -12 -283 -23 -325
-14 -56 -15 -31 -12 400 5 552 20 810 54 898 7 19 11 193 11 522 0 471 1 495
20 540 17 40 20 69 20 199 0 107 4 168 15 202 8 27 15 67 15 88 0 22 9 65 19
95 11 33 21 93 23 146 3 64 11 104 26 139 17 38 22 68 22 134 0 70 4 91 22
121 14 21 26 62 30 101 4 36 12 88 17 115 5 28 14 77 19 110 6 33 15 73 21 88
6 16 11 71 11 123 0 75 4 103 20 134 11 22 20 54 20 72 0 18 4 44 8 58 13 45
15 -58 2 -135z m64 -853 c-9 -14 -20 -59 -25 -103 -4 -42 -14 -97 -23 -123
-27 -79 -38 -156 -45 -321 -5 -138 -9 -166 -29 -202 -15 -29 -22 -60 -22 -97
0 -34 -9 -80 -24 -118 -38 -102 -95 -394 -96 -491 -1 -23 -9 -58 -20 -77 l-19
-35 -1 192 c0 173 2 196 21 240 16 35 23 81 29 173 5 69 14 145 20 170 6 25
15 79 19 120 4 42 16 91 26 110 11 20 23 68 27 110 13 137 27 212 48 247 17
29 20 52 20 142 0 59 3 110 6 114 3 3 14 1 25 -6 15 -9 22 -6 46 18 l28 30 3
-33 c2 -20 -4 -44 -14 -60z m43 -192 c-2 -45 -12 -97 -25 -130 -12 -30 -22
-76 -22 -102 0 -44 -10 -99 -30 -173 -6 -19 -8 11 -6 85 3 114 20 216 50 305
9 25 16 68 16 95 0 26 3 57 8 67 10 24 15 -49 9 -147z m-14355 -153 c9 -152
21 -247 37 -297 6 -20 11 -107 11 -208 0 -159 2 -176 20 -199 11 -14 20 -38
20 -52 0 -15 11 -60 25 -101 13 -41 25 -85 25 -98 0 -12 10 -42 22 -65 28 -54
37 -148 47 -482 7 -250 9 -263 37 -345 28 -83 29 -89 31 -330 2 -164 0 -240
-7 -230 -5 8 -10 57 -10 109 0 89 -3 110 -35 226 -30 111 -35 134 -35 161 0
16 -10 49 -21 74 -25 54 -39 156 -49 350 -4 80 -15 183 -25 230 -9 47 -21 164
-26 260 -4 96 -13 207 -18 245 -6 39 -15 124 -19 191 -5 66 -13 127 -17 135
-5 8 -13 57 -18 109 -12 132 -20 466 -10 457 4 -4 11 -67 15 -140z m18 -1038
c0 -81 4 -169 10 -196 26 -133 34 -204 41 -388 7 -193 19 -321 32 -342 4 -6
12 -42 18 -79 6 -38 15 -96 21 -129 5 -33 11 -130 14 -215 l4 -155 -20 35
c-14 27 -19 55 -20 117 0 46 -4 102 -10 125 -44 201 -51 257 -59 543 -6 219
-9 254 -26 285 -24 44 -35 156 -41 440 l-4 215 20 -55 c17 -45 20 -79 20 -201z
m14046 -619 c-3 -135 -9 -290 -15 -345 -6 -55 -15 -152 -20 -215 -6 -63 -17
-151 -25 -195 -14 -77 -14 -70 -10 185 7 440 35 933 55 975 13 28 14 25 17
-65 2 -52 1 -205 -2 -340z m-13804 -855 c5 -16 14 -77 19 -135 12 -146 25
-235 35 -251 5 -8 12 -68 17 -134 4 -66 12 -172 17 -235 6 -63 12 -162 15
-220 4 -105 4 -105 -11 -60 -9 25 -19 90 -24 145 -4 55 -14 116 -23 135 -8 19
-20 67 -26 106 -6 39 -23 111 -38 160 -26 86 -28 98 -30 344 l-3 255 21 -40
c12 -21 26 -53 31 -70z m237 -2388 c7 -31 11 -171 10 -415 -1 -354 -2 -365
-17 -307 -12 48 -16 133 -18 440 -2 209 1 369 5 355 5 -14 13 -46 20 -73z
m13170 -482 c-14 -60 -26 -182 -37 -365 -6 -90 -14 -147 -25 -170 -16 -34 -16
-26 -13 175 5 257 15 359 41 405 16 28 20 59 23 160 4 190 17 196 20 10 1
-100 -2 -185 -9 -215z m-13153 -593 c24 -93 34 -249 15 -238 -5 3 -20 31 -35
61 -25 53 -26 63 -25 208 1 126 3 144 11 107 6 -25 21 -87 34 -138z m-96 -204
c0 -66 5 -101 21 -140 12 -29 25 -78 30 -108 17 -109 21 -130 30 -136 5 -3 9
-56 9 -117 1 -71 6 -127 15 -152 17 -46 21 -139 5 -115 -11 17 -60 164 -60
180 0 6 -7 27 -16 48 -53 117 -53 123 -54 397 0 171 4 255 10 245 5 -8 10 -54
10 -102z m13207 -448 c-2 -64 -11 -146 -21 -185 -10 -38 -22 -106 -26 -150
-12 -114 -24 -175 -43 -215 -15 -33 -16 -24 -13 180 2 118 8 233 14 255 10 38
40 173 64 295 6 30 14 60 17 65 9 14 13 -111 8 -245z m-12947 -215 c0 -34 11
-78 35 -135 19 -47 35 -95 35 -106 0 -12 10 -34 22 -49 15 -20 23 -48 28 -99
3 -39 14 -85 23 -103 9 -18 17 -45 17 -60 0 -40 33 -138 53 -161 9 -10 17 -34
17 -53 0 -19 10 -54 22 -79 25 -52 47 -125 48 -156 0 -18 -7 -23 -41 -26 -22
-2 -42 -2 -45 1 -2 2 -4 31 -4 63 0 53 -2 59 -25 68 -14 5 -25 17 -25 27 0 10
-9 29 -20 43 -11 14 -20 30 -20 36 0 6 -16 33 -35 60 -19 27 -35 59 -35 71 0
13 -11 29 -24 38 -16 10 -26 29 -30 53 -3 20 -10 64 -17 97 -6 33 -13 179 -15
325 l-4 265 20 -35 c12 -21 19 -55 20 -85z m12775 -424 c-8 -24 -15 -66 -15
-92 0 -26 -4 -51 -10 -54 -5 -3 -10 -31 -10 -60 0 -36 -8 -73 -25 -111 -14
-31 -25 -65 -25 -75 0 -10 -4 -21 -10 -24 -5 -3 -10 -21 -10 -38 0 -18 -5 -39
-10 -47 -6 -10 -10 49 -10 175 l0 190 35 80 c29 67 35 92 35 151 0 59 5 81 30
130 16 32 31 66 32 74 1 8 4 -45 5 -119 3 -101 0 -146 -12 -180z m-193 -551
c-13 -17 -30 -26 -54 -28 -34 -3 -35 -2 -41 38 -3 23 -1 56 5 73 10 32 24 99
34 167 3 19 20 68 37 107 l32 73 3 -202 c2 -185 1 -205 -16 -228z m-297 -453
c-11 -7 -42 -22 -70 -32 -27 -10 -75 -35 -105 -55 -56 -36 -192 -100 -215
-100 -7 0 -35 -15 -61 -33 -27 -19 -67 -40 -89 -47 -22 -7 -63 -27 -91 -45
-28 -18 -61 -36 -75 -40 -13 -4 -51 -23 -85 -41 -69 -38 -100 -45 -69 -15 25
24 212 121 233 121 9 0 27 11 41 24 15 13 46 31 71 39 103 35 192 78 230 112
14 12 41 28 60 35 19 8 60 31 90 52 45 31 64 38 105 38 44 0 47 -1 30 -13z
m-361 -57 c-38 -27 -85 -61 -105 -75 -19 -14 -62 -35 -95 -46 -32 -11 -68 -29
-79 -38 -40 -36 -199 -108 -298 -136 -26 -7 -63 -27 -83 -44 -19 -17 -42 -31
-50 -31 -9 0 -33 -14 -54 -30 -36 -29 -196 -108 -250 -125 -14 -4 -36 -17 -50
-30 -14 -12 -47 -30 -73 -40 -26 -10 -52 -26 -58 -37 -5 -10 -21 -18 -35 -18
-31 0 -73 -21 -98 -49 -11 -12 -28 -21 -38 -21 -10 0 -38 -9 -61 -21 -48 -23
-41 -16 60 60 181 138 211 161 238 185 98 85 146 121 195 143 95 44 114 51
150 57 19 4 51 20 72 36 20 17 44 30 52 30 19 0 179 70 226 99 19 11 49 21 66
21 18 0 38 8 49 20 13 14 31 20 61 20 51 0 153 36 161 56 3 8 19 14 40 14 34
0 93 27 93 42 0 4 8 8 17 8 9 0 -15 -22 -53 -50z m-1191 -481 c-37 -33 -97
-80 -133 -105 -36 -25 -110 -80 -165 -124 -93 -74 -195 -133 -255 -147 -14 -3
-29 -9 -35 -13 -25 -19 -166 -60 -206 -60 -44 0 -140 -37 -154 -60 -3 -5 -20
-10 -38 -10 l-32 0 38 31 c67 55 131 95 175 107 23 7 42 17 42 21 0 5 20 16
43 25 24 9 55 28 68 42 13 14 71 48 129 75 57 27 114 58 125 69 11 10 33 22
48 25 15 4 49 25 74 46 26 21 59 41 75 44 15 4 34 12 41 19 12 12 186 73 215
75 7 1 -18 -26 -55 -60z m-604 -484 c-12 -13 -36 -27 -53 -31 -17 -3 -42 -14
-56 -23 -14 -10 -45 -28 -70 -40 -25 -13 -66 -40 -92 -62 -26 -21 -54 -39 -63
-39 -25 0 -45 -14 -102 -67 -79 -74 -120 -105 -218 -163 -93 -55 -195 -139
-207 -171 -4 -11 -45 -43 -90 -73 -46 -29 -92 -63 -102 -75 -11 -11 -30 -21
-43 -21 -13 0 -41 -9 -61 -20 -38 -20 -185 -71 -212 -73 -8 0 -56 0 -106 1
l-91 2 43 44 c28 30 57 49 86 56 56 15 97 36 128 66 14 13 44 30 68 38 23 8
57 26 75 40 17 13 52 29 77 36 25 6 104 40 175 75 72 35 141 66 153 70 13 4
54 33 91 65 37 32 86 67 108 79 23 11 45 25 48 31 4 6 27 21 53 34 26 13 57
34 70 46 48 46 265 160 304 160 13 1 39 9 58 20 47 26 54 25 29 -5z m-408
-125 c-25 -22 -50 -40 -56 -40 -6 0 -36 -17 -66 -38 -30 -21 -65 -43 -79 -50
-14 -7 -50 -35 -80 -62 -32 -29 -78 -59 -110 -70 -30 -12 -71 -32 -91 -45 -20
-13 -53 -31 -73 -39 -20 -9 -52 -23 -71 -31 -19 -8 -35 -13 -35 -11 0 2 30 25
68 51 37 26 78 59 92 74 14 14 41 37 61 51 47 33 91 67 146 113 24 20 50 37
56 37 7 0 35 12 62 25 28 14 58 25 67 25 9 0 38 11 64 25 26 14 56 25 68 25
18 0 14 -7 -23 -40z m-6671 -198 c25 -14 64 -40 87 -57 51 -39 122 -74 223
-111 41 -15 89 -39 106 -54 18 -15 49 -31 69 -34 22 -4 58 -24 84 -46 25 -20
75 -55 111 -76 89 -54 92 -55 136 -87 61 -45 324 -198 358 -210 17 -5 41 -19
54 -30 22 -20 69 -46 307 -166 66 -34 138 -72 160 -86 22 -14 56 -32 75 -41
19 -9 51 -25 70 -34 19 -10 49 -20 67 -23 18 -4 50 -19 73 -36 22 -16 55 -32
75 -35 19 -4 68 -22 110 -41 41 -19 112 -45 158 -59 45 -13 102 -33 127 -45
25 -11 62 -21 83 -21 28 0 50 -9 84 -35 25 -19 56 -35 68 -35 13 0 25 -6 28
-14 3 -7 36 -30 74 -51 37 -21 70 -42 72 -47 8 -21 47 -48 68 -48 24 0 83 -26
83 -36 0 -2 -9 0 -19 6 -11 5 -35 10 -54 10 -19 0 -74 16 -121 35 -48 19 -96
35 -106 35 -11 0 -36 11 -56 25 -24 16 -51 25 -77 25 -27 0 -60 11 -103 35
-34 19 -70 35 -79 35 -10 0 -32 9 -49 19 -17 10 -46 22 -64 26 -18 4 -64 24
-104 46 -75 41 -250 119 -268 119 -6 0 -41 16 -77 35 -36 19 -80 35 -98 35
-19 0 -55 15 -91 37 -66 41 -189 103 -204 103 -6 0 -33 16 -61 35 -28 19 -57
35 -64 35 -19 0 -146 69 -189 102 -21 17 -56 35 -78 39 -39 9 -151 77 -196
119 -12 11 -52 34 -88 50 -36 16 -90 47 -120 69 -31 22 -79 48 -107 57 -37 12
-69 34 -116 81 -35 35 -76 66 -90 69 -14 4 -42 18 -61 33 -19 15 -70 46 -112
70 -43 23 -81 48 -85 54 -9 14 -89 67 -101 67 -4 0 -28 21 -52 46 l-45 46 40
-7 c22 -4 60 -19 85 -33z m234 -37 c28 -8 59 -21 70 -28 12 -7 53 -24 91 -36
39 -13 86 -36 106 -52 19 -15 48 -31 65 -34 36 -8 100 -34 224 -91 52 -24 113
-48 135 -55 93 -27 208 -104 317 -211 10 -10 44 -30 75 -46 97 -47 147 -75
165 -90 9 -7 35 -18 57 -23 23 -5 62 -25 87 -45 26 -19 65 -44 86 -55 21 -11
47 -28 58 -39 10 -10 35 -23 56 -29 20 -5 44 -17 53 -25 14 -12 136 -78 276
-149 48 -25 245 -139 245 -142 0 -10 -150 40 -226 74 -51 22 -102 41 -115 41
-13 0 -44 16 -68 35 -24 19 -55 35 -68 35 -21 0 -112 35 -153 60 -98 59 -139
81 -220 120 -52 25 -113 57 -135 71 -22 14 -52 29 -66 32 -15 4 -51 25 -80 47
-29 22 -69 45 -89 51 -19 6 -41 16 -47 21 -7 6 -72 45 -145 88 -73 43 -146 89
-162 101 -34 27 -135 89 -145 89 -4 0 -34 22 -68 49 -71 57 -94 71 -122 71
-11 0 -33 11 -49 25 -30 25 -140 75 -196 89 -29 7 -116 54 -116 62 0 9 58 3
104 -11z m1321 -540 c17 -12 54 -27 83 -34 29 -6 65 -17 80 -25 15 -7 44 -16
65 -19 21 -3 55 -20 76 -36 22 -17 46 -31 54 -31 21 0 124 -55 163 -88 18 -15
47 -37 66 -50 88 -60 138 -98 138 -105 0 -13 -113 53 -128 74 -7 11 -37 31
-65 46 -29 14 -65 36 -82 49 -16 12 -43 26 -60 30 -33 8 -149 64 -205 99 -19
12 -61 30 -94 39 -59 17 -128 55 -142 77 -9 14 7 6 51 -26z m4031 -25 c-21
-11 -43 -24 -50 -29 -6 -5 -36 -19 -67 -30 -31 -12 -64 -30 -74 -41 -10 -11
-25 -20 -33 -20 -7 0 -26 -9 -40 -19 -15 -10 -68 -40 -117 -66 -50 -26 -96
-52 -103 -58 -7 -5 -34 -20 -60 -32 -26 -12 -74 -41 -107 -63 -33 -23 -68 -42
-78 -42 -11 0 -33 -10 -50 -22 -18 -13 -70 -43 -117 -67 -47 -24 -92 -49 -100
-56 -8 -7 -30 -17 -49 -24 -19 -6 -48 -22 -65 -34 -17 -13 -56 -36 -86 -50
-30 -15 -91 -47 -135 -71 -44 -25 -93 -48 -110 -51 -16 -4 -48 -15 -70 -25
-22 -10 -67 -26 -100 -35 -33 -9 -79 -26 -102 -38 -34 -17 -45 -19 -55 -9 -7
7 -20 12 -30 12 -44 0 4 40 112 95 30 15 72 43 94 61 21 18 53 40 71 48 19 9
60 38 92 65 32 26 69 52 83 56 14 4 36 14 48 22 13 8 58 25 100 38 147 45 229
76 347 131 39 17 81 35 95 39 57 17 145 58 179 85 20 16 55 33 78 39 23 7 45
16 48 21 4 6 22 17 42 25 20 8 53 31 74 49 43 40 90 66 116 66 10 0 32 7 48
16 48 26 76 32 145 33 l65 0 -39 -19z m-3837 -128 c72 -43 135 -73 193 -91 21
-7 40 -17 44 -22 3 -5 28 -21 56 -35 28 -14 62 -37 77 -50 26 -26 136 -94 150
-94 4 0 27 -13 52 -28 24 -15 64 -36 89 -46 25 -10 56 -28 70 -41 14 -13 41
-32 60 -44 19 -11 32 -21 28 -21 -16 0 -162 72 -232 114 -41 25 -102 59 -133
75 -32 16 -89 46 -128 67 -38 21 -88 47 -110 58 -23 12 -54 31 -71 43 -17 12
-43 25 -59 29 -15 4 -36 15 -45 24 -10 10 -45 32 -78 50 -34 18 -68 41 -78 51
-16 18 -15 18 16 9 18 -5 63 -27 99 -48z m333 3 c49 -25 100 -45 114 -45 13 0
68 -21 122 -46 53 -25 115 -53 137 -62 22 -8 49 -23 60 -32 28 -23 105 -66
135 -75 14 -4 37 -18 51 -32 15 -14 46 -29 70 -34 24 -6 65 -23 90 -40 25 -16
52 -29 60 -29 25 0 115 -47 152 -79 35 -31 64 -44 137 -61 56 -13 102 -33 128
-57 13 -12 40 -27 60 -34 21 -6 48 -18 60 -26 13 -8 39 -20 58 -26 l34 -12
-48 -53 c-45 -49 -51 -52 -95 -52 -57 0 -97 23 -97 55 0 14 -13 33 -36 50 -19
15 -49 40 -65 56 -19 19 -40 29 -60 29 -16 0 -48 9 -71 21 -48 24 -124 49
-154 49 -11 0 -35 11 -54 25 -19 14 -45 25 -58 25 -13 0 -40 13 -60 30 -21 17
-81 45 -138 64 -130 44 -132 45 -241 141 -50 45 -116 99 -145 118 -103 71
-143 100 -148 108 -3 5 -30 22 -60 39 -86 47 -37 35 62 -15z m1868 -505 c-25
-21 -59 -53 -76 -70 -17 -16 -36 -30 -42 -30 -6 0 -17 -8 -24 -19 -7 -10 -23
-21 -36 -25 -12 -4 -27 -16 -32 -27 -12 -22 -57 -26 -84 -6 -16 12 -15 14 11
38 46 41 136 97 168 105 17 3 46 18 65 33 32 24 61 38 85 40 6 0 -10 -17 -35
-39z"/>
<path d="M7296 13834 c-3 -9 -6 -41 -6 -71 0 -45 -7 -68 -35 -119 -24 -42 -35
-75 -35 -103 0 -23 -9 -55 -21 -76 -12 -20 -25 -64 -30 -98 -15 -115 -21 -131
-55 -164 l-34 -33 0 -114 0 -115 -41 -47 c-22 -26 -52 -66 -66 -88 -14 -23
-29 -43 -32 -46 -16 -13 -70 -90 -99 -140 -17 -30 -39 -64 -49 -75 -10 -11
-36 -42 -58 -70 -22 -27 -47 -55 -56 -62 -9 -7 -19 -25 -22 -40 -3 -16 -19
-46 -36 -67 -17 -21 -31 -46 -31 -55 0 -9 -11 -34 -25 -56 -13 -22 -25 -45
-25 -51 0 -16 -25 -70 -60 -129 -16 -27 -64 -120 -107 -205 -43 -85 -89 -168
-103 -185 -14 -16 -30 -39 -36 -50 -6 -11 -30 -56 -54 -100 -65 -121 -119
-214 -166 -280 -23 -33 -55 -83 -70 -112 -16 -28 -53 -93 -83 -143 -29 -50
-60 -106 -69 -123 -8 -18 -27 -50 -42 -72 -31 -45 -113 -207 -125 -245 -4 -14
-20 -52 -35 -85 -15 -33 -32 -76 -39 -96 -6 -20 -23 -51 -36 -69 -14 -19 -25
-38 -25 -42 0 -21 -124 -260 -160 -308 -22 -29 -40 -58 -40 -62 0 -5 -11 -34
-25 -64 -14 -30 -25 -57 -25 -59 0 -3 -29 -49 -65 -102 -36 -53 -65 -105 -65
-115 0 -28 -70 -198 -100 -243 -55 -81 -130 -204 -130 -213 0 -4 -11 -23 -25
-42 -14 -19 -25 -44 -25 -56 0 -12 -11 -35 -24 -51 -33 -40 -46 -68 -46 -98 0
-28 -35 -89 -69 -119 -11 -11 -21 -26 -21 -34 0 -8 -30 -46 -68 -86 -70 -74
-125 -151 -158 -223 -10 -24 -25 -43 -32 -43 -23 0 -52 -98 -52 -173 0 -46 -5
-64 -31 -101 -16 -25 -38 -51 -47 -58 -21 -16 -82 -103 -82 -117 0 -6 -13 -11
-29 -11 -37 0 -59 -24 -41 -45 7 -8 19 -15 26 -15 10 0 14 -12 14 -38 0 -71
14 -76 234 -84 245 -10 339 -17 350 -29 6 -5 46 -9 90 -9 55 -1 87 -5 100 -15
16 -12 57 -15 202 -15 l183 0 70 -35 c75 -38 112 -43 131 -20 7 8 20 15 30 15
30 0 56 33 103 132 26 53 47 99 47 102 0 3 9 15 20 26 14 14 20 33 20 66 0 26
8 72 19 103 44 132 51 157 51 184 0 16 14 48 31 72 31 43 40 73 58 187 7 41
19 70 45 103 19 26 40 62 46 81 6 19 15 34 19 34 8 0 42 64 62 115 8 21 13 25
17 15 8 -22 25 -30 39 -18 8 6 13 33 13 65 0 48 5 63 43 119 29 44 48 64 63
64 23 0 80 -26 89 -40 8 -13 32 -1 37 18 3 10 28 25 59 36 30 11 65 28 78 38
13 10 38 18 56 18 17 0 69 11 115 25 46 14 93 25 104 25 11 0 50 16 87 35 38
19 74 35 81 35 7 0 42 14 78 32 36 17 90 34 121 38 30 4 71 15 90 23 19 9 59
20 89 25 30 5 102 23 160 40 159 46 192 52 296 52 88 0 103 3 177 35 44 19 93
35 109 35 25 0 32 -7 53 -52 14 -29 25 -59 25 -66 0 -13 13 -36 56 -102 13
-19 30 -54 38 -76 8 -23 28 -61 45 -84 17 -24 31 -49 31 -56 0 -6 16 -31 35
-54 19 -23 35 -45 35 -49 0 -3 10 -17 23 -31 13 -14 34 -44 47 -67 13 -24 27
-43 32 -43 4 0 8 -6 8 -12 0 -7 13 -38 29 -68 51 -96 91 -182 91 -195 0 -7 15
-32 33 -56 19 -24 37 -57 41 -73 4 -15 29 -74 55 -130 98 -205 120 -254 127
-282 4 -16 15 -41 25 -56 11 -14 19 -35 19 -46 0 -29 24 -44 68 -41 36 3 46
-2 97 -49 42 -39 72 -57 116 -70 83 -24 85 -42 5 -42 -64 0 -96 -16 -81 -40 8
-13 146 -13 182 1 17 7 137 12 318 15 580 6 730 17 807 55 10 5 30 9 45 9 16
0 34 4 42 9 10 7 20 2 33 -14 10 -13 18 -28 18 -34 0 -6 9 -15 20 -21 11 -6
20 -16 20 -23 0 -19 21 -36 36 -30 20 8 19 178 -1 227 -8 20 -11 36 -6 36 5 0
13 10 17 22 8 25 -17 48 -52 48 -24 0 -28 8 -39 73 -7 44 -42 107 -59 107 -19
0 -56 87 -56 133 0 24 -4 47 -9 52 -5 6 -11 35 -14 65 -8 87 -25 203 -33 225
-5 11 -18 35 -31 54 -13 19 -23 49 -23 68 0 19 -14 66 -30 103 -17 38 -35 93
-40 121 -6 29 -17 60 -25 69 -8 9 -26 55 -40 103 -13 47 -43 124 -65 169 -22
46 -40 91 -40 102 0 10 -9 35 -20 55 -11 20 -29 60 -40 90 -12 30 -30 65 -40
79 -11 14 -20 35 -20 48 0 12 -11 35 -24 51 -13 16 -38 73 -56 128 -17 55 -35
107 -39 115 -12 23 -36 18 -39 -7 -3 -20 -7 -18 -37 22 -19 24 -43 70 -53 101
-10 31 -30 71 -45 88 -51 58 -96 133 -103 172 -4 22 -20 55 -35 74 -15 19 -31
49 -35 65 -6 28 -45 99 -100 185 -31 49 -114 233 -114 254 0 17 -27 76 -39 86
-14 11 -71 138 -79 176 -5 23 -21 57 -35 75 -14 19 -29 48 -33 64 -4 17 -15
42 -25 57 -11 15 -19 43 -19 67 0 28 -7 48 -21 62 -23 23 -49 79 -49 107 0 20
-85 142 -99 142 -6 0 -13 10 -17 23 -4 12 -17 44 -30 71 -13 28 -24 60 -24 72
0 12 -24 69 -54 126 -29 58 -57 123 -61 146 -3 22 -15 48 -26 58 -11 10 -19
30 -19 50 0 45 -13 75 -49 115 -17 18 -47 64 -66 101 -54 101 -249 318 -287
318 -10 0 -24 11 -30 25 -6 14 -30 36 -54 50 -23 14 -52 37 -63 51 -12 15 -49
46 -82 70 -53 37 -143 131 -189 198 -8 11 -27 36 -42 54 -15 18 -28 40 -28 50
0 9 -9 31 -20 47 -26 39 -25 43 5 57 14 6 28 22 31 35 4 15 17 26 38 31 20 5
32 15 34 29 7 48 -65 30 -121 -31 -28 -29 -30 -30 -43 -11 -8 10 -14 26 -14
35 0 9 -7 25 -15 36 -8 10 -15 29 -15 40 0 12 -9 33 -20 46 -15 20 -17 31 -10
54 26 83 32 114 26 129 -11 28 -30 11 -62 -56 l-32 -64 -72 -5 c-51 -4 -75 -9
-80 -20 -4 -8 -15 -28 -24 -45 -9 -16 -25 -46 -34 -65 -9 -19 -23 -41 -29 -48
-7 -7 -16 -25 -19 -40 -8 -31 -38 -77 -69 -107 l-22 -21 5 51 c3 27 13 67 23
87 11 21 19 55 19 76 0 21 7 47 15 58 28 36 55 106 55 144 0 21 7 43 15 50 19
16 19 25 -1 44 -20 21 -50 20 -58 0z m314 -419 l31 -55 -39 -47 c-21 -27 -58
-73 -81 -103 -41 -54 -104 -125 -198 -225 -25 -27 -37 -39 -27 -25 11 14 28
38 38 53 9 16 25 37 34 48 37 42 92 144 92 169 0 15 8 34 19 44 10 9 26 36 36
59 32 77 58 137 61 137 1 0 17 -25 34 -55z m175 -380 c49 -93 97 -188 108
-210 11 -22 28 -51 38 -64 11 -13 19 -32 19 -41 0 -10 13 -42 28 -71 16 -30
44 -88 62 -129 19 -41 44 -88 56 -105 12 -16 27 -48 34 -70 7 -22 19 -50 27
-63 8 -13 20 -41 28 -62 7 -21 24 -55 38 -77 13 -21 28 -58 32 -81 4 -27 27
-73 61 -123 30 -45 54 -84 54 -87 0 -4 14 -27 30 -52 17 -25 42 -68 56 -97 13
-28 35 -58 48 -67 14 -8 27 -30 31 -47 10 -45 53 -128 87 -167 15 -18 28 -39
28 -48 0 -24 40 -96 79 -140 20 -23 42 -61 48 -85 7 -24 23 -55 35 -69 44 -46
158 -204 204 -280 15 -25 59 -90 97 -144 38 -54 90 -135 114 -179 25 -44 50
-85 56 -92 24 -24 91 -173 108 -241 7 -27 27 -71 46 -98 18 -26 33 -53 33 -60
1 -23 90 -230 113 -260 28 -36 55 -93 88 -186 12 -36 31 -80 42 -99 10 -19 31
-82 46 -140 16 -58 44 -144 63 -191 20 -47 43 -112 53 -145 9 -33 25 -71 34
-85 28 -40 88 -168 120 -257 31 -87 53 -123 109 -185 40 -43 62 -82 62 -110 0
-24 15 -54 46 -91 13 -16 24 -37 24 -46 0 -25 37 -106 55 -121 8 -7 15 -23 15
-36 0 -28 20 -74 32 -74 4 0 8 -4 8 -10 0 -7 -197 -10 -570 -10 l-570 0 0 34
c0 24 -9 44 -35 72 -19 21 -35 44 -35 52 0 7 -16 28 -35 45 -19 17 -35 38 -35
48 0 9 -25 54 -56 100 -88 132 -117 187 -158 294 -21 55 -46 114 -56 130 -10
17 -28 59 -40 95 -12 36 -26 69 -31 75 -5 5 -9 16 -9 25 0 8 -16 37 -35 64
-21 30 -35 61 -35 79 0 16 -9 44 -19 61 -11 17 -22 48 -26 69 -4 20 -17 45
-29 55 -12 9 -31 32 -41 50 -11 17 -22 32 -26 32 -4 0 -28 30 -52 68 -31 45
-47 80 -49 107 -2 31 -8 41 -23 43 -11 1 -28 16 -37 32 l-17 30 65 0 c35 0 73
-5 83 -12 31 -19 51 -3 51 41 0 38 -22 63 -35 41 -4 -6 -37 -10 -76 -10 -61 0
-69 2 -69 19 0 28 -26 47 -45 31 -8 -7 -15 -21 -15 -31 0 -15 -7 -19 -32 -19
-18 0 -44 -6 -58 -13 -40 -21 -70 -27 -70 -14 0 7 -9 23 -20 37 -11 14 -20 38
-20 54 0 30 -45 106 -61 106 -5 0 -9 8 -9 19 0 22 -25 45 -40 36 -5 -3 -10
-21 -10 -38 0 -23 10 -41 35 -66 25 -24 35 -43 35 -64 0 -16 10 -45 21 -64 23
-36 19 -54 -6 -33 -12 10 -21 10 -38 2 -12 -6 -42 -13 -67 -15 -51 -5 -125
-23 -155 -37 -25 -11 -83 -19 -215 -28 -72 -5 -116 -14 -140 -27 -19 -10 -69
-22 -110 -26 -100 -10 -154 -22 -187 -44 -27 -18 -55 -26 -154 -45 -25 -4 -68
-22 -95 -38 -27 -16 -71 -38 -99 -48 -27 -9 -62 -26 -76 -35 -14 -10 -45 -22
-68 -28 -23 -5 -52 -16 -66 -25 -13 -9 -29 -16 -35 -16 -7 0 -38 -15 -70 -34
-48 -29 -187 -86 -206 -86 -8 0 58 82 80 101 23 19 14 39 -19 39 -17 0 -36
-18 -74 -69 -28 -38 -51 -73 -51 -79 0 -13 -32 -32 -55 -32 -9 0 -40 -11 -68
-24 -29 -13 -60 -27 -71 -30 -13 -5 -17 -13 -14 -31 4 -19 0 -26 -23 -34 -16
-6 -29 -17 -29 -27 0 -9 -11 -25 -25 -36 -14 -11 -25 -30 -25 -43 0 -12 -7
-28 -15 -35 -8 -7 -20 -31 -27 -54 -6 -22 -24 -59 -40 -80 -15 -22 -28 -46
-28 -54 0 -7 -11 -37 -24 -65 -13 -29 -27 -74 -31 -102 -8 -55 -25 -94 -50
-115 -9 -7 -33 -48 -54 -90 -21 -42 -43 -85 -49 -95 -20 -38 -72 -155 -72
-164 0 -6 -6 -13 -12 -18 -18 -11 -274 -23 -600 -29 -222 -4 -278 -2 -278 8 0
7 9 40 20 72 11 33 20 69 20 81 0 12 14 39 30 60 17 21 33 50 36 64 14 59 46
143 84 221 22 46 40 91 40 99 0 8 8 24 18 35 11 12 29 47 41 78 13 32 29 62
37 69 8 6 14 19 14 28 0 10 11 32 25 51 14 19 25 44 25 57 0 20 127 280 151
309 5 7 14 37 19 68 5 30 20 75 34 98 14 24 30 68 37 98 6 29 28 86 48 126 20
40 60 121 89 180 29 59 66 123 83 143 16 20 29 40 29 44 0 5 11 22 25 39 14
16 25 39 25 50 0 11 12 29 26 40 14 11 36 44 49 72 14 28 48 89 77 136 29 47
67 112 83 144 16 32 45 73 63 90 19 17 43 49 54 71 11 22 36 57 54 77 18 21
40 53 48 73 8 19 19 35 24 35 5 0 19 22 30 48 12 27 42 82 67 122 25 41 45 78
45 83 0 5 18 29 39 55 41 49 71 108 71 140 0 11 15 30 33 42 30 21 82 113 115
205 25 70 66 162 84 188 11 16 24 54 29 85 15 111 30 158 66 216 57 94 93 173
93 209 0 37 20 68 93 143 26 27 63 65 82 84 18 19 48 60 65 90 18 30 55 80 84
111 28 31 61 71 74 90 13 20 22 27 22 18 0 -9 7 -23 16 -30 14 -11 19 -10 35
10 10 12 21 39 24 59 9 49 25 93 44 117 9 11 22 31 30 45 14 25 48 66 169 200
37 41 97 113 132 160 l64 84 17 -54 c9 -30 56 -131 104 -225z m91 -37 c9 -17
35 -52 58 -77 23 -25 64 -77 91 -116 27 -38 63 -87 82 -108 18 -20 33 -42 33
-47 0 -6 22 -37 49 -69 26 -32 63 -85 81 -117 18 -33 45 -72 61 -89 15 -16 32
-47 37 -67 6 -21 20 -50 31 -64 12 -15 21 -32 21 -38 0 -6 13 -27 29 -47 17
-20 33 -49 37 -65 4 -16 15 -40 24 -54 10 -14 27 -45 39 -70 29 -62 69 -131
86 -150 8 -9 15 -27 15 -41 0 -13 7 -35 15 -49 8 -14 20 -36 27 -50 7 -14 27
-45 45 -69 18 -24 33 -50 33 -57 0 -7 11 -34 25 -60 14 -26 25 -55 25 -65 0
-10 8 -24 19 -31 10 -7 30 -35 45 -63 14 -27 44 -77 66 -110 21 -33 49 -78 61
-100 23 -42 74 -113 94 -130 21 -18 65 -87 65 -102 0 -8 11 -29 25 -47 13 -18
32 -60 40 -95 9 -34 34 -100 57 -147 32 -68 37 -88 28 -99 -9 -10 -9 -19 -2
-27 5 -7 13 -28 17 -47 7 -32 6 -34 -9 -19 -9 9 -32 47 -52 85 -20 37 -67 111
-104 163 -37 52 -83 120 -101 150 -18 30 -51 80 -74 110 -22 30 -53 73 -68 95
-14 22 -38 54 -53 70 -30 34 -49 69 -57 105 -4 14 -24 46 -47 70 -22 26 -51
74 -65 112 -15 36 -33 72 -41 79 -18 15 -66 107 -83 159 -6 20 -27 51 -46 69
-19 18 -35 38 -35 44 0 13 -65 125 -136 232 -30 45 -56 98 -60 120 -4 22 -18
60 -33 85 -14 24 -33 63 -43 85 -44 108 -66 155 -97 209 -19 32 -46 86 -60
120 -15 33 -34 72 -43 86 -9 14 -21 44 -26 68 -6 23 -22 58 -36 77 -14 18 -26
37 -26 41 0 4 -17 37 -39 73 -38 65 -58 111 -47 111 3 0 13 -14 22 -32z m217
-104 c9 -12 40 -39 67 -59 28 -20 50 -43 50 -51 0 -9 20 -24 45 -35 54 -24
220 -198 250 -262 26 -55 78 -137 87 -137 4 0 14 -13 23 -30 17 -33 20 -90 5
-90 -24 0 2 -132 34 -170 15 -18 32 -60 18 -45 -27 30 -182 240 -231 315 -32
48 -67 96 -78 107 -11 11 -33 47 -48 79 -15 33 -36 66 -47 75 -22 17 -59 75
-83 130 -9 20 -27 41 -41 47 -13 7 -24 18 -24 27 0 8 -10 25 -22 37 -18 18
-47 76 -48 96 0 8 27 -14 43 -34z m652 -1153 c3 -13 19 -43 34 -65 41 -59 88
-146 111 -205 11 -28 30 -68 43 -88 25 -40 85 -172 64 -140 -48 74 -77 123
-77 133 0 6 -11 23 -24 37 -14 15 -28 37 -31 49 -4 13 -15 39 -25 58 -9 19
-25 51 -34 70 -9 19 -34 62 -56 95 -21 33 -42 75 -46 94 -6 31 -31 79 -90 171
-12 19 -25 46 -29 60 -3 14 30 -36 74 -110 44 -74 83 -146 86 -159z m-2171
175 c-24 -43 -38 -95 -53 -191 -4 -27 -22 -76 -39 -109 -18 -32 -32 -64 -32
-71 0 -7 -11 -33 -25 -56 -14 -24 -25 -54 -25 -65 0 -12 -9 -32 -19 -46 -11
-13 -23 -36 -26 -51 -4 -14 -13 -31 -21 -38 -12 -10 -12 -5 1 30 8 23 21 52
30 64 8 12 15 34 15 49 0 15 11 53 25 84 14 31 25 66 25 77 0 11 7 28 15 37 8
8 32 69 54 133 33 100 80 197 95 197 3 0 -6 -20 -20 -44z m2256 -152 c21 -45
46 -84 54 -87 23 -9 65 -81 85 -146 10 -33 28 -69 40 -82 14 -16 21 -36 21
-65 0 -26 7 -50 19 -66 11 -13 23 -37 27 -53 4 -16 20 -47 35 -69 15 -23 30
-59 34 -81 l6 -40 -18 30 c-11 17 -63 120 -117 230 -55 110 -112 225 -128 256
-15 31 -28 64 -28 72 0 18 -66 145 -115 222 -19 30 -35 57 -35 61 0 20 86
-111 120 -182z m-2459 -168 c-5 -12 -21 -50 -36 -86 -14 -36 -35 -83 -47 -105
-11 -22 -34 -67 -50 -100 -59 -116 -67 -130 -110 -182 -35 -43 -44 -49 -46
-33 -2 10 6 32 17 47 12 15 30 51 40 78 47 122 63 161 75 175 16 20 61 115 76
162 6 21 20 44 29 50 10 7 27 29 37 48 l19 35 3 -34 c2 -19 -1 -44 -7 -55z
m-339 -537 c-4 -85 6 -112 31 -90 12 9 13 7 9 -16 -7 -36 -40 -83 -99 -141
-59 -59 -163 -177 -190 -217 -11 -16 -25 -44 -31 -61 -16 -49 -128 -211 -138
-201 -7 6 125 300 157 351 18 28 57 96 87 151 30 55 70 123 88 152 18 29 45
75 59 103 14 27 26 50 28 50 1 0 1 -37 -1 -81z m3662 -1035 c13 -39 35 -82 49
-96 14 -14 30 -44 36 -66 6 -22 18 -45 25 -52 8 -6 18 -26 22 -43 3 -18 19
-47 35 -64 15 -18 31 -50 35 -70 4 -21 17 -54 30 -74 12 -20 30 -52 39 -70 9
-19 24 -50 35 -69 10 -19 19 -39 20 -45 0 -14 -73 108 -115 190 -19 39 -53 95
-75 125 -22 30 -40 59 -40 63 0 5 -32 72 -70 150 -39 78 -75 159 -79 179 -8
34 -7 36 10 25 10 -6 29 -44 43 -83z m-4270 -115 c-21 -52 -43 -101 -49 -109
-24 -32 -95 -157 -95 -167 0 -6 -16 -30 -35 -53 -19 -23 -35 -50 -35 -59 0
-10 -9 -26 -20 -36 -10 -9 -25 -34 -31 -54 -13 -40 -57 -131 -64 -131 -2 0 9
32 26 71 16 39 34 89 39 110 6 21 40 82 75 134 36 53 65 101 65 108 1 6 9 30
20 52 11 22 19 43 20 47 0 3 25 43 55 88 30 45 55 87 55 93 0 5 2 8 6 5 3 -3
-12 -48 -32 -99z m4225 29 c64 -150 130 -273 173 -323 9 -11 26 -43 37 -72 11
-28 36 -72 55 -97 19 -25 40 -62 46 -83 20 -61 99 -236 115 -253 18 -20 70
-173 79 -232 4 -26 16 -54 26 -63 14 -13 20 -31 20 -60 0 -28 8 -52 25 -75 14
-19 25 -44 25 -56 0 -19 34 -108 61 -156 5 -10 9 -32 9 -48 0 -36 19 -77 49
-104 18 -16 21 -31 21 -92 0 -40 5 -76 10 -79 12 -8 13 -85 1 -85 -5 0 -12 11
-15 24 -3 14 -18 39 -33 57 -24 28 -28 44 -31 105 -3 52 -9 78 -22 92 -10 10
-21 34 -25 53 -8 38 -31 86 -51 110 -7 8 -45 86 -84 173 -39 87 -77 167 -85
179 -8 12 -15 41 -15 64 0 29 -10 61 -29 96 -16 28 -34 74 -40 101 -13 52 -49
130 -123 266 -26 47 -58 117 -72 155 -14 39 -37 92 -51 119 -14 27 -25 55 -25
61 0 7 -11 37 -25 67 -14 30 -29 79 -35 109 -6 30 -13 62 -16 72 -11 34 7 16
25 -25z m-1334 -513 c19 -19 35 -39 35 -45 0 -6 11 -26 25 -45 29 -38 85 -143
85 -160 0 -6 14 -33 31 -60 17 -28 37 -66 44 -85 7 -20 24 -52 38 -73 14 -20
28 -56 32 -79 9 -50 104 -237 180 -352 31 -47 55 -95 55 -110 0 -24 -2 -25
-25 -14 -14 6 -25 15 -25 20 0 4 -25 35 -55 68 -30 33 -55 65 -55 71 0 7 -11
27 -25 45 -14 18 -25 44 -25 59 0 15 -16 47 -35 72 -19 25 -35 52 -35 59 0 6
-15 41 -34 76 -19 34 -41 90 -50 123 -11 42 -24 68 -46 87 -16 15 -30 36 -30
47 0 10 -8 29 -18 42 -37 48 -120 243 -122 287 0 12 27 -4 55 -33z m-3152
-177 c-3 -24 -16 -60 -29 -80 -13 -21 -24 -42 -24 -48 0 -9 -31 -69 -106 -210
-8 -14 -14 -38 -14 -53 0 -15 -7 -30 -15 -33 -8 -3 -17 -16 -21 -27 -16 -53
-95 -205 -109 -211 -9 -3 -15 -18 -15 -34 0 -16 -20 -69 -44 -118 -24 -49 -51
-116 -61 -149 -20 -73 -28 -90 -60 -134 -14 -19 -25 -43 -25 -55 0 -12 -11
-55 -24 -96 l-24 -75 -91 -3 -91 -3 0 68 c0 59 4 71 25 92 36 34 85 109 91
140 3 15 18 34 34 43 17 10 32 29 36 45 3 15 17 44 31 65 13 20 23 45 22 55
-5 30 86 203 145 277 31 39 72 104 93 145 38 78 87 156 104 166 5 4 17 23 28
43 43 86 135 232 146 232 2 0 1 -19 -2 -42z m632 -938 c-7 -30 -27 -81 -44
-112 -18 -34 -31 -72 -31 -93 0 -20 -7 -58 -16 -86 l-16 -49 -50 0 c-27 0 -47
3 -45 8 3 4 36 72 75 152 38 80 79 153 90 163 11 10 26 32 32 48 18 43 20 31
5 -31z m3015 31 c17 -15 30 -35 30 -44 0 -27 22 -66 47 -82 12 -9 23 -25 23
-38 0 -12 16 -47 35 -77 27 -42 35 -65 35 -101 0 -31 6 -55 20 -72 25 -31 26
-57 3 -57 -12 0 -28 21 -45 59 -16 32 -28 61 -28 66 0 7 -20 51 -106 230 -73
154 -76 176 -14 116z m-3130 -445 c0 -46 -26 -130 -62 -205 -41 -82 -54 -101
-70 -101 -11 0 -10 132 1 149 6 9 5 21 -1 31 -8 12 -5 27 11 58 11 23 21 50
21 62 0 17 6 20 50 20 36 0 50 -4 50 -14z m-169 -51 c-16 -34 -27 -45 -44 -45
-24 0 -79 19 -114 38 -14 8 -79 13 -190 14 -165 1 -166 1 -62 8 58 4 112 11
120 16 12 8 297 23 308 17 2 -1 -6 -23 -18 -48z m4913 16 c11 -17 -107 -23
-541 -27 -363 -4 -433 -7 -443 -19 -10 -12 -10 -18 0 -30 11 -13 56 -15 289
-15 273 0 276 -1 251 -19 -21 -16 -49 -20 -185 -25 -88 -4 -209 -9 -270 -12
-130 -7 -215 7 -215 35 0 10 -11 34 -25 54 -46 69 -66 67 570 67 327 0 566 -4
569 -9z m-5212 -91 c18 -11 45 -20 60 -20 15 0 30 -4 33 -10 4 -6 -32 -10
-100 -10 -97 0 -106 -2 -113 -20 -8 -20 -9 -20 -66 10 -43 23 -80 34 -135 40
-42 4 -87 13 -101 18 -19 8 28 11 182 11 190 1 210 -1 240 -19z m-678 -9 c3
-5 47 -9 98 -10 73 -1 107 -7 155 -26 39 -16 81 -25 116 -25 41 0 67 -7 108
-30 l54 -30 -52 0 c-28 0 -55 5 -58 10 -3 6 -42 10 -86 10 -51 0 -90 5 -108
15 -17 8 -55 14 -92 14 -35 0 -77 4 -92 10 -16 6 -99 11 -193 11 -163 0 -164
0 -164 23 0 21 3 22 71 19 43 -2 76 1 82 7 13 13 153 15 161 2z"/>
<path d="M7512 11778 c-7 -7 -12 -16 -12 -22 0 -14 -96 -101 -136 -122 -24
-13 -37 -28 -41 -47 -3 -16 -13 -31 -22 -34 -27 -10 -51 -35 -51 -54 0 -10
-27 -71 -60 -136 -32 -65 -71 -143 -85 -173 -14 -30 -46 -89 -70 -130 -25 -41
-54 -99 -65 -128 -11 -29 -40 -88 -65 -132 -25 -43 -56 -104 -69 -134 -14 -31
-36 -71 -50 -89 -14 -18 -33 -50 -43 -72 -10 -22 -26 -51 -35 -65 -30 -47 -68
-115 -89 -160 -11 -25 -33 -55 -50 -68 -16 -13 -29 -29 -29 -36 0 -7 -27 -34
-60 -61 -60 -48 -105 -108 -95 -126 4 -5 49 -9 102 -9 87 0 95 -2 88 -17 -22
-57 -13 -103 19 -103 7 0 34 21 61 46 48 44 118 81 142 76 6 -1 17 5 25 15 22
29 118 65 198 74 41 4 98 15 125 24 78 26 214 36 548 43 257 6 309 9 318 22 6
9 8 112 7 265 l-3 250 -53 151 c-28 82 -52 168 -52 190 0 21 -7 66 -15 99 -8
33 -14 101 -15 151 0 89 -14 139 -61 226 -5 10 -9 24 -9 32 0 8 -6 16 -14 19
-15 6 -36 -11 -36 -29 0 -11 28 -83 55 -139 9 -18 16 -71 18 -130 5 -158 24
-258 80 -430 50 -154 52 -165 55 -290 2 -71 1 -127 -3 -123 -10 9 -25 77 -35
158 -4 36 -17 85 -29 110 -13 29 -21 65 -21 103 0 36 -8 76 -20 105 -11 26
-28 90 -39 142 -10 52 -25 109 -33 125 -9 17 -19 50 -22 75 -4 25 -25 82 -48
128 -22 45 -42 100 -45 122 -3 22 -10 43 -14 46 -5 3 -9 20 -9 38 0 19 -11 49
-25 70 -14 20 -25 48 -25 61 0 13 -6 28 -14 32 -7 4 -21 23 -30 41 -18 35 -26
38 -44 20z m104 -348 c9 -36 25 -76 35 -89 14 -18 19 -40 19 -90 0 -44 7 -80
20 -110 11 -24 20 -60 20 -81 0 -20 11 -58 25 -84 15 -29 25 -63 25 -90 0 -33
8 -54 35 -92 19 -27 35 -58 35 -69 0 -11 11 -65 25 -120 19 -75 25 -126 25
-207 l0 -106 -77 -7 c-43 -3 -166 -9 -273 -14 -194 -8 -219 -12 -295 -53 -41
-22 -131 -40 -240 -48 -112 -8 -145 -20 -145 -55 0 -14 -4 -25 -10 -25 -6 0
-10 48 -10 123 0 123 0 124 26 135 14 7 31 27 39 46 8 19 21 40 28 48 8 8 37
50 64 93 35 56 56 80 70 80 25 0 53 23 53 44 0 9 9 22 20 29 11 7 20 19 20 27
0 7 11 26 25 41 14 15 25 39 25 53 0 14 23 64 52 111 57 94 108 158 108 137 0
-31 -51 -168 -80 -215 -16 -27 -30 -56 -30 -64 0 -8 -11 -36 -25 -62 -14 -26
-25 -56 -25 -66 0 -11 -12 -27 -26 -37 -15 -9 -35 -36 -44 -59 -10 -23 -35
-60 -54 -82 -40 -43 -49 -91 -18 -93 35 -3 48 3 81 36 29 28 34 41 36 86 2 38
8 56 21 65 35 24 52 45 57 72 5 27 40 118 60 157 6 11 23 44 39 73 15 30 35
86 44 125 14 65 45 151 117 322 34 80 81 183 84 181 1 -1 10 -31 19 -66z"/>
<path d="M5853 6386 c-21 -5 -171 -13 -333 -17 -621 -18 -681 -22 -723 -46
-30 -18 -53 -23 -112 -23 -41 0 -84 -4 -97 -9 -13 -5 -68 -16 -123 -26 -55 -9
-125 -25 -155 -35 -30 -10 -77 -22 -103 -25 -27 -4 -77 -20 -112 -36 -35 -16
-76 -29 -92 -30 -15 -1 -39 -4 -53 -8 -17 -5 -29 -3 -36 8 -16 20 -44 6 -44
-22 0 -29 -14 -43 -53 -52 -15 -4 -33 -15 -40 -24 -6 -9 -41 -29 -77 -46 -36
-16 -71 -34 -79 -40 -7 -5 -39 -23 -70 -40 -82 -44 -75 -59 26 -63 l81 -3 5
-67 c2 -40 15 -95 31 -136 39 -99 50 -185 74 -561 5 -77 10 -141 11 -142 0 -1
8 -9 17 -17 15 -15 26 -61 43 -176 11 -70 27 -132 51 -195 11 -27 28 -91 39
-142 11 -50 32 -117 46 -148 15 -31 29 -75 32 -98 10 -78 54 -201 84 -232 16
-17 29 -35 29 -39 0 -4 6 -22 14 -39 8 -18 17 -43 20 -57 3 -14 19 -46 36 -72
26 -40 36 -73 65 -235 19 -103 39 -210 45 -236 5 -27 10 -128 10 -226 0 -136
4 -188 16 -224 19 -57 30 -61 150 -52 49 3 279 8 510 11 l422 5 10 -28 c5 -15
17 -37 25 -48 21 -28 45 -5 49 47 4 54 24 66 80 49 102 -30 152 -26 146 12 -3
19 -11 23 -56 27 -36 4 -57 11 -63 23 -6 9 -15 17 -22 17 -7 0 -23 26 -36 58
-21 47 -25 78 -28 177 -2 66 -8 124 -14 129 -5 6 -9 33 -9 61 0 49 -19 113
-89 305 -17 47 -31 99 -31 117 0 17 -4 35 -10 38 -5 3 -10 29 -10 56 0 50 -16
92 -51 138 -11 13 -19 35 -19 48 0 30 -29 121 -41 129 -5 3 -9 22 -9 42 0 36
2 37 58 56 31 11 89 25 127 31 39 7 110 24 159 39 48 14 110 26 136 26 67 0
105 9 129 31 11 11 34 19 50 19 20 0 34 7 41 19 6 12 10 108 10 243 l0 224
-31 43 c-22 30 -37 41 -50 38 -15 -4 -18 2 -21 42 l-3 46 -99 3 c-83 2 -104 0
-138 -18 -21 -11 -53 -20 -71 -20 -18 -1 -59 -7 -92 -15 -33 -8 -103 -15 -155
-15 -68 0 -113 -6 -162 -21 -98 -31 -98 -31 -98 150 l0 146 78 23 c42 13 95
30 117 38 23 8 54 14 70 14 17 0 44 9 60 20 46 32 94 50 130 50 19 0 54 9 80
20 26 11 62 20 81 20 18 0 63 11 100 25 53 20 85 25 159 25 83 0 97 3 122 23
38 33 73 40 88 20 18 -24 39 -10 63 41 21 44 22 60 22 330 0 287 -3 312 -35
286 -13 -10 -15 -57 -15 -271 0 -166 -4 -259 -10 -259 -6 0 -10 101 -10 284 0
232 3 289 15 312 8 16 15 40 15 55 0 14 5 30 11 36 15 15 5 29 -34 47 -38 18
-217 25 -274 12z m217 -115 c0 -28 -4 -53 -10 -56 -6 -4 -10 -117 -10 -306 0
-231 -3 -300 -12 -303 -66 -18 -298 -56 -345 -56 -49 0 -72 -6 -126 -35 -36
-19 -75 -35 -86 -35 -10 0 -40 -9 -66 -20 -26 -11 -72 -23 -103 -26 -32 -3
-106 -21 -167 -39 -60 -19 -123 -35 -140 -37 -25 -3 -30 -8 -33 -33 -1 -16 -7
-39 -13 -50 -12 -24 -6 -502 7 -584 5 -30 14 -56 21 -58 19 -7 53 58 53 100 0
37 1 37 40 37 45 0 85 15 118 44 23 20 37 21 320 24 l297 3 13 -40 c7 -24 12
-94 12 -168 0 -134 -9 -163 -51 -163 -10 0 -21 -4 -24 -10 -3 -5 -16 -10 -28
-10 -12 0 -43 -11 -69 -25 -42 -22 -59 -25 -158 -25 -104 0 -114 -2 -173 -32
-34 -17 -75 -34 -92 -37 -21 -5 -31 -13 -33 -29 -2 -13 2 -22 10 -22 23 0 -15
-20 -39 -20 -14 0 -23 6 -23 15 0 26 -27 28 -59 6 -16 -12 -37 -21 -48 -21
-21 0 -83 -36 -83 -48 0 -21 29 -32 82 -32 l58 0 0 -50 c0 -28 6 -63 13 -78 8
-15 19 -54 26 -87 7 -33 21 -82 31 -110 10 -27 21 -72 25 -100 3 -27 17 -77
30 -111 13 -33 27 -80 31 -105 3 -24 17 -69 29 -99 13 -30 28 -89 34 -130 7
-41 16 -97 22 -125 6 -27 15 -102 19 -165 4 -63 11 -127 15 -142 l7 -27 -363
-5 c-200 -3 -406 -8 -456 -11 l-93 -6 0 51 0 51 29 -22 c47 -35 61 -21 62 63
2 98 0 109 -22 137 -10 13 -19 29 -19 36 0 7 -11 28 -25 48 -13 20 -29 56 -35
79 -7 24 -18 50 -25 58 -18 21 -25 78 -33 262 -6 143 -9 160 -28 179 -36 36
-44 17 -44 -103 l0 -111 -24 35 c-19 28 -25 53 -29 119 -3 46 -10 104 -16 129
-6 25 -15 74 -20 109 -5 35 -18 76 -28 90 -20 27 -26 53 -92 391 -23 113 -63
288 -91 390 l-50 185 0 335 c0 268 -3 345 -15 384 -17 54 -20 192 -6 201 5 3
29 9 53 14 24 5 87 18 142 30 54 12 130 21 169 21 49 0 83 6 111 19 34 16 69
20 211 23 152 3 174 6 212 26 23 12 55 22 70 22 16 0 44 5 63 11 19 5 80 15
135 20 55 5 145 14 200 20 55 5 147 13 205 17 91 6 105 9 108 26 5 26 -14 36
-70 36 -37 0 -48 4 -48 16 0 22 61 44 122 44 31 0 81 10 118 24 53 19 86 24
183 25 l117 1 0 -49z m-1630 -76 c-10 -12 -10 -18 0 -30 9 -11 34 -15 94 -15
l81 -1 -90 -25 c-83 -22 -137 -31 -330 -53 -104 -12 -196 -31 -228 -47 -39
-19 -47 -18 -47 10 0 32 16 42 75 49 28 3 79 19 115 36 36 17 80 31 98 31 19
0 66 11 105 24 40 14 86 27 102 29 17 2 32 5 34 6 2 0 -2 -6 -9 -14z m-530
-366 c0 -39 7 -94 15 -123 12 -41 15 -98 13 -267 l-3 -214 -67 202 -68 201 0
116 c0 102 2 117 18 122 9 3 31 12 47 19 17 8 33 14 38 14 4 1 7 -31 7 -70z
m-52 -536 c40 -120 73 -252 83 -333 15 -128 27 -177 58 -238 27 -54 31 -72 31
-142 0 -66 4 -90 25 -130 18 -36 25 -65 25 -108 0 -32 3 -62 7 -66 22 -21 58
-216 40 -216 -3 0 -16 33 -27 73 -12 39 -30 95 -40 122 -42 118 -70 227 -70
274 0 33 -9 74 -25 111 -14 33 -25 79 -25 103 0 24 -16 91 -35 150 -30 93 -35
120 -35 205 0 70 -6 116 -19 158 -20 61 -37 143 -29 134 3 -3 19 -46 36 -97z
m1932 -339 c0 -14 5 -34 10 -45 10 -18 6 -19 -150 -19 -156 0 -160 0 -148 19
7 11 28 23 48 26 20 3 49 15 66 25 22 15 47 20 102 20 71 0 72 0 72 -26z
m-1361 -2001 l1 -143 -25 0 c-37 0 -45 32 -45 169 0 93 3 121 15 131 8 7 15
27 16 44 0 30 1 30 19 -14 15 -37 19 -71 19 -187z"/>
<path d="M9530 6335 c-8 -9 -30 -15 -56 -15 -38 0 -44 -3 -44 -20 0 -13 10
-24 25 -30 20 -8 23 -15 20 -41 -2 -17 -13 -41 -24 -53 -18 -19 -21 -35 -21
-112 0 -65 -6 -107 -22 -154 -17 -51 -23 -101 -29 -235 -12 -269 -25 -404 -48
-473 -19 -57 -21 -88 -21 -290 0 -192 -3 -242 -21 -327 -12 -55 -25 -140 -30
-190 -17 -170 -27 -240 -43 -295 -9 -30 -21 -84 -26 -120 -19 -136 -23 -156
-33 -175 -6 -11 -14 -65 -18 -120 -5 -55 -13 -125 -20 -155 -6 -30 -14 -125
-19 -210 -7 -147 -21 -244 -41 -282 -13 -25 -1 -47 29 -55 41 -10 496 5 500
17 2 5 35 10 72 10 38 0 72 5 75 10 12 19 63 11 70 -10 8 -26 40 -26 62 0 14
16 30 20 76 20 42 0 59 4 63 15 9 23 -15 45 -48 45 -25 0 -27 2 -18 19 5 11
10 33 10 50 0 16 4 32 9 35 5 3 11 20 14 38 6 44 46 146 69 180 10 14 18 34
18 45 0 10 7 27 15 37 12 16 15 61 15 232 l0 212 79 -77 c44 -42 81 -81 83
-88 1 -6 34 -45 72 -86 37 -42 82 -97 100 -123 17 -27 50 -62 73 -79 23 -16
45 -38 48 -47 3 -10 20 -26 36 -35 19 -11 33 -29 36 -46 5 -26 81 -141 117
-177 9 -9 13 -25 10 -37 -4 -15 2 -26 24 -42 25 -17 44 -21 114 -21 49 0 93 5
108 13 14 8 37 17 50 22 31 10 244 24 495 31 108 3 195 10 202 16 9 7 10 16 3
28 -13 24 -13 197 0 205 6 3 10 23 10 44 0 24 11 56 33 93 19 30 37 70 40 88
4 17 20 49 36 69 19 24 31 53 35 82 3 25 17 68 31 96 15 27 31 81 37 119 5 38
19 94 29 125 10 31 19 70 19 87 0 17 5 43 12 59 11 28 20 126 38 403 11 177
22 256 49 338 15 45 21 90 21 155 0 75 5 103 25 152 14 33 25 78 25 100 0 22
12 67 26 100 15 33 31 83 36 110 6 28 17 63 25 78 8 16 26 70 39 120 76 300
60 267 138 267 44 0 67 5 76 15 18 21 -1 41 -48 49 -50 8 -72 23 -53 35 9 6
11 18 7 34 -5 23 -3 27 28 33 19 3 37 12 40 19 8 22 -21 38 -51 30 -16 -4 -64
-10 -108 -14 -44 -4 -116 -17 -160 -30 -44 -12 -96 -26 -115 -31 -19 -4 -55
-13 -80 -20 -25 -7 -97 -15 -160 -17 -63 -3 -119 -9 -124 -14 -6 -5 -37 -9
-71 -9 -71 0 -85 -10 -85 -61 0 -21 -3 -45 -6 -54 -6 -15 -8 -15 -25 1 -22 20
-39 11 -39 -23 0 -13 -8 -37 -19 -51 -10 -15 -28 -72 -41 -127 -13 -54 -36
-123 -52 -153 -15 -30 -28 -59 -28 -66 0 -6 -16 -42 -35 -79 -19 -38 -35 -78
-35 -90 -1 -31 -34 -124 -52 -145 -8 -9 -19 -30 -22 -47 -4 -16 -25 -53 -47
-82 -21 -28 -46 -71 -55 -95 -10 -24 -32 -56 -51 -71 -18 -16 -33 -34 -33 -41
0 -7 -9 -31 -20 -54 -11 -23 -23 -57 -27 -75 -3 -17 -20 -51 -37 -75 -26 -38
-31 -55 -38 -135 -14 -172 -22 -225 -30 -197 -4 14 -8 35 -8 46 0 12 -16 45
-35 74 -25 37 -35 63 -35 90 0 21 -11 77 -25 124 -14 47 -25 97 -25 110 0 13
-12 41 -27 62 -25 37 -41 73 -83 189 -16 45 -27 72 -84 195 -9 19 -27 51 -41
70 -88 126 -132 194 -140 220 -4 14 -16 36 -26 49 -11 13 -19 36 -19 52 0 16
-11 39 -25 55 -14 15 -25 35 -25 45 0 10 -15 29 -32 43 l-33 25 -5 213 -5 213
-39 3 c-22 2 -49 10 -60 18 -31 21 -528 21 -546 -1z m600 -251 c0 -170 2 -190
20 -219 11 -18 27 -36 35 -39 8 -3 15 -15 15 -26 0 -12 11 -32 25 -46 14 -14
25 -34 25 -44 0 -31 73 -164 150 -275 19 -26 32 -46 69 -105 14 -22 60 -126
86 -195 55 -145 66 -170 90 -205 14 -20 25 -49 25 -66 0 -16 11 -65 25 -109
25 -79 33 -161 16 -151 -5 4 -12 24 -16 45 -4 22 -22 66 -42 98 -49 80 -143
262 -143 276 0 7 -10 28 -22 47 -12 19 -27 47 -33 62 -11 29 -74 105 -146 177
-47 46 -95 136 -122 228 -17 57 -53 138 -78 174 -10 15 -30 64 -45 109 -14 46
-36 93 -50 107 -35 35 -44 57 -44 108 0 25 -7 57 -16 70 -16 25 -16 25 13 25
15 0 45 11 65 25 20 14 44 25 52 25 21 0 30 19 16 35 -18 22 -47 18 -85 -11
-28 -21 -42 -25 -92 -22 -50 3 -54 4 -28 11 17 4 59 23 95 42 38 19 81 34 103
34 l37 1 0 -186z m-327 -29 c15 -30 27 -63 27 -74 0 -11 14 -36 30 -55 17 -19
40 -64 52 -102 12 -38 34 -89 50 -113 16 -26 28 -59 28 -78 0 -26 8 -42 34
-66 19 -18 44 -51 55 -75 13 -25 38 -52 61 -67 26 -17 49 -43 66 -78 15 -28
39 -68 54 -87 16 -19 33 -54 39 -76 6 -23 25 -58 41 -79 17 -21 30 -41 30 -46
0 -4 16 -34 35 -66 19 -32 35 -70 35 -84 0 -16 12 -36 35 -56 19 -17 35 -38
35 -47 0 -9 16 -41 36 -72 19 -30 41 -70 47 -87 6 -18 24 -54 41 -82 18 -31
32 -72 37 -107 4 -37 18 -75 38 -108 18 -30 31 -64 31 -84 0 -18 13 -57 29
-87 15 -30 32 -65 36 -79 9 -31 56 -98 72 -104 20 -8 61 32 73 72 7 20 20 56
31 79 10 24 19 53 19 65 0 13 7 32 15 42 8 11 15 30 15 42 0 13 5 26 10 29 6
3 10 15 10 26 0 10 4 27 9 37 39 74 55 113 62 152 14 82 22 105 45 133 14 16
24 42 24 59 0 17 16 59 35 94 23 40 35 76 35 101 0 21 7 47 15 57 8 11 15 26
15 34 0 8 9 25 20 39 12 16 20 41 20 64 0 21 11 62 24 91 36 78 86 208 96 249
5 19 18 55 29 80 11 24 21 56 21 71 0 15 7 53 17 85 9 32 18 85 21 117 3 47
11 71 38 110 19 28 34 56 34 62 0 15 38 48 83 73 36 20 52 21 307 21 l270 0 0
-66 c0 -71 -21 -171 -51 -244 -10 -25 -21 -63 -24 -85 -4 -22 -15 -60 -25 -85
-10 -25 -22 -66 -25 -92 -3 -26 -19 -72 -36 -102 -16 -32 -29 -71 -29 -91 0
-22 -10 -51 -25 -73 -14 -20 -25 -41 -25 -46 0 -5 -8 -28 -18 -50 -10 -23 -27
-68 -37 -101 -11 -33 -29 -82 -42 -110 -13 -30 -23 -69 -23 -98 0 -33 -9 -66
-30 -107 -22 -44 -33 -82 -39 -144 -5 -49 -15 -93 -25 -107 -9 -13 -16 -41
-16 -63 0 -37 -39 -198 -61 -254 -5 -13 -9 -45 -9 -71 0 -34 -5 -51 -15 -55
-9 -3 -15 -18 -15 -39 0 -18 -9 -50 -20 -72 -19 -37 -20 -59 -20 -372 l0 -333
-112 1 c-73 0 -106 3 -93 9 11 5 45 9 75 9 63 1 83 11 78 37 -5 28 -93 31
-171 5 -66 -22 -151 -37 -282 -51 -74 -7 -122 -15 -248 -40 -27 -6 -61 -10
-76 -10 -31 0 -69 34 -52 45 6 3 11 15 11 26 0 14 -7 19 -25 19 -14 0 -25 6
-25 13 0 8 -10 22 -21 33 -12 10 -28 35 -36 54 -19 44 -45 78 -111 143 -30 28
-63 69 -73 89 -10 21 -35 48 -55 62 -20 13 -63 55 -96 93 -33 37 -70 79 -82
93 -13 14 -31 40 -40 58 -9 18 -25 41 -34 51 -42 43 -94 109 -105 131 -7 14
-19 25 -27 25 -8 1 -25 6 -37 13 -28 15 -76 15 -91 0 -7 -7 -12 -22 -12 -34 0
-33 -27 -79 -47 -79 -19 0 -27 -26 -42 -135 -4 -30 -13 -68 -19 -83 -8 -19
-12 -109 -12 -268 0 -228 -1 -239 -19 -239 -19 0 -31 -18 -31 -48 0 -14 -8
-16 -45 -14 -51 4 -78 -7 -202 -86 -29 -18 -55 -37 -58 -42 -3 -6 -24 -10 -46
-10 l-40 0 4 248 c4 244 15 375 33 403 5 8 12 113 16 234 5 121 12 292 17 380
6 88 14 230 19 315 5 85 14 168 20 183 8 19 12 107 12 262 0 145 4 236 10 240
6 3 10 26 10 49 0 24 7 57 15 72 10 20 15 60 15 130 0 55 4 104 9 110 5 5 11
36 15 69 10 104 22 169 34 192 7 12 12 30 12 40 0 10 9 24 20 31 11 7 20 20
20 30 0 28 9 32 74 32 l61 -1 28 -54z m99 38 c13 -11 18 -30 18 -65 0 -51 20
-101 50 -127 10 -9 30 -51 45 -94 14 -43 41 -106 60 -141 37 -66 78 -176 70
-184 -3 -3 -14 15 -25 41 -11 25 -34 57 -50 71 -20 16 -30 34 -30 52 0 15 -15
55 -33 88 -19 34 -42 88 -52 121 -10 34 -30 73 -46 90 -16 17 -29 40 -29 50 0
11 -11 41 -24 68 l-24 47 26 0 c14 0 34 -7 44 -17z m1543 -496 c-4 -12 -15
-44 -25 -72 -10 -27 -35 -95 -55 -150 -20 -55 -48 -123 -61 -150 -13 -28 -24
-68 -24 -89 0 -23 -8 -48 -20 -63 -11 -14 -20 -33 -20 -42 0 -10 -5 -22 -12
-29 -6 -6 -15 -36 -19 -67 -4 -34 -19 -74 -38 -105 -19 -31 -31 -64 -31 -85 0
-21 -6 -37 -16 -43 -9 -5 -24 -33 -34 -63 l-19 -54 0 62 c-1 43 8 92 30 160
50 160 90 266 108 293 10 14 27 56 39 93 12 39 35 84 52 103 16 19 30 45 30
58 0 25 20 87 49 151 10 22 26 59 36 82 18 43 41 50 30 10z m614 -591 c-29
-92 -38 -158 -47 -341 -4 -82 -11 -156 -16 -163 -4 -8 -12 -64 -17 -125 -12
-149 -22 -214 -42 -260 -9 -21 -21 -71 -26 -111 -5 -46 -20 -96 -40 -137 -17
-35 -31 -77 -31 -92 0 -16 -13 -47 -29 -70 -16 -23 -36 -62 -43 -87 -13 -45
-13 -45 -16 59 -2 71 2 120 13 156 10 34 15 95 15 171 0 65 4 131 10 148 35
111 60 209 60 239 0 19 8 54 19 78 10 24 22 77 26 118 5 54 15 91 36 132 20
37 32 78 35 116 5 52 14 82 60 191 8 18 14 38 14 45 0 6 8 31 18 54 l17 43 3
-46 c2 -28 -6 -75 -19 -118z m-2739 -1326 c-6 -11 -10 -129 -10 -302 0 -165
-4 -289 -10 -298 -6 -10 -10 161 -10 493 0 457 2 515 18 565 l17 57 3 -248 c1
-154 -1 -255 -8 -267z m635 -166 c-8 -18 -15 -36 -15 -41 0 -4 -9 -14 -20 -21
-16 -10 -20 -23 -21 -70 0 -31 -4 -66 -9 -77 -5 -12 -9 87 -9 243 -1 249 0
265 19 289 14 18 20 41 20 75 0 31 8 64 23 91 l22 42 3 -250 c2 -206 0 -255
-13 -281z m-715 -34 l0 -440 -58 0 -58 0 9 58 c5 31 12 127 17 212 8 154 17
222 39 290 6 19 11 67 11 107 0 40 4 82 9 95 6 13 13 44 16 71 3 26 8 47 11
47 2 0 4 -198 4 -440z"/>
<path d="M8766 5385 c-48 -24 -53 -25 -335 -27 l-286 -3 -5 -180 c-3 -107 -11
-191 -18 -208 -7 -16 -12 -58 -12 -94 0 -48 -5 -72 -17 -85 -19 -21 -52 -113
-53 -147 0 -14 -6 -32 -14 -40 -15 -16 -63 -134 -73 -180 -6 -24 -106 -190
-145 -240 -10 -13 -18 -32 -18 -42 0 -10 -17 -38 -37 -63 -21 -24 -60 -79 -87
-120 -26 -42 -51 -76 -55 -76 -4 0 -41 -31 -82 -70 -41 -38 -82 -69 -93 -70
-10 0 -36 -16 -57 -35 -22 -19 -48 -35 -59 -35 -20 0 -20 7 -20 316 0 229 -3
321 -12 337 -13 22 -22 87 -38 257 -4 52 -11 109 -15 125 -4 20 0 46 14 78 19
44 21 68 21 263 l0 214 -24 6 c-13 3 -33 1 -44 -5 -13 -7 -87 -11 -184 -11
-116 -1 -175 -5 -203 -15 -22 -8 -50 -15 -62 -15 -20 0 -23 5 -23 44 0 28 -5
46 -14 49 -21 8 -36 -14 -36 -55 l0 -38 -110 0 c-92 0 -112 -3 -117 -16 -8
-20 32 -104 50 -104 19 0 84 -83 112 -142 23 -49 25 -65 25 -202 0 -100 -5
-167 -15 -207 -13 -49 -15 -135 -12 -546 3 -514 7 -557 51 -637 12 -23 55 -76
97 -118 61 -62 91 -85 154 -113 43 -20 89 -45 103 -55 13 -11 38 -20 54 -20
16 0 52 -16 85 -37 l56 -38 291 -7 c160 -4 336 -10 392 -13 94 -6 104 -5 154
19 30 14 61 26 70 26 31 0 157 149 189 222 10 24 28 52 40 62 11 11 21 25 21
33 0 7 9 22 20 33 26 26 60 94 60 122 0 13 9 34 20 48 12 15 20 41 20 65 0 22
7 51 15 65 11 18 14 63 15 170 0 120 3 154 20 198 11 29 20 63 20 76 0 13 10
45 21 72 22 50 79 254 79 284 0 9 8 25 19 34 13 12 20 35 23 74 3 36 16 81 36
123 19 39 32 82 32 105 0 21 11 63 25 92 14 31 25 72 25 97 0 23 7 56 15 71 8
16 15 39 15 50 0 12 8 32 18 45 55 72 90 210 62 244 -20 24 -107 19 -164 -10z
m-256 -102 c30 -3 80 -14 111 -24 30 -10 82 -19 115 -19 l59 0 -3 -57 c-2 -32
-12 -77 -23 -100 -10 -24 -19 -54 -19 -69 0 -30 -14 -60 -45 -94 -12 -14 -25
-41 -29 -61 -4 -21 -15 -48 -25 -60 -10 -13 -20 -46 -23 -74 -3 -29 -18 -71
-34 -100 -29 -50 -67 -180 -85 -285 -4 -30 -14 -75 -20 -100 -6 -25 -14 -93
-18 -151 -4 -77 -10 -112 -22 -125 -16 -19 -33 -53 -63 -128 -9 -21 -16 -62
-16 -90 0 -41 -5 -57 -26 -81 -32 -37 -44 -66 -44 -108 0 -31 -21 -96 -53
-167 -9 -19 -28 -66 -42 -105 -14 -38 -30 -77 -35 -85 -6 -8 -17 -28 -26 -45
-36 -65 -64 -95 -93 -95 -15 0 -32 -5 -38 -11 -18 -18 -624 8 -660 29 -12 6
-34 12 -48 12 -15 0 -38 9 -52 20 -21 17 -41 20 -115 20 -81 0 -93 3 -146 32
-31 17 -73 44 -93 60 -20 15 -40 28 -44 28 -11 0 -75 67 -75 78 0 6 -16 24
-35 41 -31 27 -35 36 -35 77 0 31 -8 59 -22 83 -21 33 -23 50 -26 209 -3 142
-1 179 12 207 10 20 16 60 16 102 0 38 4 73 9 78 13 14 21 149 27 454 3 175 1
268 -6 275 -14 14 -13 142 2 182 11 31 13 32 80 36 52 4 75 11 92 27 12 11 30
21 39 21 9 0 18 4 21 9 3 5 33 11 67 13 48 3 66 9 80 26 10 13 29 22 44 22
l26 0 -4 -402 c-3 -270 -9 -423 -17 -463 -8 -37 -14 -169 -17 -339 l-4 -278
36 -54 36 -54 130 0 c116 0 134 2 156 20 14 11 41 20 59 20 46 0 135 59 173
114 17 25 42 53 55 63 13 10 27 29 30 41 4 13 18 42 32 65 13 23 24 58 24 77
0 23 6 39 18 47 26 16 52 74 52 116 0 50 48 176 80 212 15 17 33 48 40 70 15
46 36 87 68 132 14 20 22 46 22 72 0 22 10 64 21 93 12 29 25 80 30 113 15
113 37 197 68 268 11 27 21 57 21 68 0 10 7 19 15 19 9 0 27 11 41 25 14 14
31 25 38 25 7 0 21 9 31 20 11 12 25 18 34 15 9 -4 41 -9 71 -12z m-1271
-1301 c5 -262 3 -332 -6 -332 -7 0 -13 6 -13 13 0 8 -9 22 -20 32 -20 18 -20
28 -17 289 2 149 7 287 11 306 4 19 10 51 13 70 l6 35 10 -40 c6 -22 13 -190
16 -373z m637 152 c-4 -13 -20 -37 -36 -54 -21 -22 -30 -40 -30 -64 0 -42 -48
-131 -117 -217 -54 -68 -94 -94 -156 -103 -20 -2 -50 -14 -66 -25 -16 -12 -39
-21 -52 -21 -21 0 -21 1 -5 19 9 10 29 21 44 24 15 4 52 30 84 59 31 29 74 69
95 89 22 19 57 64 79 98 21 35 56 82 76 105 20 23 40 55 44 71 10 40 38 79 42
58 2 -8 1 -25 -2 -39z m579 -457 c-8 -12 -15 -40 -15 -62 0 -23 -8 -53 -20
-70 -11 -16 -20 -40 -20 -53 0 -27 -26 -70 -57 -95 -13 -10 -23 -28 -23 -40
-1 -12 -14 -38 -30 -57 -17 -19 -30 -41 -30 -50 0 -15 -29 -62 -30 -48 0 12
61 172 74 193 20 32 46 121 46 159 0 26 10 49 35 82 30 38 35 54 35 97 0 29
10 76 23 109 l22 59 3 -101 c2 -78 -1 -106 -13 -123z"/>
</g>
</svg>
