<?xml version="1.0" encoding="utf-8"?>
<!-- Generator: Adobe Illustrator 25.4.1, SVG Export Plug-In . SVG Version: 6.00 Build 0)  -->
<svg version="1.1" xmlns="http://www.w3.org/2000/svg" xmlns:xlink="http://www.w3.org/1999/xlink" x="0px" y="0px"
	 viewBox="0 0 553.6 600" style="enable-background:new 0 0 553.6 600;" xml:space="preserve">
<style type="text/css">
	.st0{fill:#FFFFFF;stroke:#000000;stroke-miterlimit:10;}
	.st1{fill:none;stroke:#000000;stroke-miterlimit:10;}
	.st2{fill:#C3002F;}
	.st3{fill:#DD0031;}
</style>
<g id="Layer_3">
</g>
<g id="Layer_1">
	<path class="st0" d="M301.1,524.2"/>
	<path class="st1" d="M276.5,458"/>
	<path class="st1" d="M276.5,457.8"/>
</g>
<g id="Layer_4">
	<g>
		<path class="st2" d="M451.3,397.6l10.6-29.2l-0.2-0.1l-66.5-24.2l-0.9-0.3c-44.3,47.6-117,114-117,114v133.9l231.4-128.1l9-77.8
			L451.3,397.6z"/>
		<path class="st2" d="M424.5,167.4c57.2,56.5,7.2,132.4-5.3,149c-1.2,1.6-2.5,3.3-3.9,5l56.1,20.4l0.2,0.1l10.6-29.1l38.7,46.1
			l29.6-256.3l-273-97.4v64.8v0.3v104.3C286.7,158,364.5,108.2,424.5,167.4z"/>
	</g>
</g>
<g id="Layer_5">
	<g>
		<path class="st3" d="M105.1,208.6l1,0.3c3.5-14.2,11-28.4,24.3-41.5c60-59.2,137.8-9.4,147.1,7.2V70.4v-0.3V5.3l-273,97.4
			l8.3,72.3L105.1,208.6z"/>
		<path class="st3" d="M134.8,316.1c-7.6-10.1-29-42.1-31.9-78.3l-86.6-31.5L46,463.6l231.4,128.1V457.8
			C277.4,457.8,167.3,359.2,134.8,316.1z"/>
	</g>
</g>
</svg>
