<?xml version="1.0" encoding="utf-8"?>
<!-- Generator: Adobe Illustrator 25.0.0, SVG Export Plug-In . SVG Version: 6.00 Build 0)  -->
<svg version="1.1" id="Layer_1" xmlns="http://www.w3.org/2000/svg" xmlns:xlink="http://www.w3.org/1999/xlink" x="0px" y="0px"
	 viewBox="0 0 708.7 708.7" style="enable-background:new 0 0 708.7 708.7;" xml:space="preserve">
<style type="text/css">
	.st0{fill:#FFFFFF;}
	.st1{fill:none;}
	.st2{fill:#DD0932;}
	.st3{fill:#009245;}
	.st4{fill:#F9B03D;}
	.st5{opacity:0.35;fill:#020203;}
</style>
<rect y="0" class="st0" width="708.7" height="708.7"/>
<rect x="212.6" y="212.6" class="st1" width="283.5" height="283.5"/>
<polygon class="st2" points="354.3,658.8 356.8,657.4 351.8,657.4 "/>
<polygon class="st2" points="82.5,252.1 626.1,252.1 637.8,150.9 354.3,49.9 70.9,150.9 "/>
<polygon class="st2" points="82.6,252.8 626,252.8 626.1,252.1 82.5,252.1 "/>
<polygon class="st3" points="602.7,455.1 106,455.1 114.1,525.7 351.8,657.4 356.8,657.4 594.6,525.7 "/>
<polygon class="st2" points="106,455.1 602.7,455.1 602.8,454.4 105.9,454.4 "/>
<polygon class="st4" points="105.9,455.1 602.8,455.1 626,252.8 82.6,252.8 "/>
<polygon class="st5" points="354.3,49.9 354.3,117.5 354.3,117.1 354.3,425.6 354.3,425.6 354.3,658.8 354.3,658.8 594.6,525.7 
	637.8,150.9 "/>
<path class="st0" d="M354.3,117.1L177.1,514.5l0,0h66.1l0,0l35.6-88.9h150.4l35.6,88.9l0,0h66.1l0,0L354.3,117.1L354.3,117.1
	L354.3,117.1L354.3,117.1L354.3,117.1z M406.1,370.8H302.6l51.8-124.5L406.1,370.8z"/>
</svg>
