<svg xmlns="http://www.w3.org/2000/svg" viewBox="0 0 1000.97 644.97"><defs><style>.a{fill:#fff}.b{fill:#248bcc}.c{fill:#136faa}.d{fill:#231f20}</style></defs><path class="a" d="M502 105.7L669.09 481h-62.41L573 397H431l-33.65 84h-62.44zm48.89 239.56L502 227.64l-48.89 117.62z"/><path class="b" d="M758.21 136.61L789.44 204l-7.68 66.86c-1.6 0-3.24.08-4.91.08-16.1 0-31.09 18-31.09 33.09 0 16.62 15.42 33.09 28.32 33.7L755 504 501 642 245 504l-18.75-166.22c13-.27 28.74-16.92 28.74-33.72C255 289 240 271 223.9 271c-1.77 0-3.5-.07-5.2-.09l-7.51-66.57 31.35-67.7a30.71 30.71 0 0 0 2.46-7.09 36.33 36.33 0 0 0 .83-7.71A32.07 32.07 0 0 0 239 102v.25c-.38-.51-.77-1-1.18-1.48L501 6l263.22 93.32a32.69 32.69 0 0 0-2.48 2.9V102a32.08 32.08 0 0 0-6.84 19.84 36.33 36.33 0 0 0 .83 7.71 30.61 30.61 0 0 0 2.48 7.06zM669.09 481L502 105.7 334.91 481h62.41L431 397h142l33.65 84z"/><path class="b" d="M502 227.64l48.89 117.62h-97.78L502 227.64z"/><path class="c" d="M645.39 427.77l23.7 53.23h-62.41L573 397H431l-33.65 84h-62.44l92-206.74-187.18-131.58-30.15 65.11 7.12 63.1c2.32-.05 4.73.08 7.2.08 16.1 0 31.1 18 31.1 33.09 0 16.94-16 33.73-29.06 33.73a9.3 9.3 0 0 1-1.67.07L243 504l256 138 254-138 .06-.56z"/><path class="c" d="M527.98 345.26l-57.94-40.72-16.93 40.72h74.87z"/><path class="a" d="M47.5 260c14.71 1.38 20.49 18.17 16 35.32L52 339.8c-3.76-5-6.8-8.95-8-10.75-4.92-7.13-17.58-24.93-17.58-46.91-.04-10.92 9.34-23.27 21.08-22.14zM210.71 524.94a13.59 13.59 0 0 1 0 27.18 13.91 13.91 0 0 1-9.43-3.76c-2.39-2-8.17-9.75-8.17-9.75l-7.89-11-2.24-3.2-50.26-71c5.23-8.39 9.13-16.5 9.13-23.41 0-16.28-10.89-27.15-24-27.15l9-19.28c1.46-.87 4.52-1.91 10-.74 8.73 1.8 12.61 8.91 14.26 13.15 1.32 3.42 30.6 86.77 42.59 120.82l.51 1.46 4.54 12.8.88-1.4c2.37-2.95 6.14-4.72 11.08-4.72z"/><path class="a" d="M150.86 292.58l-54.1 117.66-2.27 5.16a18.72 18.72 0 0 1 28.1 16.14 18.43 18.43 0 0 1-.25 3.23 4.31 4.31 0 0 0-.25 1 10 10 0 0 1-.43 1.6v.25a42.41 42.41 0 0 1-3.74 7.77l-14.22 22.23-4.55 7.07-21.84 34.22-2.22 3.57-7.69 12h.79c8.08-.27 13.81 6.3 13.81 13.82 0 5.62-4.72 13.31-13.06 13.31-8.53 0-14.2-5.78-14.2-13.31a16.56 16.56 0 0 1 .39-4.21l68.67-261.64zM227.53 123.53a15.33 15.33 0 0 1-1.6 6.71l-40.63 88.34c-.3-2.36-.86-5.87-1.74-11.09a84.61 84.61 0 0 0-5-17l28.29-54.94a14 14 0 0 1-6.79-12c0-7 6.54-14 13.7-14a13.86 13.86 0 0 1 13.77 14zM222.3 291.21c10.28-.17 15.14 7.41 14.88 15.21-.16 5.65-5.78 12.07-12 13.9a12.6 12.6 0 0 1-3.34.48 15.21 15.21 0 0 1-8.7-2.59l-22.49-16.76-13.87-10.24L52 198.48c-11.85-8.84-28.19-26.81-25.86-56.68C28 117.44 47.47 95.51 68.66 88.86c0 5.72 0 11.4.2 15.72A148.48 148.48 0 0 0 72 130.74c1.54 6.29 7.38 16.06 23.38 16.43 5.5.11 12.1 0 18.39-.26a97.46 97.46 0 0 1 10.72 4.61c20.72 10.66 31.89 28 36.19 35.76a80.49 80.49 0 0 1 7.52 54.91l-30.26-22.88-4.38 18.5 58.34 43.07 5.92 4.38 13.81 10.21a16 16 0 0 1 10.53-4.21z"/><path class="d" d="M223.9 271c16.1 0 31.1 18 31.1 33.06 0 16.94-16 33.73-29.06 33.73a9.07 9.07 0 0 1-1.28.08c-.87 0-1.77-.08-2.67-.08-7.69 0-13.77-1.64-19.35-6.16l-38.41-28.94-30.65 66.22a31.42 31.42 0 0 1 5.61-1c3.43-.17 12-.23 18 5.39 4.15 3.9 8.64 10.72 11.93 19.56l40.88 117c.45-.14.9-.2 1.38-.31C229.94 506.16 244 521.24 244 539s-16.54 32.23-32.6 32.23a32 32 0 0 1-22.88-9.54 50.09 50.09 0 0 1-8.67-9.94L122.08 470 91.4 518.63c5.59 4.29 9.07 10.8 9.41 19.67.67 18.87-15.42 32.34-32.2 32.57-18.79.08-37-17.38-32.2-37.7.42-1.6 28.18-105.92 35.79-134.39L60 383l-4.15 14.37c-3.09 10.67-5.73 21.73-8.62 26a18.57 18.57 0 0 1-15.92 8.78 18.78 18.78 0 0 1-18.84-18.72v-.11a18 18 0 0 1 18-18h.86a24.07 24.07 0 0 1 5.33.84L45.45 364l-4.52-5.84c-13.59-17.68-21.68-27.9-27.82-39.64A65.47 65.47 0 0 1 8 271.44c6.82-25.32 26.78-31.27 38.68-30.65 17.91.84 28.69 10.72 33.27 22.06 4.86 12.19 4 24.76 1.8 33.8l-15.61 62.21C71 365.1 75 371.66 77.9 375.23l29.56-115.18-66-48.68C3.56 183.55 3.9 138.8 16.28 114.63 28 91.5 44.72 79.82 59.23 74.51a69.48 69.48 0 0 1 9.88-3.11c.11-2 .14-3.4.2-4 .28-3 3.82-4.35 6.82-5 6.76-1.46 8.65 1.35 8.65 2.36l.19 4c16.2-1.76 50.7-1.57 50.7-1.57l-.11 9.46v23.61l-13.7 1.6a3.61 3.61 0 0 0-3.06 3.85 4.72 4.72 0 0 0 3.87 4.49 8.54 8.54 0 0 0 3.12.53h.21l42.19-4.68-5.19 16.1c-16.42 1.86-29.36 3-38.9 3.51h-1.24a19.94 19.94 0 0 1-1-39.86v-3.88c-5.73.14-12.63.42-20.27 1.1a20.77 20.77 0 0 1-5.22 9.49 53.06 53.06 0 0 1-9.91 8.14l.22 4.94a107.81 107.81 0 0 0 .26 14.93c.73 6.85 4.8 12 19.65 12.5 14.12.47 31.52-2.28 31.52-2.28l-1 10.45c5.76 3.2 11.43 7.86 18.73 14.37a80.56 80.56 0 0 1 13.75 17.18l17.8-34.31a30 30 0 0 1-6-18c0-16.93 15.52-30.68 31.83-30.68 10.95 0 20.16 4.91 25.8 12.46V102a32.08 32.08 0 0 1 6.84 19.84 36.33 36.33 0 0 1-.83 7.71 30.71 30.71 0 0 1-2.46 7.09L187 256.55l21.31 16.06c4.69-2.33 9.99-1.61 15.59-1.61zm13.28 35.45c.26-7.8-4.6-15.38-14.88-15.21l-.19.05a16 16 0 0 0-10.53 4.21l-13.81-10.21-5.92-4.38-58.34-43.07 4.38-18.5 30.26 22.88a80.49 80.49 0 0 0-7.52-54.91c-4.3-7.72-15.47-25.1-36.19-35.76a97.46 97.46 0 0 0-10.72-4.61c-6.29.23-12.89.37-18.39.26-16-.4-21.84-10.2-23.33-16.46a148.52 148.52 0 0 1-3.09-26.16c-.2-4.32-.2-10-.2-15.72C47.47 95.51 28 117.44 26.1 141.8c-2.33 29.87 14 47.84 25.86 56.68l124.78 92.73 13.87 10.24 22.49 16.76a15.21 15.21 0 0 0 8.7 2.59 12.6 12.6 0 0 0 3.34-.48c6.26-1.83 11.86-8.25 12-13.9zm-11.25-176.21a15.33 15.33 0 0 0 1.6-6.71 13.87 13.87 0 0 0-13.74-14c-7.16 0-13.7 6.91-13.7 14a14 14 0 0 0 6.79 12l-28.29 54.94a84.61 84.61 0 0 1 5 17c.88 5.22 1.44 8.73 1.74 11.09zm-1.72 408.26a13.53 13.53 0 0 0-13.5-13.56c-4.94 0-8.73 1.77-11.11 4.72l-.88 1.4-4.54-12.8-.51-1.46c-12-34-41.27-117.4-42.59-120.82-1.65-4.24-5.53-11.35-14.26-13.15-5.5-1.17-8.56-.13-10 .74l-9 19.28c13.11 0 24 10.87 24 27.15 0 6.91-3.9 15-9.13 23.41l50.26 71 2.24 3.2 7.89 11s5.78 7.72 8.17 9.75a13.91 13.91 0 0 0 9.43 3.76 13.58 13.58 0 0 0 13.53-13.62zM96.76 410.24l54.1-117.66-27-20.13-68.7 261.64a16.56 16.56 0 0 0-.39 4.21c0 7.53 5.67 13.31 14.2 13.31 8.34 0 13.06-7.69 13.06-13.31 0-7.52-5.76-14.09-13.84-13.86h-.79l7.69-12 2.22-3.57 21.84-34.22 4.55-7.07 14.17-22.27a42.41 42.41 0 0 0 3.74-7.77v-.25a10 10 0 0 0 .43-1.6 4.31 4.31 0 0 1 .25-1 18.83 18.83 0 0 0-15.52-21.64 19.21 19.21 0 0 0-2.93-.25 18.38 18.38 0 0 0-9.4 2.52zm-33.21-115c4.44-17.15-1.34-33.94-16-35.32-11.74-1.09-21.12 11.26-21.12 22.18 0 22 12.66 39.78 17.58 46.91 1.23 1.8 4.27 5.75 8 10.75zM992.78 271.44a65.49 65.49 0 0 1-5.14 47.05c-6.14 11.74-14.23 22-27.82 39.64L955.3 364l8.85 32.17a24.07 24.07 0 0 1 5.33-.84 18 18 0 0 1 18.82 17.14v.86a18.78 18.78 0 0 1-18.73 18.83h-.11a18.57 18.57 0 0 1-15.92-8.78c-2.89-4.27-5.53-15.33-8.62-26L940.79 383l-12.24 15.83c7.61 28.47 35.37 132.79 35.79 134.39 4.78 20.32-13.41 37.78-32.2 37.7-16.78-.23-32.87-13.7-32.2-32.57.34-8.87 3.82-15.38 9.41-19.67l-30.69-48.57-57.77 81.72a50.09 50.09 0 0 1-8.67 9.94 32 32 0 0 1-22.88 9.54c-16.06 0-32.6-14.37-32.6-32.23s14.07-32.87 32.65-29.53c.48.11.93.17 1.38.31L831.67 393c3.29-8.84 7.78-15.66 11.93-19.56 5.93-5.62 14.54-5.56 18-5.39a31.42 31.42 0 0 1 5.61 1l-30.65-66.22-38.41 28.94c-5.58 4.52-11.66 6.16-19.35 6.16a28.93 28.93 0 0 1-3.95 0c-6.52 0-13.79-4.2-19.42-10.51s-9.64-14.75-9.64-23.22c0-15.06 15-33.09 31.09-33.09 5.6 0 10.89-.69 15.59 1.64l21.31-16.06-55.57-120a30.71 30.71 0 0 1-2.46-7.09 36.33 36.33 0 0 1-.83-7.71 32.12 32.12 0 0 1 6.84-19.89v.25c5.64-7.55 14.85-12.46 25.8-12.46 16.31 0 31.83 13.75 31.83 30.68a30 30 0 0 1-6 18l17.8 34.31a80.56 80.56 0 0 1 13.75-17.18c7.3-6.51 13-11.17 18.73-14.37l-1-10.45s17.4 2.75 31.52 2.28c14.85-.54 18.92-5.65 19.65-12.5a107.81 107.81 0 0 0 .26-14.93l.22-4.94a53.06 53.06 0 0 1-9.91-8.14 20.79 20.79 0 0 1-5.25-9.55c-7.64-.68-14.54-1-20.27-1.1v3.91a19.94 19.94 0 0 1-1 39.86h-1.24c-9.54-.53-22.48-1.65-38.9-3.51l-5.14-16.08 42.19 4.68h.2a8.54 8.54 0 0 0 3.12-.53 4.72 4.72 0 0 0 3.87-4.49 3.61 3.61 0 0 0-3.06-3.85l-13.7-1.6V76.67l-.11-9.46s34.5-.19 50.7 1.57l.19-4c0-1 1.89-3.82 8.65-2.36 3 .62 6.54 2 6.82 5 .06.62.09 2 .2 4a69.48 69.48 0 0 1 9.88 3.11c14.51 5.31 31.19 17 43 40.12 12.38 24.17 12.72 68.92-25.15 96.74l-66 48.68L923 375.25c2.86-3.57 6.93-10.13 11.76-16.37L919 296.65c-2.19-9-3.06-21.61 1.8-33.8 4.58-11.34 15.36-21.22 33.27-22.06 11.93-.62 31.93 5.33 38.71 30.65zm-44-73c11.85-8.84 28.19-26.81 25.86-56.68-1.91-24.36-21.37-46.29-42.56-52.94 0 5.72 0 11.4-.2 15.72a148.52 148.52 0 0 1-3.09 26.16c-1.54 6.29-7.38 16.06-23.38 16.43-5.5.11-12.1 0-18.39-.26a97.46 97.46 0 0 0-10.72 4.61c-20.72 10.66-31.89 28-36.19 35.76a80.49 80.49 0 0 0-7.52 54.91l30.26-22.88 4.38 18.5-58.33 43.11-5.9 4.38-13.81 10.21a16 16 0 0 0-10.53-4.21l-.19-.05c-10.28-.17-15.14 7.41-14.88 15.21.16 5.65 5.78 12.07 12 13.9a12.6 12.6 0 0 0 3.34.48 15.21 15.21 0 0 0 8.7-2.59l22.49-16.76L824 291.21zm8 130.57c4.92-7.13 17.58-24.93 17.58-46.91 0-10.92-9.38-23.27-21.12-22.18-14.71 1.38-20.49 18.17-16 35.32l11.56 44.52c3.72-5 6.76-8.91 8-10.71zM946 538.3a16.56 16.56 0 0 0-.39-4.21l-68.69-261.64-27 20.13L904 410.24l2.27 5.16a18.72 18.72 0 0 0-28.1 16.14 18.43 18.43 0 0 0 .25 3.23 4.31 4.31 0 0 1 .25 1 10 10 0 0 0 .43 1.6v.25a42.41 42.41 0 0 0 3.74 7.77L897 467.66l4.55 7.07L923.4 509l2.22 3.57 7.69 12h-.79c-8.08-.23-13.84 6.34-13.84 13.86 0 5.62 4.72 13.31 13.06 13.31 8.57-.13 14.26-5.91 14.26-13.44zm-63.1-135.45l-8.9-19.28c-1.46-.87-4.52-1.91-10-.74-8.73 1.8-12.61 8.91-14.26 13.15-1.32 3.42-30.6 86.77-42.59 120.82l-.51 1.46-4.64 12.8-.88-1.4c-2.38-2.95-6.17-4.72-11.11-4.72a13.59 13.59 0 0 0 0 27.18 13.91 13.91 0 0 0 9.43-3.76c2.39-2 8.17-9.75 8.17-9.75l7.89-11 2.24-3.2 50.26-71c-5.23-8.39-9.13-16.5-9.13-23.41.03-16.28 10.92-27.15 24.03-27.15zm-60.72-212.4l-28.29-54.94a14 14 0 0 0 6.79-12c0-7-6.54-14-13.7-14a13.87 13.87 0 0 0-13.76 14 15.33 15.33 0 0 0 1.6 6.71l40.63 88.34c.3-2.36.86-5.87 1.74-11.09a84.12 84.12 0 0 1 5-17z"/><path class="a" d="M974.65 141.8c2.33 29.87-14 47.84-25.86 56.68L824 291.21l-13.87 10.24-22.49 16.76a15.21 15.21 0 0 1-8.7 2.59 12.6 12.6 0 0 1-3.34-.48c-6.26-1.83-11.88-8.25-12-13.9-.26-7.8 4.6-15.38 14.88-15.21l.19.05a16 16 0 0 1 10.53 4.21l13.8-10.21 5.92-4.38 58.34-43.07-4.38-18.5-30.28 22.88a80.49 80.49 0 0 1 7.52-54.91c4.3-7.72 15.47-25.1 36.19-35.76a97 97 0 0 1 10.69-4.61c6.29.23 12.89.37 18.39.26 16-.37 21.84-10.14 23.38-16.43a148.52 148.52 0 0 0 3.09-26.16c.2-4.32.2-10 .2-15.72 21.22 6.65 40.68 28.58 42.59 52.94zM945.59 534.09a16.56 16.56 0 0 1 .39 4.21c0 7.53-5.67 13.31-14.2 13.31-8.34 0-13.06-7.69-13.06-13.31 0-7.52 5.76-14.09 13.84-13.86h.79l-7.69-12-2.22-3.57-21.84-34.18-4.55-7.07-14.17-22.27a42.41 42.41 0 0 1-3.74-7.77v-.25a10 10 0 0 1-.43-1.6 4.31 4.31 0 0 0-.25-1A18.83 18.83 0 0 1 894 413.09a19.21 19.21 0 0 1 2.93-.25 18.38 18.38 0 0 1 9.4 2.52l-2.33-5.12-54.1-117.66 27-20.13z"/><path class="a" d="M874 383.57l9 19.28c-13.11 0-24 10.87-24 27.15 0 6.91 3.9 15 9.13 23.41l-50.26 71-2.24 3.2-7.89 11s-5.78 7.72-8.17 9.75a13.91 13.91 0 0 1-9.43 3.76 13.59 13.59 0 0 1 0-27.18c4.94 0 8.73 1.77 11.11 4.72l.88 1.4 4.54-12.8.51-1.46c12-34 41.27-117.4 42.59-120.82 1.65-4.24 5.53-11.35 14.26-13.15 5.4-1.17 8.46-.13 9.97.74zM793.89 135.51l28.29 54.94a84.61 84.61 0 0 0-5 17c-.88 5.22-1.44 8.73-1.74 11.09l-40.63-88.34a15.33 15.33 0 0 1-1.6-6.71 13.87 13.87 0 0 1 13.74-14c7.16 0 13.7 6.91 13.7 14a14 14 0 0 1-6.76 12.02z"/></svg>