<?xml version="1.0" encoding="UTF-8" standalone="no"?>
<!-- Created with Inkscape (http://www.inkscape.org/) -->

<svg
   xmlns:dc="http://purl.org/dc/elements/1.1/"
   xmlns:cc="http://creativecommons.org/ns#"
   xmlns:rdf="http://www.w3.org/1999/02/22-rdf-syntax-ns#"
   xmlns:svg="http://www.w3.org/2000/svg"
   xmlns="http://www.w3.org/2000/svg"
   xmlns:sodipodi="http://sodipodi.sourceforge.net/DTD/sodipodi-0.dtd"
   xmlns:inkscape="http://www.inkscape.org/namespaces/inkscape"
   width="90.794556mm"
   height="97.630966mm"
   viewBox="0 0 90.794555 97.630966"
   version="1.1"
   id="svg3785"
   sodipodi:docname="angular-communities.svg"
   inkscape:version="0.92.4 5da689c313, 2019-01-14"
   inkscape:export-filename="/home/nya/Pictures/cathedral3.svg.png"
   inkscape:export-xdpi="2341.8999"
   inkscape:export-ydpi="2341.8999">
  <defs
     id="defs3779" />
  <sodipodi:namedview
     id="base"
     pagecolor="#ffffff"
     bordercolor="#666666"
     borderopacity="1.0"
     inkscape:pageopacity="0.0"
     inkscape:pageshadow="2"
     inkscape:zoom="1.4142136"
     inkscape:cx="-4.5504926"
     inkscape:cy="219.69589"
     inkscape:document-units="mm"
     inkscape:current-layer="layer1"
     showgrid="false"
     showguides="true"
     inkscape:object-nodes="false"
     inkscape:snap-smooth-nodes="true"
     inkscape:window-width="1920"
     inkscape:window-height="1051"
     inkscape:window-x="0"
     inkscape:window-y="0"
     inkscape:window-maximized="1"
     inkscape:guide-bbox="true"
     fit-margin-top="0"
     fit-margin-left="0"
     fit-margin-right="0"
     fit-margin-bottom="0"
     inkscape:snap-text-baseline="true">
    <inkscape:grid
       type="xygrid"
       id="grid3787"
       spacingx="0.052916667"
       spacingy="0.052916667"
       empspacing="4"
       originx="-47.454062"
       originy="-61.29944" />
    <sodipodi:guide
       position="22.607603,76.495558"
       orientation="1,0"
       id="guide4989"
       inkscape:locked="false" />
    <sodipodi:guide
       position="6.8765441,21.413666"
       orientation="0,1"
       id="guide5010"
       inkscape:locked="false" />
    <sodipodi:guide
       position="25.568445,35.934914"
       orientation="0,1"
       id="guide5467"
       inkscape:locked="false" />
  </sodipodi:namedview>
  <metadata
     id="metadata3782">
    <rdf:RDF>
      <cc:Work
         rdf:about="">
        <dc:format>image/svg+xml</dc:format>
        <dc:type
           rdf:resource="http://purl.org/dc/dcmitype/StillImage" />
        <dc:title />
      </cc:Work>
    </rdf:RDF>
  </metadata>
  <g
     inkscape:label="Layer 1"
     inkscape:groupmode="layer"
     id="layer1"
     transform="translate(-47.454061,-138.06959)">
    <g
       id="g5197"
       transform="matrix(2.823593,0,0,2.823593,141.64536,-380.66962)"
       inkscape:export-xdpi="780.50934"
       inkscape:export-ydpi="780.50934">
      <path
         style="fill:#dc0030;stroke-width:0.08466666"
         d="m -24.087668,214.57802 c -3.725333,-2.06671 -6.801358,-3.80776 -6.835611,-3.869 -0.06649,-0.11889 -2.435388,-20.59403 -2.435388,-21.04988 0,-0.14876 0.01225,-0.27047 0.02723,-0.27047 0.01498,0 3.60573,-1.27635 7.979451,-2.83633 4.373722,-1.55999 8.022191,-2.83634 8.107708,-2.83634 0.207955,0 15.9047218,5.58825 16.0299142,5.70685 0.073902,0.07 -0.202195,2.69304 -1.1237612,10.67615 -1.0836951,9.38755 -1.2398289,10.59855 -1.3818716,10.71802 -0.1673598,0.14076 -13.2456974,7.40042 -13.4673394,7.47558 -0.07038,0.0239 -3.146799,-1.63222 -6.900333,-3.71458 z"
         id="path5201"
         inkscape:connector-curvature="0" />
      <path
         style="fill:#c2002e;stroke-width:0.08466666"
         d="m -17.272001,201.04154 c 0,-9.43042 0.03136,-17.16559 0.06969,-17.18928 0.03833,-0.0237 3.629258,1.22615 7.9798333,2.77742 6.720705,2.39639 7.913997,2.84612 7.9358079,2.99085 0.014119,0.0937 -0.5131604,4.85188 -1.1717324,10.57374 -0.9773208,8.49125 -1.2232461,10.42888 -1.3380042,10.54206 -0.143841,0.14185 -13.1639676,7.37447 -13.3647406,7.42405 -0.09109,0.0225 -0.110859,-3.02983 -0.110859,-17.11884 z"
         id="path5199"
         inkscape:connector-curvature="0" />
    </g>
    <path
       style="fill:#ffffff;fill-opacity:1;stroke:none;stroke-width:0.00000004;stroke-linecap:butt;stroke-linejoin:miter;stroke-miterlimit:4;stroke-dasharray:none;stroke-opacity:1"
       d="m 110.08804,185.875 c 13.22917,0 13.22917,0 13.22917,0 z"
       id="path3815"
       inkscape:connector-curvature="0" />
    <path
       style="fill:#ffffff;fill-opacity:1;stroke:none;stroke-width:0.00000004;stroke-linecap:butt;stroke-linejoin:miter;stroke-miterlimit:4;stroke-dasharray:none;stroke-opacity:1"
       d="M 123.31721,199.10417 H 110.08804"
       id="path3835"
       inkscape:connector-curvature="0" />
    <path
       style="fill:#ffffff;fill-opacity:1;stroke:none;stroke-width:0.00000004;stroke-linecap:butt;stroke-linejoin:miter;stroke-miterlimit:4;stroke-dasharray:none;stroke-opacity:1"
       d="M 75.692206,199.10417 H 62.463039"
       id="path3839"
       inkscape:connector-curvature="0" />
    <path
       style="fill:#ffffff;fill-opacity:1;stroke:none;stroke-width:0.00000004;stroke-linecap:butt;stroke-linejoin:miter;stroke-miterlimit:4;stroke-dasharray:none;stroke-opacity:1"
       d="M 75.692206,185.875 H 62.463039"
       id="path3841"
       inkscape:connector-curvature="0" />
    <g
       id="g5159"
       transform="translate(-1.0986933)"
       style="fill:#020202;fill-opacity:0.91818183;stroke:none;stroke-width:0.00000004;stroke-miterlimit:4;stroke-dasharray:none;stroke-opacity:1" />
    <g
       id="g5154"
       transform="translate(-0.91349528)"
       style="fill:#020202;fill-opacity:0.91818183;stroke:none;stroke-width:0.00000004;stroke-miterlimit:4;stroke-dasharray:none;stroke-opacity:1" />
    <g
       id="g5164"
       transform="translate(-1.0193308)"
       style="fill:#020202;fill-opacity:0.91818183;stroke:none;stroke-width:0.00000004;stroke-miterlimit:4;stroke-dasharray:none;stroke-opacity:1" />
    <g
       id="g857"
       transform="matrix(0.00852958,0,0,-0.00852958,58.998385,220.68489)"
       style="fill:#ffffff;stroke:none">
      <path
         id="path829"
         d="m 3875,7870 c -16,-4 -52,-8 -79,-9 -33,-1 -53,-6 -61,-18 -10,-13 -35,-17 -128,-21 -115,-4 -115,-4 -119,19 -3,23 -6,24 -73,22 -168,-3 -261,-9 -274,-17 -7,-5 -36,-10 -63,-12 -27,-2 -84,-19 -126,-37 -65,-28 -77,-36 -75,-55 2,-14 -3,-22 -12,-22 -11,0 -13,8 -8,30 7,37 -1,38 -82,7 -133,-50 -191,-96 -187,-148 2,-21 -2,-29 -10,-27 -7,3 -13,15 -13,27 0,12 -13,33 -28,47 -22,20 -34,24 -57,19 -16,-3 -34,-13 -41,-21 -6,-8 -19,-14 -29,-14 -21,0 -46,-49 -27,-54 6,-2 28,-8 48,-15 19,-6 48,-11 64,-11 27,0 28,-1 10,-14 -17,-12 -23,-12 -47,0 -33,17 -90,18 -106,2 -7,-7 -12,-23 -12,-37 0,-14 -12,-38 -27,-53 -22,-23 -25,-32 -17,-46 17,-26 254,-30 304,-5 46,24 53,60 13,68 -52,12 -59,19 -20,23 26,2 45,-2 57,-13 17,-15 22,-15 73,9 32,14 56,32 59,44 4,14 21,23 59,32 30,7 71,21 91,31 45,23 58,24 58,5 0,-8 6,-16 13,-19 6,-2 -1,-8 -18,-12 -60,-15 -67,-44 -22,-92 20,-22 25,-23 147,-16 l 127,6 26,-35 c 15,-19 27,-41 27,-47 0,-7 -12,-47 -27,-88 l -27,-76 22,-38 c 25,-44 18,-54 -24,-33 -27,14 -30,14 -46,-6 -10,-12 -18,-35 -18,-51 0,-29 33,-69 57,-69 18,0 90,37 98,50 7,11 55,14 55,4 0,-11 -34,-33 -52,-34 -9,0 -37,-29 -62,-65 -38,-54 -46,-74 -46,-110 0,-59 26,-121 61,-146 16,-11 29,-27 29,-36 0,-8 10,-45 23,-81 28,-84 77,-138 132,-147 22,-3 59,-15 83,-26 87,-39 145,-18 188,70 15,31 43,79 61,108 19,28 37,68 40,87 7,47 17,54 104,71 147,30 140,26 186,90 24,33 51,72 60,86 16,25 24,27 113,33 114,9 185,40 210,93 10,22 22,33 37,33 22,0 63,42 63,65 0,20 -63,79 -113,105 -51,27 -62,46 -21,36 53,-14 86,23 49,54 -12,10 -12,15 -1,33 29,45 28,63 -3,94 -16,16 -30,38 -32,49 -2,11 -22,27 -46,39 -41,18 -43,22 -43,62 0,24 -5,51 -11,61 -10,15 -7,23 15,45 31,31 32,43 6,57 -15,8 -41,7 -97,-4 -43,-8 -81,-12 -86,-9 -4,3 -7,17 -5,31 3,22 -2,27 -30,33 -56,11 -285,18 -317,9 z"
         inkscape:connector-curvature="0"
         style="fill:#ffffff" />
      <path
         id="path831"
         d="m 5003,7760 c -36,-15 -54,-67 -34,-98 4,-8 38,-17 75,-22 61,-7 72,-13 115,-53 42,-39 56,-46 106,-52 60,-8 80,-2 99,28 7,11 6,23 -4,42 -19,36 -126,115 -155,115 -13,0 -39,9 -58,20 -39,23 -113,34 -144,20 z"
         inkscape:connector-curvature="0"
         style="fill:#ffffff" />
      <path
         id="path833"
         d="m 2117,7518 c -24,-17 -30,-19 -37,-7 -10,16 -51,4 -125,-37 -40,-23 -45,-30 -45,-61 0,-28 3,-33 18,-30 9,3 51,13 92,22 92,21 114,35 139,84 29,55 10,68 -42,29 z"
         inkscape:connector-curvature="0"
         style="fill:#ffffff" />
      <path
         id="path835"
         d="m 4560,7454 c 0,-25 4,-53 10,-63 17,-34 138,-54 147,-25 8,24 -110,134 -144,134 -9,0 -13,-14 -13,-46 z"
         inkscape:connector-curvature="0"
         style="fill:#ffffff" />
      <path
         id="path837"
         d="m 1740,7342 c -152,-95 -240,-162 -246,-187 -3,-14 -19,-34 -35,-45 -15,-11 -30,-28 -33,-38 -3,-9 -16,-22 -28,-27 -64,-28 14,-44 100,-21 39,10 61,11 81,3 22,-8 37,-4 89,22 57,29 65,37 96,100 22,43 51,82 78,104 l 42,35 13,-29 c 17,-42 43,-37 110,22 l 58,51 3,-32 c 4,-38 24,-47 57,-26 41,27 40,18 -4,-31 -66,-75 -65,-74 -54,-92 14,-23 165,-60 250,-60 64,-1 74,-3 84,-23 7,-13 25,-40 41,-61 17,-21 27,-44 24,-53 -3,-8 -33,-31 -66,-52 -34,-21 -65,-49 -73,-64 -11,-26 -16,-28 -76,-28 -109,0 -183,-60 -110,-91 25,-10 42,-10 83,-1 28,7 57,13 65,15 9,1 23,-24 41,-73 l 27,-75 39,-2 c 21,0 66,-10 98,-22 33,-12 65,-21 71,-21 21,0 26,30 10,61 -18,34 -10,37 25,9 33,-26 35,-25 74,14 31,30 33,37 29,80 -5,37 -12,51 -34,67 -31,22 -37,47 -17,67 19,19 35,14 42,-10 3,-13 18,-38 34,-57 l 29,-35 36,37 c 20,20 57,48 82,62 52,31 57,55 18,80 -16,10 -36,25 -45,34 -39,36 -52,44 -80,47 -47,6 -52,15 -20,34 32,20 48,61 33,88 -5,9 -27,28 -50,42 -22,14 -41,32 -41,41 0,18 -20,29 -51,29 -11,0 -31,12 -44,28 -28,31 -31,42 -11,42 20,0 37,25 30,44 -4,11 -19,16 -51,16 -55,0 -79,-12 -87,-45 -4,-14 -14,-25 -23,-25 -15,0 -15,1 0,18 17,19 22,44 11,55 -4,3 -21,0 -39,-7 -30,-13 -34,-13 -38,5 -7,25 -42,25 -90,-1 -44,-24 -54,-25 -37,-5 6,8 9,19 5,25 -10,16 -103,12 -129,-5 -21,-14 -24,-14 -30,1 -8,21 -66,12 -115,-18 -25,-16 -35,-18 -41,-9 -10,17 -78,-1 -114,-30 -31,-25 -33,-17 -5,22 20,29 19,49 -4,49 -7,0 -46,-22 -87,-48 z"
         inkscape:connector-curvature="0"
         style="fill:#ffffff" />
      <path
         id="path839"
         d="m 1922,7184 c -23,-20 -62,-64 -86,-97 -82,-115 -76,-112 -241,-112 -135,0 -145,-2 -168,-23 -30,-28 -37,-27 -66,9 -16,21 -21,37 -17,54 15,60 -40,19 -247,-184 C 738,6481 476,6117 266,5678 172,5483 128,5370 97,5245 55,5078 40,4983 40,4876 40,4771 24,4660 9,4660 c -5,0 -9,-29 -9,-65 0,-52 4,-70 20,-87 31,-33 60,-101 62,-142 1,-37 28,-54 28,-17 0,30 11,51 26,51 21,0 41,-48 48,-117 4,-35 25,-110 46,-168 43,-117 55,-167 75,-337 24,-197 65,-250 263,-338 150,-67 189,-94 230,-157 32,-48 39,-54 130,-89 53,-21 108,-45 122,-53 33,-20 80,-63 80,-73 0,-37 113,-137 212,-189 52,-27 67,-24 84,16 l 15,36 30,-18 c 38,-22 89,-83 118,-140 29,-58 27,-117 -10,-230 -36,-110 -35,-153 5,-214 34,-51 33,-66 -9,-90 -19,-12 -36,-26 -36,-32 -4,-41 20,-93 71,-153 14,-17 79,-74 145,-128 66,-54 139,-115 163,-134 32,-27 44,-45 48,-73 4,-21 15,-51 25,-68 21,-34 104,-91 171,-117 23,-10 48,-20 53,-24 6,-4 27,-13 48,-20 106,-34 172,-94 199,-180 57,-183 74,-232 108,-290 95,-169 131,-258 160,-402 15,-75 43,-150 70,-188 25,-35 215,-209 301,-276 70,-54 148,-90 216,-99 105,-14 93,9 -49,97 -72,44 -104,71 -122,100 -13,22 -40,50 -60,64 -41,28 -45,43 -16,69 26,24 25,33 -7,67 -23,24 -25,31 -17,60 8,26 16,34 43,39 85,18 100,49 56,119 -14,22 -25,44 -25,48 0,5 33,3 74,-4 41,-7 83,-10 94,-7 27,7 52,60 52,110 0,41 9,58 80,148 51,66 57,104 26,174 l -19,41 29,31 c 48,50 87,68 170,80 129,18 177,46 219,129 31,62 46,135 54,265 l 6,110 32,3 c 25,3 47,19 97,73 140,151 159,246 56,276 -24,7 -60,25 -80,41 -63,49 -87,61 -190,92 -113,33 -173,37 -225,16 -37,-16 -45,-13 -45,19 0,64 -100,85 -190,40 -27,-14 -52,-25 -55,-25 -3,0 -5,20 -5,44 0,26 -5,46 -12,49 -7,3 -52,-16 -100,-41 -48,-26 -90,-43 -94,-40 -19,20 11,60 81,109 41,28 75,58 75,66 0,12 -41,78 -104,169 -19,28 -185,79 -371,115 -59,11 -166,55 -195,81 -34,29 -60,72 -60,99 0,27 -13,37 -56,43 -8,1 -23,12 -34,24 -25,26 -57,28 -131,6 -39,-12 -78,-15 -141,-11 -78,4 -91,8 -132,37 -70,51 -98,30 -118,-85 -2,-11 -10,-20 -18,-20 -12,0 -16,19 -18,98 -1,53 -7,97 -12,97 -5,0 -31,-19 -58,-43 -28,-25 -68,-49 -93,-56 -58,-16 -74,-29 -93,-74 -8,-20 -23,-40 -32,-44 -9,-3 -55,2 -103,12 -47,10 -114,19 -148,19 -94,1 -101,12 -118,176 -15,147 -26,172 -86,203 -24,13 -53,17 -103,16 -50,-2 -70,1 -76,12 -5,8 4,50 22,104 35,105 41,203 14,230 -31,31 -66,15 -130,-61 -101,-118 -170,-143 -226,-82 -20,21 -31,47 -35,77 -12,84 -35,195 -56,266 -28,91 -21,154 23,237 39,74 106,144 147,153 20,4 43,0 72,-14 58,-28 71,-27 115,14 53,47 67,50 122,24 26,-13 67,-24 92,-25 25,-1 49,-2 53,-3 11,-2 47,-82 47,-106 0,-33 56,-140 96,-184 28,-32 43,-41 63,-39 22,3 26,8 25,34 -1,17 -23,78 -49,135 -62,138 -66,180 -26,239 36,53 128,150 230,242 l 73,66 -6,54 c -4,29 -12,76 -17,105 -8,42 -7,58 5,82 19,37 52,49 74,28 14,-15 19,-12 52,26 21,23 49,49 63,56 16,8 27,24 29,40 3,25 6,26 71,29 l 69,3 19,45 c 21,47 45,67 93,78 16,4 47,25 69,47 22,21 47,39 55,39 8,0 29,-16 46,-35 l 33,-35 37,54 c 43,62 70,73 120,49 33,-15 38,-15 78,2 65,29 145,82 157,104 9,16 7,23 -11,35 -29,20 -47,20 -137,-4 -97,-25 -106,-20 -121,69 -14,85 -32,104 -94,103 -52,-1 -86,-16 -145,-66 -48,-40 -53,-42 -45,-22 8,21 62,60 135,98 62,32 67,33 170,30 83,-2 125,2 188,18 85,22 332,129 363,157 24,22 23,48 -4,73 -32,30 -78,39 -138,28 -29,-5 -55,-7 -58,-4 -9,10 31,48 67,63 l 35,15 -25,19 c -13,10 -46,23 -72,29 -55,12 -98,32 -117,55 -11,13 -10,18 4,33 9,10 16,35 16,56 0,44 -38,133 -69,160 -21,19 -22,19 -59,-16 -46,-46 -126,-88 -164,-88 -29,0 -98,24 -98,35 0,3 15,22 33,41 63,70 61,86 -18,132 -65,37 -104,48 -200,56 l -71,7 -29,-68 c -17,-37 -45,-87 -62,-111 -39,-50 -39,-55 -12,-118 21,-46 21,-49 4,-81 -10,-18 -29,-40 -43,-49 -51,-34 -109,-95 -124,-131 -9,-21 -26,-71 -39,-112 -12,-41 -33,-86 -46,-100 l -23,-26 -34,37 c -50,53 -54,89 -20,198 15,50 25,93 22,96 -4,3 -29,-5 -58,-17 l -51,-22 -27,20 c -15,11 -43,25 -63,32 -22,7 -52,30 -77,59 l -40,48 5,90 c 6,89 6,89 47,127 23,21 80,67 128,103 47,36 94,76 102,89 10,15 30,26 53,31 75,13 120,57 139,137 5,21 11,26 25,22 11,-4 39,5 69,21 46,25 51,26 67,12 16,-14 24,-13 88,18 73,35 106,66 131,124 16,36 12,80 -7,80 -29,0 -114,-59 -155,-107 -47,-55 -63,-63 -83,-39 -10,12 -9,21 2,43 13,24 13,29 0,38 -13,10 -10,22 26,91 22,45 41,86 41,92 0,22 -26,12 -68,-24 z"
         inkscape:connector-curvature="0"
         style="fill:#ffffff" />
      <path
         id="path841"
         d="m 6052,7134 c -40,-28 -44,-47 -25,-137 16,-79 16,-89 0,-173 -9,-49 -16,-116 -16,-150 1,-48 -5,-71 -26,-112 -34,-65 -29,-109 17,-147 45,-38 103,-65 138,-65 27,0 34,5 48,40 20,46 32,51 32,13 0,-42 36,-79 139,-141 52,-31 99,-65 105,-75 9,-14 5,-29 -17,-68 -16,-28 -26,-53 -24,-55 10,-10 54,19 75,50 18,26 22,46 22,109 0,103 -24,155 -98,211 -30,23 -71,55 -91,73 l -36,31 -3,150 -4,149 26,7 c 55,14 78,-20 95,-135 16,-111 75,-207 158,-256 40,-23 51,-25 116,-20 40,3 80,8 90,12 29,12 20,-13 -23,-64 -22,-26 -40,-51 -40,-55 0,-4 14,-25 32,-47 38,-47 30,-65 -21,-48 -17,6 -34,9 -36,7 -3,-2 15,-33 40,-68 25,-35 42,-67 38,-71 -13,-13 -221,-116 -247,-123 -41,-10 -127,14 -156,43 -21,21 -29,43 -38,104 -7,43 -19,92 -28,109 -14,28 -17,29 -31,15 -9,-9 -18,-37 -20,-64 -4,-42 -1,-53 26,-87 17,-21 31,-45 31,-53 0,-28 -20,-51 -49,-58 -63,-14 -81,-41 -147,-215 -36,-93 -84,-147 -170,-192 -75,-39 -79,-57 -14,-76 82,-23 114,-44 138,-92 12,-24 22,-57 22,-72 0,-43 -31,-55 -155,-63 -140,-9 -204,-21 -228,-42 -15,-15 -18,-28 -14,-83 5,-83 34,-214 58,-262 23,-44 49,-63 104,-73 22,-4 54,-20 74,-37 39,-35 58,-34 152,8 47,22 65,37 92,78 35,54 68,127 87,189 7,21 25,54 42,72 19,23 32,50 37,85 12,75 43,92 121,69 31,-10 42,-8 78,10 52,26 62,22 149,-60 53,-51 83,-71 83,-55 0,3 -16,31 -35,63 -59,98 -43,171 29,128 17,-10 69,-37 116,-61 47,-24 95,-52 106,-61 28,-23 107,-151 168,-273 60,-118 70,-130 113,-130 57,0 53,25 -16,94 -80,80 -79,95 2,127 50,19 65,31 79,59 16,33 16,43 -4,186 -12,84 -18,159 -15,168 11,29 40,3 57,-51 11,-36 20,-49 38,-51 29,-4 38,20 24,64 -9,29 -8,34 6,34 27,0 35,-9 120,-136 78,-116 105,-175 85,-187 -5,-3 -31,0 -58,8 -92,28 -114,18 -115,-52 0,-15 -11,-28 -32,-39 -44,-22 -88,-64 -88,-83 0,-16 46,-161 60,-191 5,-10 29,-17 76,-21 38,-3 76,-9 85,-13 12,-5 22,0 33,16 14,19 18,21 26,8 17,-27 22,-78 19,-199 -3,-100 -7,-122 -23,-140 -11,-12 -27,-21 -36,-21 -9,0 -43,-9 -75,-20 -81,-28 -91,-26 -114,18 -26,51 -104,122 -135,122 -22,0 -26,-7 -41,-77 -23,-103 -29,-113 -69,-113 -38,0 -61,16 -167,116 -56,52 -90,76 -128,89 -104,34 -135,87 -110,187 15,62 14,78 -9,96 -24,18 -72,7 -147,-34 -59,-33 -74,-36 -187,-45 -123,-9 -296,-39 -353,-61 -43,-17 -103,-59 -155,-109 -39,-38 -49,-56 -68,-124 -13,-44 -28,-91 -35,-104 -13,-26 -16,-28 -92,-62 -97,-44 -280,-258 -318,-373 -21,-62 -21,-101 -1,-175 18,-65 19,-63 -61,-211 -30,-56 -35,-75 -35,-131 0,-92 26,-199 71,-295 34,-73 51,-93 146,-182 209,-194 254,-222 361,-222 48,0 84,-6 105,-16 57,-30 122,-23 222,25 171,81 260,87 267,18 3,-31 5,-32 66,-41 34,-5 62,-13 62,-17 0,-5 -10,-34 -22,-66 -37,-94 -31,-193 17,-313 30,-74 40,-112 43,-171 4,-74 3,-77 -45,-170 -27,-51 -98,-166 -157,-254 -67,-99 -136,-218 -182,-312 -41,-84 -74,-155 -74,-158 0,-11 -126,-259 -154,-304 -15,-23 -54,-79 -87,-123 -67,-90 -74,-123 -31,-139 45,-17 109,-1 186,48 503,321 577,379 719,558 39,50 130,151 202,225 100,102 145,157 183,223 29,49 52,91 52,93 0,18 85,132 177,237 62,70 130,153 151,185 42,61 104,180 117,222 4,14 13,39 21,55 20,44 102,297 109,337 10,55 -29,175 -71,216 -20,20 -34,43 -34,58 0,13 12,79 26,146 29,135 29,158 0,458 -17,174 -39,270 -86,380 -17,41 -32,95 -33,120 l -2,45 43,3 c 23,2 42,1 42,-1 0,-6 78,-294 115,-427 47,-166 48,-173 36,-319 -15,-184 -14,-273 3,-296 31,-43 54,7 77,170 16,123 23,759 10,917 -34,390 -140,811 -301,1193 -40,94 -187,389 -233,465 -122,205 -286,431 -438,605 -110,127 -283,295 -303,295 -31,0 -14,-85 26,-127 25,-26 20,-57 -10,-61 -16,-2 -40,13 -85,53 -34,31 -79,69 -99,83 -21,15 -38,30 -38,33 0,8 38,19 68,19 39,0 24,28 -40,73 -80,57 -132,82 -227,114 -42,13 -99,37 -127,53 -47,27 -52,28 -72,14 z"
         inkscape:connector-curvature="0"
         style="fill:#ffffff" />
      <path
         id="path843"
         d="m 4610,6849 c 0,-6 7,-26 16,-45 14,-29 14,-39 4,-65 -11,-26 -11,-33 4,-47 14,-14 37,-17 129,-16 149,1 176,7 237,56 l 53,42 -37,33 c -42,39 -79,42 -175,17 -61,-15 -62,-15 -117,10 -58,27 -114,34 -114,15 z"
         inkscape:connector-curvature="0"
         style="fill:#ffffff" />
      <path
         id="path845"
         d="m 1833,6754 c -83,-102 -73,-132 27,-76 l 49,27 26,-27 c 46,-50 94,-24 58,31 -9,14 -17,33 -18,41 0,8 -14,24 -32,35 -18,11 -32,26 -33,33 0,23 -15,11 -77,-64 z"
         inkscape:connector-curvature="0"
         style="fill:#ffffff" />
      <path
         id="path847"
         d="m 5607,6302 c -25,-28 -23,-108 3,-124 11,-7 20,-20 20,-29 0,-10 11,-20 25,-23 13,-3 32,-20 40,-36 12,-23 22,-30 46,-30 26,0 33,-6 51,-46 21,-50 16,-64 -26,-64 -19,0 -19,-1 1,-22 15,-16 20,-31 16,-50 -4,-23 0,-31 26,-45 17,-10 31,-22 31,-26 0,-5 -14,-20 -31,-34 l -31,-26 34,-12 c 25,-9 36,-9 48,1 9,7 55,14 107,16 65,2 97,7 107,18 38,38 21,133 -18,101 -14,-12 -16,-10 -16,12 0,22 -6,27 -34,32 -25,5 -37,15 -49,39 -20,42 -122,153 -158,172 -26,13 -28,20 -31,77 l -3,62 -52,-3 c -49,-3 -68,7 -43,23 6,3 10,13 10,21 0,21 -53,18 -73,-4 z"
         inkscape:connector-curvature="0"
         style="fill:#ffffff" />
      <path
         id="path849"
         d="m 5529,6083 c -1,-5 -1,-15 0,-24 1,-12 -9,-19 -34,-23 -35,-7 -36,-8 -29,-44 4,-20 13,-41 20,-45 10,-6 12,-23 7,-67 l -6,-60 h 59 c 104,0 150,48 125,131 -9,29 -9,43 1,58 15,24 -2,48 -49,68 -35,14 -92,18 -94,6 z"
         inkscape:connector-curvature="0"
         style="fill:#ffffff" />
      <path
         id="path851"
         d="m 2872,5801 c -22,-17 -56,-54 -76,-83 -19,-29 -51,-68 -70,-87 -20,-18 -38,-42 -42,-53 -11,-35 11,-43 113,-41 91,3 95,2 90,-17 -3,-13 2,-25 16,-35 18,-13 23,-12 47,5 26,19 27,19 46,0 10,-11 33,-22 51,-26 26,-5 34,-2 48,20 15,22 16,33 5,78 -6,29 -15,62 -20,73 -5,11 -10,29 -12,40 -3,17 -11,20 -61,20 -48,0 -59,4 -73,23 -15,22 -14,25 10,61 14,20 26,40 26,44 0,18 -61,4 -98,-22 z"
         inkscape:connector-curvature="0"
         style="fill:#ffffff" />
      <path
         id="path853"
         d="m 1143,3853 c -25,-5 -53,-38 -53,-63 0,-9 6,-25 14,-36 14,-19 16,-18 69,10 l 54,30 30,-22 c 17,-12 55,-27 84,-33 57,-12 139,-44 139,-54 0,-3 -7,-19 -15,-35 l -15,-29 39,-12 c 32,-9 58,-9 128,2 78,12 88,17 91,36 3,17 -11,33 -60,69 -35,25 -84,57 -110,70 -78,40 -322,81 -395,67 z"
         inkscape:connector-curvature="0"
         style="fill:#ffffff" />
      <path
         id="path855"
         d="m 1740,3621 c 0,-23 -5,-30 -27,-36 -90,-22 -58,-85 43,-85 23,0 38,-6 46,-20 19,-30 51,-24 94,15 21,20 56,40 79,46 61,15 65,17 65,33 0,36 -115,76 -222,76 h -78 z"
         inkscape:connector-curvature="0"
         style="fill:#ffffff" />
    </g>
  </g>
</svg>
