<?xml version="1.0" encoding="utf-8"?>
<!-- Generator: Adobe Illustrator 21.0.0, SVG Export Plug-In . SVG Version: 6.00 Build 0)  -->
<svg version="1.1" id="Layer_1" xmlns="http://www.w3.org/2000/svg" xmlns:xlink="http://www.w3.org/1999/xlink" x="0px" y="0px"
	 viewBox="0 0 362 387" style="enable-background:new 0 0 362 387;" xml:space="preserve">
<style type="text/css">
	.st0{fill:#1E2A36;}
	.st1{fill:#010101;}
	.st2{fill:#BDE2D5;}
	.st3{fill:#A2D7C1;}
</style>
<path class="st0" d="M179.9,7.3L4.9,70.5l27.9,228.2L179.9,381L327,298.8l27.9-228.2L179.9,7.3z"/>
<g>
	<polygon class="st1" points="150,203.4 181.9,203.4 213.8,203.4 181.9,125.6 	"/>
	<path class="st1" d="M181.9,7.3L6.9,70.5l27.9,228.2L181.9,381L329,298.8l27.9-228.2L181.9,7.3z M250.1,292.1l-21.8-54.5h-46.4
		h-46.4l-21.8,54.5H71.9l110-245.3l110,245.3H250.1z"/>
	<polygon class="st2" points="147.7,201.1 179.6,201.1 211.5,201.1 179.6,123.3 	"/>
	<polygon class="st3" points="179.6,201.1 211.5,201.1 179.6,123.3 	"/>
	<path class="st2" d="M179.6,5L4.6,68.3l27.9,228.2l147.1,82.2l147.1-82.2l27.9-228.2L179.6,5z M247.8,289.8L226,235.3h-46.4h-46.4
		l-21.8,54.5H69.6l110-245.3l110,245.3H247.8z"/>
	<polygon class="st3" points="179.6,44.5 289.6,289.8 247.8,289.8 226,235.3 179.6,235.3 179.6,378.7 326.7,296.5 354.6,68.2 
		179.6,5 	"/>
</g>
</svg>
