<?xml version="1.0" encoding="UTF-8"?>
<svg xmlns="http://www.w3.org/2000/svg" xmlns:xlink="http://www.w3.org/1999/xlink" width="580.8pt" height="623.76pt" viewBox="0 0 580.8 623.76" version="1.1">
<defs>
<clipPath id="clip1">
  <path d="M 0 0 L 291 0 L 291 623.761719 L 0 623.761719 Z M 0 0 "/>
</clipPath>
<clipPath id="clip2">
  <path d="M 290 0 L 580.800781 0 L 580.800781 623.761719 L 290 623.761719 Z M 290 0 "/>
</clipPath>
</defs>
<g id="surface1">
<g clip-path="url(#clip1)" clip-rule="nonzero">
<path style=" stroke:none;fill-rule:nonzero;fill:rgb(89.804077%,17.64679%,21.176147%);fill-opacity:1;" d="M 44.277344 487.359375 L 0 103.519531 L 290.296875 0 L 290.296875 623.621094 Z M 44.277344 487.359375 "/>
</g>
<g clip-path="url(#clip2)" clip-rule="nonzero">
<path style=" stroke:none;fill-rule:nonzero;fill:rgb(71.372986%,18.03894%,18.431091%);fill-opacity:1;" d="M 290.296875 0 L 290.296875 69.222656 L 290.296875 68.910156 L 290.296875 623.621094 L 536.316406 487.359375 L 580.59375 103.519531 Z M 290.296875 0 "/>
</g>
<path style=" stroke:none;fill-rule:nonzero;fill:rgb(100%,100%,100%);fill-opacity:1;" d="M 317.566406 440.066406 L 262.609375 440.066406 L 290.085938 373.953125 Z M 290.085938 305.417969 L 196.015625 516.359375 L 231.089844 516.359375 L 250 469.160156 L 329.851563 469.160156 L 348.765625 516.359375 L 383.839844 516.359375 Z M 290.085938 305.417969 "/>
<path style=" stroke:none;fill-rule:nonzero;fill:rgb(100%,100%,100%);fill-opacity:1;" d="M 292.636719 135.625 C 198.347656 135.625 121.917969 212.054688 121.917969 306.34375 C 121.917969 372.371094 159.414063 429.632813 214.265625 458.027344 L 222.824219 438.835938 C 175.289063 413.738281 142.882813 363.835938 142.882813 306.34375 C 142.882813 223.636719 209.929688 156.59375 292.636719 156.59375 C 375.339844 156.59375 442.386719 223.636719 442.386719 306.34375 C 442.386719 365.304688 408.28125 416.269531 358.746094 440.6875 L 367.261719 459.851563 C 424.132813 432.152344 463.351563 373.851563 463.351563 306.34375 C 463.351563 212.054688 386.921875 135.625 292.636719 135.625 "/>
<path style=" stroke:none;fill-rule:nonzero;fill:rgb(100%,100%,100%);fill-opacity:1;" d="M 434.335938 413.265625 C 434.292969 413.238281 434.253906 413.210938 434.214844 413.183594 C 424.972656 425.335938 414.183594 436.34375 401.976563 445.777344 L 416.199219 465.773438 C 430.125 455.117188 442.492188 442.707031 453.078125 428.964844 L 434.242188 413.394531 C 434.273438 413.351563 434.304688 413.308594 434.335938 413.265625 "/>
<path style=" stroke:none;fill-rule:nonzero;fill:rgb(100%,100%,100%);fill-opacity:1;" d="M 185.539063 447.582031 C 185.570313 447.539063 185.59375 447.5 185.621094 447.464844 C 173.472656 438.222656 162.464844 427.433594 153.027344 415.226563 L 133.03125 429.445313 C 143.6875 443.371094 156.101563 455.738281 169.84375 466.328125 L 185.414063 447.492188 C 185.453125 447.523438 185.496094 447.550781 185.539063 447.582031 "/>
<path style=" stroke:none;fill-rule:nonzero;fill:rgb(100%,100%,100%);fill-opacity:1;" d="M 129.132813 374.996094 C 129.175781 374.980469 129.21875 374.953125 129.261719 374.9375 C 123.355469 360.855469 119.21875 346.011719 117.152344 330.722656 L 92.722656 333.039063 C 94.992188 350.425781 99.554688 367.339844 106.160156 383.382813 L 129.066406 374.855469 C 129.085938 374.90625 129.109375 374.953125 129.132813 374.996094 "/>
<path style=" stroke:none;fill-rule:nonzero;fill:rgb(100%,100%,100%);fill-opacity:1;" d="M 116.570313 283.933594 C 116.617188 283.941406 116.667969 283.941406 116.714844 283.949219 C 118.640625 268.800781 122.480469 253.871094 128.335938 239.597656 L 106.019531 229.394531 C 99.289063 245.582031 94.785156 262.515625 92.484375 279.714844 L 116.585938 283.777344 C 116.574219 283.832031 116.574219 283.882813 116.570313 283.933594 "/>
<path style=" stroke:none;fill-rule:nonzero;fill:rgb(100%,100%,100%);fill-opacity:1;" d="M 151.226563 198.789063 C 151.265625 198.816406 151.304688 198.84375 151.34375 198.871094 C 160.585938 186.71875 171.375 175.710938 183.582031 166.277344 L 169.359375 146.28125 C 155.433594 156.933594 143.066406 169.347656 132.480469 183.089844 L 151.316406 198.660156 C 151.285156 198.703125 151.257813 198.746094 151.226563 198.789063 "/>
<path style=" stroke:none;fill-rule:nonzero;fill:rgb(100%,100%,100%);fill-opacity:1;" d="M 223.808594 142.378906 C 223.828125 142.421875 223.851563 142.464844 223.871094 142.511719 C 237.953125 136.605469 252.796875 132.46875 268.085938 130.398438 L 265.769531 105.972656 C 248.382813 108.238281 231.46875 112.804688 215.425781 119.40625 L 223.953125 142.3125 C 223.902344 142.332031 223.855469 142.355469 223.808594 142.378906 "/>
<path style=" stroke:none;fill-rule:nonzero;fill:rgb(100%,100%,100%);fill-opacity:1;" d="M 314.871094 129.820313 C 314.867188 129.867188 314.867188 129.914063 314.859375 129.964844 C 330.007813 131.890625 344.933594 135.730469 359.210938 141.585938 L 369.414063 119.269531 C 353.226563 112.539063 336.289063 108.035156 319.09375 105.730469 L 315.027344 129.835938 C 314.976563 129.824219 314.925781 129.824219 314.871094 129.820313 "/>
<path style=" stroke:none;fill-rule:nonzero;fill:rgb(100%,100%,100%);fill-opacity:1;" d="M 400.015625 164.472656 C 399.988281 164.515625 399.964844 164.554688 399.933594 164.59375 C 412.085938 173.835938 423.09375 184.621094 432.527344 196.832031 L 452.523438 182.609375 C 441.871094 168.679688 429.457031 156.316406 415.714844 145.726563 L 400.144531 164.5625 C 400.101563 164.53125 400.058594 164.503906 400.015625 164.472656 "/>
<path style=" stroke:none;fill-rule:nonzero;fill:rgb(100%,100%,100%);fill-opacity:1;" d="M 456.425781 237.058594 C 456.382813 237.074219 456.339844 237.101563 456.296875 237.121094 C 462.199219 251.199219 466.339844 266.046875 468.40625 281.335938 L 492.832031 279.019531 C 490.566406 261.632813 486 244.714844 479.398438 228.671875 L 456.492188 237.199219 C 456.472656 237.152344 456.449219 237.105469 456.425781 237.058594 "/>
<path style=" stroke:none;fill-rule:nonzero;fill:rgb(100%,100%,100%);fill-opacity:1;" d="M 468.828125 327.324219 C 468.78125 327.316406 468.730469 327.316406 468.683594 327.3125 C 466.757813 342.460938 462.914063 357.386719 457.0625 371.660156 L 479.378906 381.863281 C 486.105469 365.675781 490.609375 348.742188 492.914063 331.546875 L 468.8125 327.480469 C 468.820313 327.425781 468.820313 327.378906 468.828125 327.324219 "/>
</g>
</svg>
