<?xml version="1.0" encoding="utf-8"?>
<svg version="1.1"
	 id="svg2" xmlns:cc="http://creativecommons.org/ns#" xmlns:dc="http://purl.org/dc/elements/1.1/" xmlns:rdf="http://www.w3.org/1999/02/22-rdf-syntax-ns#" xmlns:svg="http://www.w3.org/2000/svg"
	 xmlns="http://www.w3.org/2000/svg" xmlns:xlink="http://www.w3.org/1999/xlink" x="0px" y="0px" viewBox="0 0 319 341.3"
	 style="enable-background:new 0 0 319 341.3;" xml:space="preserve">
<style type="text/css">
	.st0{fill:#BE1622;}
	.st1{clip-path:url(#SVGID_2_);}
	.st2{fill:#F6F6F6;}
	.st3{fill:#E6342A;}
	.st4{fill:#FFFFFF;}
</style>
<g id="g10" transform="matrix(1.3333333,0,0,-1.3333333,0,377.95333)">
	<g id="g12" transform="translate(141.8106,261.6086)">
		<path id="path14" class="st0" d="M-22.3,13.7L-22.3,13.7l-0.1-240.6l0.1,0l91.7,18.3l20,182.6L-22.3,13.7z"/>
	</g>
	<g id="g16">
		<g>
			<defs>
				<rect id="SVGID_1_" x="-69.6" y="-33.6" width="378" height="378"/>
			</defs>
			<clipPath id="SVGID_2_">
				<use xlink:href="#SVGID_1_"  style="overflow:visible;"/>
			</clipPath>
			<g id="g18" class="st1">
				<g id="g24" transform="translate(152.9688,184.4827)">
					<path id="path26" class="st2" d="M-22.3,13.7c-2.5,3.6-6.9,5.5-11.2,5.5v-5.5H-22.3z"/>
				</g>
				<g id="g28" transform="translate(154.1748,172.9748)">
					<path id="path30" class="st2" d="M-22.3,13.7V20h-7C-26.3,18.8-23.9,16.5-22.3,13.7"/>
				</g>
				<g id="g32" transform="translate(154.1221,167.3284)">
					<path id="path34" class="st2" d="M-22.3,13.7L-22.3,13.7c-0.5,7.5-6.5,11.2-12.4,11.2v-5.8C-30.1,19.1-25.5,17.3-22.3,13.7"/>
				</g>
				<g id="g36" transform="translate(156.6211,56.0647)">
					<path id="path38" class="st2" d="M-22.3,13.7l14.8,3v56.2h-14.8V13.7z"/>
				</g>
				<path id="path40" class="st2" d="M132.9,130.6h17.6v4.5h-17.6V130.6z"/>
				<g id="g42" transform="translate(149.8106,159.5715)">
					<path id="path44" class="st2" d="M-22.3,13.7c2,0.8,4.1,1.2,6.3,1.2c-1.9,6.4-8.1,10.2-14.3,10.4v-6.4
						C-27,18.9-23.6,17.1-22.3,13.7"/>
				</g>
				<g id="g46" transform="translate(142.2881,149.9114)">
					<path id="path48" class="st2" d="M-22.3,13.7c2.2,0,4.4-0.3,6.5-0.8c4.3,7,16.1,3.6,15.8-4.7V3.6C2.7,0.7,4.8-2.7,6.1-6.5V8.3
						h0C6.4,24-16.9,28.3-22.3,13.7"/>
				</g>
				<path id="path50" class="st2" d="M133.8,196.5h-14.4v-1.9h14.4L133.8,196.5z"/>
				<g id="g52" transform="translate(145.419,197.9397)">
					<path id="path54" class="st2" d="M-22.3,13.7c0.1,2.1-1.8,3.1-3.7,3.1V7.3C-24.4,7.3-22.7,9.4-22.3,13.7"/>
				</g>
				<g id="g56" transform="translate(143.2139,202.6682)">
					<path id="path58" class="st2" d="M-22.3,13.7l-1.5,32l0-0.5V13.7H-22.3z"/>
				</g>
				<g id="g60" transform="translate(157.0742,122.9456)">
					<path id="path62" class="st2" d="M-22.3,13.7h13.6c-2.1,16.6-15.5,25-28.9,25V25.6C-30.8,25.5-24,21.6-22.3,13.7"/>
				</g>
				<g id="g64" transform="translate(141.7256,261.5784)">
					<path id="path66" class="st3" d="M-22.3,13.7l-111.8-39.8l20.6-182.6l91.3-18.3l-0.1,0V13.7z"/>
				</g>
				<g id="g68" transform="translate(46.2158,35.6604)">
					<path id="path70" class="st0" d="M-22.3,13.7L73.2-5.4l96,19.1L190,203.3L73.2,244.9l-116.9-41.6L-22.3,13.7z M73.2-7.5
						L-24.2,12l-21.7,192.7l0.7,0.3L73.2,247l0.3-0.1l118.6-42.2L171,12l-0.7-0.1L73.2-7.5z"/>
				</g>
				<g id="g72" transform="translate(62.293,50.8323)">
					<path id="path74" class="st4" d="M-22.3,13.7c-0.1-0.1-0.2-0.3-0.3-0.5c-0.1-0.2-0.3-0.5-0.5-0.8c-0.2-0.3-0.4-0.6-0.6-1
						c-0.2-0.4-0.5-0.7-0.7-1.1l2.8-0.6c-0.1,0.5-0.1,0.9-0.2,1.3c-0.1,0.4-0.1,0.8-0.2,1.2c-0.1,0.4-0.1,0.7-0.2,0.9
						C-22.3,13.3-22.3,13.5-22.3,13.7 M-21.2,5.5c0,0.4-0.1,0.7-0.1,1.1c-0.1,0.4-0.1,0.8-0.2,1.2l-3.9,0.8c-0.2-0.3-0.4-0.7-0.6-1
						c-0.2-0.3-0.4-0.7-0.6-1L-28.8,7c0.6,1,1.1,1.9,1.7,2.7c0.5,0.8,1,1.6,1.5,2.4c0.5,0.7,0.9,1.4,1.4,2.1
						c0.5,0.7,0.9,1.3,1.4,1.9l2.1-0.4c0.2-0.8,0.4-1.5,0.5-2.3c0.2-0.8,0.3-1.6,0.5-2.5s0.3-1.8,0.5-2.8c0.2-1,0.3-2,0.5-3.2
						L-21.2,5.5z"/>
				</g>
				<g id="g76" transform="translate(75.1602,40.3)">
					<path id="path78" class="st4" d="M-22.3,13.7c-0.4,1.3-0.9,2.5-1.4,3.8c-0.5,1.3-1.1,2.5-1.7,3.6l-1.3-6.5L-29,15l2,9.9
						l1.8-0.4c0.3-0.4,0.5-0.8,0.8-1.4c0.3-0.5,0.6-1.1,0.9-1.7c0.3-0.6,0.6-1.2,0.9-1.8c0.3-0.6,0.5-1.2,0.8-1.8l1.2,5.8l2.2-0.4
						l-2-9.9L-22.3,13.7z"/>
				</g>
				<g id="g80" transform="translate(87.1836,46.3909)">
					<path id="path82" class="st4" d="M-22.3,13.7c-1,0.2-1.8,0.1-2.4-0.4c-0.6-0.5-1-1.2-1.2-2.2C-26,10.5-26,10.1-26,9.7
						c0-0.4,0.1-0.8,0.3-1.1c0.2-0.3,0.4-0.6,0.7-0.8c0.3-0.2,0.7-0.4,1.2-0.5c0.2-0.1,0.5-0.1,0.6-0.1c0.2,0,0.3,0,0.5,0l0.7,3.4
						l2.2-0.4l-1-4.9c-0.3-0.1-0.7-0.1-1.4-0.1c-0.6,0-1.4,0.1-2.2,0.3c-0.7,0.1-1.4,0.4-2,0.7c-0.6,0.3-1,0.8-1.3,1.3
						C-28,8-28.2,8.6-28.3,9.2c-0.1,0.7-0.1,1.4,0.1,2.3c0.2,0.8,0.4,1.5,0.8,2.1c0.4,0.6,0.8,1.1,1.4,1.4c0.5,0.4,1.1,0.6,1.8,0.7
						c0.6,0.1,1.3,0.1,2,0c0.5-0.1,0.9-0.2,1.2-0.3c0.4-0.1,0.7-0.3,0.9-0.4c0.3-0.1,0.5-0.3,0.6-0.4c0.2-0.1,0.3-0.2,0.3-0.3
						l-1-1.7c-0.3,0.2-0.6,0.4-1,0.6S-21.9,13.6-22.3,13.7"/>
				</g>
				<g id="g84" transform="translate(96.0039,35.9153)">
					<path id="path86" class="st4" d="M-22.3,13.7c-0.7,0.1-1.3,0.4-1.7,0.7c-0.5,0.3-0.8,0.7-1.1,1.1c-0.3,0.4-0.4,0.9-0.5,1.4
						c-0.1,0.5,0,1.1,0.1,1.6l1.2,6.1l2.2-0.4l-1.2-6c-0.1-0.4-0.1-0.7-0.1-1c0-0.3,0.1-0.6,0.2-0.8c0.1-0.2,0.3-0.4,0.5-0.5
						c0.2-0.1,0.4-0.2,0.7-0.3c0.5-0.1,1,0,1.4,0.2c0.4,0.3,0.7,0.8,0.8,1.6l1.2,6l2.2-0.4l-1.2-6.1c-0.1-0.6-0.3-1.1-0.6-1.5
						c-0.3-0.5-0.6-0.8-1-1.1c-0.4-0.3-0.9-0.5-1.4-0.6C-21,13.5-21.6,13.5-22.3,13.7"/>
				</g>
				<g id="g88" transform="translate(110.6621,35.1721)">
					<path id="path90" class="st4" d="M-22.3,13.7l-0.4-1.9l-6.6,1.3l2,9.9l2.2-0.4l-1.6-8L-22.3,13.7z"/>
				</g>
				<g id="g92" transform="translate(119.0723,39.4494)">
					<path id="path94" class="st4" d="M-22.3,13.7c-0.1-0.1-0.2-0.3-0.3-0.5c-0.1-0.2-0.3-0.5-0.5-0.8c-0.2-0.3-0.4-0.6-0.6-1
						s-0.5-0.7-0.7-1.1l2.8-0.6c-0.1,0.5-0.1,0.9-0.2,1.3c-0.1,0.4-0.1,0.8-0.2,1.2c-0.1,0.3-0.1,0.7-0.2,0.9
						C-22.3,13.3-22.3,13.5-22.3,13.7 M-21.2,5.5c0,0.4-0.1,0.7-0.1,1.1c-0.1,0.4-0.1,0.8-0.2,1.2l-3.9,0.8c-0.2-0.3-0.4-0.7-0.6-1
						c-0.2-0.3-0.4-0.7-0.6-1L-28.8,7c0.6,1,1.1,1.9,1.6,2.7c0.5,0.8,1,1.6,1.5,2.4c0.5,0.7,0.9,1.4,1.4,2.1
						c0.5,0.7,0.9,1.3,1.4,1.9l2.1-0.4c0.2-0.8,0.4-1.5,0.5-2.3c0.2-0.8,0.3-1.6,0.5-2.5c0.2-0.9,0.3-1.8,0.5-2.8
						c0.2-1,0.3-2,0.5-3.2L-21.2,5.5z"/>
				</g>
				<g id="g96" transform="translate(129.9551,37.7434)">
					<path id="path98" class="st4" d="M-22.3,13.7c-0.2,0-0.3,0.1-0.4,0.1c-0.1,0-0.3,0-0.4,0l-0.5-2.7l0.6-0.1
						c0.8-0.2,1.5-0.2,1.9,0c0.4,0.1,0.7,0.5,0.8,1c0.1,0.5,0,0.9-0.3,1.1C-21.1,13.3-21.6,13.5-22.3,13.7 M-22.1,15.6
						c1.5-0.3,2.6-0.8,3.3-1.5s0.9-1.6,0.7-2.7c-0.1-0.7-0.4-1.2-0.8-1.6c-0.4-0.4-0.9-0.6-1.6-0.7c0.1-0.3,0.3-0.6,0.5-1
						c0.2-0.4,0.3-0.7,0.4-1.1c0.1-0.4,0.3-0.8,0.4-1.2c0.1-0.4,0.2-0.8,0.3-1.2L-21.4,5c-0.1,0.4-0.2,0.7-0.4,1.1
						c-0.1,0.4-0.2,0.7-0.4,1.1c-0.1,0.4-0.3,0.7-0.4,1c-0.1,0.3-0.3,0.6-0.4,0.9L-24,9.3l-0.7-3.6L-27,6.2l2,9.7c0.5,0,1,0,1.5-0.1
						C-23,15.7-22.5,15.7-22.1,15.6"/>
				</g>
				<g id="g100" transform="translate(156.4404,29.9494)">
					<path id="path102" class="st2" d="M-22.3,13.7c-0.3,0.3-0.6,0.6-0.9,0.9c-0.3,0.3-0.7,0.6-1.1,1c-0.4,0.3-0.8,0.6-1.2,0.9
						c-0.4,0.3-0.8,0.5-1.2,0.7l0.8-4.2l-2.2-0.4l-2,9.9l2.2,0.4l0.7-3.7c0.5,0.7,0.9,1.5,1.4,2.2c0.5,0.8,0.9,1.5,1.3,2.2l2.6,0.5
						c-0.5-0.9-1-1.8-1.6-2.7c-0.5-0.9-1.1-1.8-1.7-2.7c0.9-0.5,1.8-1.1,2.8-1.9c0.9-0.8,1.8-1.6,2.7-2.6L-22.3,13.7z"/>
				</g>
				<g id="g104" transform="translate(166.6348,42.2619)">
					<path id="path106" class="st2" d="M-22.3,13.7l2.2,0.4l2-9.9l-2.2-0.4L-21.2,8l-3.7-0.7l0.8-4.2l-2.2-0.4l-2,9.9l2.2,0.4
						l0.8-3.8l3.7,0.7L-22.3,13.7z"/>
				</g>
				<g id="g108" transform="translate(177.8428,42.1682)">
					<path id="path110" class="st2" d="M-22.3,13.7c0-0.2-0.1-0.4-0.1-0.6c0-0.3-0.1-0.6-0.2-0.9c-0.1-0.3-0.1-0.7-0.2-1.2
						c-0.1-0.4-0.1-0.9-0.2-1.3l2.8,0.6c-0.2,0.4-0.5,0.8-0.7,1.1c-0.2,0.4-0.4,0.7-0.6,1c-0.2,0.3-0.4,0.6-0.5,0.8
						C-22.1,13.4-22.2,13.5-22.3,13.7 M-18.1,6.6c-0.2,0.3-0.4,0.7-0.6,1c-0.2,0.3-0.4,0.7-0.6,1l-3.9-0.8c-0.1-0.4-0.1-0.8-0.2-1.2
						c-0.1-0.4-0.1-0.8-0.1-1.1L-25.8,5c0.2,1.1,0.3,2.2,0.5,3.2c0.2,1,0.3,1.9,0.5,2.7c0.2,0.9,0.3,1.7,0.5,2.5
						c0.2,0.8,0.4,1.5,0.5,2.3l2.1,0.4c0.5-0.6,0.9-1.3,1.4-1.9c0.5-0.7,0.9-1.4,1.4-2.1c0.5-0.7,1-1.5,1.5-2.4
						c0.5-0.8,1.1-1.8,1.6-2.7L-18.1,6.6z"/>
				</g>
				<g id="g112" transform="translate(189.3955,44.9494)">
					<path id="path114" class="st2" d="M-22.3,13.7c-0.2,0-0.3-0.1-0.4-0.1c-0.1,0-0.2-0.1-0.4-0.1l0.5-2.7l0.6,0.1
						c0.8,0.2,1.4,0.4,1.7,0.7c0.3,0.3,0.4,0.7,0.3,1.2c-0.1,0.5-0.3,0.8-0.8,0.9C-21.1,13.8-21.6,13.8-22.3,13.7 M-22.8,15.5
						c1.5,0.3,2.7,0.3,3.6-0.1c0.9-0.4,1.5-1.1,1.7-2.2c0.1-0.7,0.1-1.3-0.1-1.8c-0.2-0.5-0.6-0.9-1.2-1.3c0.2-0.2,0.5-0.4,0.8-0.7
						c0.3-0.3,0.6-0.6,0.8-0.9c0.3-0.3,0.6-0.6,0.8-1c0.3-0.3,0.5-0.7,0.8-1l-2.5-0.5c-0.2,0.3-0.5,0.6-0.7,0.9
						c-0.3,0.3-0.5,0.6-0.8,0.9c-0.3,0.3-0.5,0.5-0.8,0.8s-0.5,0.5-0.7,0.7L-22.2,9l0.7-3.6L-23.7,5l-1.9,9.7c0.5,0.2,1,0.4,1.5,0.5
						C-23.7,15.3-23.3,15.5-22.8,15.5"/>
				</g>
				<g id="g116" transform="translate(205.6309,39.7619)">
					<path id="path118" class="st2" d="M-22.3,13.7c-0.3,0.3-0.6,0.6-0.9,0.9c-0.3,0.3-0.7,0.6-1.1,1c-0.4,0.3-0.8,0.6-1.2,0.9
						c-0.4,0.3-0.8,0.5-1.2,0.7l0.8-4.2l-2.2-0.4l-2,9.9l2.2,0.4l0.7-3.7c0.5,0.7,0.9,1.5,1.4,2.2c0.5,0.8,0.9,1.5,1.3,2.2l2.6,0.5
						c-0.5-0.9-1-1.8-1.6-2.7c-0.5-0.9-1.1-1.8-1.7-2.7c0.9-0.5,1.8-1.1,2.8-1.9c0.9-0.8,1.8-1.6,2.7-2.6L-22.3,13.7z"/>
				</g>
				<g id="g120" transform="translate(209.8701,50.886)">
					<path id="path122" class="st2" d="M-22.3,13.7l2.2,0.4l2-9.9l-2.2-0.4L-22.3,13.7z"/>
				</g>
				<g id="g124" transform="translate(221.582,42.9436)">
					<path id="path126" class="st2" d="M-22.3,13.7c-0.6,0.8-1.1,1.5-1.7,2.4c-0.6,0.8-1.1,1.6-1.6,2.4c-0.5,0.8-1,1.6-1.5,2.3
						c-0.4,0.7-0.8,1.4-1.2,2l2.5,0.5c0.3-0.5,0.6-1.1,1-1.7c0.4-0.6,0.7-1.2,1.1-1.8c0.4-0.6,0.7-1.2,1.1-1.7
						c0.3-0.6,0.6-1,0.9-1.4c0.1,0.5,0.2,1,0.3,1.7c0.1,0.6,0.2,1.3,0.3,2c0.1,0.7,0.2,1.4,0.3,2.1c0.1,0.7,0.2,1.4,0.2,2l2.4,0.5
						c-0.1-0.7-0.2-1.4-0.3-2.3c-0.1-0.9-0.3-1.8-0.4-2.7c-0.2-0.9-0.4-1.9-0.6-2.9c-0.2-1-0.4-1.9-0.6-2.8L-22.3,13.7z"/>
				</g>
				<g id="g128" transform="translate(141.7256,191.6116)">
					<path id="path130" class="st4" d="M-22.3,13.7v9.4c-1.9,0-3.8-1-3.6-3.1C-25.6,15.8-24,13.7-22.3,13.7"/>
				</g>
				<g id="g132" transform="translate(141.7256,189.9631)">
					<path id="path134" class="st4" d="M-22.3,13.7c-4.4,0-8.8-1.8-11.3-5.5h11.3V13.7z"/>
				</g>
				<path id="path136" class="st4" d="M119.4,196.5H105v-1.9h14.4V196.5z"/>
				<g id="g138" transform="translate(141.7256,172.7893)">
					<path id="path140" class="st4" d="M-22.3,13.7v5.8c-5.9,0-11.7-3.7-12.3-11.1C-31.5,11.9-26.9,13.7-22.3,13.7"/>
				</g>
				<g id="g142" transform="translate(136.336,179.3078)">
					<path id="path144" class="st4" d="M-22.3,13.7h-7c0,0,0-6.4,0-6.4C-27.8,10.1-25.3,12.4-22.3,13.7"/>
				</g>
				<g id="g146" transform="translate(141.7256,234.2024)">
					<path id="path148" class="st4" d="M-22.3,13.7l-1.4-31.5h1.4V13.7z"/>
				</g>
				<path id="path150" class="st4" d="M88.3,130.6h17.6v4.5H88.3V130.6z"/>
				<g id="g152" transform="translate(141.7256,147.9407)">
					<path id="path154" class="st4" d="M-22.3,13.7c-13.4,0-26.9-8.3-29-25h13.6c1.6,7.9,8.5,11.9,15.4,11.9V13.7z"/>
				</g>
				<g id="g156" transform="translate(141.7256,164.7903)">
					<path id="path158" class="st4" d="M-22.3,13.7V20c-3.6,0.1-7.3-1.1-10.1-3.8h0c-2-1.8-3.5-4-4.3-6.6c2.2,0,4.3-0.4,6.3-1.2
						C-29.1,12-25.7,13.7-22.3,13.7"/>
				</g>
				<g id="g160" transform="translate(112.0049,59.0647)">
					<path id="path162" class="st4" d="M-22.3,13.7l14.8-3v59.2h-14.8V13.7z"/>
				</g>
				<g id="g164" transform="translate(134.6963,149.1321)">
					<path id="path166" class="st4" d="M-22.3,13.7c2.1,0.5,4.3,0.8,6.4,0.8c0.2,0-0.2,0.6-0.3,0.8c-6.1,13.8-28.3,9.1-28.1-6.1h0
						V-5.5c1.4,3.7,3.5,7.1,6.2,10C-40,15.3-29.8,22.5-22.3,13.7"/>
				</g>
			</g>
		</g>
	</g>
</g>
</svg>
