<svg width="700" height="700" viewBox="0 0 700 700" fill="none" xmlns="http://www.w3.org/2000/svg">
<path d="M349 28L649 137L603.5 530.5L349 672.5L94.5 530.5L51 137L349 28Z" fill="#DD0031"/>
<path d="M650 137L350 28V672.5L604.5 530.5L650 137Z" fill="#C3002F"/>
<path d="M475.086 284.202L426.463 183.712L372.553 170.098L360.945 190.843L316.901 171.394L313.011 150H245.775L184 216.641V301.498L225.167 342.666L283.838 326.337L308.473 341.572L331.163 417.747L321.439 463.128L353.854 550H390.807L432.052 505.021L444.37 466.123L475.488 435.005L474.145 373.015L504.908 326.985L517.225 285.392V277.719L475.086 284.202Z" fill="white"/>
<path d="M426.609 183.614L475.232 284.104L517.371 277.621V285.295L505.054 326.887L474.291 372.917L475.634 434.907L444.516 466.025L432.198 504.923L390.953 549.902H354L349.781 538L350 185.745L361.091 190.745L372.699 170L426.609 183.614Z" fill="#E5E5E5" fill-opacity="0.12"/>
</svg>
