<svg
   xmlns:dc="http://purl.org/dc/elements/1.1/"
   xmlns:cc="http://creativecommons.org/ns#"
   xmlns:rdf="http://www.w3.org/1999/02/22-rdf-syntax-ns#"
   xmlns:svg="http://www.w3.org/2000/svg"
   xmlns="http://www.w3.org/2000/svg"
   xmlns:sodipodi="http://sodipodi.sourceforge.net/DTD/sodipodi-0.dtd"
   xmlns:inkscape="http://www.inkscape.org/namespaces/inkscape"
   inkscape:version="1.0 (4035a4fb49, 2020-05-01)"
   fill="none"
   viewBox="0 0 3484.3752 529.1376"
   width="500.00003"
   version="1.1"
   id="svg31"
   sodipodi:docname="ng.svg"
   height="529.13757">
  <metadata
     id="metadata35">
    <rdf:RDF>
      <cc:Work
         rdf:about="">
        <dc:format>image/svg+xml</dc:format>
        <dc:type
           rdf:resource="http://purl.org/dc/dcmitype/StillImage" />
      </cc:Work>
    </rdf:RDF>
  </metadata>
  <sodipodi:namedview
     inkscape:current-layer="svg31"
     inkscape:window-maximized="1"
     inkscape:window-y="1072"
     inkscape:window-x="-8"
     inkscape:window-height="1009"
     inkscape:window-width="1920"
     inkscape:cy="323.86615"
     inkscape:cx="108.50254"
     inkscape:zoom="0.78003528"
     inkscape:document-rotation="0"
     pagecolor="#ffffff"
     bordercolor="#666666"
     borderopacity="1"
     objecttolerance="10"
     gridtolerance="10"
     guidetolerance="10"
     id="namedview33"
     showgrid="false" />
  <defs
     id="defs29">
    <linearGradient
       id="b"
       x1="49.008999"
       x2="225.82899"
       y1="213.75"
       y2="129.722"
       gradientUnits="userSpaceOnUse"
       gradientTransform="translate(0.64125644,646.64786)">
      <stop
         stop-color="#E40035"
         id="stop8" />
      <stop
         offset=".24"
         stop-color="#F60A48"
         id="stop10" />
      <stop
         offset=".352"
         stop-color="#F20755"
         id="stop12" />
      <stop
         offset=".494"
         stop-color="#DC087D"
         id="stop14" />
      <stop
         offset=".745"
         stop-color="#9717E7"
         id="stop16" />
      <stop
         offset="1"
         stop-color="#6C00F5"
         id="stop18" />
    </linearGradient>
    <linearGradient
       id="c"
       x1="41.025002"
       x2="156.741"
       y1="28.344"
       y2="160.34399"
       gradientUnits="userSpaceOnUse"
       gradientTransform="translate(0.64125644,646.64786)">
      <stop
         stop-color="#FF31D9"
         id="stop21" />
      <stop
         offset="1"
         stop-color="#FF5BE1"
         stop-opacity="0"
         id="stop23" />
    </linearGradient>
  </defs>
  <g
     transform="matrix(15.685875,0,0,15.684582,0,-0.17384882)"
     id="layer5"
     style="display:inline">
    <rect
       style="fill:#ffffff;fill-opacity:1;stroke-width:7.11566"
       id="rect977"
       width="222.13457"
       height="235.09906"
       x="-1.2434498e-14"
       y="-100.67027" />
  </g>
  <g
     transform="matrix(15.689941,0,0,15.689941,-2.3534912e-6,0.36575328)"
     id="g32">
    <g
       transform="translate(-0.29596985,-746.28227)"
       style="display:inline"
       id="layer1">
      <g
         transform="translate(-0.34528644,-1.0358652)"
         id="g967">
        <path
           sodipodi:nodetypes="cccccccccccccccccccc"
           fill="url(#b)"
           d="m 222.71826,685.83986 -8.019,125.923 -76.671,-165.115 z m -41.71054,156.26454 -67.94796,38.82816 -1.43394,-0.0556 -1.42668,0.003 -68.883204,-39.12057 26.19485,-57.9427 87.129434,-1.03586 z m -68.98217,-159.36862 42.61467,100.04478 -87.129434,1.03586 z M 8.5782564,811.76286 0.64125644,685.83986 85.331256,646.64786 Z"
           id="path2"
           style="fill:url(#b)" />
        <g
           id="g962">
          <path
             style="fill:url(#c)"
             id="path4"
             d="m 222.71826,685.83986 -8.019,125.92299 -76.671,-165.11499 z m -41.71054,155.92154 -67.58122,38.92856 -1.96401,-0.14298 -1.80339,-0.0223 -68.343164,-38.76548 26.19485,-57.9427 87.129434,-1.03586 z m -68.98217,-159.02562 42.61467,100.04478 -87.129434,1.03586 z M 8.5782564,811.76285 0.64125644,685.83986 85.331256,646.64786 Z"
             fill="url(#c)"
             sodipodi:nodetypes="cccccccccccccccccccc" />
        </g>
      </g>
    </g>
    <g
       transform="translate(-0.29597,-746.28227)"
       style="display:inline"
       id="layer2">
      <path
         sodipodi:nodetypes="cccccccccccccccsccccccccscccccccsccccccccccsccc"
         style="display:block;fill:#ffffff;stroke-width:0.633459"
         id="path0"
         d="m 113.65043,879.81919 c -0.16177,-9.96439 -0.75686,-14.44259 -0.566,-23.52491 0.0884,-10e-4 6.33459,0.63035 13.88226,1.40312 7.54765,0.77289 13.77201,1.35562 13.83218,1.2948 0.0607,-0.0605 -0.77402,-2.21963 -1.8554,-4.79784 -1.08066,-2.57879 -1.93077,-4.77944 -1.88831,-4.89029 0.0423,-0.11149 6.26742,-5.30265 13.8341,-11.53657 7.56603,-6.23385 13.77899,-11.40603 13.80687,-11.49282 0.0271,-0.0875 -1.7737,-1.20102 -4.00157,-2.47554 -2.22854,-1.27455 -4.10355,-2.40147 -4.1669,-2.50408 -0.0845,-0.13629 4.86116,-13.80307 6.41631,-17.73242 0.13547,-0.34271 0.0913,-0.34837 -0.5689,-0.073 -2.62885,1.09842 -17.13948,2.65482 -18.20938,1.95422 -0.94006,-0.6157 -2.00809,-3.79631 -2.0176,-6.00646 -0.005,-1.3594 -0.19013,-1.27516 -1.54372,0.70944 -2.83346,4.15166 -12.38981,13.70551 -13.70995,13.70551 -0.89256,0 1.01923,-16.97037 3.28007,-29.11379 0.3275,-1.75975 0.57897,-3.22368 0.55811,-3.25346 -0.0201,-0.0306 -0.84441,0.48778 -1.83071,1.15167 -3.35796,2.25699 -7.08839,3.66456 -7.86123,2.96585 -1.61466,-1.46141 -6.91862,-11.02534 -10.14862,-18.29872 -0.88053,-1.984 -0.96668,-2.02708 -1.38094,-0.6943 -0.81403,2.6162 -8.28689,16.51429 -10.986021,20.43035 -0.238197,0.34588 -0.630897,0.0826 -4.250442,-2.8468 -2.193659,-1.77558 -4.016131,-3.19518 -4.050341,-3.15462 -0.03489,0.0414 0.925507,7.46281 2.132874,16.49404 1.207992,9.03054 2.162623,16.45282 2.122079,16.49336 -0.04066,0.0403 -0.394018,-0.26733 -0.785507,-0.68415 -9.130658,-9.71854 -15.243527,-16.07147 -15.35249,-15.95431 -0.07601,0.0815 -0.597983,1.94788 -1.1605,4.14727 l -1.022381,3.99903 -0.759542,-0.003 c -0.417444,-10e-4 -4.262528,-0.47319 -8.544089,-1.04649 -4.28155,-0.57331 -7.806743,-1.02114 -7.832717,-0.99581 -0.06455,0.0616 2.369766,8.77657 3.988875,14.28069 0.719622,2.44707 1.278968,4.47412 1.242867,4.50455 -0.03545,0.0307 -1.579834,0.94705 -3.430811,2.03722 -1.850991,1.08955 -3.33897,2.04922 -3.306042,2.13159 0.03298,0.0826 5.67454,5.1671 12.536784,11.29835 6.862909,6.13125 12.89723,11.53212 13.410973,12.00213 l 0.933075,0.85393 -1.088908,4.063 c -0.599254,2.23482 -1.056604,4.09596 -1.016062,4.13585 0.03988,0.0393 5.963381,-0.45101 13.162647,-1.09142 7.199749,-0.64044 13.403319,-1.24329 13.420429,-1.22235 0.0521,0.0645 -0.21179,21.1308 -0.32124,23.18043 l 2.67148,0.96811"
         stroke="none"
         fill="#ffffff"
         fill-rule="evenodd" />
    </g>
  </g>
</svg>
