<?xml version="1.0" encoding="utf-8"?>
<!-- Generator: Adobe Illustrator 22.0.1, SVG Export Plug-In . SVG Version: 6.00 Build 0)  -->
<svg version="1.1" xmlns="http://www.w3.org/2000/svg" xmlns:xlink="http://www.w3.org/1999/xlink" x="0px" y="0px"
	 viewBox="0 0 250 250" style="enable-background:new 0 0 250 250;" xml:space="preserve">
<style type="text/css">
	.st0{fill:#DD0031;}
	.st1{fill:#C3002F;}
	.st2{fill:#FFFFFF;stroke:#000000;stroke-width:1.2;stroke-miterlimit:3.8637;}
	.st3{fill:#FFFFFF;stroke:#000000;stroke-miterlimit:3.8637;}
	.st4{fill:none;stroke:#000000;stroke-width:2;stroke-miterlimit:3.8637;}
	.st5{fill:none;stroke:#000000;stroke-width:2;stroke-linecap:square;stroke-miterlimit:3.8637;}
	.st6{fill:#FFFFFF;}
	.st7{clip-path:url(#SVGID_2_);fill:none;stroke:#000000;stroke-miterlimit:3.8637;}
	.st8{clip-path:url(#SVGID_4_);stroke:#000000;stroke-width:0.9099;stroke-miterlimit:3.8637;}
	.st9{clip-path:url(#SVGID_6_);fill:none;stroke:#000000;stroke-miterlimit:3.8637;}
	.st10{clip-path:url(#SVGID_8_);stroke:#000000;stroke-width:0.9099;stroke-miterlimit:3.8637;}
	.st11{clip-path:url(#SVGID_10_);fill:none;stroke:#000000;stroke-width:2.5;stroke-miterlimit:3.8637;}
	.st12{clip-path:url(#SVGID_12_);fill:none;stroke:#000000;stroke-width:1.2;stroke-miterlimit:3.8637;}
	.st13{clip-path:url(#SVGID_14_);fill:none;stroke:#000000;stroke-miterlimit:3.8637;}
	.st14{clip-path:url(#SVGID_16_);stroke:#000000;stroke-width:0.9099;stroke-miterlimit:3.8637;}
	.st15{clip-path:url(#SVGID_18_);fill:none;stroke:#000000;stroke-miterlimit:3.8637;}
	.st16{clip-path:url(#SVGID_20_);stroke:#000000;stroke-width:0.9099;stroke-miterlimit:3.8637;}
</style>
<g id="Layer_1">
	<g>
		<polygon class="st0" points="125,30 125,30 125,30 31.9,63.2 46.1,186.3 125,230 125,230 125,230 203.9,186.3 218.1,63.2 		"/>
		<polygon class="st1" points="125,30 125,52.2 125,52.1 125,153.4 125,153.4 125,230 125,230 203.9,186.3 218.1,63.2 		"/>
	</g>
</g>
<g id="Layer_2">
	<g id="Ebene_1">
		<g>
			<path class="st2" d="M126.4,53.1h-0.9v2.3h-2.8v1.8h2.8v4.3c-3.5,0.6-3.3,4.6-3.3,4.6l4.2-0.2l4.2,0.2c0,0,0.2-4-3.3-4.6v-4.3
				h2.8v-1.8h-2.8v-2.3H126.4L126.4,53.1z"/>
			<polygon class="st2" points="89.9,69.3 93.8,69.3 93.8,74.3 96.7,74.3 96.7,69.3 100.5,69.3 100.5,74.3 102.9,74.3 102.9,69.3 
				106.8,69.3 106.8,74.3 109.4,74.3 109.4,69.3 113.1,69.3 113.1,79.2 111.9,79.7 91.4,79.7 89.9,79.2 			"/>
			<polygon class="st2" points="163,69.3 159.1,69.3 159.1,74.3 156.2,74.3 156.2,69.3 152.4,69.3 152.4,74.3 150,74.3 150,69.3 
				146.1,69.3 146.1,74.3 143.5,74.3 143.5,69.3 139.8,69.3 139.8,79.2 141,79.7 161.5,79.7 163,79.2 			"/>
			<polygon class="st2" points="91.4,79.7 111.8,79.7 111.8,123.1 91.4,123.1 			"/>
			<polygon class="st2" points="161.5,79.7 141.1,79.7 141.1,123.1 161.5,123.1 			"/>
			<polygon class="st2" points="107.3,63.4 103.5,63.4 101.7,66.7 99.8,63.4 96.1,63.4 98,60.2 96.1,57 99.8,57 101.7,53.8 
				103.5,57 107.3,57 105.4,60.2 			"/>
			<polygon class="st2" points="145.6,63.4 149.4,63.4 151.2,66.7 153.1,63.4 156.8,63.4 154.9,60.2 156.8,57 153.1,57 151.2,53.8 
				149.4,57 145.6,57 147.5,60.2 			"/>
			<path class="st2" d="M126.4,65.3c-4.9,0-9.9,4.3-9.9,9.7c1.1,0,9.9,0,9.9,0s8.8,0,9.9,0C136.4,69.6,131.4,65.3,126.4,65.3
				L126.4,65.3z"/>
			<polygon class="st2" points="126.4,75 115,75 115,79.3 116.2,79.7 126.4,79.7 136.7,79.7 137.9,79.3 137.9,75 			"/>
			<polygon class="st2" points="126.4,79.7 116.4,79.7 116.4,122.5 126.4,122.5 136.5,122.5 136.5,79.7 			"/>
			<polygon class="st2" points="126.4,115.7 123.3,115.7 123.3,121.6 117.4,121.6 117.4,115.7 111,115.7 111,121.6 105.6,121.6 
				105.6,115.7 99.3,115.7 99.3,121.6 94,121.6 94,115.7 86.7,115.7 86.7,126.8 88.4,127.3 126.4,127.3 164.5,127.3 165.3,126.8 
				165.3,115.7 158.9,115.7 158.9,121.6 153.6,121.6 153.6,115.7 147.3,115.7 147.3,121.6 141.9,121.6 141.9,115.7 135.5,115.7 
				135.5,121.6 129.6,121.6 129.6,115.7 			"/>
			<path class="st3" d="M77.7,178.7h96.5c0,0-3.2-5.6-6.8-22c-3.3-15-2.1-29.9-2.1-29.9H86.7c0,0,1.2,14.9-2.1,29.9
				C81,173.1,77.7,178.7,77.7,178.7L77.7,178.7z"/>
			<polygon class="st3" points="77.7,178.7 174.3,178.7 174.3,185.3 77.7,185.3 			"/>
			<line class="st4" x1="78" y1="178.7" x2="174" y2="178.7"/>
			<path class="st5" d="M91.7,80h19.8 M141.5,80h19.8 M116.6,80h19.5"/>
			<polygon class="st6" points="110.7,133.3 142.2,132.9 142.2,185.1 110.7,185.1 			"/>
			<g>
				<g>
					<defs>
						<polygon id="SVGID_1_" points="110.7,133.3 142.2,132.9 142.2,185.1 110.7,185.1 						"/>
					</defs>
					<clipPath id="SVGID_2_">
						<use xlink:href="#SVGID_1_"  style="overflow:visible;"/>
					</clipPath>
					<line class="st7" x1="136.8" y1="154.2" x2="133.9" y2="154.2"/>
				</g>
				<g>
					<defs>
						<polygon id="SVGID_3_" points="110.7,133.3 142.2,132.9 142.2,185.1 110.7,185.1 						"/>
					</defs>
					<clipPath id="SVGID_4_">
						<use xlink:href="#SVGID_3_"  style="overflow:visible;"/>
					</clipPath>
					<path class="st8" d="M133.7,154.3c0-1.4-0.5-1.4-0.9-1.4s0.1,0.6,0.1,1.4s-0.5,1.5-0.1,1.5S133.7,155.6,133.7,154.3
						L133.7,154.3z"/>
				</g>
				<g>
					<defs>
						<polygon id="SVGID_5_" points="110.7,133.3 142.2,132.9 142.2,185.1 110.7,185.1 						"/>
					</defs>
					<clipPath id="SVGID_6_">
						<use xlink:href="#SVGID_5_"  style="overflow:visible;"/>
					</clipPath>
					<line class="st9" x1="136.8" y1="176.8" x2="133.9" y2="176.8"/>
				</g>
				<g>
					<defs>
						<polygon id="SVGID_7_" points="110.7,133.3 142.2,132.9 142.2,185.1 110.7,185.1 						"/>
					</defs>
					<clipPath id="SVGID_8_">
						<use xlink:href="#SVGID_7_"  style="overflow:visible;"/>
					</clipPath>
					<path class="st10" d="M133.7,176.9c0-1.4-0.5-1.4-0.9-1.4s0.1,0.6,0.1,1.4s-0.5,1.5-0.1,1.5S133.7,178.1,133.7,176.9
						L133.7,176.9z"/>
				</g>
				<g>
					<defs>
						<polygon id="SVGID_9_" points="110.7,133.3 142.2,132.9 142.2,185.1 110.7,185.1 						"/>
					</defs>
					<clipPath id="SVGID_10_">
						<use xlink:href="#SVGID_9_"  style="overflow:visible;"/>
					</clipPath>
					<path class="st11" d="M111.3,190.8v-38.7c0-3,4.1-13.9,15.1-13.9s15.1,10.9,15.1,13.9v38.7"/>
				</g>
				<g>
					<defs>
						<polygon id="SVGID_11_" points="110.7,133.3 142.2,132.9 142.2,185.1 110.7,185.1 						"/>
					</defs>
					<clipPath id="SVGID_12_">
						<use xlink:href="#SVGID_11_"  style="overflow:visible;"/>
					</clipPath>
					<path class="st12" d="M116.1,191.2v-37.3c0-5.1,4.1-11,10.3-11v48.5v-48.5c6.3,0,10.3,5.9,10.3,11v37.3"/>
				</g>
				<g>
					<defs>
						<polygon id="SVGID_13_" points="110.7,133.3 142.2,132.9 142.2,185.1 110.7,185.1 						"/>
					</defs>
					<clipPath id="SVGID_14_">
						<use xlink:href="#SVGID_13_"  style="overflow:visible;"/>
					</clipPath>
					<line class="st13" x1="116.1" y1="154.2" x2="119" y2="154.2"/>
				</g>
				<g>
					<defs>
						<polygon id="SVGID_15_" points="110.7,133.3 142.2,132.9 142.2,185.1 110.7,185.1 						"/>
					</defs>
					<clipPath id="SVGID_16_">
						<use xlink:href="#SVGID_15_"  style="overflow:visible;"/>
					</clipPath>
					<path class="st14" d="M119.2,154.3c0-1.4,0.5-1.4,0.9-1.4c0.4,0-0.1,0.6-0.1,1.4s0.5,1.5,0.1,1.5
						C119.7,155.7,119.2,155.6,119.2,154.3L119.2,154.3z"/>
				</g>
				<g>
					<defs>
						<polygon id="SVGID_17_" points="110.7,133.3 142.2,132.9 142.2,185.1 110.7,185.1 						"/>
					</defs>
					<clipPath id="SVGID_18_">
						<use xlink:href="#SVGID_17_"  style="overflow:visible;"/>
					</clipPath>
					<line class="st15" x1="116.1" y1="176.8" x2="119" y2="176.8"/>
				</g>
				<g>
					<defs>
						<polygon id="SVGID_19_" points="110.7,133.3 142.2,132.9 142.2,185.1 110.7,185.1 						"/>
					</defs>
					<clipPath id="SVGID_20_">
						<use xlink:href="#SVGID_19_"  style="overflow:visible;"/>
					</clipPath>
					<path class="st16" d="M119.2,176.9c0-1.4,0.5-1.4,0.9-1.4c0.4,0-0.1,0.6-0.1,1.4s0.5,1.5,0.1,1.5
						C119.7,178.3,119.2,178.1,119.2,176.9L119.2,176.9z"/>
				</g>
			</g>
		</g>
	</g>
</g>
</svg>
