<?xml version="1.0" encoding="utf-8"?>
<!-- Generator: Adobe Illustrator 22.1.0, SVG Export Plug-In . SVG Version: 6.00 Build 0)  -->
<svg version="1.1" id="Logo" xmlns="http://www.w3.org/2000/svg" xmlns:xlink="http://www.w3.org/1999/xlink" x="0px" y="0px"
	 viewBox="0 0 300 300" style="enable-background:new 0 0 300 300;" xml:space="preserve">
<style type="text/css">
	.st0{fill:#E32F37;}
	.st1{fill:#B62F32;}
	.st2{fill:#FFFFFF;}
</style>
<g>
	<polygon class="st0" points="150,298 39.4,274 16,51.4 150,2 	"/>
	<polygon class="st1" points="150,298 260.6,274 284,51.4 150,2 	"/>
	<g>
		<path class="st2" d="M160.3,264.9l3.1-0.5v6.4l0.1,0c0.3-0.6,0.6-1.2,0.9-1.7l3.1-5.3l3.8-0.6l-4.5,6.9l4.7,7.7l-3.6,0.5l-3.4-5.8
			l-1.2,1.7v4.8l-3.1,0.5V264.9z"/>
		<path class="st2" d="M178.6,262v5.7l5.1-0.8v-5.7l3.1-0.5v14.8l-3.1,0.5v-6.2l-5.1,0.8v6.2l-3.1,0.5v-14.7L178.6,262z"/>
		<path class="st2" d="M195.5,270.3l-1,4l-3.2,0.5l4.2-15.5l4-0.6l4.2,14.3l-3.3,0.5l-1-3.7L195.5,270.3z M198.9,267.3l-0.8-3
			c-0.2-0.8-0.5-1.9-0.7-2.8l0,0c-0.2,0.9-0.4,2.1-0.6,3l-0.8,3.3L198.9,267.3z"/>
		<path class="st2" d="M208.4,257.4c1-0.3,2.5-0.7,4.1-1c2-0.3,3.4-0.2,4.4,0.5c0.8,0.6,1.3,1.6,1.3,3c0,1.9-1.2,3.4-2.4,4.1v0.1
			c0.9,0.3,1.5,1.2,1.8,2.5c0.4,1.6,0.8,3.5,1.1,4.1l-3.2,0.5c-0.2-0.4-0.5-1.6-0.9-3.4c-0.4-1.8-1-2.2-2.2-2.1l-0.9,0.1v5.9
			l-3.1,0.5V257.4z M211.5,263.4l1.2-0.2c1.5-0.2,2.4-1.2,2.4-2.5c0-1.4-0.9-1.9-2.3-1.7c-0.7,0.1-1.2,0.2-1.4,0.3V263.4z"/>
		<path class="st2" d="M223.3,254.9l3.1-0.5v6.7l0.1,0c0.3-0.6,0.6-1.2,0.9-1.8l3.1-5.5l3.8-0.6l-4.5,7.2l4.7,8l-3.6,0.5l-3.4-6
			l-1.2,1.8v4.9l-3.1,0.5V254.9z"/>
		<path class="st2" d="M241.6,252v15.3l-3.1,0.5v-15.3L241.6,252z"/>
		<path class="st2" d="M250.3,266l-4.4-14.7l3.4-0.5l1.6,6.2c0.5,1.8,0.9,3.4,1.2,5.3l0,0c0.3-1.9,0.8-3.8,1.2-5.6l1.7-6.8l3.3-0.5
			l-4.6,16.1L250.3,266z"/>
	</g>
	<g>
		<path class="st2" d="M48.9,263l-0.9,3.4l-3-0.4l3.9-13.4l3.8,0.4l4,14.5l-3.1-0.4l-1-3.7L48.9,263z M52.2,261.1l-0.8-3.1
			c-0.2-0.9-0.4-1.9-0.6-2.8l0,0c-0.2,0.8-0.4,1.8-0.6,2.6l-0.8,2.9L52.2,261.1z"/>
		<path class="st2" d="M60.5,268.1V254l3.4,0.4l2.6,5.5c0.8,1.6,1.5,3.5,2.1,5.1l0,0c-0.2-1.9-0.2-3.8-0.2-6V255l2.6,0.3v14.3
			l-3-0.4l-2.7-5.8c-0.8-1.6-1.6-3.5-2.2-5.3l-0.1,0c0.1,1.9,0.1,3.9,0.1,6.2v4.2L60.5,268.1z"/>
		<path class="st2" d="M86.3,270.9c-0.9,0.2-2.6,0.5-4.3,0.2c-2.3-0.3-4-1.2-5.2-2.6c-1.2-1.4-1.8-3.4-1.8-5.5
			c0-4.8,3.1-7.1,7.3-6.6c1.6,0.2,2.9,0.7,3.5,1.1l-0.6,2.6c-0.7-0.4-1.6-0.8-3-1c-2.4-0.3-4.2,1-4.2,4.1c0,3,1.7,4.9,4,5.2
			c0.7,0.1,1.2,0.1,1.4,0v-3l-2-0.3v-2.5l4.8,0.6V270.9z"/>
		<path class="st2" d="M93.5,258.4v8.4c0,2.5,0.8,3.9,2.3,4.1c1.5,0.2,2.3-0.9,2.3-3.5v-8.5l2.9,0.3v8.3c0,4.6-2,6.5-5.3,6
			c-3.2-0.4-5.1-2.7-5.1-7.4V258L93.5,258.4z"/>
		<path class="st2" d="M105.6,260.3l2.9,0.3v12.1l5.1,0.7v2.8l-8-1.1V260.3z"/>
		<path class="st2" d="M120.4,273.3l-0.9,3.8l-3-0.4l3.9-14.6l3.8,0.4l4,15.7l-3.1-0.4l-1-4L120.4,273.3z M123.7,271.1l-0.8-3.3
			c-0.2-0.9-0.4-2.1-0.6-3l0,0c-0.2,0.9-0.4,2-0.6,2.8l-0.8,3.1L123.7,271.1z"/>
		<path class="st2" d="M132,263.6c0.9-0.1,2.3-0.1,3.8,0.1c1.9,0.2,3.2,0.7,4.1,1.7c0.8,0.8,1.2,2,1.2,3.4c0,2-1.2,3.2-2.3,3.5v0.1
			c0.9,0.5,1.4,1.6,1.7,3.1c0.4,1.8,0.8,3.9,1,4.5l-3-0.4c-0.2-0.5-0.5-1.8-0.9-3.7c-0.4-2-0.9-2.6-2.1-2.7l-0.9-0.1v6l-2.9-0.4
			V263.6z M134.8,270.5l1.1,0.1c1.4,0.2,2.3-0.6,2.3-1.9c0-1.4-0.8-2.2-2.1-2.4c-0.7-0.1-1.1-0.1-1.3,0V270.5z"/>
	</g>
	<path class="st2" d="M150.1,38.2l86.4,189h-32.4l-17.2-43.9h-74.2l-16.9,43.9H63.5L150.1,38.2z M175,157.6l-24.9-60.9l-25.9,60.9
		H175z"/>
</g>
</svg>
