<?xml version="1.0" encoding="utf-8"?>
<svg id="Layer_1" style="enable-background:new 0 0 250 250;" x="0px" y="0px" viewBox="33 24 190 204" xmlns="http://www.w3.org/2000/svg">
  <style type="text/css">
	.st0{fill:#DD0031;}
	.st1{fill:#C3002F;}
	.st2{fill:#FFFFFF;}
</style>
  <g transform="matrix(1, 0, 0, 1, 3.00001, -3.999995)">
    <polygon class="st0" points="125,30 125,30 125,30 31.9,63.2 46.1,186.3 125,230 125,230 125,230 203.9,186.3 218.1,63.2 &#9;"/>
  </g>
  <g transform="matrix(0.230415, 0, 0, 0.228733, 71.588074, 69.999756)">
    <g>
      <path d="M471.882,407.567L360.567,296.243c-16.586,25.795-38.536,47.734-64.331,64.321l111.324,111.324    c17.772,17.768,46.587,17.768,64.321,0C489.654,454.149,489.654,425.334,471.882,407.567z" style="fill: rgb(255, 255, 255);"/>
      <path d="M363.909,181.955C363.909,81.473,282.44,0,181.956,0C81.474,0,0.001,81.473,0.001,181.955s81.473,181.951,181.955,181.951    C282.44,363.906,363.909,282.437,363.909,181.955z M181.956,318.416c-75.252,0-136.465-61.208-136.465-136.46    c0-75.252,61.213-136.465,136.465-136.465c75.25,0,136.468,61.213,136.468,136.465    C318.424,257.208,257.206,318.416,181.956,318.416z" style="fill: rgb(255, 255, 255);"/>
      <path d="M75.817,181.955h30.322c0-41.803,34.014-75.814,75.816-75.814V75.816C123.438,75.816,75.817,123.437,75.817,181.955z" style="fill: rgb(255, 255, 255);"/>
    </g>
  </g>
  <polygon class="st1" points="127.943 25.925 127.943 48.125 127.943 48.025 127.943 149.325 127.943 149.325 127.943 225.925 127.943 225.925 206.843 182.225 221.043 59.125 127.943 25.925" style="fill: rgba(0, 0, 0, 0.0901961);"/>
  <g transform="matrix(0.230415, 0, 0, 0.228733, 72.930107, 67.920746)"/>
  <g transform="matrix(0.230415, 0, 0, 0.228733, 72.930107, 67.920746)"/>
  <g transform="matrix(0.230415, 0, 0, 0.228733, 72.930107, 67.920746)"/>
  <g transform="matrix(0.230415, 0, 0, 0.228733, 72.930107, 67.920746)"/>
  <g transform="matrix(0.230415, 0, 0, 0.228733, 72.930107, 67.920746)"/>
  <g transform="matrix(0.230415, 0, 0, 0.228733, 72.930107, 67.920746)"/>
  <g transform="matrix(0.230415, 0, 0, 0.228733, 72.930107, 67.920746)"/>
  <g transform="matrix(0.230415, 0, 0, 0.228733, 72.930107, 67.920746)"/>
  <g transform="matrix(0.230415, 0, 0, 0.228733, 72.930107, 67.920746)"/>
  <g transform="matrix(0.230415, 0, 0, 0.228733, 72.930107, 67.920746)"/>
  <g transform="matrix(0.230415, 0, 0, 0.228733, 72.930107, 67.920746)"/>
  <g transform="matrix(0.230415, 0, 0, 0.228733, 72.930107, 67.920746)"/>
  <g transform="matrix(0.230415, 0, 0, 0.228733, 72.930107, 67.920746)"/>
  <g transform="matrix(0.230415, 0, 0, 0.228733, 72.930107, 67.920746)"/>
  <g transform="matrix(0.230415, 0, 0, 0.228733, 72.930107, 67.920746)"/>
</svg>