<?xml version="1.0" encoding="UTF-8" standalone="no"?>
<!-- Created with Inkscape (http://www.inkscape.org/) -->

<svg
   xmlns:osb="http://www.openswatchbook.org/uri/2009/osb"
   xmlns:dc="http://purl.org/dc/elements/1.1/"
   xmlns:cc="http://creativecommons.org/ns#"
   xmlns:rdf="http://www.w3.org/1999/02/22-rdf-syntax-ns#"
   xmlns:svg="http://www.w3.org/2000/svg"
   xmlns="http://www.w3.org/2000/svg"
   xmlns:xlink="http://www.w3.org/1999/xlink"
   xmlns:sodipodi="http://sodipodi.sourceforge.net/DTD/sodipodi-0.dtd"
   xmlns:inkscape="http://www.inkscape.org/namespaces/inkscape"
   width="210mm"
   height="297mm"
   viewBox="0 0 210 297"
   version="1.1"
   id="svg8"
   sodipodi:docname="DutchAngularGroup.svg"
   inkscape:version="0.92.4 (f8dce91, 2019-08-02)">
  <defs
     id="defs2">
    <linearGradient
       id="linearGradient4668"
       osb:paint="solid">
      <stop
         style="stop-color:#0000ac;stop-opacity:1;"
         offset="0"
         id="stop4666" />
    </linearGradient>
    <linearGradient
       id="linearGradient4662"
       osb:paint="solid">
      <stop
         style="stop-color:#0000ab;stop-opacity:1;"
         offset="0"
         id="stop4660" />
    </linearGradient>
    <linearGradient
       id="linearGradient4656"
       osb:paint="solid">
      <stop
         style="stop-color:#0000ab;stop-opacity:1;"
         offset="0"
         id="stop4654" />
    </linearGradient>
    <linearGradient
       id="linearGradient4650"
       osb:paint="solid">
      <stop
         style="stop-color:#000000;stop-opacity:1;"
         offset="0"
         id="stop4648" />
    </linearGradient>
    <linearGradient
       id="linearGradient4640"
       osb:paint="solid">
      <stop
         style="stop-color:#fffdfa;stop-opacity:1;"
         offset="0"
         id="stop4638" />
    </linearGradient>
    <radialGradient
       inkscape:collect="always"
       xlink:href="#linearGradient4640"
       id="radialGradient4646"
       cx="173.6329"
       cy="172.32218"
       fx="173.6329"
       fy="172.32218"
       r="173.6329"
       gradientTransform="matrix(1,0,0,0.99245221,0,1.3006514)"
       gradientUnits="userSpaceOnUse" />
    <linearGradient
       inkscape:collect="always"
       xlink:href="#linearGradient4640"
       id="linearGradient4652"
       x1="148.625"
       y1="171.01367"
       x2="198.63281"
       y2="171.01367"
       gradientUnits="userSpaceOnUse" />
    <linearGradient
       inkscape:collect="always"
       xlink:href="#linearGradient4656"
       id="linearGradient4658"
       x1="36.638455"
       y1="393.71679"
       x2="310.62376"
       y2="393.71679"
       gradientUnits="userSpaceOnUse" />
    <linearGradient
       inkscape:collect="always"
       xlink:href="#linearGradient4662"
       id="linearGradient4664"
       x1="159.75391"
       y1="350.95508"
       x2="187.50781"
       y2="350.95508"
       gradientUnits="userSpaceOnUse" />
    <linearGradient
       inkscape:collect="always"
       xlink:href="#linearGradient4668"
       id="linearGradient4670"
       x1="155.38281"
       y1="474.65234"
       x2="191.88281"
       y2="474.65234"
       gradientUnits="userSpaceOnUse" />
  </defs>
  <sodipodi:namedview
     id="base"
     pagecolor="#ffffff"
     bordercolor="#666666"
     borderopacity="1.0"
     inkscape:pageopacity="0.0"
     inkscape:pageshadow="2"
     inkscape:zoom="0.35"
     inkscape:cx="-221.42857"
     inkscape:cy="545.71429"
     inkscape:document-units="mm"
     inkscape:current-layer="layer1"
     showgrid="false"
     inkscape:window-width="1920"
     inkscape:window-height="1016"
     inkscape:window-x="0"
     inkscape:window-y="27"
     inkscape:window-maximized="1" />
  <metadata
     id="metadata5">
    <rdf:RDF>
      <cc:Work
         rdf:about="">
        <dc:format>image/svg+xml</dc:format>
        <dc:type
           rdf:resource="http://purl.org/dc/dcmitype/StillImage" />
      </cc:Work>
    </rdf:RDF>
  </metadata>
  <g
     inkscape:label="Laag 1"
     inkscape:groupmode="layer"
     id="layer1">
    <g
       id="g4689"
       transform="matrix(0.7895742,0,0,0.7895742,90.515622,120.33679)"
       inkscape:export-xdpi="119.94917"
       inkscape:export-ydpi="119.94917">
      <g
         transform="matrix(1.2926786,0,0,1.2926786,-149.95521,-138.70299)"
         id="g3794">
	<polygon
   style="fill:#dd0031"
   class="st0"
   points="218.1,63.2 125,30 31.9,63.2 46.1,186.3 125,230 203.9,186.3 "
   id="polygon3788" />

	<polygon
   style="fill:#c3002f"
   class="st1"
   points="125,30 125,52.2 125,52.1 125,153.4 125,230 203.9,186.3 218.1,63.2 "
   id="polygon3790" />

	
</g>
      <g
         transform="matrix(0.31577091,0,0,0.31577091,-43.197344,-46.845557)"
         id="g3831">
        <g
           transform="translate(1.0060373e-4,-57.992191)"
           id="g4677">
          <path
             id="path3808"
             d="m 191.88281,455.55469 c 0,-10.0625 -8.1875,-18.25 -18.25,-18.25 -10.0625,0 -18.25,8.1875 -18.25,18.25 V 512 h 36.5 z m 0,0"
             inkscape:connector-curvature="0"
             style="fill:url(#linearGradient4670);fill-opacity:1" />
          <path
             id="path3810"
             d="m 173.63281,275.43359 -45.8789,45.87891 c -16.86719,16.86719 -38.609379,27.10937 -62.074222,29.42969 L 36.933594,493.90625 c -0.890625,4.44141 0.257812,9.05078 3.128906,12.55859 C 42.933594,509.96875 47.226562,512 51.757812,512 h 73.390628 v -56.44531 c 0,-26.73438 21.75,-48.48438 48.48437,-48.48438 26.73438,0 48.48438,21.75 48.48438,48.48438 V 512 h 73.39062 c 4.53125,0 8.82031,-2.03125 11.69531,-5.53516 2.8711,-3.50781 4.01563,-8.11718 3.125,-12.55859 L 286.36328,374.53906 c -10.03516,-1.20703 -19.31641,-5.6914 -26.57422,-12.94922 z m -0.004,119.63672 c -24.32422,0 -44.11329,-19.79297 -44.11329,-44.11718 0,-24.32422 19.78907,-44.10938 44.11329,-44.10938 24.32421,0 44.11328,19.78516 44.11328,44.10938 0,24.32421 -19.78907,44.11718 -44.11328,44.11718 z m 0,0"
             inkscape:connector-curvature="0"
             style="fill:url(#linearGradient4658);fill-opacity:1" />
          <path
             id="path3812"
             d="m 173.62891,337.07812 c -7.65235,0 -13.875,6.22657 -13.875,13.875 0,7.65235 6.22265,13.87891 13.875,13.87891 7.65234,0 13.8789,-6.22656 13.8789,-13.87891 0,-7.64843 -6.22656,-13.875 -13.8789,-13.875 z m 0,0"
             inkscape:connector-curvature="0"
             style="fill:url(#linearGradient4664);fill-opacity:1" />
          <path
             id="path3814"
             d="M 342.50391,44.378906 C 314.62891,16.5 269.08594,16.3125 241,43.9375 L 173.64844,109.94531 65.988281,4.324219 C 60.070312,-1.480469 50.574219,-1.4375 44.710938,4.429688 31.105469,18.035156 23.65625,36.125 23.734375,55.367188 c 0.08203,19.238281 7.679687,37.265624 21.417969,50.777342 L 111.65625,171.32422 4.429688,278.55469 c -5.90625,5.90234 -5.90625,15.47265 0,21.3789 14.050781,14.05078 32.511718,21.07813 50.972656,21.07813 18.457031,0 36.917968,-7.02735 50.968746,-21.07813 l 67.26172,-67.26172 107.54297,107.54297 c 2.83203,2.83594 6.67969,4.42969 10.6875,4.42969 4.00781,0 7.85547,-1.59375 10.69141,-4.42969 28.10547,-28.10547 28.10547,-73.83984 0,-101.94531 L 235.58594,171.30469 342.73437,66.191406 c 2.87891,-2.824218 4.51172,-6.683594 4.53125,-10.71875 0.0195,-4.035156 -1.57812,-7.910156 -4.42968,-10.761718 z m -168.875,181.875004 c -30.45704,0 -55.23829,-24.78125 -55.23829,-55.23829 0,-30.46093 24.78125,-55.23828 55.23829,-55.23828 30.46093,0 55.23828,24.77735 55.23828,55.23828 0,30.45704 -24.78125,55.23829 -55.23828,55.23829 z m 0,0"
             inkscape:connector-curvature="0"
             style="fill:url(#radialGradient4646);fill-opacity:1" />
          <path
             id="path3816"
             d="m 173.62891,196.01562 c 13.78906,0 25.0039,-11.21484 25.0039,-25 0,-13.78906 -11.21484,-25.0039 -25.0039,-25.0039 -13.78516,0 -25.00391,11.21484 -25.00391,25.0039 0,13.78516 11.21875,25 25.00391,25 z m 0,0"
             inkscape:connector-curvature="0"
             style="fill:url(#linearGradient4652);fill-opacity:1" />
        </g>
      </g>
    </g>
  </g>
  <style
     id="style3786"
     type="text/css">
	.st0{fill:#DD0031;}
	.st1{fill:#C3002F;}
	.st2{fill:#FFFFFF;}
</style>
</svg>
