<svg xmlns="http://www.w3.org/2000/svg" viewBox="0 0 186 200" xmlns:v="https://vecta.io/nano"><path fill="#ec4899" d="M92.8 0h0 0L0 33.3l14 122.8L92.8 200h0 0l78.9-43.9L186 33.3 92.8 0z"/><path fill="#db2777" d="M92.8 0v22.2h0v101h0V200h0l78.9-43.9L186 33.3 92.8 0z"/><g fill="#fff"><path d="M138.7 90H47c-2.4 0-4-2.3-4-5.6V55.6c0-3.3 1.6-5.6 4-5.6h92.1c2.3 0 3.9 2.3 3.9 5.6v28.8c-.4 3.3-2 5.6-4.3 5.6zm1.1 30H96.3c-2 0-3.3-1.4-3.3-3.6v-12.8c0-2.2 1.3-3.6 3.3-3.6h43.5c1.9 0 3.2 1.4 3.2 3.6v12.8a3.4 3.4 0 0 1-3.2 3.6zm0 30H96.3c-2 0-3.3-1.5-3.3-3.8v-12.4c0-2.3 1.3-3.8 3.3-3.8h43.5c1.9 0 3.2 1.5 3.2 3.8v12.4c0 1.9-1.3 3.8-3.2 3.8z"/><rect x="43" y="100" width="40" height="50" rx="4"/></g></svg>