<?xml version="1.0" encoding="UTF-8" standalone="no"?><svg xmlns="http://www.w3.org/2000/svg" xmlns:xlink="http://www.w3.org/1999/xlink" style="isolation:isolate" viewBox="0 0 250 250" width="250pt" height="250pt"><defs><clipPath id="_clipPath_bps7BZKY85TkTcYsMwcssyvm4PXnomRv"><rect width="250" height="250"/></clipPath></defs><g clip-path="url(#_clipPath_bps7BZKY85TkTcYsMwcssyvm4PXnomRv)"><clipPath id="_clipPath_o3zqAOe05GkoRlSEJlIyjwe47qSVApc1"><rect x="0" y="0" width="250" height="250" transform="matrix(1,0,0,1,0,0)" fill="rgb(255,255,255)"/></clipPath><g clip-path="url(#_clipPath_o3zqAOe05GkoRlSEJlIyjwe47qSVApc1)"><g><path d=" M 125 0 L 125 0 L 125 0 L 8.625 41.501 L 26.375 195.375 L 125 250 L 125 250 L 125 250 L 223.625 195.375 L 241.375 41.501 L 125 0 Z " fill="rgb(221,0,49)"/><path d=" M 125 0 L 125 27.751 L 125 27.625 L 125 154.25 L 125 154.25 L 125 250 L 125 250 L 223.625 195.375 L 241.375 41.501 L 125 0 L 125 0 Z " fill="rgb(195,0,47)"/><path d=" M 173.078 121.855 C 173.078 95.319 151.536 73.776 125 73.776 C 98.464 73.776 76.922 95.319 76.922 121.855 C 76.922 148.39 98.464 169.933 125 169.933 C 151.536 169.933 173.078 148.39 173.078 121.855 L 173.078 121.855 Z  M 185.128 121.855 C 185.128 88.669 158.186 61.727 125 61.727 C 91.814 61.727 64.872 88.669 64.872 121.855 C 64.872 155.04 91.814 181.983 125 181.983 C 158.186 181.983 185.128 155.04 185.128 121.855 L 185.128 121.855 Z  M 167.842 121.855 C 167.842 98.21 148.645 79.013 125 79.013 C 101.355 79.013 82.158 98.21 82.158 121.855 C 82.158 145.5 101.355 164.696 125 164.696 C 148.645 164.696 167.842 145.5 167.842 121.855 Z " fill-rule="evenodd" fill="rgb(255,255,255)"/></g></g></g></svg>