<?xml version="1.0" encoding="UTF-8"?>
<svg id="svg" version="1.1" xmlns="http://www.w3.org/2000/svg" xmlns:xlink="http://www.w3.org/1999/xlink" width="400" height="400" viewBox="0, 0, 400,400"><g id="svgg"><path id="path0" d="M192.095 79.331 L 192.200 158.662 193.300 160.104 C 193.905 160.898,194.400 161.829,194.400 162.173 C 194.400 162.518,194.559 162.800,194.753 162.800 C 194.948 162.800,195.219 163.115,195.356 163.500 C 195.494 163.885,196.135 165.100,196.781 166.200 C 197.427 167.300,198.332 168.920,198.790 169.800 C 199.249 170.680,200.075 172.120,200.626 173.000 C 201.177 173.880,201.875 175.140,202.178 175.800 C 202.480 176.460,203.070 177.450,203.489 178.000 C 203.908 178.550,204.566 179.630,204.951 180.400 C 205.571 181.638,206.627 183.534,208.518 186.800 C 209.308 188.164,210.865 190.938,212.386 193.692 C 213.082 194.953,213.820 196.089,214.026 196.216 C 214.232 196.343,214.400 196.797,214.400 197.224 C 214.400 197.651,214.580 198.000,214.800 198.000 C 215.020 198.000,215.200 198.341,215.200 198.757 C 215.200 199.174,215.470 199.618,215.800 199.745 C 216.130 199.871,216.400 200.341,216.400 200.787 C 216.400 201.234,216.580 201.600,216.800 201.600 C 217.020 201.600,217.200 201.870,217.200 202.200 C 217.200 202.530,217.377 202.800,217.592 202.800 C 217.808 202.800,218.123 203.295,218.292 203.900 C 218.462 204.505,218.690 184.300,218.800 159.000 L 219.000 113.000 231.000 113.000 L 243.000 113.000 243.000 177.200 L 243.000 241.400 230.400 241.512 C 216.526 241.635,216.189 241.607,215.860 240.296 C 215.734 239.794,215.286 239.014,214.864 238.561 C 214.443 238.109,213.965 237.321,213.803 236.811 C 213.642 236.301,212.629 234.498,211.555 232.805 C 210.480 231.111,209.600 229.428,209.600 229.063 C 209.600 228.698,209.436 228.400,209.236 228.400 C 209.035 228.400,208.476 227.584,207.993 226.586 C 207.510 225.589,206.909 224.551,206.658 224.280 C 206.406 224.009,205.842 223.071,205.404 222.194 C 204.966 221.317,204.502 220.510,204.372 220.400 C 204.243 220.290,203.856 219.660,203.513 219.000 C 201.798 215.703,201.188 214.650,200.650 214.052 C 200.327 213.694,199.939 212.905,199.788 212.300 C 199.637 211.695,199.373 211.200,199.201 211.200 C 199.029 211.200,198.506 210.435,198.038 209.500 C 197.571 208.565,196.558 206.720,195.787 205.400 C 195.016 204.080,194.166 202.550,193.898 202.000 C 193.374 200.927,192.600 200.000,192.229 200.000 C 192.103 200.000,192.000 225.750,192.000 257.221 L 192.000 314.442 194.800 314.360 C 196.340 314.316,197.600 314.126,197.600 313.939 C 197.600 313.753,197.966 313.600,198.413 313.600 C 198.859 313.600,199.329 313.330,199.455 313.000 C 199.582 312.670,199.922 312.400,200.210 312.400 C 200.892 312.400,203.194 311.090,203.197 310.700 C 203.199 310.535,203.470 310.400,203.800 310.400 C 204.130 310.400,204.400 310.220,204.400 310.000 C 204.400 309.780,204.766 309.600,205.213 309.600 C 205.659 309.600,206.129 309.330,206.255 309.000 C 206.382 308.670,206.916 308.400,207.443 308.400 C 207.969 308.400,208.400 308.220,208.400 308.000 C 208.400 307.780,208.670 307.600,209.000 307.600 C 209.330 307.600,209.600 307.330,209.600 307.000 C 209.600 306.627,209.978 306.400,210.600 306.400 C 211.150 306.400,211.600 306.220,211.600 306.000 C 211.600 305.780,211.848 305.600,212.151 305.600 C 212.454 305.600,212.926 305.330,213.200 305.000 C 213.474 304.670,214.036 304.400,214.449 304.400 C 214.862 304.400,215.200 304.220,215.200 304.000 C 215.200 303.780,215.470 303.600,215.800 303.600 C 216.130 303.600,216.355 303.375,216.300 303.100 C 216.244 302.819,216.681 302.545,217.300 302.473 C 217.905 302.404,218.400 302.179,218.400 301.973 C 218.400 301.768,218.766 301.600,219.213 301.600 C 219.659 301.600,220.129 301.330,220.255 301.000 C 220.382 300.670,220.800 300.400,221.184 300.400 C 221.569 300.400,222.369 299.950,222.962 299.400 C 223.556 298.850,224.315 298.400,224.649 298.400 C 224.984 298.400,225.508 298.175,225.815 297.900 C 227.097 296.750,227.584 296.400,227.903 296.400 C 228.671 296.400,230.394 295.364,230.397 294.900 C 230.399 294.625,230.850 294.400,231.400 294.400 C 231.950 294.400,232.400 294.240,232.400 294.043 C 232.400 293.847,232.850 293.574,233.400 293.436 C 233.950 293.298,234.400 293.008,234.400 292.792 C 234.400 292.577,234.670 292.400,235.000 292.400 C 235.330 292.400,235.600 292.220,235.600 292.000 C 235.600 291.780,235.966 291.600,236.413 291.600 C 236.859 291.600,237.329 291.330,237.455 291.000 C 237.582 290.670,237.922 290.400,238.210 290.400 C 238.892 290.400,241.194 289.090,241.197 288.700 C 241.199 288.535,241.470 288.400,241.800 288.400 C 242.130 288.400,242.400 288.220,242.400 288.000 C 242.400 287.780,242.766 287.600,243.213 287.600 C 243.659 287.600,244.129 287.330,244.255 287.000 C 244.382 286.670,244.916 286.400,245.443 286.400 C 245.969 286.400,246.401 286.265,246.403 286.100 C 246.406 285.737,248.877 284.226,249.300 284.328 C 249.465 284.368,249.600 284.220,249.600 284.000 C 249.600 283.780,249.848 283.600,250.151 283.600 C 250.454 283.600,250.926 283.330,251.200 283.000 C 251.474 282.670,252.036 282.400,252.449 282.400 C 252.862 282.400,253.200 282.220,253.200 282.000 C 253.200 281.780,253.476 281.600,253.813 281.600 C 254.149 281.600,254.529 281.330,254.655 281.000 C 254.782 280.670,255.226 280.400,255.643 280.400 C 256.059 280.400,256.400 280.220,256.400 280.000 C 256.400 279.780,256.850 279.600,257.400 279.600 C 258.022 279.600,258.400 279.373,258.400 279.000 C 258.400 278.659,258.759 278.400,259.231 278.400 C 259.688 278.400,260.594 277.868,261.244 277.218 C 261.925 276.536,262.675 276.131,263.013 276.260 C 263.336 276.384,263.600 276.286,263.600 276.043 C 263.600 275.799,263.960 275.600,264.400 275.600 C 264.840 275.600,265.200 275.419,265.200 275.199 C 265.200 274.978,265.920 274.486,266.800 274.104 C 267.680 273.723,268.400 273.184,268.400 272.906 C 268.400 272.628,268.850 272.400,269.400 272.400 C 269.950 272.400,270.400 272.220,270.400 272.000 C 270.400 271.780,270.766 271.600,271.213 271.600 C 271.659 271.600,272.129 271.330,272.255 271.000 C 272.382 270.670,272.800 270.400,273.184 270.400 C 273.569 270.400,274.391 269.929,275.011 269.354 C 275.632 268.779,276.333 268.269,276.570 268.221 C 277.465 268.038,279.200 267.058,279.200 266.736 C 279.200 266.551,279.560 266.400,280.000 266.400 C 280.440 266.400,280.800 266.220,280.800 266.000 C 280.800 265.780,281.160 265.600,281.600 265.600 C 282.044 265.600,282.400 265.333,282.400 265.000 C 282.400 264.670,282.610 264.400,282.866 264.400 C 283.612 264.400,286.400 263.077,286.400 262.723 C 286.400 262.545,286.670 262.400,287.000 262.400 C 287.330 262.400,287.600 262.220,287.600 262.000 C 287.600 261.780,287.966 261.600,288.413 261.600 C 288.859 261.600,289.329 261.330,289.455 261.000 C 289.582 260.670,289.964 260.400,290.305 260.400 C 290.646 260.400,291.514 259.950,292.236 259.400 C 292.957 258.850,293.739 258.400,293.973 258.400 C 294.208 258.400,294.400 258.220,294.400 258.000 C 294.400 257.780,294.766 257.600,295.213 257.600 C 295.659 257.600,296.129 257.330,296.255 257.000 C 296.382 256.670,296.839 256.400,297.271 256.400 C 297.704 256.400,298.308 256.175,298.615 255.900 C 300.002 254.656,300.406 254.400,300.983 254.400 C 301.322 254.400,301.600 254.240,301.600 254.043 C 301.600 253.847,302.050 253.574,302.600 253.436 C 303.150 253.298,303.600 253.008,303.600 252.792 C 303.600 252.577,303.960 252.400,304.400 252.400 C 304.840 252.400,305.200 252.220,305.200 252.000 C 305.200 251.780,305.470 251.600,305.800 251.600 C 306.130 251.600,306.400 251.330,306.400 251.000 C 306.400 250.627,306.778 250.400,307.400 250.400 C 307.950 250.400,308.400 250.220,308.400 250.000 C 308.400 249.780,308.766 249.600,309.213 249.600 C 309.659 249.600,310.129 249.330,310.255 249.000 C 310.382 248.670,310.830 248.400,311.251 248.400 C 312.533 248.400,317.600 242.944,317.600 241.564 C 317.600 240.924,317.780 240.400,318.000 240.400 C 318.265 240.400,318.400 216.867,318.400 170.600 C 318.400 124.333,318.265 100.800,318.000 100.800 C 317.780 100.800,317.600 100.359,317.600 99.820 C 317.600 99.281,317.375 98.696,317.100 98.520 C 316.825 98.344,316.297 97.660,315.927 97.000 C 315.557 96.340,314.947 95.737,314.571 95.660 C 314.195 95.583,313.487 95.088,312.998 94.560 C 312.509 94.032,311.724 93.600,311.254 93.600 C 310.784 93.600,310.399 93.375,310.397 93.100 C 310.394 92.633,308.669 91.600,307.892 91.600 C 307.700 91.600,307.292 91.375,306.985 91.100 C 305.594 89.852,305.193 89.600,304.598 89.600 C 304.248 89.600,303.545 89.150,303.035 88.600 C 302.525 88.050,301.724 87.600,301.254 87.600 C 300.784 87.600,300.399 87.465,300.397 87.300 C 300.394 86.842,298.035 85.600,297.168 85.600 C 296.745 85.600,296.400 85.395,296.400 85.144 C 296.400 84.498,295.147 83.628,294.195 83.613 C 293.752 83.606,293.052 83.150,292.639 82.600 C 292.202 82.018,291.485 81.600,290.925 81.600 C 290.395 81.600,289.545 81.150,289.035 80.600 C 288.525 80.050,287.749 79.600,287.310 79.600 C 286.871 79.600,286.174 79.150,285.761 78.600 C 285.229 77.891,284.630 77.600,283.705 77.600 C 282.987 77.600,282.400 77.407,282.400 77.171 C 282.400 76.488,281.325 75.600,280.498 75.600 C 280.081 75.600,279.317 75.150,278.800 74.600 C 278.283 74.050,277.485 73.600,277.026 73.600 C 276.567 73.600,275.707 73.150,275.113 72.600 C 274.520 72.050,273.748 71.600,273.398 71.600 C 273.048 71.600,272.345 71.150,271.835 70.600 C 271.325 70.050,270.606 69.600,270.237 69.600 C 269.610 69.600,269.214 69.355,267.815 68.100 C 267.508 67.825,266.966 67.600,266.609 67.600 C 266.253 67.600,265.545 67.150,265.035 66.600 C 264.525 66.050,263.724 65.600,263.254 65.600 C 262.784 65.600,262.400 65.423,262.400 65.208 C 262.400 64.992,261.950 64.702,261.400 64.564 C 260.850 64.426,260.400 64.153,260.400 63.957 C 260.400 63.760,259.950 63.600,259.400 63.600 C 258.778 63.600,258.400 63.373,258.400 63.000 C 258.400 62.670,258.130 62.400,257.800 62.400 C 257.470 62.400,257.200 62.220,257.200 62.000 C 257.200 61.780,256.832 61.600,256.383 61.600 C 255.933 61.600,255.080 61.150,254.487 60.600 C 253.893 60.050,253.083 59.600,252.685 59.600 C 252.287 59.600,251.545 59.150,251.035 58.600 C 250.525 58.050,249.724 57.600,249.254 57.600 C 248.784 57.600,248.399 57.465,248.397 57.300 C 248.394 56.842,246.035 55.600,245.168 55.600 C 244.745 55.600,244.400 55.395,244.400 55.144 C 244.400 54.549,243.175 53.629,242.362 53.613 C 240.563 53.577,239.314 46.902,240.986 46.261 C 241.425 46.092,241.560 45.374,241.526 43.379 C 241.501 41.917,241.664 40.604,241.889 40.460 C 242.114 40.317,242.320 39.151,242.348 37.869 C 242.377 36.519,242.651 35.178,242.999 34.680 C 243.390 34.122,243.600 32.876,243.600 31.111 C 243.600 29.570,243.773 28.400,244.000 28.400 C 244.231 28.400,244.400 27.148,244.400 25.443 C 244.400 23.265,244.549 22.428,244.965 22.269 C 245.338 22.126,245.592 21.197,245.715 19.526 C 245.817 18.137,245.987 16.510,246.094 15.911 C 246.200 15.312,246.133 14.918,245.944 15.035 C 245.755 15.152,245.600 15.057,245.600 14.824 C 245.600 14.591,245.780 14.400,246.000 14.400 C 246.220 14.400,246.400 13.791,246.400 13.046 C 246.400 12.301,246.669 11.176,246.998 10.546 C 247.833 8.943,247.835 2.693,247.000 2.000 C 246.670 1.726,246.400 1.273,246.400 0.994 C 246.400 -0.315,238.066 -0.537,237.726 0.763 C 237.616 1.183,237.169 1.619,236.733 1.733 C 236.297 1.847,235.846 2.304,235.730 2.748 C 235.613 3.192,235.132 3.610,234.659 3.678 C 234.136 3.752,233.752 4.136,233.678 4.659 C 233.610 5.132,233.192 5.613,232.748 5.730 C 232.304 5.846,231.847 6.297,231.733 6.733 C 231.619 7.169,231.169 7.619,230.733 7.733 C 230.297 7.847,229.846 8.304,229.730 8.748 C 229.613 9.192,229.132 9.610,228.659 9.678 C 228.141 9.751,227.752 10.135,227.679 10.645 C 227.613 11.110,227.118 11.691,226.579 11.937 C 226.041 12.182,225.600 12.644,225.600 12.964 C 225.600 13.283,225.195 13.602,224.700 13.672 C 224.142 13.751,223.754 14.121,223.679 14.645 C 223.613 15.110,223.118 15.691,222.579 15.937 C 222.041 16.182,221.600 16.644,221.600 16.964 C 221.600 17.283,221.195 17.602,220.700 17.672 C 220.137 17.752,219.754 18.121,219.678 18.659 C 219.610 19.132,219.192 19.613,218.748 19.730 C 218.304 19.846,217.846 20.304,217.730 20.748 C 217.613 21.192,217.132 21.610,216.659 21.678 C 216.130 21.753,215.752 22.136,215.675 22.675 C 215.598 23.221,215.221 23.598,214.675 23.675 C 214.121 23.754,213.753 24.130,213.672 24.700 C 213.514 25.811,212.400 25.902,212.400 24.805 C 212.400 23.881,211.212 22.345,210.729 22.644 C 210.548 22.756,210.400 22.602,210.400 22.303 C 210.400 21.366,209.423 19.606,208.900 19.603 C 208.625 19.601,208.400 19.216,208.400 18.746 C 208.400 18.276,207.982 17.504,207.471 17.031 C 206.960 16.557,206.286 15.592,205.974 14.885 C 205.661 14.178,205.179 13.600,204.902 13.600 C 204.626 13.600,204.400 13.216,204.400 12.746 C 204.400 12.276,203.982 11.504,203.471 11.031 C 202.960 10.557,202.286 9.592,201.974 8.885 C 201.661 8.178,201.179 7.600,200.902 7.600 C 200.626 7.600,200.400 7.216,200.400 6.746 C 200.400 6.276,199.982 5.504,199.471 5.031 C 198.960 4.557,198.286 3.592,197.974 2.885 C 197.661 2.178,197.179 1.600,196.902 1.600 C 196.626 1.600,196.400 1.349,196.400 1.043 C 196.400 0.323,195.521 -0.000,193.562 0.000 L 191.990 0.000 192.095 79.331 M172.394 23.618 C 171.847 24.039,171.580 24.380,171.800 24.378 C 172.329 24.373,173.791 23.258,173.565 23.031 C 173.468 22.934,172.941 23.198,172.394 23.618 M143.600 51.853 C 143.600 52.286,143.384 52.856,143.120 53.120 C 142.755 53.485,142.753 53.600,143.112 53.600 C 143.634 53.600,144.242 51.709,143.848 51.315 C 143.712 51.178,143.600 51.421,143.600 51.853 M74.400 92.261 C 73.441 92.767,73.436 92.788,74.276 92.794 C 74.758 92.797,75.271 92.608,75.416 92.373 C 75.821 91.718,75.498 91.683,74.400 92.261 M149.600 292.724 C 149.600 292.939,149.885 293.224,150.233 293.357 C 150.623 293.507,150.806 293.418,150.708 293.125 C 150.509 292.527,149.600 292.198,149.600 292.724 M314.400 294.200 C 314.400 294.530,314.580 294.800,314.800 294.800 C 315.020 294.800,315.200 294.530,315.200 294.200 C 315.200 293.870,315.020 293.600,314.800 293.600 C 314.580 293.600,314.400 293.870,314.400 294.200 M316.400 306.200 C 316.400 315.426,317.095 316.143,317.272 307.100 C 317.408 300.203,317.320 298.800,316.753 298.800 C 316.559 298.800,316.400 302.130,316.400 306.200 M261.867 299.867 C 261.442 300.291,261.558 303.200,262.000 303.200 C 262.220 303.200,262.400 302.390,262.400 301.400 C 262.400 299.569,262.339 299.394,261.867 299.867 M175.200 307.564 C 175.750 308.014,176.380 308.383,176.600 308.385 C 177.028 308.388,176.305 307.834,175.000 307.160 C 174.469 306.885,174.536 307.021,175.200 307.564 " stroke="none" fill="#c41424" fill-rule="evenodd"></path><path id="path1" d="M139.005 114.500 C 138.878 115.215,138.824 143.880,138.887 178.200 L 139.000 240.600 150.698 240.706 L 162.397 240.812 162.498 194.539 C 162.603 146.981,162.629 146.230,164.099 149.080 C 165.077 150.975,166.590 153.690,168.027 156.128 C 170.407 160.163,171.566 162.181,171.862 162.800 C 172.019 163.130,172.862 164.570,173.735 166.000 C 174.608 167.430,175.714 169.320,176.194 170.200 C 178.397 174.239,179.347 175.810,179.661 175.933 C 179.847 176.007,180.000 176.390,180.000 176.784 C 180.000 177.179,180.270 177.726,180.600 178.000 C 180.930 178.274,181.200 178.665,181.200 178.868 C 181.200 179.072,181.830 180.223,182.600 181.427 C 183.370 182.631,184.000 183.730,184.000 183.870 C 184.000 184.010,184.416 184.681,184.925 185.362 C 185.433 186.043,186.091 187.200,186.387 187.934 C 186.683 188.668,187.122 189.486,187.363 189.752 C 187.803 190.239,188.463 191.392,190.312 194.900 C 192.408 198.876,192.447 198.539,192.318 177.842 C 192.215 161.244,192.121 158.791,191.567 158.142 C 191.219 157.734,190.619 156.770,190.235 156.000 C 188.935 153.400,187.751 151.264,187.313 150.730 C 187.073 150.439,186.440 149.390,185.905 148.400 C 183.932 144.747,182.692 142.590,182.351 142.220 C 182.158 142.011,182.000 141.525,182.000 141.140 C 182.000 140.755,181.775 140.296,181.499 140.120 C 181.224 139.944,180.733 139.260,180.407 138.600 C 180.082 137.940,179.408 136.843,178.908 136.162 C 178.409 135.481,178.000 134.704,178.000 134.436 C 178.000 134.167,177.550 133.357,177.000 132.636 C 176.450 131.914,176.000 131.203,176.000 131.054 C 176.000 130.906,175.550 130.071,175.000 129.200 C 174.450 128.329,174.000 127.351,174.000 127.028 C 174.000 126.704,173.775 126.296,173.500 126.120 C 173.225 125.944,172.566 124.990,172.036 124.000 C 171.506 123.010,170.778 121.650,170.419 120.979 C 170.060 120.307,169.369 119.199,168.883 118.517 C 168.397 117.835,168.000 117.060,168.000 116.796 C 168.000 116.531,167.445 115.614,166.766 114.758 L 165.533 113.200 152.385 113.200 L 139.236 113.200 139.005 114.500 " stroke="none" fill="#f0d1d5" fill-rule="evenodd"></path><path id="path2" d="M138.800 0.400 C 138.800 0.620,138.530 0.800,138.200 0.800 C 137.827 0.800,137.600 1.178,137.600 1.800 C 137.600 2.376,137.393 2.758,137.111 2.700 C 136.767 2.630,136.607 3.404,136.573 5.300 C 136.536 7.320,136.659 8.000,137.062 8.000 C 137.476 8.000,137.600 8.902,137.600 11.920 C 137.600 14.150,137.783 16.023,138.024 16.264 C 138.258 16.498,138.456 17.479,138.466 18.444 C 138.475 19.410,138.718 20.470,139.006 20.800 C 139.331 21.172,139.576 22.770,139.652 25.000 C 139.720 26.980,139.969 28.960,140.206 29.400 C 140.443 29.840,140.610 30.679,140.578 31.264 C 140.538 32.008,140.683 32.266,141.060 32.122 C 141.490 31.957,141.603 32.716,141.613 35.857 C 141.621 38.497,141.801 40.031,142.156 40.499 C 142.453 40.890,142.633 41.902,142.565 42.799 C 142.480 43.925,142.601 44.400,142.975 44.400 C 143.371 44.400,143.553 45.446,143.686 48.500 C 143.895 53.289,143.827 53.600,142.557 53.600 C 142.031 53.600,141.600 53.799,141.600 54.043 C 141.600 54.286,141.328 54.381,140.996 54.254 C 140.643 54.118,140.189 54.349,139.900 54.811 C 139.629 55.245,139.001 55.600,138.504 55.600 C 138.007 55.600,137.600 55.737,137.600 55.904 C 137.600 56.071,137.221 56.444,136.758 56.733 C 136.061 57.169,135.963 57.168,136.188 56.730 C 136.337 56.438,136.201 56.515,135.886 56.900 C 135.570 57.285,135.122 57.600,134.889 57.600 C 134.657 57.600,134.403 57.790,134.326 58.022 C 134.249 58.254,133.829 58.503,133.393 58.575 C 132.957 58.647,132.645 58.907,132.700 59.153 C 132.755 59.399,132.350 59.600,131.800 59.600 C 131.250 59.600,130.800 59.791,130.800 60.024 C 130.800 60.257,130.633 60.344,130.429 60.218 C 130.225 60.092,129.943 60.351,129.802 60.794 C 129.645 61.288,129.169 61.619,128.573 61.650 C 126.802 61.741,125.600 62.304,125.600 63.043 C 125.600 63.370,125.188 63.600,124.600 63.600 C 123.987 63.600,123.600 63.828,123.600 64.187 C 123.600 64.547,123.366 64.685,122.995 64.543 C 122.563 64.377,122.461 64.494,122.638 64.955 C 122.874 65.571,121.815 65.853,120.100 65.630 C 119.825 65.594,119.600 65.821,119.600 66.133 C 119.600 66.929,118.705 67.584,117.479 67.685 C 116.906 67.733,116.504 67.838,116.586 67.919 C 116.926 68.260,115.187 69.539,114.041 69.791 C 113.358 69.941,112.800 70.224,112.800 70.419 C 112.800 70.615,112.500 70.660,112.134 70.519 C 111.685 70.347,111.563 70.417,111.760 70.735 C 112.078 71.250,110.455 72.057,109.838 71.691 C 109.639 71.573,109.605 71.684,109.762 71.938 C 109.942 72.230,109.744 72.400,109.224 72.400 C 108.758 72.400,108.400 72.661,108.400 73.000 C 108.400 73.330,108.062 73.600,107.649 73.600 C 107.236 73.600,106.676 73.868,106.404 74.196 C 106.132 74.523,105.770 74.705,105.600 74.600 C 105.430 74.495,105.068 74.677,104.796 75.004 C 104.524 75.332,104.054 75.600,103.751 75.600 C 103.448 75.600,103.200 75.780,103.200 76.000 C 103.200 76.220,102.840 76.400,102.400 76.400 C 101.956 76.400,101.600 76.667,101.600 77.000 C 101.600 77.340,101.241 77.600,100.771 77.600 C 100.316 77.600,99.663 77.880,99.320 78.223 C 98.977 78.566,98.459 78.755,98.169 78.643 C 97.833 78.515,97.722 78.652,97.863 79.020 C 98.020 79.430,97.796 79.600,97.099 79.600 C 96.513 79.600,95.807 80.007,95.361 80.600 C 94.948 81.150,94.268 81.600,93.849 81.600 C 93.431 81.600,92.829 81.915,92.511 82.300 C 91.964 82.964,91.946 82.963,92.163 82.279 C 92.296 81.858,92.227 81.660,91.995 81.803 C 91.778 81.937,91.600 82.397,91.600 82.824 C 91.600 83.385,91.323 83.600,90.600 83.600 C 90.050 83.600,89.600 83.761,89.600 83.957 C 89.600 84.154,89.321 84.422,88.979 84.553 C 88.627 84.688,88.463 84.622,88.600 84.400 C 88.737 84.178,88.573 84.112,88.221 84.247 C 87.879 84.378,87.600 84.736,87.600 85.043 C 87.600 85.349,87.313 85.600,86.962 85.600 C 86.611 85.600,85.768 85.995,85.090 86.479 C 84.348 87.007,83.976 87.127,84.157 86.779 C 84.323 86.460,84.201 86.515,83.886 86.900 C 83.570 87.285,82.969 87.600,82.551 87.600 C 82.132 87.600,81.612 88.005,81.395 88.500 C 81.143 89.074,80.580 89.448,79.839 89.532 C 78.635 89.670,77.600 90.428,77.600 91.171 C 77.600 91.407,77.169 91.600,76.643 91.600 C 76.116 91.600,75.582 91.870,75.455 92.200 C 75.329 92.530,74.859 92.800,74.413 92.800 C 73.966 92.800,73.600 92.980,73.600 93.200 C 73.600 93.420,73.150 93.600,72.600 93.600 C 71.948 93.600,71.600 93.824,71.600 94.243 C 71.600 94.640,71.378 94.801,71.020 94.663 C 70.633 94.515,70.515 94.633,70.663 95.020 C 70.810 95.404,70.623 95.600,70.110 95.600 C 69.684 95.600,69.094 96.050,68.800 96.600 C 68.506 97.150,68.115 97.600,67.932 97.600 C 67.750 97.600,67.600 98.050,67.600 98.600 C 67.600 99.222,67.373 99.600,67.000 99.600 C 66.667 99.600,66.400 99.956,66.400 100.400 C 66.400 100.840,66.220 101.200,66.000 101.200 C 65.356 101.200,65.456 239.684,66.100 240.379 C 66.506 240.816,66.487 240.863,66.000 240.629 C 65.624 240.448,65.659 240.553,66.094 240.910 C 66.475 241.223,66.675 241.592,66.537 241.730 C 66.398 241.868,66.581 242.095,66.943 242.233 C 67.304 242.372,67.600 242.804,67.600 243.194 C 67.600 243.583,67.868 244.124,68.196 244.396 C 68.523 244.668,68.690 245.055,68.566 245.255 C 68.442 245.456,68.489 245.572,68.670 245.513 C 69.155 245.356,70.839 246.628,70.540 246.926 C 70.400 247.067,70.626 247.296,71.043 247.437 C 73.300 248.201,73.902 248.589,73.689 249.144 C 73.540 249.533,73.628 249.630,73.950 249.431 C 74.217 249.266,74.871 249.417,75.404 249.766 C 75.936 250.114,76.648 250.400,76.986 250.400 C 77.324 250.400,77.600 250.541,77.600 250.714 C 77.600 250.886,78.185 251.367,78.900 251.782 C 79.615 252.198,80.344 252.777,80.520 253.069 C 80.696 253.361,81.033 253.600,81.269 253.600 C 81.531 253.600,81.487 253.328,81.156 252.900 C 80.583 252.161,81.444 252.800,83.580 254.700 C 84.137 255.195,84.819 255.600,85.096 255.600 C 85.373 255.600,85.600 255.780,85.600 256.000 C 85.600 256.220,86.050 256.400,86.600 256.400 C 87.239 256.400,87.600 256.625,87.600 257.024 C 87.600 257.367,87.748 257.556,87.929 257.444 C 88.109 257.332,88.760 257.502,89.374 257.820 C 89.989 258.139,90.670 258.400,90.888 258.400 C 91.106 258.400,91.639 258.850,92.071 259.400 C 92.590 260.060,93.256 260.400,94.029 260.400 C 94.673 260.400,95.200 260.591,95.200 260.824 C 95.200 261.057,94.975 261.118,94.700 260.959 C 94.425 260.801,94.340 260.826,94.512 261.014 C 94.683 261.202,95.130 261.401,95.504 261.456 C 95.879 261.511,96.249 261.746,96.326 261.978 C 96.403 262.210,96.801 262.400,97.210 262.400 C 97.618 262.400,98.081 262.608,98.238 262.862 C 98.427 263.167,98.346 263.214,98.000 263.000 C 97.647 262.782,97.573 262.832,97.772 263.154 C 97.934 263.417,98.391 263.530,98.786 263.404 C 99.225 263.265,99.597 263.414,99.740 263.788 C 99.869 264.125,100.321 264.400,100.745 264.400 C 101.168 264.400,101.622 264.681,101.754 265.025 C 101.886 265.369,102.161 265.548,102.365 265.422 C 102.569 265.296,103.007 265.464,103.339 265.796 C 103.671 266.128,104.316 266.400,104.771 266.400 C 105.227 266.400,105.600 266.605,105.600 266.856 C 105.600 267.528,106.868 268.373,107.900 268.387 C 108.395 268.394,108.755 268.535,108.700 268.700 C 108.645 268.865,108.751 269.033,108.936 269.073 C 109.121 269.114,109.540 269.474,109.866 269.873 C 110.192 270.273,110.345 270.375,110.206 270.100 C 109.802 269.302,110.433 269.521,111.359 270.500 C 111.828 270.995,112.568 271.461,113.005 271.537 C 113.442 271.612,113.860 271.837,113.933 272.037 C 114.007 272.236,114.412 272.400,114.833 272.400 C 115.255 272.400,115.600 272.632,115.600 272.915 C 115.600 273.198,116.002 273.460,116.494 273.497 C 116.986 273.534,117.451 273.752,117.527 273.982 C 117.604 274.212,118.012 274.400,118.433 274.400 C 119.181 274.400,120.898 275.768,120.567 276.100 C 120.475 276.192,120.670 276.297,121.000 276.333 C 121.330 276.370,121.853 276.430,122.162 276.467 C 122.488 276.505,122.627 276.786,122.492 277.136 C 122.329 277.563,122.445 277.668,122.892 277.497 C 123.238 277.364,123.855 277.507,124.261 277.815 C 124.668 278.123,125.216 278.380,125.479 278.387 C 125.743 278.394,126.444 278.850,127.038 279.400 C 127.631 279.950,128.368 280.400,128.675 280.400 C 128.982 280.400,129.613 280.754,130.077 281.186 C 130.541 281.619,131.039 281.899,131.184 281.810 C 131.328 281.721,131.776 282.087,132.179 282.624 C 132.582 283.161,133.112 283.597,133.356 283.594 C 133.600 283.591,133.535 283.420,133.212 283.216 C 132.888 283.011,132.714 282.752,132.826 282.641 C 132.937 282.529,133.875 283.162,134.909 284.046 C 135.943 284.930,136.960 285.549,137.167 285.420 C 137.375 285.292,137.665 285.381,137.811 285.618 C 137.958 285.855,138.521 286.218,139.063 286.424 C 139.605 286.630,139.938 286.977,139.803 287.195 C 139.667 287.415,139.812 287.494,140.128 287.372 C 140.441 287.252,140.977 287.434,141.320 287.777 C 141.663 288.120,142.296 288.400,142.729 288.400 C 143.161 288.400,143.618 288.670,143.745 289.000 C 143.871 289.330,144.341 289.600,144.787 289.600 C 145.234 289.600,145.600 289.780,145.600 290.000 C 145.600 290.220,145.788 290.400,146.017 290.400 C 146.247 290.400,146.920 290.850,147.513 291.400 C 148.107 291.950,148.954 292.403,149.396 292.407 C 149.838 292.411,150.624 292.861,151.142 293.407 C 151.660 293.953,152.425 294.400,152.842 294.400 C 153.259 294.400,153.600 294.670,153.600 295.000 C 153.600 295.373,153.978 295.600,154.600 295.600 C 155.150 295.600,155.600 295.780,155.600 296.000 C 155.600 296.220,156.050 296.400,156.600 296.400 C 157.222 296.400,157.600 296.627,157.600 297.000 C 157.600 297.330,157.881 297.600,158.224 297.600 C 158.567 297.600,158.729 297.792,158.583 298.027 C 158.438 298.261,158.563 298.420,158.860 298.379 C 160.045 298.217,160.795 298.425,160.700 298.891 C 160.645 299.160,161.005 299.443,161.500 299.518 C 161.995 299.594,162.400 299.804,162.400 299.984 C 162.400 300.165,162.857 300.428,163.416 300.568 C 164.031 300.723,164.323 301.001,164.155 301.274 C 163.999 301.525,164.054 301.614,164.279 301.475 C 164.501 301.338,165.024 301.484,165.441 301.800 C 165.858 302.116,166.515 302.380,166.900 302.387 C 167.285 302.394,167.600 302.670,167.600 303.000 C 167.600 303.333,167.955 303.600,168.397 303.600 C 168.835 303.600,169.660 304.005,170.229 304.500 C 170.798 304.995,171.430 305.422,171.632 305.450 C 171.834 305.478,172.191 305.522,172.424 305.550 C 172.657 305.578,172.733 305.784,172.594 306.010 C 172.455 306.235,172.489 306.380,172.670 306.331 C 173.367 306.142,174.800 306.877,174.544 307.291 C 174.392 307.536,174.461 307.609,174.703 307.460 C 175.254 307.120,177.594 308.446,177.597 309.100 C 177.599 309.375,178.050 309.600,178.600 309.600 C 179.150 309.600,179.600 309.780,179.600 310.000 C 179.600 310.220,179.960 310.400,180.400 310.400 C 180.840 310.400,181.567 310.767,182.015 311.215 C 182.463 311.663,182.970 311.942,183.142 311.836 C 183.314 311.730,183.700 311.984,184.000 312.400 C 184.300 312.816,184.693 313.066,184.873 312.955 C 185.053 312.844,185.200 312.943,185.200 313.176 C 185.200 313.409,185.571 313.600,186.024 313.600 C 186.477 313.600,186.736 313.780,186.600 314.000 C 186.444 314.252,187.396 314.400,189.176 314.400 L 192.000 314.400 192.000 257.200 C 192.000 225.740,192.103 200.000,192.229 200.000 C 192.634 200.000,193.396 200.970,193.920 202.152 C 194.200 202.785,194.516 203.217,194.622 203.111 C 194.946 202.788,192.272 198.366,190.700 196.625 C 190.315 196.198,190.000 195.601,190.000 195.298 C 190.000 194.995,189.576 194.174,189.057 193.473 C 188.538 192.773,187.796 191.570,187.407 190.800 C 185.809 187.634,185.449 186.991,185.172 186.800 C 184.902 186.614,183.524 184.207,182.080 181.400 C 181.740 180.740,181.357 180.110,181.228 180.000 C 181.098 179.890,180.634 179.080,180.196 178.200 C 179.758 177.320,179.265 176.540,179.100 176.467 C 178.935 176.393,178.800 176.160,178.800 175.947 C 178.800 175.618,177.754 173.802,175.707 170.577 C 175.436 170.149,174.848 169.080,174.400 168.200 C 173.952 167.320,173.364 166.244,173.093 165.810 C 171.841 163.802,170.131 160.847,169.437 159.491 C 169.017 158.671,168.522 158.000,168.337 158.000 C 168.152 158.000,168.000 157.651,168.000 157.224 C 168.000 156.797,167.825 156.339,167.611 156.207 C 167.397 156.074,166.916 155.299,166.544 154.483 C 166.171 153.667,165.625 152.714,165.330 152.365 C 165.035 152.016,164.442 151.026,164.013 150.165 C 163.234 148.603,163.232 148.700,163.216 194.620 C 163.204 229.862,163.088 240.752,162.720 241.120 C 162.035 241.805,139.565 241.805,138.880 241.120 C 138.371 240.611,138.137 114.750,138.643 113.433 C 138.858 112.873,140.449 112.800,152.440 112.800 L 165.995 112.800 167.197 114.460 C 167.859 115.373,168.400 116.301,168.400 116.522 C 168.400 116.743,168.816 117.481,169.325 118.162 C 169.833 118.843,170.485 119.985,170.773 120.700 C 171.061 121.415,171.421 122.000,171.574 122.000 C 171.726 122.000,172.247 122.855,172.732 123.900 C 173.218 124.945,174.001 126.430,174.474 127.200 C 174.946 127.970,175.732 129.320,176.220 130.200 C 178.511 134.331,179.370 135.816,179.577 136.000 C 179.700 136.110,180.215 137.010,180.721 138.000 C 181.227 138.990,181.962 140.340,182.354 141.000 C 183.312 142.611,185.132 145.829,186.222 147.837 C 187.037 149.339,188.259 151.429,189.484 153.415 C 189.750 153.847,190.449 155.151,191.037 156.313 C 192.371 158.948,192.216 170.235,192.097 79.100 L 191.994 0.000 190.397 0.000 C 189.519 0.000,188.800 0.180,188.800 0.400 C 188.800 0.620,188.571 0.800,188.291 0.800 C 188.011 0.800,187.443 1.430,187.028 2.200 C 186.613 2.970,186.122 3.600,185.937 3.600 C 185.752 3.600,185.600 4.050,185.600 4.600 C 185.600 5.222,185.373 5.600,185.000 5.600 C 184.670 5.600,184.400 5.881,184.400 6.224 C 184.400 6.567,184.239 6.748,184.043 6.626 C 183.846 6.505,183.564 6.890,183.415 7.482 C 183.203 8.326,183.066 8.433,182.779 7.979 C 182.492 7.526,182.411 7.590,182.406 8.276 C 182.403 8.758,182.220 9.264,182.000 9.400 C 181.780 9.536,181.600 10.074,181.600 10.596 C 181.600 11.266,181.343 11.582,180.724 11.672 C 180.106 11.762,179.736 12.214,179.472 13.200 C 179.261 13.985,179.008 14.355,178.896 14.043 C 178.661 13.390,177.600 15.683,177.600 16.846 C 177.600 17.261,177.407 17.600,177.171 17.600 C 176.575 17.600,175.930 18.358,175.037 20.106 C 174.617 20.928,174.122 21.600,173.937 21.600 C 173.752 21.600,173.600 22.020,173.600 22.532 C 173.600 23.118,173.228 23.664,172.600 24.000 C 172.050 24.294,171.600 24.775,171.600 25.068 C 171.600 25.360,171.330 25.600,171.000 25.600 C 170.670 25.600,170.400 25.326,170.400 24.991 C 170.400 24.657,169.950 24.178,169.400 23.927 C 168.850 23.677,168.400 23.151,168.400 22.759 C 168.400 22.368,168.192 21.919,167.938 21.762 C 167.642 21.579,167.585 21.653,167.780 21.968 C 168.002 22.327,167.858 22.318,167.242 21.933 C 166.779 21.644,166.400 21.177,166.400 20.895 C 166.400 20.613,165.959 20.182,165.421 19.937 C 164.882 19.691,164.387 19.110,164.321 18.645 C 164.246 18.121,163.858 17.751,163.300 17.672 C 162.805 17.602,162.400 17.287,162.400 16.972 C 162.400 16.657,162.175 16.397,161.900 16.394 C 161.567 16.390,161.600 16.258,162.000 16.000 C 162.468 15.698,162.357 15.611,161.500 15.606 C 160.463 15.600,160.218 15.274,160.370 14.100 C 160.407 13.814,160.000 13.600,159.418 13.600 C 158.599 13.600,158.400 13.405,158.400 12.600 C 158.400 11.828,158.194 11.600,157.496 11.600 C 156.999 11.600,156.356 11.221,156.067 10.758 C 155.682 10.142,155.673 9.998,156.032 10.220 C 156.347 10.415,156.421 10.358,156.238 10.062 C 156.081 9.808,155.603 9.600,155.176 9.600 C 154.615 9.600,154.400 9.323,154.400 8.600 C 154.400 7.813,154.197 7.600,153.447 7.600 C 152.818 7.600,152.419 7.317,152.276 6.770 C 152.157 6.314,151.686 5.843,151.230 5.724 C 150.683 5.581,150.400 5.182,150.400 4.553 C 150.400 3.803,150.187 3.600,149.400 3.600 C 148.600 3.600,148.400 3.400,148.400 2.600 C 148.400 2.050,148.265 1.621,148.100 1.647 C 147.021 1.818,146.400 1.508,146.400 0.800 C 146.400 0.056,146.133 0.000,142.600 0.000 C 140.333 0.000,138.800 0.161,138.800 0.400 M219.073 113.061 C 218.923 113.211,218.786 133.958,218.768 159.167 C 218.747 190.355,218.608 204.649,218.335 203.900 C 218.114 203.295,217.768 202.800,217.567 202.800 C 217.365 202.800,217.200 202.530,217.200 202.200 C 217.200 201.870,217.033 201.600,216.828 201.600 C 216.623 201.600,216.398 201.209,216.328 200.731 C 216.258 200.254,215.971 199.817,215.690 199.761 C 215.409 199.706,215.365 199.751,215.590 199.863 C 215.815 199.975,216.000 200.350,216.000 200.696 C 216.000 201.041,216.424 201.881,216.942 202.562 C 217.461 203.243,218.019 204.223,218.182 204.740 C 219.061 207.518,219.204 201.667,219.298 159.182 L 219.400 113.400 231.000 113.400 L 242.600 113.400 242.600 177.200 L 242.600 241.000 230.084 241.106 C 221.911 241.175,217.297 241.066,216.784 240.792 C 216.262 240.512,216.000 240.508,216.000 240.778 C 216.000 241.534,217.769 241.624,230.400 241.512 L 243.000 241.400 243.000 177.200 L 243.000 113.000 231.173 112.894 C 224.667 112.836,219.222 112.911,219.073 113.061 M192.402 159.420 C 192.401 159.651,192.563 160.011,192.763 160.220 C 192.963 160.429,193.620 161.500,194.224 162.600 C 194.827 163.700,195.429 164.690,195.561 164.800 C 195.692 164.910,196.114 165.630,196.498 166.400 C 196.881 167.170,197.351 168.070,197.541 168.400 C 197.731 168.730,198.213 169.630,198.613 170.400 C 199.013 171.170,199.443 171.890,199.570 172.000 C 199.696 172.110,200.138 172.830,200.552 173.600 C 200.965 174.370,201.736 175.803,202.265 176.785 C 202.794 177.766,203.356 178.666,203.513 178.785 C 203.671 178.903,204.114 179.630,204.498 180.400 C 204.881 181.170,205.356 182.070,205.554 182.400 C 205.751 182.730,206.243 183.675,206.647 184.500 C 207.051 185.325,207.521 186.000,207.691 186.000 C 207.861 186.000,208.000 186.301,208.000 186.669 C 208.000 187.036,208.254 187.621,208.564 187.969 C 208.874 188.316,209.563 189.410,210.096 190.400 C 211.894 193.739,212.878 195.397,213.441 196.031 C 213.748 196.379,214.006 196.919,214.013 197.231 C 214.033 198.130,215.200 199.550,215.200 198.676 C 215.200 198.304,215.020 198.000,214.800 198.000 C 214.580 198.000,214.400 197.651,214.400 197.224 C 214.400 196.797,214.232 196.343,214.026 196.216 C 213.820 196.089,213.082 194.953,212.386 193.692 C 210.865 190.938,209.308 188.164,208.518 186.800 C 206.627 183.534,205.571 181.638,204.951 180.400 C 204.566 179.630,203.908 178.550,203.489 178.000 C 203.070 177.450,202.480 176.460,202.178 175.800 C 201.875 175.140,201.177 173.880,200.626 173.000 C 200.075 172.120,199.249 170.680,198.790 169.800 C 198.332 168.920,197.427 167.300,196.781 166.200 C 196.135 165.100,195.494 163.885,195.356 163.500 C 195.219 163.115,194.948 162.800,194.753 162.800 C 194.559 162.800,194.394 162.485,194.386 162.100 C 194.370 161.358,192.405 158.703,192.402 159.420 M195.478 204.860 C 196.275 206.486,198.000 209.102,198.000 208.685 C 198.000 208.519,197.550 207.671,197.000 206.800 C 196.450 205.929,196.000 205.054,196.000 204.857 C 196.000 204.659,195.735 204.278,195.411 204.009 C 194.933 203.612,194.946 203.773,195.478 204.860 M198.009 209.425 C 198.004 209.658,198.338 210.212,198.751 210.655 C 199.164 211.099,199.635 211.898,199.798 212.431 C 199.961 212.964,200.340 213.681,200.640 214.024 C 201.329 214.811,203.057 217.853,203.637 219.300 C 203.880 219.905,204.277 220.400,204.519 220.400 C 204.819 220.400,204.806 220.246,204.480 219.920 C 204.216 219.656,204.000 219.131,204.000 218.753 C 204.000 218.376,203.847 218.007,203.660 217.933 C 203.283 217.786,201.627 215.075,200.401 212.600 C 199.482 210.744,198.022 208.805,198.009 209.425 M204.880 221.100 C 204.960 221.265,205.288 221.940,205.608 222.600 C 205.929 223.260,206.399 224.019,206.653 224.286 C 206.907 224.554,207.510 225.589,207.993 226.586 C 208.476 227.584,209.035 228.400,209.236 228.400 C 209.436 228.400,209.601 228.715,209.602 229.100 C 209.603 229.485,210.142 230.610,210.800 231.600 C 211.523 232.688,211.997 233.123,211.998 232.700 C 211.999 232.315,211.865 231.999,211.700 231.997 C 211.338 231.994,210.000 229.713,210.000 229.099 C 210.000 228.859,209.742 228.378,209.428 228.031 C 209.113 227.683,208.611 226.949,208.313 226.399 C 206.782 223.580,205.101 220.800,204.928 220.800 C 204.821 220.800,204.799 220.935,204.880 221.100 M212.740 234.624 C 213.184 235.298,213.668 236.333,213.817 236.924 C 213.965 237.516,214.217 238.000,214.376 238.000 C 214.535 238.000,214.906 238.450,215.200 238.999 C 215.494 239.549,215.810 239.923,215.903 239.831 C 215.995 239.738,215.605 238.976,215.036 238.138 C 214.466 237.300,213.999 236.431,213.998 236.207 C 213.997 235.983,213.532 235.260,212.965 234.600 L 211.934 233.400 212.740 234.624 " stroke="none" fill="#db1c34" fill-rule="evenodd"></path><path id="path3" d="M270.076 290.188 C 269.567 290.469,268.711 291.081,268.173 291.549 C 267.634 292.017,266.970 292.403,266.697 292.407 C 266.424 292.411,265.776 292.861,265.258 293.407 C 264.740 293.953,264.155 294.400,263.958 294.400 C 263.761 294.400,263.600 295.120,263.600 296.000 C 263.600 297.116,263.428 297.600,263.032 297.600 C 262.605 297.600,262.430 298.322,262.332 300.500 C 262.141 304.696,262.341 306.400,263.024 306.400 C 263.366 306.400,263.600 306.792,263.600 307.367 C 263.600 307.898,263.825 308.438,264.100 308.567 C 264.497 308.752,264.498 308.848,264.104 309.032 C 263.389 309.366,264.498 310.400,265.571 310.400 C 266.032 310.400,266.400 310.660,266.400 310.986 C 266.400 311.679,267.610 312.400,268.774 312.400 C 269.242 312.400,269.600 312.660,269.600 313.000 C 269.600 313.500,270.401 313.600,274.413 313.600 C 278.321 313.600,279.268 313.487,279.455 313.000 C 279.582 312.670,280.026 312.400,280.443 312.400 C 280.859 312.400,281.200 312.220,281.200 312.000 C 281.200 311.780,281.470 311.600,281.800 311.600 C 282.130 311.600,282.400 311.330,282.400 311.000 C 282.400 310.670,282.670 310.400,283.000 310.400 C 283.515 310.400,283.638 310.107,283.591 308.992 C 283.587 308.877,284.037 308.294,284.591 307.696 C 285.152 307.091,285.600 306.128,285.600 305.528 C 285.600 304.933,285.780 304.336,286.000 304.200 C 286.220 304.064,286.400 302.973,286.400 301.776 C 286.400 300.579,286.220 299.600,286.000 299.600 C 285.780 299.600,285.586 298.925,285.568 298.100 C 285.551 297.275,285.446 296.825,285.335 297.100 C 285.224 297.375,284.949 297.600,284.724 297.600 C 284.499 297.600,284.416 297.335,284.540 297.012 C 284.664 296.688,284.460 296.117,284.087 295.744 C 283.599 295.256,283.546 295.018,283.900 294.900 C 284.474 294.709,283.561 293.600,282.829 293.600 C 282.593 293.600,282.400 293.407,282.400 293.171 C 282.400 292.466,281.314 291.600,280.429 291.600 C 279.959 291.600,279.600 291.340,279.600 291.000 C 279.600 290.567,279.156 290.400,278.000 290.400 C 277.120 290.400,276.400 290.220,276.400 290.000 C 276.400 289.422,271.183 289.577,270.076 290.188 M298.806 289.900 C 298.803 290.175,298.530 290.400,298.200 290.400 C 297.870 290.400,297.600 290.649,297.600 290.953 C 297.600 291.258,297.227 291.604,296.770 291.724 C 296.314 291.843,295.843 292.314,295.724 292.770 C 295.604 293.227,295.301 293.600,295.050 293.600 C 294.798 293.600,294.356 293.979,294.067 294.442 C 293.778 294.905,293.734 295.164,293.970 295.018 C 294.207 294.872,294.400 294.943,294.400 295.176 C 294.400 295.409,294.220 295.600,294.000 295.600 C 293.780 295.600,293.600 295.793,293.600 296.029 C 293.600 296.264,293.330 296.727,293.000 297.057 C 292.473 297.584,292.400 303.454,292.400 345.029 C 292.400 386.870,292.470 392.400,293.000 392.400 C 293.352 392.400,293.605 392.772,293.613 393.300 C 293.627 394.314,294.468 395.600,295.116 395.600 C 295.352 395.600,295.602 396.003,295.672 396.496 C 295.742 396.989,296.133 397.455,296.539 397.533 C 296.946 397.610,297.723 398.062,298.266 398.537 C 300.262 400.281,310.400 400.624,310.400 398.948 C 310.400 398.646,310.769 398.400,311.219 398.400 C 312.192 398.400,315.600 395.167,315.600 394.244 C 315.600 393.890,315.780 393.600,316.000 393.600 C 316.220 393.600,316.400 393.137,316.400 392.571 C 316.400 392.006,316.670 391.273,317.000 390.943 C 317.483 390.460,317.600 389.102,317.600 383.971 C 317.600 379.990,317.750 377.600,318.000 377.600 C 318.220 377.600,318.400 377.330,318.400 377.000 C 318.400 376.670,318.593 376.400,318.829 376.400 C 319.382 376.400,320.400 375.382,320.400 374.829 C 320.400 374.593,320.593 374.400,320.829 374.400 C 321.382 374.400,322.400 373.382,322.400 372.829 C 322.400 372.593,322.640 372.400,322.932 372.400 C 323.225 372.400,323.701 371.960,323.989 371.421 C 324.618 370.246,325.600 369.770,325.600 370.641 C 325.600 371.349,326.539 372.400,327.171 372.400 C 327.407 372.400,327.600 372.769,327.600 373.220 C 327.600 374.248,328.690 376.400,329.210 376.400 C 329.425 376.400,329.600 376.784,329.600 377.254 C 329.600 377.724,330.050 378.525,330.600 379.035 C 331.150 379.545,331.600 380.253,331.600 380.609 C 331.600 381.344,332.527 382.400,333.171 382.400 C 333.407 382.400,333.600 382.850,333.600 383.400 C 333.600 383.950,333.780 384.400,334.000 384.400 C 334.220 384.400,334.400 384.766,334.400 385.213 C 334.400 385.659,334.670 386.129,335.000 386.255 C 335.330 386.382,335.600 386.851,335.600 387.297 C 335.600 387.743,336.050 388.525,336.600 389.035 C 337.150 389.545,337.600 390.253,337.600 390.609 C 337.600 391.344,338.527 392.400,339.171 392.400 C 339.407 392.400,339.600 392.777,339.600 393.238 C 339.600 394.165,340.792 396.400,341.286 396.400 C 341.459 396.400,341.600 396.670,341.600 397.000 C 341.600 397.346,341.961 397.600,342.453 397.600 C 342.923 397.600,343.690 398.046,344.158 398.590 C 345.576 400.240,356.400 400.577,356.400 398.971 C 356.400 398.629,356.800 398.400,357.400 398.400 C 357.950 398.400,358.400 398.220,358.400 398.000 C 358.400 397.780,358.670 397.600,359.000 397.600 C 359.330 397.600,359.600 397.373,359.600 397.095 C 359.600 396.817,360.050 396.252,360.600 395.839 C 361.150 395.426,361.600 394.753,361.600 394.344 C 361.600 393.935,361.780 393.600,362.000 393.600 C 363.017 393.600,362.472 382.195,361.400 381.038 C 360.850 380.444,360.400 379.698,360.400 379.379 C 360.400 379.061,360.220 378.800,360.000 378.800 C 359.780 378.800,359.600 378.530,359.600 378.200 C 359.600 377.870,359.330 377.600,359.000 377.600 C 358.627 377.600,358.400 377.222,358.400 376.600 C 358.400 376.050,358.220 375.600,358.000 375.600 C 357.780 375.600,357.600 375.150,357.600 374.600 C 357.600 373.978,357.373 373.600,357.000 373.600 C 356.670 373.600,356.400 373.266,356.400 372.858 C 356.400 372.451,355.950 371.631,355.400 371.038 C 354.850 370.444,354.400 369.685,354.400 369.351 C 354.400 368.650,353.458 367.600,352.829 367.600 C 352.593 367.600,352.400 367.150,352.400 366.600 C 352.400 366.050,352.220 365.600,352.000 365.600 C 351.780 365.600,351.600 365.150,351.600 364.600 C 351.600 363.978,351.373 363.600,351.000 363.600 C 350.654 363.600,350.400 363.238,350.400 362.746 C 350.400 362.276,349.950 361.475,349.400 360.965 C 348.850 360.455,348.400 359.747,348.400 359.391 C 348.400 358.656,347.473 357.600,346.829 357.600 C 346.593 357.600,346.400 357.150,346.400 356.600 C 346.400 356.050,346.220 355.600,346.000 355.600 C 345.780 355.600,345.600 355.150,345.600 354.600 C 345.600 354.014,345.370 353.600,345.045 353.600 C 344.736 353.600,344.414 353.073,344.316 352.408 C 344.157 351.329,344.686 350.659,349.920 345.308 C 353.098 342.059,355.962 339.002,356.285 338.516 C 356.608 338.029,357.215 337.522,357.636 337.389 C 358.056 337.255,358.400 336.888,358.400 336.573 C 358.400 336.258,358.570 336.000,358.777 336.000 C 358.985 336.000,359.474 335.460,359.864 334.800 C 360.254 334.140,360.804 333.600,361.086 333.600 C 361.369 333.600,361.600 333.150,361.600 332.600 C 361.600 332.050,361.780 331.600,362.000 331.600 C 362.245 331.600,362.400 329.667,362.400 326.600 C 362.400 323.533,362.245 321.600,362.000 321.600 C 361.780 321.600,361.600 321.150,361.600 320.600 C 361.600 319.978,361.373 319.600,361.000 319.600 C 360.670 319.600,360.400 319.407,360.400 319.171 C 360.400 318.618,359.382 317.600,358.829 317.600 C 358.593 317.600,358.400 317.407,358.400 317.171 C 358.400 316.317,357.226 315.600,355.829 315.600 C 354.825 315.600,354.400 315.421,354.400 315.000 C 354.400 314.503,353.644 314.400,350.000 314.400 C 346.356 314.400,345.600 314.503,345.600 315.000 C 345.600 315.373,345.222 315.600,344.600 315.600 C 344.050 315.600,343.600 315.780,343.600 316.000 C 343.600 316.220,343.330 316.400,343.000 316.400 C 342.670 316.400,342.400 316.670,342.400 317.000 C 342.400 317.330,342.130 317.600,341.800 317.600 C 341.149 317.600,339.600 318.978,339.600 319.557 C 339.600 319.754,339.330 320.018,339.000 320.145 C 338.670 320.271,338.400 320.651,338.400 320.987 C 338.400 321.324,338.106 321.600,337.746 321.600 C 337.070 321.600,335.644 322.951,334.539 324.636 C 334.192 325.166,333.721 325.600,333.493 325.600 C 333.042 325.600,330.015 328.811,330.006 329.300 C 330.003 329.465,329.809 329.600,329.576 329.600 C 329.343 329.600,326.553 332.224,323.376 335.431 L 317.600 341.261 317.511 321.331 C 317.462 310.369,317.368 304.145,317.301 307.500 C 317.124 316.382,316.400 315.338,316.400 306.200 C 316.400 299.600,316.780 296.909,317.318 299.700 C 317.470 300.492,317.498 300.471,317.546 299.529 C 317.575 298.939,317.330 298.187,317.000 297.857 C 316.670 297.527,316.400 296.884,316.400 296.429 C 316.400 295.973,316.220 295.600,316.000 295.600 C 315.780 295.600,315.579 295.105,315.554 294.500 C 315.525 293.823,315.437 293.669,315.324 294.100 C 315.046 295.165,314.400 294.935,314.400 293.771 C 314.400 292.573,313.538 291.576,312.432 291.492 C 312.005 291.460,311.751 291.279,311.868 291.090 C 311.985 290.901,311.702 290.647,311.240 290.526 C 310.778 290.406,310.400 290.148,310.400 289.953 C 310.400 289.759,307.970 289.600,305.000 289.600 C 300.950 289.600,299.598 289.725,299.594 290.100 C 299.590 290.433,299.458 290.400,299.200 290.000 C 298.942 289.600,298.810 289.567,298.806 289.900 M57.600 316.000 C 57.600 316.220,57.172 316.400,56.649 316.400 C 56.126 316.400,55.474 316.670,55.200 317.000 C 54.914 317.345,54.042 317.600,53.151 317.600 C 52.298 317.600,51.600 317.780,51.600 318.000 C 51.600 318.220,51.150 318.400,50.600 318.400 C 49.978 318.400,49.600 318.627,49.600 319.000 C 49.600 319.373,49.222 319.600,48.600 319.600 C 48.050 319.600,47.600 319.780,47.600 320.000 C 47.600 320.220,47.234 320.400,46.787 320.400 C 46.341 320.400,45.871 320.670,45.745 321.000 C 45.618 321.330,45.084 321.600,44.557 321.600 C 43.803 321.600,43.600 321.812,43.600 322.600 C 43.600 323.400,43.400 323.600,42.600 323.600 C 42.050 323.600,41.600 323.780,41.600 324.000 C 41.600 324.220,41.330 324.400,41.000 324.400 C 40.670 324.400,40.400 324.593,40.400 324.829 C 40.400 325.382,39.382 326.400,38.829 326.400 C 38.593 326.400,38.400 326.649,38.400 326.953 C 38.400 327.258,38.041 327.601,37.602 327.715 C 37.163 327.830,36.677 328.256,36.522 328.662 C 36.367 329.068,35.646 329.961,34.920 330.647 C 34.194 331.333,33.600 332.278,33.600 332.747 C 33.600 333.216,33.407 333.600,33.171 333.600 C 32.542 333.600,31.600 334.650,31.600 335.351 C 31.600 335.685,31.150 336.444,30.600 337.038 C 29.947 337.743,29.600 338.582,29.600 339.458 C 29.600 340.196,29.465 340.801,29.300 340.803 C 28.552 340.809,27.600 343.400,27.600 345.432 C 27.600 347.092,27.460 347.600,27.000 347.600 C 26.547 347.600,26.400 348.089,26.400 349.600 C 26.400 350.700,26.220 351.600,26.000 351.600 C 25.739 351.600,25.600 358.667,25.600 372.000 C 25.600 385.333,25.739 392.400,26.000 392.400 C 26.220 392.400,26.400 392.670,26.400 393.000 C 26.400 393.330,26.670 393.600,27.000 393.600 C 27.340 393.600,27.600 393.959,27.600 394.429 C 27.600 395.314,28.466 396.400,29.171 396.400 C 29.407 396.400,29.601 396.625,29.603 396.900 C 29.606 397.367,31.331 398.400,32.108 398.400 C 32.300 398.400,32.727 398.670,33.057 399.000 C 33.517 399.460,34.676 399.600,38.029 399.600 C 41.648 399.600,42.400 399.497,42.400 399.000 C 42.400 398.627,42.778 398.400,43.400 398.400 C 43.950 398.400,44.400 398.220,44.400 398.000 C 44.400 397.780,44.587 397.600,44.816 397.600 C 45.622 397.600,47.600 395.841,47.600 395.125 C 47.600 394.726,47.780 394.400,48.000 394.400 C 48.220 394.400,48.400 394.207,48.400 393.971 C 48.400 393.736,48.670 393.273,49.000 392.943 C 49.330 392.613,49.600 391.726,49.600 390.971 C 49.600 390.217,49.780 389.600,50.000 389.600 C 50.261 389.600,50.400 383.062,50.400 370.787 C 50.400 354.434,50.478 351.945,51.000 351.745 C 51.330 351.618,51.600 351.084,51.600 350.557 C 51.600 350.031,51.780 349.600,52.000 349.600 C 52.220 349.600,52.400 349.150,52.400 348.600 C 52.400 347.978,52.627 347.600,53.000 347.600 C 53.330 347.600,53.600 347.386,53.600 347.124 C 53.600 346.377,58.845 341.600,59.665 341.600 C 60.069 341.600,60.400 341.330,60.400 341.000 C 60.400 340.583,60.820 340.400,61.776 340.400 C 62.533 340.400,63.264 340.220,63.400 340.000 C 63.542 339.770,65.663 339.600,68.400 339.600 C 71.137 339.600,73.258 339.770,73.400 340.000 C 73.536 340.220,74.087 340.400,74.624 340.400 C 75.225 340.400,75.600 340.631,75.600 341.000 C 75.600 341.373,75.978 341.600,76.600 341.600 C 77.150 341.600,77.600 341.780,77.600 342.000 C 77.600 342.220,78.050 342.400,78.600 342.400 C 79.150 342.400,79.600 342.593,79.600 342.829 C 79.600 343.382,80.618 344.400,81.171 344.400 C 81.407 344.400,81.600 344.593,81.600 344.829 C 81.600 345.382,82.618 346.400,83.171 346.400 C 83.407 346.400,83.600 346.850,83.600 347.400 C 83.600 347.950,83.780 348.400,84.000 348.400 C 84.220 348.400,84.400 348.850,84.400 349.400 C 84.400 350.022,84.627 350.400,85.000 350.400 C 85.453 350.400,85.600 350.889,85.600 352.400 C 85.600 353.500,85.780 354.400,86.000 354.400 C 86.261 354.400,86.400 360.804,86.400 372.813 C 86.400 388.810,86.479 391.255,87.000 391.455 C 87.370 391.597,87.600 392.205,87.600 393.043 C 87.600 393.789,87.780 394.400,88.000 394.400 C 88.220 394.400,88.400 394.670,88.400 395.000 C 88.400 395.330,88.640 395.600,88.932 395.600 C 89.225 395.600,89.706 396.050,90.000 396.600 C 90.294 397.150,90.775 397.600,91.068 397.600 C 91.360 397.600,91.600 397.780,91.600 398.000 C 91.600 398.220,92.050 398.400,92.600 398.400 C 93.222 398.400,93.600 398.627,93.600 399.000 C 93.600 399.500,94.401 399.600,98.413 399.600 C 102.321 399.600,103.268 399.487,103.455 399.000 C 103.582 398.670,104.039 398.400,104.471 398.400 C 105.321 398.400,106.400 397.521,106.400 396.829 C 106.400 396.593,106.593 396.400,106.829 396.400 C 107.382 396.400,108.400 395.382,108.400 394.829 C 108.400 394.593,108.670 394.400,109.000 394.400 C 109.373 394.400,109.600 394.022,109.600 393.400 C 109.600 392.850,109.780 392.400,110.000 392.400 C 110.262 392.400,110.400 384.741,110.400 370.224 C 110.400 355.871,110.259 347.960,110.000 347.800 C 109.780 347.664,109.600 346.856,109.600 346.005 C 109.600 345.154,109.330 344.187,109.000 343.857 C 108.670 343.527,108.400 342.884,108.400 342.429 C 108.400 341.973,108.220 341.600,108.000 341.600 C 107.780 341.600,107.600 341.150,107.600 340.600 C 107.600 339.978,107.373 339.600,107.000 339.600 C 106.627 339.600,106.400 339.222,106.400 338.600 C 106.400 338.050,106.220 337.600,106.000 337.600 C 105.780 337.600,105.600 337.150,105.600 336.600 C 105.600 335.978,105.373 335.600,105.000 335.600 C 104.627 335.600,104.400 335.222,104.400 334.600 C 104.400 334.050,104.220 333.600,104.000 333.600 C 103.780 333.600,103.600 333.330,103.600 333.000 C 103.600 332.670,103.330 332.400,103.000 332.400 C 102.667 332.400,102.400 332.044,102.400 331.600 C 102.400 331.160,102.220 330.800,102.000 330.800 C 101.780 330.800,101.600 330.530,101.600 330.200 C 101.600 329.870,101.330 329.600,101.000 329.600 C 100.670 329.600,100.400 329.407,100.400 329.171 C 100.400 328.618,99.382 327.600,98.829 327.600 C 98.593 327.600,98.400 327.407,98.400 327.171 C 98.400 326.618,97.382 325.600,96.829 325.600 C 96.593 325.600,96.400 325.407,96.400 325.171 C 96.400 324.466,95.314 323.600,94.429 323.600 C 93.959 323.600,93.600 323.340,93.600 323.000 C 93.600 322.670,93.330 322.400,93.000 322.400 C 92.670 322.400,92.400 322.220,92.400 322.000 C 92.400 321.780,91.950 321.600,91.400 321.600 C 90.850 321.600,90.400 321.407,90.400 321.171 C 90.400 320.317,89.226 319.600,87.829 319.600 C 86.825 319.600,86.400 319.421,86.400 319.000 C 86.400 318.670,86.130 318.400,85.800 318.400 C 85.470 318.400,85.200 318.220,85.200 318.000 C 85.200 317.780,84.409 317.600,83.443 317.600 C 82.250 317.600,81.612 317.407,81.455 317.000 C 81.322 316.653,80.724 316.400,80.036 316.400 C 79.382 316.400,78.736 316.220,78.600 316.000 C 78.445 315.750,74.463 315.600,67.976 315.600 C 61.325 315.600,57.600 315.744,57.600 316.000 M148.600 316.000 C 148.464 316.220,147.733 316.400,146.976 316.400 C 146.020 316.400,145.600 316.583,145.600 317.000 C 145.600 317.453,145.111 317.600,143.600 317.600 C 142.500 317.600,141.600 317.780,141.600 318.000 C 141.600 318.220,141.150 318.400,140.600 318.400 C 139.978 318.400,139.600 318.627,139.600 319.000 C 139.600 319.359,139.231 319.600,138.680 319.600 C 137.427 319.600,135.607 320.487,135.603 321.100 C 135.601 321.375,135.150 321.600,134.600 321.600 C 134.050 321.600,133.600 321.780,133.600 322.000 C 133.600 322.220,133.330 322.400,133.000 322.400 C 132.670 322.400,132.400 322.670,132.400 323.000 C 132.400 323.330,132.085 323.606,131.700 323.613 C 130.835 323.628,129.600 324.529,129.600 325.144 C 129.600 325.395,129.407 325.600,129.171 325.600 C 128.640 325.600,127.600 326.609,127.600 327.125 C 127.600 327.335,127.227 327.604,126.770 327.724 C 126.314 327.843,125.843 328.314,125.724 328.770 C 125.604 329.227,125.335 329.600,125.125 329.600 C 124.609 329.600,123.600 330.640,123.600 331.171 C 123.600 331.407,123.423 331.600,123.208 331.600 C 122.992 331.600,122.702 332.050,122.564 332.600 C 122.426 333.150,122.153 333.600,121.957 333.600 C 121.760 333.600,121.600 334.037,121.600 334.572 C 121.600 335.276,121.351 335.580,120.700 335.672 C 120.010 335.770,119.771 336.104,119.675 337.100 C 119.597 337.905,119.331 338.400,118.975 338.400 C 118.659 338.400,118.400 338.670,118.400 339.000 C 118.400 339.330,118.220 339.600,118.000 339.600 C 117.780 339.600,117.600 340.500,117.600 341.600 C 117.600 342.974,117.437 343.600,117.080 343.600 C 116.334 343.600,115.600 345.924,115.600 348.286 C 115.600 349.720,115.424 350.382,115.000 350.545 C 114.497 350.738,114.400 351.947,114.400 358.000 C 114.400 364.053,114.497 365.262,115.000 365.455 C 115.438 365.624,115.600 366.314,115.600 368.019 C 115.600 369.303,115.780 370.464,116.000 370.600 C 116.220 370.736,116.400 371.197,116.400 371.624 C 116.400 372.051,116.670 372.400,117.000 372.400 C 117.433 372.400,117.600 372.844,117.600 374.000 C 117.600 374.880,117.780 375.600,118.000 375.600 C 118.220 375.600,118.400 375.966,118.400 376.413 C 118.400 376.859,118.670 377.329,119.000 377.455 C 119.330 377.582,119.600 378.039,119.600 378.471 C 119.600 379.321,120.479 380.400,121.171 380.400 C 121.407 380.400,121.600 380.850,121.600 381.400 C 121.600 381.950,121.780 382.400,122.000 382.400 C 122.220 382.400,122.400 382.670,122.400 383.000 C 122.400 383.330,122.670 383.600,123.000 383.600 C 123.362 383.600,123.600 383.970,123.600 384.532 C 123.600 385.118,123.972 385.664,124.600 386.000 C 125.150 386.294,125.600 386.698,125.600 386.896 C 125.600 387.395,126.650 388.400,127.171 388.400 C 127.407 388.400,127.600 388.640,127.600 388.932 C 127.600 389.225,128.050 389.706,128.600 390.000 C 129.150 390.294,129.600 390.775,129.600 391.068 C 129.600 391.360,129.972 391.600,130.427 391.600 C 130.882 391.600,131.848 392.230,132.574 393.000 C 133.300 393.770,134.278 394.400,134.747 394.400 C 135.239 394.400,135.600 394.654,135.600 395.000 C 135.600 395.373,135.978 395.600,136.600 395.600 C 137.150 395.600,137.600 395.780,137.600 396.000 C 137.600 396.220,138.050 396.400,138.600 396.400 C 139.222 396.400,139.600 396.627,139.600 397.000 C 139.600 397.373,139.978 397.600,140.600 397.600 C 141.150 397.600,141.600 397.780,141.600 398.000 C 141.600 398.220,142.500 398.400,143.600 398.400 C 145.047 398.400,145.600 398.555,145.600 398.960 C 145.600 400.279,167.270 400.318,168.244 399.001 C 168.498 398.658,169.313 398.400,170.144 398.400 C 170.945 398.400,171.600 398.220,171.600 398.000 C 171.600 397.780,172.037 397.600,172.571 397.600 C 173.106 397.600,173.813 397.330,174.143 397.000 C 174.473 396.670,175.116 396.400,175.571 396.400 C 176.027 396.400,176.400 396.220,176.400 396.000 C 176.400 395.218,177.272 395.620,178.574 397.000 C 179.300 397.770,180.278 398.400,180.747 398.400 C 181.216 398.400,181.600 398.646,181.600 398.948 C 181.600 400.409,192.637 400.288,193.126 398.821 C 193.203 398.590,193.522 398.400,193.833 398.400 C 194.145 398.400,194.400 398.220,194.400 398.000 C 194.400 397.780,194.670 397.600,195.000 397.600 C 195.330 397.600,195.600 397.407,195.600 397.171 C 195.600 396.618,196.618 395.600,197.171 395.600 C 197.407 395.600,197.600 395.330,197.600 395.000 C 197.600 394.670,197.780 394.400,198.000 394.400 C 198.220 394.400,198.400 393.789,198.400 393.043 C 198.400 392.205,198.630 391.597,199.000 391.455 C 199.893 391.112,199.906 353.357,199.013 352.176 C 198.690 351.749,198.420 350.545,198.413 349.500 C 198.406 348.455,198.220 347.600,198.000 347.600 C 197.780 347.600,197.600 346.784,197.600 345.787 C 197.600 344.545,197.411 343.902,197.000 343.745 C 196.670 343.618,196.400 343.084,196.400 342.557 C 196.400 342.031,196.220 341.600,196.000 341.600 C 195.780 341.600,195.600 341.163,195.600 340.629 C 195.600 340.094,195.330 339.387,195.000 339.057 C 194.670 338.727,194.400 338.264,194.400 338.029 C 194.400 337.793,194.220 337.600,194.000 337.600 C 193.780 337.600,193.600 337.150,193.600 336.600 C 193.600 335.978,193.373 335.600,193.000 335.600 C 192.627 335.600,192.400 335.222,192.400 334.600 C 192.400 334.050,192.220 333.600,192.000 333.600 C 191.780 333.600,191.600 333.330,191.600 333.000 C 191.600 332.670,191.407 332.400,191.171 332.400 C 190.466 332.400,189.600 331.314,189.600 330.429 C 189.600 329.973,189.360 329.600,189.068 329.600 C 188.775 329.600,188.294 329.150,188.000 328.600 C 187.706 328.050,187.225 327.600,186.932 327.600 C 186.640 327.600,186.400 327.407,186.400 327.171 C 186.400 326.622,185.384 325.600,184.838 325.600 C 184.607 325.600,184.124 325.150,183.763 324.600 C 183.403 324.050,182.850 323.600,182.535 323.600 C 182.220 323.600,181.545 323.150,181.035 322.600 C 180.525 322.050,179.724 321.600,179.254 321.600 C 178.762 321.600,178.400 321.346,178.400 321.000 C 178.400 320.670,178.051 320.400,177.624 320.400 C 177.197 320.400,176.736 320.220,176.600 320.000 C 176.464 319.780,175.913 319.600,175.376 319.600 C 174.775 319.600,174.400 319.369,174.400 319.000 C 174.400 318.627,174.022 318.400,173.400 318.400 C 172.850 318.400,172.400 318.220,172.400 318.000 C 172.400 317.780,171.500 317.600,170.400 317.600 C 168.889 317.600,168.400 317.453,168.400 317.000 C 168.400 316.583,167.980 316.400,167.024 316.400 C 166.267 316.400,165.536 316.220,165.400 316.000 C 165.248 315.755,162.004 315.600,157.000 315.600 C 151.996 315.600,148.752 315.755,148.600 316.000 M239.600 316.000 C 239.600 316.220,238.893 316.400,238.029 316.400 C 237.164 316.400,236.187 316.670,235.857 317.000 C 235.499 317.358,234.521 317.600,233.429 317.600 C 232.423 317.600,231.600 317.780,231.600 318.000 C 231.600 318.220,231.150 318.400,230.600 318.400 C 229.978 318.400,229.600 318.627,229.600 319.000 C 229.600 319.419,229.178 319.600,228.200 319.600 C 227.430 319.600,226.800 319.780,226.800 320.000 C 226.800 320.220,226.530 320.400,226.200 320.400 C 225.870 320.400,225.600 320.670,225.600 321.000 C 225.600 321.373,225.222 321.600,224.600 321.600 C 224.050 321.600,223.600 321.780,223.600 322.000 C 223.600 322.220,223.249 322.400,222.820 322.400 C 222.391 322.400,221.896 322.650,221.720 322.955 C 221.544 323.261,221.040 323.578,220.600 323.659 C 220.136 323.746,219.746 324.185,219.672 324.704 C 219.593 325.257,219.266 325.600,218.816 325.600 C 217.853 325.600,213.600 329.875,213.600 330.843 C 213.600 331.384,213.314 331.600,212.600 331.600 C 211.800 331.600,211.600 331.800,211.600 332.600 C 211.600 333.150,211.407 333.600,211.171 333.600 C 210.527 333.600,209.600 334.656,209.600 335.391 C 209.600 335.747,209.150 336.455,208.600 336.965 C 207.957 337.560,207.600 338.325,207.600 339.103 C 207.600 339.811,207.351 340.410,207.000 340.545 C 206.670 340.671,206.400 341.141,206.400 341.587 C 206.400 342.034,206.220 342.400,206.000 342.400 C 205.780 342.400,205.600 343.120,205.600 344.000 C 205.600 345.156,205.433 345.600,205.000 345.600 C 204.581 345.600,204.400 346.022,204.400 347.000 C 204.400 347.770,204.220 348.400,204.000 348.400 C 203.361 348.400,203.459 393.100,204.100 393.815 C 205.287 395.138,205.600 395.591,205.600 395.983 C 205.600 396.212,205.780 396.400,206.000 396.400 C 206.220 396.400,206.400 396.670,206.400 397.000 C 206.400 397.330,206.579 397.600,206.797 397.600 C 207.015 397.600,207.657 398.005,208.224 398.500 C 210.280 400.297,222.400 400.678,222.400 398.946 C 222.400 398.646,222.593 398.400,222.829 398.400 C 223.382 398.400,224.400 397.382,224.400 396.829 C 224.400 396.593,224.593 396.400,224.829 396.400 C 225.644 396.400,226.400 395.252,226.400 394.016 C 226.400 393.282,226.645 392.681,227.000 392.545 C 227.522 392.344,227.600 389.839,227.600 373.357 C 227.600 360.986,227.739 354.400,228.000 354.400 C 228.220 354.400,228.400 353.789,228.400 353.043 C 228.400 352.205,228.630 351.597,229.000 351.455 C 229.330 351.329,229.600 350.859,229.600 350.413 C 229.600 349.966,229.780 349.600,230.000 349.600 C 230.220 349.600,230.400 349.150,230.400 348.600 C 230.400 347.978,230.627 347.600,231.000 347.600 C 231.330 347.600,231.600 347.420,231.600 347.200 C 231.600 346.980,232.320 346.080,233.200 345.200 C 234.080 344.320,234.980 343.600,235.200 343.600 C 235.420 343.600,235.600 343.330,235.600 343.000 C 235.600 342.627,235.978 342.400,236.600 342.400 C 237.150 342.400,237.600 342.220,237.600 342.000 C 237.600 341.780,237.966 341.600,238.413 341.600 C 238.859 341.600,239.329 341.330,239.455 341.000 C 239.620 340.570,240.292 340.400,241.819 340.400 C 242.993 340.400,244.064 340.220,244.200 340.000 C 244.336 339.780,245.787 339.600,247.424 339.600 C 249.803 339.600,250.400 339.480,250.400 339.000 C 250.400 338.627,250.778 338.400,251.400 338.400 C 251.950 338.400,252.400 338.220,252.400 338.000 C 252.400 337.780,252.566 337.600,252.769 337.600 C 252.972 337.600,253.692 337.046,254.369 336.369 C 255.046 335.692,255.600 334.972,255.600 334.769 C 255.600 334.566,255.780 334.400,256.000 334.400 C 256.220 334.400,256.400 334.152,256.400 333.849 C 256.400 333.546,256.670 333.074,257.000 332.800 C 257.466 332.413,257.600 331.331,257.600 327.951 C 257.600 324.350,257.497 323.600,257.000 323.600 C 256.627 323.600,256.400 323.222,256.400 322.600 C 256.400 322.050,256.220 321.600,256.000 321.600 C 255.780 321.600,255.600 321.150,255.600 320.600 C 255.600 320.034,255.369 319.600,255.068 319.600 C 254.775 319.600,254.294 319.150,254.000 318.600 C 253.675 317.994,253.115 317.600,252.575 317.600 C 252.086 317.600,251.582 317.330,251.455 317.000 C 251.329 316.670,250.859 316.400,250.413 316.400 C 249.966 316.400,249.600 316.220,249.600 316.000 C 249.600 315.755,247.667 315.600,244.600 315.600 C 241.533 315.600,239.600 315.755,239.600 316.000 M271.800 316.000 C 271.664 316.220,271.113 316.400,270.576 316.400 C 269.975 316.400,269.600 316.631,269.600 317.000 C 269.600 317.373,269.222 317.600,268.600 317.600 C 268.050 317.600,267.600 317.780,267.600 318.000 C 267.600 318.220,267.290 318.400,266.910 318.400 C 265.845 318.400,263.600 321.162,263.600 322.473 C 263.600 323.208,263.391 323.600,263.000 323.600 C 262.627 323.600,262.400 323.978,262.400 324.600 C 262.400 325.150,262.220 325.600,262.000 325.600 C 261.737 325.600,261.600 336.659,261.600 357.976 C 261.600 379.129,261.739 390.438,262.000 390.600 C 262.220 390.736,262.400 391.382,262.400 392.036 C 262.400 392.724,262.653 393.322,263.000 393.455 C 263.370 393.597,263.600 394.205,263.600 395.043 C 263.600 396.224,263.730 396.400,264.600 396.400 C 265.400 396.400,265.600 396.600,265.600 397.400 C 265.600 398.200,265.800 398.400,266.600 398.400 C 267.180 398.400,267.600 398.630,267.600 398.948 C 267.600 399.688,269.703 399.990,274.881 399.996 C 278.886 400.000,281.200 399.538,281.200 398.736 C 281.200 398.551,281.394 398.400,281.631 398.400 C 282.385 398.400,284.400 396.094,284.400 395.231 C 284.400 394.759,284.659 394.400,285.000 394.400 C 285.433 394.400,285.600 393.956,285.600 392.800 C 285.600 391.920,285.780 391.200,286.000 391.200 C 286.263 391.200,286.400 380.208,286.400 359.024 C 286.400 338.004,286.261 326.761,286.000 326.600 C 285.780 326.464,285.600 325.733,285.600 324.976 C 285.600 324.020,285.417 323.600,285.000 323.600 C 284.627 323.600,284.400 323.222,284.400 322.600 C 284.400 322.050,284.220 321.600,284.000 321.600 C 283.780 321.600,283.600 321.150,283.600 320.600 C 283.600 320.034,283.369 319.600,283.068 319.600 C 282.775 319.600,282.294 319.150,282.000 318.600 C 281.677 317.997,281.114 317.600,280.581 317.600 C 280.095 317.600,279.474 317.330,279.200 317.000 C 278.926 316.670,278.184 316.400,277.551 316.400 C 276.918 316.400,276.400 316.220,276.400 316.000 C 276.400 315.780,275.421 315.600,274.224 315.600 C 273.027 315.600,271.936 315.780,271.800 316.000 M159.600 340.000 C 159.600 340.220,160.208 340.400,160.951 340.400 C 161.694 340.400,162.526 340.670,162.800 341.000 C 163.074 341.330,163.636 341.600,164.049 341.600 C 164.462 341.600,164.800 341.780,164.800 342.000 C 164.800 342.220,165.079 342.400,165.419 342.400 C 165.760 342.400,166.435 342.828,166.920 343.352 C 167.405 343.875,168.160 344.372,168.596 344.456 C 169.033 344.540,169.458 344.957,169.540 345.382 C 169.621 345.807,170.119 346.493,170.644 346.906 C 171.170 347.320,171.600 348.005,171.600 348.429 C 171.600 348.853,171.780 349.200,172.000 349.200 C 172.220 349.200,172.400 349.470,172.400 349.800 C 172.400 350.130,172.670 350.400,173.000 350.400 C 173.419 350.400,173.600 350.822,173.600 351.800 C 173.600 352.570,173.780 353.200,174.000 353.200 C 174.220 353.200,174.400 353.727,174.400 354.371 C 174.400 355.016,174.670 355.813,175.000 356.143 C 175.330 356.473,175.600 357.366,175.600 358.129 C 175.600 358.991,175.374 359.601,175.000 359.745 C 174.589 359.902,174.400 360.545,174.400 361.787 C 174.400 362.784,174.220 363.600,174.000 363.600 C 173.780 363.600,173.600 364.031,173.600 364.557 C 173.600 365.084,173.330 365.618,173.000 365.745 C 172.670 365.871,172.400 366.341,172.400 366.787 C 172.400 367.234,172.220 367.600,172.000 367.600 C 171.780 367.600,171.600 368.050,171.600 368.600 C 171.600 369.400,171.400 369.600,170.600 369.600 C 169.800 369.600,169.600 369.800,169.600 370.600 C 169.600 371.400,169.400 371.600,168.600 371.600 C 167.800 371.600,167.600 371.800,167.600 372.600 C 167.600 373.459,167.417 373.602,166.300 373.613 C 164.928 373.626,163.600 374.379,163.600 375.144 C 163.600 375.467,161.673 375.600,157.000 375.600 C 152.573 375.600,150.400 375.459,150.400 375.171 C 150.400 374.527,149.344 373.600,148.609 373.600 C 148.253 373.600,147.545 373.150,147.035 372.600 C 146.525 372.050,145.736 371.600,145.282 371.600 C 144.730 371.600,144.413 371.302,144.328 370.700 C 144.246 370.122,143.878 369.754,143.300 369.672 C 142.649 369.580,142.400 369.276,142.400 368.572 C 142.400 368.037,142.220 367.600,142.000 367.600 C 141.780 367.600,141.600 367.349,141.600 367.043 C 141.600 366.736,141.330 366.382,141.000 366.255 C 140.670 366.129,140.400 365.659,140.400 365.213 C 140.400 364.766,140.220 364.400,140.000 364.400 C 139.780 364.400,139.600 363.770,139.600 363.000 C 139.600 362.022,139.419 361.600,139.000 361.600 C 138.511 361.600,138.400 360.933,138.400 358.000 C 138.400 355.067,138.511 354.400,139.000 354.400 C 139.419 354.400,139.600 353.978,139.600 353.000 C 139.600 352.230,139.780 351.600,140.000 351.600 C 140.220 351.600,140.400 351.231,140.400 350.781 C 140.400 350.330,140.850 349.545,141.400 349.035 C 141.950 348.525,142.400 347.724,142.400 347.254 C 142.400 346.784,142.593 346.400,142.829 346.400 C 143.382 346.400,144.400 345.382,144.400 344.829 C 144.400 344.593,144.588 344.400,144.817 344.400 C 145.209 344.400,145.662 344.087,146.985 342.900 C 147.292 342.625,147.736 342.400,147.971 342.400 C 148.207 342.400,148.400 342.220,148.400 342.000 C 148.400 341.780,148.850 341.600,149.400 341.600 C 150.022 341.600,150.400 341.373,150.400 341.000 C 150.400 340.557,150.864 340.400,152.176 340.400 C 153.153 340.400,154.064 340.220,154.200 340.000 C 154.336 339.780,155.607 339.600,157.024 339.600 C 158.475 339.600,159.600 339.775,159.600 340.000 " stroke="none" fill="#040404" fill-rule="evenodd"></path><path id="path4" d="M138.643 113.433 C 138.137 114.750,138.371 240.611,138.880 241.120 C 139.231 241.471,142.436 241.600,150.800 241.600 C 159.164 241.600,162.369 241.471,162.720 241.120 C 163.088 240.752,163.204 229.862,163.216 194.620 C 163.232 148.700,163.234 148.603,164.013 150.165 C 164.442 151.026,165.035 152.016,165.330 152.365 C 165.625 152.714,166.171 153.667,166.544 154.483 C 166.916 155.299,167.397 156.074,167.611 156.207 C 167.825 156.339,168.000 156.797,168.000 157.224 C 168.000 157.651,168.152 158.000,168.337 158.000 C 168.522 158.000,169.017 158.671,169.437 159.491 C 170.131 160.847,171.841 163.802,173.093 165.810 C 173.364 166.244,173.952 167.320,174.400 168.200 C 174.848 169.080,175.436 170.149,175.707 170.577 C 177.754 173.802,178.800 175.618,178.800 175.947 C 178.800 176.160,178.935 176.393,179.100 176.467 C 179.265 176.540,179.758 177.320,180.196 178.200 C 180.634 179.080,181.098 179.890,181.228 180.000 C 181.357 180.110,181.740 180.740,182.080 181.400 C 183.524 184.207,184.902 186.614,185.172 186.800 C 185.447 186.989,185.723 187.481,187.413 190.800 C 188.398 192.733,189.649 194.485,189.879 194.254 C 189.985 194.149,189.605 193.376,189.036 192.538 C 188.466 191.700,188.000 190.786,188.000 190.507 C 188.000 190.228,187.847 190.000,187.661 190.000 C 187.474 190.000,186.986 189.235,186.576 188.300 C 186.167 187.365,185.419 186.043,184.916 185.362 C 184.412 184.681,184.000 184.010,184.000 183.870 C 184.000 183.730,183.370 182.631,182.600 181.427 C 181.830 180.223,181.200 179.072,181.200 178.868 C 181.200 178.665,180.930 178.274,180.600 178.000 C 180.270 177.726,180.000 177.179,180.000 176.784 C 180.000 176.390,179.847 176.007,179.661 175.933 C 179.347 175.810,178.397 174.239,176.194 170.200 C 175.714 169.320,174.608 167.430,173.735 166.000 C 172.862 164.570,172.019 163.130,171.862 162.800 C 171.566 162.181,170.407 160.163,168.027 156.128 C 166.590 153.690,165.077 150.975,164.099 149.080 C 162.629 146.230,162.603 146.981,162.498 194.539 L 162.397 240.812 150.698 240.706 L 139.000 240.600 138.887 178.200 C 138.824 143.880,138.878 115.215,139.005 114.500 L 139.236 113.200 152.385 113.200 L 165.533 113.200 166.766 114.758 C 167.445 115.614,168.000 116.531,168.000 116.796 C 168.000 117.060,168.397 117.835,168.883 118.517 C 169.369 119.199,170.060 120.307,170.419 120.979 C 170.778 121.650,171.506 123.010,172.036 124.000 C 172.566 124.990,173.225 125.944,173.500 126.120 C 173.775 126.296,174.000 126.704,174.000 127.028 C 174.000 127.351,174.450 128.329,175.000 129.200 C 175.550 130.071,176.000 130.906,176.000 131.054 C 176.000 131.203,176.450 131.914,177.000 132.636 C 177.550 133.357,178.000 134.167,178.000 134.436 C 178.000 134.704,178.409 135.481,178.908 136.162 C 179.408 136.843,180.082 137.940,180.407 138.600 C 180.733 139.260,181.224 139.944,181.499 140.120 C 181.775 140.296,182.000 140.755,182.000 141.140 C 182.000 141.525,182.158 142.011,182.351 142.220 C 182.694 142.592,183.968 144.809,185.903 148.400 C 186.436 149.390,187.096 150.470,187.369 150.800 C 187.642 151.130,188.181 152.030,188.565 152.800 C 189.976 155.622,191.065 157.556,191.626 158.231 C 192.103 158.805,192.220 162.119,192.318 177.861 C 192.443 197.860,192.392 198.424,190.703 195.700 C 190.279 195.016,190.017 194.836,190.011 195.225 C 190.005 195.568,190.315 196.204,190.700 196.639 C 191.736 197.807,193.728 200.803,194.530 202.400 C 194.917 203.170,195.556 204.340,195.951 205.000 C 196.345 205.660,197.165 207.100,197.773 208.200 C 198.382 209.300,199.094 210.470,199.356 210.800 C 199.617 211.130,200.141 212.030,200.520 212.800 C 201.652 215.104,203.296 217.791,203.660 217.933 C 203.847 218.007,204.000 218.308,204.000 218.604 C 204.000 218.899,204.900 220.608,206.000 222.400 C 207.100 224.192,208.000 225.764,208.000 225.892 C 208.000 226.020,208.450 226.714,209.000 227.436 C 209.550 228.157,210.000 228.924,210.000 229.141 C 210.000 229.723,211.352 231.995,211.700 231.997 C 211.865 231.999,212.000 232.301,212.000 232.669 C 212.000 233.036,212.254 233.621,212.564 233.969 C 213.066 234.532,214.142 236.390,215.881 239.700 C 216.685 241.230,216.757 241.237,230.400 241.112 L 242.600 241.000 242.600 177.200 L 242.600 113.400 231.000 113.400 L 219.400 113.400 219.298 159.182 C 219.204 201.667,219.061 207.518,218.182 204.740 C 218.019 204.223,217.461 203.243,216.942 202.562 C 216.424 201.881,216.000 201.026,216.000 200.662 C 216.000 200.298,215.865 199.999,215.700 199.997 C 215.338 199.994,214.000 197.713,214.000 197.099 C 214.000 196.859,213.748 196.379,213.441 196.031 C 212.878 195.397,211.894 193.739,210.096 190.400 C 209.563 189.410,208.874 188.316,208.564 187.969 C 208.254 187.621,208.000 187.036,208.000 186.669 C 208.000 186.301,207.861 186.000,207.691 186.000 C 207.521 186.000,207.051 185.325,206.647 184.500 C 206.243 183.675,205.751 182.730,205.554 182.400 C 205.356 182.070,204.881 181.170,204.498 180.400 C 204.114 179.630,203.671 178.903,203.513 178.785 C 203.356 178.666,202.794 177.766,202.265 176.785 C 201.736 175.803,200.965 174.370,200.552 173.600 C 200.138 172.830,199.696 172.110,199.570 172.000 C 199.443 171.890,199.013 171.170,198.613 170.400 C 198.213 169.630,197.731 168.730,197.541 168.400 C 197.351 168.070,196.881 167.170,196.498 166.400 C 196.114 165.630,195.692 164.910,195.561 164.800 C 195.151 164.458,193.227 160.907,191.226 156.800 C 190.529 155.370,189.744 153.847,189.480 153.415 C 188.115 151.182,187.021 149.309,186.222 147.837 C 185.132 145.829,183.312 142.611,182.354 141.000 C 181.962 140.340,181.227 138.990,180.721 138.000 C 180.215 137.010,179.700 136.110,179.577 136.000 C 179.370 135.816,178.511 134.331,176.220 130.200 C 175.732 129.320,174.946 127.970,174.474 127.200 C 174.001 126.430,173.218 124.945,172.732 123.900 C 172.247 122.855,171.726 122.000,171.574 122.000 C 171.421 122.000,171.061 121.415,170.773 120.700 C 170.485 119.985,169.833 118.843,169.325 118.162 C 168.816 117.481,168.400 116.743,168.400 116.522 C 168.400 116.301,167.859 115.373,167.197 114.460 L 165.995 112.800 152.440 112.800 C 140.449 112.800,138.858 112.873,138.643 113.433 " stroke="none" fill="#e08694" fill-rule="evenodd"></path></g></svg>