<?xml version="1.0" encoding="UTF-8" standalone="no"?>
<svg
   xmlns:dc="http://purl.org/dc/elements/1.1/"
   xmlns:cc="http://creativecommons.org/ns#"
   xmlns:rdf="http://www.w3.org/1999/02/22-rdf-syntax-ns#"
   xmlns:svg="http://www.w3.org/2000/svg"
   xmlns="http://www.w3.org/2000/svg"
   viewBox="0 0 1423 1586.7867"
   height="1586.7867"
   width="1423"
   xml:space="preserve"
   id="svg2"
   version="1.1"><metadata
     id="metadata8"><rdf:RDF><cc:Work
         rdf:about=""><dc:format>image/svg+xml</dc:format><dc:type
           rdf:resource="http://purl.org/dc/dcmitype/StillImage" /></cc:Work></rdf:RDF></metadata><defs
     id="defs6" /><g
     transform="matrix(1.3333333,0,0,-1.3333333,0,1586.7867)"
     id="g10"><g
       transform="scale(0.1)"
       id="g12"><path
         id="path14"
         style="fill:#b32a36;fill-opacity:1;fill-rule:nonzero;stroke:none"
         d="M 10672.5,9962.49 5266.14,11900.9 V 0 l 4530.84,2636.17 875.52,7326.32" /><path
         id="path16"
         style="fill:#e82b3c;fill-opacity:1;fill-rule:nonzero;stroke:none"
         d="M 0,9927.53 805.313,2601.16 5266.18,0.101563 V 11900.9 L 0,9927.53" /><path
         id="path18"
         style="fill:#ffffff;fill-opacity:1;fill-rule:nonzero;stroke:none"
         d="m 7408.07,6570.18 c -91.01,90.52 -138.3,204.11 -142.06,340.76 v 965.54 c -2.89,136.66 -49.8,250.44 -140.71,341.34 -90.91,91.01 -204.78,137.82 -341.43,140.71 H 6301.82 V 5946.75 L 4370.83,8358.53 h -482.15 c -136.65,-2.89 -250.43,-49.7 -341.34,-140.71 -91,-90.9 -137.81,-204.68 -140.7,-341.34 v -965.54 c -3.77,-136.65 -51.05,-250.24 -142.06,-340.76 -90.91,-90.43 -204.69,-137.52 -341.34,-141.29 136.65,-3.86 250.43,-50.95 341.34,-141.38 91.01,-90.52 138.29,-204.11 142.06,-340.76 V 4981.2 c 2.89,-136.55 49.7,-250.43 140.7,-341.34 90.91,-90.9 204.69,-137.81 341.34,-140.7 h 482.15 V 6910.94 L 6301.82,4499.16 h 482.05 c 136.65,2.89 250.52,49.8 341.43,140.7 90.91,90.91 137.82,204.79 140.71,341.34 v 965.55 c 3.76,136.65 51.05,250.24 142.06,340.76 90.9,90.43 204.68,137.52 341.33,141.38 -136.65,3.77 -250.43,50.86 -341.33,141.29 v 0 z m 399.33,2329.75 c 272.35,-272.34 413.72,-613.49 424.06,-1023.45 V 4981.2 C 8221.12,4571.35 8079.75,4230.1 7807.4,3957.77 7535.07,3685.42 7193.82,3544.04 6783.87,3533.61 H 3888.68 c -409.95,10.43 -751.1,151.81 -1023.44,424.16 -272.34,272.33 -413.72,613.58 -424.15,1023.43 v 2895.28 c 10.43,409.96 151.81,751.11 424.15,1023.45 272.34,272.34 613.49,413.72 1023.44,424.14 h 2895.19 c 409.95,-10.42 751.2,-151.8 1023.53,-424.14 v 0 0" /></g></g></svg>