<?xml version="1.0" encoding="utf-8"?>
<!-- Generator: Adobe Illustrator 21.0.0, SVG Export Plug-In . SVG Version: 6.00 Build 0)  -->
<svg version="1.1" id="Layer_1" xmlns="http://www.w3.org/2000/svg" xmlns:xlink="http://www.w3.org/1999/xlink" x="0px" y="0px"
	 viewBox="0 0 328.9 352.8" style="enable-background:new 0 0 328.9 352.8;" xml:space="preserve">
<style type="text/css">
	.st0{fill:#4C4C4D;}
</style>
<title>ngATL_logo</title>
<g id="Layer_2">
	<g id="Layer_1-2">
		<path class="st0" d="M164.4,0L0,58.7l27.8,217.7l136.6,76.4l136.6-76.4l27.8-217.7L164.4,0z M295.9,272.9l-131.4,73.5L33,272.9
			L6.1,62.4L164.4,5.9l158.3,56.5L295.9,272.9z"/>
		<path class="st0" d="M164.4,14L13.1,68l25.6,200.4l14,7.8l0,0l2.3,1.3l21.1,11.8l1.4,0.8l0,0l12.8,7.2l1.9,1.1l0,0l12.9,7.2
			l1.4,0.8l0,0l12.2,6.8l1.9,1.1l0,0l20,11.2l0.3,0.2l0,0l8.8,4.9l0,0l2.6,1.4l12.1,6.8l2.8-1.5l0,0l2.6-1.4l26.1-14.6l0,0l5.1-2.9
			l0,0l11.1-6.2l0,0l5.1-2.9l0,0l11.1-6.2l0,0l5.1-2.9l0,0l6.1-3.4l4.6-2.6l0,0l6.8-3.8l3.4-1.9l0,0l16.7-9.3l0,0l5.1-2.9l0,0
			l14-7.8L315.8,68L164.4,14z M72.3,272.3l-14.5-8.1v-35.6l14.5-6V272.3z M87,280.5l-9.6-5.4v-54.7l9.6-4V280.5z M101.4,229.8h-9.2
			v-15.4l9.2-3.8V229.8z M101.4,234.9v5.4h-9.2v-5.4H101.4z M101.4,245.4v5.4h-9.2v-5.4H101.4z M101.4,255.9v32.6l-9.2-5.1v-27.5
			L101.4,255.9z M92.2,208.8v-12.3h43.6v18.8h-20.3v81.2l-9-5v-88.6L92.2,208.8z M125.5,174.7v16.7h-23.1v-16.7L125.5,174.7z
			 M110.8,169.5l3.1-7.2l3.1,7.2H110.8z M120.6,220.4h15.2v26h-9.2v5.1h9.2v5.4h-9.2v5.1h9.2v5.4h-9.2v5.1h9.2v35.3l-15.2-8.5V220.4
			z M140.9,310.7v-90.3h8.8v95.2L140.9,310.7z M164.4,323.8l-9.6-5.4V283h12.4v39.3L164.4,323.8z M154.8,201.8v-5.4h13v-5.1h-13V186
			h13v-5.1h-13v-5.4h13v-5.1h-13V165h13v-5.1h-13v-5.7h41v40L179.6,183v132.3l-7.3,4.1V215.3h-17.5V207h13v-5.1L154.8,201.8z
			 M168.9,149v-9h12.8v9H168.9z M195.9,262v4.1h-11.1V262H195.9z M184.8,256.9v-64.1l11.1,7.6v56.5L184.8,256.9z M195.9,271.2v4.1
			h-11.1v-4.1H195.9z M195.9,280.4v4.1h-11.1v-4.1H195.9z M195.9,289.6v4.1h-11.1v-4L195.9,289.6z M167.2,220.4v36.5h-12.4v-36.5
			L167.2,220.4z M167.2,262v5.4h-12.4V262H167.2z M167.2,272.5v5.4h-12.4v-5.4H167.2z M184.7,312.5v-13.7h11.1v7.5L184.7,312.5z
			 M201,303.4v-99.5l11.1,7.6v85.7L201,303.4z M217.3,294.3V215l11.1,7.6v65.5L217.3,294.3z M217.3,208.8v-23.2h32v4.4h-23.1v5.1
			h23.1v2.9h-23.1v5.1h23.1v2.9h-23.1v5.1h23.1v12.7H239v58.3l-5.6,3.1v-65.3L217.3,208.8z M249.3,256.4v2.9h-5.1v-2.9H249.3z
			 M244.1,251.3V229h5.1v22.3L244.1,251.3z M249.3,264.5v2.9h-5.1v-2.9H249.3z M244.1,272.5h5.1v3.8l-5.1,2.9V272.5z M254.4,273.5
			V229h16.7v11.3h-11.5v5.1h11.5v18.7L254.4,273.5z M278.1,260.3l-1.9,1v-37.4h-9V214h-5.1v9.8h-7.7v-43.4h-24.3v-21.3h-5.1v21.3
			h-12.8v24.9l-11.1-7.6V149h-14.1v-14.1h-23.1V149h-14.1v66.3h-8.8v-23.9h-10.3v-21.8h-8l-6.2-14.1V140h-5.1v15.4l-6.1,14.1h-8
			v21.8H87v19.6l-9.6,4v-8.2h-5.1V217l-19.7,8.1v36.2l-1.9-1L27.3,76.8l137.1-48.9l137.1,48.9L278.1,260.3z"/>
	</g>
</g>
</svg>
