<?xml version="1.0" standalone="no"?>
<!DOCTYPE svg PUBLIC "-//W3C//DTD SVG 20010904//EN"
 "http://www.w3.org/TR/2001/REC-SVG-20010904/DTD/svg10.dtd">
<svg version="1.0" xmlns="http://www.w3.org/2000/svg"
 width="1988.000000pt" height="906.000000pt" viewBox="0 0 1988.000000 906.000000"
 preserveAspectRatio="xMidYMid meet">
<metadata>
Created by potrace 1.16, written by Peter Selinger 2001-2019
</metadata>
<g transform="translate(0.000000,906.000000) scale(0.100000,-0.100000)"
fill="#e23237" stroke="none">
<path d="M7820 8330 l-2115 -730 -2615 636 c-2580 627 -2616 636 -2700 632
-73 -3 -94 -9 -148 -38 -117 -62 -167 -142 -201 -322 -178 -930 332 -1846
1212 -2179 83 -31 87 -34 83 -58 -13 -67 -17 -258 -7 -368 68 -763 549 -1403
1251 -1663 l75 -28 -5 -68 c-3 -38 -4 -134 -4 -214 7 -804 543 -1541 1307
-1795 56 -18 917 -232 1912 -473 l1810 -440 1133 -611 1132 -611 1133 611
1132 611 1810 440 c996 241 1856 455 1912 473 328 109 628 314 849 578 351
418 507 934 451 1480 -2 15 15 25 76 47 553 203 997 678 1171 1251 56 187 79
345 80 554 0 99 -3 196 -7 216 l-7 35 87 34 c547 206 969 648 1152 1206 101
309 122 647 60 972 -34 180 -84 260 -201 322 -54 29 -75 35 -148 38 -84 4
-120 -5 -2700 -632 l-2615 -636 -2119 730 c-1166 402 -2119 730 -2120 729 -1
0 -953 -328 -2116 -729z m4131 -240 c1091 -375 1987 -685 1990 -689 9 -9 -615
-5289 -626 -5300 -20 -19 -3360 -1815 -3375 -1815 -17 0 -3358 1799 -3376
1817 -8 9 -614 5110 -628 5281 -1 16 272 113 1994 707 1097 379 2004 687 2016
685 11 -1 913 -310 2005 -686z m-8886 -86 c1441 -350 2625 -641 2631 -648 7
-6 15 -40 18 -74 7 -59 6 -63 -11 -58 -10 3 -1193 291 -2628 640 -1436 349
-2622 637 -2636 641 -26 6 -27 6 -43 -82 -24 -123 -31 -336 -17 -462 70 -598
483 -1115 1044 -1305 43 -15 1069 -268 2280 -562 1211 -294 2205 -538 2209
-542 3 -4 9 -37 13 -74 6 -51 4 -68 -5 -68 -7 0 -950 228 -2096 506 -1147 279
-2087 504 -2090 502 -2 -3 -12 -41 -21 -84 -13 -59 -17 -131 -17 -284 0 -221
13 -311 69 -486 39 -117 146 -326 222 -433 87 -121 233 -267 354 -354 105 -75
294 -173 409 -211 41 -13 817 -205 1724 -425 907 -220 1651 -402 1653 -404 5
-6 21 -141 17 -146 -2 -2 -697 165 -1546 372 -849 206 -1544 374 -1545 373 -2
-1 -11 -38 -20 -82 -14 -62 -18 -125 -18 -289 0 -183 3 -223 23 -313 72 -322
205 -566 431 -793 182 -182 391 -312 616 -383 44 -14 590 -150 1213 -301
l1133 -275 222 -120 c122 -66 217 -120 211 -120 -26 0 -2772 672 -2841 696
-579 196 -1015 709 -1124 1320 -28 160 -30 415 -4 559 29 156 34 143 -70 170
-559 147 -1009 574 -1188 1130 -20 61 -43 149 -52 197 -35 189 -35 470 0 636
8 40 15 79 15 86 0 8 -35 22 -87 36 -629 163 -1104 663 -1244 1308 -15 72 -22
148 -26 292 -5 171 -2 211 17 325 12 71 28 142 36 158 20 37 70 67 114 67 19
0 1214 -286 2655 -636z m16472 616 c46 -27 58 -59 83 -205 19 -114 22 -154 17
-325 -4 -144 -11 -220 -26 -292 -140 -645 -615 -1145 -1243 -1308 -53 -14 -88
-28 -88 -36 0 -7 7 -44 15 -82 25 -120 36 -310 25 -443 -25 -309 -115 -569
-287 -829 -57 -86 -111 -149 -212 -251 -151 -151 -281 -244 -456 -329 -106
-51 -286 -115 -355 -126 -23 -4 -44 -12 -46 -18 -3 -7 2 -43 10 -81 57 -273
35 -603 -60 -876 -174 -503 -566 -897 -1057 -1063 -69 -24 -2815 -696 -2841
-696 -6 0 89 54 211 120 l222 120 1133 275 c623 151 1169 287 1213 301 225 71
434 201 616 383 186 187 298 367 380 611 63 188 82 329 76 545 -4 108 -12 208
-22 249 -8 39 -17 71 -18 72 -1 1 -696 -167 -1545 -373 -849 -207 -1544 -374
-1546 -372 -4 5 12 140 17 146 2 2 746 184 1653 404 907 220 1683 412 1724
425 41 14 129 52 195 85 428 211 732 608 837 1093 19 86 22 131 22 306 0 153
-4 225 -17 284 -9 43 -19 81 -21 84 -3 2 -943 -223 -2090 -502 -1146 -278
-2089 -506 -2096 -506 -9 0 -11 17 -5 68 4 37 10 70 13 74 4 4 981 244 2172
533 1191 289 2198 535 2238 546 250 69 491 214 682 408 210 214 356 489 422
795 30 139 32 433 4 579 -18 99 -18 99 -45 92 -14 -4 -1200 -292 -2636 -641
-1435 -349 -2618 -637 -2628 -640 -17 -5 -18 -1 -11 58 3 34 11 68 16 73 13
15 5225 1282 5278 1284 29 1 57 -6 77 -19z m-15795 -1335 c1107 -252 2016
-460 2020 -464 6 -6 28 -163 23 -169 -3 -4 -4037 1074 -4075 1089 -20 7 -21 8
-3 5 12 -2 928 -210 2035 -461z m14453 450 c-20 -8 -4086 -1095 -4095 -1095
-9 0 -4 70 9 140 l7 34 2024 462 c1757 401 2107 479 2055 459z m-14266 -931
c1032 -235 1879 -429 1883 -433 8 -7 31 -152 25 -157 -2 -2 -835 219 -1853
492 -2136 572 -1952 522 -1940 523 6 1 854 -191 1885 -425z m13871 401 c-58
-18 -3747 -1005 -3755 -1005 -7 0 5 117 15 145 6 18 228 70 1876 446 1028 235
1878 427 1889 427 11 0 0 -6 -25 -13z m-13502 -1829 c921 -206 1676 -377 1679
-379 8 -9 26 -158 19 -164 -3 -4 -756 198 -1674 447 -1773 482 -1722 468
-1707 469 6 0 763 -167 1683 -373z m12987 362 c-73 -23 -3400 -925 -3403 -922
-6 5 10 151 18 163 6 11 3361 770 3400 769 8 0 2 -4 -15 -10z m-300 -504 c-19
-8 -3138 -854 -3148 -854 -11 0 0 140 12 153 8 8 3101 704 3131 705 8 0 11 -1
5 -4z m-12456 -350 c822 -183 1498 -337 1502 -341 9 -10 23 -153 15 -153 -9 0
-2981 808 -3036 825 -37 12 -39 13 -10 9 19 -4 707 -156 1529 -340z m611
-1483 c558 -116 1024 -213 1036 -216 18 -4 22 -16 31 -92 5 -49 9 -89 8 -91
-3 -4 -2117 607 -2124 614 -3 4 3 4 14 1 11 -4 477 -101 1035 -216z m10669
205 c-8 -7 -2140 -618 -2144 -615 -2 2 2 43 7 92 10 76 14 88 32 93 63 15
2074 432 2090 433 11 1 17 -1 15 -3z m-10470 -692 c493 -102 899 -189 904
-193 7 -7 27 -143 22 -149 -2 -2 -416 116 -922 262 -505 146 -914 265 -909
265 5 1 413 -83 905 -185z m10096 167 c-46 -19 -1815 -524 -1819 -520 -5 4 11
150 16 154 6 5 1784 373 1803 373 l20 1 -20 -8z"/>
<path d="M8075 7846 l-1860 -643 2 -34 c8 -106 575 -4895 581 -4900 17 -15
3136 -1692 3146 -1692 12 1 3125 1679 3139 1693 8 7 591 4930 585 4935 -4 2
-3710 1277 -3723 1280 -5 2 -847 -286 -1870 -639z m2684 -561 c134 -32 255
-126 307 -238 27 -61 64 -196 64 -239 l0 -28 -149 0 -149 0 -11 50 c-24 111
-70 163 -163 182 -140 29 -237 -67 -274 -270 -16 -91 -18 -341 -4 -430 22
-136 66 -217 139 -260 40 -23 57 -27 126 -27 67 0 88 5 125 25 l45 25 3 123 3
122 -111 0 -110 0 0 125 0 125 265 0 265 0 0 -314 0 -313 -52 -50 c-96 -90
-235 -141 -413 -150 -181 -9 -296 29 -406 134 -155 148 -218 363 -206 707 6
188 32 306 92 427 68 135 203 248 331 278 62 14 213 12 283 -4z m-1465 -469
l221 -459 3 461 2 462 155 0 155 0 0 -760 0 -761 -156 3 -157 3 -221 459 -221
459 -3 -461 -2 -462 -160 0 -160 0 0 760 0 760 162 -2 162 -3 220 -459z m-763
-2224 l237 -757 -166 -3 c-95 -1 -168 1 -171 7 -3 5 -22 70 -41 145 l-35 136
-210 0 -211 0 -35 -142 -35 -143 -167 -3 c-92 -1 -167 1 -167 5 -1 5 104 347
232 760 l233 753 150 0 150 0 236 -758z m1044 729 c189 -75 275 -210 275 -431
0 -104 -18 -198 -50 -261 -21 -40 -91 -116 -142 -154 l-27 -20 129 -294 c71
-162 132 -302 136 -313 5 -18 -2 -18 -167 -16 l-172 3 -112 265 -111 265 -82
3 -82 3 0 -271 0 -270 -160 0 -160 0 0 761 0 760 333 -3 c321 -3 334 -4 392
-27z m1376 -729 l236 -757 -165 -3 c-95 -1 -168 1 -171 7 -3 5 -21 70 -40 145
l-34 136 -211 0 -212 0 -35 -142 -35 -143 -168 -3 -168 -2 6 24 c10 40 458
1480 463 1489 2 4 70 7 151 7 l147 0 236 -758z m964 743 c151 -32 260 -115
306 -233 31 -79 33 -243 4 -320 -21 -59 -73 -125 -117 -152 l-29 -17 45 -27
c85 -50 137 -139 150 -261 14 -126 -30 -284 -102 -366 -17 -20 -58 -50 -90
-67 -104 -56 -153 -62 -499 -62 l-313 0 0 760 0 760 288 0 c214 0 305 -4 357
-15z m-1854 -2461 c135 -39 236 -152 257 -287 31 -200 -98 -380 -300 -417
-153 -29 -317 60 -386 208 -22 48 -27 71 -27 147 0 77 4 98 26 146 79 169 257
253 430 203z m-720 -217 c66 -35 102 -93 107 -170 4 -77 -24 -138 -86 -182
-57 -40 -149 -47 -209 -16 -152 77 -155 291 -5 371 53 28 137 26 193 -3z
m1460 -12 c162 -115 83 -375 -114 -375 -224 0 -290 286 -92 394 21 12 49 15
97 13 56 -2 74 -8 109 -32z m-1941 -20 c96 -50 114 -178 36 -254 -105 -102
-274 -22 -263 125 4 60 32 104 79 127 42 21 110 22 148 2z m2361 -8 c19 -12
45 -43 57 -69 31 -62 24 -115 -24 -168 -98 -108 -274 -40 -274 106 0 116 145
195 241 131z m-2720 -46 c40 -40 41 -102 2 -143 -58 -61 -174 -19 -173 64 1
95 106 144 171 79z m3033 19 c35 -13 60 -56 59 -98 -1 -49 -48 -92 -99 -92
-46 0 -70 14 -90 52 -22 42 -11 90 27 122 32 28 62 32 103 16z m-2999 -254
c17 -12 16 -15 -23 -51 -27 -23 -48 -55 -59 -86 l-18 -49 -62 0 c-76 0 -93 14
-93 76 0 51 12 81 44 106 27 22 182 26 211 4z m3075 -14 c34 -35 47 -99 28
-139 -12 -26 -18 -28 -79 -31 l-65 -3 -23 56 c-14 33 -38 67 -59 86 -36 29
-36 31 -18 45 14 9 46 14 104 14 78 0 85 -2 112 -28z m-2674 -88 c48 -23 49
-29 9 -54 -54 -33 -107 -105 -132 -179 l-22 -66 -82 -3 c-138 -5 -164 18 -157
141 4 84 19 115 78 155 30 20 45 22 152 22 90 0 129 -4 154 -16z m2372 -12
c50 -36 66 -75 66 -164 1 -68 -2 -80 -22 -100 -20 -20 -34 -23 -120 -26 l-98
-4 -13 52 c-17 66 -74 151 -129 191 -23 17 -39 35 -36 41 18 28 71 38 194 36
113 -3 128 -5 158 -26z m-1870 -78 c58 -29 63 -38 30 -55 -42 -22 -128 -112
-157 -163 -16 -28 -37 -79 -47 -113 l-17 -63 -114 0 c-128 0 -163 11 -188 60
-18 34 -20 156 -4 214 13 47 85 121 131 135 18 5 96 10 174 10 132 1 143 -1
192 -25z m1427 7 c47 -22 99 -74 114 -114 6 -16 11 -71 11 -122 0 -90 -1 -96
-29 -127 l-29 -33 -128 0 -127 0 -17 62 c-29 106 -93 195 -195 270 l-30 23 25
20 c40 32 76 38 225 39 116 0 147 -3 180 -18z m-1058 -107 c106 -35 211 -35
318 1 87 29 129 28 223 -7 71 -26 163 -113 199 -186 24 -50 28 -71 31 -177 3
-113 2 -122 -20 -154 -13 -19 -39 -44 -58 -55 -34 -20 -49 -21 -540 -21 l-505
0 -37 23 c-71 44 -95 149 -68 293 28 147 148 270 291 298 70 14 84 13 166 -15z"/>
<path d="M8081 4668 c-35 -134 -66 -249 -68 -255 -4 -10 26 -13 132 -13 125 0
136 1 131 18 -2 9 -32 121 -66 247 -33 127 -62 234 -63 238 -1 5 -31 -101 -66
-235z"/>
<path d="M9170 4860 l0 -210 108 0 c124 0 165 9 204 47 31 30 58 105 58 163 0
57 -27 133 -57 162 -42 38 -84 48 -204 48 l-109 0 0 -210z"/>
<path d="M10500 4667 c-35 -133 -65 -248 -68 -254 -3 -10 27 -13 133 -13 125
0 136 1 131 18 -2 9 -32 123 -66 252 -34 129 -63 236 -64 237 -2 2 -31 -106
-66 -240z"/>
<path d="M11590 4895 l0 -177 118 4 c179 7 222 40 222 173 0 133 -43 166 -222
173 l-118 4 0 -177z"/>
<path d="M11590 4294 l0 -186 133 4 c150 4 180 14 216 78 28 50 28 148 1 208
-30 66 -74 82 -227 82 l-123 0 0 -186z"/>
</g>
</svg>
