<svg id="Laag_1" data-name="Laag 1" xmlns="http://www.w3.org/2000/svg" viewBox="18 18 160 160">
  <polygon fill="#2e2d2c" points="101.17 176.8 162.76 142.9 101.17 81.3 101.17 176.8"/>
  <polygon fill="#de4328" points="101.17 19.5 101.17 81.3 174.66 45.8 101.17 19.5"/>
  <polygon fill="#2e2d2c" points="101.15 81.3 35.88 112.97 27.65 45.8 101.15 81.3"/>
  <polygon fill="#a16828" points="101.15 81.3 39.55 142.9 35.88 112.97 101.15 81.3"/>
  <polygon fill="#ef413e" points="101.17 81.3 166.44 112.97 174.66 45.8 101.17 81.3"/>
  <polygon fill="#a0312a" points="101.17 81.3 162.76 142.9 166.44 112.97 101.17 81.3"/>
  <polygon fill="#f2b31c" points="101.17 81.3 39.56 142.9 101.17 176.8 101.17 81.3"/>
  <polygon fill="#f2b31c" points="27.66 45.8 101.17 81.3 101.17 19.5 27.66 45.8"/>
  <path fill="#ffffff" d="M101.16,33.7v0l-47.2,105h16.3l10.4-24h41l10.4,24h16.3Zm-14.32,67,14.3-33v0l14.3,33Z"/>
  <polygon fill="#2e2d2c" points="115.46 100.7 86.84 100.7 101.14 67.66 101.15 67.68 101.16 67.66 115.46 100.7"/>
</svg>
