<svg xmlns="http://www.w3.org/2000/svg" width="300" height="300">
  <path fill="#e52234" d="M136.4 3.9a68 68 0 0 0-56.2 28.6 3 5 54.5 0 1-1.6.9 3 5 54.5 0 1-.3.1A55.4 55.4 0 0 0 24.7 90 57 57 0 0 0 50 137.5a3 3 0 0 1 .6.7 3 3 0 0 1 .3 1l-10.1 121a3 3 0 0 1-.9 1.2 3 3 0 0 1-.3.2H29.4c-3.3 0-4 .8-4 4.3v19.4c0 3.5.5 4.2 4 4.2h215c3.6 0 6.4-2.8 6.4-6.3v-15.3c0-3.5-2.8-6.3-6.3-6.3h-9.2l-1.2-15.1h27.4c17 0 30.8-11.9 30.8-26.6l.2-74.8c0-14.8-13.7-26.7-30.8-26.7h-4.3A56.3 56.3 0 0 0 194.3 35a67.8 67.8 0 0 0-57.9-31.2zM225.7 147h40.7c.7 0 1.2.8 1.2 1.8v68.8c0 1-.6 1.8-1.3 1.8h-34.5l-4.9-57.8-1.2-14.6z"/>
  <path fill="#b6252f" d="M136.8 3.9v285.6h110c3.4 0 4-1.1 4-4.7V266c0-3.5-.6-4.3-4-4.3h-10.4a3 3 0 0 1-.4-.3 3 3 0 0 1-.8-1l-1-12.3a2.1 2.1 0 0 1 .5-1 2.1 2.1 0 0 1 .9-.5h26c17 0 30.7-11.9 30.7-26.6l.2-74.8c0-14.8-13.7-26.7-30.8-26.7H260a3 3 0 0 1-.9-.7 3 3 0 0 1-.6-1.2 56.3 56.3 0 0 0-63-81.7 5 3 14.9 0 1-1.8-.7 67.8 67.8 0 0 0-56.9-30.2zM227.3 147h39c.8 0 1.3.8 1.3 1.8v68.8c0 1-.6 1.8-1.3 1.8h-33.2a3 3 0 0 1-.5-.3 3 3 0 0 1-1-1.1l-4.7-56.4-1-12.9a3 3 0 0 1 .5-1 3 3 0 0 1 .9-.7z"/>
  <path fill="#fff" d="M136.8 81.4l-11.5 25.8-55 122.7H94l14.9-33.3 57.4.7 14.9 32.6h23.2l-55.6-122.4-11.9-26zm.4 51.8l20.1 44.4-39.8-.4 19.7-44z"/>
</svg>
