<?xml version="1.0" encoding="utf-8"?>
<!-- Generator: Adobe Illustrator 25.0.0, SVG Export Plug-In . SVG Version: 6.00 Build 0)  -->
<svg version="1.1" id="Layer_1" xmlns="http://www.w3.org/2000/svg" xmlns:xlink="http://www.w3.org/1999/xlink" x="0px" y="0px"
	 viewBox="0 0 608.9 666.4" style="enable-background:new 0 0 608.9 666.4;" xml:space="preserve">
<style type="text/css">
	.st0{fill:#1101C9;}
	.st1{fill:url(#Path_14_1_);}
	.st2{fill:#FDF035;}
	.st3{fill:url(#Path_16_1_);}
	.st4{fill:#05E053;}
	.st5{fill:url(#Path_18_1_);}
	.st6{fill:#FF0043;}
	.st7{fill:#FFFFFF;}
	.st8{enable-background:new    ;}
</style>
<g id="Group_129" transform="translate(2.495 0.171)">
	<path id="Path_13" class="st0" d="M301.7-0.2l304.7,118.3l-35.6,385.3l-269,162.7L35.5,503.5l-38-384.2L301.7-0.2z"/>
	<g id="Group_11" transform="translate(27.987 30.22)">
		
			<linearGradient id="Path_14_1_" gradientUnits="userSpaceOnUse" x1="85.3569" y1="635.8141" x2="85.7539" y2="636.1471" gradientTransform="matrix(274.211 0 0 -155.565 -23333.9766 99034.0703)">
			<stop  offset="0" style="stop-color:#D20043"/>
			<stop  offset="1" style="stop-color:#FF0043"/>
		</linearGradient>
		<path id="Path_14" class="st1" d="M0,108.4L274.2,0v76.8l-197,78.7L0,108.4z"/>
		<path id="Path_15" class="st2" d="M274.2,0l274.7,107.3l-74,48.2L274.2,76.8V0z"/>
		
			<linearGradient id="Path_16_1_" gradientUnits="userSpaceOnUse" x1="85.0009" y1="636.4749" x2="84.8199" y2="635.9429" gradientTransform="matrix(102.271 0 0 -350.281 -8183.4155 223099.375)">
			<stop  offset="0" style="stop-color:#D9D627"/>
			<stop  offset="5.000000e-02" style="stop-color:#DBD828"/>
			<stop  offset="0.64" style="stop-color:#F4E931"/>
			<stop  offset="1" style="stop-color:#FDF035"/>
		</linearGradient>
		<path id="Path_16" class="st3" d="M548.9,107.3l-32.2,350.3l-70.1-41.7l28.3-260.4L548.9,107.3z"/>
		<path id="Path_17" class="st4" d="M516.7,457.6l-242.5,148v-83.7l172.4-106L516.7,457.6z"/>
		
			<linearGradient id="Path_18_1_" gradientUnits="userSpaceOnUse" x1="85.9288" y1="635.9253" x2="85.4408" y2="636.2783" gradientTransform="matrix(239.972 0 0 -189.655 -20371.6855 121152.0078)">
			<stop  offset="0" style="stop-color:#05B253"/>
			<stop  offset="0.208" style="stop-color:#05BE53"/>
			<stop  offset="0.699" style="stop-color:#05D753"/>
			<stop  offset="1" style="stop-color:#05E053"/>
		</linearGradient>
		<path id="Path_18" class="st5" d="M274.2,605.6l-240-148l67.3-41.7l172.7,106V605.6z"/>
		<path id="Path_19" class="st6" d="M101.5,415.9l-67.3,41.7L0,108.4l77.3,47.2L101.5,415.9z"/>
	</g>
	<g id="Group_13" transform="translate(155.565 209.454)">
		<g id="Group_12">
			<path id="Path_20" class="st7" d="M0,0h28l70.9,87.1V0h29.5v135.6h-26.5L31.7,48.7l0.7,86.9H0V0z"/>
			<path id="Path_21" class="st7" d="M290.4,61.6c0,0-4.6,3.1-11.3,7.9c-6.7,4.6-15.6,10.9-24.4,16.8L290.4,61.6h-67.6v24.7h31.9
				c-2,5.6-5.5,10.5-10.1,14.1c-6.2,4.8-13.9,7.3-21.7,7c-13.7-0.6-22.6-8.6-25.3-11.2c-11.5-11.2-12.4-25.5-12.5-28.7
				c-0.4-9.5,2.8-18.9,8.9-26.2c0.6-0.7,11.8-13.2,29.5-13.2c5.3,0,10.6,1.2,15.3,3.6c7.2,3.6,13,9.5,16.5,16.8
				c8.8-4.9,17.6-9.7,26.5-14.6c-6.3-10.8-15.5-19.7-26.5-25.8C245.4,2.9,234.4,0,223.2,0c-4.2,0-33.3,0.7-53,25
				c-14.1,17.4-14.9,36.9-14.9,42.9c0,4.3,0.9,31.3,23.1,50.9c18.2,16.1,39.2,16.8,44.8,17c4.3,0,30.7-0.6,50.2-22.2
				C290.1,95,290.9,73.2,290.9,68C290.6,65.8,290.6,63.7,290.4,61.6z"/>
		</g>
	</g>
	<g class="st8">
		<path class="st7" d="M165,372.4h19.9c2.2,0,4.2,0.3,6.1,1c1.9,0.7,3.5,1.6,4.9,2.8c1.4,1.2,2.5,2.6,3.3,4.2
			c0.8,1.6,1.2,3.3,1.2,5.2c0,2.7-0.7,5-2,6.8c-1.3,1.8-2.9,3.2-4.9,4.2v0.6c2.6,0.9,4.7,2.4,6.3,4.4c1.6,2,2.4,4.5,2.4,7.5
			c0,2.2-0.4,4.1-1.3,5.9c-0.9,1.7-2.1,3.2-3.6,4.4c-1.5,1.2-3.3,2.2-5.3,2.8c-2,0.7-4.2,1-6.5,1H165V372.4z M184.2,393.2
			c2.2,0,3.9-0.6,5.1-1.8s1.8-2.6,1.8-4.3c0-1.7-0.6-3.1-1.8-4.3c-1.2-1.2-2.8-1.8-4.9-1.8h-9.9v12.1H184.2z M185.2,414.5
			c2.4,0,4.3-0.6,5.5-1.8c1.3-1.2,1.9-2.8,1.9-4.7c0-1.9-0.7-3.5-2-4.7c-1.3-1.3-3.2-1.9-5.8-1.9h-10.4v13.1H185.2z"/>
		<path class="st7" d="M233.7,424.4c-3.8,0-7.3-0.7-10.5-2.1c-3.2-1.4-6-3.3-8.4-5.6c-2.4-2.4-4.2-5.2-5.6-8.4
			c-1.3-3.2-2-6.7-2-10.4s0.7-7.2,2-10.4s3.2-6.1,5.6-8.4c2.4-2.4,5.2-4.3,8.4-5.6c3.2-1.4,6.8-2.1,10.5-2.1c3.8,0,7.3,0.7,10.5,2.1
			c3.2,1.4,6,3.3,8.4,5.6c2.4,2.4,4.2,5.2,5.6,8.4s2,6.7,2,10.4s-0.7,7.2-2,10.4c-1.3,3.2-3.2,6.1-5.6,8.4c-2.4,2.4-5.2,4.3-8.4,5.6
			C241,423.7,237.5,424.4,233.7,424.4z M233.7,415.3c2.4,0,4.6-0.4,6.6-1.3c2.1-0.9,3.9-2,5.4-3.5c1.5-1.5,2.7-3.3,3.6-5.5
			c0.9-2.2,1.3-4.5,1.3-7.1c0-2.6-0.4-5-1.3-7.1c-0.9-2.2-2.1-4-3.6-5.5c-1.5-1.5-3.3-2.7-5.4-3.6c-2.1-0.9-4.3-1.3-6.6-1.3
			c-2.4,0-4.6,0.4-6.6,1.3c-2.1,0.9-3.9,2-5.4,3.6c-1.5,1.5-2.7,3.3-3.6,5.5c-0.9,2.2-1.3,4.5-1.3,7.1c0,2.6,0.4,5,1.3,7.1
			c0.9,2.2,2.1,4,3.6,5.5c1.5,1.5,3.3,2.7,5.4,3.5C229.2,414.9,231.4,415.3,233.7,415.3z"/>
		<path class="st7" d="M268,372.4h9.6v41.7h21.5v9.1H268V372.4z"/>
		<path class="st7" d="M305.9,372.4h9.6v50.8h-9.6V372.4z"/>
		<path class="st7" d="M320.4,372.4h10.4l10.5,30.6l1.8,6.5h0.6l2-6.5l10.9-30.6H367l-18.5,50.8h-10.1L320.4,372.4z"/>
		<path class="st7" d="M373,372.4h9.6v50.8H373V372.4z"/>
		<path class="st7" d="M407.6,372.4h10.9l19.1,50.8h-10.6l-4.2-12.1h-19.6l-4.2,12.1h-10.6L407.6,372.4z M419.8,402.3l-4.5-12.7
			l-1.8-6.2h-0.6l-1.8,6.2l-4.5,12.7H419.8z"/>
	</g>
</g>
</svg>
