<?xml version="1.0" encoding="utf-8"?>
<!-- Generator: Adobe Illustrator 19.0.0, SVG Export Plug-In . SVG Version: 6.00 Build 0)  -->
<svg version="1.1" id="Layer_1" xmlns="http://www.w3.org/2000/svg" xmlns:xlink="http://www.w3.org/1999/xlink" x="0px" y="0px"
	 viewBox="0 0 510.2 510.2" style="enable-background:new 0 0 510.2 510.2;" xml:space="preserve">
<style type="text/css">
	.st0{fill:#DD2034;}
	.st1{fill:#C32133;}
	.st2{fill:#DEDEDD;}
	.st3{fill:#FFFFFF;}
</style>
<g id="XMLID_1_">
	<g id="XMLID_3_">
		<polygon id="XMLID_7_" class="st0" points="255,38.7 53.4,110.6 83.8,377.1 255.5,472 255.5,472 255.5,441 255,69.4 		"/>
		<polygon id="XMLID_6_" class="st1" points="254.8,38.7 255.4,441.3 255.4,441.3 255.4,472 426.7,377.1 456.7,110.6 		"/>
	</g>
	<g id="XMLID_2_">
		<path id="XMLID_4_" class="st2" d="M366.6,252.8c47-36.8,38.1-99,33.7-111.9c-4.4-12.9-17.2-29.9-17.2-8.5
			c0,56.3-43.5,76.3-46.4,73.7c0,0-31.9-29.1-56-35c-6-1.4-17.3-2.7-25.5-3.1v169.1c0.6,0,1.2,0,1.7,0h16.2c4,0,10.5,0,14.4,0h77.4
			c4,0,8.6-2.4,8.6-6.4v-8.5c0-4,0-30.2,0-33.4c0-3.1-1.2-8.9-1.8-12.9l-3.7-15.6c-1.1-3.8-1.9-7.1-1.6-7.3
			C366.5,253,366.3,253,366.6,252.8z"/>
		<path id="XMLID_5_" class="st3" d="M143.8,252.8c-47-36.8-38.1-99-33.7-111.9c4.4-12.9,17.2-29.9,17.2-8.5
			c0,56.3,43.5,76.3,46.4,73.7c0,0,31.9-29.1,56-35c6-1.4,17.3-2.7,25.5-3.1v169.1c-0.6,0-1.2,0-1.7,0h-16.2c-4,0-10.5,0-14.4,0
			h-77.4c-4,0-8.6-2.4-8.6-6.4v-8.5c0-4,0-30.2,0-33.4c0-3.1,1.2-8.9,1.8-12.9l3.7-15.6c1.1-3.8,1.9-7.1,1.6-7.3
			C143.9,253,144.1,253,143.8,252.8z"/>
	</g>
</g>
</svg>
