<?xml version="1.0" encoding="utf-8"?>
<!-- Generator: Adobe Illustrator 22.1.0, SVG Export Plug-In . SVG Version: 6.00 Build 0)  -->
<svg version="1.1" xmlns="http://www.w3.org/2000/svg" xmlns:xlink="http://www.w3.org/1999/xlink" x="0px" y="0px"
	 viewBox="0 0 429 461" style="enable-background:new 0 0 429 461;" xml:space="preserve">
<style type="text/css">
	.st0{fill:url(#Shape_1_);}
	.st1{fill:url(#SVGID_1_);}
	.st2{fill:url(#SVGID_2_);}
	.st3{fill:url(#SVGID_3_);}
	.st4{fill:url(#SVGID_4_);}
	.st5{fill:url(#SVGID_5_);}
	.st6{fill:url(#SVGID_6_);}
	.st7{fill:url(#SVGID_7_);}
	.st8{fill:url(#SVGID_8_);}
	.st9{fill:url(#SVGID_9_);}
	.st10{fill:url(#SVGID_10_);}
	.st11{fill:url(#SVGID_11_);}
	.st12{fill:url(#SVGID_12_);}
	.st13{fill:url(#SVGID_13_);}
	.st14{fill:url(#SVGID_14_);}
	.st15{fill:url(#SVGID_15_);}
	.st16{fill:url(#SVGID_16_);}
	.st17{fill:url(#SVGID_17_);}
	.st18{fill:url(#SVGID_18_);}
	.st19{fill:url(#SVGID_19_);}
	.st20{fill:url(#SVGID_20_);}
	.st21{fill:url(#SVGID_21_);}
	.st22{fill:url(#SVGID_22_);}
	.st23{fill:url(#SVGID_23_);}
	.st24{fill:url(#SVGID_24_);}
	.st25{fill:url(#SVGID_25_);}
	.st26{fill:url(#SVGID_26_);}
	.st27{fill:url(#SVGID_27_);}
	.st28{fill:url(#SVGID_28_);}
	.st29{fill:url(#SVGID_29_);}
	.st30{fill:url(#SVGID_30_);}
	.st31{fill:url(#SVGID_31_);}
	.st32{fill:url(#SVGID_32_);}
	.st33{fill:url(#SVGID_33_);}
	.st34{fill:url(#SVGID_34_);}
	.st35{fill:url(#SVGID_35_);}
	.st36{fill:url(#SVGID_36_);}
	.st37{fill:url(#SVGID_37_);}
	.st38{fill:url(#SVGID_38_);}
	.st39{fill:url(#SVGID_39_);}
	.st40{fill:url(#SVGID_40_);}
	.st41{fill:url(#SVGID_41_);}
	.st42{fill:url(#SVGID_42_);}
	.st43{fill:url(#SVGID_43_);}
	.st44{fill:url(#SVGID_44_);}
	.st45{fill:url(#SVGID_45_);}
	.st46{fill:url(#SVGID_46_);}
	.st47{fill:url(#SVGID_47_);}
	.st48{fill:url(#SVGID_48_);}
	.st49{fill:url(#SVGID_49_);}
	.st50{fill:url(#SVGID_50_);}
	.st51{fill:url(#SVGID_51_);}
	.st52{fill:url(#SVGID_52_);}
	.st53{fill:url(#SVGID_53_);}
	.st54{fill:url(#SVGID_54_);}
	.st55{fill:url(#SVGID_55_);}
	.st56{fill:url(#SVGID_56_);}
	.st57{fill:url(#SVGID_57_);}
	.st58{fill:url(#SVGID_58_);}
	.st59{fill:url(#SVGID_59_);}
	.st60{fill:url(#SVGID_60_);}
	.st61{fill:url(#SVGID_61_);}
	.st62{fill:url(#SVGID_62_);}
	.st63{fill:url(#SVGID_63_);}
	.st64{fill:url(#SVGID_64_);}
	.st65{fill:url(#SVGID_65_);}
	.st66{fill:url(#SVGID_66_);}
	.st67{fill:#FFFFFF;}
	.st68{fill:url(#SVGID_67_);}
	.st69{fill:url(#SVGID_68_);}
	.st70{display:none;}
	.st71{opacity:0.14;fill:none;stroke:#000000;stroke-miterlimit:10;}
	.st72{display:inline;fill:none;stroke:#000000;stroke-miterlimit:10;}
</style>
<g id="Layer_4">
	<linearGradient id="Shape_1_" gradientUnits="userSpaceOnUse" x1="111.693" y1="12.014" x2="333.657" y2="396.4669">
		<stop  offset="0" style="stop-color:#F9DA66"/>
		<stop  offset="1" style="stop-color:#DE8259"/>
	</linearGradient>
	<polygon id="Shape_54_" class="st0" points="214.5,0 0,76.5 32.7,360.3 214.5,461 396.3,360.3 429,76.5 	"/>
	<linearGradient id="SVGID_1_" gradientUnits="userSpaceOnUse" x1="0" y1="71.9259" x2="100.9" y2="71.9259">
		<stop  offset="0" style="stop-color:#F9DA66"/>
		<stop  offset="1" style="stop-color:#F8DC65"/>
	</linearGradient>
	<polygon class="st1" points="1.8,92.3 100.9,73.8 69.8,51.6 0,76.5 	"/>
	<linearGradient id="SVGID_2_" gradientUnits="userSpaceOnUse" x1="69.7767" y1="56.9862" x2="102" y2="56.9862">
		<stop  offset="0" style="stop-color:#DCAB41"/>
		<stop  offset="1" style="stop-color:#F7AF58"/>
	</linearGradient>
	<polygon class="st2" points="100.9,73.8 102,40.1 69.8,51.6 	"/>
	<linearGradient id="SVGID_3_" gradientUnits="userSpaceOnUse" x1="100.9" y1="51.6016" x2="132.1959" y2="51.6016">
		<stop  offset="0" style="stop-color:#D57238"/>
		<stop  offset="1" style="stop-color:#DB8F3E"/>
	</linearGradient>
	<polygon class="st3" points="100.9,73.8 132.2,29.4 102,40.1 	"/>
	<linearGradient id="SVGID_4_" gradientUnits="userSpaceOnUse" x1="113.5461" y1="48.003" x2="210.8398" y2="145.2966">
		<stop  offset="0" style="stop-color:#AE3A4B"/>
		<stop  offset="1" style="stop-color:#982C25"/>
	</linearGradient>
	<polygon class="st4" points="100.9,73.8 230.1,126.1 132.2,29.4 	"/>
	<linearGradient id="SVGID_5_" gradientUnits="userSpaceOnUse" x1="132.1959" y1="38.9597" x2="245.75" y2="38.9597">
		<stop  offset="0" style="stop-color:#F5B954"/>
		<stop  offset="1" style="stop-color:#E9A03F"/>
	</linearGradient>
	<polygon class="st5" points="132.2,29.4 197.8,6 245.8,71.9 	"/>
	<linearGradient id="SVGID_6_" gradientUnits="userSpaceOnUse" x1="132.1959" y1="77.7016" x2="245.75" y2="77.7016">
		<stop  offset="0" style="stop-color:#F27858"/>
		<stop  offset="1" style="stop-color:#F27A4E"/>
	</linearGradient>
	<polygon class="st6" points="132.2,29.4 230.1,126.1 245.8,71.9 	"/>
	<linearGradient id="SVGID_7_" gradientUnits="userSpaceOnUse" x1="197.7564" y1="35.9629" x2="288.1869" y2="35.9629">
		<stop  offset="0" style="stop-color:#FFD74F"/>
		<stop  offset="0.9992" style="stop-color:#F5C539"/>
	</linearGradient>
	<polygon class="st7" points="245.8,71.9 288.2,26.3 214.5,0 197.8,6 	"/>
	<linearGradient id="SVGID_8_" gradientUnits="userSpaceOnUse" x1="245.75" y1="49.1029" x2="332.5706" y2="49.1029">
		<stop  offset="0" style="stop-color:#F7C563"/>
		<stop  offset="1" style="stop-color:#F6B03D"/>
	</linearGradient>
	<polygon class="st8" points="245.8,71.9 332.6,42.2 288.2,26.3 	"/>
	<linearGradient id="SVGID_9_" gradientUnits="userSpaceOnUse" x1="284.7544" y1="49.4067" x2="331.0868" y2="129.6567">
		<stop  offset="0" style="stop-color:#3E2649"/>
		<stop  offset="0.9012" style="stop-color:#BF5242"/>
	</linearGradient>
	<polygon class="st9" points="245.8,71.9 332.6,128.8 332.6,42.2 	"/>
	<linearGradient id="SVGID_10_" gradientUnits="userSpaceOnUse" x1="230.0863" y1="100.3629" x2="332.5706" y2="100.3629">
		<stop  offset="0" style="stop-color:#A93C3B"/>
		<stop  offset="1" style="stop-color:#B24C49"/>
	</linearGradient>
	<polygon class="st10" points="245.8,71.9 230.1,126.1 332.6,128.8 	"/>
	<linearGradient id="SVGID_11_" gradientUnits="userSpaceOnUse" x1="230.0863" y1="157.575" x2="338" y2="157.575">
		<stop  offset="0" style="stop-color:#AF393D"/>
		<stop  offset="1" style="stop-color:#8F3347"/>
	</linearGradient>
	<polygon class="st11" points="230.1,126.1 230.9,189.1 338,148 332.6,128.8 	"/>
	<linearGradient id="SVGID_12_" gradientUnits="userSpaceOnUse" x1="332.5706" y1="137.025" x2="423.2728" y2="137.025">
		<stop  offset="0" style="stop-color:#CF4C56"/>
		<stop  offset="1" style="stop-color:#D94852"/>
	</linearGradient>
	<polygon class="st12" points="338,148 421.5,141.1 423.3,126.1 332.6,128.8 	"/>
	<linearGradient id="SVGID_13_" gradientUnits="userSpaceOnUse" x1="338" y1="154.425" x2="421.539" y2="154.425">
		<stop  offset="0" style="stop-color:#953243"/>
		<stop  offset="1" style="stop-color:#834152"/>
	</linearGradient>
	<polygon class="st13" points="338,148 418.4,167.8 421.5,141.1 	"/>
	<linearGradient id="SVGID_14_" gradientUnits="userSpaceOnUse" x1="338" y1="189.25" x2="418.4471" y2="189.25">
		<stop  offset="0" style="stop-color:#3D2B46"/>
		<stop  offset="1" style="stop-color:#672D45"/>
	</linearGradient>
	<polygon class="st14" points="338,148 411.2,230.5 418.4,167.8 	"/>
	<linearGradient id="SVGID_15_" gradientUnits="userSpaceOnUse" x1="338" y1="189.25" x2="411.2" y2="189.25">
		<stop  offset="0" style="stop-color:#6D2D47"/>
		<stop  offset="1" style="stop-color:#6D314A"/>
	</linearGradient>
	<polygon class="st15" points="338,148 344,214.8 411.2,230.5 	"/>
	<linearGradient id="SVGID_16_" gradientUnits="userSpaceOnUse" x1="230.9137" y1="183.3" x2="344" y2="183.3">
		<stop  offset="0" style="stop-color:#D43742"/>
		<stop  offset="1" style="stop-color:#C13449"/>
	</linearGradient>
	<polygon class="st16" points="338,148 344,214.8 297.6,218.6 230.9,189.1 	"/>
	<linearGradient id="SVGID_17_" gradientUnits="userSpaceOnUse" x1="314.806" y1="228.5339" x2="328.0731" y2="205.5546">
		<stop  offset="0" style="stop-color:#93223B"/>
		<stop  offset="1" style="stop-color:#81263B"/>
	</linearGradient>
	<polygon class="st17" points="297.6,218.6 332.6,237.5 344,214.8 	"/>
	<linearGradient id="SVGID_18_" gradientUnits="userSpaceOnUse" x1="332.5706" y1="226.125" x2="411.2" y2="226.125">
		<stop  offset="0" style="stop-color:#523045"/>
		<stop  offset="1" style="stop-color:#4A2D42"/>
	</linearGradient>
	<polygon class="st18" points="332.6,237.5 411.2,230.5 344,214.8 	"/>
	<linearGradient id="SVGID_19_" gradientUnits="userSpaceOnUse" x1="332.5706" y1="255.1" x2="411.2" y2="255.1">
		<stop  offset="0" style="stop-color:#6C3143"/>
		<stop  offset="1" style="stop-color:#612B42"/>
	</linearGradient>
	<polygon class="st19" points="332.6,237.5 389,279.7 411.2,230.5 	"/>
	<linearGradient id="SVGID_20_" gradientUnits="userSpaceOnUse" x1="388.95" y1="266.95" x2="411.2" y2="266.95">
		<stop  offset="0" style="stop-color:#593048"/>
		<stop  offset="1" style="stop-color:#543248"/>
	</linearGradient>
	<polygon class="st20" points="389,279.7 402.8,303.4 411.2,230.5 	"/>
	<linearGradient id="SVGID_21_" gradientUnits="userSpaceOnUse" x1="365" y1="326.7733" x2="402.8317" y2="326.7733">
		<stop  offset="0" style="stop-color:#233547"/>
		<stop  offset="1" style="stop-color:#3D2E3C"/>
	</linearGradient>
	<polygon class="st21" points="389,279.7 365,365.7 371.9,373.8 396.3,360.3 402.8,303.4 	"/>
	<linearGradient id="SVGID_22_" gradientUnits="userSpaceOnUse" x1="332.5706" y1="301.6" x2="388.95" y2="301.6">
		<stop  offset="0" style="stop-color:#C12E43"/>
		<stop  offset="1" style="stop-color:#8A354D"/>
	</linearGradient>
	<polygon class="st22" points="365,365.7 332.6,237.5 389,279.7 	"/>
	<linearGradient id="SVGID_23_" gradientUnits="userSpaceOnUse" x1="37.0947" y1="71.883" x2="82.1229" y2="149.874">
		<stop  offset="0" style="stop-color:#F9DA66"/>
		<stop  offset="1" style="stop-color:#DE8259"/>
	</linearGradient>
	<polygon class="st23" points="100.9,73.8 85.9,147.7 5.7,126.1 1.8,92.3 	"/>
	<linearGradient id="SVGID_24_" gradientUnits="userSpaceOnUse" x1="45.7934" y1="126.05" x2="45.7934" y2="167.8">
		<stop  offset="0" style="stop-color:#F9DA66"/>
		<stop  offset="1" style="stop-color:#FBBD7A"/>
	</linearGradient>
	<polygon class="st24" points="85.9,147.7 10.5,167.8 5.7,126.1 	"/>
	<linearGradient id="SVGID_25_" gradientUnits="userSpaceOnUse" x1="37.7229" y1="152.0828" x2="69.0832" y2="206.4004">
		<stop  offset="0" style="stop-color:#EF9763"/>
		<stop  offset="1" style="stop-color:#FFC28D"/>
	</linearGradient>
	<polygon class="st25" points="85.9,147.7 69.8,206 14.1,199 10.5,167.8 	"/>
	<linearGradient id="SVGID_26_" gradientUnits="userSpaceOnUse" x1="71.6901" y1="155.8973" x2="98.5698" y2="202.4542">
		<stop  offset="0" style="stop-color:#F26151"/>
		<stop  offset="1" style="stop-color:#FE6460"/>
	</linearGradient>
	<polygon class="st26" points="85.9,147.7 121.7,189.1 69.8,206 	"/>
	<linearGradient id="SVGID_27_" gradientUnits="userSpaceOnUse" x1="14.1147" y1="218.25" x2="69.7767" y2="218.25">
		<stop  offset="0" style="stop-color:#F3A06B"/>
		<stop  offset="1" style="stop-color:#FF8D6F"/>
	</linearGradient>
	<polygon class="st27" points="69.8,206 18.6,237.5 14.1,199 	"/>
	<linearGradient id="SVGID_28_" gradientUnits="userSpaceOnUse" x1="29.8872" y1="217.95" x2="76.2762" y2="244.7327">
		<stop  offset="0" style="stop-color:#CC3731"/>
		<stop  offset="1" style="stop-color:#ED604F"/>
	</linearGradient>
	<polygon class="st28" points="69.8,206 80.1,231.4 74.9,247.1 19.7,247.1 18.6,237.5 	"/>
	<linearGradient id="SVGID_29_" gradientUnits="userSpaceOnUse" x1="69.7767" y1="231.05" x2="121.7" y2="231.05">
		<stop  offset="0" style="stop-color:#FC8068"/>
		<stop  offset="1" style="stop-color:#EE5948"/>
	</linearGradient>
	<polygon class="st29" points="80.1,231.4 121.7,273 121.7,189.1 69.8,206 	"/>
	<linearGradient id="SVGID_30_" gradientUnits="userSpaceOnUse" x1="97.5611" y1="175.1634" x2="142.2658" y2="97.7326">
		<stop  offset="0" style="stop-color:#D5423F"/>
		<stop  offset="1" style="stop-color:#DA5248"/>
	</linearGradient>
	<polygon class="st30" points="121.7,189.1 150.3,179.3 100.9,73.8 85.9,147.7 	"/>
	<linearGradient id="SVGID_31_" gradientUnits="userSpaceOnUse" x1="106.1223" y1="68.6277" x2="196.8154" y2="159.3209">
		<stop  offset="0" style="stop-color:#EE4042"/>
		<stop  offset="1" style="stop-color:#D84E47"/>
	</linearGradient>
	<polygon class="st31" points="150.3,179.3 230.1,126.1 100.9,73.8 	"/>
	<linearGradient id="SVGID_32_" gradientUnits="userSpaceOnUse" x1="150.3" y1="152.6986" x2="230.0863" y2="152.6986">
		<stop  offset="0" style="stop-color:#B31C25"/>
		<stop  offset="1" style="stop-color:#B73148"/>
	</linearGradient>
	<polygon class="st32" points="150.3,179.3 221,176.9 230.1,126.1 	"/>
	<linearGradient id="SVGID_33_" gradientUnits="userSpaceOnUse" x1="221" y1="157.575" x2="230.9137" y2="157.575">
		<stop  offset="0" style="stop-color:#68223B"/>
		<stop  offset="1" style="stop-color:#862436"/>
	</linearGradient>
	<polygon class="st33" points="221,176.9 230.9,189.1 230.1,126.1 	"/>
	<linearGradient id="SVGID_34_" gradientUnits="userSpaceOnUse" x1="19.7026" y1="276.025" x2="89" y2="276.025">
		<stop  offset="0" style="stop-color:#FF964F"/>
		<stop  offset="1" style="stop-color:#FE9348"/>
	</linearGradient>
	<polygon class="st34" points="74.9,247.1 89,305 23,276 19.7,247.1 	"/>
	<linearGradient id="SVGID_35_" gradientUnits="userSpaceOnUse" x1="22.9897" y1="318.1625" x2="89" y2="318.1625">
		<stop  offset="0" style="stop-color:#FFAB3E"/>
		<stop  offset="1" style="stop-color:#F29935"/>
	</linearGradient>
	<polygon class="st35" points="89,305 32.7,360.3 23,276 	"/>
	<linearGradient id="SVGID_36_" gradientUnits="userSpaceOnUse" x1="55.9147" y1="324.1018" x2="83.9472" y2="372.6556">
		<stop  offset="0" style="stop-color:#FCB73E"/>
		<stop  offset="1" style="stop-color:#FEB039"/>
	</linearGradient>
	<polygon class="st36" points="89,305 80.1,372.3 69.8,380.8 32.7,360.3 	"/>
	<linearGradient id="SVGID_37_" gradientUnits="userSpaceOnUse" x1="74.9383" y1="276.025" x2="114" y2="276.025">
		<stop  offset="0" style="stop-color:#FC4C3F"/>
		<stop  offset="1" style="stop-color:#F07540"/>
	</linearGradient>
	<polygon class="st37" points="89,305 114,287 74.9,247.1 	"/>
	<linearGradient id="SVGID_38_" gradientUnits="userSpaceOnUse" x1="74.9383" y1="259.1925" x2="121.7" y2="259.1925">
		<stop  offset="0" style="stop-color:#FC7954"/>
		<stop  offset="1" style="stop-color:#FF5F4B"/>
	</linearGradient>
	<polygon class="st38" points="114,287 121.7,273 80.1,231.4 74.9,247.1 	"/>
	<linearGradient id="SVGID_39_" gradientUnits="userSpaceOnUse" x1="121.7" y1="226.1736" x2="150.3" y2="226.1736">
		<stop  offset="0" style="stop-color:#F8413A"/>
		<stop  offset="1" style="stop-color:#F84543"/>
	</linearGradient>
	<polygon class="st39" points="121.7,273 150.3,179.3 121.7,189.1 	"/>
	<linearGradient id="SVGID_40_" gradientUnits="userSpaceOnUse" x1="121.7" y1="229.5236" x2="190.1932" y2="229.5236">
		<stop  offset="0" style="stop-color:#FC5644"/>
		<stop  offset="1" style="stop-color:#EE4839"/>
	</linearGradient>
	<polygon class="st40" points="121.7,273 190.2,279.7 150.3,179.3 	"/>
	<linearGradient id="SVGID_41_" gradientUnits="userSpaceOnUse" x1="150.3" y1="228.275" x2="221" y2="228.275">
		<stop  offset="0" style="stop-color:#F45345"/>
		<stop  offset="1" style="stop-color:#DF5650"/>
	</linearGradient>
	<polygon class="st41" points="190.2,279.7 221,176.9 150.3,179.3 	"/>
	<linearGradient id="SVGID_42_" gradientUnits="userSpaceOnUse" x1="190.1932" y1="228.275" x2="230.9137" y2="228.275">
		<stop  offset="0" style="stop-color:#DC584A"/>
		<stop  offset="1" style="stop-color:#E35C53"/>
	</linearGradient>
	<polygon class="st42" points="190.2,279.7 230.9,189.1 221,176.9 	"/>
	<linearGradient id="SVGID_43_" gradientUnits="userSpaceOnUse" x1="190.1932" y1="234.4" x2="257.6" y2="234.4">
		<stop  offset="0" style="stop-color:#D53031"/>
		<stop  offset="1" style="stop-color:#D8393D"/>
	</linearGradient>
	<polygon class="st43" points="190.2,279.7 237,259.2 257.6,200.3 230.9,189.1 	"/>
	<linearGradient id="SVGID_44_" gradientUnits="userSpaceOnUse" x1="111.1" y1="299.3961" x2="190.1932" y2="299.3961">
		<stop  offset="0" style="stop-color:#FF7A68"/>
		<stop  offset="1" style="stop-color:#FF7B53"/>
	</linearGradient>
	<polygon class="st44" points="190.2,279.7 111.1,325.8 114,287 121.7,273 	"/>
	<linearGradient id="SVGID_45_" gradientUnits="userSpaceOnUse" x1="89" y1="306.3961" x2="114" y2="306.3961">
		<stop  offset="0" style="stop-color:#F4463F"/>
		<stop  offset="1" style="stop-color:#F74846"/>
	</linearGradient>
	<polygon class="st45" points="111.1,325.8 89,305 114,287 	"/>
	<linearGradient id="SVGID_46_" gradientUnits="userSpaceOnUse" x1="80.1" y1="338.65" x2="111.1" y2="338.65">
		<stop  offset="0" style="stop-color:#F18E31"/>
		<stop  offset="1" style="stop-color:#FF8D44"/>
	</linearGradient>
	<polygon class="st46" points="111.1,325.8 80.1,372.3 89,305 	"/>
	<linearGradient id="SVGID_47_" gradientUnits="userSpaceOnUse" x1="69.7767" y1="397.94" x2="147" y2="397.94">
		<stop  offset="0" style="stop-color:#FFCA42"/>
		<stop  offset="1" style="stop-color:#FF8642"/>
	</linearGradient>
	<polygon class="st47" points="80.1,372.3 147,423.6 69.8,380.8 	"/>
	<linearGradient id="SVGID_48_" gradientUnits="userSpaceOnUse" x1="80.1" y1="349.0461" x2="132.1959" y2="349.0461">
		<stop  offset="0" style="stop-color:#FF913B"/>
		<stop  offset="1" style="stop-color:#FE9D3F"/>
	</linearGradient>
	<polygon class="st48" points="80.1,372.3 132.2,351 111.1,325.8 	"/>
	<linearGradient id="SVGID_49_" gradientUnits="userSpaceOnUse" x1="109.645" y1="401.845" x2="146.343" y2="365.147">
		<stop  offset="0" style="stop-color:#FC873F"/>
		<stop  offset="1" style="stop-color:#FD883B"/>
	</linearGradient>
	<polygon class="st49" points="132.2,351 147,423.6 80.1,372.3 	"/>
	<linearGradient id="SVGID_50_" gradientUnits="userSpaceOnUse" x1="147" y1="420.4853" x2="223.8966" y2="420.4853">
		<stop  offset="0" style="stop-color:#FF564C"/>
		<stop  offset="1" style="stop-color:#FE434C"/>
	</linearGradient>
	<polygon class="st50" points="147,423.6 223.9,403 173,438 	"/>
	<linearGradient id="SVGID_51_" gradientUnits="userSpaceOnUse" x1="111.1" y1="315.35" x2="190.1932" y2="315.35">
		<stop  offset="0" style="stop-color:#FF5A4A"/>
		<stop  offset="1" style="stop-color:#F76042"/>
	</linearGradient>
	<polygon class="st51" points="132.2,351 190.2,279.7 111.1,325.8 	"/>
	<linearGradient id="SVGID_52_" gradientUnits="userSpaceOnUse" x1="132.1959" y1="326.7733" x2="221" y2="326.7733">
		<stop  offset="0" style="stop-color:#E84041"/>
		<stop  offset="1" style="stop-color:#E02E41"/>
	</linearGradient>
	<polygon class="st52" points="132.2,351 173,373.8 221,340 190.2,279.7 	"/>
	<linearGradient id="SVGID_53_" gradientUnits="userSpaceOnUse" x1="245.2019" y1="315.7981" x2="199.6485" y2="270.2447">
		<stop  offset="0" style="stop-color:#FFBE68"/>
		<stop  offset="1" style="stop-color:#E9803B"/>
	</linearGradient>
	<polygon class="st53" points="221,340 237,259.2 221,283 190.2,279.7 	"/>
	<linearGradient id="SVGID_54_" gradientUnits="userSpaceOnUse" x1="190.1932" y1="271.0962" x2="237" y2="271.0962">
		<stop  offset="0" style="stop-color:#E47449"/>
		<stop  offset="1" style="stop-color:#F07550"/>
	</linearGradient>
	<polygon class="st54" points="190.2,279.7 221,283 237,259.2 	"/>
	<linearGradient id="SVGID_55_" gradientUnits="userSpaceOnUse" x1="237" y1="229.7462" x2="332.5706" y2="229.7462">
		<stop  offset="0" style="stop-color:#C42C40"/>
		<stop  offset="1" style="stop-color:#BC2D45"/>
	</linearGradient>
	<polygon class="st55" points="237,259.2 332.6,237.5 297.6,218.6 257.6,200.3 	"/>
	<linearGradient id="SVGID_56_" gradientUnits="userSpaceOnUse" x1="277.9932" y1="237.5" x2="277.9932" y2="340">
		<stop  offset="0" style="stop-color:#DB3443"/>
		<stop  offset="1" style="stop-color:#B9313F"/>
	</linearGradient>
	<polygon class="st56" points="221,340 335,247.1 332.6,237.5 237,259.2 	"/>
	<linearGradient id="SVGID_57_" gradientUnits="userSpaceOnUse" x1="132.1959" y1="387.29" x2="173" y2="387.29">
		<stop  offset="0" style="stop-color:#F0603C"/>
		<stop  offset="1" style="stop-color:#FB3A42"/>
	</linearGradient>
	<polygon class="st57" points="173,373.8 169.7,417.5 147,423.6 132.2,351 	"/>
	<linearGradient id="SVGID_58_" gradientUnits="userSpaceOnUse" x1="205" y1="387.29" x2="205" y2="340">
		<stop  offset="0" style="stop-color:#DD3042"/>
		<stop  offset="1" style="stop-color:#C02F43"/>
	</linearGradient>
	<polygon class="st58" points="173,373.8 237,387.3 221,340 	"/>
	<linearGradient id="SVGID_59_" gradientUnits="userSpaceOnUse" x1="169.6723" y1="395.6794" x2="237" y2="395.6794">
		<stop  offset="0" style="stop-color:#EC3048"/>
		<stop  offset="1" style="stop-color:#EC2F41"/>
	</linearGradient>
	<polygon class="st59" points="223.9,403 237,387.3 173,373.8 169.7,417.5 	"/>
	<linearGradient id="SVGID_60_" gradientUnits="userSpaceOnUse" x1="236.8726" y1="415.976" x2="193.939" y2="458.9097">
		<stop  offset="0" style="stop-color:#FF694C"/>
		<stop  offset="1" style="stop-color:#E42E41"/>
	</linearGradient>
	<polygon class="st60" points="223.9,403 257.6,437.1 214.5,461 173,438 	"/>
	<linearGradient id="SVGID_61_" gradientUnits="userSpaceOnUse" x1="223.8966" y1="412.2083" x2="257.6" y2="412.2083">
		<stop  offset="0" style="stop-color:#D42D46"/>
		<stop  offset="1" style="stop-color:#E82E42"/>
	</linearGradient>
	<polygon class="st61" points="257.6,437.1 237,387.3 223.9,403 	"/>
	<linearGradient id="SVGID_62_" gradientUnits="userSpaceOnUse" x1="257.6" y1="420.0633" x2="307.3237" y2="420.0633">
		<stop  offset="0" style="stop-color:#CC3043"/>
		<stop  offset="1" style="stop-color:#9C3044"/>
	</linearGradient>
	<polygon class="st62" points="257.6,437.1 281.3,403 307.3,409.6 	"/>
	<linearGradient id="SVGID_63_" gradientUnits="userSpaceOnUse" x1="281.3285" y1="387.6422" x2="371.8853" y2="387.6422">
		<stop  offset="0" style="stop-color:#6D2F44"/>
		<stop  offset="1" style="stop-color:#6C364D"/>
	</linearGradient>
	<polygon class="st63" points="281.3,403 365,365.7 371.9,373.8 307.3,409.6 	"/>
	<linearGradient id="SVGID_64_" gradientUnits="userSpaceOnUse" x1="221" y1="371.5" x2="365" y2="371.5">
		<stop  offset="0" style="stop-color:#B22E44"/>
		<stop  offset="1" style="stop-color:#932D48"/>
	</linearGradient>
	<polygon class="st64" points="221,340 365,365.7 281.3,403 	"/>
	<linearGradient id="SVGID_65_" gradientUnits="userSpaceOnUse" x1="221" y1="306.375" x2="365" y2="306.375">
		<stop  offset="0" style="stop-color:#9C2E3D"/>
		<stop  offset="1" style="stop-color:#702C43"/>
	</linearGradient>
	<polygon class="st65" points="221,340 365,365.7 335,247.1 	"/>
	<linearGradient id="SVGID_66_" gradientUnits="userSpaceOnUse" x1="221" y1="388.5633" x2="281.3285" y2="388.5633">
		<stop  offset="0" style="stop-color:#CD2E47"/>
		<stop  offset="1" style="stop-color:#CA2F43"/>
	</linearGradient>
	<polygon class="st66" points="281.3,403 257.6,437.1 237,387.3 221,340 	"/>
	<g id="Text_1_" transform="translate(105.000000, 145.000000)">
		<polygon id="Shape_59_" class="st67" points="93.8,102.6 66.6,102.6 26.3,32.2 26.3,102.6 -1.1,102.6 -1.1,-10.4 26.3,-10.4 
			66.5,60 66.5,-10.4 93.9,-10.4 		"/>
		<path id="Shape_58_" class="st67" d="M218.9,88.1c-5.1,5.2-11.5,9.1-18.5,11.2c-8.6,2.9-17.6,4.4-26.6,4.3
			c-14.8,0-26.7-4.5-35.6-13.6c-8.9-9.1-13.7-21.6-14.2-37.7v-9.7c-0.2-10,1.8-19.9,5.9-29.1c3.6-7.9,9.5-14.5,16.9-19.1
			c7.7-4.6,16.5-6.9,25.5-6.8c14.1,0,25.1,3.2,32.9,9.6c7.8,6.4,12.4,16,13.7,28.8h-26.4c-0.9-6.3-2.9-10.8-6.1-13.6
			c-3.8-2.9-8.5-4.3-13.2-4c-6.5-0.2-12.6,3.1-16,8.7c-3.7,5.8-5.6,14-5.7,24.8v6.7c0,11.2,1.9,19.7,5.8,25.3
			c3.9,5.7,10,8.5,18.2,8.5c7.1,0,12.4-1.6,16-4.7V60.2h-19V41.6h46.4V88.1z"/>
		<path id="Shape_57_" class="st67" d="M66.9,181.6v-45h14.8c3.8-0.1,7.6,0.9,10.9,2.7c3.2,1.8,5.8,4.4,7.6,7.6
			c1.8,3.4,2.8,7.2,2.8,11.1v2.1c0.1,3.9-0.9,7.7-2.7,11.1c-1.7,3.2-4.3,5.8-7.5,7.7c-3.3,1.9-7,2.8-10.8,2.8L66.9,181.6z M77.9,145
			v28.3h3.8c2.8,0.1,5.6-1.1,7.3-3.3c1.9-2.9,2.8-6.4,2.6-9.9v-1.9c0.3-3.5-0.6-6.9-2.6-9.8c-1.8-2.2-4.5-3.5-7.4-3.3L77.9,145z"/>
		<polygon id="Shape_56_" class="st67" points="143.7,162.5 126.1,162.5 126.1,173.3 146.9,173.3 146.9,181.6 114.9,181.6 
			114.9,136.6 146.9,136.6 146.9,145 126.1,145 126.1,154.5 143.7,154.5 		"/>
	</g>
	<linearGradient id="SVGID_67_" gradientUnits="userSpaceOnUse" x1="348.9" y1="80.2697" x2="429" y2="80.2697">
		<stop  offset="0" style="stop-color:#BD5349"/>
		<stop  offset="1" style="stop-color:#C24D40"/>
	</linearGradient>
	<polygon class="st68" points="348.9,47.9 424.8,112.6 429,76.5 	"/>
	<linearGradient id="SVGID_68_" gradientUnits="userSpaceOnUse" x1="400.7665" y1="70.9105" x2="324.5528" y2="114.9126">
		<stop  offset="0" style="stop-color:#B84D43"/>
		<stop  offset="1" style="stop-color:#693143"/>
	</linearGradient>
	<polygon class="st69" points="332.6,42.2 332.6,128.8 423.3,126.1 424.8,112.6 348.9,47.9 	"/>
</g>
<g id="Layer_5" class="st70">
	<polygon id="Shape_55_" class="st71" points="694.7,0.9 480.2,77.4 512.9,361.2 694.7,461.9 876.5,361.2 909.2,77.4 	"/>
</g>
<g id="Layer_6" class="st70">
	<polygon class="st72" points="1.8,93.1 100.9,74.7 69.8,52.5 0,77.4 	"/>
	<polygon class="st72" points="100.9,74.7 102,41 69.8,52.5 	"/>
	<polygon class="st72" points="100.9,74.7 132.2,30.2 102,41 	"/>
	<polygon class="st72" points="100.9,74.7 230.1,126.9 132.2,30.2 	"/>
	<polygon class="st72" points="132.2,30.2 197.8,6.9 245.8,72.8 	"/>
	<polygon class="st72" points="132.2,30.2 230.1,126.9 245.8,72.8 	"/>
	<polygon class="st72" points="245.8,72.8 288.2,27.2 214.5,0.9 197.8,6.9 	"/>
	<polygon class="st72" points="245.8,72.8 332.6,43 288.2,27.2 	"/>
	<polygon class="st72" points="245.8,72.8 332.6,129.7 332.6,43 	"/>
	<polygon class="st72" points="245.8,72.8 230.1,126.9 332.6,129.7 	"/>
	<polygon class="st72" points="230.1,126.9 230.9,190 338,148.9 332.6,129.7 	"/>
	<polygon class="st72" points="332.6,129.7 423.3,126.9 423.3,112.2 348.9,48.8 332.6,43 	"/>
	<polygon class="st72" points="423.3,112.2 429,77.4 348.9,48.8 	"/>
	<polygon class="st72" points="338,148.9 421.5,141.9 423.3,126.9 332.6,129.7 	"/>
	<polygon class="st72" points="338,148.9 418.4,168.7 421.5,141.9 	"/>
	<polygon class="st72" points="338,148.9 411.2,231.4 418.4,168.7 	"/>
	<polygon class="st72" points="338,148.9 344,215.6 411.2,231.4 	"/>
	<polygon class="st72" points="338,148.9 344,215.6 297.6,219.5 230.9,190 	"/>
	<polygon class="st72" points="297.6,219.5 332.6,238.4 344,215.6 	"/>
	<polygon class="st72" points="332.6,238.4 411.2,231.4 344,215.6 	"/>
	<polygon class="st72" points="332.6,238.4 389,280.6 411.2,231.4 	"/>
	<polygon class="st72" points="389,280.6 402.8,304.3 411.2,231.4 	"/>
	<polygon class="st72" points="389,280.6 365,366.6 371.9,374.7 396.3,361.2 402.8,304.3 	"/>
	<polygon class="st72" points="365,366.6 332.6,238.4 389,280.6 	"/>
	<polygon class="st72" points="100.9,74.7 85.9,148.6 5.7,126.9 1.8,93.1 	"/>
	<polygon class="st72" points="85.9,148.6 10.5,168.7 5.7,126.9 	"/>
	<polygon class="st72" points="85.9,148.6 69.8,206.9 14.1,199.9 10.5,168.7 	"/>
	<polygon class="st72" points="85.9,148.6 121.7,190 69.8,206.9 	"/>
	<polygon class="st72" points="69.8,206.9 18.6,238.4 14.1,199.9 	"/>
	<polygon class="st72" points="69.8,206.9 80.1,232.3 74.9,247.9 19.7,247.9 18.6,238.4 	"/>
	<polygon class="st72" points="80.1,232.3 121.7,273.9 121.7,190 69.8,206.9 	"/>
	<polygon class="st72" points="121.7,190 150.3,180.2 100.9,74.7 85.9,148.6 	"/>
	<polygon class="st72" points="150.3,180.2 230.1,126.9 100.9,74.7 	"/>
	<polygon class="st72" points="150.3,180.2 221,177.7 230.1,126.9 	"/>
	<polygon class="st72" points="221,177.7 230.9,190 230.1,126.9 	"/>
	<polygon class="st72" points="74.9,247.9 89,305.9 23,276.9 19.7,247.9 	"/>
	<polygon class="st72" points="89,305.9 32.7,361.2 23,276.9 	"/>
	<polygon class="st72" points="89,305.9 80.1,373.2 69.8,381.7 32.7,361.2 	"/>
	<polygon class="st72" points="89,305.9 114,287.9 74.9,247.9 	"/>
	<polygon class="st72" points="114,287.9 121.7,273.9 80.1,232.3 74.9,247.9 	"/>
	<polygon class="st72" points="121.7,273.9 150.3,180.2 121.7,190 	"/>
	<polygon class="st72" points="121.7,273.9 190.2,280.6 150.3,180.2 	"/>
	<polygon class="st72" points="190.2,280.6 221,177.7 150.3,180.2 	"/>
	<polygon class="st72" points="190.2,280.6 230.9,190 221,177.7 	"/>
	<polygon class="st72" points="190.2,280.6 237,260.1 257.6,201.2 230.9,190 	"/>
	<polygon class="st72" points="190.2,280.6 111.1,326.7 114,287.9 121.7,273.9 	"/>
	<polygon class="st72" points="111.1,326.7 89,305.9 114,287.9 	"/>
	<polygon class="st72" points="111.1,326.7 80.1,373.2 89,305.9 	"/>
	<polygon class="st72" points="80.1,373.2 147,424.5 69.8,381.7 	"/>
	<polygon class="st72" points="80.1,373.2 132.2,351.9 111.1,326.7 	"/>
	<polygon class="st72" points="132.2,351.9 147,424.5 80.1,373.2 	"/>
	<polygon class="st72" points="147,424.5 223.9,403.9 173,438.9 	"/>
	<polygon class="st72" points="132.2,351.9 190.2,280.6 111.1,326.7 	"/>
	<polygon class="st72" points="132.2,351.9 173,374.7 221,340.9 190.2,280.6 	"/>
	<polygon class="st72" points="221,340.9 237,260.1 221,283.9 190.2,280.6 	"/>
	<polygon class="st72" points="190.2,280.6 221,283.9 237,260.1 	"/>
	<polygon class="st72" points="237,260.1 332.6,238.4 297.6,219.5 257.6,201.2 	"/>
	<polygon class="st72" points="221,340.9 335,247.9 332.6,238.4 237,260.1 	"/>
	<polygon class="st72" points="173,374.7 169.7,418.4 147,424.5 132.2,351.9 	"/>
	<polygon class="st72" points="173,374.7 237,388.2 221,340.9 	"/>
	<polygon class="st72" points="223.9,403.9 237,388.2 173,374.7 169.7,418.4 	"/>
	<polygon class="st72" points="223.9,403.9 257.6,438 214.5,461.9 173,438.9 	"/>
	<polygon class="st72" points="257.6,438 237,388.2 223.9,403.9 	"/>
	<polygon class="st72" points="257.6,438 281.3,403.9 307.3,410.5 	"/>
	<polygon class="st72" points="281.3,403.9 365,366.6 371.9,374.7 307.3,410.5 	"/>
	<polygon class="st72" points="221,340.9 365,366.6 281.3,403.9 	"/>
	<polygon class="st72" points="221,340.9 365,366.6 335,247.9 	"/>
	<polygon class="st72" points="281.3,403.9 257.6,438 237,388.2 221,340.9 	"/>
</g>
</svg>
