<?xml version="1.0" encoding="UTF-8"?>
<svg width="432px" height="467px" viewBox="0 0 432 467" version="1.1" 
    xmlns="http://www.w3.org/2000/svg" 
    xmlns:xlink="http://www.w3.org/1999/xlink">
    <!-- Generator: Sketch 61.2 (89653) - https://sketch.com -->
    <title>NgDubai</title>
    <desc>Created with Sketch.</desc>
    <g id="Page-1" stroke="none" stroke-width="1" fill="none" fill-rule="evenodd">
        <g id="NgDubai" transform="translate(15.000000, 16.000000)" fill-rule="nonzero">
            <g id="Angular">
                <polygon id="Path" fill="#DD0031" points="203 0 203 0 203 0 1.94361702 71.712 32.6095745 337.608 203 432 203 432 203 432 373.390426 337.608 404.056383 71.712"></polygon>
                <polygon id="Path" fill="#C3002F" points="203 0 203 47.952 203 47.736 203 266.544 203 266.544 203 432 203 432 373.390426 337.608 404.056383 71.712"></polygon>
            </g>
            <g id="dubai-burj-al-arab-svgrepo-com" transform="translate(102.000000, 58.000000)" fill="#FFFFFF">
                <path d="M201.849392,270 L3.1506083,270 C1.41021227,270 0,268.584321 0,266.837178 C0,259.279298 6.12478253,253.132037 13.6522159,253.132037 L57.7304862,253.132037 L57.7304862,3.16282208 C57.7304862,1.41567916 59.1406985,0 60.8810945,0 C62.6214905,0 64.0317028,1.41567916 64.0317028,3.16282208 L64.0317028,26.1021381 C69.6927158,30.9349302 94.6102467,53.1796905 115.110625,86.7587399 L128.106254,86.7587399 C128.121377,86.7600051 128.135239,86.7587399 128.149102,86.7587399 L137.367782,86.7587399 C139.108178,86.7587399 140.51839,88.1744191 140.51839,89.921562 C140.51839,91.6687049 139.108178,93.0843841 137.367782,93.0843841 L129.616025,93.0843841 L123.134594,101.00156 C126.281422,107.094421 129.214008,113.474465 131.827752,120.125248 C151.747158,170.807574 143.285885,236.695483 140.717509,253.130772 L191.347784,253.130772 C198.876478,253.130772 205,259.279298 205,266.835913 C205,268.583056 203.589788,270 201.849392,270 Z M7.01073358,263.674356 L197.988006,263.674356 C196.805898,261.183317 194.274069,259.457681 191.346524,259.457681 L110.067131,259.457681 C110.019242,259.458947 109.970092,259.458947 109.920943,259.457681 L73.3839685,259.457681 C73.3612841,259.457681 73.3411202,259.457681 73.3184358,259.457681 L13.6522159,259.457681 C10.7246706,259.456416 8.19284182,261.182052 7.01073358,263.674356 Z M114.225934,253.130772 L134.323034,253.130772 C136.498214,239.194113 145.481229,172.101801 125.9651,122.446759 C123.776058,116.877662 121.35513,111.498334 118.771632,106.329018 L116.571247,109.017417 C115.467274,110.367309 113.48113,110.562139 112.136451,109.452621 C110.793031,108.343103 110.597693,106.350525 111.702927,105.000633 L115.60212,100.236157 C114.285165,97.8007844 112.936705,95.4160165 111.56304,93.0843841 L101.699115,93.0843841 C109.476077,112.254881 115.873072,134.266858 117.763437,157.425041 C122.351983,213.609413 116.888828,242.878168 114.225934,253.130772 Z M80.2094463,253.130772 L107.676449,253.130772 C108.940473,248.616792 111.752076,236.493063 112.803119,215.016236 L80.2094463,253.130772 Z M64.0317028,253.130772 L70.2018541,253.130772 L70.2018541,209.247248 L64.0317028,209.247248 L64.0317028,253.130772 Z M76.5030707,209.247248 L76.5030707,247.752709 L109.430708,209.247248 L76.5030707,209.247248 Z M79.7355948,202.921604 L113.173631,202.921604 C113.332421,191.178678 112.966951,177.269852 111.726871,161.009151 L79.7355948,202.921604 Z M64.0317028,202.921604 L70.2018541,202.921604 L70.2018541,155.813267 L64.0317028,155.813267 L64.0317028,202.921604 Z M76.5030707,155.813267 L76.5030707,196.757897 L107.754585,155.813267 L76.5030707,155.813267 Z M77.9170637,149.487623 L110.586351,149.487623 C108.222135,131.362122 103.187463,114.105765 97.1370346,98.6167925 L77.9170637,149.487623 Z M64.0317028,149.487623 L70.2018541,149.487623 L70.2018541,46.3037153 C67.8842666,42.7145448 65.7910025,39.6415468 64.0317028,37.1441825 L64.0317028,149.487623 Z M76.5030707,93.0843841 L76.5030707,135.392823 L92.487997,93.0843841 L76.5030707,93.0843841 Z M118.838425,93.0843841 C119.196334,93.7131531 119.551722,94.3457175 119.90459,94.9820773 L121.45721,93.0843841 L118.838425,93.0843841 Z M99.0412622,86.7587399 L107.700394,86.7587399 C98.7929943,72.6791212 89.2012824,60.7869101 80.8987994,51.584363 C86.6807957,61.2335006 93.1382825,73.178847 99.0412622,86.7587399 Z M76.5030707,86.7587399 L92.1741964,86.7587399 C87.0399651,75.2587188 81.5402632,65.0225615 76.5030707,56.5019188 L76.5030707,86.7587399 Z" id="Shape"></path>
            </g>
        </g>
    </g>
</svg>