<?xml version="1.0" encoding="UTF-8" standalone="no"?>
<svg
   xmlns:dc="http://purl.org/dc/elements/1.1/"
   xmlns:cc="http://creativecommons.org/ns#"
   xmlns:rdf="http://www.w3.org/1999/02/22-rdf-syntax-ns#"
   xmlns:svg="http://www.w3.org/2000/svg"
   xmlns="http://www.w3.org/2000/svg"
   viewBox="0 0 333.33334 333.33334"
   height="333.33334"
   width="333.33334"
   xml:space="preserve"
   id="svg2"
   version="1.1"><metadata
     id="metadata8"><rdf:RDF><cc:Work
         rdf:about=""><dc:format>image/svg+xml</dc:format><dc:type
           rdf:resource="http://purl.org/dc/dcmitype/StillImage" /></cc:Work></rdf:RDF></metadata><defs
     id="defs6"><clipPath
       id="clipPath42"
       clipPathUnits="userSpaceOnUse"><path
         id="path40"
         d="M 0,250 H 250 V 0 H 0 Z" /></clipPath><clipPath
       id="clipPath94"
       clipPathUnits="userSpaceOnUse"><path
         id="path92"
         d="M 66.96,203.04 H 81.34 V 44.18 H 66.96 Z" /></clipPath><clipPath
       id="clipPath134"
       clipPathUnits="userSpaceOnUse"><path
         id="path132"
         d="m 168.66,203.04 h 14.38 V 44.18 h -14.38 z" /></clipPath><clipPath
       id="clipPath214"
       clipPathUnits="userSpaceOnUse"><path
         id="path212"
         d="m 101.786,115.319 h 52.802 V 27.6 h -52.802 z" /></clipPath></defs><g
     transform="matrix(1.3333333,0,0,-1.3333333,0,333.33333)"
     id="g10"><g
       transform="translate(174.6436,214.6499)"
       id="g12"><path
         id="path14"
         style="fill:#84002c;fill-opacity:1;fill-rule:nonzero;stroke:none"
         d="m 0,0 -9.4,-9.808 -0.95,-161.294 6.447,-10.708 5.341,9.279 2.349,163.92 z" /></g><g
       transform="translate(75.3564,214.6499)"
       id="g16"><path
         id="path18"
         style="fill:#84002c;fill-opacity:1;fill-rule:nonzero;stroke:none"
         d="m 0,0 9.4,-9.808 0.949,-161.294 -6.445,-10.708 -5.342,9.279 -2.349,163.92 z" /></g><g
       transform="translate(218.0996,186.7998)"
       id="g20"><path
         id="path22"
         style="fill:#dd0031;fill-opacity:1;fill-rule:nonzero;stroke:none"
         d="m 0,0 -14.199,-123.1 -28.441,-15.75 h -0.009 l -6.79,-3.77 -43.661,-24.18 -43.66,24.18 -6.79,3.77 -28.45,15.75 -14.2,123.1 41.08,14.65 4.471,1.59 47.549,16.96 47.55,-16.96 4.47,-1.59 z" /></g><g
       transform="translate(125,212.3999)"
       id="g24"><path
         id="path26"
         style="fill:#ffffff;fill-opacity:1;fill-rule:nonzero;stroke:none"
         d="M 0,0 V 0 L -86.024,-30.677 -72.904,-144.421 0,-184.8 l 72.903,40.379 13.121,113.744 z" /></g><g
       transform="translate(125,220)"
       id="g28"><path
         id="path30"
         style="fill:#c3002f;fill-opacity:1;fill-rule:nonzero;stroke:none"
         d="m 0,0 v -22.2 0.1 -101.3 -76.6 l 78.9,43.7 14.2,123.1 z" /></g><g
       transform="translate(211.0195,181.7197)"
       id="g32"><path
         id="path34"
         style="fill:#ffffff;fill-opacity:1;fill-rule:nonzero;stroke:none"
         d="m 0,0 -12.5,-108.33 -0.119,-1.12 -0.5,-4.289 -2.45,-1.361 -15.72,-8.71 -4.231,-2.339 -1.48,-0.821 -2.01,-1.11 -3.389,-1.88 -1.08,-0.6 -4.541,-2.509 -0.74,-0.41 -9.25,-5.13 -7.859,-4.351 -2.54,-1.41 -9.861,-5.46 -1.83,-1.01 -3.2,-1.769 -2.72,-1.511 -2.72,1.511 -0.25,0.139 -4.78,2.64 -3.359,1.86 -5.871,3.25 -0.629,0.35 -8.79,4.87 -7.81,4.32 -3.8,2.111 -5.611,3.109 -4.42,2.45 -0.97,0.54 -2.26,1.25 -5.79,3.21 -14.899,8.25 -0.94,0.521 -0.301,2.639 -0.44,3.75 L -172.04,0 -86.02,30.68 Z" /></g><g
       id="g36"><g
         clip-path="url(#clipPath42)"
         id="g38"><g
           transform="translate(202.1797,105.0801)"
           id="g44"><path
             id="path46"
             style="fill:#8ae9ff;fill-opacity:1;fill-rule:nonzero;stroke:none"
             d="m 0,0 -0.47,-4.08 -3.809,-33.02 -55.29,-30.63 -9.861,-5.46 -5.03,-2.78 -2.72,-1.51 -2.72,1.51 -5.03,2.78 -9.86,5.46 -55.29,30.63 -3.81,33.02 -0.47,4.08 75.84,27.05 c 0.43,0.15 0.89,0.23 1.34,0.23 0.451,0 0.91,-0.08 1.34,-0.23 z" /></g><g
           transform="translate(202.1797,105.0801)"
           id="g48"><path
             id="path50"
             style="fill:#8ae9ff;fill-opacity:1;fill-rule:nonzero;stroke:none"
             d="m 0,0 -0.47,-4.08 -3.809,-33.02 -55.29,-30.63 -9.861,-5.46 -5.03,-2.78 -2.72,-1.51 -2.72,1.51 -5.03,2.78 -9.86,5.46 -44.16,24.47 -11.13,6.16 -2.64,22.89 -1.17,10.13 -0.47,4.08 75.84,27.05 c 0.43,0.15 0.89,0.23 1.34,0.23 0.451,0 0.91,-0.08 1.34,-0.23 z" /></g><g
           transform="translate(106.1099,69.75)"
           id="g52"><path
             id="path54"
             style="fill:#cff8ff;fill-opacity:1;fill-rule:nonzero;stroke:none"
             d="m 0,0 c -2.34,-1.77 -8.56,-4.35 -18.02,-5.93 -9.46,-1.58 -23.12,-2.02 -23.12,-2.02 l -1.74,0.02 -11.13,6.16 -2.64,22.89 c 3.32,0.49 7.49,0.32 11.24,-2.1 7.86,-5.07 14.75,-3.82 21.48,-5.34 6.72,-1.53 4.32,-3.72 7.47,-5.48 3.15,-1.75 6.15,-0.23 10.5,-2.87 C -1.61,2.7 2.33,1.77 0,0" /></g><g
           transform="translate(143.9727,69.75)"
           id="g56"><path
             id="path58"
             style="fill:#cff8ff;fill-opacity:1;fill-rule:nonzero;stroke:none"
             d="m 0,0 c 2.34,-1.771 8.56,-4.35 18.02,-5.93 9.46,-1.58 23.12,-2.02 23.12,-2.02 l 1.74,0.02 11.13,6.16 2.64,22.89 C 53.33,21.61 49.16,21.44 45.41,19.021 37.55,13.95 30.66,15.2 23.93,13.68 17.21,12.15 19.61,9.96 16.46,8.2 13.31,6.45 10.31,7.97 5.96,5.33 1.61,2.7 -2.33,1.77 0,0" /></g><g
           transform="translate(198.4004,72.2695)"
           id="g60"><path
             id="path62"
             style="fill:#009fd7;fill-opacity:1;fill-rule:evenodd;stroke:none"
             d="m 0,0 -0.5,-4.289 -2.45,-1.36 -15.72,-8.71 -4.23,-2.34 -1.481,-0.821 h -98.03 l -2.259,1.25 -5.79,3.21 -14.9,8.25 -0.94,0.521 -0.301,2.64 -0.44,3.75 c 5.011,1.86 9.581,3.649 16.94,0.78 2.151,-0.841 4.17,-1.521 6.071,-2.061 9.969,-2.87 16.77,-2 22.32,-0.179 9.87,3.25 15.79,9.53 28.54,3.309 2.319,-1.13 4.46,-2.04 6.44,-2.76 9.78,-3.58 15.79,-2.629 20.98,-0.66 8.76,3.34 15.17,9.561 33.38,1.731 1.59,-0.681 3.09,-1.2 4.5,-1.571 C -4.96,-0.069 -2.391,-0.22 0,0" /></g><g
           transform="translate(198.5195,73.3896)"
           id="g64"><path
             id="path66"
             style="fill:#00adee;fill-opacity:1;fill-rule:evenodd;stroke:none"
             d="m 0,0 -0.119,-1.12 -0.5,-4.289 -2.45,-1.361 -15.72,-8.709 -4.231,-2.34 -1.48,-0.821 -2.01,-1.11 -3.389,-1.88 h -87.241 l -4.42,2.45 -0.97,0.54 -2.26,1.25 -5.79,3.21 -14.899,8.25 -0.94,0.521 -0.301,2.639 c 2.02,-0.639 4.071,-1.15 6.27,-1.339 2.761,-0.25 5.761,-0.011 9.25,1.099 0.991,0.321 2.02,0.7 3.091,1.16 1.389,0.6 2.71,1.111 3.96,1.55 10.639,3.74 16.81,2.16 22.319,-0.179 3.15,-1.331 6.08,-2.911 9.5,-3.901 5.02,-1.45 11.101,-1.609 20.471,2.2 1.429,0.58 2.939,1.25 4.54,2.031 0.16,0.08 0.309,0.149 0.469,0.219 9.161,4.3 14.771,2.09 20.981,-0.66 2.93,-1.29 6,-2.71 9.63,-3.609 5.439,-1.351 12.16,-1.571 21.62,1.47 1.349,0.429 2.76,0.929 4.229,1.5 0.84,0.33 1.64,0.589 2.401,0.799 C -4.93,0.42 -2.359,0.42 0,0" /></g><g
           transform="translate(189.9502,68.4297)"
           id="g68"><path
             id="path70"
             style="fill:#21b9ec;fill-opacity:1;fill-rule:evenodd;stroke:none"
             d="m 0,0 c 1.97,-0.85 3.79,-1.43 5.5,-1.81 l -15.72,-8.71 -4.23,-2.339 -1.481,-0.821 -2.009,-1.11 -3.39,-1.88 -1.08,-0.6 -4.54,-2.509 h -76.01 l -5.61,3.109 -4.42,2.45 -0.97,0.54 -2.26,1.25 -5.79,3.21 -14.9,8.25 c 1.74,0.6 3.38,1.26 5.03,1.821 2.83,0.95 5.71,1.609 9.25,1.099 1.5,-0.21 3.12,-0.63 4.91,-1.33 17.43,-6.8 26.37,-3.38 33.96,-0.04 6.37,2.811 11.78,5.561 20.47,2.2 0.8,-0.3 1.64,-0.67 2.5,-1.09 18.07,-8.79 25.229,-4.46 33.12,-0.929 C -22.15,3.24 -16.28,5.33 -6.05,2.23 -4.19,1.67 -2.181,0.94 0,0" /></g><g
           transform="translate(179.7305,57.9102)"
           id="g72"><path
             id="path74"
             style="fill:#44c7f4;fill-opacity:1;fill-rule:evenodd;stroke:none"
             d="m 0,0 -4.23,-2.34 -1.481,-0.82 -2.01,-1.111 -3.389,-1.879 -1.08,-0.6 -4.54,-2.51 -0.741,-0.41 -9.25,-5.13 -7.859,-4.35 -2.54,-1.411 -9.86,-5.46 -1.831,-1.009 -3.2,-1.77 -2.719,-1.511 -2.721,1.511 -0.25,0.14 -4.779,2.639 -3.36,1.861 -5.87,3.25 -0.63,0.349 -8.79,4.871 -7.81,4.32 -3.8,2.11 -5.611,3.11 -4.42,2.45 -0.97,0.54 -2.259,1.25 -5.791,3.21 c 0.261,0.099 0.52,0.22 0.791,0.33 31.18,13.41 27.75,-14.39 60.8,1.69 C -30.431,12.95 -27.091,-7.44 0,0" /></g><g
           transform="translate(197.9004,67.9805)"
           id="g76"><path
             id="path78"
             style="fill:#dd0031;fill-opacity:1;fill-rule:nonzero;stroke:none"
             d="m 0,0 -55.29,-30.631 -9.86,-5.46 -5.031,-2.779 -2.719,-1.511 -2.721,1.511 -5.029,2.779 -9.86,5.46 L -145.8,0 -149.61,33.02 -72.9,60.379 3.81,33.02 Z m 5.149,36.789 -0.87,0.311 -75.84,27.049 c -0.429,0.151 -0.889,0.23 -1.339,0.23 -0.451,0 -0.911,-0.079 -1.34,-0.23 L -150.081,37.1 -150.95,36.789 c -1.76,-0.63 -2.85,-2.38 -2.631,-4.229 l 3.81,-33.021 c 0.141,-1.279 0.9,-2.409 2.031,-3.039 l 55.29,-30.631 9.86,-5.46 5.04,-2.779 2.71,-1.511 c 0.6,-0.33 1.27,-0.5 1.94,-0.5 0.67,0 1.339,0.17 1.94,0.5 l 2.72,1.511 5.019,2.779 9.87,5.46 55.29,30.631 c 1.13,0.63 1.891,1.76 2.031,3.039 L 7.779,32.56 C 8,34.409 6.909,36.159 5.149,36.789" /></g><g
           transform="translate(78.0488,40.5479)"
           id="g80"><path
             id="path82"
             style="fill:#dd0031;fill-opacity:1;fill-rule:nonzero;stroke:none"
             d="m 0,0 -8.109,5.943 -3.316,2.435 -8.301,6.092 -2.962,65.192 -0.193,4.263 -3.268,71.806 8.446,3.987 3.155,1.488 10.975,5.188 1.686,-78.567 0.096,-4.285 z" /></g><g
           transform="translate(63.2856,126.2134)"
           id="g84"><path
             id="path86"
             style="fill:#0083db;fill-opacity:1;fill-rule:nonzero;stroke:none"
             d="m 0,0 -9.027,-1.673 -3.57,78.458 9.228,4.357 z" /></g><g
           id="g88"><g
             id="g90" /><g
             id="g102"><g
               style="opacity:0.25"
               id="g100"
               clip-path="url(#clipPath94)"><g
                 id="g98"
                 transform="translate(81.3398,44.1797)"><path
                   id="path96"
                   style="fill:#000000;fill-opacity:1;fill-rule:nonzero;stroke:none"
                   d="m 0,0 -6.79,3.771 -1.17,27.959 -6.42,90.041 6.02,35.5 4.47,1.589 z" /></g></g></g></g><g
           transform="translate(79.2603,32.8398)"
           id="g104"><path
             id="path106"
             style="fill:#0083db;fill-opacity:1;fill-rule:nonzero;stroke:none"
             d="m 0,0 -8.86,6.494 -3.439,82.872 10.342,1.917 z" /></g><g
           transform="translate(66.9614,122.2061)"
           id="g108"><path
             id="path110"
             style="fill:#dd0031;fill-opacity:1;fill-rule:nonzero;stroke:none"
             d="m 0,0 3.438,-82.872 -3.623,2.66 -9.07,6.656 -3.237,71.233 -0.211,4.657 9.027,1.673 -3.368,81.142 3.447,1.626 3.404,-82.117 10.43,1.94 0.105,-4.681 z" /></g><g
           transform="translate(66.9614,122.2061)"
           id="g112"><path
             id="path114"
             style="fill:#ffffff;fill-opacity:1;fill-rule:nonzero;stroke:none"
             d="m 0,0 3.438,-82.872 -3.623,2.66 -3.298,79.562 -9.009,-1.673 -0.211,4.657 9.027,1.673 -3.368,81.142 3.447,1.626 3.404,-82.117 10.43,1.94 0.105,-4.681 z" /></g><g
           transform="translate(77.1987,128.8042)"
           id="g116"><path
             id="path118"
             style="fill:#dd0031;fill-opacity:1;fill-rule:nonzero;stroke:none"
             d="m 0,0 -10.431,-1.94 -3.403,82.117 11.992,5.669 z" /></g><g
           transform="translate(171.9512,40.5479)"
           id="g120"><path
             id="path122"
             style="fill:#dd0031;fill-opacity:1;fill-rule:nonzero;stroke:none"
             d="m 0,0 8.108,5.943 3.317,2.435 8.302,6.092 2.961,65.192 0.194,4.263 3.267,71.806 -8.446,3.987 -3.155,1.488 L 3.572,166.394 1.887,87.827 1.79,83.542 Z" /></g><g
           transform="translate(186.7139,126.2134)"
           id="g124"><path
             id="path126"
             style="fill:#dd0031;fill-opacity:1;fill-rule:nonzero;stroke:none"
             d="m 0,0 9.027,-1.673 3.571,78.458 -9.229,4.357 z" /></g><g
           id="g128"><g
             id="g130" /><g
             id="g142"><g
               style="opacity:0.25"
               id="g140"
               clip-path="url(#clipPath134)"><g
                 id="g138"
                 transform="translate(183.04,165.9502)"><path
                   id="path136"
                   style="fill:#000000;fill-opacity:1;fill-rule:nonzero;stroke:none"
                   d="M 0,0 -6.42,-90.04 -7.58,-118 h -0.01 l -6.79,-3.771 3.89,158.861 4.469,-1.59 z" /></g></g></g></g><g
           transform="translate(170.7402,32.8398)"
           id="g144"><path
             id="path146"
             style="fill:#dd0031;fill-opacity:1;fill-rule:nonzero;stroke:none"
             d="m 0,0 8.859,6.494 3.44,82.872 -10.343,1.917 z" /></g><g
           transform="translate(183.0391,122.2061)"
           id="g148"><path
             id="path150"
             style="fill:#0083db;fill-opacity:1;fill-rule:nonzero;stroke:none"
             d="m 0,0 -3.439,-82.872 3.623,2.66 9.071,6.656 3.236,71.233 0.211,4.657 L 3.675,4.007 7.044,85.149 3.597,86.775 0.192,4.658 -10.237,6.598 -10.343,1.917 Z" /></g><g
           transform="translate(183.2637,122.2061)"
           id="g152"><path
             id="path154"
             style="fill:#ffffff;fill-opacity:1;fill-rule:nonzero;stroke:none"
             d="m 0,0 -3.438,-82.872 3.623,2.66 3.297,79.562 9.01,-1.673 0.21,4.657 -9.026,1.673 3.368,81.142 -3.447,1.626 -3.404,-82.117 -10.43,1.94 -0.106,-4.681 z" /></g><g
           transform="translate(172.8018,128.8042)"
           id="g156"><path
             id="path158"
             style="fill:#0083db;fill-opacity:1;fill-rule:nonzero;stroke:none"
             d="M 0,0 10.43,-1.94 13.834,80.177 1.842,85.846 Z" /></g><g
           transform="translate(109.9702,187.5195)"
           id="g160"><path
             id="path162"
             style="fill:#1c1c1c;fill-opacity:1;fill-rule:nonzero;stroke:none"
             d="M 0,0 H 4.156 L 8.951,-16.694 V 0 h 3.694 V -24.864 H 8.667 L 3.694,-8.951 V -24.864 H 0 Z" /></g><g
           transform="translate(134.7266,179.7764)"
           id="g164"><path
             id="path166"
             style="fill:#1c1c1c;fill-opacity:1;fill-rule:nonzero;stroke:none"
             d="m 0,0 v 2.096 c 0,0.781 -0.201,1.385 -0.604,1.811 -0.403,0.426 -0.958,0.639 -1.669,0.639 -0.71,0 -1.267,-0.213 -1.669,-0.639 -0.404,-0.426 -0.604,-1.03 -0.604,-1.811 v -13.569 c 0,-0.781 0.2,-1.385 0.604,-1.812 0.402,-0.426 0.959,-0.639 1.669,-0.639 0.711,0 1.266,0.213 1.669,0.639 0.403,0.427 0.604,1.031 0.604,1.812 v 4.405 h -2.273 v 3.551 h 6.039 v -7.956 c 0,-1.8 -0.557,-3.25 -1.67,-4.351 -1.114,-1.101 -2.57,-1.652 -4.369,-1.652 -1.8,0 -3.256,0.551 -4.369,1.652 -1.113,1.101 -1.67,2.551 -1.67,4.351 V 2.096 c 0,1.799 0.557,3.25 1.67,4.351 1.113,1.101 2.569,1.651 4.369,1.651 1.799,0 3.255,-0.55 4.369,-1.651 1.113,-1.101 1.67,-2.552 1.67,-4.351 V 0 Z" /></g><g
           transform="translate(89.8916,145.6787)"
           id="g168"><path
             id="path170"
             style="fill:#1c1c1c;fill-opacity:1;fill-rule:nonzero;stroke:none"
             d="m 0,0 c 0.444,0 0.788,0.122 1.032,0.366 0.243,0.243 0.365,0.587 0.365,1.031 v 7.956 c 0,0.444 -0.122,0.788 -0.365,1.032 C 0.788,10.628 0.444,10.75 0,10.75 H -1.183 V 0 Z m -3.461,12.9 h 3.568 c 1.09,0 1.957,-0.326 2.602,-0.978 C 3.354,11.27 3.677,10.399 3.677,9.31 V 1.44 C 3.677,0.351 3.354,-0.52 2.709,-1.172 2.064,-1.824 1.197,-2.15 0.107,-2.15 h -3.568 z" /></g><g
           transform="translate(100.3193,145.8506)"
           id="g172"><path
             id="path174"
             style="fill:#1c1c1c;fill-opacity:1;fill-rule:nonzero;stroke:none"
             d="M 0,0 C 0.243,0.258 0.365,0.624 0.365,1.097 V 9.31 c 0,0.473 -0.122,0.838 -0.365,1.096 -0.244,0.258 -0.581,0.387 -1.011,0.387 -0.43,0 -0.767,-0.129 -1.01,-0.387 C -2.265,10.148 -2.387,9.783 -2.387,9.31 V 1.097 c 0,-0.473 0.122,-0.839 0.366,-1.097 0.243,-0.258 0.58,-0.387 1.01,-0.387 0.43,0 0.767,0.129 1.011,0.387 m -3.655,-1.537 c -0.674,0.666 -1.011,1.544 -1.011,2.634 V 9.31 c 0,1.089 0.337,1.967 1.011,2.633 0.674,0.667 1.555,1 2.644,1 1.09,0 1.971,-0.333 2.645,-1 0.673,-0.666 1.01,-1.544 1.01,-2.633 V 1.097 c 0,-1.09 -0.337,-1.968 -1.01,-2.634 -0.674,-0.667 -1.555,-1 -2.645,-1 -1.089,0 -1.97,0.333 -2.644,1" /></g><g
           transform="translate(115.6265,158.5786)"
           id="g176"><path
             id="path178"
             style="fill:#1c1c1c;fill-opacity:1;fill-rule:nonzero;stroke:none"
             d="m 0,0 v -15.05 h -2.279 v 10.32 l -2.128,-10.32 h -1.592 l -2.128,10.32 v -10.32 h -2.236 V 0 h 3.225 L -5.16,-9.61 -3.268,0 Z" /></g><path
           id="path180"
           style="fill:#1c1c1c;fill-opacity:1;fill-rule:nonzero;stroke:none"
           d="m 118.121,158.579 h 2.279 v -15.05 h -2.279 z" /><g
           transform="translate(122.8931,158.5786)"
           id="g182"><path
             id="path184"
             style="fill:#1c1c1c;fill-opacity:1;fill-rule:nonzero;stroke:none"
             d="M 0,0 H 2.516 L 5.417,-10.105 V 0 H 7.654 V -15.05 H 5.246 l -3.01,9.632 V -15.05 H 0 Z" /></g><path
           id="path186"
           style="fill:#1c1c1c;fill-opacity:1;fill-rule:nonzero;stroke:none"
           d="m 133.041,158.579 h 2.279 v -15.05 h -2.279 z" /><g
           transform="translate(138.6094,144.3027)"
           id="g188"><path
             id="path190"
             style="fill:#1c1c1c;fill-opacity:1;fill-rule:nonzero;stroke:none"
             d="m 0,0 c -0.66,0.659 -0.989,1.519 -0.989,2.58 v 8.342 c 0,1.06 0.329,1.921 0.989,2.58 0.658,0.659 1.519,0.989 2.579,0.989 1.061,0 1.921,-0.33 2.58,-0.989 0.659,-0.659 0.989,-1.52 0.989,-2.58 V 9.159 H 3.912 v 1.763 c 0,0.43 -0.121,0.774 -0.365,1.032 -0.244,0.258 -0.559,0.387 -0.946,0.387 -0.387,0 -0.703,-0.129 -0.946,-0.387 C 1.411,11.696 1.289,11.352 1.289,10.922 V 2.58 C 1.289,2.15 1.411,1.806 1.655,1.548 1.898,1.29 2.214,1.161 2.601,1.161 2.988,1.161 3.303,1.29 3.547,1.548 3.791,1.806 3.912,2.15 3.912,2.58 V 4.73 H 6.148 V 2.58 C 6.148,1.519 5.818,0.659 5.159,0 4.5,-0.659 3.64,-0.989 2.579,-0.989 1.519,-0.989 0.658,-0.659 0,0" /></g><g
           transform="translate(151.0361,149.0542)"
           id="g192"><path
             id="path194"
             style="fill:#1c1c1c;fill-opacity:1;fill-rule:nonzero;stroke:none"
             d="M 0,0 -0.925,6.3 -1.849,0 Z M 0.301,-2.193 H -2.15 L -2.645,-5.525 H -4.924 L -2.43,9.524 H 0.624 L 3.117,-5.525 H 0.796 Z" /></g><g
           transform="translate(155.917,158.5786)"
           id="g196"><path
             id="path198"
             style="fill:#1c1c1c;fill-opacity:1;fill-rule:nonzero;stroke:none"
             d="M 0,0 H 2.516 L 5.418,-10.105 V 0 H 7.654 V -15.05 H 5.246 l -3.01,9.632 V -15.05 H 0 Z" /></g><g
           transform="translate(148.5762,91.5869)"
           id="g200"><path
             id="path202"
             style="fill:#fff4bb;fill-opacity:1;fill-rule:nonzero;stroke:none"
             d="m 0,0 c 0,-5.073 -4.112,-9.187 -9.187,-9.187 -5.073,0 -9.185,4.114 -9.185,9.187 0,5.073 4.112,9.186 9.185,9.186 C -4.112,9.186 0,5.073 0,0" /></g><g
           transform="translate(150.3945,82.418)"
           id="g204"><path
             id="path206"
             style="fill:#1c1c1c;fill-opacity:1;fill-rule:nonzero;stroke:none"
             d="m 0,0 c 0,0 0.697,1.106 -0.805,2.344 -0.2,0.165 0.15,-0.03 -0.429,0.304 -0.579,0.334 -1.076,0.168 -1.076,0.168 0,0 0.513,0.514 0.24,0.568 -0.273,0.054 -1.703,-0.148 -1.703,-0.148 0,0 1.149,0.476 0.836,0.592 C -3.249,3.943 -3.419,4 -3.681,3.975 -3.943,3.949 -4.097,3.959 -4.295,3.734 -4.493,3.51 -5.22,3.215 -5.22,3.215 c 0,0 0.792,1.028 0.544,0.946 C -4.923,4.078 -5.552,4.026 -5.552,4.026 l -1.115,-0.965 0.512,0.777 c 0,0 -0.57,-0.151 -0.867,-0.356 -0.298,-0.205 -1.289,-1.238 -1.289,-1.238 0,0 0.955,1.201 0.118,0.606 -0.462,-0.329 -0.933,-0.876 -1.263,-1.302 0.099,0.611 0.168,1.33 0.071,1.82 -0.2,1.015 -0.339,-0.55 -0.339,-0.55 0,0 -0.005,1.457 -0.082,1.813 -0.076,0.354 -0.392,0.847 -0.392,0.847 l -0.167,-0.943 -0.148,1.486 c 0,0 -0.427,0.453 -0.552,0.68 -0.125,0.227 -0.263,-1.096 -0.263,-1.096 0,0 -0.33,0.707 -0.318,1.013 0.01,0.305 -0.11,0.398 -0.286,0.59 -0.176,0.192 -0.341,0.26 -0.654,0.374 -0.312,0.115 0.203,-1.011 0.203,-1.011 0,0 -0.916,1.096 -1.156,1.234 -0.24,0.137 -0.223,-0.6 -0.223,-0.6 0,0 -0.25,0.455 -0.913,0.574 -0.663,0.121 0.213,0.033 -0.942,0.126 -1.155,0.093 -2.524,-1.481 -2.524,-1.481 0,0 2.536,0.703 5.139,-1.315 1.008,-0.781 1.58,-1.722 1.904,-2.584 l -0.422,0.229 0.179,-0.806 c -0.589,0.752 -1.289,1.284 -2.929,1.524 -1.395,0.203 0.676,-0.857 0.676,-0.857 0,0 -1.931,0.652 -2.412,0.761 -0.481,0.109 -1.198,-0.134 -1.198,-0.134 l 1.197,-0.656 -1.975,0.628 c 0,0 -0.685,-0.189 -1.009,-0.194 -0.324,-0.005 1.377,-0.831 1.377,-0.831 0,0 -0.997,0.042 -1.395,0.212 -0.395,0.17 -0.543,0.1 -0.833,0.026 -0.29,-0.074 -0.413,-0.203 -0.63,-0.452 -0.217,-0.25 1.367,-0.327 1.367,-0.327 0,0 -1.631,-0.336 -1.862,-0.502 -0.231,-0.167 0.738,-0.533 0.738,-0.533 0,0 -0.65,-0.01 -0.949,-0.604 -0.299,-0.595 -0.613,-0.768 -0.551,-2.342 0.061,-1.574 0.125,-3.267 0.125,-3.267 0,0 1.159,4.086 4.302,5.729 2.788,1.456 4.682,0.809 5.644,0.206 -0.671,0.1 -1.498,0.17 -2.055,0.032 -1.082,-0.267 0.578,-0.341 0.578,-0.341 0,0 -1.379,-0.39 -1.757,-0.49 -0.378,-0.1 -0.907,-0.467 -0.907,-0.467 l 0.999,-0.135 -1.581,-0.233 c 0,0 -0.488,-0.487 -0.732,-0.634 -0.243,-0.147 1.16,-0.23 1.16,-0.23 0,0 -0.758,-0.394 -1.082,-0.397 -0.323,-0.003 -0.424,-0.136 -0.632,-0.337 -0.208,-0.202 -0.281,-0.383 -0.408,-0.729 -0.127,-0.345 1.077,0.271 1.077,0.271 0,0 -1.18,-1.049 -1.329,-1.316 -0.151,-0.267 0.634,-0.212 0.634,-0.212 0,0 -0.489,-0.294 -0.626,-1.019 -0.035,-0.184 -0.058,-0.253 -0.072,-0.27 0.004,-0.058 0.01,-0.156 0.014,-0.31 0.057,-1.936 1.568,-1.906 1.568,-1.906 0,0 -0.994,1.574 1.195,4.498 1.408,1.882 3.389,2.433 4.625,2.587 l 0.043,-0.033 c -0.175,-0.382 -0.346,-0.766 -0.511,-1.149 l -0.121,0.195 -0.548,-1.81 c -0.041,-0.102 -0.082,-0.205 -0.122,-0.308 l -0.07,0.113 -0.457,-1.509 c -0.08,-0.217 -0.159,-0.436 -0.236,-0.654 l -0.15,0.19 -0.23,-1.293 c -0.156,-0.468 -0.306,-0.936 -0.451,-1.403 l -0.157,0.198 -0.317,-1.794 c -0.046,-0.159 -0.091,-0.318 -0.135,-0.477 l -0.146,0.183 -0.397,-2.241 c -0.05,-0.2 -0.1,-0.4 -0.148,-0.599 l -0.194,0.213 -0.202,-1.938 c -0.092,-0.417 -0.179,-0.831 -0.263,-1.242 l -0.204,0.214 -0.191,-2.276 c -0.082,-0.454 -0.16,-0.902 -0.234,-1.345 l -0.263,0.258 -0.13,-2.844 0.003,0.011 c -0.062,-0.438 -0.118,-0.871 -0.172,-1.294 l -0.234,0.207 0.009,-2.113 c -0.069,-0.634 -0.132,-1.243 -0.186,-1.825 l -0.241,0.213 0.011,-2.848 0.006,0.029 c -0.016,-0.193 -0.029,-0.379 -0.044,-0.562 l -0.351,0.276 0.175,-2.646 c -0.002,-0.03 -0.004,-0.058 -0.007,-0.087 -3.361,0.336 -6.85,0.52 -10.433,0.523 -0.745,0.505 -1.453,1.028 -2.005,1.404 -0.263,0.178 -0.656,0.298 -1.119,0.379 l 0.831,3.194 -0.611,-0.327 c 0.034,0.287 0.068,0.58 0.103,0.883 v -0.046 l 0.865,4.406 -0.424,-0.263 c 0.09,0.919 0.179,1.88 0.264,2.88 l 0.641,3.269 -0.411,-0.253 c 0.046,0.67 0.089,1.355 0.128,2.054 l 10e-4,-0.02 0.652,4.441 -0.474,-0.324 c 0.023,0.707 0.04,1.424 0.053,2.15 l 0.389,3.579 -0.369,-0.275 c -0.004,0.661 -0.011,1.328 -0.024,2 l 0.273,3.058 -0.355,-0.273 c -0.013,0.322 -0.027,0.645 -0.042,0.969 l 0.07,3.585 -0.272,-0.242 c -0.019,0.259 -0.039,0.519 -0.06,0.778 l 0.058,2.869 -0.295,-0.262 c -0.079,0.764 -0.165,1.532 -0.26,2.302 l 0.041,2.069 -0.282,-0.251 c -0.051,0.358 -0.103,0.72 -0.158,1.08 l -0.236,2.468 -0.14,-0.157 c -0.029,0.172 -0.06,0.343 -0.091,0.514 l -0.283,2.96 -0.239,-0.268 c -0.134,0.642 -0.277,1.285 -0.425,1.927 l 0.075,0.038 c 1.807,-0.595 4.617,-2.02 6.169,-5.34 2.414,-5.16 0.453,-7.307 0.453,-7.307 0,0 2.26,-0.483 2.92,2.496 0.054,0.238 0.09,0.387 0.115,0.477 -0.015,0.029 -0.029,0.143 -0.026,0.438 0.008,1.162 -0.636,1.758 -0.636,1.758 0,0 1.159,-0.312 1.013,0.144 -0.145,0.456 -1.603,2.421 -1.603,2.421 0,0 1.625,-1.299 1.537,-0.729 -0.088,0.571 -0.144,0.875 -0.396,1.245 -0.252,0.371 -0.363,0.607 -0.848,0.706 -0.485,0.099 -1.506,0.926 -1.506,0.926 0,0 2.131,-0.276 1.81,0.021 -0.322,0.299 -0.91,1.194 -0.91,1.194 l -2.303,0.816 1.539,-0.079 c 0,0 -0.684,0.721 -1.222,0.985 -0.539,0.265 -2.491,1.268 -2.491,1.268 0,0 2.514,-0.367 0.97,0.359 -0.795,0.375 -2.057,0.505 -3.093,0.543 1.622,0.656 4.656,1.112 8.407,-1.949 4.229,-3.45 4.75,-10.108 4.75,-10.108 0,0 0.601,2.599 1.163,5.019 0.56,2.419 0.141,2.777 -0.13,3.784 -0.272,1.005 -1.243,1.21 -1.243,1.21 0,0 1.562,0.287 1.265,0.612 -0.298,0.323 -2.644,1.315 -2.644,1.315 0,0 2.399,-0.34 2.147,0.109 -0.252,0.45 -0.397,0.684 -0.81,0.883 -0.413,0.198 -0.613,0.35 -1.258,0.201 -0.648,-0.148 -2.157,0.076 -2.157,0.076 0,0 2.8,0.785 2.316,0.887 -0.485,0.102 -1.457,0.591 -1.457,0.591 l -3.152,-0.401 1.993,0.671 c 0,0 -1.004,0.583 -1.759,0.552 -0.754,-0.031 -3.846,-0.479 -3.846,-0.479 0,0 3.423,1.04 1.269,1.129 -2.532,0.104 -3.741,-0.519 -4.85,-1.512 l 0.508,1.195 -0.7,-0.231 c 0.743,1.239 1.882,2.531 3.627,3.449 4.508,2.372 8.103,0.551 8.103,0.551 0,0 -1.583,2.833 -3.345,3.022 -1.761,0.191 -0.419,0.073 -1.452,0.078 -1.029,0.006 -1.541,-0.625 -1.541,-0.625 0,0 0.245,1.135 -0.155,0.993 -0.401,-0.144 -2.103,-1.576 -2.103,-1.576 0,0 1.108,1.594 0.605,1.506 -0.503,-0.087 -0.771,-0.143 -1.093,-0.389 -0.321,-0.248 -0.529,-0.357 -0.603,-0.832 -0.074,-0.476 -0.781,-1.477 -0.781,-1.477 0,0 0.188,2.088 -0.067,1.773 C -30.175,31.577 -30.952,31 -30.952,31 l -0.663,-2.256 0.029,1.507 c 0,0 -0.621,-0.671 -0.84,-1.198 -0.22,-0.528 -0.664,-2.782 -0.664,-2.782 0,0 0.258,2.462 -0.345,0.95 -0.292,-0.733 -0.4,-1.866 -0.435,-2.84 -0.369,0.756 -0.913,1.739 -1.507,2.381 -1.08,1.164 -0.004,-0.972 -0.004,-0.972 0,0 -1.18,1.886 -1.565,2.289 -0.385,0.402 -1.196,0.801 -1.196,0.801 l 0.537,-1.351 -1.386,1.817 c 0,0 -0.927,0.261 -1.275,0.462 -0.347,0.2 0.535,-1.622 0.535,-1.622 0,0 -1.003,0.668 -1.233,1.072 -0.231,0.404 -0.463,0.433 -0.849,0.55 -0.387,0.115 -0.658,0.076 -1.162,-0.013 -0.503,-0.089 1.079,-1.157 1.079,-1.157 0,0 -2.086,0.724 -2.511,0.719 -0.426,-0.003 0.19,-0.947 0.19,-0.947 0,0 -0.695,0.401 -1.663,0.051 -0.969,-0.35 -0.387,-0.149 -0.737,-0.347 -2.622,-1.481 -1.904,-3.395 -1.904,-3.395 0,0 1.96,2.553 6.844,1.506 1.899,-0.409 3.362,-1.299 4.41,-2.178 -0.914,0.184 -1.156,0.214 -1.156,0.214 0,0 0.605,-0.556 1.251,-1.025 -0.796,0.164 -1.647,0.26 -2.308,0.134 -1.719,-0.326 1.035,-0.525 1.035,-0.525 0,0 -2.533,-0.028 -3.133,-0.151 -0.6,-0.124 -1.382,-0.626 -1.382,-0.626 l 1.677,-0.252 -2.549,-0.248 c 0,0 -0.689,-0.677 -1.056,-0.877 -0.365,-0.199 1.967,-0.399 1.967,-0.399 0,0 -1.155,-0.526 -1.688,-0.513 -0.533,0.014 -0.667,-0.175 -0.961,-0.454 -0.294,-0.279 -0.372,-0.54 -0.499,-1.032 -0.128,-0.491 1.711,0.33 1.711,0.33 0,0 -1.694,-1.452 -1.877,-1.83 -0.183,-0.379 1.094,-0.343 1.094,-0.343 0,0 -0.733,-0.398 -0.788,-1.44 -0.055,-1.044 -0.328,-1.482 0.498,-3.742 0.826,-2.262 2.966,-4.917 2.966,-4.917 0,0 -1.938,7.07 0.653,11.402 2.096,3.505 4.929,3.3 6.476,2.841 -0.534,-0.505 -1.325,-1.327 -1.892,-2.247 -0.935,-1.513 0.749,-0.004 0.749,-0.004 0,0 -1.494,-1.655 -1.818,-2.196 -0.324,-0.54 -0.658,-1.676 -0.658,-1.676 l 1.06,0.754 -1.447,-1.945 c 0,0 -0.232,-1.299 -0.398,-1.786 -0.166,-0.486 1.269,0.752 1.269,0.752 0,0 -0.549,-1.405 -0.868,-1.729 -0.32,-0.324 -0.35,-0.649 -0.452,-1.191 -0.102,-0.541 -0.081,-0.92 -0.029,-1.625 0.051,-0.705 0.929,1.513 0.929,1.513 0,0 -0.629,-2.923 -0.639,-3.52 -0.011,-0.595 0.738,0.269 0.738,0.269 0,0 -0.332,-0.975 -0.094,-2.33 0.238,-1.357 0.243,-1.031 0.243,-1.031 l 1.759,-2.068 c 0,0 -1.018,2.072 -0.359,9.142 0.477,5.119 2.469,8.262 3.532,9.607 0.106,-0.577 0.212,-1.154 0.308,-1.73 l -0.278,0.116 0.654,-2.577 c 0.041,-0.291 0.081,-0.583 0.119,-0.874 l -0.296,0.124 0.538,-2.12 c 0.053,-0.483 0.103,-0.963 0.149,-1.443 l -0.317,0.133 0.469,-1.849 c 0.065,-0.802 0.121,-1.6 0.167,-2.393 l -0.369,0.182 0.485,-2.576 c 0.013,-0.356 0.024,-0.711 0.035,-1.064 l -0.43,0.211 0.472,-2.503 c 0.004,-0.54 0.005,-1.078 0.002,-1.613 l -0.361,0.21 0.324,-2.705 c -0.022,-0.864 -0.052,-1.717 -0.09,-2.561 l -0.494,0.286 0.347,-2.897 c -0.059,-0.9 -0.126,-1.784 -0.202,-2.652 l -0.446,0.307 0.147,-3.35 c -0.115,-1.045 -0.239,-2.063 -0.371,-3.049 l -0.48,0.364 -0.012,-3.719 c -0.128,-0.801 -0.26,-1.574 -0.394,-2.32 l -0.39,0.338 -0.232,-3.562 c -0.114,-0.546 -0.227,-1.074 -0.34,-1.578 l -0.642,0.556 -0.254,-3.883 c -0.293,-0.011 -0.492,-0.013 -0.55,0.006 -0.113,0.037 -0.463,-0.158 -0.869,-0.444 -1.243,0.278 -2.201,0.457 -2.624,0.443 -1.668,-0.058 -1.251,-2.445 -6.046,-2.721 -2.608,-0.149 -4.532,-1.041 -5.75,-1.823 -1.98,-0.489 -3.874,-1.038 -5.676,-1.642 l 14.404,-7.979 9.859,-5.46 5.03,-2.78 2.72,-1.51 2.72,1.51 5.03,2.78 9.861,5.46 11.977,6.635 c -4.408,1.794 -9.54,3.232 -15.177,4.208 -0.654,0.223 -1.183,0.43 -1.487,0.601 -0.459,0.26 -1.379,0.37 -2.535,0.394 l 0.33,2.542 -0.481,-0.269 c -0.01,0.326 -0.018,0.67 -0.023,1.023 l 0.291,2.247 -0.293,-0.164 c 0.006,0.481 0.018,0.979 0.035,1.493 l 0.452,2.318 -0.354,-0.17 c 0.037,0.63 0.084,1.28 0.139,1.944 l 0.509,2.07 -0.325,-0.138 c 0.059,0.55 0.124,1.108 0.198,1.676 l 0.582,1.763 -0.353,-0.119 c 0.08,0.531 0.166,1.066 0.259,1.607 l 0.542,1.645 -0.258,-0.087 c 0.065,0.333 0.131,0.668 0.201,1.005 l 0.613,1.502 -0.302,-0.08 c 0.05,0.219 0.101,0.439 0.154,0.658 l 0.63,1.547 -0.26,-0.069 c 0.128,0.489 0.262,0.979 0.404,1.471 l 0.53,1.095 -0.221,-0.044 c 0.089,0.293 0.181,0.586 0.275,0.88 l 0.607,1.256 -0.205,-0.041 c 0.06,0.177 0.122,0.354 0.184,0.53 l 0.74,1.528 -0.194,-0.039 c 0.133,0.346 0.272,0.694 0.412,1.041 0.517,-0.966 1.408,-3.163 1.082,-6.41 -0.451,-4.482 -1.362,-5.651 -1.362,-5.651 l 1.386,1.077 c 0,0 -0.036,-0.203 0.284,0.614 0.319,0.815 0.228,1.461 0.228,1.461 0,0 0.374,-0.627 0.44,-0.254 0.067,0.372 0.025,2.268 0.025,2.268 0,0 0.29,-1.486 0.41,-1.054 0.121,0.433 0.181,0.667 0.182,1.017 0.002,0.35 0.023,0.556 -0.143,0.795 -0.165,0.24 -0.344,1.182 -0.344,1.182 0,0 0.77,-0.944 0.723,-0.622 -0.046,0.324 -0.035,1.161 -0.035,1.161 l -0.69,1.384 0.588,-0.596 c 0,0 -0.074,0.748 -0.215,1.124 -0.142,0.375 -0.897,1.585 -0.897,1.585 0,0 0.895,-1.142 0.482,-0.088 -0.251,0.641 -0.657,1.249 -0.937,1.628 1.05,0.099 2.895,-0.113 3.809,-2.547 1.129,-3.01 -0.991,-7.181 -0.991,-7.181 0,0 1.704,1.398 2.514,2.707 0.81,1.31 0.689,1.614 0.783,2.272 0.094,0.655 -0.328,0.992 -0.328,0.992 0,0 0.816,-0.176 0.745,0.082 -0.071,0.258 -0.98,1.365 -0.98,1.365 0,0 1.08,-0.732 1.059,-0.411 -0.021,0.322 -0.039,0.494 -0.193,0.703 -0.155,0.208 -0.217,0.343 -0.561,0.398 -0.345,0.055 -1.022,0.522 -1.022,0.522 0,0 1.524,-0.155 1.313,0.013 -0.211,0.168 -0.569,0.673 -0.569,0.673 l -1.608,0.46 1.11,-0.044 c 0,0 -0.441,0.406 -0.811,0.555 -0.371,0.149 -1.995,0.469 -1.995,0.469 0,0 1.794,-0.205 0.73,0.204 -0.409,0.157 -0.967,0.2 -1.5,0.193 0.474,0.215 0.931,0.489 0.931,0.489 0,0 -0.159,0.011 -0.769,0.005 0.783,0.422 1.833,0.801 3.103,0.828 C -0.943,1.826 0,0 0,0" /></g><g
           id="g208"><g
             id="g210" /><g
             id="g462"><g
               id="g460"
               clip-path="url(#clipPath214)"><g
                 id="g218"
                 transform="translate(132.3662,78.915)"><path
                   id="path216"
                   style="fill:#fff4bb;fill-opacity:1;fill-rule:nonzero;stroke:none"
                   d="m 0,0 c -0.016,-0.041 -0.03,-0.077 -0.047,-0.123 -0.009,-0.024 0.002,-0.034 0.006,-0.05 0.199,0.184 0.353,0.32 0.353,0.32 C 0.312,0.147 0.173,0.078 0,0" /></g><g
                 id="g222"
                 transform="translate(136.125,85.8896)"><path
                   id="path220"
                   style="fill:#fff4bb;fill-opacity:1;fill-rule:nonzero;stroke:none"
                   d="M 0,0 C -0.339,0.049 -0.471,0.022 -0.479,-0.044 0.982,-0.299 1.65,-0.812 2.21,-1.523 L 2.031,-0.718 2.255,-0.839 C 1.753,-0.446 1.083,-0.158 0,0" /></g><g
                 id="g226"
                 transform="translate(132.3564,88.9512)"><path
                   id="path224"
                   style="fill:#fff4bb;fill-opacity:1;fill-rule:nonzero;stroke:none"
                   d="m 0,0 c -0.061,-0.063 -0.103,-0.109 -0.103,-0.109 0,0 0.283,0.076 0.749,0.105 C 0.406,0.011 0.189,0.01 0,0" /></g><g
                 id="g230"
                 transform="translate(133.0928,82.5469)"><path
                   id="path228"
                   style="fill:#fff4bb;fill-opacity:1;fill-rule:nonzero;stroke:none"
                   d="M 0,0 C 1.095,0.571 2.046,0.812 2.862,0.865 1.906,0.937 0.714,0.748 -0.72,0 c -1.843,-0.964 -3,-2.764 -3.644,-4.09 0.035,-0.927 0.061,-1.639 0.061,-1.639 0,0 1.159,4.086 4.303,5.729" /></g><g
                 id="g234"
                 transform="translate(137.1055,82.8467)"><path
                   id="path232"
                   style="fill:#fff4bb;fill-opacity:1;fill-rule:nonzero;stroke:none"
                   d="M 0,0 C 0.311,-0.018 0.625,-0.051 0.911,-0.094 0.861,-0.062 0.799,-0.032 0.744,-0.001 0.486,0.015 0.233,0.019 0,0" /></g><g
                 id="g238"
                 transform="translate(132.0068,85.5322)"><path
                   id="path236"
                   style="fill:#fff4bb;fill-opacity:1;fill-rule:nonzero;stroke:none"
                   d="M 0,0 1.661,-0.528 0.669,0.016 0.405,0.1 C 0.405,0.1 0.222,0.049 0,0" /></g><g
                 id="g242"
                 transform="translate(130.5742,84.8506)"><path
                   id="path240"
                   style="fill:#fff4bb;fill-opacity:1;fill-rule:nonzero;stroke:none"
                   d="m 0,0 c 0.032,-0.012 0.057,-0.016 0.093,-0.031 0.396,-0.17 1.394,-0.212 1.394,-0.212 0,0 -0.078,0.038 -0.182,0.09 -0.19,0.031 -0.37,0.07 -0.493,0.122 C 0.427,0.134 0.274,0.071 0,0" /></g><g
                 id="g246"
                 transform="translate(127.5186,91.792)"><path
                   id="path244"
                   style="fill:#fff4bb;fill-opacity:1;fill-rule:nonzero;stroke:none"
                   d="M 0,0 C 0.054,0.238 0.09,0.387 0.115,0.477 0.1,0.506 0.086,0.62 0.089,0.915 0.095,1.818 -0.29,2.375 -0.463,2.58 -0.764,2.541 -1.267,2.673 -1.267,2.673 c 0,0 0.645,-0.596 0.636,-1.758 C -0.633,0.62 -0.62,0.506 -0.604,0.477 -0.629,0.387 -0.666,0.238 -0.719,0 -1.138,-1.89 -2.199,-2.385 -2.92,-2.496 v 0 c 0,0 2.26,-0.483 2.92,2.496" /></g><g
                 id="g250"
                 transform="translate(127.9189,96.3008)"><path
                   id="path248"
                   style="fill:#fff4bb;fill-opacity:1;fill-rule:nonzero;stroke:none"
                   d="M 0,0 C -0.089,0.571 -0.145,0.875 -0.396,1.245 -0.648,1.616 -0.76,1.853 -1.244,1.951 -1.637,2.03 -2.37,2.58 -2.641,2.791 -3.068,2.825 -3.47,2.877 -3.47,2.877 c 0,0 1.021,-0.827 1.506,-0.926 0.485,-0.098 0.596,-0.335 0.848,-0.706 0.225,-0.332 0.294,-0.621 0.37,-1.087 C -0.348,-0.1 0.044,-0.288 0,0" /></g><g
                 id="g254"
                 transform="translate(124.3223,108.3867)"><path
                   id="path252"
                   style="fill:#fff4bb;fill-opacity:1;fill-rule:nonzero;stroke:none"
                   d="M 0,0 C -0.34,0.014 -0.652,0.013 -0.947,0.001 -0.869,0 -0.8,0.003 -0.72,0 c 2.155,-0.089 -1.268,-1.129 -1.268,-1.129 0,0 0.557,0.08 1.255,0.176 C 0.134,-0.652 1.595,-0.065 0,0" /></g><g
                 id="g258"
                 transform="translate(127.9844,94.6094)"><path
                   id="path256"
                   style="fill:#fff4bb;fill-opacity:1;fill-rule:nonzero;stroke:none"
                   d="m 0,0 c -0.08,0.255 -0.567,0.975 -0.985,1.564 -0.417,0.122 -1.337,0.857 -1.337,0.857 0,0 1.458,-1.965 1.603,-2.421 C -0.687,-0.099 -0.725,-0.156 -0.79,-0.193 -0.461,-0.259 0.105,-0.328 0,0" /></g><g
                 id="g262"
                 transform="translate(121.8423,103.7422)"><path
                   id="path260"
                   style="fill:#fff4bb;fill-opacity:1;fill-rule:nonzero;stroke:none"
                   d="M 0,0 C 0.57,-0.269 0.585,-0.387 0.38,-0.431 1.003,-0.482 1.729,-0.476 0.72,0 -0.076,0.375 -1.338,0.505 -2.374,0.543 -1.812,0.771 -1.078,0.97 -0.207,1.011 -1.401,1.079 -2.383,0.83 -3.094,0.543 -2.058,0.505 -0.795,0.375 0,0" /></g><g
                 id="g266"
                 transform="translate(123.3628,102.1152)"><path
                   id="path264"
                   style="fill:#fff4bb;fill-opacity:1;fill-rule:nonzero;stroke:none"
                   d="m 0,0 c 0.465,-0.229 1.037,-0.796 1.185,-0.946 l 0.757,-0.039 c 0,0 -0.684,0.72 -1.223,0.985 C 0.274,0.219 -1.124,0.936 -1.599,1.179 -2.011,1.197 -2.49,1.268 -2.49,1.268 -2.49,1.268 -0.538,0.265 0,0" /></g><g
                 id="g270"
                 transform="translate(126.2588,99.1992)"><path
                   id="path268"
                   style="fill:#fff4bb;fill-opacity:1;fill-rule:nonzero;stroke:none"
                   d="M 0,0 C 0.07,-0.064 0.021,-0.101 -0.094,-0.12 0.41,-0.154 0.884,-0.151 0.72,0 0.397,0.299 -0.19,1.193 -0.19,1.193 L -2.372,1.967 -3.213,2.01 -0.91,1.193 c 0,0 0.588,-0.894 0.91,-1.193" /></g><g
                 id="g274"
                 transform="translate(135.1914,85.5586)"><path
                   id="path272"
                   style="fill:#fff4bb;fill-opacity:1;fill-rule:nonzero;stroke:none"
                   d="M 0,0 C -0.341,0.107 -0.648,0.2 -0.803,0.235 -1.013,0.283 -1.265,0.263 -1.485,0.226 -0.961,0.099 0.89,-0.525 0.89,-0.525 0.89,-0.525 0.342,-0.244 0,0" /></g><g
                 id="g278"
                 transform="translate(147.5615,80.3447)"><path
                   id="path276"
                   style="fill:#fff4bb;fill-opacity:1;fill-rule:nonzero;stroke:none"
                   d="m 0,0 c -0.211,0.168 -0.569,0.673 -0.569,0.673 l -1.493,0.428 -0.834,0.032 1.607,-0.46 c 0,0 0.359,-0.505 0.57,-0.673 0.036,-0.029 0.008,-0.046 -0.043,-0.058 C -0.35,-0.085 0.124,-0.099 0,0" /></g><g
                 id="g282"
                 transform="translate(146.7451,74.4092)"><path
                   id="path280"
                   style="fill:#fff4bb;fill-opacity:1;fill-rule:nonzero;stroke:none"
                   d="m 0,0 c 0.811,1.31 0.689,1.614 0.783,2.271 0.093,0.65 -0.317,0.984 -0.326,0.99 -0.128,-0.123 -0.722,0.003 -0.722,0.003 0,0 0.422,-0.337 0.328,-0.993 C -0.03,1.614 0.092,1.31 -0.719,0 -1.064,-0.559 -1.57,-1.128 -2.04,-1.604 c -0.258,-0.675 -0.474,-1.103 -0.474,-1.103 0,0 1.704,1.397 2.514,2.707" /></g><g
                 id="g286"
                 transform="translate(144.9639,81.9893)"><path
                   id="path284"
                   style="fill:#fff4bb;fill-opacity:1;fill-rule:nonzero;stroke:none"
                   d="M 0,0 C 0.328,-0.133 0.694,-0.452 0.777,-0.525 L 1.53,-0.556 c 0,0 -0.44,0.407 -0.81,0.556 C 0.431,0.116 -0.608,0.334 -1.059,0.426 -1.343,0.395 -1.994,0.469 -1.994,0.469 -1.994,0.469 -0.37,0.148 0,0" /></g><g
                 id="g290"
                 transform="translate(147.9453,77.7549)"><path
                   id="path288"
                   style="fill:#fff4bb;fill-opacity:1;fill-rule:nonzero;stroke:none"
                   d="m 0,0 c -0.042,0.153 -0.378,0.603 -0.645,0.945 -0.011,-0.285 -1.054,0.42 -1.054,0.42 0,0 0.909,-1.107 0.98,-1.365 C -0.709,-0.036 -0.72,-0.062 -0.74,-0.083 -0.712,-0.089 0.07,-0.253 0,0" /></g><g
                 id="g294"
                 transform="translate(147.3662,85.2344)"><path
                   id="path292"
                   style="fill:#fff4bb;fill-opacity:1;fill-rule:nonzero;stroke:none"
                   d="m 0,0 c 0,0 0.496,0.166 1.074,-0.168 0.579,-0.334 0.23,-0.14 0.431,-0.305 0.789,-0.65 0.966,-1.258 0.961,-1.695 0.396,-0.35 0.562,-0.648 0.562,-0.648 0,0 0.698,1.106 -0.804,2.343 -0.201,0.165 0.149,-0.029 -0.43,0.305 C 1.215,0.166 0.719,0 0.719,0 0.719,0 1.231,0.514 0.958,0.567 0.854,0.588 0.579,0.571 0.281,0.542 0.428,0.432 0,0 0,0" /></g><g
                 id="g298"
                 transform="translate(140.6934,81.4297)"><path
                   id="path296"
                   style="fill:#fff4bb;fill-opacity:1;fill-rule:nonzero;stroke:none"
                   d="m 0,0 c 0.28,-0.379 0.687,-0.986 0.937,-1.628 0.414,-1.054 -0.481,0.088 -0.481,0.088 0,0 0.755,-1.21 0.897,-1.585 0.14,-0.376 0.215,-1.124 0.215,-1.124 l -0.589,0.597 0.69,-1.385 c 0,0 -0.011,-0.837 0.035,-1.16 0.047,-0.323 -0.722,0.621 -0.722,0.621 0,0 0.178,-0.942 0.344,-1.182 0.165,-0.239 0.145,-0.445 0.143,-0.795 -0.001,-0.349 -0.062,-0.584 -0.183,-1.016 -0.12,-0.433 -0.409,1.053 -0.409,1.053 0,0 0.042,-1.896 -0.025,-2.268 -0.067,-0.372 -0.441,0.255 -0.441,0.255 0,0 0.093,-0.647 -0.227,-1.462 -0.321,-0.817 -0.284,-0.613 -0.284,-0.613 l -0.246,-0.192 c -0.24,-0.651 -0.421,-0.886 -0.421,-0.886 l 1.386,1.078 c 0,0 -0.036,-0.204 0.284,0.613 0.32,0.815 0.228,1.462 0.228,1.462 0,0 0.374,-0.627 0.44,-0.255 0.067,0.372 0.025,2.268 0.025,2.268 0,0 0.29,-1.486 0.41,-1.053 0.121,0.432 0.182,0.667 0.182,1.016 0.002,0.35 0.023,0.556 -0.143,0.795 -0.165,0.24 -0.344,1.182 -0.344,1.182 0,0 0.77,-0.944 0.723,-0.621 -0.046,0.323 -0.035,1.16 -0.035,1.16 l -0.69,1.385 0.588,-0.597 c 0,0 -0.074,0.748 -0.215,1.124 -0.141,0.375 -0.897,1.585 -0.897,1.585 0,0 0.895,-1.142 0.482,-0.088 C 1.406,-0.986 1,-0.38 0.72,-0.001 0.459,0.02 0.211,0.02 0,0" /></g><g
                 id="g302"
                 transform="translate(143.6816,86.0615)"><path
                   id="path300"
                   style="fill:#fff4bb;fill-opacity:1;fill-rule:nonzero;stroke:none"
                   d="M 0,0 C -0.112,-0.049 -0.223,-0.102 -0.31,-0.161 -0.356,-0.193 -0.424,-0.25 -0.498,-0.316 l -0.176,-0.267 z" /></g><g
                 id="g306"
                 transform="translate(142.3613,83.3486)"><path
                   id="path304"
                   style="fill:#fff4bb;fill-opacity:1;fill-rule:nonzero;stroke:none"
                   d="m 0,0 c 0.609,0.006 0.769,-0.005 0.769,-0.005 0,0 -0.457,-0.273 -0.93,-0.488 0.531,0.007 1.09,-0.036 1.499,-0.194 0.348,-0.133 0.388,-0.201 0.288,-0.232 0.459,-0.037 1.21,-0.067 0.432,0.232 -0.41,0.158 -0.968,0.201 -1.5,0.194 0.473,0.215 0.93,0.488 0.93,0.488 0,0 -0.159,0.011 -0.769,0.005 C 1.445,0.392 2.412,0.735 3.563,0.805 3.407,0.812 3.271,0.832 3.103,0.828 1.832,0.802 0.782,0.422 0,0" /></g><g
                 id="g310"
                 transform="translate(105.458,110.8281)"><path
                   id="path308"
                   style="fill:#fff4bb;fill-opacity:1;fill-rule:nonzero;stroke:none"
                   d="M 0,0 C 0,0 -0.051,0.08 -0.112,0.189 -0.233,0.191 -0.362,0.183 -0.502,0.161 -0.188,0.105 0,0 0,0" /></g><g
                 id="g314"
                 transform="translate(118.561,107.8389)"><path
                   id="path312"
                   style="fill:#fff4bb;fill-opacity:1;fill-rule:nonzero;stroke:none"
                   d="M 0,0 0.7,0.231 0.192,-0.964 c 0.328,0.294 0.669,0.55 1.046,0.77 L 1.419,0.231 0.719,0 C 1.462,1.239 2.601,2.531 4.347,3.449 5.983,4.311 7.497,4.615 8.765,4.658 7.371,4.718 5.585,4.479 3.627,3.449 1.882,2.531 0.743,1.239 0,0" /></g><g
                 id="g318"
                 transform="translate(139.1631,88.4385)"><path
                   id="path316"
                   style="fill:#fff4bb;fill-opacity:1;fill-rule:nonzero;stroke:none"
                   d="m 0,0 0.146,-1.485 0.168,0.942 c 0,0 0.316,-0.492 0.392,-0.847 0.076,-0.355 0.083,-1.812 0.083,-1.812 0,0 0.138,1.564 0.339,0.55 0.097,-0.491 0.026,-1.209 -0.072,-1.821 0.225,0.29 0.517,0.634 0.826,0.93 0.019,0.326 0.014,0.639 -0.035,0.891 -0.201,1.014 -0.339,-0.55 -0.339,-0.55 0,0 -0.006,1.457 -0.082,1.812 -0.076,0.355 -0.393,0.847 -0.393,0.847 L 0.866,-1.485 0.719,0 C 0.719,0 0.291,0.453 0.166,0.681 0.091,0.815 0.013,0.399 -0.039,0.042 -0.024,0.025 0,0 0,0" /></g><g
                 id="g322"
                 transform="translate(144.4551,85.6328)"><path
                   id="path320"
                   style="fill:#fff4bb;fill-opacity:1;fill-rule:nonzero;stroke:none"
                   d="M 0,0 C 0,0 0.728,0.295 0.926,0.52 1.028,0.636 1.119,0.688 1.22,0.717 1.308,0.866 1.351,0.975 1.264,0.946 1.099,0.891 0.766,0.85 0.562,0.828 0.44,0.571 0,0 0,0" /></g><g
                 id="g326"
                 transform="translate(126.5371,107.709)"><path
                   id="path324"
                   style="fill:#fff4bb;fill-opacity:1;fill-rule:nonzero;stroke:none"
                   d="m 0,0 c 0.68,-0.108 1.402,-0.524 1.402,-0.524 l -1.993,-0.671 1.157,0.147 1.555,0.524 c 0,0 -1.004,0.583 -1.759,0.552 C 0.272,0.024 0.147,0.015 0,0" /></g><g
                 id="g330"
                 transform="translate(148.0244,78.709)"><path
                   id="path328"
                   style="fill:#fff4bb;fill-opacity:1;fill-rule:nonzero;stroke:none"
                   d="m 0,0 c -0.021,0.322 -0.039,0.494 -0.192,0.703 -0.156,0.208 -0.218,0.343 -0.562,0.398 -0.27,0.044 -0.741,0.337 -0.933,0.463 -0.374,0.015 -0.808,0.059 -0.808,0.059 0,0 0.677,-0.467 1.021,-0.522 C -1.13,1.046 -1.067,0.911 -0.912,0.703 -0.8,0.55 -0.766,0.398 -0.744,0.213 -0.427,0.022 0.014,-0.207 0,0" /></g><g
                 id="g334"
                 transform="translate(146.7383,86.2461)"><path
                   id="path332"
                   style="fill:#fff4bb;fill-opacity:1;fill-rule:nonzero;stroke:none"
                   d="m 0,0 c 0.312,-0.116 -0.837,-0.592 -0.837,-0.592 0,0 0.514,0.072 0.984,0.118 C 0.466,-0.325 0.934,-0.079 0.72,0 0.407,0.115 0.237,0.172 -0.024,0.146 -0.145,0.135 -0.24,0.129 -0.328,0.106 -0.23,0.08 -0.131,0.049 0,0" /></g><g
                 id="g338"
                 transform="translate(138.0283,89.0361)"><path
                   id="path336"
                   style="fill:#fff4bb;fill-opacity:1;fill-rule:nonzero;stroke:none"
                   d="m 0,0 c -0.012,-0.306 0.319,-1.013 0.319,-1.013 0,0 0.137,1.323 0.262,1.096 C 0.614,0.022 0.668,-0.053 0.729,-0.131 0.722,-0.082 0.718,-0.038 0.72,0 0.73,0.305 0.61,0.397 0.435,0.59 0.258,0.782 0.093,0.85 -0.22,0.964 -0.365,1.018 -0.329,0.799 -0.25,0.553 -0.095,0.386 0.011,0.283 0,0" /></g><g
                 id="g342"
                 transform="translate(126.9463,114.8613)"><path
                   id="path340"
                   style="fill:#fff4bb;fill-opacity:1;fill-rule:nonzero;stroke:none"
                   d="m 0,0 c 1.388,-0.149 2.661,-1.934 3.141,-2.687 0.588,-0.167 0.923,-0.335 0.923,-0.335 0,0 -1.583,2.833 -3.344,3.022 C -1.023,0.188 0.267,0.075 -0.703,0.078 -0.556,0.062 -0.334,0.036 0,0" /></g><g
                 id="g346"
                 transform="translate(121.6948,113.7314)"><path
                   id="path344"
                   style="fill:#fff4bb;fill-opacity:1;fill-rule:nonzero;stroke:none"
                   d="M 0,0 C 0,0 0.741,0.622 1.362,1.088 1.475,1.345 1.508,1.538 1.325,1.506 1.079,1.464 0.891,1.428 0.724,1.374 0.701,1.014 0,0 0,0" /></g><g
                 id="g350"
                 transform="translate(129.2461,106.8428)"><path
                   id="path348"
                   style="fill:#fff4bb;fill-opacity:1;fill-rule:nonzero;stroke:none"
                   d="m 0,0 c 0.29,-0.14 0.939,-0.441 1.309,-0.519 0.484,-0.102 -2.315,-0.887 -2.315,-0.887 0,0 1.155,-0.171 1.877,-0.115 -0.589,0.032 -1.158,0.115 -1.158,0.115 0,0 2.8,0.785 2.315,0.887 -0.485,0.102 -1.457,0.591 -1.457,0.591 z" /></g><g
                 id="g354"
                 transform="translate(123.9526,114.3135)"><path
                   id="path352"
                   style="fill:#fff4bb;fill-opacity:1;fill-rule:nonzero;stroke:none"
                   d="M 0,0 C 0,0 0.266,0.319 0.789,0.501 0.807,0.785 0.777,1.069 0.565,0.993 0.465,0.957 0.285,0.842 0.071,0.689 0.083,0.395 0,0 0,0" /></g><g
                 id="g358"
                 transform="translate(131.6543,105.1602)"><path
                   id="path356"
                   style="fill:#fff4bb;fill-opacity:1;fill-rule:nonzero;stroke:none"
                   d="M 0,0 C 0.412,-0.199 0.559,-0.434 0.81,-0.883 0.884,-1.014 0.729,-1.076 0.476,-1.102 1.07,-1.136 1.661,-1.117 1.529,-0.883 1.277,-0.434 1.132,-0.199 0.72,0 0.32,0.191 0.111,0.333 -0.483,0.209 -0.326,0.162 -0.184,0.088 0,0" /></g><g
                 id="g362"
                 transform="translate(135.001,90.1973)"><path
                   id="path360"
                   style="fill:#fff4bb;fill-opacity:1;fill-rule:nonzero;stroke:none"
                   d="m 0,0 c 0.662,-0.119 0.913,-0.574 0.913,-0.574 0,0 -0.007,0.312 0.056,0.492 C 0.888,-0.053 0.816,-0.018 0.719,0 0.056,0.121 0.932,0.033 -0.224,0.126 -0.338,0.136 -0.454,0.117 -0.57,0.097 -0.014,0.055 -0.569,0.104 0,0" /></g><g
                 id="g366"
                 transform="translate(130.3164,104.168)"><path
                   id="path364"
                   style="fill:#fff4bb;fill-opacity:1;fill-rule:nonzero;stroke:none"
                   d="M 0,0 C 0,0 2.348,-0.992 2.645,-1.315 2.942,-1.64 1.38,-1.927 1.38,-1.927 c 0,0 0.971,-0.205 1.242,-1.21 0.273,-1.007 0.691,-1.365 0.13,-3.784 -0.258,-1.11 -0.523,-2.255 -0.734,-3.173 0.23,-1.105 0.292,-1.846 0.292,-1.846 0,0 0.6,2.599 1.162,5.019 0.56,2.419 0.141,2.777 -0.13,3.784 -0.272,1.005 -1.243,1.21 -1.243,1.21 0,0 1.562,0.287 1.265,0.612 C 3.122,-1.053 1.54,-0.354 0.953,-0.101 0.458,-0.064 0,0 0,0" /></g><g
                 id="g370"
                 transform="translate(119.8232,112.5391)"><path
                   id="path368"
                   style="fill:#fff4bb;fill-opacity:1;fill-rule:nonzero;stroke:none"
                   d="M 0,0 C 0,0 0.701,0.994 0.779,1.472 0.768,1.716 0.734,1.873 0.652,1.772 0.529,1.62 0.285,1.408 0.065,1.229 0.062,0.699 0,0 0,0" /></g><g
                 id="g374"
                 transform="translate(107.7798,111.0557)"><path
                   id="path372"
                   style="fill:#fff4bb;fill-opacity:1;fill-rule:nonzero;stroke:none"
                   d="M 0,0 C 0,0 -0.284,0.193 -0.573,0.422 -1.088,0.579 -1.604,0.722 -1.792,0.72 -1.881,0.72 -1.917,0.672 -1.93,0.606 -1.164,0.404 0,0 0,0" /></g><g
                 id="g378"
                 transform="translate(139.4102,48.1934)"><path
                   id="path376"
                   style="fill:#fff4bb;fill-opacity:1;fill-rule:nonzero;stroke:none"
                   d="m 0,0 c -0.653,0.223 -1.183,0.43 -1.486,0.601 -0.459,0.259 -1.379,0.37 -2.535,0.393 l 0.33,2.542 -0.482,-0.268 c -0.01,0.326 -0.017,0.67 -0.022,1.023 l 0.291,2.246 -0.293,-0.163 c 0.006,0.48 0.017,0.979 0.034,1.492 l 0.452,2.319 -0.353,-0.17 c 0.037,0.63 0.084,1.28 0.138,1.944 l 0.509,2.069 -0.324,-0.137 c 0.058,0.549 0.124,1.108 0.197,1.675 l 0.582,1.764 -0.352,-0.119 c 0.08,0.53 0.166,1.065 0.258,1.606 l 0.542,1.646 -0.257,-0.087 c 0.064,0.333 0.13,0.668 0.201,1.005 l 0.612,1.502 -0.302,-0.08 c 0.05,0.218 0.102,0.438 0.155,0.658 l 0.629,1.547 -0.259,-0.07 c 0.128,0.49 0.261,0.98 0.403,1.471 l 0.53,1.096 -0.22,-0.044 c 0.088,0.293 0.18,0.586 0.274,0.88 l 0.607,1.256 -0.205,-0.041 c 0.061,0.176 0.122,0.353 0.185,0.53 l 0.709,1.467 C 0.542,31.568 0.537,31.588 0.53,31.604 l -0.145,-0.03 c 0.025,0.067 0.052,0.132 0.079,0.198 -0.136,0.339 -0.271,0.626 -0.387,0.843 -0.139,-0.346 -0.278,-0.694 -0.411,-1.041 l 0.192,0.039 -0.739,-1.527 c -0.061,-0.177 -0.124,-0.354 -0.184,-0.53 l 0.205,0.041 -0.608,-1.256 c -0.094,-0.294 -0.185,-0.587 -0.274,-0.88 l 0.221,0.044 -0.531,-1.096 c -0.14,-0.491 -0.275,-0.981 -0.403,-1.471 l 0.261,0.07 -0.631,-1.547 c -0.053,-0.22 -0.104,-0.44 -0.154,-0.658 l 0.301,0.08 -0.612,-1.502 c -0.069,-0.337 -0.136,-0.672 -0.2,-1.005 l 0.258,0.087 -0.543,-1.646 c -0.093,-0.541 -0.179,-1.076 -0.259,-1.606 l 0.352,0.119 -0.581,-1.764 C -4.336,14.999 -4.402,14.44 -4.461,13.891 l 0.325,0.137 -0.509,-2.069 C -4.7,11.295 -4.746,10.645 -4.784,10.015 l 0.353,0.17 -0.452,-2.319 C -4.899,7.353 -4.91,6.854 -4.917,6.374 L -4.624,6.537 -4.915,4.291 C -4.91,3.938 -4.902,3.594 -4.893,3.268 L -4.411,3.536 -4.74,0.994 C -3.585,0.971 -2.665,0.86 -2.206,0.601 -1.902,0.43 -1.373,0.223 -0.72,0 4.918,-0.977 10.051,-2.414 14.458,-4.208 l -11.978,-6.636 -9.86,-5.46 -5.029,-2.779 -2.361,-1.311 0.36,-0.2 2.72,1.511 5.03,2.779 9.86,5.46 11.978,6.636 C 10.77,-2.414 5.638,-0.977 0,0" /></g><g
                 id="g382"
                 transform="translate(107.8618,112.2256)"><path
                   id="path380"
                   style="fill:#fff4bb;fill-opacity:1;fill-rule:nonzero;stroke:none"
                   d="m 0,0 c 0.386,-0.116 0.619,-0.146 0.849,-0.55 0.23,-0.404 1.234,-1.072 1.234,-1.072 0,0 -0.241,0.498 -0.421,0.945 C 1.626,-0.633 1.591,-0.589 1.568,-0.55 1.338,-0.146 1.105,-0.116 0.719,0 0.413,0.091 0.175,0.084 -0.158,0.034 -0.106,0.023 -0.056,0.017 0,0" /></g><g
                 id="g386"
                 transform="translate(112.7295,110.4971)"><path
                   id="path384"
                   style="fill:#fff4bb;fill-opacity:1;fill-rule:nonzero;stroke:none"
                   d="m 0,0 c 0.385,-0.403 1.565,-2.289 1.565,-2.289 0,0 -1.076,2.136 0.003,0.972 0.203,-0.219 0.394,-0.482 0.58,-0.756 C 1.833,-1.576 1.027,-0.322 0.719,0 0.334,0.402 -0.477,0.801 -0.477,0.801 L -0.243,0.213 C -0.154,0.144 -0.069,0.072 0,0" /></g><g
                 id="g390"
                 transform="translate(110.6836,111.7637)"><path
                   id="path388"
                   style="fill:#fff4bb;fill-opacity:1;fill-rule:nonzero;stroke:none"
                   d="m 0,0 1.386,-1.816 -0.536,1.35 c 0,0 0.168,-0.083 0.385,-0.21 L 0.72,0 c 0,0 -0.928,0.262 -1.275,0.462 C -0.661,0.522 -0.646,0.387 -0.583,0.182 -0.276,0.079 0,0 0,0" /></g><g
                 id="g394"
                 transform="translate(115.8052,106.7988)"><path
                   id="path392"
                   style="fill:#fff4bb;fill-opacity:1;fill-rule:nonzero;stroke:none"
                   d="M 0,0 C 0.014,0.379 0.043,0.778 0.085,1.172 -0.18,1.613 -0.476,2.044 -0.788,2.381 -1.785,3.456 -0.944,1.719 -0.811,1.447 -0.498,0.961 -0.217,0.444 0,0" /></g><g
                 id="g398"
                 transform="translate(137.293,88.9893)"><path
                   id="path396"
                   style="fill:#fff4bb;fill-opacity:1;fill-rule:nonzero;stroke:none"
                   d="M 0,0 C 0,0 -0.516,1.126 -0.204,1.011 -0.189,1.006 -0.184,1.002 -0.171,0.997 -0.283,1.111 -0.381,1.201 -0.437,1.233 -0.616,1.336 -0.651,0.955 -0.658,0.753 -0.339,0.404 0,0 0,0" /></g><g
                 id="g402"
                 transform="translate(113.1299,100.7021)"><path
                   id="path400"
                   style="fill:#fff4bb;fill-opacity:1;fill-rule:nonzero;stroke:none"
                   d="M 0,0 C -0.01,-0.017 -0.018,-0.03 -0.026,-0.045 0.029,0.017 0.067,0.059 0.067,0.059 0.067,0.059 0.042,0.036 0,0" /></g><g
                 id="g406"
                 transform="translate(110.5488,90.499)"><path
                   id="path404"
                   style="fill:#fff4bb;fill-opacity:1;fill-rule:nonzero;stroke:none"
                   d="m 0,0 c 0.127,0.63 0.235,1.133 0.235,1.133 0,0 -0.109,-0.274 -0.251,-0.597 C -0.018,0.373 -0.012,0.195 0,0" /></g><g
                 id="g410"
                 transform="translate(111.6587,97.5557)"><path
                   id="path408"
                   style="fill:#fff4bb;fill-opacity:1;fill-rule:nonzero;stroke:none"
                   d="M 0,0 C -0.018,-0.051 -0.034,-0.097 -0.05,-0.145 L 0.122,0.087 Z" /></g><g
                 id="g414"
                 transform="translate(110.7622,94.3008)"><path
                   id="path412"
                   style="fill:#fff4bb;fill-opacity:1;fill-rule:nonzero;stroke:none"
                   d="M 0,0 C -0.037,-0.15 -0.074,-0.289 -0.108,-0.389 -0.158,-0.536 -0.054,-0.516 0.104,-0.43 0.292,-0.018 0.442,0.363 0.442,0.363 0.442,0.363 0.242,0.191 0,0" /></g><g
                 id="g418"
                 transform="translate(138.6855,81.1152)"><path
                   id="path416"
                   style="fill:#fff4bb;fill-opacity:1;fill-rule:nonzero;stroke:none"
                   d="m 0,0 c -1.234,-0.154 -3.217,-0.705 -4.625,-2.587 -1.646,-2.2 -1.491,-3.635 -1.313,-4.211 0.41,-0.286 0.838,-0.287 0.838,-0.287 0,0 -0.994,1.573 1.195,4.498 1.16,1.551 2.705,2.191 3.905,2.457 0.015,0.032 0.028,0.065 0.043,0.097 z" /></g><g
                 id="g422"
                 transform="translate(118.0601,111.1621)"><path
                   id="path420"
                   style="fill:#fff4bb;fill-opacity:1;fill-rule:nonzero;stroke:none"
                   d="M 0,0 0.27,0.918 C 0.177,0.79 0.085,0.651 0.01,0.516 Z" /></g><g
                 id="g426"
                 transform="translate(104.3369,100.6699)"><path
                   id="path424"
                   style="fill:#fff4bb;fill-opacity:1;fill-rule:nonzero;stroke:none"
                   d="M 0,0 C 0.009,-0.131 0.205,-0.135 0.479,-0.069 0.762,0.185 0.98,0.371 0.98,0.371 0.98,0.371 0.466,0.144 0,0" /></g><g
                 id="g430"
                 transform="translate(111.3062,105.8291)"><path
                   id="path428"
                   style="fill:#fff4bb;fill-opacity:1;fill-rule:nonzero;stroke:none"
                   d="M 0,0 C 0.393,-0.028 0.802,-0.093 1.197,-0.175 1.133,-0.128 1.074,-0.08 1.012,-0.033 0.659,0.007 0.318,0.021 0,0" /></g><g
                 id="g434"
                 transform="translate(114.791,55.3613)"><path
                   id="path432"
                   style="fill:#fff4bb;fill-opacity:1;fill-rule:nonzero;stroke:none"
                   d="M 0,0 -0.036,0.031 -0.054,-0.254 C -0.036,-0.171 -0.018,-0.083 0,0" /></g><g
                 id="g438"
                 transform="translate(112.5376,51.1895)"><path
                   id="path436"
                   style="fill:#fff4bb;fill-opacity:1;fill-rule:nonzero;stroke:none"
                   d="M 0,0 C -0.969,0.206 -1.722,0.338 -2.079,0.325 -2.169,0.322 -2.251,0.31 -2.331,0.293 -1.824,0.232 -1.078,0.084 -0.174,-0.117 -0.114,-0.074 -0.058,-0.038 0,0" /></g><g
                 id="g442"
                 transform="translate(101.7861,107.7168)"><path
                   id="path440"
                   style="fill:#fff4bb;fill-opacity:1;fill-rule:nonzero;stroke:none"
                   d="m 0,0 c 0.006,-0.354 0.087,-0.58 0.087,-0.58 0,0 1.253,1.619 4.235,1.746 C 2.12,1.249 0.728,0.542 0,0" /></g><g
                 id="g446"
                 transform="translate(107.8633,100.1709)"><path
                   id="path444"
                   style="fill:#fff4bb;fill-opacity:1;fill-rule:nonzero;stroke:none"
                   d="m 0,0 c -1.885,-3.152 -1.373,-7.742 -0.954,-10.015 0.568,-0.824 1.02,-1.387 1.02,-1.387 0,0 -1.938,7.07 0.653,11.402 C 2.081,2.275 3.75,2.983 5.179,3.077 3.621,3.186 1.597,2.671 0,0" /></g><g
                 id="g450"
                 transform="translate(112.1665,106.6484)"><path
                   id="path448"
                   style="fill:#fff4bb;fill-opacity:1;fill-rule:nonzero;stroke:none"
                   d="m 0,0 c -0.14,0.023 -0.195,0.03 -0.195,0.03 0,0 0.078,-0.069 0.185,-0.163 C 0.069,-0.148 0.15,-0.165 0.242,-0.184 0.168,-0.122 0.078,-0.062 0,0" /></g><g
                 id="g454"
                 transform="translate(131.8271,49.1875)"><path
                   id="path452"
                   style="fill:#fff4bb;fill-opacity:1;fill-rule:nonzero;stroke:none"
                   d="m 0,0 c -3.143,0.292 -6.388,0.457 -9.72,0.461 -0.745,0.505 -1.452,1.027 -2.005,1.403 -0.262,0.178 -0.656,0.298 -1.118,0.379 l 0.831,3.194 -0.612,-0.327 c 0.034,0.287 0.068,0.58 0.103,0.883 V 5.947 l 0.866,4.407 -0.425,-0.263 c 0.091,0.919 0.179,1.88 0.264,2.88 l 0.642,3.268 -0.411,-0.253 c 0.045,0.67 0.088,1.356 0.127,2.054 l 10e-4,-0.019 0.652,4.441 -0.473,-0.324 c 0.022,0.707 0.039,1.424 0.052,2.149 l 0.389,3.579 -0.369,-0.274 c -0.003,0.661 -0.011,1.328 -0.023,2 l 0.272,3.057 -0.355,-0.273 c -0.013,0.322 -0.026,0.645 -0.042,0.97 l 0.071,3.585 -0.272,-0.243 c -0.02,0.259 -0.04,0.519 -0.06,0.779 l 0.057,2.869 -0.295,-0.263 c -0.078,0.765 -0.165,1.532 -0.26,2.302 l 0.042,2.069 -0.283,-0.251 c -0.05,0.359 -0.103,0.72 -0.157,1.08 l -0.237,2.468 -0.139,-0.156 c -0.03,0.172 -0.06,0.343 -0.092,0.514 l -0.283,2.96 -0.238,-0.269 c -0.12,0.571 -0.248,1.142 -0.378,1.712 -0.242,0.097 -0.475,0.182 -0.692,0.254 l -0.075,-0.038 c 0.148,-0.643 0.291,-1.285 0.425,-1.928 l 0.239,0.269 0.283,-2.96 c 0.031,-0.171 0.061,-0.342 0.092,-0.514 l 0.139,0.156 0.237,-2.468 c 0.054,-0.36 0.106,-0.721 0.157,-1.08 l 0.282,0.251 -0.041,-2.069 c 0.095,-0.77 0.182,-1.537 0.26,-2.302 l 0.295,0.263 -0.057,-2.869 c 0.02,-0.26 0.04,-0.52 0.06,-0.779 l 0.272,0.243 -0.071,-3.585 c 0.015,-0.325 0.029,-0.648 0.042,-0.97 l 0.355,0.273 -0.273,-3.057 c 0.013,-0.672 0.02,-1.339 0.024,-2 l 0.368,0.274 -0.388,-3.579 c -0.013,-0.725 -0.031,-1.442 -0.053,-2.149 l 0.474,0.324 -0.652,-4.441 -10e-4,0.019 c -0.039,-0.698 -0.082,-1.384 -0.128,-2.054 l 0.411,0.253 -0.642,-3.268 c -0.084,-1 -0.172,-1.961 -0.263,-2.88 l 0.424,0.263 -0.865,-4.407 V 5.993 C -13.275,5.69 -13.309,5.397 -13.343,5.11 l 0.612,0.327 -0.832,-3.194 c 0.463,-0.081 0.856,-0.201 1.119,-0.379 0.552,-0.376 1.259,-0.898 2.005,-1.403 C -6.856,0.457 -3.367,0.273 -0.005,-0.062 -0.004,-0.042 -0.002,-0.021 0,0" /></g><g
                 id="g458"
                 transform="translate(112.4692,84.1758)"><path
                   id="path456"
                   style="fill:#fff4bb;fill-opacity:1;fill-rule:nonzero;stroke:none"
                   d="m 0,0 1.042,-1.224 c 0,0 -1.019,2.073 -0.36,9.142 0.401,4.299 1.865,7.187 2.955,8.805 C 3.589,16.99 3.544,17.258 3.495,17.525 2.432,16.181 0.44,13.037 -0.037,7.918 -0.429,3.712 -0.228,1.285 0,0" /></g></g></g></g><g
           transform="translate(91.2246,102.3779)"
           id="g464"><path
             id="path466"
             style="fill:#1c1c1c;fill-opacity:1;fill-rule:nonzero;stroke:none"
             d="M 0,0 C -0.148,0.157 -0.367,0.256 -0.562,0.337 -0.776,0.426 -0.951,0.482 -1.183,0.49 -1.39,0.497 -1.593,0.486 -1.8,0.485 -2.04,0.483 -2.3,0.452 -2.533,0.398 -2.62,0.379 -2.713,0.37 -2.806,0.356 -2.812,0.358 -2.817,0.361 -2.824,0.362 -3.21,0.461 -3.522,0.681 -3.86,0.872 -4.04,0.975 -4.206,1.099 -4.401,1.172 -4.507,1.211 -4.59,1.268 -4.703,1.284 -4.817,1.301 -4.942,1.287 -5.057,1.287 -5.231,1.287 -5.429,1.258 -5.601,1.232 -5.823,1.2 -6.049,1.21 -6.272,1.196 -6.478,1.184 -6.701,1.188 -6.903,1.151 -7.033,1.128 -7.182,1.166 -7.31,1.117 c -0.002,0 -0.001,-0.004 10e-4,-0.003 0.124,0.025 0.283,-0.007 0.408,-0.009 0.165,-0.002 0.336,0.014 0.501,0.029 0.44,0.037 0.886,-0.002 1.324,-0.019 0.243,-0.009 0.435,-0.116 0.655,-0.201 0.082,-0.031 0.177,-0.1 0.243,-0.155 C -4.102,0.694 -3.994,0.674 -3.92,0.604 -3.813,0.5 -3.645,0.434 -3.516,0.353 -3.486,0.334 -3.456,0.315 -3.425,0.296 -3.46,0.235 -3.508,0.185 -3.579,0.144 -3.583,0.141 -3.7,0.126 -3.728,0.116 -3.759,0.105 -3.767,0.053 -3.737,0.035 c 0.144,-0.086 0.192,-0.241 0.35,-0.312 0.131,-0.059 0.297,-0.124 0.443,-0.107 0.294,0.035 0.54,0.268 0.5,0.578 0.032,0.003 0.065,0.007 0.096,0.009 0.45,0.034 0.895,0.095 1.347,0.05 0.12,-0.013 0.241,-0.088 0.354,-0.128 0.134,-0.048 0.272,-0.116 0.387,-0.2 0.16,-0.117 0.311,-0.246 0.471,-0.362 0.285,-0.204 0.532,-0.456 0.812,-0.666 0.01,-0.006 0.023,0.004 0.018,0.015 -0.04,0.093 -0.116,0.164 -0.203,0.22 C 0.76,-0.819 0.718,-0.74 0.646,-0.687 0.535,-0.605 0.448,-0.502 0.353,-0.403 0.23,-0.276 0.123,-0.13 0,0" /></g><g
           transform="translate(93.6987,106.0674)"
           id="g468"><path
             id="path470"
             style="fill:#1c1c1c;fill-opacity:1;fill-rule:nonzero;stroke:none"
             d="M 0,0 C -0.061,0.08 -0.156,0.137 -0.242,0.184 -0.336,0.235 -0.414,0.271 -0.521,0.286 -0.616,0.3 -0.709,0.306 -0.806,0.315 -0.916,0.327 -1.038,0.326 -1.148,0.313 -1.188,0.309 -1.232,0.31 -1.276,0.308 -1.278,0.31 -1.281,0.311 -1.284,0.312 -1.457,0.377 -1.589,0.494 -1.735,0.6 -1.813,0.656 -1.883,0.722 -1.97,0.766 c -0.046,0.023 -0.081,0.053 -0.133,0.067 -0.051,0.014 -0.11,0.014 -0.163,0.02 -0.08,0.008 -0.173,0.005 -0.254,0.002 -0.104,-0.002 -0.207,0.013 -0.311,0.018 -0.096,0.005 -0.198,0.019 -0.293,0.012 -0.061,-0.004 -0.128,0.021 -0.189,0.006 -10e-4,-0.001 -10e-4,-0.002 0,-0.002 0.058,0.005 0.13,-0.018 0.187,-0.026 0.076,-0.009 0.156,-0.01 0.232,-0.012 0.206,-0.005 0.409,-0.046 0.61,-0.077 0.112,-0.016 0.195,-0.076 0.292,-0.126 0.036,-0.019 0.076,-0.055 0.104,-0.085 0.032,-0.033 0.08,-0.047 0.111,-0.084 0.045,-0.053 0.118,-0.092 0.173,-0.136 0.013,-0.01 0.026,-0.021 0.04,-0.031 C -1.584,0.286 -1.608,0.265 -1.643,0.249 -1.645,0.248 -1.7,0.247 -1.713,0.244 -1.729,0.241 -1.734,0.217 -1.722,0.208 -1.66,0.161 -1.646,0.087 -1.576,0.046 c 0.057,-0.034 0.13,-0.073 0.199,-0.072 0.137,10e-4 0.262,0.095 0.26,0.241 0.015,0 0.03,-0.001 0.045,-0.001 0.209,-0.008 0.417,-0.002 0.623,-0.046 0.055,-0.013 0.107,-0.053 0.157,-0.077 0.059,-0.029 0.119,-0.069 0.168,-0.112 0.068,-0.063 0.13,-0.13 0.199,-0.192 0.12,-0.108 0.221,-0.237 0.34,-0.349 0.004,-0.002 0.011,0.001 0.009,0.006 C 0.41,-0.511 0.379,-0.474 0.341,-0.444 0.308,-0.417 0.293,-0.379 0.263,-0.351 0.215,-0.307 0.181,-0.255 0.142,-0.204 0.091,-0.14 0.05,-0.066 0,0" /></g><g
           transform="translate(142.5342,107.6738)"
           id="g472"><path
             id="path474"
             style="fill:#1c1c1c;fill-opacity:1;fill-rule:nonzero;stroke:none"
             d="M 0,0 C 0.13,0.173 0.337,0.295 0.521,0.396 0.725,0.509 0.892,0.585 1.121,0.618 1.327,0.647 1.529,0.66 1.736,0.681 1.975,0.706 2.236,0.703 2.474,0.677 2.562,0.666 2.656,0.668 2.75,0.664 2.756,0.667 2.761,0.671 2.768,0.673 3.14,0.813 3.426,1.066 3.74,1.294 3.908,1.415 4.059,1.557 4.245,1.651 4.346,1.702 4.422,1.768 4.532,1.797 4.644,1.826 4.77,1.826 4.884,1.839 5.057,1.857 5.257,1.851 5.431,1.845 5.654,1.837 5.878,1.872 6.103,1.883 6.308,1.893 6.528,1.922 6.733,1.908 6.865,1.899 7.01,1.953 7.142,1.92 7.144,1.919 7.144,1.916 7.141,1.916 7.015,1.927 6.861,1.878 6.737,1.862 6.573,1.841 6.401,1.839 6.236,1.835 5.794,1.823 5.355,1.735 4.922,1.67 4.681,1.635 4.502,1.507 4.294,1.397 4.216,1.357 4.129,1.279 4.068,1.216 4,1.144 3.896,1.112 3.83,1.034 3.734,0.919 3.574,0.835 3.456,0.739 3.429,0.718 3.4,0.695 3.372,0.673 3.414,0.617 3.467,0.571 3.541,0.538 3.546,0.536 3.664,0.534 3.692,0.528 3.726,0.521 3.738,0.469 3.711,0.448 3.577,0.348 3.547,0.187 3.397,0.099 3.273,0.026 3.116,-0.058 2.969,-0.056 2.673,-0.053 2.402,0.15 2.408,0.463 2.375,0.463 2.344,0.463 2.312,0.462 1.861,0.445 1.412,0.457 0.968,0.361 0.85,0.336 0.738,0.248 0.63,0.196 0.502,0.134 0.372,0.05 0.268,-0.046 0.121,-0.18 -0.015,-0.324 -0.161,-0.457 c -0.26,-0.234 -0.478,-0.513 -0.734,-0.752 -0.008,-0.008 -0.022,0.001 -0.019,0.013 0.03,0.096 0.098,0.175 0.178,0.24 0.072,0.058 0.105,0.141 0.17,0.201 0.102,0.094 0.176,0.206 0.26,0.316 C -0.197,-0.3 -0.107,-0.143 0,0" /></g><g
           transform="translate(140.8779,111.4922)"
           id="g476"><path
             id="path478"
             style="fill:#1c1c1c;fill-opacity:1;fill-rule:nonzero;stroke:none"
             d="M 0,0 C 0.06,0.079 0.156,0.136 0.241,0.184 0.336,0.235 0.413,0.271 0.521,0.286 0.615,0.3 0.709,0.306 0.805,0.315 0.916,0.327 1.037,0.326 1.147,0.313 1.188,0.309 1.232,0.31 1.275,0.308 1.278,0.309 1.28,0.311 1.283,0.312 1.456,0.377 1.589,0.494 1.735,0.6 c 0.077,0.056 0.148,0.122 0.234,0.166 0.047,0.023 0.082,0.053 0.134,0.067 0.051,0.014 0.11,0.014 0.163,0.02 0.08,0.008 0.172,0.005 0.254,0.002 0.103,-0.003 0.207,0.013 0.311,0.018 0.095,0.005 0.197,0.019 0.293,0.012 0.061,-0.004 0.128,0.02 0.189,0.005 10e-4,0 0,-0.001 0,-0.001 C 3.254,0.894 3.183,0.871 3.126,0.863 3.049,0.854 2.97,0.853 2.894,0.851 2.688,0.846 2.484,0.805 2.283,0.774 2.172,0.758 2.089,0.698 1.991,0.648 1.956,0.629 1.915,0.593 1.888,0.563 1.855,0.53 1.807,0.516 1.776,0.479 1.732,0.426 1.658,0.387 1.604,0.343 1.591,0.332 1.577,0.322 1.564,0.312 1.584,0.285 1.608,0.265 1.643,0.249 1.645,0.248 1.699,0.247 1.713,0.244 1.729,0.241 1.734,0.217 1.722,0.207 1.659,0.161 1.646,0.086 1.576,0.045 1.519,0.012 1.445,-0.027 1.377,-0.026 1.24,-0.025 1.114,0.069 1.117,0.214 c -0.015,0.001 -0.03,0 -0.045,0 C 0.863,0.206 0.654,0.212 0.448,0.167 0.394,0.155 0.342,0.114 0.292,0.09 0.232,0.062 0.173,0.022 0.124,-0.021 c -0.068,-0.063 -0.131,-0.13 -0.199,-0.192 -0.12,-0.108 -0.222,-0.237 -0.34,-0.349 -0.004,-0.003 -0.011,0.001 -0.01,0.006 0.015,0.045 0.046,0.082 0.083,0.112 0.033,0.027 0.049,0.065 0.079,0.093 0.047,0.043 0.082,0.096 0.121,0.147 C -0.092,-0.14 -0.05,-0.066 0,0" /></g><g
           transform="translate(99.6025,104.2676)"
           id="g480"><path
             id="path482"
             style="fill:#1c1c1c;fill-opacity:1;fill-rule:nonzero;stroke:none"
             d="M 0,0 C 0.06,0.08 0.156,0.137 0.242,0.184 0.336,0.236 0.414,0.271 0.52,0.286 0.616,0.3 0.709,0.306 0.805,0.315 0.916,0.327 1.037,0.326 1.147,0.313 1.188,0.309 1.232,0.31 1.275,0.308 1.278,0.31 1.281,0.311 1.284,0.312 1.457,0.377 1.589,0.494 1.735,0.601 1.813,0.656 1.883,0.722 1.969,0.766 2.016,0.789 2.051,0.819 2.103,0.833 2.154,0.847 2.212,0.847 2.266,0.853 2.346,0.861 2.438,0.858 2.519,0.855 2.623,0.853 2.727,0.868 2.831,0.873 2.926,0.878 3.028,0.892 3.124,0.885 3.185,0.881 3.252,0.906 3.313,0.891 3.314,0.89 3.314,0.889 3.313,0.889 3.254,0.894 3.183,0.871 3.125,0.863 3.049,0.854 2.97,0.853 2.893,0.851 2.688,0.846 2.484,0.805 2.283,0.774 2.172,0.758 2.088,0.698 1.992,0.648 1.956,0.629 1.916,0.593 1.887,0.563 1.855,0.53 1.807,0.516 1.777,0.479 1.732,0.426 1.658,0.387 1.603,0.343 1.59,0.333 1.578,0.322 1.564,0.312 1.583,0.286 1.608,0.265 1.643,0.249 1.645,0.248 1.699,0.248 1.713,0.245 1.728,0.241 1.734,0.217 1.721,0.208 1.659,0.161 1.646,0.087 1.576,0.046 1.519,0.012 1.445,-0.027 1.377,-0.026 1.24,-0.024 1.114,0.069 1.117,0.215 c -0.015,0 -0.03,0 -0.045,-0.001 C 0.863,0.207 0.655,0.212 0.449,0.168 0.394,0.155 0.342,0.115 0.292,0.091 0.233,0.062 0.172,0.022 0.124,-0.021 c -0.068,-0.063 -0.131,-0.13 -0.199,-0.191 -0.121,-0.109 -0.222,-0.238 -0.34,-0.35 -0.004,-0.002 -0.011,0.001 -0.009,0.006 0.013,0.045 0.045,0.082 0.082,0.113 0.033,0.026 0.049,0.064 0.079,0.092 0.047,0.044 0.082,0.096 0.121,0.147 C -0.092,-0.14 -0.05,-0.066 0,0" /></g><g
           transform="translate(135.6338,108.5273)"
           id="g484"><path
             id="path486"
             style="fill:#1c1c1c;fill-opacity:1;fill-rule:nonzero;stroke:none"
             d="m 0,0 c -0.158,-0.167 -0.289,-0.359 -0.42,-0.548 -0.107,-0.153 -0.17,-0.329 -0.256,-0.493 -0.087,0.01 -0.189,-0.021 -0.242,-0.078 -0.047,0.011 -0.089,0.02 -0.117,0.031 -0.297,0.106 -0.564,0.181 -0.881,0.16 -0.286,-0.017 -0.52,-0.12 -0.786,-0.221 -0.157,-0.06 -0.5,-0.166 -0.572,-0.332 -10e-4,-0.003 10e-4,-0.006 0.003,-0.004 0.193,0.101 0.379,0.199 0.597,0.232 0.255,0.04 0.499,0.149 0.759,0.146 0.106,-0.001 0.207,0.014 0.313,0.006 0.145,-0.009 0.265,-0.051 0.401,-0.091 0.067,-0.019 0.135,-0.042 0.202,-0.064 -0.029,-0.03 -0.048,-0.077 -0.048,-0.115 0,-0.006 10e-4,-0.012 10e-4,-0.017 -0.006,-0.004 -0.012,-0.008 -0.016,-0.012 -0.003,-0.003 -0.006,-0.006 -0.009,-0.008 -0.011,-0.007 -0.022,-0.014 -0.032,-0.022 -0.007,-0.006 -0.01,-0.012 -0.01,-0.02 -0.01,-0.011 -0.019,-0.022 -0.025,-0.036 -0.004,-0.009 -0.001,-0.02 0.01,-0.023 0.021,-0.004 0.039,0 0.06,0.005 h 0.002 c 0.011,-0.002 0.026,-0.002 0.035,-10e-4 0.012,10e-4 0.024,10e-4 0.036,10e-4 0.058,-0.057 0.153,-0.077 0.242,-0.077 0.187,-0.002 0.352,0.075 0.489,0.193 0.163,0.139 0.31,0.297 0.405,0.489 0.005,0.011 -0.007,0.025 -0.019,0.018 L 0.069,-0.916 c 0.023,0.035 0.035,0.072 0.033,0.111 -10e-4,0.008 -0.009,0.013 -0.016,0.009 -0.048,-0.023 -0.078,-0.075 -0.109,-0.122 0.014,0.029 0.027,0.06 0.038,0.093 0.004,0.01 -0.009,0.018 -0.017,0.013 -0.113,-0.075 -0.219,-0.155 -0.32,-0.244 -0.069,-0.06 -0.152,-0.045 -0.234,-0.041 0.072,0.129 0.129,0.263 0.202,0.393 0.129,0.226 0.32,0.421 0.528,0.575 C 0.351,0.002 0.538,0.07 0.727,0.176 0.832,0.234 0.908,0.307 0.998,0.385 1.062,0.441 1.162,0.513 1.201,0.591 1.202,0.592 1.201,0.593 1.2,0.593 1.124,0.599 1.054,0.533 0.99,0.498 0.877,0.434 0.725,0.373 0.601,0.336 0.399,0.275 0.146,0.153 0,0" /></g><g
           transform="translate(157.0225,105.1416)"
           id="g488"><path
             id="path490"
             style="fill:#1c1c1c;fill-opacity:1;fill-rule:nonzero;stroke:none"
             d="m 0,0 c -0.002,0.001 -0.004,0.002 -0.006,0.002 -0.007,0.003 -0.014,-0.004 -0.01,-0.011 0.009,-0.014 -0.326,-0.141 -0.429,-0.18 V -0.19 c -0.455,0.014 -0.876,-0.171 -1.334,-0.131 -0.156,0.013 -0.403,0.027 -0.553,-0.03 -0.064,-0.024 -0.117,-0.061 -0.165,-0.104 -0.069,-0.021 -0.14,-0.047 -0.199,-0.085 -0.049,-0.006 -0.099,-0.016 -0.146,-0.03 -0.04,0.025 -0.08,0.045 -0.109,0.053 -0.114,0.034 -0.234,0.027 -0.339,-0.021 -0.133,0.126 -0.231,0.244 -0.399,0.329 -0.272,0.137 -0.564,0.129 -0.851,0.195 -0.304,0.072 -0.599,0.237 -0.886,0.359 -0.134,0.057 -0.267,0.123 -0.39,0.2 -0.059,0.037 -0.127,0.097 -0.197,0.104 -0.002,0 -0.004,-0.001 -0.004,-0.002 C -6.018,0.645 -6.019,0.643 -6.02,0.641 -6.02,0.64 -6.019,0.639 -6.018,0.639 -6.042,0.627 -5.6,0.346 -5.572,0.332 c 0.258,-0.128 0.507,-0.268 0.762,-0.396 0.248,-0.124 0.528,-0.231 0.793,-0.314 0.216,-0.067 0.4,-0.198 0.593,-0.309 0.055,-0.153 -0.007,-0.313 0.09,-0.459 0.017,-0.025 0.039,-0.046 0.07,-0.046 0.138,-0.002 0.251,-0.109 0.372,-0.168 0.245,-0.121 0.655,-0.097 0.877,0.064 0.035,0.025 0.009,0.078 -0.032,0.066 -0.163,-0.05 -0.342,-0.019 -0.483,0.077 -0.05,0.034 -0.084,0.071 -0.111,0.113 -0.011,0.024 -0.022,0.049 -0.031,0.073 0.107,0.015 0.213,0.032 0.321,0.044 0.28,0.029 0.536,0.165 0.813,0.186 0.259,0.019 0.495,0.139 0.723,0.253 0.17,0.085 0.334,0.181 0.509,0.255 0.118,0.049 0.244,0.106 0.311,0.215 C 0.008,-0.009 0.005,-0.002 0,0" /></g><g
           transform="translate(100.0635,176.6802)"
           id="g492"><path
             id="path494"
             style="fill:#1c1c1c;fill-opacity:1;fill-rule:nonzero;stroke:none"
             d="M 0,0 0.862,-1.747 2.79,-2.027 1.395,-3.387 1.724,-5.307 0,-4.4 l -1.724,-0.907 0.329,1.92 -1.395,1.36 1.928,0.28 z" /></g><g
           transform="translate(149.9365,176.6802)"
           id="g496"><path
             id="path498"
             style="fill:#1c1c1c;fill-opacity:1;fill-rule:nonzero;stroke:none"
             d="M 0,0 0.862,-1.747 2.79,-2.027 1.395,-3.387 1.725,-5.307 0,-4.4 l -1.725,-0.907 0.33,1.92 -1.395,1.36 1.928,0.28 z" /></g></g></g></g></svg>