<?xml version="1.0" encoding="utf-8"?>
<!-- Generator: Adobe Illustrator 21.0.0, SVG Export Plug-In . SVG Version: 6.00 Build 0)  -->
<svg version="1.1" id="Layer_1" xmlns="http://www.w3.org/2000/svg" xmlns:xlink="http://www.w3.org/1999/xlink" x="0px" y="0px"
	 viewBox="0 0 250 250" style="enable-background:new 0 0 250 250;" xml:space="preserve">
<style type="text/css">
	.st0{fill:#DD0031;}
	.st1{fill:#C3002F;}
	.st2{fill:#FEFEFE;}
</style>
<g>
	<polygon class="st0" points="125,30 125,30 125,30 31.9,63.2 46.1,186.3 125,230 125,230 125,230 203.9,186.3 218.1,63.2 	"/>
	<polygon class="st1" points="125,30 125,52.2 125,52.1 125,153.4 125,153.4 125,230 125,230 203.9,186.3 218.1,63.2 	"/>
</g>
<path class="st2" d="M125.1,87.1c1.2,0,2.8,0,4.3,0v-8.8h8.8v-7.7h35.2v7.7h8.8v8.8h8.8v35.2h-8.8v16.5h-8.8v8.8h-8.8v8.8h-8.8v7.7
	H147v8.8h-8.8v7.7h-7.7v8.6c-1.8,0.1-3.3,0.2-4.8,0.2c-1.5,0-3.3,0-5.1,0v-8.8h-8.8v-7.7H103v-8.8h-8.8v-8.8h-8.8v-8.8h-8.8v-7.7
	h-8.8v-17.6H59V87.1h8.8v-8.8h8.8v-7.7h35.2v7.7h8.8v8.8C122.3,87.1,123.7,87.1,125.1,87.1z M124.9,171.8c1.2,0,3,0,4.5,0V163h8.8
	v-7.7h8.8v-8.8h8.8v-8.8h8.8v-16.5h7.7V95.9h-8.8v-7.7h-25.3v7.7h-7.7v8.8c-1.7,0-3.3,0-5,0c-1.9,0-3.8,0-6,0v-8.8h-8.8v-7.7H85.4
	v7.7h-8.8v25.3h8.8v16.5h8.8v8.8h8.8v8.8h8.8v7.7h8.8v8.8C122.2,171.8,123.6,171.8,124.9,171.8z"/>
</svg>
