<svg xmlns="http://www.w3.org/2000/svg" width="226.771" height="226.771"><path fill="#B81734" d="M114.817 13.485l-93.099 33.2 14.199 123.1 78.9 43.7 78.901-43.7 14.199-123.1z"/><path fill="#DD0932" d="M114.813 13.485l-93.101 33.2 14.201 123.1 78.9 43.7"/><path fill="#FFF" d="M114.919 35.006L60.562 155.12h20.269l12.208-27.293h44.106l12.207 27.293h20.846L114.919 35.006zm-15.193 72.668l15.432-32.017 14.742 32.017H99.726z"/><path fill="none" stroke="#B81734" stroke-width="6" stroke-miterlimit="10" d="M34.895 160.96c14.85-4.466 30.557-7.587 39.918-9.475 19.507-3.934 37.145-7.374 59.9-6.3 10.31.486 17.995 1.762 23.648 2.8-.337-6.835.238-13.335 0-22.997.068-.177.441-1.269.582-1.644.672-1.789 1.711-3.102 2.598-3.994v-3.25l1.059-2.068 1.115 2.068.308 3.25a13.9 13.9 0 0 1 2.69 4.168c.211.51.377 1.003.51 1.47v5.081l2.361 1.307 2.453-1.308v-5.08c.132-.467.299-.96.51-1.47a13.92 13.92 0 0 1 2.69-4.168l.309-3.25 1.114-2.068 1.06 2.068v3.25c.888.893 1.927 2.205 2.598 3.994.141.375.515 1.467.582 1.644 0 22.997-.003 3.141-.003 26.138l.939.325 13.389 3.496-1.512 14.838-9.676 5.158-14.406 5.192c0-14.051-3.794-19.104-8.647-20.395-2.279-.605-4.396.026-5.013.233-5.424 1.817-7.197 8.341-7.75 10.374-.436 1.597-.877 4.037-.584 7.11l-14.646.836c-.219-9.156-4.244-16.32-9.705-17.771-2.565-.682-4.945.03-5.64.263-6.103 2.045-8.1 9.385-8.722 11.672-.489 1.797-.986 4.543-.656 8.001l-13.796.89c-.231-9.666-4.48-17.227-10.245-18.759-2.708-.72-5.221.031-5.953.276-6.442 2.159-8.549 9.907-9.206 12.321-.516 1.896-1.041 4.795-.692 8.445l-5.003 1.361-27.66-15.209-.818-8.823z"/><path fill="#FFF" d="M34.895 160.96c14.85-4.466 30.557-7.587 39.918-9.475 19.507-3.934 37.145-7.374 59.9-6.3 10.31.486 17.995 1.762 23.648 2.8-.337-6.835.238-13.335 0-22.997.068-.177.441-1.269.582-1.644.672-1.789 1.711-3.102 2.598-3.994v-3.25l1.059-2.068 1.115 2.068.308 3.25a13.9 13.9 0 0 1 2.69 4.168c.211.51.377 1.003.51 1.47v5.081l2.361 1.307 2.453-1.308v-5.08c.132-.467.299-.96.51-1.47a13.92 13.92 0 0 1 2.69-4.168l.309-3.25 1.114-2.068 1.06 2.068v3.25c.888.893 1.927 2.205 2.598 3.994.141.375.515 1.467.582 1.644 0 22.997-.003 3.141-.003 26.138l.939.325 13.389 3.496-1.512 14.838-9.676 5.158-14.406 5.192c0-14.051-3.794-19.104-8.647-20.395-2.279-.605-4.396.026-5.013.233-5.424 1.817-7.197 8.341-7.75 10.374-.436 1.597-.877 4.037-.584 7.11l-14.646.836c-.219-9.156-4.244-16.32-9.705-17.771-2.565-.682-4.945.03-5.64.263-6.103 2.045-8.1 9.385-8.722 11.672-.489 1.797-.986 4.543-.656 8.001l-13.796.89c-.231-9.666-4.48-17.227-10.245-18.759-2.708-.72-5.221.031-5.953.276-6.442 2.159-8.549 9.907-9.206 12.321-.516 1.896-1.041 4.795-.692 8.445l-5.003 1.361-27.66-15.209-.818-8.823z"/><path fill="none" stroke="#FFF" stroke-width="7" stroke-miterlimit="10" d="M114.813 13.485l-93.101 33.2 13.263 114.969.938 8.131 78.9 43.7 78.899-43.7 14.201-123.1z"/><path fill="none" stroke="#B81734" stroke-width="4" stroke-miterlimit="10" d="M114.814 11.485L19.852 45.349l13.527 117.268.957 8.294 80.478 44.574 80.478-44.574 14.484-125.562z"/></svg>