<svg xmlns="http://www.w3.org/2000/svg" viewBox="0 0 1000 1000"><defs><style>.cls-1{fill:#de0031;}.cls-2{fill:#c40030;}.cls-3{fill:#fff;}</style></defs><title>Kathakali Logo</title><g id="Layer_4" data-name="Layer 4"><polygon class="cls-1" points="500 119.14 500 880.86 196.64 714.52 145.22 244.22 500 119.14"/><polygon class="cls-2" points="500 119.14 500 880.86 803.36 714.52 854.78 244.22 500 119.14"/><path class="cls-3" d="M413.63,525a1.74,1.74,0,0,0,.12.32.33.33,0,0,0,.17-.15A1.86,1.86,0,0,1,413.63,525Zm-6.94,5.25a2.17,2.17,0,0,1-.25.15l.45.3A3.54,3.54,0,0,0,406.69,530.25Z"/><path class="cls-3" d="M425.31,459.17h0c0,.07.12.15.2.25Zm2.17,2.76h0l0,0S427.5,462,427.47,461.93Zm-20.78,68.32a2.17,2.17,0,0,1-.25.15l.45.3A3.54,3.54,0,0,0,406.69,530.25Zm18.62-71.09h0c0,.07.12.15.2.25Zm2.17,2.76h0l0,0S427.5,462,427.47,461.93Z"/><path class="cls-3" d="M412.07,487.29a26.61,26.61,0,0,0-5.38-11.6,27.16,27.16,0,0,0-7.52-6.47,26.86,26.86,0,0,0-40.3,23.2,26.89,26.89,0,0,0,21.6,26.33,25.85,25.85,0,0,0,5.23.52,27.48,27.48,0,0,0,4.33-.35,3.17,3.17,0,0,1,.37-.62,3.08,3.08,0,0,0,.55.45,26.62,26.62,0,0,0,9-3.56c.37-.22.72-.45,1.07-.7a27.77,27.77,0,0,0,7-7.07,26.86,26.86,0,0,0,4.21-10.58,26,26,0,0,0,.37-4.43A26.93,26.93,0,0,0,412.07,487.29Zm-13.14,17.87a18.2,18.2,0,0,1-5.95,4.16,18.5,18.5,0,0,1-7.27,1.49,3.67,3.67,0,0,1-.52,0,17.78,17.78,0,0,1-3.48-.42,18.36,18.36,0,0,1-14.21-15.76,15.9,15.9,0,0,1-.15-2.19,18.35,18.35,0,0,1,30.54-13.74v0a18,18,0,0,1,6.2,13.27,2.72,2.72,0,0,1,0,.45A18.22,18.22,0,0,1,398.92,505.16Z"/><path class="cls-3" d="M390.41,518.31a3.17,3.17,0,0,0-.37.62c.32,0,.62-.1.92-.17A3.08,3.08,0,0,1,390.41,518.31Z"/><path class="cls-3" d="M574.7,459.17l-.17.25c.07-.1.15-.17.2-.25Zm-2.17,2.76a.13.13,0,0,0,0,.1.34.34,0,0,1,.07-.1Zm2.17-2.76-.17.25c.07-.1.15-.17.2-.25Zm-2.17,2.76a.13.13,0,0,0,0,.1.34.34,0,0,1,.07-.1Zm2.17-2.76-.17.25c.07-.1.15-.17.2-.25Zm-2.17,2.76a.13.13,0,0,0,0,.1.34.34,0,0,1,.07-.1Zm2.17-2.76-.17.25c.07-.1.15-.17.2-.25Zm-2.17,2.76a.13.13,0,0,0,0,.1.34.34,0,0,1,.07-.1Zm2.17-2.76-.17.25c.07-.1.15-.17.2-.25Zm-2.17,2.76a.13.13,0,0,0,0,.1.34.34,0,0,1,.07-.1Zm2.17-2.76-.17.25c.07-.1.15-.17.2-.25Zm-2.17,2.76a.13.13,0,0,0,0,.1.34.34,0,0,1,.07-.1Zm2.17-2.76-.17.25c.07-.1.15-.17.2-.25Zm-2.17,2.76a.13.13,0,0,0,0,.1.34.34,0,0,1,.07-.1Z"/><path class="cls-3" d="M339.14,389.35a160.44,160.44,0,0,1,7.59-48.88c1.54-4.85,3.34-9.61,5.33-14.26a161.46,161.46,0,0,1,113.18-93.94,148.24,148.24,0,0,1,15-2.59,161.14,161.14,0,0,1,39.58,0,148.24,148.24,0,0,1,15,2.59A161.46,161.46,0,0,1,648,326.2c2,4.65,3.78,9.41,5.33,14.26A160.9,160.9,0,0,1,647.73,453a51.15,51.15,0,0,0-17.47-9.76,40.91,40.91,0,0,0,3.21-15.93A41.39,41.39,0,0,0,613.63,392c-1.12-.67-2.27-1.32-3.46-1.89,0-.72,0-1.47,0-2.22a35.18,35.18,0,0,0-.17-3.63,42.61,42.61,0,0,0-42.41-39h-.55V322a29,29,0,0,0-29-29h-10A93.41,93.41,0,0,0,506,249.77c-1.89-2.09-3.86-4.11-5.95-6-2.09,1.92-4.06,3.93-5.95,6A93.41,93.41,0,0,0,471.9,293h-10a29,29,0,0,0-29,29v23.27h-.55a42.61,42.61,0,0,0-42.41,39,35.18,35.18,0,0,0-.17,3.63c0,.75,0,1.49,0,2.22-1.19.57-2.34,1.22-3.46,1.89a41.39,41.39,0,0,0-19.84,35.32,40.91,40.91,0,0,0,3.21,15.93A51.15,51.15,0,0,0,352.28,453,159.6,159.6,0,0,1,339.14,389.35Zm220.2,41.14c-.1-1-.15-2.12-.15-3.19a33.55,33.55,0,0,1,.42-5.28,31.35,31.35,0,0,1,1.1-4.63,31.7,31.7,0,0,1,3.76-7.92,31,31,0,0,1,2.26-3.11,33.27,33.27,0,0,1,15.36-10.43.09.09,0,0,0,.07,0,.46.46,0,0,0,.17,0,29.6,29.6,0,0,1,4-.95h0s0,0,0,0a33.53,33.53,0,0,1,5.72-.5,32.8,32.8,0,0,1,8.76,1.19,31.31,31.31,0,0,1,7.89,3.36A32.83,32.83,0,0,1,625,427.31a32.43,32.43,0,0,1-3.14,14,50.62,50.62,0,0,0-7.57-.57,51.49,51.49,0,0,0-22.13,5A48.17,48.17,0,0,0,584.8,450a49.87,49.87,0,0,0-7.72,6.57A32.82,32.82,0,0,1,559.34,430.49Zm15.38,28.67c0,.07-.12.15-.2.25l.17-.25Zm-2.12,2.66s0,0,0,.1a.34.34,0,0,0-.07.1.13.13,0,0,1,0-.1A.34.34,0,0,1,572.61,461.83Zm-149.69-5.3a51.3,51.3,0,0,0-8.66-7.22,49,49,0,0,0-7.44-4.08,51.13,51.13,0,0,0-21.11-4.53,50.62,50.62,0,0,0-7.57.57,32.43,32.43,0,0,1-3.14-14A32.83,32.83,0,0,1,391.26,399a31.31,31.31,0,0,1,7.89-3.36,32.8,32.8,0,0,1,8.76-1.19,33.53,33.53,0,0,1,5.72.5s0,0,0,0h0a29.6,29.6,0,0,1,4,.95.46.46,0,0,0,.17,0,.09.09,0,0,0,.07,0l.35.12c.6.2,1.17.4,1.74.65a1,1,0,0,1,.25.1c.47.2,1,.4,1.42.62a1.34,1.34,0,0,1,.27.12.74.74,0,0,1,.2.1c.4.17.82.4,1.22.62a4.88,4.88,0,0,1,.5.27,9.23,9.23,0,0,1,.85.47l.25.15c.42.25.85.52,1.24.8.12.07.22.17.35.25.62.42,1.19.85,1.77,1.32a18.64,18.64,0,0,1,1.52,1.27c.52.47,1,1,1.54,1.47.22.22.45.45.67.7.4.45.82.92,1.22,1.39.65.77,1.24,1.59,1.84,2.44A32.58,32.58,0,0,1,440.39,422a33.55,33.55,0,0,1,.42,5.28c0,1.07,0,2.14-.15,3.19A32.82,32.82,0,0,1,422.92,456.53ZM427.5,462l0,0s0-.07,0-.1a.34.34,0,0,1,.07.1S427.5,462,427.5,462Zm-2-2.56c-.07-.1-.15-.17-.2-.25h0ZM437,398a41.24,41.24,0,0,0-38.75-10.88,34.16,34.16,0,0,1,34.1-33.33H567.63a34.16,34.16,0,0,1,34.1,33.33A41.19,41.19,0,0,0,563,398c-.3.27-.57.57-.85.87s-.82.85-1.19,1.29-.75.85-1.07,1.27-.62.77-.92,1.17-.7.92-1,1.39c-.07.12-.17.25-.25.37-.35.5-.65,1-1,1.54a2.74,2.74,0,0,0-.15.27h0a42.23,42.23,0,0,0-2.84,5.72A40.92,40.92,0,0,0,551.08,422H448.93a42.13,42.13,0,0,0-5.48-15.88h0c-.47-.82-1-1.64-1.54-2.41A41.42,41.42,0,0,0,437,398Zm4.36-52.67V322a20.56,20.56,0,0,1,20.56-20.53h76.11A20.56,20.56,0,0,1,558.62,322v23.27ZM480.56,293A85.34,85.34,0,0,1,500,255.79,85.34,85.34,0,0,1,519.44,293ZM413.93,525.18a.33.33,0,0,1-.17.15,39.91,39.91,0,0,1-7.07,4.93,3.54,3.54,0,0,1,.2.45l-.45-.3a42.85,42.85,0,0,1-20.73,5.3c-.87,0-1.74,0-2.59-.07a42.43,42.43,0,0,1-8.39-1.34,43.33,43.33,0,0,1-32.28-41.87,43.39,43.39,0,0,1,31.46-41.62,42.44,42.44,0,0,1,9.48-1.59c.77,0,1.54,0,2.31,0A42.91,42.91,0,0,1,403.58,453a41.37,41.37,0,0,1,7.47,4.33,35.34,35.34,0,0,1,2.84,2.26,43,43,0,0,1,13.74,22,42.39,42.39,0,0,1,1.29,8.39c0,.8.07,1.59.07,2.41A43.1,43.1,0,0,1,413.93,525.18Zm174.58,12.1a51.45,51.45,0,0,0,25.79,6.89c1.37,0,2.74,0,4.08-.17a48.85,48.85,0,0,0,8.36-1.34,51.72,51.72,0,0,0,27.38-83.21,169.16,169.16,0,0,0,2.54-134.33,169.36,169.36,0,0,0-105-97,169.15,169.15,0,0,0-103.39,0,169.36,169.36,0,0,0-105,97,169.16,169.16,0,0,0,2.54,134.33,51.72,51.72,0,0,0,27.38,83.21,48.85,48.85,0,0,0,8.36,1.34c1.34.12,2.71.17,4.08.17a51.4,51.4,0,0,0,24.84-6.37,40.59,40.59,0,0,0,7.07-4.7,41.56,41.56,0,0,0,3.88-3.39,51.44,51.44,0,0,0,16-37.29c0-1.32,0-2.61-.17-3.88a44.39,44.39,0,0,0-1.32-8.36,50.32,50.32,0,0,0-7.59-17,41.23,41.23,0,0,0,20.76-32.71H550.88a41.23,41.23,0,0,0,20.76,32.71,50.32,50.32,0,0,0-7.59,17,44.39,44.39,0,0,0-1.32,8.36c-.12,1.27-.17,2.56-.17,3.88a51.44,51.44,0,0,0,16,37.29,38.15,38.15,0,0,0,3,2.69A56.3,56.3,0,0,0,588.51,537.27Zm69-44.85a43.33,43.33,0,0,1-32.28,41.87,42.43,42.43,0,0,1-8.39,1.34c-.85,0-1.72.07-2.59.07a42.85,42.85,0,0,1-20.73-5.3c-.42-.22-.85-.47-1.24-.7v0a41,41,0,0,1-6.25-4.51c-.25-.2-.5-.4-.75-.62A43.14,43.14,0,0,1,571,492.42c0-.82,0-1.62.07-2.41a42.39,42.39,0,0,1,1.29-8.39,43,43,0,0,1,13.74-22,21.67,21.67,0,0,1,1.87-1.52,42.37,42.37,0,0,1,7.37-4.58,42.81,42.81,0,0,1,18.94-4.38c.77,0,1.54,0,2.31,0a42.44,42.44,0,0,1,9.48,1.59,43.36,43.36,0,0,1,31.46,41.62Z"/><path class="cls-3" d="M500,507a71.12,71.12,0,0,0-56-27.25,66.09,66.09,0,0,0-8,.47,44.39,44.39,0,0,1,1.32,8.36,60.16,60.16,0,0,1,6.72-.37,62.63,62.63,0,0,1,50.93,26.16,58.65,58.65,0,0,1,5.08,8.29,58.65,58.65,0,0,1,5.08-8.29A71.6,71.6,0,0,0,500,507Z"/><path class="cls-3" d="M556,479.7a71.34,71.34,0,0,0-61.08,34.62,58.65,58.65,0,0,1,5.08,8.29,58.65,58.65,0,0,1,5.08-8.29A62.63,62.63,0,0,1,556,488.16a60.16,60.16,0,0,1,6.72.37,44.39,44.39,0,0,1,1.32-8.36A66.09,66.09,0,0,0,556,479.7Z"/><path class="cls-3" d="M425.31,459.17h0c0,.07.12.15.2.25Zm2.17,2.76a.34.34,0,0,0-.07-.1s0,0,0,.1l0,0S427.5,462,427.47,461.93Zm-2.17-2.76h0c0,.07.12.15.2.25Zm2.17,2.76a.34.34,0,0,0-.07-.1s0,0,0,.1l0,0S427.5,462,427.47,461.93Zm-2.17-2.76h0c0,.07.12.15.2.25Zm2.17,2.76a.34.34,0,0,0-.07-.1s0,0,0,.1l0,0S427.5,462,427.47,461.93Z"/><path class="cls-3" d="M572.53,461.93a.13.13,0,0,0,0,.1.34.34,0,0,1,.07-.1s0-.07,0-.1A.34.34,0,0,0,572.53,461.93Zm2.17-2.76-.17.25c.07-.1.15-.17.2-.25ZM563,398c-.3.3-.57.57-.82.87.27-.3.55-.6.85-.87Zm0,0c-.3.3-.57.57-.82.87.27-.3.55-.6.85-.87Zm0,0c-.3.3-.57.57-.82.87.27-.3.55-.6.85-.87Zm0,0c-.3.3-.57.57-.82.87.27-.3.55-.6.85-.87Zm0,0c-.3.3-.57.57-.82.87.27-.3.55-.6.85-.87Zm0,0c-.3.3-.57.57-.82.87.27-.3.55-.6.85-.87Zm11.72,61.2-.17.25c.07-.1.15-.17.2-.25Zm-2.17,2.76a.13.13,0,0,0,0,.1.34.34,0,0,1,.07-.1s0-.07,0-.1A.34.34,0,0,0,572.53,461.93ZM563,398c-.3.3-.57.57-.82.87.27-.3.55-.6.85-.87Zm0,0c-.3.3-.57.57-.82.87.27-.3.55-.6.85-.87Zm0,0c-.3.3-.57.57-.82.87.27-.3.55-.6.85-.87Zm0,0c-.3.3-.57.57-.82.87.27-.3.55-.6.85-.87Zm0,0c-.3.3-.57.57-.82.87.27-.3.55-.6.85-.87Zm0,0c-.3.3-.57.57-.82.87.27-.3.55-.6.85-.87Zm0,0c-.3.3-.57.57-.82.87.27-.3.55-.6.85-.87Zm9.56,64a.13.13,0,0,0,0,.1.34.34,0,0,1,.07-.1s0-.07,0-.1A.34.34,0,0,0,572.53,461.93Zm2.17-2.76-.17.25c.07-.1.15-.17.2-.25ZM563,398c-.3.3-.57.57-.82.87.27-.3.55-.6.85-.87Z"/><path class="cls-3" d="M639.94,484.56a26.51,26.51,0,0,0-4.46-8.56,26.8,26.8,0,0,0-35.77-6.1,27.67,27.67,0,0,0-7.49,7.24v0a26.43,26.43,0,0,0-4.28,10.13,26.93,26.93,0,0,0-.5,5.13,26,26,0,0,0,.37,4.43,26.3,26.3,0,0,0,3.29,9.08,27.53,27.53,0,0,0,6.87,7.82c.67.5,1.37,1,2.12,1.44a26.62,26.62,0,0,0,9,3.56c.3.07.6.12.92.17a27.48,27.48,0,0,0,4.33.35,25.85,25.85,0,0,0,5.23-.52,26.89,26.89,0,0,0,21.6-26.33A26.5,26.5,0,0,0,639.94,484.56Zm-7.42,10.06a18.36,18.36,0,0,1-14.21,15.76,17.78,17.78,0,0,1-3.48.42,3.67,3.67,0,0,1-.52,0A18.24,18.24,0,0,1,600,504a18.21,18.21,0,0,1-4.13-11.57,2.72,2.72,0,0,1,0-.45,18.13,18.13,0,0,1,5.05-12.2,18.37,18.37,0,0,1,31.69,12.64A15.9,15.9,0,0,1,632.52,494.61Z"/><path class="cls-3" d="M632.19,614.63c-12.72,13.74-36,21.88-59.49,26.68l-1.44.3c-2.07.4-4.13.8-6.17,1.15-1.15.2-2.27.4-3.39.57a400.45,400.45,0,0,1-60.16,4.88h-2.24a401.18,401.18,0,0,1-61.13-5.05c-1-.17-2.12-.35-3.19-.55-2.09-.37-4.21-.77-6.32-1.19l-1.29-.25c-23.25-4.83-46.15-12.94-58.72-26.53-10.73-11.6-15.51-23.94-14.24-36.74,2.31-23.22,23.84-39.08,24.74-39.75l4.41,6c-.2.15-19.79,14.61-21.73,34.47-1,10.55,3.11,21,12.32,30.91,11.05,12,31.66,19.34,53.07,23.87,1.57.35,3.11.67,4.68,1l2.81.52c2,.37,4.11.72,6.15,1a403.77,403.77,0,0,0,59.51,4.75h.1a404.32,404.32,0,0,0,58.79-4.63c2-.32,4-.65,6-1,1-.17,2-.35,2.94-.55,1.52-.27,3-.57,4.55-.92,21.73-4.51,42.74-11.92,53.94-24,9.21-10,13.34-20.36,12.3-30.91-1.94-19.86-21.51-34.32-21.7-34.47l4.38-6c.92.67,22.45,16.53,24.77,39.75C647.73,590.69,642.92,603,632.19,614.63Z"/><path class="cls-3" d="M437.75,579.78c20.37,16,51.81,17.16,60.27,17.16l1.71,0,1.71,0c8.47,0,39.91-1.13,60.27-17.16,20.82-16.38,19.53-54.76,19.47-56.39l-7.46.3c0,.36,1.23,36.17-16.62,50.23-20.08,15.8-53.85,15.6-57.22,15.54h-.29c-3.36.05-37.14.26-57.22-15.54-17.81-14-16.64-49.87-16.62-50.23l-7.46-.29C418.22,525,416.93,563.4,437.75,579.78Z"/><circle class="cls-3" cx="376.38" cy="348.27" r="9.33"/><circle class="cls-3" cx="395.67" cy="313.84" r="9.33"/><circle class="cls-3" cx="420.56" cy="285.01" r="9.33"/><circle class="cls-3" cx="451.88" cy="265.51" r="9.33"/><circle class="cls-3" cx="624.04" cy="348.27" r="9.33"/><circle class="cls-3" cx="604.75" cy="313.84" r="9.33"/><circle class="cls-3" cx="579.86" cy="285.01" r="9.33"/><circle class="cls-3" cx="548.54" cy="265.51" r="9.33"/><circle class="cls-3" cx="465.36" cy="323.02" r="8.04"/><circle class="cls-3" cx="500" cy="323.02" r="8.04"/><circle class="cls-3" cx="534.64" cy="323.02" r="8.04"/><rect class="cls-3" x="490.98" y="376.79" width="18.05" height="18.05" transform="translate(419.26 -240.55) rotate(45)"/><rect class="cls-3" x="452.89" y="379" width="13.64" height="13.64" transform="translate(407.46 -212.06) rotate(45)"/><rect class="cls-3" x="533.47" y="379" width="13.64" height="13.64" transform="translate(431.06 -269.04) rotate(45)"/><path class="cls-3" d="M480.77,530s-3.63-14.58-23.13-18.73c-11.83-2.52-17.84-4.77-24.12-11.2-4.05,13.73-4.5,15.08-4.5,15.08S447.69,548.93,480.77,530Z"/><path class="cls-3" d="M519.24,530s3.63-14.58,23.13-18.73c11.83-2.52,17.84-4.77,24.12-11.2,4.05,13.73,4.5,15.08,4.5,15.08S552.32,548.93,519.24,530Z"/><circle class="cls-3" cx="407.29" cy="425.02" r="11.2"/><circle class="cls-3" cx="592.1" cy="425.02" r="11.2"/><circle class="cls-3" cx="385.92" cy="492.53" r="7.67"/><circle class="cls-3" cx="615.74" cy="492.53" r="7.67"/><path class="cls-3" d="M499.88,614.81c-44.09,0-73.93-10.33-88.73-30.72-16.05-22.12-8-47.47-7.63-48.54l7.09,2.33-3.55-1.17,3.55,1.16c-.07.23-7.21,22.91,6.63,41.9,13.41,18.41,41.52,27.57,83.36,27.57l0,7.47Z"/><path class="cls-3" d="M500.62,631.19c-60.66,0-98.76-12.64-113.23-37.56-14.65-25.23.84-52.93,1.5-54.1l6.49,3.7c-.14.25-14,25.22-1.5,46.7,12.88,22.11,49.79,33.79,106.74,33.79Z"/><path class="cls-3" d="M500.12,614.81h-.75l0-7.47h.74c41.55,0,69.36-9.3,82.67-27.64,13.83-19.07,6.65-41.59,6.58-41.82l7.09-2.33c.35,1.07,8.43,26.41-7.63,48.54C574.06,604.47,544.2,614.81,500.12,614.81Z"/><path class="cls-3" d="M499.38,631.19v-7.47c57,0,93.86-11.69,106.74-33.79,12.51-21.48-1.36-46.46-1.5-46.7l6.49-3.7c.67,1.17,16.15,28.87,1.5,54.1C598.14,618.55,560,631.19,499.38,631.19Z"/><path class="cls-3" d="M572.71,641.31l-1.44.3c-2.07.4-4.13.8-6.17,1.15-1.15.2-2.27.4-3.39.57-9,11.4-33.63,19.81-61.7,19.81s-53-8.51-61.83-20c-1-.17-2.12-.35-3.19-.55-2.09-.37-4.21-.77-6.32-1.19l-1.29-.25a20.65,20.65,0,0,0-2,8.91c0,21.08,32.81,37.58,74.67,37.58s74.67-16.5,74.67-37.58A20.65,20.65,0,0,0,572.71,641.31ZM500,680.19c-36.44,0-67.2-13.79-67.2-30.12a9.14,9.14,0,0,1,.12-1.64c11,13.14,36.54,22.18,67.08,22.18s56.13-9,67.08-22.18a9.14,9.14,0,0,1,.12,1.64C567.21,666.4,536.44,680.19,500,680.19Z"/><path class="cls-3" d="M502.16,743.17,385.59,729.48a3.76,3.76,0,0,1-2.24-1.11l-41.28-42.53a3.74,3.74,0,0,1-.09-5.11c32.1-35.41,88.72-42.78,91.11-43.08l.92,7.41c-.55.07-53.43,7-84.1,38.15l37.86,39L503,735.75Z"/><path class="cls-3" d="M497.85,743.17l-.87-7.42,115.25-13.53,37.86-39C619.42,652,566.54,645.13,566,645.06l.92-7.41c2.39.3,59,7.67,91.11,43.08a3.73,3.73,0,0,1-.09,5.11l-41.28,42.53a3.75,3.75,0,0,1-2.24,1.11Z"/></g></svg>