<?xml version="1.0" encoding="utf-8"?>
<!-- Generator: Adobe Illustrator 25.0.1, SVG Export Plug-In . SVG Version: 6.00 Build 0)  -->
<svg version="1.1" id="Layer_1" xmlns="http://www.w3.org/2000/svg" xmlns:xlink="http://www.w3.org/1999/xlink" x="0px" y="0px"
	 viewBox="0 0 709.6 761.7" style="enable-background:new 0 0 709.6 761.7;" xml:space="preserve">
<style type="text/css">
	.st0{fill:#DE0031;}
	.st1{fill:#C40030;}
	.st2{fill:#FFFFFF;}
</style>
<g id="Layer_4">
	<polygon class="st0" points="354.8,0 354.8,761.7 51.4,595.4 0,125.1 	"/>
	<polygon class="st1" points="354.8,0 354.8,761.7 658.1,595.4 709.6,125.1 	"/>
	<path class="st2" d="M268.4,405.9c0,0.1,0.1,0.2,0.1,0.3c0.1,0,0.1-0.1,0.2-0.2C268.6,406,268.5,405.9,268.4,405.9z M261.5,411.1
		c-0.1,0.1-0.2,0.1-0.2,0.2l0.5,0.3C261.6,411.4,261.5,411.3,261.5,411.1z"/>
	<path class="st2" d="M280.1,340L280.1,340c0,0.1,0.1,0.1,0.2,0.2L280.1,340z M282.3,342.8L282.3,342.8L282.3,342.8
		C282.3,342.8,282.3,342.9,282.3,342.8L282.3,342.8z M261.5,411.1c-0.1,0.1-0.2,0.1-0.2,0.2l0.5,0.3
		C261.6,411.4,261.6,411.3,261.5,411.1L261.5,411.1z M280.1,340L280.1,340c0,0.1,0.1,0.1,0.2,0.2L280.1,340z M282.3,342.8
		L282.3,342.8L282.3,342.8C282.3,342.8,282.3,342.9,282.3,342.8L282.3,342.8z"/>
	<path class="st2" d="M266.9,368.2c-0.8-4.2-2.7-8.2-5.4-11.6c-2.1-2.6-4.6-4.8-7.5-6.5c-12.8-7.4-29.3-3-36.7,9.8
		c-2.4,4.1-3.6,8.7-3.6,13.4c0,12.8,9.1,23.8,21.6,26.3c1.7,0.4,3.5,0.5,5.2,0.5c1.5,0,2.9-0.1,4.3-0.3c0.1-0.2,0.2-0.4,0.4-0.6
		c0.2,0.2,0.3,0.3,0.5,0.5c3.2-0.6,6.2-1.8,9-3.6c0.4-0.2,0.7-0.5,1.1-0.7c2.7-1.9,5.1-4.3,7-7.1c2.1-3.2,3.6-6.8,4.2-10.6
		c0.2-1.5,0.4-2.9,0.4-4.4C267.4,371.6,267.2,369.8,266.9,368.2z M253.7,386c-1.7,1.8-3.7,3.2-6,4.2c-2.3,1-4.8,1.5-7.3,1.5
		c-0.2,0-0.3,0-0.5,0c-1.2,0-2.3-0.2-3.5-0.4c-7.6-1.7-13.3-8-14.2-15.8c-0.1-0.7-0.2-1.5-0.1-2.2c0-10.1,8.2-18.4,18.3-18.4
		c4.5,0,8.8,1.6,12.2,4.6l0,0c3.9,3.3,6.1,8.2,6.2,13.3c0,0.1,0,0.3,0,0.5C258.9,378,257,382.6,253.7,386L253.7,386z"/>
	<path class="st2" d="M245.2,399.2c-0.1,0.2-0.3,0.4-0.4,0.6c0.3,0,0.6-0.1,0.9-0.2C245.5,399.5,245.4,399.3,245.2,399.2z"/>
	<path class="st2" d="M429.5,340l-0.2,0.2C429.4,340.2,429.5,340.1,429.5,340L429.5,340z M427.3,342.8
		C427.3,342.8,427.3,342.9,427.3,342.8C427.3,342.9,427.4,342.8,427.3,342.8L427.3,342.8z M429.5,340l-0.2,0.2
		C429.4,340.2,429.5,340.1,429.5,340L429.5,340z M427.3,342.8C427.3,342.8,427.3,342.9,427.3,342.8
		C427.3,342.9,427.4,342.8,427.3,342.8L427.3,342.8z M429.5,340l-0.2,0.2C429.4,340.2,429.5,340.1,429.5,340L429.5,340z
		 M427.3,342.8C427.3,342.8,427.3,342.9,427.3,342.8C427.3,342.9,427.4,342.8,427.3,342.8L427.3,342.8z M429.5,340l-0.2,0.2
		C429.4,340.2,429.5,340.1,429.5,340L429.5,340z M427.3,342.8C427.3,342.8,427.3,342.9,427.3,342.8
		C427.3,342.9,427.4,342.8,427.3,342.8L427.3,342.8z M429.5,340l-0.2,0.2C429.4,340.2,429.5,340.1,429.5,340L429.5,340z
		 M427.3,342.8C427.3,342.8,427.3,342.9,427.3,342.8C427.3,342.9,427.4,342.8,427.3,342.8L427.3,342.8z M429.5,340l-0.2,0.2
		C429.4,340.2,429.5,340.1,429.5,340L429.5,340z M427.3,342.8C427.3,342.8,427.3,342.9,427.3,342.8
		C427.3,342.9,427.4,342.8,427.3,342.8L427.3,342.8z M429.5,340l-0.2,0.2C429.4,340.2,429.5,340.1,429.5,340L429.5,340z
		 M427.3,342.8C427.3,342.8,427.3,342.9,427.3,342.8C427.3,342.9,427.4,342.8,427.3,342.8L427.3,342.8z"/>
	<path class="st2" d="M193.9,270.2c0-16.6,2.5-33.1,7.6-48.9c1.5-4.9,3.3-9.6,5.3-14.3c20.4-47.7,62.6-82.6,113.2-93.9
		c5-1.1,10-2,15-2.6c13.1-1.6,26.4-1.6,39.6,0c5,0.6,10,1.5,15,2.6c50.6,11.3,92.7,46.3,113.2,93.9c2,4.6,3.8,9.4,5.3,14.3
		c11.8,37,9.8,76.9-5.6,112.5c-5.1-4.4-11.1-7.7-17.5-9.8c2.1-5,3.2-10.5,3.2-15.9c0-14.4-7.5-27.8-19.8-35.3
		c-1.1-0.7-2.3-1.3-3.5-1.9c0-0.7,0-1.5,0-2.2c0-1.2-0.1-2.4-0.2-3.6c-1.9-22-20.3-39-42.4-39h-0.5v-23.3c0-16-13-29-29-29h-10
		c-3.4-16.1-11-31-22-43.2c-1.9-2.1-3.9-4.1-6-6c-2.1,1.9-4.1,3.9-6,6c-11.1,12.2-18.7,27.1-22.2,43.2h-10c-16,0-29,13-29,29v23.3
		h-0.5c-22.1,0-40.5,17-42.4,39c-0.1,1.2-0.2,2.4-0.2,3.6c0,0.8,0,1.5,0,2.2c-1.2,0.6-2.3,1.2-3.5,1.9
		c-12.3,7.5-19.8,20.9-19.8,35.3c0,5.5,1.1,10.9,3.2,15.9c-6.4,2.1-12.3,5.4-17.4,9.7C198.4,313.8,193.9,292.1,193.9,270.2z
		 M414.1,311.3c-0.1-1-0.2-2.1-0.2-3.2c0-1.8,0.1-3.5,0.4-5.3c0.2-1.6,0.6-3.1,1.1-4.6c0.9-2.8,2.1-5.5,3.8-7.9
		c0.7-1.1,1.4-2.1,2.3-3.1c4-4.9,9.4-8.5,15.4-10.4c0,0,0,0,0.1,0c0.1,0,0.1,0,0.2,0c1.3-0.4,2.6-0.7,4-1l0,0l0,0
		c1.9-0.3,3.8-0.5,5.7-0.5c3,0,5.9,0.4,8.8,1.2c2.8,0.8,5.4,1.9,7.9,3.4c10.1,5.9,16.3,16.6,16.3,28.3c0,4.8-1.1,9.6-3.1,14
		c-2.5-0.4-5-0.6-7.6-0.6c-7.7,0-15.2,1.7-22.1,5c-2.6,1.2-5,2.6-7.4,4.3c-2.8,1.9-5.4,4.1-7.7,6.6
		C421.9,332.3,415.2,322.5,414.1,311.3z M429.5,340c0,0.1-0.1,0.1-0.2,0.2L429.5,340L429.5,340z M427.4,342.7c0,0,0,0,0,0.1
		c0,0-0.1,0.1-0.1,0.1c0,0,0-0.1,0-0.1C427.3,342.7,427.4,342.7,427.4,342.7L427.4,342.7z M277.7,337.4c-2.6-2.7-5.5-5.1-8.7-7.2
		c-2.4-1.6-4.8-2.9-7.4-4.1c-6.6-3-13.8-4.5-21.1-4.5c-2.5,0-5.1,0.2-7.6,0.6c-2.1-4.4-3.2-9.2-3.1-14c0-11.6,6.2-22.4,16.3-28.3
		c2.5-1.5,5.1-2.6,7.9-3.4c2.9-0.8,5.8-1.2,8.8-1.2c1.9,0,3.8,0.2,5.7,0.5l0,0l0,0c1.4,0.2,2.7,0.5,4,1c0.1,0,0.1,0,0.2,0
		c0,0,0,0,0.1,0l0.4,0.1c0.6,0.2,1.2,0.4,1.7,0.7c0.1,0,0.2,0.1,0.2,0.1c0.5,0.2,1,0.4,1.4,0.6c0.1,0,0.2,0.1,0.3,0.1
		c0.1,0,0.1,0.1,0.2,0.1c0.4,0.2,0.8,0.4,1.2,0.6c0.2,0.1,0.3,0.2,0.5,0.3c0.3,0.1,0.6,0.3,0.9,0.5l0.2,0.1c0.4,0.2,0.9,0.5,1.2,0.8
		c0.1,0.1,0.2,0.2,0.4,0.2c0.6,0.4,1.2,0.9,1.8,1.3c0.5,0.4,1,0.8,1.5,1.3c0.5,0.5,1,1,1.5,1.5c0.2,0.2,0.5,0.5,0.7,0.7
		c0.4,0.5,0.8,0.9,1.2,1.4c0.6,0.8,1.2,1.6,1.8,2.4c2.7,4,4.5,8.5,5.3,13.2c0.3,1.7,0.4,3.5,0.4,5.3c0,1.1,0,2.1-0.1,3.2
		C294.4,322.5,287.7,332.3,277.7,337.4L277.7,337.4z M282.3,342.9L282.3,342.9C282.3,342.9,282.3,342.8,282.3,342.9
		C282.3,342.8,282.3,342.8,282.3,342.9L282.3,342.9z M280.3,340.3c-0.1-0.1-0.1-0.2-0.2-0.2l0,0L280.3,340.3z M291.8,278.9
		C281.6,268.7,267,264.6,253,268c0.5-18.5,15.6-33.3,34.1-33.3h135.3c18.5,0,33.6,14.8,34.1,33.3c-13.9-3.4-28.6,0.8-38.7,10.9
		c-0.3,0.3-0.6,0.6-0.8,0.9s-0.8,0.9-1.2,1.3s-0.8,0.8-1.1,1.3s-0.6,0.8-0.9,1.2s-0.7,0.9-1,1.4c-0.1,0.1-0.2,0.2-0.2,0.4
		c-0.3,0.5-0.7,1-1,1.5c-0.1,0.1-0.1,0.2-0.2,0.3l0,0c-1.1,1.8-2,3.7-2.8,5.7c-1.3,3.2-2.2,6.6-2.6,10.1H303.7
		c-0.7-5.6-2.6-11-5.5-15.9l0,0c-0.5-0.8-1-1.6-1.5-2.4C295.2,282.5,293.6,280.6,291.8,278.9z M296.1,226.2v-23.3
		c0-11.3,9.2-20.5,20.6-20.5h76.1c11.4,0,20.6,9.2,20.6,20.5c0,0,0,0,0,0v23.3L296.1,226.2z M335.3,173.9
		c3.3-13.8,10-26.6,19.4-37.2c9.5,10.6,16.2,23.4,19.4,37.2H335.3z M268.7,406c0,0.1-0.1,0.1-0.2,0.2c-2.2,1.9-4.5,3.5-7.1,4.9
		c0.1,0.1,0.1,0.3,0.2,0.5l-0.5-0.3c-6.4,3.5-13.5,5.3-20.7,5.3c-0.9,0-1.7,0-2.6-0.1c-2.8-0.2-5.6-0.6-8.4-1.3
		c-19-5-32.3-22.2-32.3-41.9c0-19.3,12.9-36.3,31.5-41.6c3.1-0.9,6.3-1.4,9.5-1.6c0.8,0,1.5,0,2.3,0c6.2,0,12.3,1.3,17.9,3.8
		c2.6,1.2,5.1,2.6,7.5,4.3c1,0.7,1.9,1.5,2.8,2.3c6.7,5.7,11.5,13.4,13.7,22c0.7,2.7,1.1,5.6,1.3,8.4c0,0.8,0.1,1.6,0.1,2.4
		C283.8,385.9,278.3,397.8,268.7,406z M443.3,418.1c7.8,4.5,16.7,6.9,25.8,6.9c1.4,0,2.7,0,4.1-0.2c2.8-0.2,5.6-0.7,8.4-1.3
		c27.7-6.9,44.6-34.9,37.8-62.6c-1.9-7.6-5.4-14.6-10.4-20.6c19.4-42.5,20.3-91.1,2.5-134.3c-19-46.2-57.4-81.7-105-97
		c-33.6-10.8-69.8-10.8-103.4,0c-47.6,15.3-86,50.8-105,97c-17.7,43.2-16.8,91.8,2.5,134.3c-18.2,22-15.2,54.6,6.8,72.8
		c6,5,13,8.5,20.6,10.4c2.7,0.7,5.5,1.1,8.4,1.3c1.3,0.1,2.7,0.2,4.1,0.2c8.7,0,17.2-2.2,24.8-6.4c2.5-1.3,4.9-2.9,7.1-4.7
		c1.4-1,2.7-2.2,3.9-3.4c10.2-9.7,16-23.2,16-37.3c0-1.3,0-2.6-0.2-3.9c-0.2-2.8-0.6-5.6-1.3-8.4c-1.5-6.1-4-11.9-7.6-17
		c11.9-6.8,19.7-19,20.8-32.7h101.8c1,13.7,8.8,25.9,20.8,32.7c-3.6,5.1-6.1,10.9-7.6,17c-0.7,2.7-1.1,5.5-1.3,8.4
		c-0.1,1.3-0.2,2.6-0.2,3.9c0,14.1,5.8,27.6,16,37.3c1,0.9,2,1.8,3,2.7C438.5,415.1,440.9,416.7,443.3,418.1L443.3,418.1z
		 M512.3,373.3c0,19.7-13.3,36.9-32.3,41.9c-2.7,0.7-5.6,1.2-8.4,1.3c-0.8,0-1.7,0.1-2.6,0.1c-7.2,0-14.4-1.8-20.7-5.3
		c-0.4-0.2-0.8-0.5-1.2-0.7l0,0c-2.2-1.3-4.3-2.8-6.2-4.5c-0.2-0.2-0.5-0.4-0.8-0.6c-9.1-8.2-14.3-19.9-14.3-32.2
		c0-0.8,0-1.6,0.1-2.4c0.1-2.8,0.6-5.6,1.3-8.4c2.2-8.6,7-16.3,13.7-22c0.6-0.5,1.2-1,1.9-1.5c2.3-1.8,4.8-3.3,7.4-4.6
		c5.9-2.9,12.4-4.4,18.9-4.4c0.8,0,1.5,0,2.3,0c3.2,0.2,6.4,0.7,9.5,1.6C499.4,336.9,512.3,353.9,512.3,373.3L512.3,373.3z"/>
	<path class="st2" d="M354.8,387.9c-13.5-17.2-34.1-27.3-56-27.2c-2.7,0-5.3,0.2-8,0.5c0.7,2.7,1.1,5.5,1.3,8.4
		c2.2-0.2,4.5-0.4,6.7-0.4c20.2,0,39.2,9.7,50.9,26.2c1.9,2.6,3.6,5.4,5.1,8.3c1.5-2.9,3.2-5.7,5.1-8.3
		C358.4,392.7,356.6,390.2,354.8,387.9z"/>
	<path class="st2" d="M410.8,360.6c-25,0-48.2,13.2-61.1,34.6c1.9,2.6,3.6,5.4,5.1,8.3c1.5-2.9,3.2-5.7,5.1-8.3
		c11.8-16.4,30.7-26.2,50.9-26.2c2.2,0,4.5,0.1,6.7,0.4c0.2-2.8,0.6-5.6,1.3-8.4C416.2,360.7,413.5,360.6,410.8,360.6z"/>
	<path class="st2" d="M280.1,340L280.1,340c0,0.1,0.1,0.1,0.2,0.2L280.1,340z M282.3,342.8c0,0,0-0.1-0.1-0.1
		C282.2,342.7,282.2,342.7,282.3,342.8L282.3,342.8C282.2,342.8,282.3,342.9,282.3,342.8L282.3,342.8z M280.1,340L280.1,340
		c0,0.1,0.1,0.1,0.2,0.2L280.1,340z M282.3,342.8c0,0,0-0.1-0.1-0.1C282.2,342.7,282.2,342.7,282.3,342.8L282.3,342.8
		C282.2,342.8,282.3,342.9,282.3,342.8L282.3,342.8z M280.1,340L280.1,340c0,0.1,0.1,0.1,0.2,0.2L280.1,340z M282.3,342.8
		c0,0,0-0.1-0.1-0.1C282.2,342.7,282.2,342.7,282.3,342.8L282.3,342.8C282.2,342.8,282.3,342.9,282.3,342.8L282.3,342.8z"/>
	<path class="st2" d="M427.3,342.8c0,0,0,0.1,0,0.1C427.3,342.9,427.4,342.8,427.3,342.8C427.4,342.8,427.4,342.7,427.3,342.8
		C427.4,342.7,427.3,342.8,427.3,342.8z M429.5,340l-0.2,0.2C429.4,340.2,429.5,340.1,429.5,340L429.5,340z M417.8,278.9
		c-0.3,0.3-0.6,0.6-0.8,0.9C417.2,279.4,417.5,279.1,417.8,278.9L417.8,278.9z M417.8,278.9c-0.3,0.3-0.6,0.6-0.8,0.9
		C417.2,279.4,417.5,279.1,417.8,278.9L417.8,278.9z M417.8,278.9c-0.3,0.3-0.6,0.6-0.8,0.9C417.2,279.4,417.5,279.1,417.8,278.9
		L417.8,278.9z M417.8,278.9c-0.3,0.3-0.6,0.6-0.8,0.9C417.2,279.4,417.5,279.1,417.8,278.9L417.8,278.9z M417.8,278.9
		c-0.3,0.3-0.6,0.6-0.8,0.9C417.2,279.4,417.5,279.1,417.8,278.9L417.8,278.9z M417.8,278.9c-0.3,0.3-0.6,0.6-0.8,0.9
		C417.2,279.4,417.5,279.1,417.8,278.9L417.8,278.9z M429.5,340.1l-0.2,0.2C429.4,340.2,429.5,340.1,429.5,340.1L429.5,340.1z
		 M427.3,342.8c0,0,0,0.1,0,0.1C427.3,342.9,427.4,342.8,427.3,342.8C427.4,342.8,427.4,342.8,427.3,342.8
		C427.4,342.7,427.3,342.8,427.3,342.8L427.3,342.8z M417.8,278.9c-0.3,0.3-0.6,0.6-0.8,0.9C417.2,279.4,417.5,279.1,417.8,278.9
		L417.8,278.9z M417.8,278.9c-0.3,0.3-0.6,0.6-0.8,0.9C417.2,279.4,417.5,279.1,417.8,278.9L417.8,278.9z M417.8,278.9
		c-0.3,0.3-0.6,0.6-0.8,0.9C417.2,279.4,417.5,279.1,417.8,278.9L417.8,278.9z M417.8,278.9c-0.3,0.3-0.6,0.6-0.8,0.9
		C417.2,279.4,417.5,279.1,417.8,278.9L417.8,278.9z M417.8,278.9c-0.3,0.3-0.6,0.6-0.8,0.9C417.2,279.4,417.5,279.1,417.8,278.9
		L417.8,278.9z M417.8,278.9c-0.3,0.3-0.6,0.6-0.8,0.9C417.2,279.4,417.5,279.1,417.8,278.9L417.8,278.9z M417.8,278.9
		c-0.3,0.3-0.6,0.6-0.8,0.9C417.2,279.4,417.5,279.1,417.8,278.9L417.8,278.9z M427.3,342.9c0,0,0,0.1,0,0.1
		C427.4,342.9,427.4,342.9,427.3,342.9C427.4,342.9,427.4,342.8,427.3,342.9C427.4,342.8,427.3,342.8,427.3,342.9L427.3,342.9z
		 M429.5,340.1l-0.2,0.2C429.4,340.2,429.5,340.2,429.5,340.1L429.5,340.1z M417.8,278.9c-0.3,0.3-0.6,0.6-0.8,0.9
		C417.2,279.4,417.5,279.1,417.8,278.9L417.8,278.9z"/>
	<path class="st2" d="M494.7,365.4c-1-3.1-2.5-6-4.5-8.6c-8.5-11-24.1-13.7-35.8-6.1c-2.9,1.9-5.5,4.4-7.5,7.2l0,0
		c-2.1,3-3.6,6.5-4.3,10.1c-0.3,1.7-0.5,3.4-0.5,5.1c0,1.5,0.1,3,0.4,4.4c0.5,3.2,1.6,6.3,3.3,9.1c1.8,3,4.1,5.7,6.9,7.8
		c0.7,0.5,1.4,1,2.1,1.4c2.8,1.7,5.8,2.9,9,3.6c0.3,0.1,0.6,0.1,0.9,0.2c1.4,0.2,2.9,0.3,4.3,0.3c1.8,0,3.5-0.2,5.2-0.5
		c12.5-2.5,21.6-13.5,21.6-26.3C495.9,370.6,495.5,368,494.7,365.4z M487.3,375.5c-0.9,7.7-6.6,14.1-14.2,15.8
		c-1.1,0.3-2.3,0.4-3.5,0.4c-0.2,0-0.3,0-0.5,0c-5.6,0-10.8-2.5-14.3-6.8c-2.7-3.3-4.1-7.4-4.1-11.6c0-0.1,0-0.3,0-0.5
		c0.1-4.6,1.9-8.9,5-12.2c7-7.4,18.6-7.7,26-0.7c3.6,3.5,5.7,8.3,5.7,13.3C487.4,374,487.4,374.7,487.3,375.5L487.3,375.5z"/>
	<path class="st2" d="M487,495.5c-12.7,13.7-36,21.9-59.5,26.7l-1.4,0.3c-2.1,0.4-4.1,0.8-6.2,1.2c-1.2,0.2-2.3,0.4-3.4,0.6
		c-19.9,3.1-40,4.8-60.2,4.9h-2.2c-20.5-0.1-40.9-1.8-61.1-5c-1-0.2-2.1-0.3-3.2-0.5c-2.1-0.4-4.2-0.8-6.3-1.2l-1.3-0.2
		c-23.2-4.8-46.1-12.9-58.7-26.5c-10.7-11.6-15.5-23.9-14.2-36.7c2.3-23.2,23.8-39.1,24.7-39.8l4.4,6c-0.2,0.2-19.8,14.6-21.7,34.5
		c-1,10.5,3.1,21,12.3,30.9c11,12,31.7,19.3,53.1,23.9c1.6,0.3,3.1,0.7,4.7,1l2.8,0.5c2,0.4,4.1,0.7,6.1,1c19.7,3,39.6,4.6,59.5,4.8
		h0.1c19.7-0.1,39.3-1.7,58.8-4.6c2-0.3,4-0.7,6-1c1-0.2,2-0.3,2.9-0.5c1.5-0.3,3-0.6,4.5-0.9c21.7-4.5,42.7-11.9,53.9-24
		c9.2-10,13.3-20.4,12.3-30.9c-1.9-19.9-21.5-34.3-21.7-34.5l4.4-6c0.9,0.7,22.5,16.5,24.8,39.8C502.5,471.5,497.7,483.9,487,495.5z
		"/>
	<path class="st2" d="M292.5,460.6c20.4,16,51.8,17.2,60.3,17.2h1.7h1.7c8.5,0,39.9-1.1,60.3-17.2c20.8-16.4,19.5-54.8,19.5-56.4
		l-7.5,0.3c0,0.4,1.2,36.2-16.6,50.2c-20.1,15.8-53.9,15.6-57.2,15.5h-0.3c-3.4,0-37.1,0.3-57.2-15.5c-17.8-14-16.6-49.9-16.6-50.2
		l-7.5-0.3C273,405.9,271.7,444.3,292.5,460.6z"/>
	<circle class="st2" cx="231.2" cy="229.1" r="9.3"/>
	<circle class="st2" cx="250.5" cy="194.7" r="9.3"/>
	<circle class="st2" cx="275.3" cy="165.9" r="9.3"/>
	<circle class="st2" cx="306.7" cy="146.4" r="9.3"/>
	<circle class="st2" cx="478.8" cy="229.1" r="9.3"/>
	<circle class="st2" cx="459.5" cy="194.7" r="9.3"/>
	<circle class="st2" cx="434.6" cy="165.9" r="9.3"/>
	<circle class="st2" cx="403.3" cy="146.4" r="9.3"/>
	<circle class="st2" cx="320.1" cy="203.9" r="8"/>
	<circle class="st2" cx="354.8" cy="203.9" r="8"/>
	<circle class="st2" cx="389.4" cy="203.9" r="8"/>
	
		<rect x="345.8" y="257.7" transform="matrix(0.7071 -0.7071 0.7071 0.7071 -84.6568 328.9791)" class="st2" width="18" height="18"/>
	
		<rect x="307.7" y="259.9" transform="matrix(0.7071 -0.7071 0.7071 0.7071 -96.4598 300.4854)" class="st2" width="13.6" height="13.6"/>
	
		<rect x="388.2" y="259.9" transform="matrix(0.7071 -0.7071 0.7071 0.7071 -72.8579 357.4627)" class="st2" width="13.6" height="13.6"/>
	<path class="st2" d="M335.5,410.9c0,0-3.6-14.6-23.1-18.7c-11.8-2.5-17.8-4.8-24.1-11.2c-4,13.7-4.5,15.1-4.5,15.1
		S302.5,429.8,335.5,410.9z"/>
	<path class="st2" d="M374,410.9c0,0,3.6-14.6,23.1-18.7c11.8-2.5,17.8-4.8,24.1-11.2c4,13.7,4.5,15.1,4.5,15.1
		S407.1,429.8,374,410.9z"/>
	<circle class="st2" cx="262.1" cy="305.9" r="11.2"/>
	<circle class="st2" cx="446.9" cy="305.9" r="11.2"/>
	<circle class="st2" cx="240.7" cy="373.4" r="7.7"/>
	<circle class="st2" cx="470.5" cy="373.4" r="7.7"/>
	<path class="st2" d="M354.7,495.7c-44.1,0-73.9-10.3-88.7-30.7c-16-22.1-8-47.5-7.6-48.5l7.1,2.3l-3.5-1.2l3.5,1.2
		c-0.1,0.2-7.2,22.9,6.6,41.9c13.4,18.4,41.5,27.6,83.4,27.6v7.5L354.7,495.7z"/>
	<path class="st2" d="M355.4,512c-60.7,0-98.8-12.6-113.2-37.6c-14.6-25.2,0.8-52.9,1.5-54.1l6.5,3.7c-0.1,0.2-14,25.2-1.5,46.7
		c12.9,22.1,49.8,33.8,106.7,33.8L355.4,512z"/>
	<path class="st2" d="M354.9,495.7h-0.8v-7.5h0.7c41.5,0,69.4-9.3,82.7-27.6c13.8-19.1,6.7-41.6,6.6-41.8l7.1-2.3
		c0.3,1.1,8.4,26.4-7.6,48.5C428.8,485.3,399,495.7,354.9,495.7z"/>
	<path class="st2" d="M354.2,512v-7.5c57,0,93.9-11.7,106.7-33.8c12.5-21.5-1.4-46.5-1.5-46.7l6.5-3.7c0.7,1.2,16.2,28.9,1.5,54.1
		C452.9,499.4,414.8,512,354.2,512z"/>
	<path class="st2" d="M427.5,522.2l-1.4,0.3c-2.1,0.4-4.1,0.8-6.2,1.2c-1.2,0.2-2.3,0.4-3.4,0.6c-9,11.4-33.6,19.8-61.7,19.8
		s-53-8.5-61.8-20c-1-0.2-2.1-0.3-3.2-0.5c-2.1-0.4-4.2-0.8-6.3-1.2l-1.3-0.2c-1.3,2.8-2,5.8-2,8.9c0,21.1,32.8,37.6,74.7,37.6
		s74.7-16.5,74.7-37.6C429.5,527.9,428.8,524.9,427.5,522.2z M354.8,561c-36.4,0-67.2-13.8-67.2-30.1c0-0.5,0-1.1,0.1-1.6
		c11,13.1,36.5,22.2,67.1,22.2s56.1-9,67.1-22.2c0.1,0.5,0.1,1.1,0.1,1.6C422,547.3,391.2,561,354.8,561z"/>
	<path class="st2" d="M356.9,624l-116.6-13.7c-0.9-0.1-1.6-0.5-2.2-1.1l-41.3-42.5c-1.4-1.4-1.4-3.6-0.1-5.1
		c32.1-35.4,88.7-42.8,91.1-43.1l0.9,7.4c-0.5,0.1-53.4,7-84.1,38.2l37.9,39l115.2,13.5L356.9,624z"/>
	<path class="st2" d="M352.6,624l-0.9-7.4L467,603.1l37.9-39c-30.7-31.2-83.5-38.1-84.1-38.2l0.9-7.4c2.4,0.3,59,7.7,91.1,43.1
		c1.3,1.5,1.3,3.7-0.1,5.1l-41.3,42.5c-0.6,0.6-1.4,1-2.2,1.1L352.6,624z"/>
</g>
</svg>
