<?xml version="1.0" encoding="iso-8859-1"?>
<!-- Generator: Adobe Illustrator 16.0.0, SVG Export Plug-In . SVG Version: 6.00 Build 0)  -->
<!DOCTYPE svg PUBLIC "-//W3C//DTD SVG 1.1//EN" "http://www.w3.org/Graphics/SVG/1.1/DTD/svg11.dtd">
<svg version="1.1" id="Calque_1" xmlns="http://www.w3.org/2000/svg" xmlns:xlink="http://www.w3.org/1999/xlink" x="0px" y="0px"
	 width="130px" height="133px" viewBox="0 0 130 133" style="enable-background:new 0 0 130 133;" xml:space="preserve">
<g id="ngMorocco_v2">
	<polygon style="fill:#C32033;" points="122.627,27.909 65.844,8.147 65.844,126.238 113.697,100.285 	"/>
	<polygon style="fill:#DD1E34;" points="9.068,27.909 65.852,8.147 65.852,126.238 17.998,100.285 	"/>
	<g id="Start_Blanch_x2F_Gris_1_">
		<path id="pentagramme_2" style="fill:#FFFFFF;" d="M57.191,68.816l3.489-9.894h5.238v-7.637h-2.838l2.838-8.512V18.622
			L55.192,51.358H20.381l28.202,20.169L37.84,104.316l28.079-20.197v-9.047L57.191,68.816z M43.368,58.923l9.384-0.436l-1.817,5.603
			L43.368,58.923z M54.861,76.166l4.729,3.417l-7.492,5.456L54.861,76.166z"/>
		<path id="pentagramme_1" style="fill:#FFFFFF;" d="M111.385,51.358H76.736L65.844,18.622v24.152l0.072-0.218l2.911,8.729h-2.983
			v7.637h5.529l3.054,9.748l-8.583,6.401v9.047l0.134-0.098l28.384,20.295L83.43,71.47L111.385,51.358z M72.391,79.653l4.512-3.487
			l2.909,8.873L72.391,79.653z M79.012,58.923l9.53-0.436l-7.64,5.603L79.012,58.923z"/>
	</g>
</g>
</svg>
