<?xml version="1.0" encoding="utf-8"?>
<!-- Generator: Adobe Illustrator 23.1.0, SVG Export Plug-In . SVG Version: 6.00 Build 0)  -->
<svg version="1.1" id="Layer_1" xmlns="http://www.w3.org/2000/svg" xmlns:xlink="http://www.w3.org/1999/xlink" x="0px" y="0px"
	 viewBox="0 0 338 365" style="enable-background:new 0 0 338 365;" xml:space="preserve">
<style type="text/css">
	.st0{fill:none;}
	.st1{fill:#C30230;}
	.st2{fill:#FFFFFF;}
</style>
<title>logos-ng-panama-512</title>
<g>
	<polygon class="st0" points="73.9,290.3 73.1,290.3 83.6,296.1 83.6,295.8 	"/>
	<polygon class="st0" points="104.2,307.4 115,313.4 104.2,307.3 	"/>
	<polygon class="st0" points="42.1,255 42.1,255 43.1,265 43.4,265 	"/>
	<path class="st1" d="M169.5,5.8l-1,0.4L4.3,68.6l27.5,214.5l136.8,76.6l1,0.6l143.3-79.4l20.9-216.7L169.5,5.8z M307.2,277.2
		l-137.6,76.2l-1-0.6L37.3,279.3L10.8,72.5l157.7-59.9l1.1-0.4l157.7,56.1L307.2,277.2z"/>
	<polygon class="st1" points="168.8,22.2 168.5,22.3 168.5,22.7 	"/>
	<path class="st2" d="M254.3,237.2c-28.4-63.8-56.6-127.4-85-191.4l-0.7,1.6L86.3,232l-12.6,28.4c0.9,0,1.5,0.1,2.1,0.1h15.5
		c2.2-0.8,4.4-1.7,6.6-2.8c5.3-3.5,10.8-6.7,16.5-9.5l8.1-20.3l5.4-13.6c0.3-1.2,1.5-2,2.7-1.8l0,0c12,0,24,0,35.9,0h2.1
		c13,0,26.1,0,39.1,0l0,0c1.2-0.1,2.4,0.7,2.7,1.9c2,5,4,10.1,6,15.1c2.1,5.2,4.1,10.4,6.2,15.6c8.3,3.4,16.2,7.6,23.7,12.7
		c2.1,1,4.3,2,6.5,2.8h11.8L254.3,237.2z M168.5,182.7h-27.1c9-21.7,18-43.2,27.1-65.1c0.2-0.6,0.5-1.2,0.7-1.7l27.7,66.8
		L168.5,182.7z"/>
	<polygon class="st1" points="169.6,21.9 169.3,21.1 168.8,22.2 169.5,21.9 	"/>
	<path class="st1" d="M168.2,222.5h0.4l0,0H168.2z"/>
	<path class="st1" d="M169.3,115.8c-0.2,0.6-0.5,1.2-0.7,1.7c-9.1,21.9-18,43.4-27.1,65.1H197L169.3,115.8z"/>
	<polygon class="st2" points="89.7,299.2 89.7,299.4 98.1,304 98.1,303.9 	"/>
	<path class="st2" d="M44.5,273.9l-0.3-2.6h-0.5l1,2.5l17.9,9.8l0.4,0.6L44.5,273.9z"/>
	<path class="st2" d="M286.9,271.9c-6.4,0-12.7-0.5-19-1.4c-6.5-1-12.9-2.7-19-5c-1.9-0.8-3.8-1.6-5.7-2.5c-1.2-0.8-2.5-1.7-3.8-2.5
		c-4.4-2.7-8.9-5.2-13.6-7.4c-2.2-1-4.4-2-6.6-2.9c-2.1-0.9-4.2-1.6-6.4-2.4c-13.2-4.5-27-6.7-40.9-6.7c-1.2,0-2.3,0-3.5,0.1
		c-15.2,0.4-30.2,3.5-44.3,9.2c-2.2,0.9-4.4,1.9-6.6,2.9c-2.3,1.1-4.6,2.3-6.8,3.5s-4.2,2.4-6.2,3.6c-1.3,0.8-2.5,1.6-3.8,2.5
		c-1.9,1-3.8,1.8-5.8,2.6c-6.1,2.4-12.5,4-19,5c-6.3,1-12.6,1.4-18.9,1.4c-4.3,0-8.6-0.2-12.9-0.7l0.3,2.6L63,284.2h26.3l0.4,0.4
		v14.5l8.4,4.7v-10.4l0.2,0.3l1.6-1.6c3-2.8,6.1-5.5,9.4-7.9h125.3c3.3,2.5,6.4,5.1,9.4,7.9l1.6,1.5v7.8l0.5,0l7.9-4.4V285l0.7-0.7
		h22.5l22.3-12.3l0.1-0.6C295.4,271.8,291.2,272,286.9,271.9z M225.7,257.9c0.9,0.5,1.8,0.9,2.7,1.4l2.1,1.1
		c2.1,1.1,4.2,2.4,6.2,3.6c-2.5,0.3-5.1,0.8-7.5,1.3s-4.9,1.1-7.3,1.8l-0.6,0.1l0.2-0.5l2.4-5.2L225.7,257.9z M215.1,253.4
		c2.2,0.8,4.3,1.7,6.5,2.6l-2.9,6.3l-1.5,3.2c-2.2-4.8-4.7-9.5-7.5-14C211.5,252.1,213.3,252.7,215.1,253.4L215.1,253.4z
		 M205.5,253.4c2.7,4.3,5.2,8.7,7.3,13.3c-3.2-1.3-6.6-2.5-9.9-3.5L205.5,253.4z M186.2,246.4c4.1,0.5,8.1,1.1,12.1,2
		c-4.6,2.4-8.9,5.2-13.1,8.2L186.2,246.4z M201.2,252l-2.8,10.1c-3.4-0.8-6.8-1.5-10.3-2C192.3,257.1,196.7,254.4,201.2,252z
		 M172,245.5c3.2,0,6.5,0.1,9.7,0.4l-1,10.3c-3.6-3.8-7.5-7.4-11.6-10.7L172,245.5z M168.5,251c3,2.5,5.8,5.2,8.5,8
		c-1.6-0.1-3.3-0.1-5-0.1c-1.2,0-2.3,0-3.5,0.1l-1.9,0.1l-0.7-10.2C166.8,249.5,167.7,250.3,168.5,251z M162.1,259.3
		c-3.5,0.3-6.9,0.8-10.4,1.4c2.9-4.2,6.1-8.2,9.6-11.9L162.1,259.3z M157.5,246.4c-3.5,3.8-6.7,7.9-9.7,12.1l-2.4-10
		C149.3,247.6,153.4,246.9,157.5,246.4L157.5,246.4z M140.9,249.6l2.4,10.1c-4.7-2.4-9.6-4.5-14.6-6.2
		C132.8,251.9,136.8,250.6,140.9,249.6L140.9,249.6z M140.8,263.4c-3.4,1-6.7,2.2-9.9,3.5l-4.1-9.4
		C131.6,259.1,136.2,261.1,140.8,263.4L140.8,263.4z M126.7,268.7c-3.3,1.5-6.5,3.2-9.6,5c1.4-5,3.3-9.9,5.4-14.7L126.7,268.7z
		 M98.5,287.3l-3-3.1h6.6C100.9,285.2,99.7,286.3,98.5,287.3L98.5,287.3z M96.5,274.9c-1.3,0-2.7,0-4,0.1c1.8-1.5,3.6-3,5.5-4.4
		c1.7-1.3,3.3-2.5,5.1-3.7l2.4,3.7l3.3,5.1C104.7,275.1,100.6,274.9,96.5,274.9L96.5,274.9z M112.5,273.1l-1.9-2.9l-3.1-4.7
		l-0.7-1.1c2.7-1.7,5.5-3.3,8.3-4.8c0.9-0.5,1.8-1,2.8-1.4c-1.6,3.6-2.9,7.2-4.1,10.8C113.4,270.4,113,271.7,112.5,273.1
		L112.5,273.1z M168.5,279.3h-51.9c15.6-9.8,33.5-15.3,51.9-15.9c1.2,0,2.3-0.1,3.5-0.1c19.6,0,38.8,5.5,55.5,15.9L168.5,279.3z
		 M232.5,277.1c-3-2-6.1-3.9-9.4-5.6c1.6-0.4,3.2-0.9,4.8-1.2c3.5-0.8,7-1.4,10.6-1.9l-1.5,2.1L232.5,277.1z M242,271.4
		c0.4,2.6,0.8,5.2,1,7.8h-6.5L242,271.4z M242,284.2h1.3c0,0.4,0,0.8,0,1.1C242.9,285,242.4,284.6,242,284.2L242,284.2z M247.8,285
		c0-0.2,0-0.5,0-0.7h0.7L247.8,285z M253.3,279.3h-5.8c-0.2-2.8-0.6-5.6-1-8.4c2.8,2.2,5.6,4.5,8.2,6.9L253.3,279.3z"/>
	<polygon class="st1" points="101.1,305.6 101.1,305.7 104.2,307.4 104.2,307.3 	"/>
	<polygon class="st1" points="98.1,303.9 98.1,304 101.1,305.7 101.1,305.6 	"/>
	<path class="st1" d="M186.2,246.4l-1,10.3c4.2-3.1,8.6-5.8,13.1-8.2C194.3,247.5,190.2,246.8,186.2,246.4z"/>
	<path class="st1" d="M145.3,248.5l2.4,10c2.9-4.3,6.2-8.3,9.7-12.1C153.4,246.9,149.3,247.6,145.3,248.5z"/>
	<path class="st1" d="M188.2,260c3.5,0.5,6.9,1.2,10.3,2l2.8-10C196.7,254.3,192.3,257,188.2,260z"/>
	<polygon class="st1" points="254.8,284.2 254.1,285 254.1,297.1 257.1,295.4 260.2,293.7 266.2,290.3 271.8,287.3 277.3,284.2 	"/>
	<path class="st1" d="M205.5,253.4l-2.7,9.9c3.4,1,6.7,2.1,9.9,3.5C210.7,262.1,208.2,257.7,205.5,253.4z"/>
	<path class="st1" d="M102.1,284.2h-6.6l3,3.1C99.7,286.3,100.9,285.2,102.1,284.2z"/>
	<path class="st1" d="M140.9,249.6c-4.1,1.1-8.1,2.4-12.1,3.9c5,1.7,9.9,3.8,14.6,6.2L140.9,249.6z"/>
	<path class="st1" d="M122.5,259c-2.1,4.7-4,9.6-5.4,14.6c3.1-1.8,6.3-3.5,9.6-5L122.5,259z"/>
	<g>
		<polygon class="st1" points="257.1,295.4 257.9,294.9 256.4,295.8 		"/>
		<path class="st1" d="M254.1,297.1l-7.9,4.4l-0.5,0v-7.8l-1.6-1.5c-3-2.8-6.1-5.5-9.4-7.9H109.4c-3.3,2.5-6.4,5.1-9.4,7.9l-1.6,1.6
			l-0.2-0.3v10.4l3,1.7l3,1.7l10.9,6.1l53.5,30l1,0.6l86.8-48.1L254.1,297.1z M176.1,325.9H163c-1.4,0-2.5-1.1-2.5-2.5
			s1.1-2.5,2.5-2.5h13c1.4,0,2.5,1.1,2.5,2.5S177.4,325.9,176.1,325.9L176.1,325.9z M187.1,316.9H152c-1.4,0-2.5-1.1-2.5-2.5
			s1.1-2.5,2.5-2.5h35c1.4,0,2.5,1.1,2.5,2.5S188.4,316.9,187.1,316.9L187.1,316.9z M201.5,305.5c-0.1,1.3-1.2,2.4-2.5,2.4H140
			c-1.4,0-2.5-1.1-2.5-2.5s1.1-2.5,2.5-2.5h59c1.4,0,2.5,1.1,2.5,2.5C201.5,305.4,201.5,305.5,201.5,305.5L201.5,305.5z"/>
		<polygon class="st1" points="271.8,287.3 266.2,290.3 260.2,293.7 257.9,294.9 273.2,286.5 		"/>
	</g>
	<path class="st1" d="M242,271.4l-5.5,7.8h6.4C242.7,276.6,242.4,274,242,271.4z"/>
	<path class="st1" d="M172,245.5h-2.9c4.1,3.3,8,6.9,11.6,10.7l1-10.3C178.4,245.7,175.2,245.6,172,245.5z"/>
	<path class="st1" d="M172,263.3c-1.2,0-2.3,0-3.5,0.1c-18.4,0.6-36.3,6.1-51.9,15.9h110.9C210.9,268.8,191.6,263.3,172,263.3z"/>
	<path class="st1" d="M247.5,279.2h5.8l1.4-1.5c-2.7-2.4-5.4-4.8-8.2-6.9C246.9,273.6,247.2,276.5,247.5,279.2z"/>
	<path class="st1" d="M168.5,251c-0.9-0.7-1.7-1.5-2.6-2.2l0.7,10.2l1.9-0.1c1.2,0,2.3-0.1,3.5-0.1c1.7,0,3.3,0,5,0.1
		C174.3,256.2,171.5,253.5,168.5,251z"/>
	<path class="st1" d="M247.8,285l0.7-0.7h-0.7C247.8,284.5,247.8,284.7,247.8,285z"/>
	<path class="st1" d="M242,284.2c0.5,0.4,0.9,0.8,1.3,1.1c0-0.4,0-0.8,0-1.1H242z"/>
	<path class="st1" d="M126.8,257.5l4.1,9.4c3.3-1.3,6.6-2.5,9.9-3.5C136.2,261.1,131.6,259.1,126.8,257.5z"/>
	<path class="st1" d="M161.4,248.9c-3.5,3.7-6.7,7.7-9.6,11.9c3.4-0.6,6.9-1.1,10.4-1.4L161.4,248.9z"/>
	<polygon class="st1" points="89.3,284.2 63,284.2 61.9,284.2 67.5,287.3 73.1,290.3 73.9,290.3 83.6,295.8 83.6,296.1 86.6,297.8 
		89.7,299.4 89.7,299.2 89.7,284.6 	"/>
	<path class="st1" d="M215.1,253.4c-1.8-0.7-3.6-1.3-5.5-1.9c2.8,4.5,5.4,9.2,7.5,14l1.5-3.2l2.9-6.3
		C219.4,255.1,217.3,254.2,215.1,253.4z"/>
	<path class="st1" d="M228,270.3c-1.6,0.4-3.2,0.8-4.8,1.2c3.2,1.7,6.3,3.6,9.4,5.6l4.6-6.6l1.5-2.1
		C235,268.8,231.5,269.5,228,270.3z"/>
	<path class="st1" d="M105.5,270.5l-2.4-3.7c-1.7,1.2-3.4,2.4-5.1,3.7c-1.9,1.4-3.7,2.9-5.5,4.4c1.3,0,2.7-0.1,4-0.1
		c4.1,0,8.2,0.2,12.3,0.7L105.5,270.5z"/>
	<path class="st1" d="M115.2,259.6c-2.8,1.5-5.6,3.1-8.3,4.8l0.7,1.1l3.1,4.7l1.9,2.9c0.4-1.4,0.8-2.7,1.2-4.1
		c1.2-3.6,2.6-7.3,4.1-10.8C117,258.6,116.1,259.1,115.2,259.6z"/>
	<path class="st1" d="M230.5,260.4l-2.1-1.1c-0.9-0.5-1.8-0.9-2.7-1.4l-1.7,3.7l-2.4,5.2l-0.2,0.5l0.6-0.1c2.4-0.7,4.8-1.3,7.3-1.8
		s5-1,7.5-1.3C234.7,262.8,232.6,261.6,230.5,260.4z"/>
	<path class="st1" d="M286.9,271.9c4.2,0,8.5-0.2,12.7-0.6l-0.1,0.6l19-197l-148.9-53h-0.1l-0.8,0.3l-0.2,0.5v-0.4l-149,56.6
		L42.1,255l1.3,10h-0.3l0.3,3.1l0.3,3.1h0.5c4.3,0.5,8.6,0.7,12.9,0.7c6.3,0,12.7-0.5,18.9-1.4c6.5-1,12.9-2.6,19-5
		c1.9-0.8,3.9-1.6,5.8-2.6c1.2-0.8,2.5-1.7,3.8-2.5c2-1.3,4.1-2.5,6.2-3.6s4.5-2.4,6.8-3.5s4.4-2,6.6-2.9
		c14.1-5.7,29.1-8.8,44.3-9.2c1.2,0,2.3-0.1,3.5-0.1c13.9,0,27.7,2.3,40.9,6.7c2.1,0.7,4.3,1.5,6.4,2.4s4.4,1.8,6.6,2.9
		c4.7,2.2,9.2,4.7,13.5,7.4c1.3,0.8,2.5,1.6,3.8,2.5c1.9,0.9,3.8,1.8,5.7,2.5c6.1,2.4,12.5,4.1,19,5 M168.4,222.5h-0.4H168.4z
		 M262.4,260.4h-9.6c-2.2-0.8-4.4-1.7-6.5-2.8c-7.4-5-15.4-9.2-23.7-12.6c-2.1-5.2-4.2-10.4-6.2-15.6c-2-5-4-10.1-6-15.1
		c-0.3-1.2-1.4-2-2.7-1.9l0,0c-13,0-26.1,0-39.1,0h-2.1c-12,0-24,0-35.9,0l0,0c-1.2-0.2-2.4,0.6-2.7,1.8l-5.4,13.6l-8.1,20.3
		c-5.7,2.8-11.2,5.9-16.5,9.5c-2.1,1-4.3,2-6.6,2.8H75.7c-0.6,0-1.2,0-2.1-0.1L86.3,232l82.3-184.5l0.7-1.6
		c28.4,63.9,56.7,127.5,85,191.4l10.3,23.2L262.4,260.4z"/>
	<g>
		<path class="st2" d="M199,302.9h-59c-1.4,0-2.5,1.1-2.5,2.5s1.1,2.5,2.5,2.5h59c1.3,0,2.4-1.1,2.5-2.4c0,0,0-0.1,0-0.1
			C201.5,304,200.4,302.9,199,302.9z"/>
		<path class="st2" d="M187,311.9h-35c-1.4,0-2.5,1.1-2.5,2.5s1.1,2.5,2.5,2.5h35c1.4,0,2.5-1.1,2.5-2.5S188.4,311.9,187,311.9z"/>
		<path class="st2" d="M176,320.9h-13c-1.4,0-2.5,1.1-2.5,2.5s1.1,2.5,2.5,2.5h13c1.4,0,2.5-1.1,2.5-2.5S177.4,320.9,176,320.9z"/>
	</g>
</g>
</svg>
