<?xml version="1.0" standalone="no"?>
<!DOCTYPE svg PUBLIC "-//W3C//DTD SVG 20010904//EN"
 "http://www.w3.org/TR/2001/REC-SVG-20010904/DTD/svg10.dtd">
<svg version="1" xmlns="http://www.w3.org/2000/svg"
 width="4500pt" height="6000pt" viewBox="0 0 4500 6000"
 preserveAspectRatio="xMidYMid meet">
<metadata>
Created by potrace 1.15, written by Peter Selinger 2001-2017
</metadata>
<g transform="translate(0,6000) scale(0.1,-0.1)"
fill="#1975d2" stroke="none">
<path d="M 21250 57980 l 0 -30 l -270 0 l -270 0 l 0 -30 c 0 -27 -3 -30 -30 -30 c -27 0 -30 -3 -30 -30 l 0 -30 l -60 0 l -60 0 l 0 -30 l 0 -30 l -120 0 l -120 0 l 0 -30 l 0 -30 l -150 0 l -150 0 l 0 -30 l 0 -30 l -120 0 l -120 0 l 0 -30 c 0 -27 -3 -30 -30 -30 c -27 0 -30 -3 -30 -30 c 0 -27 -3 -30 -30 -30 c -27 0 -30 -3 -30 -30 l 0 -30 l -90 0 l -90 0 l 0 -30 l 0 -30 l -90 0 l -90 0 l 0 -30 l 0 -30 l -90 0 l -90 0 l 0 -60 l 0 -60 l -30 0 c -27 0 -30 -3 -30 -30 l 0 -30 l -90 0 l -90 0 l 0 -30 c 0 -27 -3 -30 -30 -30 c -27 0 -30 -3 -30 -30 l 0 -30 l -90 0 l -90 0 l 0 -30 c 0 -27 -3 -30 -30 -30 l -30 0 l 0 -60 l 0 -60 l -60 0 l -60 0 l 0 -30 l 0 -30 l -60 0 l -60 0 l 0 -30 l 0 -30 l -60 0 l -60 0 l 0 -60 l 0 -60 l -30 0 c -27 0 -30 -3 -30 -30 c 0 -27 -3 -30 -30 -30 c -27 0 -30 -3 -30 -30 l 0 -30 l -60 0 l -60 0 l 0 -30 c 0 -27 -3 -30 -30 -30 l -30 0 l 0 -60 l 0 -60 l -30 0 c -27 0 -30 -3 -30 -30 c 0 -27 -3 -30 -30 -30 c -27 0 -30 -3 -30 -30 l 0 -30 l -60 0 l -60 0 l 0 -60 l 0 -60 l -30 0 l -30 0 l 0 -60 l 0 -60 l -30 0 c -27 0 -30 -3 -30 -30 l 0 -30 l -60 0 l -60 0 l 0 -30 l 0 -30 l -60 0 l -60 0 l 0 -60 l 0 -60 l -30 0 c -27 0 -30 -3 -30 -30 c 0 -27 -3 -30 -30 -30 c -27 0 -30 -3 -30 -30 l 0 -30 l -90 0 l -90 0 l 0 -30 l 0 -30 l -60 0 l -60 0 l 0 -30 c 0 -27 -3 -30 -30 -30 c -27 0 -30 -3 -30 -30 c 0 -27 -3 -30 -30 -30 c -27 0 -30 -3 -30 -30 l 0 -30 l -60 0 l -60 0 l 0 -30 l 0 -30 l -120 0 l -120 0 l 0 -30 l 0 -30 l -150 0 l -150 0 l 0 -30 c 0 -27 -3 -30 -30 -30 c -27 0 -30 -3 -30 -30 c 0 -27 -3 -30 -30 -30 c -27 0 -30 -3 -30 -30 l 0 -30 l -90 0 l -90 0 l 0 -30 l 0 -30 l -120 0 l -120 0 l 0 -30 l 0 -30 l -120 0 l -120 0 l 0 -30 c 0 -27 -3 -30 -30 -30 c -27 0 -30 -3 -30 -30 c 0 -27 -3 -30 -30 -30 c -27 0 -30 -3 -30 -30 l 0 -30 l -60 0 l -60 0 l 0 -30 l 0 -30 l -120 0 l -120 0 l 0 -30 l 0 -30 l -90 0 l -90 0 l 0 -30 c 0 -27 -3 -30 -30 -30 c -27 0 -30 -3 -30 -30 c 0 -27 -3 -30 -30 -30 c -27 0 -30 -3 -30 -30 l 0 -30 l -60 0 l -60 0 l 0 -30 l 0 -30 l -90 0 l -90 0 l 0 -30 l 0 -30 l -90 0 l -90 0 l 0 -60 l 0 -60 l -30 0 c -27 0 -30 -3 -30 -30 l 0 -30 l -60 0 l -60 0 l 0 -30 l 0 -30 l -60 0 l -60 0 l 0 -30 l 0 -30 l -60 0 l -60 0 l 0 -60 l 0 -60 l -30 0 c -27 0 -30 -3 -30 -30 l 0 -30 l -60 0 l -60 0 l 0 -30 c 0 -27 -3 -30 -30 -30 c -27 0 -30 -3 -30 -30 l 0 -30 l -60 0 l -60 0 l 0 -30 c 0 -27 -3 -30 -30 -30 c -27 0 -30 -3 -30 -30 c 0 -27 -3 -30 -30 -30 c -27 0 -30 -3 -30 -30 c 0 -27 -3 -30 -30 -30 c -27 0 -30 -3 -30 -30 c 0 -27 -3 -30 -30 -30 c -27 0 -30 -3 -30 -30 l 0 -30 l -90 0 l -90 0 l 0 -60 l 0 -60 l -30 0 c -27 0 -30 -3 -30 -30 c 0 -27 -3 -30 -30 -30 c -27 0 -30 -3 -30 -30 l 0 -30 l -60 0 l -60 0 l 0 -30 l 0 -30 l -60 0 l -60 0 l 0 -60 l 0 -60 l -30 0 c -27 0 -30 -3 -30 -30 l 0 -30 l -60 0 l -60 0 l 0 -30 l 0 -30 l -60 0 l -60 0 l 0 -30 c 0 -27 -3 -30 -30 -30 c -27 0 -30 -3 -30 -30 c 0 -27 -3 -30 -30 -30 c -27 0 -30 -3 -30 -30 c 0 -27 -3 -30 -30 -30 c -27 0 -30 -3 -30 -30 c 0 -27 -3 -30 -30 -30 c -27 0 -30 -3 -30 -30 l 0 -30 l -60 0 l -60 0 l 0 -30 l 0 -30 l -90 0 l -90 0 l 0 -60 l 0 -60 l -30 0 c -27 0 -30 -3 -30 -30 l 0 -30 l -60 0 l -60 0 l 0 -30 l 0 -30 l -60 0 l -60 0 l 0 -30 l 0 -30 l -60 0 l -60 0 l 0 -60 l 0 -60 l -30 0 c -27 0 -30 -3 -30 -30 l 0 -30 l -60 0 l -60 0 l 0 -30 l 0 -30 l -60 0 l -60 0 l 0 -30 l 0 -30 l -60 0 l -60 0 l 0 -30 c 0 -27 -3 -30 -30 -30 l -30 0 l 0 -60 l 0 -60 l -30 0 c -27 0 -30 -3 -30 -30 l 0 -30 l -90 0 l -90 0 l 0 -30 c 0 -27 -3 -30 -30 -30 c -27 0 -30 -3 -30 -30 c 0 -27 -3 -30 -30 -30 c -27 0 -30 -3 -30 -30 c 0 -27 -3 -30 -30 -30 c -27 0 -30 -3 -30 -30 c 0 -27 -3 -30 -30 -30 c -27 0 -30 -3 -30 -30 l 0 -30 l -60 0 l -60 0 l 0 -30 c 0 -27 -3 -30 -30 -30 c -27 0 -30 -3 -30 -30 c 0 -27 -3 -30 -30 -30 c -27 0 -30 -3 -30 -30 c 0 -27 -3 -30 -30 -30 c -27 0 -30 -3 -30 -30 c 0 -27 -3 -30 -30 -30 c -27 0 -30 -3 -30 -30 c 0 -27 -3 -30 -30 -30 c -27 0 -30 -3 -30 -30 l 0 -30 l -60 0 l -60 0 l 0 -60 l 0 -60 l -30 0 c -27 0 -30 -3 -30 -30 l 0 -30 l -60 0 l -60 0 l 0 -30 c 0 -27 -3 -30 -30 -30 c -27 0 -30 -3 -30 -30 c 0 -27 -3 -30 -30 -30 c -27 0 -30 -3 -30 -30 c 0 -27 -3 -30 -30 -30 c -27 0 -30 -3 -30 -30 c 0 -27 -3 -30 -30 -30 c -27 0 -30 -3 -30 -30 c 0 -27 -3 -30 -30 -30 c -27 0 -30 -3 -30 -30 c 0 -27 -3 -30 -30 -30 c -27 0 -30 -3 -30 -30 c 0 -27 -3 -30 -30 -30 l -30 0 l 0 -60 l 0 -60 l -30 0 c -27 0 -30 -3 -30 -30 l 0 -30 l -60 0 l -60 0 l 0 -60 l 0 -60 l -30 0 c -27 0 -30 -3 -30 -30 c 0 -27 -3 -30 -30 -30 l -30 0 l 0 -60 l 0 -60 l -30 0 c -27 0 -30 -3 -30 -30 l 0 -30 l -60 0 l -60 0 l 0 -30 c 0 -27 -3 -30 -30 -30 l -30 0 l 0 -90 l 0 -90 l -30 0 c -27 0 -30 -3 -30 -30 c 0 -27 -3 -30 -30 -30 c -27 0 -30 -3 -30 -30 l 0 -30 l -60 0 l -60 0 l 0 -60 l 0 -60 l -30 0 l -30 0 l 0 -60 l 0 -60 l -30 0 c -27 0 -30 -3 -30 -30 c 0 -27 -3 -30 -30 -30 l -30 0 l 0 -60 l 0 -60 l -60 0 l -60 0 l 0 -60 l 0 -60 l -30 0 l -30 0 l 0 -90 l 0 -90 l -30 0 c -27 0 -30 -3 -30 -30 c 0 -27 -3 -30 -30 -30 c -27 0 -30 -3 -30 -30 c 0 -27 -3 -30 -30 -30 c -27 0 -30 -3 -30 -30 c 0 -27 -3 -30 -30 -30 l -30 0 l 0 -60 l 0 -60 l -30 0 l -30 0 l 0 -90 l 0 -90 l -30 0 c -27 0 -30 -3 -30 -30 c 0 -27 -3 -30 -30 -30 l -30 0 l 0 -60 l 0 -60 l -60 0 l -60 0 l 0 -90 l 0 -90 l -30 0 l -30 0 l 0 -90 l 0 -90 l -30 0 c -27 0 -30 -3 -30 -30 c 0 -27 -3 -30 -30 -30 l -30 0 l 0 -60 l 0 -60 l -30 0 c -27 0 -30 -3 -30 -30 c 0 -27 -3 -30 -30 -30 l -30 0 l 0 -90 l 0 -90 l -30 0 l -30 0 l 0 -90 l 0 -90 l -30 0 l -30 0 l 0 -60 l 0 -60 l -30 0 l -30 0 l 0 -60 l 0 -60 l -30 0 c -27 0 -30 -3 -30 -30 c 0 -27 -3 -30 -30 -30 l -30 0 l 0 -90 l 0 -90 l -30 0 l -30 0 l 0 -120 l 0 -120 l -30 0 l -30 0 l 0 -90 l 0 -90 l -30 0 c -27 0 -30 -3 -30 -30 c 0 -27 -3 -30 -30 -30 c -27 0 -30 -3 -30 -30 c 0 -27 -3 -30 -30 -30 l -30 0 l 0 -120 l 0 -120 l -30 0 l -30 0 l 0 -150 l 0 -150 l -30 0 l -30 0 l 0 -90 l 0 -90 l -30 0 l -30 0 l 0 -60 l 0 -60 l -30 0 c -27 0 -30 -3 -30 -30 c 0 -27 -3 -30 -30 -30 l -30 0 l 0 -150 l 0 -150 l -30 0 l -30 0 l 0 -180 l 0 -180 l -30 0 l -30 0 l 0 -90 l 0 -90 l -30 0 l -30 0 l 0 -60 l 0 -60 l -30 0 l -30 0 l 0 -60 l 0 -60 l -30 0 l -30 0 l 0 -180 l 0 -180 l -30 0 l -30 0 l 0 -210 l 0 -210 l -30 0 l -30 0 l 0 -120 l 0 -120 l -30 0 l -30 0 l 0 -90 l 0 -90 l -30 0 c -27 0 -30 -3 -30 -30 c 0 -27 -3 -30 -30 -30 l -30 0 l 0 -270 l 0 -270 l -30 0 l -30 0 l 0 -300 l 0 -300 l -30 0 l -30 0 l 0 -180 l 0 -180 l -30 0 l -30 0 l 0 -120 l 0 -120 l -30 0 l -30 0 l 0 -90 l 0 -90 l -30 0 l -30 0 l 0 -600 l 0 -600 l -30 0 l -30 0 l 0 -1050 l 0 -1050 l -30 0 l -30 0 l 0 -150 l 0 -150 l -30 0 l -30 0 l 0 -60 l 0 -60 l -30 0 c -27 0 -30 -3 -30 -30 c 0 -27 -3 -30 -30 -30 l -30 0 l 0 -150 l 0 -150 l -30 0 l -30 0 l 0 -120 l 0 -120 l -30 0 l -30 0 l 0 -90 l 0 -90 l -30 0 c -27 0 -30 -3 -30 -30 c 0 -27 -3 -30 -30 -30 c -27 0 -30 -3 -30 -30 c 0 -27 -3 -30 -30 -30 l -30 0 l 0 -120 l 0 -120 l -30 0 l -30 0 l 0 -120 l 0 -120 l -30 0 l -30 0 l 0 -90 l 0 -90 l -30 0 c -27 0 -30 -3 -30 -30 c 0 -27 -3 -30 -30 -30 c -27 0 -30 -3 -30 -30 c 0 -27 -3 -30 -30 -30 l -30 0 l 0 -90 l 0 -90 l -30 0 l -30 0 l 0 -120 l 0 -120 l -30 0 l -30 0 l 0 -90 l 0 -90 l -30 0 c -27 0 -30 -3 -30 -30 c 0 -27 -3 -30 -30 -30 c -27 0 -30 -3 -30 -30 c 0 -27 -3 -30 -30 -30 l -30 0 l 0 -120 l 0 -120 l -30 0 l -30 0 l 0 -90 l 0 -90 l -30 0 l -30 0 l 0 -90 l 0 -90 l -30 0 c -27 0 -30 -3 -30 -30 c 0 -27 -3 -30 -30 -30 c -27 0 -30 -3 -30 -30 c 0 -27 -3 -30 -30 -30 l -30 0 l 0 -120 l 0 -120 l -30 0 l -30 0 l 0 -120 l 0 -120 l -30 0 l -30 0 l 0 -60 l 0 -60 l -30 0 l -30 0 l 0 -60 l 0 -60 l -60 0 l -60 0 l 0 -120 l 0 -120 l -30 0 l -30 0 l 0 -150 l 0 -150 l -30 0 l -30 0 l 0 -60 l 0 -60 l -30 0 l -30 0 l 0 -60 l 0 -60 l -30 0 c -27 0 -30 -3 -30 -30 c 0 -27 -3 -30 -30 -30 l -30 0 l 0 -120 l 0 -120 l -30 0 l -30 0 l 0 -150 l 0 -150 l -30 0 l -30 0 l 0 -90 l 0 -90 l -30 0 l -30 0 l 0 -60 l 0 -60 l -30 0 c -27 0 -30 -3 -30 -30 c 0 -27 -3 -30 -30 -30 l -30 0 l 0 -150 l 0 -150 l -30 0 l -30 0 l 0 -210 l 0 -210 l -30 0 l -30 0 l 0 -120 l 0 -120 l -30 0 l -30 0 l 0 -60 l 0 -60 l -30 0 l -30 0 l 0 -60 l 0 -60 l -30 0 l -30 0 l 0 -240 l 0 -240 l -30 0 l -30 0 l 0 -420 l 0 -420 l -30 0 l -30 0 l 0 -1045 l 0 -1045 l 30 0 l 30 0 l 0 -870 l 0 -870 l 30 0 l 30 0 l 0 -665 l 0 -665 l -30 0 l -30 0 l 0 -510 l 0 -510 l -30 0 l -30 0 l 0 -180 l 0 -180 l -30 0 l -30 0 l 0 -90 l 0 -90 l -30 0 l -30 0 l 0 -60 l 0 -60 l -30 0 l -30 0 l 0 -240 l 0 -240 l -30 0 l -30 0 l 0 -270 l 0 -270 l -30 0 l -30 0 l 0 -150 l 0 -150 l -30 0 l -30 0 l 0 -90 l 0 -90 l -30 0 l -30 0 l 0 -90 l 0 -90 l -30 0 l -30 0 l 0 -480 l 0 -480 l -30 0 l -30 0 l 0 -835 l 0 -835 l 30 0 l 30 0 l 0 -540 l 0 -540 l 30 0 l 30 0 l 0 -90 l 0 -90 l 30 0 l 30 0 l 0 -120 l 0 -120 l 30 0 l 30 0 l 0 -180 l 0 -180 l 30 0 l 30 0 l 0 -270 l 0 -270 l 30 0 l 30 0 l 0 -210 l 0 -210 l 30 0 c 27 0 30 -3 30 -30 c 0 -27 3 -30 30 -30 l 30 0 l 0 -90 l 0 -90 l 30 0 l 30 0 l 0 -90 l 0 -90 l 30 0 l 30 0 l 0 -180 l 0 -180 l 30 0 l 30 0 l 0 -150 l 0 -150 l 30 0 c 27 0 30 -3 30 -30 c 0 -27 3 -30 30 -30 l 30 0 l 0 -60 l 0 -60 l 30 0 l 30 0 l 0 -90 l 0 -90 l 30 0 l 30 0 l 0 -120 l 0 -120 l 30 0 l 30 0 l 0 -120 l 0 -120 l 30 0 c 27 0 30 -3 30 -30 c 0 -27 3 -30 30 -30 c 27 0 30 -3 30 -30 c 0 -27 3 -30 30 -30 l 30 0 l 0 -60 l 0 -60 l 30 0 l 30 0 l 0 -120 l 0 -120 l 30 0 l 30 0 l 0 -90 l 0 -90 l 30 0 c 27 0 30 -3 30 -30 c 0 -27 3 -30 30 -30 c 27 0 30 -3 30 -30 c 0 -27 3 -30 30 -30 l 30 0 l 0 -60 l 0 -60 l 30 0 l 30 0 l 0 -90 l 0 -90 l 30 0 l 30 0 l 0 -90 l 0 -90 l 30 0 c 27 0 30 -3 30 -30 c 0 -27 3 -30 30 -30 c 27 0 30 -3 30 -30 c 0 -27 3 -30 30 -30 l 30 0 l 0 -60 l 0 -60 l 30 0 l 30 0 l 0 -90 l 0 -90 l 30 0 l 30 0 l 0 -60 l 0 -60 l 60 0 l 60 0 l 0 -60 l 0 -60 l 30 0 c 27 0 30 -3 30 -30 c 0 -27 3 -30 30 -30 l 30 0 l 0 -60 l 0 -60 l 30 0 l 30 0 l 0 -90 l 0 -90 l 60 0 l 60 0 l 0 -30 c 0 -27 3 -30 30 -30 l 30 0 l 0 -60 l 0 -60 l 30 0 l 30 0 l 0 -60 l 0 -60 l 30 0 l 30 0 l 0 -60 l 0 -60 l 60 0 l 60 0 l 0 -30 c 0 -27 3 -30 30 -30 l 30 0 l 0 -60 l 0 -60 l 30 0 c 27 0 30 -3 30 -30 c 0 -27 3 -30 30 -30 l 30 0 l 0 -60 l 0 -60 l 30 0 c 27 0 30 -3 30 -30 c 0 -27 3 -30 30 -30 c 27 0 30 -3 30 -30 c 0 -27 3 -30 30 -30 c 27 0 30 -3 30 -30 c 0 -27 3 -30 30 -30 l 30 0 l 0 -60 l 0 -60 l 30 0 l 30 0 l 0 -60 l 0 -60 l 60 0 l 60 0 l 0 -30 c 0 -27 3 -30 30 -30 c 27 0 30 -3 30 -30 c 0 -27 3 -30 30 -30 l 30 0 l 0 -60 l 0 -60 l 30 0 c 27 0 30 -3 30 -30 c 0 -27 3 -30 30 -30 c 27 0 30 -3 30 -30 l 0 -30 l 60 0 l 60 0 l 0 -30 c 0 -27 3 -30 30 -30 l 30 0 l 0 -60 l 0 -60 l 30 0 c 27 0 30 -3 30 -30 c 0 -27 3 -30 30 -30 c 27 0 30 -3 30 -30 l 0 -30 l 60 0 l 60 0 l 0 -30 c 0 -27 3 -30 30 -30 l 30 0 l 0 -60 l 0 -60 l 30 0 c 27 0 30 -3 30 -30 c 0 -27 3 -30 30 -30 c 27 0 30 -3 30 -30 l 0 -30 l 60 0 l 60 0 l 0 -30 c 0 -27 3 -30 30 -30 l 30 0 l 0 -60 l 0 -60 l 30 0 c 27 0 30 -3 30 -30 c 0 -27 3 -30 30 -30 c 27 0 30 -3 30 -30 l 0 -30 l 60 0 l 60 0 l 0 -30 c 0 -27 3 -30 30 -30 c 27 0 30 -3 30 -30 c 0 -27 3 -30 30 -30 l 30 0 l 0 -60 l 0 -60 l 60 0 l 60 0 l 0 -30 c 0 -27 3 -30 30 -30 c 27 0 30 -3 30 -30 c 0 -27 3 -30 30 -30 c 27 0 30 -3 30 -30 c 0 -27 3 -30 30 -30 l 30 0 l 0 -60 l 0 -60 l 90 0 l 90 0 l 0 -30 c 0 -27 3 -30 30 -30 c 27 0 30 -3 30 -30 c 0 -27 3 -30 30 -30 c 27 0 30 -3 30 -30 c 0 -27 3 -30 30 -30 c 27 0 30 -3 30 -30 c 0 -27 3 -30 30 -30 c 27 0 30 -3 30 -30 l 0 -30 l 60 0 l 60 0 l 0 -30 c 0 -27 3 -30 30 -30 c 27 0 30 -3 30 -30 c 0 -27 3 -30 30 -30 c 27 0 30 -3 30 -30 c 0 -27 3 -30 30 -30 c 27 0 30 -3 30 -30 c 0 -27 3 -30 30 -30 c 27 0 30 -3 30 -30 c 0 -27 3 -30 30 -30 c 27 0 30 -3 30 -30 l 0 -30 l 60 0 l 60 0 l 0 -30 l 0 -30 l 60 0 l 60 0 l 0 -60 l 0 -60 l 30 0 c 27 0 30 -3 30 -30 c 0 -27 3 -30 30 -30 c 27 0 30 -3 30 -30 l 0 -30 l 90 0 l 90 0 l 0 -30 c 0 -27 3 -30 30 -30 c 27 0 30 -3 30 -30 c 0 -27 3 -30 30 -30 l 30 0 l 0 -60 l 0 -60 l 90 0 l 90 0 l 0 -30 c 0 -27 3 -30 30 -30 c 27 0 30 -3 30 -30 c 0 -27 3 -30 30 -30 c 27 0 30 -3 30 -30 l 0 -30 l 60 0 l 60 0 l 0 -60 l 0 -60 l 60 0 l 60 0 l 0 -30 l 0 -30 l 60 0 l 60 0 l 0 -30 l 0 -30 l 60 0 l 60 0 l 0 -30 c 0 -27 3 -30 30 -30 l 30 0 l 0 -60 l 0 -60 l 60 0 l 60 0 l 0 -30 l 0 -30 l 90 0 l 90 0 l 0 -30 c 0 -27 3 -30 30 -30 c 27 0 30 -3 30 -30 c 0 -27 3 -30 30 -30 c 27 0 30 -3 30 -30 c 0 -27 3 -30 30 -30 c 27 0 30 -3 30 -30 l 0 -30 l 60 0 l 60 0 l 0 -30 l 0 -30 l 60 0 l 60 0 l 0 -30 l 0 -30 l 60 0 l 60 0 l 0 -30 c 0 -27 3 -30 30 -30 l 30 0 l 0 -60 l 0 -60 l 90 0 l 90 0 l 0 -30 l 0 -30 l 60 0 l 60 0 l 0 -30 c 0 -27 3 -30 30 -30 c 27 0 30 -3 30 -30 l 0 -30 l 60 0 l 60 0 l 0 -30 c 0 -27 3 -30 30 -30 c 27 0 30 -3 30 -30 l 0 -30 l 60 0 l 60 0 l 0 -30 l 0 -30 l 90 0 l 90 0 l 0 -30 c 0 -27 3 -30 30 -30 c 27 0 30 -3 30 -30 c 0 -27 3 -30 30 -30 c 27 0 30 -3 30 -30 c 0 -27 3 -30 30 -30 c 27 0 30 -3 30 -30 l 0 -30 l 90 0 l 90 0 l 0 -30 l 0 -30 l 60 0 l 60 0 l 0 -30 l 0 -30 l 60 0 l 60 0 l 0 -30 c 0 -27 3 -30 30 -30 c 27 0 30 -3 30 -30 c 0 -27 3 -30 30 -30 c 27 0 30 -3 30 -30 l 0 -30 l 90 0 l 90 0 l 0 -30 l 0 -30 l 90 0 l 90 0 l 0 -30 l 0 -30 l 60 0 l 60 0 l 0 -30 c 0 -27 3 -30 30 -30 c 27 0 30 -3 30 -30 c 0 -27 3 -30 30 -30 c 27 0 30 -3 30 -30 l 0 -30 l 90 0 l 90 0 l 0 -30 l 0 -30 l 90 0 l 90 0 l 0 -30 l 0 -30 l 60 0 l 60 0 l 0 -30 c 0 -27 3 -30 30 -30 c 27 0 30 -3 30 -30 c 0 -27 3 -30 30 -30 c 27 0 30 -3 30 -30 l 0 -30 l 120 0 l 120 0 l 0 -30 l 0 -30 l 90 0 l 90 0 l 0 -30 l 0 -30 l 60 0 l 60 0 l 0 -30 l 0 -30 l 60 0 l 60 0 l 0 -30 c 0 -27 3 -30 30 -30 c 27 0 30 -3 30 -30 l 0 -30 l 90 0 l 90 0 l 0 -30 l 0 -30 l 120 0 l 120 0 l 0 -30 l 0 -30 l 90 0 l 90 0 l 0 -30 c 0 -27 3 -30 30 -30 c 27 0 30 -3 30 -30 c 0 -27 3 -30 30 -30 c 27 0 30 -3 30 -30 l 0 -30 l 120 0 l 120 0 l 0 -30 l 0 -30 l 150 0 l 150 0 l 0 -30 l 0 -30 l 60 0 l 60 0 l 0 -30 l 0 -30 l 60 0 l 60 0 l 0 -30 l 0 -30 l 60 0 l 60 0 l 0 -30 l 0 -30 l 120 0 l 120 0 l 0 -30 l 0 -30 l 150 0 l 150 0 l 0 -30 l 0 -30 l 120 0 l 120 0 l 0 -30 l 0 -30 l 60 0 l 60 0 l 0 -30 c 0 -27 3 -30 30 -30 c 27 0 30 -3 30 -30 l 0 -30 l 150 0 l 150 0 l 0 -30 l 0 -30 l 210 0 l 210 0 l 0 -30 l 0 -30 l 150 0 l 150 0 l 0 -30 l 0 -30 l 60 0 l 60 0 l 0 -30 l 0 -30 l 60 0 l 60 0 l 0 -30 l 0 -30 l 240 0 l 240 0 l 0 -30 l 0 -30 l 300 0 l 300 0 l 0 -30 l 0 -30 l 210 0 l 210 0 l 0 -30 l 0 -30 l 150 0 l 150 0 l 0 -30 l 0 -30 l 120 0 l 120 0 l 0 -30 l 0 -30 l 1765 0 l 1765 0 l 0 30 l 0 30 l 120 0 l 120 0 l 0 30 l 0 30 l 180 0 l 180 0 l 0 30 l 0 30 l 270 0 l 270 0 l 0 30 l 0 30 l 390 0 l 390 0 l 0 30 l 0 30 l 270 0 l 270 0 l 0 30 l 0 30 l 60 0 l 60 0 l 0 30 l 0 30 l 90 0 l 90 0 l 0 30 l 0 30 l 180 0 l 180 0 l 0 30 l 0 30 l 240 0 l 240 0 l 0 30 l 0 30 l 210 0 l 210 0 l 0 30 l 0 30 l 60 0 l 60 0 l 0 30 l 0 30 l 60 0 l 60 0 l 0 30 l 0 30 l 120 0 l 120 0 l 0 30 l 0 30 l 210 0 l 210 0 l 0 30 l 0 30 l 150 0 l 150 0 l 0 30 c 0 27 3 30 30 30 c 27 0 30 3 30 30 l 0 30 l 60 0 l 60 0 l 0 30 l 0 30 l 120 0 l 120 0 l 0 30 l 0 30 l 150 0 l 150 0 l 0 30 l 0 30 l 150 0 l 150 0 l 0 30 c 0 27 3 30 30 30 c 27 0 30 3 30 30 l 0 30 l 60 0 l 60 0 l 0 30 l 0 30 l 90 0 l 90 0 l 0 30 l 0 30 l 150 0 l 150 0 l 0 30 l 0 30 l 120 0 l 120 0 l 0 30 c 0 27 3 30 30 30 c 27 0 30 3 30 30 c 0 27 3 30 30 30 c 27 0 30 3 30 30 l 0 30 l 90 0 l 90 0 l 0 30 l 0 30 l 120 0 l 120 0 l 0 30 l 0 30 l 120 0 l 120 0 l 0 30 c 0 27 3 30 30 30 c 27 0 30 3 30 30 c 0 27 3 30 30 30 c 27 0 30 3 30 30 l 0 30 l 90 0 l 90 0 l 0 30 l 0 30 l 90 0 l 90 0 l 0 30 l 0 30 l 120 0 l 120 0 l 0 30 c 0 27 3 30 30 30 c 27 0 30 3 30 30 c 0 27 3 30 30 30 c 27 0 30 3 30 30 l 0 30 l 60 0 l 60 0 l 0 30 l 0 30 l 120 0 l 120 0 l 0 30 l 0 30 l 60 0 l 60 0 l 0 30 c 0 27 3 30 30 30 c 27 0 30 3 30 30 l 0 30 l 60 0 l 60 0 l 0 30 l 0 30 l 60 0 l 60 0 l 0 30 l 0 30 l 90 0 l 90 0 l 0 30 l 0 30 l 60 0 l 60 0 l 0 30 c 0 27 3 30 30 30 c 27 0 30 3 30 30 c 0 27 3 30 30 30 c 27 0 30 3 30 30 l 0 30 l 60 0 l 60 0 l 0 30 l 0 30 l 90 0 l 90 0 l 0 30 l 0 30 l 90 0 l 90 0 l 0 60 l 0 60 l 30 0 c 27 0 30 3 30 30 l 0 30 l 90 0 l 90 0 l 0 30 l 0 30 l 60 0 l 60 0 l 0 30 l 0 30 l 90 0 l 90 0 l 0 60 l 0 60 l 30 0 c 27 0 30 3 30 30 c 0 27 3 30 30 30 c 27 0 30 3 30 30 l 0 30 l 90 0 l 90 0 l 0 30 l 0 30 l 60 0 l 60 0 l 0 30 c 0 27 3 30 30 30 c 27 0 30 3 30 30 c 0 27 3 30 30 30 c 27 0 30 3 30 30 c 0 27 3 30 30 30 c 27 0 30 3 30 30 l 0 30 l 60 0 l 60 0 l 0 30 l 0 30 l 90 0 l 90 0 l 0 60 l 0 60 l 30 0 c 27 0 30 3 30 30 l 0 30 l 60 0 l 60 0 l 0 30 l 0 30 l 60 0 l 60 0 l 0 30 c 0 27 3 30 30 30 c 27 0 30 3 30 30 c 0 27 3 30 30 30 c 27 0 30 3 30 30 c 0 27 3 30 30 30 c 27 0 30 3 30 30 l 0 30 l 60 0 l 60 0 l 0 30 c 0 27 3 30 30 30 c 27 0 30 3 30 30 l 0 30 l 60 0 l 60 0 l 0 30 c 0 27 3 30 30 30 c 27 0 30 3 30 30 c 0 27 3 30 30 30 c 27 0 30 3 30 30 c 0 27 3 30 30 30 c 27 0 30 3 30 30 l 0 30 l 60 0 l 60 0 l 0 30 l 0 30 l 60 0 l 60 0 l 0 60 l 0 60 l 30 0 c 27 0 30 3 30 30 c 0 27 3 30 30 30 c 27 0 30 3 30 30 l 0 30 l 60 0 l 60 0 l 0 30 c 0 27 3 30 30 30 c 27 0 30 3 30 30 c 0 27 3 30 30 30 c 27 0 30 3 30 30 c 0 27 3 30 30 30 c 27 0 30 3 30 30 c 0 27 3 30 30 30 c 27 0 30 3 30 30 l 0 30 l 60 0 l 60 0 l 0 30 c 0 27 3 30 30 30 l 30 0 l 0 60 l 0 60 l 30 0 c 27 0 30 3 30 30 c 0 27 3 30 30 30 c 27 0 30 3 30 30 l 0 30 l 60 0 l 60 0 l 0 30 c 0 27 3 30 30 30 c 27 0 30 3 30 30 c 0 27 3 30 30 30 l 30 0 l 0 60 l 0 60 l 60 0 l 60 0 l 0 30 c 0 27 3 30 30 30 c 27 0 30 3 30 30 c 0 27 3 30 30 30 c 27 0 30 3 30 30 c 0 27 3 30 30 30 l 30 0 l 0 60 l 0 60 l 60 0 l 60 0 l 0 30 c 0 27 3 30 30 30 c 27 0 30 3 30 30 c 0 27 3 30 30 30 l 30 0 l 0 60 l 0 60 l 30 0 c 27 0 30 3 30 30 c 0 27 3 30 30 30 c 27 0 30 3 30 30 l 0 30 l 60 0 l 60 0 l 0 30 c 0 27 3 30 30 30 l 30 0 l 0 60 l 0 60 l 30 0 l 30 0 l 0 60 l 0 60 l 60 0 l 60 0 l 0 30 c 0 27 3 30 30 30 l 30 0 l 0 60 l 0 60 l 30 0 c 27 0 30 3 30 30 c 0 27 3 30 30 30 c 27 0 30 3 30 30 c 0 27 3 30 30 30 c 27 0 30 3 30 30 l 0 30 l 60 0 l 60 0 l 0 90 l 0 90 l 30 0 c 27 0 30 3 30 30 c 0 27 3 30 30 30 c 27 0 30 3 30 30 c 0 27 3 30 30 30 l 30 0 l 0 60 l 0 60 l 60 0 l 60 0 l 0 60 l 0 60 l 30 0 l 30 0 l 0 60 l 0 60 l 30 0 l 30 0 l 0 60 l 0 60 l 60 0 l 60 0 l 0 30 c 0 27 3 30 30 30 l 30 0 l 0 60 l 0 60 l 30 0 l 30 0 l 0 60 l 0 60 l 30 0 l 30 0 l 0 60 l 0 60 l 60 0 l 60 0 l 0 30 c 0 27 3 30 30 30 l 30 0 l 0 90 l 0 90 l 30 0 l 30 0 l 0 60 l 0 60 l 30 0 c 27 0 30 3 30 30 c 0 27 3 30 30 30 l 30 0 l 0 60 l 0 60 l 60 0 l 60 0 l 0 60 l 0 60 l 30 0 l 30 0 l 0 90 l 0 90 l 30 0 c 27 0 30 3 30 30 c 0 27 3 30 30 30 l 30 0 l 0 60 l 0 60 l 30 0 c 27 0 30 3 30 30 c 0 27 3 30 30 30 l 30 0 l 0 60 l 0 60 l 30 0 l 30 0 l 0 90 l 0 90 l 30 0 l 30 0 l 0 60 l 0 60 l 30 0 c 27 0 30 3 30 30 c 0 27 3 30 30 30 c 27 0 30 3 30 30 c 0 27 3 30 30 30 l 30 0 l 0 90 l 0 90 l 30 0 l 30 0 l 0 90 l 0 90 l 30 0 l 30 0 l 0 60 l 0 60 l 30 0 l 30 0 l 0 60 l 0 60 l 30 0 c 27 0 30 3 30 30 c 0 27 3 30 30 30 l 30 0 l 0 90 l 0 90 l 30 0 l 30 0 l 0 150 l 0 150 l 30 0 l 30 0 l 0 90 l 0 90 l 30 0 c 27 0 30 3 30 30 c 0 27 3 30 30 30 c 27 0 30 3 30 30 c 0 27 3 30 30 30 l 30 0 l 0 150 l 0 150 l 30 0 l 30 0 l 0 180 l 0 180 l 30 0 l 30 0 l 0 120 l 0 120 l 30 0 l 30 0 l 0 60 l 0 60 l 30 0 l 30 0 l 0 60 l 0 60 l 30 0 l 30 0 l 0 210 l 0 210 l 30 0 l 30 0 l 0 270 l 0 270 l 30 0 l 30 0 l 0 180 l 0 180 l 30 0 l 30 0 l 0 90 l 0 90 l 30 0 l 30 0 l 0 90 l 0 90 l 30 0 l 30 0 l 0 330 l 0 330 l 30 0 l 30 0 l 0 390 l 0 390 l 30 0 l 30 0 l 0 210 l 0 210 l 30 0 l 30 0 l 0 120 l 0 120 l 30 0 l 30 0 l 0 90 l 0 90 l 30 0 l 30 0 l 0 270 l 0 270 l 30 0 l 30 0 l 0 300 l 0 300 l 30 0 l 30 0 l 0 150 l 0 150 l 30 0 l 30 0 l 0 90 l 0 90 l 30 0 l 30 0 l 0 60 l 0 60 l 30 0 l 30 0 l 0 210 l 0 210 l 30 0 l 30 0 l 0 270 l 0 270 l 30 0 l 30 0 l 0 150 l 0 150 l 30 0 l 30 0 l 0 120 l 0 120 l 30 0 l 30 0 l 0 60 l 0 60 l 30 0 l 30 0 l 0 240 l 0 240 l 30 0 l 30 0 l 0 330 l 0 330 l 30 0 l 30 0 l 0 210 l 0 210 l 30 0 l 30 0 l 0 120 l 0 120 l 30 0 l 30 0 l 0 90 l 0 90 l 30 0 l 30 0 l 0 540 l 0 540 l 30 0 l 30 0 l 0 925 l 0 925 l -30 0 l -30 0 l 0 450 l 0 450 l -30 0 l -30 0 l 0 90 l 0 90 l -30 0 l -30 0 l 0 90 l 0 90 l -30 0 l -30 0 l 0 150 l 0 150 l -30 0 l -30 0 l 0 240 l 0 240 l -30 0 l -30 0 l 0 150 l 0 150 l -30 0 l -30 0 l 0 60 l 0 60 l -30 0 l -30 0 l 0 60 l 0 60 l -30 0 l -30 0 l 0 90 l 0 90 l -30 0 l -30 0 l 0 150 l 0 150 l -30 0 l -30 0 l 0 120 l 0 120 l -30 0 c -27 0 -30 3 -30 30 c 0 27 -3 30 -30 30 l -30 0 l 0 60 l 0 60 l -30 0 l -30 0 l 0 90 l 0 90 l -30 0 l -30 0 l 0 120 l 0 120 l -30 0 l -30 0 l 0 120 l 0 120 l -30 0 c -27 0 -30 3 -30 30 c 0 27 -3 30 -30 30 c -27 0 -30 3 -30 30 c 0 27 -3 30 -30 30 l -30 0 l 0 90 l 0 90 l -30 0 l -30 0 l 0 120 l 0 120 l -30 0 l -30 0 l 0 90 l 0 90 l -30 0 l -30 0 l 0 60 l 0 60 l -30 0 c -27 0 -30 3 -30 30 c 0 27 -3 30 -30 30 l -30 0 l 0 60 l 0 60 l -30 0 l -30 0 l 0 90 l 0 90 l -30 0 l -30 0 l 0 120 l 0 120 l -30 0 c -27 0 -30 3 -30 30 c 0 27 -3 30 -30 30 c -27 0 -30 3 -30 30 c 0 27 -3 30 -30 30 l -30 0 l 0 90 l 0 90 l -30 0 l -30 0 l 0 90 l 0 90 l -30 0 l -30 0 l 0 90 l 0 90 l -30 0 c -27 0 -30 3 -30 30 c 0 27 -3 30 -30 30 c -27 0 -30 3 -30 30 c 0 27 -3 30 -30 30 l -30 0 l 0 60 l 0 60 l -30 0 l -30 0 l 0 120 l 0 120 l -30 0 l -30 0 l 0 90 l 0 90 l -30 0 c -27 0 -30 3 -30 30 c 0 27 -3 30 -30 30 l -30 0 l 0 60 l 0 60 l -30 0 l -30 0 l 0 60 l 0 60 l -30 0 l -30 0 l 0 150 l 0 150 l -30 0 l -30 0 l 0 120 l 0 120 l -30 0 l -30 0 l 0 60 l 0 60 l -30 0 c -27 0 -30 3 -30 30 c 0 27 -3 30 -30 30 l -30 0 l 0 120 l 0 120 l -30 0 l -30 0 l 0 150 l 0 150 l -30 0 l -30 0 l 0 210 l 0 210 l -30 0 c -27 0 -30 3 -30 30 c 0 27 -3 30 -30 30 l -30 0 l 0 60 l 0 60 l -30 0 l -30 0 l 0 150 l 0 150 l -30 0 l -30 0 l 0 240 l 0 240 l -30 0 l -30 0 l 0 270 l 0 270 l -30 0 l -30 0 l 0 60 l 0 60 l -30 0 l -30 0 l 0 90 l 0 90 l -30 0 l -30 0 l 0 180 l 0 180 l -30 0 l -30 0 l 0 360 l 0 360 l -30 0 l -30 0 l 0 330 l 0 330 l -30 0 l -30 0 l 0 60 l 0 60 l -30 0 l -30 0 l 0 120 l 0 120 l -30 0 l -30 0 l 0 180 l 0 180 l -30 0 l -30 0 l 0 330 l 0 330 l -30 0 l -30 0 l 0 270 l 0 270 l -30 0 l -30 0 l 0 60 l 0 60 l -30 0 l -30 0 l 0 90 l 0 90 l -30 0 l -30 0 l 0 150 l 0 150 l -30 0 l -30 0 l 0 240 l 0 240 l -30 0 l -30 0 l 0 210 l 0 210 l -30 0 l -30 0 l 0 60 l 0 60 l -30 0 l -30 0 l 0 60 l 0 60 l -30 0 l -30 0 l 0 120 l 0 120 l -30 0 l -30 0 l 0 240 l 0 240 l -30 0 l -30 0 l 0 180 l 0 180 l -30 0 l -30 0 l 0 60 l 0 60 l -30 0 l -30 0 l 0 60 l 0 60 l -30 0 l -30 0 l 0 90 l 0 90 l -30 0 l -30 0 l 0 210 l 0 210 l -30 0 l -30 0 l 0 150 l 0 150 l -30 0 l -30 0 l 0 60 l 0 60 l -30 0 l -30 0 l 0 60 l 0 60 l -30 0 l -30 0 l 0 90 l 0 90 l -30 0 l -30 0 l 0 180 l 0 180 l -30 0 l -30 0 l 0 150 l 0 150 l -60 0 l -60 0 l 0 60 l 0 60 l -30 0 l -30 0 l 0 90 l 0 90 l -30 0 l -30 0 l 0 150 l 0 150 l -30 0 l -30 0 l 0 150 l 0 150 l -60 0 l -60 0 l 0 60 l 0 60 l -30 0 l -30 0 l 0 90 l 0 90 l -30 0 l -30 0 l 0 120 l 0 120 l -30 0 l -30 0 l 0 120 l 0 120 l -30 0 c -27 0 -30 3 -30 30 c 0 27 -3 30 -30 30 c -27 0 -30 3 -30 30 c 0 27 -3 30 -30 30 l -30 0 l 0 60 l 0 60 l -30 0 l -30 0 l 0 120 l 0 120 l -30 0 l -30 0 l 0 120 l 0 120 l -30 0 c -27 0 -30 3 -30 30 c 0 27 -3 30 -30 30 c -27 0 -30 3 -30 30 c 0 27 -3 30 -30 30 l -30 0 l 0 60 l 0 60 l -30 0 l -30 0 l 0 90 l 0 90 l -30 0 l -30 0 l 0 90 l 0 90 l -30 0 c -27 0 -30 3 -30 30 c 0 27 -3 30 -30 30 c -27 0 -30 3 -30 30 c 0 27 -3 30 -30 30 l -30 0 l 0 60 l 0 60 l -30 0 l -30 0 l 0 90 l 0 90 l -30 0 l -30 0 l 0 90 l 0 90 l -30 0 c -27 0 -30 3 -30 30 c 0 27 -3 30 -30 30 c -27 0 -30 3 -30 30 c 0 27 -3 30 -30 30 l -30 0 l 0 60 l 0 60 l -30 0 l -30 0 l 0 60 l 0 60 l -30 0 l -30 0 l 0 90 l 0 90 l -30 0 c -27 0 -30 3 -30 30 c 0 27 -3 30 -30 30 c -27 0 -30 3 -30 30 c 0 27 -3 30 -30 30 c -27 0 -30 3 -30 30 c 0 27 -3 30 -30 30 l -30 0 l 0 90 l 0 90 l -30 0 l -30 0 l 0 60 l 0 60 l -60 0 l -60 0 l 0 30 c 0 27 -3 30 -30 30 l -30 0 l 0 60 l 0 60 l -30 0 l -30 0 l 0 60 l 0 60 l -30 0 l -30 0 l 0 60 l 0 60 l -30 0 c -27 0 -30 3 -30 30 l 0 30 l -60 0 l -60 0 l 0 30 c 0 27 -3 30 -30 30 l -30 0 l 0 60 l 0 60 l -30 0 l -30 0 l 0 60 l 0 60 l -30 0 c -27 0 -30 3 -30 30 l 0 30 l -60 0 l -60 0 l 0 30 c 0 27 -3 30 -30 30 l -30 0 l 0 90 l 0 90 l -30 0 c -27 0 -30 3 -30 30 l 0 30 l -60 0 l -60 0 l 0 30 c 0 27 -3 30 -30 30 c -27 0 -30 3 -30 30 c 0 27 -3 30 -30 30 l -30 0 l 0 60 l 0 60 l -30 0 c -27 0 -30 3 -30 30 l 0 30 l -60 0 l -60 0 l 0 30 c 0 27 -3 30 -30 30 c -27 0 -30 3 -30 30 c 0 27 -3 30 -30 30 l -30 0 l 0 60 l 0 60 l -60 0 l -60 0 l 0 30 l 0 30 l -60 0 l -60 0 l 0 30 c 0 27 -3 30 -30 30 c -27 0 -30 3 -30 30 c 0 27 -3 30 -30 30 l -30 0 l 0 60 l 0 60 l -60 0 l -60 0 l 0 30 l 0 30 l -60 0 l -60 0 l 0 30 c 0 27 -3 30 -30 30 c -27 0 -30 3 -30 30 c 0 27 -3 30 -30 30 c -27 0 -30 3 -30 30 c 0 27 -3 30 -30 30 c -27 0 -30 3 -30 30 l 0 30 l -60 0 l -60 0 l 0 30 l 0 30 l -60 0 l -60 0 l 0 30 l 0 30 l -60 0 l -60 0 l 0 30 c 0 27 -3 30 -30 30 l -30 0 l 0 60 l 0 60 l -90 0 l -90 0 l 0 30 l 0 30 l -90 0 l -90 0 l 0 30 l 0 30 l -60 0 l -60 0 l 0 30 c 0 27 -3 30 -30 30 c -27 0 -30 3 -30 30 c 0 27 -3 30 -30 30 c -27 0 -30 3 -30 30 l 0 30 l -90 0 l -90 0 l 0 30 l 0 30 l -60 0 l -60 0 l 0 30 l 0 30 l -60 0 l -60 0 l 0 30 c 0 27 -3 30 -30 30 c -27 0 -30 3 -30 30 c 0 27 -3 30 -30 30 c -27 0 -30 3 -30 30 c 0 27 -3 30 -30 30 c -27 0 -30 3 -30 30 l 0 30 l -60 0 l -60 0 l 0 30 c 0 27 -3 30 -30 30 c -27 0 -30 3 -30 30 c 0 27 -3 30 -30 30 c -27 0 -30 3 -30 30 c 0 27 -3 30 -30 30 l -30 0 l 0 60 l 0 60 l -30 0 c -27 0 -30 3 -30 30 c 0 27 -3 30 -30 30 c -27 0 -30 3 -30 30 c 0 27 -3 30 -30 30 l -30 0 l 0 60 l 0 60 l -30 0 c -27 0 -30 3 -30 30 c 0 27 -3 30 -30 30 l -30 0 l 0 90 l 0 90 l -30 0 l -30 0 l 0 90 l 0 90 l -60 0 l -60 0 l 0 60 l 0 60 l -30 0 c -27 0 -30 3 -30 30 c 0 27 -3 30 -30 30 l -30 0 l 0 90 l 0 90 l -30 0 l -30 0 l 0 90 l 0 90 l -60 0 l -60 0 l 0 30 c 0 27 -3 30 -30 30 c -27 0 -30 3 -30 30 c 0 27 -3 30 -30 30 l -30 0 l 0 60 l 0 60 l -30 0 c -27 0 -30 3 -30 30 c 0 27 -3 30 -30 30 c -27 0 -30 3 -30 30 l 0 30 l -60 0 l -60 0 l 0 60 l 0 60 l -30 0 c -27 0 -30 3 -30 30 c 0 27 -3 30 -30 30 c -27 0 -30 3 -30 30 l 0 30 l -60 0 l -60 0 l 0 30 c 0 27 -3 30 -30 30 c -27 0 -30 3 -30 30 c 0 27 -3 30 -30 30 l -30 0 l 0 60 l 0 60 l -90 0 l -90 0 l 0 30 l 0 30 l -60 0 l -60 0 l 0 30 c 0 27 -3 30 -30 30 c -27 0 -30 3 -30 30 c 0 27 -3 30 -30 30 c -27 0 -30 3 -30 30 c 0 27 -3 30 -30 30 c -27 0 -30 3 -30 30 l 0 30 l -90 0 l -90 0 l 0 30 l 0 30 l -90 0 l -90 0 l 0 30 l 0 30 l -60 0 l -60 0 l 0 30 c 0 27 -3 30 -30 30 c -27 0 -30 3 -30 30 c 0 27 -3 30 -30 30 c -27 0 -30 3 -30 30 l 0 30 l -90 0 l -90 0 l 0 30 l 0 30 l -150 0 l -150 0 l 0 30 l 0 30 l -120 0 l -120 0 l 0 30 l 0 30 l -60 0 l -60 0 l 0 30 c 0 27 -3 30 -30 30 c -27 0 -30 3 -30 30 l 0 30 l -270 0 l -270 0 l 0 30 l 0 30 l -685 0 l -685 0 l 0 -30 l 0 -30 l -270 0 l -270 0 l 0 -30 l 0 -30 l -60 0 l -60 0 l 0 -30 l 0 -30 l -90 0 l -90 0 l 0 -30 l 0 -30 l -275 0 l -275 0 l 0 30 l 0 30 l -90 0 l -90 0 l 0 30 c 0 27 -3 30 -30 30 c -27 0 -30 3 -30 30 l 0 30 l -150 0 l -150 0 l 0 30 l 0 30 l -150 0 l -150 0 l 0 30 l 0 30 l -90 0 l -90 0 l 0 30 l 0 30 l -60 0 l -60 0 l 0 30 c 0 27 -3 30 -30 30 c -27 0 -30 3 -30 30 l 0 30 l -240 0 l -240 0 l 0 30 l 0 30 l -955 0 l -955 0 l 0 -30 z"/>
</g>
<g transform="translate(0,6000) scale(0.1,-0.1)"
fill="#000000" stroke="none">
<path d="M 21190 55400 l 0 -30 l -120 0 l -120 0 l 0 -30 l 0 -30 l -60 0 l -60 0 l 0 -30 c 0 -27 -3 -30 -30 -30 c -27 0 -30 -3 -30 -30 l 0 -30 l -120 0 l -120 0 l 0 -30 l 0 -30 l -90 0 l -90 0 l 0 -30 l 0 -30 l -60 0 l -60 0 l 0 -30 c 0 -27 -3 -30 -30 -30 l -30 0 l 0 -60 l 0 -60 l -60 0 l -60 0 l 0 -30 l 0 -30 l -60 0 l -60 0 l 0 -30 c 0 -27 -3 -30 -30 -30 c -27 0 -30 -3 -30 -30 c 0 -27 -3 -30 -30 -30 c -27 0 -30 -3 -30 -30 c 0 -27 -3 -30 -30 -30 c -27 0 -30 -3 -30 -30 c 0 -27 -3 -30 -30 -30 c -27 0 -30 -3 -30 -30 l 0 -30 l -60 0 l -60 0 l 0 -60 l 0 -60 l -30 0 l -30 0 l 0 -60 l 0 -60 l -60 0 l -60 0 l 0 -30 c 0 -27 -3 -30 -30 -30 c -27 0 -30 -3 -30 -30 c 0 -27 -3 -30 -30 -30 l -30 0 l 0 -90 l 0 -90 l -30 0 l -30 0 l 0 -60 l 0 -60 l -60 0 l -60 0 l 0 -60 l 0 -60 l -30 0 l -30 0 l 0 -60 l 0 -60 l -30 0 l -30 0 l 0 -90 l 0 -90 l -30 0 c -27 0 -30 -3 -30 -30 c 0 -27 -3 -30 -30 -30 c -27 0 -30 -3 -30 -30 l 0 -30 l -90 0 l -90 0 l 0 -30 l 0 -30 l -120 0 l -120 0 l 0 -30 l 0 -30 l -90 0 l -90 0 l 0 -30 c 0 -27 -3 -30 -30 -30 c -27 0 -30 -3 -30 -30 l 0 -30 l -150 0 l -150 0 l 0 -30 l 0 -30 l -180 0 l -180 0 l 0 -30 l 0 -30 l -120 0 l -120 0 l 0 -30 l 0 -30 l -60 0 l -60 0 l 0 -30 c 0 -27 -3 -30 -30 -30 c -27 0 -30 -3 -30 -30 l 0 -30 l -120 0 l -120 0 l 0 -30 l 0 -30 l -120 0 l -120 0 l 0 -30 l 0 -30 l -90 0 l -90 0 l 0 -30 l 0 -30 l -60 0 l -60 0 l 0 -30 c 0 -27 -3 -30 -30 -30 c -27 0 -30 -3 -30 -30 l 0 -30 l -90 0 l -90 0 l 0 -30 l 0 -30 l -90 0 l -90 0 l 0 -30 l 0 -30 l -60 0 l -60 0 l 0 -30 l 0 -30 l -60 0 l -60 0 l 0 -60 l 0 -60 l -90 0 l -90 0 l 0 -30 l 0 -30 l -60 0 l -60 0 l 0 -30 c 0 -27 -3 -30 -30 -30 c -27 0 -30 -3 -30 -30 l 0 -30 l -60 0 l -60 0 l 0 -30 c 0 -27 -3 -30 -30 -30 c -27 0 -30 -3 -30 -30 c 0 -27 -3 -30 -30 -30 c -27 0 -30 -3 -30 -30 c 0 -27 -3 -30 -30 -30 c -27 0 -30 -3 -30 -30 l 0 -30 l -60 0 l -60 0 l 0 -30 c 0 -27 -3 -30 -30 -30 l -30 0 l 0 -60 l 0 -60 l -60 0 l -60 0 l 0 -30 c 0 -27 -3 -30 -30 -30 c -27 0 -30 -3 -30 -30 c 0 -27 -3 -30 -30 -30 c -27 0 -30 -3 -30 -30 c 0 -27 -3 -30 -30 -30 c -27 0 -30 -3 -30 -30 c 0 -27 -3 -30 -30 -30 c -27 0 -30 -3 -30 -30 c 0 -27 -3 -30 -30 -30 c -27 0 -30 -3 -30 -30 l 0 -30 l -60 0 l -60 0 l 0 -30 l 0 -30 l -60 0 l -60 0 l 0 -30 c 0 -27 -3 -30 -30 -30 l -30 0 l 0 -60 l 0 -60 l -60 0 l -60 0 l 0 -30 l 0 -30 l -60 0 l -60 0 l 0 -30 l 0 -30 l -60 0 l -60 0 l 0 -30 c 0 -27 -3 -30 -30 -30 c -27 0 -30 -3 -30 -30 c 0 -27 -3 -30 -30 -30 c -27 0 -30 -3 -30 -30 l 0 -30 l -60 0 l -60 0 l 0 -30 l 0 -30 l -60 0 l -60 0 l 0 -30 l 0 -30 l -60 0 l -60 0 l 0 -60 l 0 -60 l -30 0 c -27 0 -30 -3 -30 -30 l 0 -30 l -60 0 l -60 0 l 0 -30 l 0 -30 l -60 0 l -60 0 l 0 -30 l 0 -30 l -60 0 l -60 0 l 0 -30 c 0 -27 -3 -30 -30 -30 c -27 0 -30 -3 -30 -30 c 0 -27 -3 -30 -30 -30 c -27 0 -30 -3 -30 -30 c 0 -27 -3 -30 -30 -30 c -27 0 -30 -3 -30 -30 l 0 -30 l -60 0 l -60 0 l 0 -30 l 0 -30 l -60 0 l -60 0 l 0 -30 c 0 -27 -3 -30 -30 -30 l -30 0 l 0 -60 l 0 -60 l -60 0 l -60 0 l 0 -30 l 0 -30 l -60 0 l -60 0 l 0 -30 c 0 -27 -3 -30 -30 -30 c -27 0 -30 -3 -30 -30 c 0 -27 -3 -30 -30 -30 l -30 0 l 0 -60 l 0 -60 l -90 0 l -90 0 l 0 -30 c 0 -27 -3 -30 -30 -30 c -27 0 -30 -3 -30 -30 c 0 -27 -3 -30 -30 -30 c -27 0 -30 -3 -30 -30 c 0 -27 -3 -30 -30 -30 c -27 0 -30 -3 -30 -30 c 0 -27 -3 -30 -30 -30 c -27 0 -30 -3 -30 -30 l 0 -30 l -60 0 l -60 0 l 0 -30 c 0 -27 -3 -30 -30 -30 c -27 0 -30 -3 -30 -30 c 0 -27 -3 -30 -30 -30 c -27 0 -30 -3 -30 -30 c 0 -27 -3 -30 -30 -30 c -27 0 -30 -3 -30 -30 c 0 -27 -3 -30 -30 -30 c -27 0 -30 -3 -30 -30 c 0 -27 -3 -30 -30 -30 c -27 0 -30 -3 -30 -30 c 0 -27 -3 -30 -30 -30 c -27 0 -30 -3 -30 -30 c 0 -27 -3 -30 -30 -30 c -27 0 -30 -3 -30 -30 c 0 -27 -3 -30 -30 -30 c -27 0 -30 -3 -30 -30 c 0 -27 -3 -30 -30 -30 c -27 0 -30 -3 -30 -30 c 0 -27 -3 -30 -30 -30 c -27 0 -30 -3 -30 -30 c 0 -27 -3 -30 -30 -30 l -30 0 l 0 -60 l 0 -60 l -60 0 l -60 0 l 0 -60 l 0 -60 l -30 0 c -27 0 -30 -3 -30 -30 c 0 -27 -3 -30 -30 -30 c -27 0 -30 -3 -30 -30 c 0 -27 -3 -30 -30 -30 l -30 0 l 0 -60 l 0 -60 l -30 0 c -27 0 -30 -3 -30 -30 c 0 -27 -3 -30 -30 -30 c -27 0 -30 -3 -30 -30 c 0 -27 -3 -30 -30 -30 c -27 0 -30 -3 -30 -30 c 0 -27 -3 -30 -30 -30 l -30 0 l 0 -60 l 0 -60 l -30 0 l -30 0 l 0 -60 l 0 -60 l -30 0 c -27 0 -30 -3 -30 -30 c 0 -27 -3 -30 -30 -30 c -27 0 -30 -3 -30 -30 c 0 -27 -3 -30 -30 -30 l -30 0 l 0 -60 l 0 -60 l -30 0 l -30 0 l 0 -60 l 0 -60 l -30 0 l -30 0 l 0 -60 l 0 -60 l -30 0 c -27 0 -30 -3 -30 -30 c 0 -27 -3 -30 -30 -30 c -27 0 -30 -3 -30 -30 c 0 -27 -3 -30 -30 -30 l -30 0 l 0 -60 l 0 -60 l -30 0 l -30 0 l 0 -90 l 0 -90 l -30 0 l -30 0 l 0 -60 l 0 -60 l -30 0 l -30 0 l 0 -60 l 0 -60 l -30 0 c -27 0 -30 -3 -30 -30 c 0 -27 -3 -30 -30 -30 l -30 0 l 0 -60 l 0 -60 l -30 0 l -30 0 l 0 -120 l 0 -120 l -30 0 l -30 0 l 0 -90 l 0 -90 l -30 0 c -27 0 -30 -3 -30 -30 c 0 -27 -3 -30 -30 -30 c -27 0 -30 -3 -30 -30 c 0 -27 -3 -30 -30 -30 l -30 0 l 0 -90 l 0 -90 l -30 0 l -30 0 l 0 -120 l 0 -120 l -30 0 l -30 0 l 0 -120 l 0 -120 l -30 0 c -27 0 -30 -3 -30 -30 c 0 -27 -3 -30 -30 -30 l -30 0 l 0 -60 l 0 -60 l -30 0 l -30 0 l 0 -120 l 0 -120 l -30 0 l -30 0 l 0 -150 l 0 -150 l -30 0 l -30 0 l 0 -120 l 0 -120 l -30 0 c -27 0 -30 -3 -30 -30 c 0 -27 -3 -30 -30 -30 l -30 0 l 0 -90 l 0 -90 l -30 0 l -30 0 l 0 -120 l 0 -120 l -30 0 l -30 0 l 0 -180 l 0 -180 l -30 0 l -30 0 l 0 -150 l 0 -150 l -30 0 l -30 0 l 0 -60 l 0 -60 l -30 0 l -30 0 l 0 -90 l 0 -90 l -30 0 l -30 0 l 0 -150 l 0 -150 l -30 0 l -30 0 l 0 -240 l 0 -240 l -30 0 l -30 0 l 0 -270 l 0 -270 l -30 0 l -30 0 l 0 -60 l 0 -60 l -30 0 l -30 0 l 0 -150 l 0 -150 l -30 0 l -30 0 l 0 -270 l 0 -270 l -30 0 l -30 0 l 0 -510 l 0 -510 l -30 0 l -30 0 l 0 -1290 l 0 -1290 l -30 0 l -30 0 l 0 -60 l 0 -60 l -30 0 l -30 0 l 0 -60 l 0 -60 l -30 0 l -30 0 l 0 -60 l 0 -60 l -30 0 l -30 0 l 0 -90 l 0 -90 l -30 0 l -30 0 l 0 -90 l 0 -90 l -30 0 c -27 0 -30 -3 -30 -30 c 0 -27 -3 -30 -30 -30 c -27 0 -30 -3 -30 -30 c 0 -27 -3 -30 -30 -30 l -30 0 l 0 -90 l 0 -90 l -30 0 l -30 0 l 0 -90 l 0 -90 l -30 0 l -30 0 l 0 -90 l 0 -90 l -30 0 c -27 0 -30 -3 -30 -30 c 0 -27 -3 -30 -30 -30 c -27 0 -30 -3 -30 -30 c 0 -27 -3 -30 -30 -30 l -30 0 l 0 -90 l 0 -90 l -30 0 l -30 0 l 0 -90 l 0 -90 l -30 0 l -30 0 l 0 -90 l 0 -90 l -30 0 c -27 0 -30 -3 -30 -30 c 0 -27 -3 -30 -30 -30 l -30 0 l 0 -60 l 0 -60 l -30 0 l -30 0 l 0 -60 l 0 -60 l -30 0 l -30 0 l 0 -120 l 0 -120 l -30 0 l -30 0 l 0 -90 l 0 -90 l -30 0 c -27 0 -30 -3 -30 -30 c 0 -27 -3 -30 -30 -30 l -30 0 l 0 -60 l 0 -60 l -30 0 l -30 0 l 0 -60 l 0 -60 l -30 0 l -30 0 l 0 -120 l 0 -120 l -30 0 l -30 0 l 0 -90 l 0 -90 l -30 0 c -27 0 -30 -3 -30 -30 c 0 -27 -3 -30 -30 -30 l -30 0 l 0 -60 l 0 -60 l -30 0 l -30 0 l 0 -90 l 0 -90 l -30 0 l -30 0 l 0 -120 l 0 -120 l -30 0 l -30 0 l 0 -90 l 0 -90 l -30 0 l -30 0 l 0 -60 l 0 -60 l -30 0 c -27 0 -30 -3 -30 -30 c 0 -27 -3 -30 -30 -30 l -30 0 l 0 -90 l 0 -90 l -30 0 l -30 0 l 0 -150 l 0 -150 l -30 0 l -30 0 l 0 -90 l 0 -90 l -30 0 l -30 0 l 0 -60 l 0 -60 l -30 0 l -30 0 l 0 -60 l 0 -60 l -30 0 l -30 0 l 0 -90 l 0 -90 l -30 0 l -30 0 l 0 -180 l 0 -180 l -30 0 l -30 0 l 0 -150 l 0 -150 l -30 0 c -27 0 -30 -3 -30 -30 c 0 -27 -3 -30 -30 -30 l -30 0 l 0 -90 l 0 -90 l -30 0 l -30 0 l 0 -180 l 0 -180 l -30 0 l -30 0 l 0 -270 l 0 -270 l -30 0 l -30 0 l 0 -1135 l 0 -1135 l 30 0 l 30 0 l 0 -600 l 0 -600 l 30 0 l 30 0 l 0 -695 l 0 -695 l -30 0 l -30 0 l 0 -720 l 0 -720 l -30 0 l -30 0 l 0 -300 l 0 -300 l -30 0 l -30 0 l 0 -60 l 0 -60 l -30 0 l -30 0 l 0 -120 l 0 -120 l -30 0 l -30 0 l 0 -150 l 0 -150 l -30 0 l -30 0 l 0 -240 l 0 -240 l -30 0 l -30 0 l 0 -210 l 0 -210 l -30 0 l -30 0 l 0 -60 l 0 -60 l -30 0 l -30 0 l 0 -150 l 0 -150 l -30 0 l -30 0 l 0 -240 l 0 -240 l -30 0 l -30 0 l 0 -1255 l 0 -1255 l 30 0 l 30 0 l 0 -270 l 0 -270 l 30 0 l 30 0 l 0 -150 l 0 -150 l 30 0 l 30 0 l 0 -60 l 0 -60 l 30 0 l 30 0 l 0 -210 l 0 -210 l 30 0 l 30 0 l 0 -240 l 0 -240 l 30 0 l 30 0 l 0 -150 l 0 -150 l 30 0 l 30 0 l 0 -90 l 0 -90 l 30 0 c 27 0 30 -3 30 -30 c 0 -27 3 -30 30 -30 l 30 0 l 0 -150 l 0 -150 l 30 0 l 30 0 l 0 -150 l 0 -150 l 30 0 l 30 0 l 0 -90 l 0 -90 l 30 0 l 30 0 l 0 -60 l 0 -60 l 30 0 c 27 0 30 -3 30 -30 c 0 -27 3 -30 30 -30 l 30 0 l 0 -90 l 0 -90 l 30 0 l 30 0 l 0 -120 l 0 -120 l 30 0 l 30 0 l 0 -60 l 0 -60 l 30 0 l 30 0 l 0 -60 l 0 -60 l 30 0 c 27 0 30 -3 30 -30 c 0 -27 3 -30 30 -30 l 30 0 l 0 -60 l 0 -60 l 30 0 l 30 0 l 0 -90 l 0 -90 l 30 0 l 30 0 l 0 -60 l 0 -60 l 30 0 c 27 0 30 -3 30 -30 c 0 -27 3 -30 30 -30 c 27 0 30 -3 30 -30 c 0 -27 3 -30 30 -30 l 30 0 l 0 -60 l 0 -60 l 30 0 l 30 0 l 0 -60 l 0 -60 l 30 0 l 30 0 l 0 -60 l 0 -60 l 30 0 c 27 0 30 -3 30 -30 l 0 -30 l 60 0 l 60 0 l 0 -90 l 0 -90 l 30 0 c 27 0 30 -3 30 -30 c 0 -27 3 -30 30 -30 l 30 0 l 0 -60 l 0 -60 l 30 0 c 27 0 30 -3 30 -30 c 0 -27 3 -30 30 -30 c 27 0 30 -3 30 -30 c 0 -27 3 -30 30 -30 c 27 0 30 -3 30 -30 c 0 -27 3 -30 30 -30 l 30 0 l 0 -60 l 0 -60 l 30 0 l 30 0 l 0 -60 l 0 -60 l 60 0 l 60 0 l 0 -30 c 0 -27 3 -30 30 -30 c 27 0 30 -3 30 -30 c 0 -27 3 -30 30 -30 l 30 0 l 0 -60 l 0 -60 l 30 0 c 27 0 30 -3 30 -30 c 0 -27 3 -30 30 -30 c 27 0 30 -3 30 -30 c 0 -27 3 -30 30 -30 c 27 0 30 -3 30 -30 c 0 -27 3 -30 30 -30 c 27 0 30 -3 30 -30 c 0 -27 3 -30 30 -30 l 30 0 l 0 -60 l 0 -60 l 30 0 c 27 0 30 -3 30 -30 l 0 -30 l 60 0 l 60 0 l 0 -30 c 0 -27 3 -30 30 -30 c 27 0 30 -3 30 -30 c 0 -27 3 -30 30 -30 l 30 0 l 0 -60 l 0 -60 l 30 0 c 27 0 30 -3 30 -30 l 0 -30 l 60 0 l 60 0 l 0 -30 c 0 -27 3 -30 30 -30 c 27 0 30 -3 30 -30 c 0 -27 3 -30 30 -30 l 30 0 l 0 -60 l 0 -60 l 30 0 c 27 0 30 -3 30 -30 l 0 -30 l 60 0 l 60 0 l 0 -30 l 0 -30 l 60 0 l 60 0 l 0 -60 l 0 -60 l 30 0 c 27 0 30 -3 30 -30 c 0 -27 3 -30 30 -30 c 27 0 30 -3 30 -30 l 0 -30 l 60 0 l 60 0 l 0 -30 c 0 -27 3 -30 30 -30 c 27 0 30 -3 30 -30 c 0 -27 3 -30 30 -30 l 30 0 l 0 -60 l 0 -60 l 60 0 l 60 0 l 0 -30 l 0 -30 l 60 0 l 60 0 l 0 -30 c 0 -27 3 -30 30 -30 c 27 0 30 -3 30 -30 c 0 -27 3 -30 30 -30 c 27 0 30 -3 30 -30 c 0 -27 3 -30 30 -30 c 27 0 30 -3 30 -30 c 0 -27 3 -30 30 -30 c 27 0 30 -3 30 -30 l 0 -30 l 60 0 l 60 0 l 0 -30 c 0 -27 3 -30 30 -30 c 27 0 30 -3 30 -30 c 0 -27 3 -30 30 -30 c 27 0 30 -3 30 -30 c 0 -27 3 -30 30 -30 c 27 0 30 -3 30 -30 c 0 -27 3 -30 30 -30 c 27 0 30 -3 30 -30 l 0 -30 l 60 0 l 60 0 l 0 -30 l 0 -30 l 60 0 l 60 0 l 0 -30 c 0 -27 3 -30 30 -30 c 27 0 30 -3 30 -30 c 0 -27 3 -30 30 -30 c 27 0 30 -3 30 -30 c 0 -27 3 -30 30 -30 c 27 0 30 -3 30 -30 l 0 -30 l 60 0 l 60 0 l 0 -30 l 0 -30 l 60 0 l 60 0 l 0 -60 l 0 -60 l 60 0 l 60 0 l 0 -30 c 0 -27 3 -30 30 -30 c 27 0 30 -3 30 -30 l 0 -30 l 60 0 l 60 0 l 0 -30 l 0 -30 l 60 0 l 60 0 l 0 -30 c 0 -27 3 -30 30 -30 c 27 0 30 -3 30 -30 c 0 -27 3 -30 30 -30 c 27 0 30 -3 30 -30 c 0 -27 3 -30 30 -30 c 27 0 30 -3 30 -30 l 0 -30 l 90 0 l 90 0 l 0 -30 c 0 -27 3 -30 30 -30 c 27 0 30 -3 30 -30 c 0 -27 3 -30 30 -30 c 27 0 30 -3 30 -30 c 0 -27 3 -30 30 -30 c 27 0 30 -3 30 -30 l 0 -30 l 60 0 l 60 0 l 0 -30 l 0 -30 l 60 0 l 60 0 l 0 -30 l 0 -30 l 90 0 l 90 0 l 0 -60 l 0 -60 l 30 0 c 27 0 30 -3 30 -30 l 0 -30 l 60 0 l 60 0 l 0 -30 l 0 -30 l 60 0 l 60 0 l 0 -30 l 0 -30 l 60 0 l 60 0 l 0 -30 c 0 -27 3 -30 30 -30 c 27 0 30 -3 30 -30 c 0 -27 3 -30 30 -30 c 27 0 30 -3 30 -30 l 0 -30 l 60 0 l 60 0 l 0 -30 l 0 -30 l 60 0 l 60 0 l 0 -30 l 0 -30 l 60 0 l 60 0 l 0 -30 c 0 -27 3 -30 30 -30 c 27 0 30 -3 30 -30 c 0 -27 3 -30 30 -30 c 27 0 30 -3 30 -30 l 0 -30 l 60 0 l 60 0 l 0 -30 l 0 -30 l 60 0 l 60 0 l 0 -30 l 0 -30 l 90 0 l 90 0 l 0 -30 c 0 -27 3 -30 30 -30 c 27 0 30 -3 30 -30 c 0 -27 3 -30 30 -30 c 27 0 30 -3 30 -30 l 0 -30 l 60 0 l 60 0 l 0 -30 l 0 -30 l 60 0 l 60 0 l 0 -30 l 0 -30 l 90 0 l 90 0 l 0 -30 c 0 -27 3 -30 30 -30 c 27 0 30 -3 30 -30 c 0 -27 3 -30 30 -30 c 27 0 30 -3 30 -30 l 0 -30 l 60 0 l 60 0 l 0 -30 l 0 -30 l 90 0 l 90 0 l 0 -30 l 0 -30 l 60 0 l 60 0 l 0 -30 c 0 -27 3 -30 30 -30 c 27 0 30 -3 30 -30 l 0 -30 l 60 0 l 60 0 l 0 -30 l 0 -30 l 60 0 l 60 0 l 0 -30 l 0 -30 l 90 0 l 90 0 l 0 -30 l 0 -30 l 90 0 l 90 0 l 0 -30 c 0 -27 3 -30 30 -30 c 27 0 30 -3 30 -30 c 0 -27 3 -30 30 -30 c 27 0 30 -3 30 -30 l 0 -30 l 90 0 l 90 0 l 0 -30 l 0 -30 l 90 0 l 90 0 l 0 -30 l 0 -30 l 120 0 l 120 0 l 0 -30 c 0 -27 3 -30 30 -30 c 27 0 30 -3 30 -30 c 0 -27 3 -30 30 -30 c 27 0 30 -3 30 -30 l 0 -30 l 90 0 l 90 0 l 0 -30 l 0 -30 l 120 0 l 120 0 l 0 -30 l 0 -30 l 120 0 l 120 0 l 0 -30 c 0 -27 3 -30 30 -30 c 27 0 30 -3 30 -30 l 0 -30 l 60 0 l 60 0 l 0 -30 l 0 -30 l 120 0 l 120 0 l 0 -30 l 0 -30 l 150 0 l 150 0 l 0 -30 l 0 -30 l 150 0 l 150 0 l 0 -30 c 0 -27 3 -30 30 -30 c 27 0 30 -3 30 -30 l 0 -30 l 90 0 l 90 0 l 0 -30 l 0 -30 l 150 0 l 150 0 l 0 -30 l 0 -30 l 240 0 l 240 0 l 0 -30 l 0 -30 l 240 0 l 240 0 l 0 -30 l 0 -30 l 90 0 l 90 0 l 0 -30 l 0 -30 l 180 0 l 180 0 l 0 -30 l 0 -30 l 390 0 l 390 0 l 0 -30 l 0 -30 l 1045 0 l 1045 0 l 0 30 l 0 30 l 390 0 l 390 0 l 0 30 l 0 30 l 210 0 l 210 0 l 0 30 l 0 30 l 90 0 l 90 0 l 0 30 l 0 30 l 330 0 l 330 0 l 0 30 l 0 30 l 300 0 l 300 0 l 0 30 l 0 30 l 210 0 l 210 0 l 0 30 l 0 30 l 120 0 l 120 0 l 0 30 l 0 30 l 60 0 l 60 0 l 0 30 l 0 30 l 210 0 l 210 0 l 0 30 l 0 30 l 210 0 l 210 0 l 0 30 l 0 30 l 150 0 l 150 0 l 0 30 l 0 30 l 90 0 l 90 0 l 0 30 l 0 30 l 60 0 l 60 0 l 0 30 l 0 30 l 150 0 l 150 0 l 0 30 l 0 30 l 180 0 l 180 0 l 0 30 l 0 30 l 120 0 l 120 0 l 0 30 l 0 30 l 60 0 l 60 0 l 0 30 l 0 30 l 60 0 l 60 0 l 0 30 l 0 30 l 120 0 l 120 0 l 0 30 l 0 30 l 150 0 l 150 0 l 0 30 l 0 30 l 120 0 l 120 0 l 0 30 l 0 30 l 60 0 l 60 0 l 0 30 c 0 27 3 30 30 30 c 27 0 30 3 30 30 l 0 30 l 120 0 l 120 0 l 0 30 l 0 30 l 120 0 l 120 0 l 0 30 l 0 30 l 90 0 l 90 0 l 0 30 c 0 27 3 30 30 30 c 27 0 30 3 30 30 l 0 30 l 60 0 l 60 0 l 0 30 l 0 30 l 90 0 l 90 0 l 0 30 l 0 30 l 120 0 l 120 0 l 0 30 l 0 30 l 60 0 l 60 0 l 0 30 l 0 30 l 60 0 l 60 0 l 0 30 c 0 27 3 30 30 30 c 27 0 30 3 30 30 l 0 30 l 90 0 l 90 0 l 0 30 l 0 30 l 90 0 l 90 0 l 0 30 l 0 30 l 60 0 l 60 0 l 0 30 l 0 30 l 60 0 l 60 0 l 0 30 c 0 27 3 30 30 30 c 27 0 30 3 30 30 l 0 30 l 60 0 l 60 0 l 0 30 l 0 30 l 90 0 l 90 0 l 0 30 l 0 30 l 60 0 l 60 0 l 0 30 l 0 30 l 60 0 l 60 0 l 0 30 c 0 27 3 30 30 30 c 27 0 30 3 30 30 l 0 30 l 60 0 l 60 0 l 0 30 l 0 30 l 90 0 l 90 0 l 0 30 l 0 30 l 60 0 l 60 0 l 0 30 c 0 27 3 30 30 30 c 27 0 30 3 30 30 c 0 27 3 30 30 30 c 27 0 30 3 30 30 l 0 30 l 60 0 l 60 0 l 0 30 l 0 30 l 60 0 l 60 0 l 0 30 l 0 30 l 60 0 l 60 0 l 0 30 c 0 27 3 30 30 30 c 27 0 30 3 30 30 c 0 27 3 30 30 30 c 27 0 30 3 30 30 l 0 30 l 60 0 l 60 0 l 0 30 l 0 30 l 60 0 l 60 0 l 0 30 l 0 30 l 60 0 l 60 0 l 0 30 c 0 27 3 30 30 30 c 27 0 30 3 30 30 c 0 27 3 30 30 30 c 27 0 30 3 30 30 l 0 30 l 60 0 l 60 0 l 0 30 l 0 30 l 60 0 l 60 0 l 0 30 c 0 27 3 30 30 30 c 27 0 30 3 30 30 c 0 27 3 30 30 30 c 27 0 30 3 30 30 c 0 27 3 30 30 30 c 27 0 30 3 30 30 l 0 30 l 60 0 l 60 0 l 0 30 c 0 27 3 30 30 30 c 27 0 30 3 30 30 l 0 30 l 60 0 l 60 0 l 0 30 c 0 27 3 30 30 30 c 27 0 30 3 30 30 c 0 27 3 30 30 30 c 27 0 30 3 30 30 c 0 27 3 30 30 30 c 27 0 30 3 30 30 l 0 30 l 60 0 l 60 0 l 0 30 c 0 27 3 30 30 30 c 27 0 30 3 30 30 c 0 27 3 30 30 30 l 30 0 l 0 60 l 0 60 l 60 0 l 60 0 l 0 30 l 0 30 l 60 0 l 60 0 l 0 30 c 0 27 3 30 30 30 c 27 0 30 3 30 30 c 0 27 3 30 30 30 l 30 0 l 0 60 l 0 60 l 60 0 l 60 0 l 0 30 c 0 27 3 30 30 30 c 27 0 30 3 30 30 c 0 27 3 30 30 30 c 27 0 30 3 30 30 c 0 27 3 30 30 30 l 30 0 l 0 60 l 0 60 l 60 0 l 60 0 l 0 30 l 0 30 l 60 0 l 60 0 l 0 60 l 0 60 l 30 0 l 30 0 l 0 60 l 0 60 l 60 0 l 60 0 l 0 30 c 0 27 3 30 30 30 c 27 0 30 3 30 30 c 0 27 3 30 30 30 c 27 0 30 3 30 30 c 0 27 3 30 30 30 l 30 0 l 0 60 l 0 60 l 60 0 l 60 0 l 0 30 c 0 27 3 30 30 30 c 27 0 30 3 30 30 c 0 27 3 30 30 30 l 30 0 l 0 60 l 0 60 l 30 0 c 27 0 30 3 30 30 c 0 27 3 30 30 30 c 27 0 30 3 30 30 l 0 30 l 60 0 l 60 0 l 0 60 l 0 60 l 30 0 l 30 0 l 0 60 l 0 60 l 30 0 c 27 0 30 3 30 30 c 0 27 3 30 30 30 c 27 0 30 3 30 30 l 0 30 l 60 0 l 60 0 l 0 60 l 0 60 l 30 0 l 30 0 l 0 60 l 0 60 l 30 0 c 27 0 30 3 30 30 c 0 27 3 30 30 30 c 27 0 30 3 30 30 c 0 27 3 30 30 30 c 27 0 30 3 30 30 c 0 27 3 30 30 30 l 30 0 l 0 60 l 0 60 l 30 0 l 30 0 l 0 60 l 0 60 l 30 0 l 30 0 l 0 60 l 0 60 l 60 0 l 60 0 l 0 30 c 0 27 3 30 30 30 l 30 0 l 0 60 l 0 60 l 30 0 l 30 0 l 0 60 l 0 60 l 30 0 l 30 0 l 0 60 l 0 60 l 30 0 c 27 0 30 3 30 30 c 0 27 3 30 30 30 c 27 0 30 3 30 30 c 0 27 3 30 30 30 l 30 0 l 0 60 l 0 60 l 30 0 l 30 0 l 0 60 l 0 60 l 30 0 l 30 0 l 0 60 l 0 60 l 30 0 c 27 0 30 3 30 30 c 0 27 3 30 30 30 c 27 0 30 3 30 30 c 0 27 3 30 30 30 l 30 0 l 0 60 l 0 60 l 30 0 l 30 0 l 0 60 l 0 60 l 30 0 l 30 0 l 0 90 l 0 90 l 30 0 c 27 0 30 3 30 30 c 0 27 3 30 30 30 c 27 0 30 3 30 30 c 0 27 3 30 30 30 l 30 0 l 0 60 l 0 60 l 30 0 l 30 0 l 0 90 l 0 90 l 30 0 l 30 0 l 0 120 l 0 120 l 30 0 c 27 0 30 3 30 30 c 0 27 3 30 30 30 c 27 0 30 3 30 30 c 0 27 3 30 30 30 l 30 0 l 0 90 l 0 90 l 30 0 l 30 0 l 0 150 l 0 150 l 30 0 l 30 0 l 0 150 l 0 150 l 30 0 c 27 0 30 3 30 30 c 0 27 3 30 30 30 l 30 0 l 0 60 l 0 60 l 30 0 l 30 0 l 0 150 l 0 150 l 30 0 l 30 0 l 0 210 l 0 210 l 30 0 l 30 0 l 0 180 l 0 180 l 30 0 l 30 0 l 0 90 l 0 90 l 30 0 l 30 0 l 0 120 l 0 120 l 30 0 l 30 0 l 0 210 l 0 210 l 30 0 l 30 0 l 0 360 l 0 360 l 30 0 l 30 0 l 0 300 l 0 300 l 30 0 l 30 0 l 0 120 l 0 120 l 30 0 l 30 0 l 0 180 l 0 180 l 30 0 l 30 0 l 0 240 l 0 240 l 30 0 l 30 0 l 0 300 l 0 300 l 30 0 l 30 0 l 0 210 l 0 210 l 30 0 l 30 0 l 0 60 l 0 60 l 30 0 l 30 0 l 0 90 l 0 90 l 30 0 l 30 0 l 0 180 l 0 180 l 30 0 l 30 0 l 0 240 l 0 240 l 30 0 l 30 0 l 0 180 l 0 180 l 30 0 l 30 0 l 0 90 l 0 90 l 30 0 l 30 0 l 0 90 l 0 90 l 30 0 l 30 0 l 0 180 l 0 180 l 30 0 l 30 0 l 0 270 l 0 270 l 30 0 l 30 0 l 0 270 l 0 270 l 30 0 l 30 0 l 0 90 l 0 90 l 30 0 l 30 0 l 0 150 l 0 150 l 30 0 l 30 0 l 0 270 l 0 270 l 30 0 l 30 0 l 0 1405 l 0 1405 l -30 0 l -30 0 l 0 180 l 0 180 l -30 0 l -30 0 l 0 90 l 0 90 l -30 0 l -30 0 l 0 60 l 0 60 l -30 0 l -30 0 l 0 180 l 0 180 l -30 0 l -30 0 l 0 150 l 0 150 l -30 0 l -30 0 l 0 120 l 0 120 l -30 0 l -30 0 l 0 60 l 0 60 l -30 0 c -27 0 -30 3 -30 30 c 0 27 -3 30 -30 30 l -30 0 l 0 120 l 0 120 l -30 0 l -30 0 l 0 150 l 0 150 l -30 0 l -30 0 l 0 60 l 0 60 l -30 0 l -30 0 l 0 60 l 0 60 l -30 0 c -27 0 -30 3 -30 30 c 0 27 -3 30 -30 30 l -30 0 l 0 120 l 0 120 l -30 0 l -30 0 l 0 120 l 0 120 l -30 0 l -30 0 l 0 60 l 0 60 l -30 0 l -30 0 l 0 60 l 0 60 l -30 0 c -27 0 -30 3 -30 30 c 0 27 -3 30 -30 30 l -30 0 l 0 90 l 0 90 l -30 0 l -30 0 l 0 120 l 0 120 l -30 0 l -30 0 l 0 60 l 0 60 l -30 0 l -30 0 l 0 60 l 0 60 l -30 0 c -27 0 -30 3 -30 30 c 0 27 -3 30 -30 30 l -30 0 l 0 60 l 0 60 l -30 0 l -30 0 l 0 120 l 0 120 l -30 0 l -30 0 l 0 60 l 0 60 l -30 0 l -30 0 l 0 60 l 0 60 l -30 0 c -27 0 -30 3 -30 30 c 0 27 -3 30 -30 30 l -30 0 l 0 90 l 0 90 l -30 0 l -30 0 l 0 90 l 0 90 l -30 0 l -30 0 l 0 60 l 0 60 l -30 0 l -30 0 l 0 60 l 0 60 l -60 0 l -60 0 l 0 120 l 0 120 l -30 0 l -30 0 l 0 90 l 0 90 l -30 0 l -30 0 l 0 60 l 0 60 l -30 0 l -30 0 l 0 60 l 0 60 l -30 0 c -27 0 -30 3 -30 30 c 0 27 -3 30 -30 30 l -30 0 l 0 90 l 0 90 l -30 0 l -30 0 l 0 150 l 0 150 l -30 0 l -30 0 l 0 120 l 0 120 l -30 0 l -30 0 l 0 90 l 0 90 l -30 0 c -27 0 -30 3 -30 30 c 0 27 -3 30 -30 30 l -30 0 l 0 180 l 0 180 l -30 0 l -30 0 l 0 240 l 0 240 l -30 0 l -30 0 l 0 180 l 0 180 l -30 0 l -30 0 l 0 120 l 0 120 l -30 0 l -30 0 l 0 60 l 0 60 l -30 0 l -30 0 l 0 240 l 0 240 l -30 0 l -30 0 l 0 300 l 0 300 l -30 0 l -30 0 l 0 210 l 0 210 l -30 0 l -30 0 l 0 120 l 0 120 l -30 0 l -30 0 l 0 90 l 0 90 l -30 0 l -30 0 l 0 240 l 0 240 l -30 0 l -30 0 l 0 300 l 0 300 l -30 0 l -30 0 l 0 210 l 0 210 l -30 0 l -30 0 l 0 120 l 0 120 l -30 0 l -30 0 l 0 60 l 0 60 l -30 0 l -30 0 l 0 240 l 0 240 l -30 0 l -30 0 l 0 270 l 0 270 l -30 0 l -30 0 l 0 180 l 0 180 l -30 0 l -30 0 l 0 90 l 0 90 l -30 0 l -30 0 l 0 60 l 0 60 l -30 0 l -30 0 l 0 180 l 0 180 l -30 0 l -30 0 l 0 210 l 0 210 l -30 0 l -30 0 l 0 120 l 0 120 l -30 0 l -30 0 l 0 90 l 0 90 l -30 0 l -30 0 l 0 60 l 0 60 l -30 0 l -30 0 l 0 150 l 0 150 l -30 0 l -30 0 l 0 180 l 0 180 l -30 0 l -30 0 l 0 120 l 0 120 l -30 0 l -30 0 l 0 60 l 0 60 l -30 0 l -30 0 l 0 60 l 0 60 l -30 0 l -30 0 l 0 120 l 0 120 l -30 0 l -30 0 l 0 180 l 0 180 l -30 0 l -30 0 l 0 90 l 0 90 l -30 0 l -30 0 l 0 60 l 0 60 l -30 0 l -30 0 l 0 60 l 0 60 l -30 0 l -30 0 l 0 120 l 0 120 l -30 0 l -30 0 l 0 150 l 0 150 l -30 0 l -30 0 l 0 90 l 0 90 l -30 0 l -30 0 l 0 60 l 0 60 l -30 0 c -27 0 -30 3 -30 30 c 0 27 -3 30 -30 30 l -30 0 l 0 120 l 0 120 l -30 0 l -30 0 l 0 120 l 0 120 l -30 0 l -30 0 l 0 90 l 0 90 l -30 0 l -30 0 l 0 60 l 0 60 l -30 0 c -27 0 -30 3 -30 30 c 0 27 -3 30 -30 30 l -30 0 l 0 90 l 0 90 l -30 0 l -30 0 l 0 120 l 0 120 l -30 0 l -30 0 l 0 90 l 0 90 l -30 0 l -30 0 l 0 60 l 0 60 l -30 0 c -27 0 -30 3 -30 30 c 0 27 -3 30 -30 30 l -30 0 l 0 90 l 0 90 l -30 0 l -30 0 l 0 120 l 0 120 l -30 0 l -30 0 l 0 60 l 0 60 l -30 0 l -30 0 l 0 60 l 0 60 l -30 0 c -27 0 -30 3 -30 30 c 0 27 -3 30 -30 30 l -30 0 l 0 90 l 0 90 l -30 0 l -30 0 l 0 90 l 0 90 l -30 0 l -30 0 l 0 60 l 0 60 l -30 0 l -30 0 l 0 60 l 0 60 l -30 0 c -27 0 -30 3 -30 30 c 0 27 -3 30 -30 30 l -30 0 l 0 60 l 0 60 l -30 0 l -30 0 l 0 90 l 0 90 l -30 0 l -30 0 l 0 60 l 0 60 l -30 0 c -27 0 -30 3 -30 30 c 0 27 -3 30 -30 30 c -27 0 -30 3 -30 30 c 0 27 -3 30 -30 30 l -30 0 l 0 60 l 0 60 l -30 0 l -30 0 l 0 60 l 0 60 l -30 0 c -27 0 -30 3 -30 30 c 0 27 -3 30 -30 30 c -27 0 -30 3 -30 30 c 0 27 -3 30 -30 30 c -27 0 -30 3 -30 30 c 0 27 -3 30 -30 30 c -27 0 -30 3 -30 30 c 0 27 -3 30 -30 30 l -30 0 l 0 90 l 0 90 l -30 0 c -27 0 -30 3 -30 30 c 0 27 -3 30 -30 30 c -27 0 -30 3 -30 30 l 0 30 l -60 0 l -60 0 l 0 60 l 0 60 l -30 0 c -27 0 -30 3 -30 30 c 0 27 -3 30 -30 30 c -27 0 -30 3 -30 30 c 0 27 -3 30 -30 30 c -27 0 -30 3 -30 30 l 0 30 l -60 0 l -60 0 l 0 60 l 0 60 l -30 0 c -27 0 -30 3 -30 30 c 0 27 -3 30 -30 30 c -27 0 -30 3 -30 30 l 0 30 l -60 0 l -60 0 l 0 30 c 0 27 -3 30 -30 30 c -27 0 -30 3 -30 30 c 0 27 -3 30 -30 30 c -27 0 -30 3 -30 30 c 0 27 -3 30 -30 30 c -27 0 -30 3 -30 30 c 0 27 -3 30 -30 30 c -27 0 -30 3 -30 30 l 0 30 l -60 0 l -60 0 l 0 30 c 0 27 -3 30 -30 30 c -27 0 -30 3 -30 30 c 0 27 -3 30 -30 30 c -27 0 -30 3 -30 30 c 0 27 -3 30 -30 30 c -27 0 -30 3 -30 30 l 0 30 l -60 0 l -60 0 l 0 30 l 0 30 l -60 0 l -60 0 l 0 30 l 0 30 l -90 0 l -90 0 l 0 60 l 0 60 l -30 0 c -27 0 -30 3 -30 30 l 0 30 l -60 0 l -60 0 l 0 30 l 0 30 l -90 0 l -90 0 l 0 30 l 0 30 l -90 0 l -90 0 l 0 30 c 0 27 -3 30 -30 30 c -27 0 -30 3 -30 30 c 0 27 -3 30 -30 30 c -27 0 -30 3 -30 30 l 0 30 l -60 0 l -60 0 l 0 30 l 0 30 l -90 0 l -90 0 l 0 30 l 0 30 l -90 0 l -90 0 l 0 30 c 0 27 -3 30 -30 30 c -27 0 -30 3 -30 30 c 0 27 -3 30 -30 30 c -27 0 -30 3 -30 30 l 0 30 l -90 0 l -90 0 l 0 30 l 0 30 l -90 0 l -90 0 l 0 30 l 0 30 l -90 0 l -90 0 l 0 30 c 0 27 -3 30 -30 30 l -30 0 l 0 60 l 0 60 l -30 0 c -27 0 -30 3 -30 30 c 0 27 -3 30 -30 30 c -27 0 -30 3 -30 30 c 0 27 -3 30 -30 30 c -27 0 -30 3 -30 30 c 0 27 -3 30 -30 30 l -30 0 l 0 150 l 0 150 l -30 0 l -30 0 l 0 180 l 0 180 l -30 0 l -30 0 l 0 120 l 0 120 l -30 0 c -27 0 -30 3 -30 30 c 0 27 -3 30 -30 30 c -27 0 -30 3 -30 30 c 0 27 -3 30 -30 30 l -30 0 l 0 60 l 0 60 l -30 0 l -30 0 l 0 60 l 0 60 l -30 0 l -30 0 l 0 60 l 0 60 l -30 0 c -27 0 -30 3 -30 30 c 0 27 -3 30 -30 30 c -27 0 -30 3 -30 30 c 0 27 -3 30 -30 30 c -27 0 -30 3 -30 30 c 0 27 -3 30 -30 30 c -27 0 -30 3 -30 30 c 0 27 -3 30 -30 30 c -27 0 -30 3 -30 30 c 0 27 -3 30 -30 30 c -27 0 -30 3 -30 30 c 0 27 -3 30 -30 30 c -27 0 -30 3 -30 30 c 0 27 -3 30 -30 30 c -27 0 -30 3 -30 30 c 0 27 -3 30 -30 30 c -27 0 -30 3 -30 30 l 0 30 l -60 0 l -60 0 l 0 30 l 0 30 l -90 0 l -90 0 l 0 30 l 0 30 l -60 0 l -60 0 l 0 30 c 0 27 -3 30 -30 30 c -27 0 -30 3 -30 30 l 0 30 l -60 0 l -60 0 l 0 30 l 0 30 l -120 0 l -120 0 l 0 30 l 0 30 l -715 0 l -715 0 l 0 -30 l 0 -30 l -90 0 l -90 0 l 0 -30 l 0 -30 l -60 0 l -60 0 l 0 -30 c 0 -27 -3 -30 -30 -30 c -27 0 -30 -3 -30 -30 l 0 -30 l -60 0 l -60 0 l 0 -30 l 0 -30 l -90 0 l -90 0 l 0 -30 c 0 -27 -3 -30 -30 -30 c -27 0 -30 -3 -30 -30 c 0 -27 -3 -30 -30 -30 c -27 0 -30 -3 -30 -30 c 0 -27 -3 -30 -30 -30 c -27 0 -30 -3 -30 -30 c 0 -27 -3 -30 -30 -30 c -27 0 -30 -3 -30 -30 l 0 -30 l -60 0 l -60 0 l 0 -30 c 0 -27 -3 -30 -30 -30 c -27 0 -30 -3 -30 -30 c 0 -27 -3 -30 -30 -30 l -30 0 l 0 -60 l 0 -60 l -30 0 c -27 0 -30 -3 -30 -30 l 0 -30 l -65 0 l -65 0 l 0 30 l 0 30 l -60 0 l -60 0 l 0 30 c 0 27 -3 30 -30 30 c -27 0 -30 3 -30 30 c 0 27 -3 30 -30 30 c -27 0 -30 3 -30 30 c 0 27 -3 30 -30 30 c -27 0 -30 3 -30 30 c 0 27 -3 30 -30 30 c -27 0 -30 3 -30 30 c 0 27 -3 30 -30 30 l -30 0 l 0 60 l 0 60 l -60 0 l -60 0 l 0 30 c 0 27 -3 30 -30 30 c -27 0 -30 3 -30 30 c 0 27 -3 30 -30 30 c -27 0 -30 3 -30 30 l 0 30 l -60 0 l -60 0 l 0 30 c 0 27 -3 30 -30 30 c -27 0 -30 3 -30 30 c 0 27 -3 30 -30 30 c -27 0 -30 3 -30 30 l 0 30 l -60 0 l -60 0 l 0 30 l 0 30 l -90 0 l -90 0 l 0 30 l 0 30 l -60 0 l -60 0 l 0 30 c 0 27 -3 30 -30 30 c -27 0 -30 3 -30 30 l 0 30 l -60 0 l -60 0 l 0 30 l 0 30 l -120 0 l -120 0 l 0 30 l 0 30 l -955 0 l -955 0 l 0 -30 z m 1680 -350 l 0 -30 l 120 0 l 120 0 l 0 -30 c 0 -27 3 -30 30 -30 c 27 0 30 -3 30 -30 c 0 -27 3 -30 30 -30 c 27 0 30 -3 30 -30 l 0 -30 l 60 0 l 60 0 l 0 -30 l 0 -30 l 90 0 l 90 0 l 0 -30 l 0 -30 l 60 0 l 60 0 l 0 -30 c 0 -27 3 -30 30 -30 c 27 0 30 -3 30 -30 c 0 -27 3 -30 30 -30 c 27 0 30 -3 30 -30 c 0 -27 3 -30 30 -30 c 27 0 30 -3 30 -30 l 0 -30 l 60 0 l 60 0 l 0 -30 l 0 -30 l 60 0 l 60 0 l 0 -30 c 0 -27 3 -30 30 -30 l 30 0 l 0 -60 l 0 -60 l 30 0 c 27 0 30 -3 30 -30 c 0 -27 3 -30 30 -30 c 27 0 30 -3 30 -30 l 0 -30 l 60 0 l 60 0 l 0 -30 c 0 -27 3 -30 30 -30 l 30 0 l 0 -60 l 0 -60 l 30 0 l 30 0 l 0 -60 l 0 -60 l 30 0 c 27 0 30 -3 30 -30 c 0 -27 3 -30 30 -30 c 27 0 30 -3 30 -30 c 0 -27 3 -30 30 -30 l 30 0 l 0 -60 l 0 -60 l 30 0 l 30 0 l 0 -60 l 0 -60 l 30 0 l 30 0 l 0 -60 l 0 -60 l 30 0 l 30 0 l 0 -60 l 0 -60 l 55 0 c 54 0 55 0 55 30 c 0 27 3 30 30 30 l 30 0 l 0 60 l 0 60 l 30 0 c 27 0 30 3 30 30 c 0 27 3 30 30 30 l 30 0 l 0 60 l 0 60 l 30 0 c 27 0 30 3 30 30 c 0 27 3 30 30 30 c 27 0 30 3 30 30 c 0 27 3 30 30 30 l 30 0 l 0 60 l 0 60 l 30 0 l 30 0 l 0 60 l 0 60 l 30 0 c 27 0 30 3 30 30 c 0 27 3 30 30 30 c 27 0 30 3 30 30 c 0 27 3 30 30 30 c 27 0 30 3 30 30 c 0 27 3 30 30 30 c 27 0 30 3 30 30 c 0 27 3 30 30 30 c 27 0 30 3 30 30 c 0 27 3 30 30 30 c 27 0 30 3 30 30 c 0 27 3 30 30 30 c 27 0 30 3 30 30 c 0 27 3 30 30 30 c 27 0 30 3 30 30 l 0 30 l 60 0 l 60 0 l 0 30 l 0 30 l 60 0 l 60 0 l 0 30 l 0 30 l 60 0 l 60 0 l 0 30 c 0 27 3 30 30 30 c 27 0 30 3 30 30 c 0 27 3 30 30 30 c 27 0 30 3 30 30 l 0 30 l 150 0 l 150 0 l 0 30 l 0 30 l 395 0 l 395 0 l 0 -30 l 0 -30 l 150 0 l 150 0 l 0 -30 c 0 -27 3 -30 30 -30 l 30 0 l 0 -60 l 0 -60 l 90 0 l 90 0 l 0 -30 l 0 -30 l 60 0 l 60 0 l 0 -30 l 0 -30 l 90 0 l 90 0 l 0 -30 c 0 -27 3 -30 30 -30 l 30 0 l 0 -60 l 0 -60 l 30 0 c 27 0 30 -3 30 -30 c 0 -27 3 -30 30 -30 c 27 0 30 -3 30 -30 l 0 -30 l 60 0 l 60 0 l 0 -30 c 0 -27 3 -30 30 -30 l 30 0 l 0 -60 l 0 -60 l 30 0 l 30 0 l 0 -60 l 0 -60 l 30 0 l 30 0 l 0 -60 l 0 -60 l 60 0 l 60 0 l 0 -30 c 0 -27 3 -30 30 -30 l 30 0 l 0 -90 l 0 -90 l 30 0 l 30 0 l 0 -300 l 0 -300 l 30 0 l 30 0 l 0 -155 l 0 -155 l -30 0 l -30 0 l 0 -270 l 0 -270 l -30 0 l -30 0 l 0 -150 l 0 -150 l -30 0 l -30 0 l 0 -60 l 0 -60 l -30 0 c -27 0 -30 -3 -30 -30 c 0 -27 -3 -30 -30 -30 l -30 0 l 0 -60 l 0 -60 l -30 0 l -30 0 l 0 -60 l 0 -60 l -30 0 l -30 0 l 0 -60 l 0 -60 l -30 0 c -27 0 -30 -3 -30 -30 l 0 -30 l -60 0 l -60 0 l 0 -60 l 0 -60 l -30 0 c -27 0 -30 -3 -30 -30 c 0 -27 -3 -30 -30 -30 c -27 0 -30 -3 -30 -30 c 0 -27 -3 -30 -30 -30 c -27 0 -30 -3 -30 -30 l 0 -30 l -60 0 l -60 0 l 0 -30 l 0 -30 l -60 0 l -60 0 l 0 -30 c 0 -27 -3 -30 -30 -30 c -27 0 -30 -3 -30 -30 c 0 -27 -3 -30 -30 -30 c -27 0 -30 -3 -30 -30 l 0 -30 l -90 0 l -90 0 l 0 -30 l 0 -30 l -150 0 l -150 0 l 0 -30 l 0 -30 l -365 0 l -365 0 l 0 30 l 0 30 l -120 0 l -120 0 l 0 30 l 0 30 l -90 0 l -90 0 l 0 30 l 0 30 l -60 0 l -60 0 l 0 30 l 0 30 l -60 0 l -60 0 l 0 30 c 0 27 -3 30 -30 30 c -27 0 -30 3 -30 30 l 0 30 l -60 0 l -60 0 l 0 30 l 0 30 l -60 0 l -60 0 l 0 30 c 0 27 -3 30 -30 30 c -27 0 -30 3 -30 30 c 0 27 -3 30 -30 30 c -27 0 -30 3 -30 30 c 0 27 -3 30 -30 30 c -27 0 -30 3 -30 30 c 0 27 -3 30 -30 30 c -27 0 -30 3 -30 30 c 0 27 -3 30 -30 30 c -27 0 -30 3 -30 30 c 0 27 -3 30 -30 30 c -27 0 -30 3 -30 30 c 0 27 -3 30 -30 30 l -30 0 l 0 150 l 0 150 l -30 0 l -30 0 l 0 630 l 0 630 l -55 0 l -55 0 l 0 -690 l 0 -690 l -30 0 l -30 0 l 0 -150 l 0 -150 l -30 0 l -30 0 l 0 -120 l 0 -120 l -30 0 l -30 0 l 0 -60 l 0 -60 l -30 0 l -30 0 l 0 -60 l 0 -60 l -30 0 l -30 0 l 0 -60 l 0 -60 l -30 0 l -30 0 l 0 -60 l 0 -60 l -30 0 l -30 0 l 0 -90 l 0 -90 l -30 0 c -27 0 -30 -3 -30 -30 c 0 -27 -3 -30 -30 -30 c -27 0 -30 -3 -30 -30 c 0 -27 -3 -30 -30 -30 l -30 0 l 0 -60 l 0 -60 l -30 0 c -27 0 -30 -3 -30 -30 c 0 -27 -3 -30 -30 -30 l -30 0 l 0 -60 l 0 -60 l -30 0 c -27 0 -30 -3 -30 -30 c 0 -27 -3 -30 -30 -30 c -27 0 -30 -3 -30 -30 c 0 -27 -3 -30 -30 -30 c -27 0 -30 -3 -30 -30 c 0 -27 -3 -30 -30 -30 c -27 0 -30 -3 -30 -30 c 0 -27 -3 -30 -30 -30 l -30 0 l 0 -60 l 0 -60 l -30 0 c -27 0 -30 -3 -30 -30 c 0 -27 -3 -30 -30 -30 c -27 0 -30 -3 -30 -30 l 0 -30 l -60 0 l -60 0 l 0 -30 c 0 -27 -3 -30 -30 -30 c -27 0 -30 -3 -30 -30 c 0 -27 -3 -30 -30 -30 c -27 0 -30 -3 -30 -30 c 0 -27 -3 -30 -30 -30 c -27 0 -30 -3 -30 -30 l 0 -30 l -60 0 l -60 0 l 0 -30 l 0 -30 l -60 0 l -60 0 l 0 -30 l 0 -30 l -60 0 l -60 0 l 0 -30 l 0 -30 l -60 0 l -60 0 l 0 -30 c 0 -27 -3 -30 -30 -30 c -27 0 -30 -3 -30 -30 l 0 -30 l -60 0 l -60 0 l 0 -30 l 0 -30 l -120 0 l -120 0 l 0 -30 l 0 -30 l -300 0 l -300 0 l -2 -32 l -1 -33 l -4 33 l -4 32 l -300 0 l -299 0 l 0 30 l 0 30 l -120 0 l -120 0 l 0 30 l 0 30 l -90 0 l -90 0 l 0 30 c 0 27 -3 30 -30 30 c -27 0 -30 3 -30 30 l 0 30 l -60 0 l -60 0 l 0 30 l 0 30 l -60 0 l -60 0 l 0 30 l 0 30 l -60 0 l -60 0 l 0 30 c 0 27 -3 30 -30 30 c -27 0 -30 3 -30 30 c 0 27 -3 30 -30 30 c -27 0 -30 3 -30 30 c 0 27 -3 30 -30 30 c -27 0 -30 3 -30 30 c 0 27 -3 30 -30 30 c -27 0 -30 3 -30 30 l 0 30 l -60 0 l -60 0 l 0 30 c 0 27 -3 30 -30 30 c -27 0 -30 3 -30 30 c 0 27 -3 30 -30 30 l -30 0 l 0 60 l 0 60 l -30 0 c -27 0 -30 3 -30 30 c 0 27 -3 30 -30 30 c -27 0 -30 3 -30 30 c 0 27 -3 30 -30 30 c -27 0 -30 3 -30 30 c 0 27 -3 30 -30 30 c -27 0 -30 3 -30 30 c 0 27 -3 30 -30 30 l -30 0 l 0 60 l 0 60 l -30 0 c -27 0 -30 3 -30 30 c 0 27 -3 30 -30 30 l -30 0 l 0 60 l 0 60 l -30 0 c -27 0 -30 3 -30 30 c 0 27 -3 30 -30 30 l -30 0 l 0 60 l 0 60 l -30 0 l -30 0 l 0 60 l 0 60 l -30 0 l -30 0 l 0 90 l 0 90 l -30 0 l -30 0 l 0 60 l 0 60 l -30 0 l -30 0 l 0 60 l 0 60 l -30 0 l -30 0 l 0 120 l 0 120 l -30 0 l -30 0 l 0 330 l 0 330 l -30 0 l -30 0 l 0 95 l 0 95 l 30 0 l 30 0 l 0 330 l 0 330 l 30 0 l 30 0 l 0 90 l 0 90 l 30 0 l 30 0 l 0 60 l 0 60 l 30 0 l 30 0 l 0 90 l 0 90 l 30 0 l 30 0 l 0 90 l 0 90 l 30 0 l 30 0 l 0 60 l 0 60 l 30 0 l 30 0 l 0 60 l 0 60 l 30 0 c 27 0 30 3 30 30 c 0 27 3 30 30 30 l 30 0 l 0 60 l 0 60 l 30 0 l 30 0 l 0 60 l 0 60 l 30 0 c 27 0 30 3 30 30 c 0 27 3 30 30 30 c 27 0 30 3 30 30 c 0 27 3 30 30 30 c 27 0 30 3 30 30 c 0 27 3 30 30 30 l 30 0 l 0 60 l 0 60 l 30 0 c 27 0 30 3 30 30 c 0 27 3 30 30 30 c 27 0 30 3 30 30 c 0 27 3 30 30 30 c 27 0 30 3 30 30 c 0 27 3 30 30 30 c 27 0 30 3 30 30 c 0 27 3 30 30 30 c 27 0 30 3 30 30 l 0 30 l 60 0 l 60 0 l 0 30 c 0 27 3 30 30 30 c 27 0 30 3 30 30 l 0 30 l 60 0 l 60 0 l 0 30 c 0 27 3 30 30 30 c 27 0 30 3 30 30 c 0 27 3 30 30 30 c 27 0 30 3 30 30 l 0 30 l 90 0 l 90 0 l 0 30 l 0 30 l 60 0 l 60 0 l 0 30 l 0 30 l 60 0 l 60 0 l 0 30 l 0 30 l 60 0 l 60 0 l 0 30 l 0 30 l 60 0 l 60 0 l 0 30 l 0 30 l 150 0 l 150 0 l 0 30 l 0 30 l 515 0 l 515 0 l 0 -30 z"/>
</g>
<g transform="translate(0,6000) scale(0.1,-0.1)"
fill="#b67b46" stroke="none">
<path d="M 18208 52330 l -22 -30 l -158 0 l -157 0 l -23 -30 c -22 -30 -22 -30 -120 -30 c -97 0 -98 0 -120 -30 c -17 -24 -29 -30 -60 -30 c -30 0 -42 -6 -60 -30 c -22 -30 -22 -30 -120 -30 c -97 0 -98 0 -120 -30 c -20 -28 -26 -30 -90 -30 c -63 0 -69 -2 -90 -30 c -22 -30 -22 -30 -120 -30 c -97 0 -98 0 -120 -30 c -17 -23 -29 -30 -57 -30 c -30 0 -44 -9 -93 -60 c -48 -51 -62 -60 -92 -60 c -28 0 -40 -7 -58 -30 c -17 -24 -29 -30 -60 -30 c -30 0 -42 -6 -60 -30 c -20 -28 -26 -30 -87 -30 l -65 0 l -88 -90 c -75 -77 -92 -90 -120 -90 c -27 0 -43 -11 -90 -60 c -46 -49 -62 -60 -89 -60 c -28 0 -48 -16 -151 -120 c -101 -103 -123 -120 -150 -120 c -27 0 -48 -17 -150 -120 c -102 -103 -122 -120 -150 -120 c -27 0 -45 -14 -120 -90 c -74 -76 -93 -90 -119 -90 c -28 0 -49 -17 -151 -120 c -101 -103 -123 -120 -149 -120 c -28 0 -52 -20 -181 -150 c -128 -130 -153 -150 -180 -150 c -27 0 -48 -17 -150 -120 c -101 -103 -123 -120 -150 -120 c -27 0 -48 -17 -150 -120 c -102 -104 -122 -120 -150 -120 c -27 0 -43 -11 -90 -60 c -46 -49 -62 -60 -89 -60 c -28 0 -46 -13 -121 -90 c -75 -77 -92 -90 -120 -90 c -27 0 -43 -11 -90 -60 c -46 -49 -62 -60 -89 -60 c -28 0 -48 -16 -151 -120 c -102 -104 -122 -120 -150 -120 c -27 0 -43 -11 -90 -60 c -46 -49 -63 -60 -89 -60 c -28 0 -50 -19 -181 -150 c -132 -133 -152 -150 -182 -150 c -41 0 -66 -26 -66 -68 c 0 -25 -13 -44 -70 -102 c -57 -56 -77 -70 -102 -70 c -25 0 -45 -14 -109 -79 c -65 -64 -79 -84 -79 -109 c 0 -27 -27 -58 -210 -240 c -184 -183 -210 -213 -210 -241 c 0 -26 -18 -48 -120 -149 c -108 -107 -120 -122 -120 -154 c 0 -27 -7 -39 -30 -56 c -23 -18 -30 -30 -30 -58 c 0 -30 -11 -45 -90 -122 c -79 -78 -90 -92 -90 -123 c 0 -28 -7 -40 -30 -57 c -23 -18 -30 -30 -30 -58 c 0 -30 -9 -44 -60 -92 c -50 -48 -60 -63 -60 -90 c 0 -28 -10 -43 -60 -90 c -51 -49 -60 -63 -60 -93 c 0 -28 -7 -40 -30 -57 c -28 -21 -30 -27 -30 -90 c 0 -64 -2 -70 -30 -90 c -23 -18 -30 -30 -30 -58 c 0 -30 -9 -44 -60 -92 c -51 -49 -60 -63 -60 -93 c 0 -28 -7 -40 -30 -57 c -28 -21 -30 -27 -30 -90 c 0 -64 -2 -70 -30 -90 c -28 -21 -30 -27 -30 -90 c 0 -64 -2 -70 -30 -90 c -24 -18 -30 -30 -30 -60 c 0 -31 -6 -43 -30 -60 c -24 -18 -30 -30 -30 -60 c 0 -31 -6 -43 -30 -60 c -24 -18 -30 -30 -30 -60 c 0 -31 -6 -43 -30 -60 c -30 -22 -30 -23 -30 -120 c 0 -98 0 -98 -30 -120 c -28 -21 -30 -27 -30 -90 c 0 -64 -2 -70 -30 -90 c -28 -21 -30 -27 -30 -90 c 0 -64 -2 -70 -30 -90 c -24 -18 -30 -30 -30 -60 c 0 -31 -6 -43 -30 -60 c -28 -21 -30 -27 -30 -90 c 0 -64 -2 -70 -30 -90 l -30 -23 l 0 -127 l 0 -128 l -30 -22 l -30 -23 l 0 -127 l 0 -128 l -30 -22 c -30 -22 -30 -23 -30 -120 c 0 -98 0 -98 -30 -120 c -28 -21 -30 -27 -30 -90 c 0 -64 -2 -70 -30 -90 c -30 -22 -30 -23 -30 -120 c 0 -98 0 -98 -30 -120 l -30 -23 l 0 -157 l 0 -158 l -30 -22 l -30 -23 l 0 -187 l 0 -188 l -30 -22 l -30 -23 l 0 -157 l 0 -158 l -30 -22 c -30 -22 -30 -23 -30 -120 c 0 -98 0 -98 -30 -120 l -30 -23 l 0 -157 l 0 -158 l -30 -22 l -30 -23 l 0 -217 l 0 -218 l -30 -22 l -30 -23 l 0 -307 l 0 -308 l -30 -22 l -30 -23 l 0 -277 l 0 -278 l -30 -22 l -30 -23 l 0 -157 l 0 -158 l -30 -22 l -30 -23 l 0 -337 l 0 -338 l -30 -22 l -30 -23 l 0 -967 l 0 -968 l -30 -22 c -28 -21 -30 -27 -30 -90 c 0 -64 -2 -70 -30 -90 c -24 -18 -30 -30 -30 -60 c 0 -31 -6 -43 -30 -60 c -23 -18 -30 -30 -30 -58 c 0 -30 -9 -44 -60 -92 l -60 -58 l 0 -65 c 0 -61 -2 -67 -30 -87 c -28 -21 -30 -27 -30 -90 c 0 -64 -2 -70 -30 -90 c -23 -18 -30 -30 -30 -58 c 0 -30 -9 -44 -60 -92 c -51 -49 -60 -63 -60 -93 c 0 -28 -7 -40 -30 -57 c -28 -21 -30 -27 -30 -90 c 0 -64 -2 -70 -30 -90 c -28 -21 -30 -27 -30 -90 c 0 -64 -2 -70 -30 -90 c -23 -18 -30 -30 -30 -58 c 0 -30 -9 -44 -60 -92 c -51 -49 -60 -63 -60 -93 c 0 -28 -7 -40 -30 -57 c -28 -21 -30 -27 -30 -90 c 0 -64 -2 -70 -30 -90 c -28 -21 -30 -27 -30 -90 c 0 -64 -2 -70 -30 -90 c -24 -18 -30 -30 -30 -60 c 0 -31 -6 -43 -30 -60 c -24 -18 -30 -30 -30 -60 c 0 -31 -6 -43 -30 -60 c -24 -18 -30 -30 -30 -60 c 0 -31 -6 -43 -30 -60 c -28 -21 -30 -27 -30 -90 c 0 -64 -2 -70 -30 -90 c -28 -21 -30 -27 -30 -90 c 0 -64 -2 -70 -30 -90 c -23 -18 -30 -30 -30 -58 c 0 -30 -9 -44 -60 -92 l -60 -58 l 0 -65 c 0 -61 -2 -67 -30 -87 c -24 -18 -30 -30 -30 -60 c 0 -31 -6 -43 -30 -60 c -30 -22 -30 -23 -30 -120 c 0 -98 0 -98 -30 -120 c -24 -18 -30 -30 -30 -60 c 0 -31 -6 -43 -30 -60 c -24 -18 -30 -30 -30 -60 c 0 -31 -6 -43 -30 -60 c -24 -18 -30 -30 -30 -60 c 0 -31 -6 -43 -30 -60 c -28 -21 -30 -27 -30 -90 c 0 -64 -2 -70 -30 -90 c -28 -21 -30 -27 -30 -90 c 0 -64 -2 -70 -30 -90 c -24 -18 -30 -30 -30 -60 c 0 -31 -6 -43 -30 -60 c -24 -18 -30 -30 -30 -60 c 0 -31 -6 -43 -30 -60 c -24 -18 -30 -30 -30 -60 c 0 -31 -6 -43 -30 -60 c -30 -22 -30 -23 -30 -120 c 0 -98 0 -98 -30 -120 c -30 -22 -30 -23 -30 -120 c 0 -98 0 -98 -30 -120 c -28 -21 -30 -27 -30 -90 c 0 -64 -2 -70 -30 -90 c -24 -18 -30 -30 -30 -60 c 0 -31 -6 -43 -30 -60 c -28 -21 -30 -27 -30 -90 c 0 -64 -2 -70 -30 -90 l -30 -23 l 0 -157 l 0 -158 l -30 -22 l -30 -23 l 0 -187 l 0 -188 l -30 -22 l -30 -23 l 0 -187 l 0 -188 l -30 -22 l -30 -23 l 0 -157 l 0 -158 l -30 -22 l -30 -23 l 0 -1244 l 0 -1244 l 30 -23 l 30 -22 l 0 -218 l 0 -217 l 30 -23 l 30 -22 l 0 -338 l 0 -337 l 30 -23 l 30 -22 l 0 -931 l 0 -931 l -30 -22 l -30 -23 l 0 -187 l 0 -188 l -30 -22 c -28 -21 -30 -27 -30 -90 c 0 -64 -2 -70 -30 -90 c -30 -22 -30 -23 -30 -120 c 0 -98 0 -98 -30 -120 l -30 -23 l 0 -157 l 0 -158 l -30 -22 l -30 -23 l 0 -187 l 0 -188 l -30 -22 l -30 -23 l 0 -127 l 0 -128 l -30 -22 c -28 -21 -30 -27 -30 -90 c 0 -64 -2 -70 -30 -90 l -30 -23 l 0 -127 l 0 -128 l -30 -22 l -30 -23 l 0 -217 l 0 -218 l -30 -22 l -30 -23 l 0 -307 l 0 -308 l -30 -22 l -30 -23 l 0 -1214 l 0 -1214 l 30 -23 l 30 -22 l 0 -308 l 0 -307 l 30 -23 l 30 -22 l 0 -218 l 0 -217 l 30 -23 c 30 -22 30 -22 30 -120 c 0 -97 0 -98 30 -120 c 28 -20 30 -26 30 -90 c 0 -63 2 -69 30 -90 c 30 -22 30 -22 30 -120 c 0 -97 0 -98 30 -120 l 30 -22 l 0 -128 l 0 -127 l 30 -23 l 30 -22 l 0 -128 l 0 -127 l 30 -23 c 28 -20 30 -26 30 -90 c 0 -63 2 -69 30 -90 c 24 -17 30 -29 30 -60 c 0 -30 6 -42 30 -60 c 28 -20 30 -26 30 -90 c 0 -63 2 -69 30 -90 c 28 -20 30 -26 30 -90 c 0 -63 2 -69 30 -90 c 28 -20 30 -26 30 -90 c 0 -63 2 -69 30 -90 c 24 -17 30 -29 30 -60 c 0 -30 6 -42 30 -60 c 24 -17 30 -29 30 -60 c 0 -30 6 -42 30 -60 c 24 -17 30 -29 30 -60 c 0 -30 6 -42 30 -60 c 28 -20 30 -26 30 -90 c 0 -63 2 -69 30 -90 c 24 -17 30 -29 30 -60 c 0 -30 6 -42 30 -60 c 23 -17 30 -29 30 -57 c 0 -30 9 -44 60 -93 c 51 -48 60 -62 60 -92 c 0 -28 7 -40 30 -58 c 23 -17 30 -29 30 -56 c 0 -32 12 -47 120 -154 c 104 -102 120 -122 120 -150 c 0 -27 11 -43 60 -90 c 49 -46 60 -63 60 -89 c 0 -28 21 -53 180 -211 c 161 -160 180 -182 180 -212 c 0 -41 26 -66 68 -66 c 25 0 44 -13 102 -70 c 56 -57 70 -77 70 -102 c 0 -25 14 -45 79 -109 c 64 -65 84 -79 109 -79 c 25 0 45 -14 102 -70 c 58 -59 70 -76 70 -104 c 0 -41 26 -66 68 -66 c 27 0 66 -35 330 -300 c 263 -264 303 -300 330 -300 c 27 0 59 -27 240 -210 c 183 -183 213 -210 241 -210 c 26 0 51 -21 179 -150 c 129 -130 153 -150 181 -150 c 26 0 48 -17 149 -120 c 102 -103 123 -120 150 -120 c 27 0 49 -17 150 -120 c 103 -104 123 -120 151 -120 c 27 0 43 -11 89 -60 c 47 -49 63 -60 90 -60 c 28 0 48 -16 150 -120 c 103 -104 123 -120 151 -120 c 27 0 43 -11 89 -60 c 47 -49 63 -60 90 -60 c 28 0 45 -13 120 -90 c 75 -77 93 -90 121 -90 c 27 0 43 -11 89 -60 c 47 -49 63 -60 90 -60 c 28 0 45 -13 120 -90 c 78 -79 92 -90 123 -90 c 28 0 40 -7 57 -30 c 18 -23 30 -30 57 -30 c 31 0 47 -13 153 -120 c 107 -108 122 -120 154 -120 c 27 0 39 -7 56 -30 c 18 -23 30 -30 58 -30 c 30 0 44 -9 92 -60 c 48 -50 63 -60 90 -60 c 28 0 43 -10 90 -60 c 49 -51 63 -60 93 -60 c 28 0 40 -7 57 -30 c 18 -24 30 -30 60 -30 c 31 0 43 -6 60 -30 c 18 -23 30 -30 58 -30 c 30 0 45 -11 122 -90 c 78 -79 92 -90 123 -90 c 28 0 40 -7 57 -30 c 18 -24 30 -30 60 -30 c 31 0 43 -6 60 -30 c 18 -23 30 -30 58 -30 c 30 0 44 -9 92 -60 c 49 -51 63 -60 93 -60 c 28 0 40 -7 57 -30 c 18 -24 30 -30 60 -30 c 31 0 43 -6 60 -30 c 18 -24 30 -30 60 -30 c 31 0 43 -6 60 -30 c 18 -23 30 -30 58 -30 c 30 0 44 -9 92 -60 c 49 -51 63 -60 93 -60 c 28 0 40 -7 57 -30 c 18 -24 30 -30 60 -30 c 31 0 43 -6 60 -30 c 21 -28 27 -30 90 -30 c 64 0 70 -2 90 -30 c 18 -23 30 -30 58 -30 c 30 0 44 -9 92 -60 c 49 -51 63 -60 93 -60 c 28 0 40 -7 57 -30 c 18 -24 30 -30 60 -30 c 31 0 43 -6 60 -30 c 21 -28 27 -30 90 -30 c 64 0 70 -2 90 -30 c 21 -28 27 -30 88 -30 l 65 0 l 57 -60 l 58 -60 l 65 0 c 61 0 67 -2 87 -30 c 21 -28 27 -30 90 -30 c 64 0 70 -2 90 -30 c 21 -28 27 -30 90 -30 c 64 0 70 -2 90 -30 c 21 -28 27 -30 90 -30 c 64 0 70 -2 90 -30 c 18 -24 30 -30 60 -30 c 31 0 43 -6 60 -30 c 21 -28 27 -30 90 -30 c 64 0 70 -2 90 -30 c 22 -30 23 -30 120 -30 c 98 0 98 0 120 -30 c 22 -30 23 -30 120 -30 c 98 0 98 0 120 -30 c 21 -28 27 -30 90 -30 c 64 0 70 -2 90 -30 c 18 -24 30 -30 60 -30 c 31 0 43 -6 60 -30 c 21 -28 27 -30 90 -30 c 64 0 70 -2 90 -30 l 23 -30 l 127 0 l 128 0 l 22 -30 l 23 -30 l 157 0 l 158 0 l 22 -30 l 23 -30 l 127 0 l 128 0 l 22 -30 c 21 -28 27 -30 90 -30 c 64 0 70 -2 90 -30 c 22 -30 23 -30 120 -30 c 98 0 98 0 120 -30 l 23 -30 l 217 0 l 218 0 l 22 -30 l 23 -30 l 337 0 l 338 0 l 22 -30 l 23 -30 l 517 0 l 518 0 l 22 -30 l 23 -30 l 224 0 l 224 0 l 23 30 l 22 30 l 548 0 l 547 0 l 23 30 l 22 30 l 368 0 l 367 0 l 23 30 l 22 30 l 218 0 l 217 0 l 23 30 l 22 30 l 128 0 l 127 0 l 23 30 c 22 30 22 30 120 30 c 97 0 98 0 120 30 l 22 30 l 128 0 l 127 0 l 23 30 l 22 30 l 188 0 l 187 0 l 23 30 l 22 30 l 128 0 l 127 0 l 23 30 c 22 30 22 30 120 30 c 97 0 98 0 120 30 c 17 24 29 30 60 30 c 30 0 42 6 60 30 c 22 30 22 30 120 30 c 97 0 98 0 120 30 l 22 30 l 128 0 l 127 0 l 23 30 l 22 30 l 128 0 l 127 0 l 23 30 c 20 28 26 30 90 30 c 63 0 69 2 90 30 c 17 24 29 30 60 30 c 30 0 42 6 60 30 c 20 28 26 30 90 30 c 63 0 69 2 90 30 l 22 30 l 128 0 l 127 0 l 23 30 c 20 28 26 30 90 30 c 63 0 69 2 90 30 c 20 28 26 30 90 30 c 63 0 69 2 90 30 c 17 24 29 30 60 30 c 30 0 42 6 60 30 c 20 28 26 30 90 30 c 63 0 69 2 90 30 c 22 30 22 30 120 30 c 97 0 98 0 120 30 c 20 28 26 30 90 30 c 63 0 69 2 90 30 c 20 28 26 30 87 30 l 65 0 l 58 60 l 57 60 l 65 0 c 61 0 67 2 88 30 c 20 28 26 30 90 30 c 63 0 69 2 90 30 c 20 28 26 30 90 30 c 63 0 69 2 90 30 c 17 24 29 30 60 30 c 30 0 42 6 60 30 c 17 24 29 30 60 30 c 30 0 42 6 60 30 c 17 24 29 30 60 30 c 30 0 42 6 60 30 c 20 28 26 30 90 30 c 63 0 69 2 90 30 c 20 28 26 30 90 30 c 63 0 69 2 90 30 c 17 23 29 30 57 30 c 30 0 44 9 93 60 c 48 51 62 60 92 60 c 28 0 40 7 58 30 c 20 28 26 30 90 30 c 63 0 69 2 90 30 c 17 24 29 30 60 30 c 30 0 42 6 60 30 c 17 23 29 30 57 30 c 30 0 44 9 93 60 c 48 51 62 60 92 60 c 28 0 40 7 58 30 c 17 24 29 30 60 30 c 30 0 42 6 60 30 c 20 28 26 30 87 30 l 65 0 l 88 90 c 77 79 92 90 122 90 c 28 0 40 7 58 30 c 17 24 29 30 60 30 c 30 0 42 6 60 30 c 17 24 29 30 60 30 c 30 0 42 6 60 30 c 17 23 29 30 57 30 c 31 0 45 11 123 90 c 77 79 92 90 122 90 c 28 0 40 7 58 30 c 17 23 29 30 57 30 c 30 0 44 9 93 60 c 47 50 62 60 90 60 c 27 0 42 10 90 60 c 48 51 62 60 92 60 c 28 0 40 7 58 30 c 17 23 29 30 56 30 c 32 0 47 12 154 120 c 106 107 122 120 153 120 c 27 0 39 7 57 30 c 17 23 29 30 56 30 c 32 0 47 12 154 120 c 101 103 123 120 149 120 c 28 0 52 20 181 150 c 128 129 153 150 180 150 c 27 0 54 23 210 180 c 154 155 183 180 209 180 c 27 0 95 64 590 559 c 497 498 559 563 559 590 c 0 45 68 111 113 111 c 42 0 67 26 67 69 c 0 27 14 45 90 119 c 76 75 90 93 90 120 c 0 28 17 48 120 150 c 103 102 120 123 120 150 c 0 27 17 49 120 150 c 108 107 120 122 120 154 c 0 27 7 39 30 56 c 23 18 30 30 30 58 c 0 30 11 45 90 122 c 77 75 90 93 90 121 c 0 27 11 43 60 89 c 51 49 60 63 60 93 c 0 28 7 40 30 57 c 23 18 30 30 30 58 c 0 30 9 44 60 92 c 51 49 60 63 60 93 c 0 28 7 40 30 57 c 24 18 30 30 30 60 c 0 31 6 43 30 60 c 24 18 30 30 30 60 c 0 31 6 43 30 60 c 23 18 30 30 30 58 c 0 30 9 44 60 92 c 51 49 60 63 60 93 c 0 28 7 40 30 57 c 28 21 30 27 30 90 c 0 64 2 70 30 90 c 28 21 30 27 30 90 c 0 64 2 70 30 90 c 24 18 30 30 30 60 c 0 31 6 43 30 60 c 24 18 30 30 30 60 c 0 31 6 43 30 60 c 24 18 30 30 30 60 c 0 31 6 43 30 60 c 30 22 30 23 30 120 c 0 98 0 98 30 120 c 30 22 30 23 30 120 c 0 98 0 98 30 120 c 30 22 30 23 30 120 c 0 98 0 98 30 120 c 24 18 30 30 30 60 c 0 31 6 43 30 60 c 30 22 30 23 30 120 c 0 98 0 98 30 120 l 30 23 l 0 157 l 0 158 l 30 22 l 30 23 l 0 217 l 0 218 l 30 22 l 30 23 l 0 187 l 0 188 l 30 22 l 30 23 l 0 127 l 0 128 l 30 22 l 30 23 l 0 187 l 0 188 l 30 22 l 30 23 l 0 307 l 0 308 l 30 22 l 30 23 l 0 337 l 0 338 l 30 22 l 30 23 l 0 217 l 0 218 l 30 22 l 30 23 l 0 127 l 0 128 l 30 22 l 30 23 l 0 157 l 0 158 l 30 22 l 30 23 l 0 217 l 0 218 l 30 22 l 30 23 l 0 247 l 0 248 l 30 22 l 30 23 l 0 157 l 0 158 l 30 22 c 28 21 30 27 30 90 c 0 64 2 70 30 90 l 30 23 l 0 127 l 0 128 l 30 22 l 30 23 l 0 157 l 0 158 l 30 22 l 30 23 l 0 187 l 0 188 l 30 22 l 30 23 l 0 157 l 0 158 l 30 22 c 28 21 30 27 30 90 c 0 64 2 70 30 90 l 30 23 l 0 127 l 0 128 l 30 22 l 30 23 l 0 187 l 0 188 l 30 22 l 30 23 l 0 217 l 0 218 l 30 22 l 30 23 l 0 157 l 0 158 l 30 22 c 30 22 30 23 30 120 c 0 98 0 98 30 120 l 30 23 l 0 217 l 0 218 l 30 22 l 30 23 l 0 464 l 0 464 l -30 23 l -30 22 l 0 218 l 0 217 l -30 23 c -28 20 -30 26 -30 90 c 0 63 -2 69 -30 90 l -30 22 l 0 128 l 0 127 l -30 23 l -30 22 l 0 128 l 0 127 l -30 23 c -28 20 -30 26 -30 90 c 0 63 -2 69 -30 90 c -28 20 -30 26 -30 90 c 0 63 -2 69 -30 90 c -24 17 -30 29 -30 60 c 0 30 -6 42 -30 60 c -28 20 -30 26 -30 90 c 0 63 -2 69 -30 90 c -30 22 -30 22 -30 120 c 0 97 0 98 -30 120 c -28 20 -30 26 -30 90 c 0 63 -2 69 -30 90 c -24 17 -30 29 -30 60 c 0 30 -6 42 -30 60 c -24 17 -30 29 -30 60 c 0 30 -6 42 -30 60 c -24 17 -30 29 -30 60 c 0 30 -6 42 -30 60 c -30 22 -30 22 -30 120 c 0 97 0 98 -30 120 c -28 20 -30 26 -30 90 c 0 63 -2 69 -30 90 c -24 17 -30 29 -30 60 c 0 30 -6 42 -30 60 c -24 17 -30 29 -30 60 c 0 30 -6 42 -30 60 c -24 17 -30 29 -30 60 c 0 30 -6 42 -30 60 c -28 20 -30 26 -30 90 c 0 63 -2 69 -30 90 c -28 20 -30 26 -30 90 c 0 63 -2 69 -30 90 c -24 17 -30 29 -30 60 c 0 30 -6 42 -30 60 c -24 17 -30 29 -30 60 c 0 30 -6 42 -30 60 c -24 17 -30 29 -30 60 c 0 30 -6 42 -30 60 c -30 22 -30 22 -30 120 c 0 97 0 98 -30 120 c -28 20 -30 26 -30 90 c 0 63 -2 69 -30 90 c -23 17 -30 29 -30 57 c 0 30 -9 44 -60 93 l -60 57 l 0 65 c 0 61 -2 67 -30 88 c -28 20 -30 26 -30 90 c 0 63 -2 69 -30 90 c -28 20 -30 26 -30 90 c 0 63 -2 69 -30 90 c -24 17 -30 29 -30 60 c 0 30 -6 42 -30 60 c -24 17 -30 29 -30 60 c 0 30 -6 42 -30 60 c -28 20 -30 26 -30 90 c 0 63 -2 69 -30 90 c -28 20 -30 26 -30 90 c 0 63 -2 69 -30 90 c -28 20 -30 26 -30 90 c 0 63 -2 69 -30 90 c -24 17 -30 29 -30 60 c 0 30 -6 42 -30 60 c -24 17 -30 29 -30 60 c 0 30 -6 42 -30 60 c -24 17 -30 29 -30 60 c 0 30 -6 42 -30 60 c -30 22 -30 22 -30 120 c 0 97 0 98 -30 120 c -28 20 -30 26 -30 90 c 0 63 -2 69 -30 90 c -28 20 -30 26 -30 90 c 0 63 -2 69 -30 90 c -24 17 -30 29 -30 60 c 0 30 -6 42 -30 60 c -28 20 -30 26 -30 90 c 0 63 -2 69 -30 90 l -30 22 l 0 158 l 0 157 l -30 23 l -30 22 l 0 158 l 0 157 l -30 23 l -30 22 l 0 128 l 0 127 l -30 23 c -30 22 -30 22 -30 120 c 0 97 0 98 -30 120 l -30 22 l 0 128 l 0 127 l -30 23 l -30 22 l 0 248 l 0 247 l -30 23 l -30 22 l 0 218 l 0 217 l -30 23 l -30 22 l 0 158 l 0 157 l -30 23 l -30 22 l 0 128 l 0 127 l -30 23 l -30 22 l 0 158 l 0 157 l -30 23 l -30 22 l 0 218 l 0 217 l -30 23 l -30 22 l 0 188 l 0 187 l -30 23 l -30 22 l 0 128 l 0 127 l -30 23 c -28 20 -30 26 -30 90 c 0 63 -2 69 -30 90 l -30 22 l 0 128 l 0 127 l -30 23 l -30 22 l 0 188 l 0 187 l -30 23 l -30 22 l 0 128 l 0 127 l -30 23 c -30 22 -30 22 -30 120 c 0 97 0 98 -30 120 c -28 20 -30 26 -30 90 c 0 63 -2 69 -30 90 l -30 22 l 0 128 l 0 127 l -30 23 l -30 22 l 0 158 l 0 157 l -30 23 l -30 22 l 0 128 l 0 127 l -30 23 c -30 22 -30 22 -30 120 c 0 97 0 98 -30 120 c -28 20 -30 26 -30 90 c 0 63 -2 69 -30 90 c -30 22 -30 22 -30 120 c 0 97 0 98 -30 120 l -30 22 l 0 128 l 0 127 l -30 23 l -30 22 l 0 128 l 0 127 l -30 23 c -30 22 -30 22 -30 120 c 0 97 0 98 -30 120 c -24 17 -30 29 -30 60 c 0 30 -6 42 -30 60 c -30 22 -30 22 -30 120 c 0 97 0 98 -30 120 l -30 22 l 0 128 l 0 127 l -30 23 l -30 22 l 0 128 l 0 127 l -30 23 c -28 20 -30 26 -30 90 c 0 63 -2 69 -30 90 c -24 17 -30 29 -30 60 c 0 30 -6 42 -30 60 c -30 22 -30 22 -30 120 c 0 97 0 98 -30 120 l -30 22 l 0 128 l 0 127 l -30 23 l -30 22 l 0 128 l 0 127 l -30 23 c -28 20 -30 26 -30 90 c 0 63 -2 69 -30 90 c -24 17 -30 29 -30 60 c 0 30 -6 42 -30 60 c -30 22 -30 22 -30 120 c 0 97 0 98 -30 120 c -30 22 -30 22 -30 120 c 0 97 0 98 -30 120 c -30 22 -30 22 -30 120 c 0 97 0 98 -30 120 c -28 20 -30 26 -30 90 c 0 63 -2 69 -30 90 c -24 17 -30 29 -30 60 c 0 30 -6 42 -30 60 c -28 20 -30 26 -30 90 c 0 63 -2 69 -30 90 c -28 20 -30 26 -30 90 c 0 63 -2 69 -30 90 c -30 22 -30 22 -30 120 c 0 97 0 98 -30 120 c -24 17 -30 29 -30 60 c 0 30 -6 42 -30 60 c -24 17 -30 29 -30 60 c 0 30 -6 42 -30 60 c -24 17 -30 29 -30 60 c 0 30 -6 42 -30 60 c -28 20 -30 26 -30 90 c 0 63 -2 69 -30 90 c -28 20 -30 26 -30 90 c 0 63 -2 69 -30 90 c -24 17 -30 29 -30 60 c 0 30 -6 42 -30 60 c -24 17 -30 29 -30 60 c 0 30 -6 42 -30 60 c -24 17 -30 29 -30 60 c 0 30 -6 42 -30 60 c -28 20 -30 26 -30 90 c 0 63 -2 69 -30 90 c -24 17 -30 29 -30 60 c 0 30 -6 42 -30 60 c -23 17 -30 29 -30 57 c 0 30 -9 44 -60 93 c -51 48 -60 62 -60 92 c 0 28 -7 40 -30 58 c -28 20 -30 26 -30 90 c 0 63 -2 69 -30 90 c -23 17 -30 29 -30 57 c 0 31 -11 45 -90 123 c -79 77 -90 92 -90 122 c 0 28 -7 40 -30 58 c -23 17 -30 29 -30 57 c 0 30 -9 44 -60 93 c -49 46 -60 63 -60 88 c 0 28 -35 67 -319 351 c -284 284 -323 319 -351 319 c -25 0 -42 11 -88 60 c -47 49 -63 60 -90 60 c -28 0 -48 16 -150 120 c -107 108 -122 120 -154 120 c -27 0 -39 7 -56 30 c -18 24 -30 30 -60 30 c -31 0 -43 6 -60 30 c -18 23 -30 30 -58 30 c -30 0 -45 11 -122 90 c -78 79 -92 90 -123 90 c -28 0 -40 7 -57 30 c -21 28 -27 30 -88 30 l -65 0 l -57 60 c -48 50 -63 60 -90 60 c -28 0 -43 10 -90 60 l -58 60 l -65 0 c -61 0 -67 2 -87 30 c -18 24 -30 30 -60 30 c -31 0 -43 6 -60 30 c -18 24 -30 30 -60 30 c -31 0 -43 6 -60 30 c -18 23 -30 30 -58 30 c -30 0 -44 9 -92 60 l -58 60 l -65 0 c -61 0 -67 2 -87 30 c -23 30 -23 30 -124 30 l -100 0 l -79 -79 c -68 -68 -79 -83 -79 -113 c 0 -26 -7 -39 -30 -56 c -23 -18 -30 -30 -30 -58 c 0 -30 -9 -44 -60 -92 c -51 -49 -60 -63 -60 -93 c 0 -28 -7 -40 -30 -57 c -30 -22 -30 -24 -30 -117 l 0 -95 l -150 -148 c -130 -129 -150 -153 -150 -181 c 0 -46 -67 -111 -115 -111 c -27 0 -39 -7 -57 -30 c -17 -24 -29 -30 -58 -30 c -46 0 -68 -22 -72 -75 c -3 -39 -4 -40 -43 -43 c -34 -3 -48 -12 -97 -63 l -57 -59 l -65 0 c -61 0 -67 -2 -88 -30 c -22 -30 -23 -30 -117 -30 l -95 0 l -58 -60 c -48 -51 -62 -60 -92 -60 c -28 0 -40 -7 -58 -30 c -22 -30 -22 -30 -120 -30 c -97 0 -98 0 -120 -30 l -22 -30 l -361 0 l -361 0 l -22 30 l -23 30 l -127 0 l -128 0 l -22 30 c -18 24 -30 30 -60 30 c -31 0 -43 6 -60 30 c -18 24 -30 30 -60 30 c -31 0 -43 6 -60 30 c -21 28 -27 30 -90 30 c -64 0 -70 2 -90 30 c -21 28 -27 30 -88 30 l -64 0 l -88 90 c -49 50 -94 90 -100 90 c -6 0 -21 -13 -34 -30 c -17 -24 -29 -30 -60 -30 c -30 0 -42 -6 -60 -30 c -17 -23 -30 -30 -57 -30 c -30 0 -45 -9 -83 -49 c -39 -39 -48 -55 -48 -83 c 0 -26 -7 -39 -30 -56 c -28 -21 -30 -27 -30 -90 c 0 -64 -2 -70 -30 -90 c -24 -18 -30 -30 -30 -60 c 0 -31 -6 -43 -30 -60 c -23 -18 -30 -30 -30 -58 c 0 -30 -11 -45 -90 -122 c -79 -78 -90 -92 -90 -123 c 0 -28 -7 -40 -30 -57 c -23 -18 -30 -30 -30 -57 c 0 -31 -20 -53 -221 -254 c -197 -198 -224 -221 -253 -221 c -42 0 -64 -24 -68 -75 c -3 -39 -4 -40 -43 -43 c -34 -3 -48 -12 -97 -63 c -46 -48 -63 -59 -89 -59 c -28 0 -46 -13 -121 -90 c -77 -79 -92 -90 -122 -90 c -28 0 -40 -7 -58 -30 c -17 -24 -29 -30 -60 -30 c -30 0 -42 -6 -60 -30 c -20 -28 -26 -30 -90 -30 c -63 0 -69 -2 -90 -30 c -17 -24 -29 -30 -60 -30 c -30 0 -42 -6 -60 -30 c -17 -24 -29 -30 -60 -30 c -30 0 -42 -6 -60 -30 c -20 -28 -26 -30 -90 -30 c -63 0 -69 -2 -90 -30 l -22 -30 l -158 0 l -157 0 l -23 -30 l -22 -30 l -481 0 l -481 0 l -22 30 l -23 30 l -157 0 l -158 0 l -22 30 c -21 28 -27 30 -90 30 c -64 0 -70 2 -90 30 c -18 24 -30 30 -60 30 c -31 0 -43 6 -60 30 c -18 24 -30 30 -60 30 c -31 0 -43 6 -60 30 c -21 28 -27 30 -90 30 c -64 0 -70 2 -90 30 c -18 24 -30 30 -60 30 c -31 0 -43 6 -60 30 c -18 23 -30 30 -58 30 c -30 0 -45 11 -122 90 c -78 79 -92 90 -123 90 c -28 0 -40 7 -57 30 c -18 23 -30 30 -57 30 c -31 0 -49 14 -183 150 c -129 130 -153 150 -181 150 c -44 0 -111 67 -111 112 c 0 27 -17 48 -120 150 c -104 102 -120 122 -120 150 c 0 27 -11 43 -60 90 c -50 47 -60 62 -60 90 c 0 27 -10 42 -60 90 c -51 48 -60 62 -60 92 c 0 28 -7 40 -30 58 c -24 17 -30 29 -30 60 c 0 30 -6 42 -30 60 c -28 20 -30 26 -30 90 c 0 63 -2 69 -30 90 c -24 17 -30 29 -30 60 c 0 30 -6 42 -30 60 c -24 17 -30 29 -30 60 c 0 30 -6 42 -30 60 c -30 22 -30 22 -30 120 c 0 97 0 98 -30 120 l -30 22 l 0 188 l 0 187 l -30 23 l -30 22 l 0 574 l 0 575 l -47 48 l -48 48 l -192 1 l -192 0 l -23 -30 z"/>
</g>
<g transform="translate(0,6000) scale(0.1,-0.1)"
fill="#ffffff" stroke="none">
<path d="M 21757 55030 c -25 -29 -27 -30 -120 -30 c -93 0 -96 -1 -120 -30 c -20 -23 -34 -30 -60 -30 c -27 0 -41 -7 -60 -30 c -20 -23 -34 -30 -60 -30 c -27 0 -41 -7 -60 -30 c -20 -23 -34 -30 -60 -30 c -27 0 -41 -7 -60 -30 c -24 -28 -31 -30 -90 -30 c -60 0 -67 -2 -90 -30 c -19 -22 -34 -30 -59 -30 c -28 0 -45 -13 -121 -90 c -75 -76 -94 -90 -121 -90 c -26 0 -42 -11 -89 -60 c -47 -49 -64 -60 -90 -60 c -27 0 -48 -17 -144 -113 c -95 -95 -113 -119 -113 -144 c 0 -26 -22 -52 -150 -179 c -133 -132 -150 -153 -150 -182 c 0 -25 -8 -40 -30 -59 c -22 -18 -30 -33 -30 -58 c 0 -29 -12 -45 -90 -122 l -90 -88 l 0 -63 c 0 -58 -2 -65 -30 -89 c -28 -23 -30 -30 -30 -90 c 0 -59 -2 -66 -30 -90 c -23 -19 -30 -33 -30 -60 c 0 -26 -7 -40 -30 -60 c -28 -23 -30 -30 -30 -90 c 0 -59 -2 -66 -30 -90 c -23 -19 -30 -33 -30 -60 c 0 -26 -7 -40 -30 -60 l -30 -25 l 0 -185 l 0 -184 l -30 -26 l -30 -25 l 0 -423 l 0 -423 l 30 -25 l 30 -26 l 0 -154 l 0 -155 l 30 -25 c 28 -24 30 -31 30 -90 c 0 -60 2 -67 30 -90 c 23 -20 30 -34 30 -60 c 0 -27 7 -41 30 -60 c 28 -24 30 -31 30 -90 c 0 -60 2 -67 30 -90 c 28 -24 30 -31 30 -90 c 0 -60 2 -67 30 -90 c 22 -19 30 -34 30 -59 c 0 -28 13 -45 90 -121 c 78 -77 90 -93 90 -122 c 0 -25 8 -40 30 -58 c 22 -19 30 -34 30 -59 c 0 -29 17 -50 150 -182 c 129 -128 150 -153 150 -180 c 0 -26 15 -45 83 -113 c 68 -68 89 -83 114 -83 c 26 0 52 -22 179 -150 c 132 -133 153 -150 182 -150 c 25 0 40 -8 59 -30 c 19 -23 33 -30 60 -30 c 26 0 40 -7 60 -30 c 18 -22 33 -30 58 -30 c 29 0 44 -10 92 -60 c 48 -50 63 -60 91 -60 c 25 0 40 -8 59 -30 c 24 -29 27 -30 120 -30 c 93 0 95 -1 120 -30 l 25 -30 l 155 0 l 154 0 l 26 -30 l 25 -30 l 303 0 l 303 0 l 25 30 l 26 30 l 154 0 l 155 0 l 25 30 c 24 28 31 30 90 30 c 60 0 67 2 90 30 c 20 23 34 30 60 30 c 27 0 41 7 60 30 c 20 23 34 30 60 30 c 27 0 41 7 60 30 c 20 23 34 30 60 30 c 27 0 41 7 60 30 c 19 22 34 30 59 30 c 28 0 43 10 91 60 c 47 49 64 60 90 60 c 28 0 48 17 151 120 c 101 103 123 120 150 120 c 44 0 136 92 136 137 c 0 26 25 55 180 209 c 161 160 180 183 180 212 c 0 25 8 40 30 59 c 22 18 30 33 30 58 c 0 29 12 45 90 122 c 77 76 90 93 90 121 c 0 25 8 40 30 59 c 28 23 30 30 30 90 c 0 59 2 66 30 90 c 23 19 30 33 30 60 c 0 26 7 40 30 60 c 23 19 30 33 30 60 c 0 26 7 40 30 60 c 23 19 30 33 30 60 c 0 26 7 40 30 60 c 28 23 30 30 30 90 c 0 59 2 66 30 90 l 30 25 l 0 125 l 0 124 l 30 26 l 30 25 l 0 364 l 0 364 l 31 28 l 31 28 l -31 26 l -31 27 l 0 276 l 0 276 l 30 26 c 24 20 30 33 30 64 c 0 28 4 39 15 39 c 12 0 15 -14 15 -69 c 0 -65 2 -71 30 -94 l 30 -26 l 0 -544 l 0 -545 l 30 -25 l 30 -26 l 0 -153 l 0 -153 l 234 -232 l 233 -233 l 61 0 l 61 0 l 58 -60 c 47 -49 63 -60 90 -60 c 26 0 42 -11 90 -60 l 57 -60 l 64 0 c 58 0 65 -2 89 -30 c 24 -29 27 -30 120 -30 c 93 0 95 -1 120 -30 l 25 -30 l 423 0 l 423 0 l 25 30 c 25 29 27 30 120 30 c 93 0 96 1 120 30 c 24 28 31 30 89 30 l 63 0 l 88 90 c 77 78 93 90 122 90 c 25 0 40 8 58 30 c 19 22 34 30 59 30 c 28 0 45 13 116 83 c 73 74 82 88 82 120 c 0 36 1 37 37 37 c 31 0 45 8 90 53 c 43 42 53 58 53 85 c 0 25 8 40 30 59 c 23 19 30 33 30 60 c 0 26 7 40 30 60 c 22 18 30 33 30 58 c 0 29 10 44 60 92 c 50 48 60 63 60 91 c 0 25 8 40 30 59 c 28 23 30 30 30 90 c 0 59 2 66 30 90 l 30 25 l 0 215 l 0 214 l 30 26 l 30 25 l 0 363 l 0 363 l -30 25 l -30 26 l 0 124 l 0 125 l -30 25 c -28 24 -30 31 -30 89 l 0 63 l -90 88 c -78 77 -90 93 -90 122 c 0 25 -8 40 -30 58 c -23 20 -30 34 -30 60 c 0 27 -7 41 -30 60 c -22 19 -30 34 -30 60 c 0 42 -34 77 -77 77 c -26 0 -52 22 -179 150 c -132 133 -153 150 -182 150 c -25 0 -40 8 -59 30 c -19 23 -33 30 -60 30 c -26 0 -40 7 -60 30 c -19 23 -33 30 -60 30 c -26 0 -40 7 -60 30 c -19 23 -33 30 -60 30 c -26 0 -40 7 -60 30 c -19 23 -33 30 -60 30 c -26 0 -40 7 -60 30 c -23 28 -30 30 -90 30 c -59 0 -66 2 -90 30 l -25 30 l -423 0 l -423 0 l -25 -30 c -24 -28 -31 -30 -90 -30 c -60 0 -67 -2 -90 -30 c -19 -22 -34 -30 -59 -30 c -28 0 -43 -10 -91 -60 l -58 -60 l -62 0 l -63 0 l -57 -60 c -47 -49 -64 -60 -90 -60 c -28 0 -59 -27 -264 -234 c -205 -204 -233 -236 -233 -264 c 0 -25 -12 -42 -60 -89 c -50 -48 -60 -63 -60 -91 c 0 -25 -8 -40 -30 -59 c -22 -18 -30 -33 -30 -58 c 0 -29 -12 -45 -90 -122 c -77 -76 -90 -93 -90 -121 c 0 -25 -8 -40 -30 -59 c -24 -20 -30 -33 -30 -64 c 0 -39 0 -39 -39 -39 c -31 0 -46 7 -75 36 c -34 34 -36 40 -36 99 c 0 58 -3 65 -30 88 c -22 19 -30 34 -30 59 c 0 28 -10 43 -60 91 c -49 47 -60 64 -60 90 c 0 27 -14 46 -90 120 c -75 74 -90 94 -90 120 c 0 27 -33 63 -262 293 c -232 232 -267 264 -294 264 c -27 0 -49 18 -150 120 c -104 105 -123 120 -152 120 c -25 0 -40 8 -59 30 c -19 23 -33 30 -60 30 c -26 0 -40 7 -60 30 c -23 28 -30 30 -90 30 c -59 0 -66 2 -90 30 c -18 22 -33 30 -58 30 c -29 0 -44 10 -92 60 l -57 60 l -64 0 c -58 0 -65 2 -89 30 l -25 30 l -543 0 l -543 0 l -25 -30 z"/>
</g>
<g transform="translate(0,6000) scale(0.1,-0.1)"
fill="#000000" stroke="none">
<path d="M 26950 53000 c 0 -27 -3 -30 -30 -30 c -27 0 -30 -3 -30 -30 c 0 -27 -3 -30 -30 -30 c -27 0 -30 -3 -30 -30 c 0 -27 -3 -30 -30 -30 l -30 0 l 0 -205 l 0 -205 l 30 0 l 30 0 l 0 -60 l 0 -60 l 60 0 l 60 0 l 0 -30 l 0 -30 l 150 0 l 150 0 l 0 -30 c 0 -30 1 -30 55 -30 c 54 0 55 0 55 30 c 0 27 3 30 30 30 c 27 0 30 3 30 30 c 0 27 3 30 30 30 c 27 0 30 3 30 30 c 0 27 3 30 30 30 c 27 0 30 3 30 30 c 0 27 3 30 30 30 l 30 0 l 0 205 l 0 205 l -30 0 c -27 0 -30 3 -30 30 c 0 27 -3 30 -30 30 c -27 0 -30 3 -30 30 c 0 27 -3 30 -30 30 c -27 0 -30 3 -30 30 l 0 30 l -235 0 l -235 0 l 0 -30 z"/>
<path d="M 22330 52400 l 0 -30 l -120 0 l -120 0 l 0 -30 c 0 -27 -3 -30 -30 -30 c -27 0 -30 -3 -30 -30 c 0 -27 -3 -30 -30 -30 l -30 0 l 0 -90 l 0 -90 l -30 0 l -30 0 l 0 -60 l 0 -60 l -30 0 l -30 0 l 0 -85 l 0 -85 l 30 0 l 30 0 l 0 -120 l 0 -120 l 30 0 c 27 0 30 -3 30 -30 c 0 -27 3 -30 30 -30 l 30 0 l 0 -60 l 0 -60 l 30 0 c 27 0 30 -3 30 -30 c 0 -27 3 -30 30 -30 c 27 0 30 -3 30 -30 l 0 -30 l 60 0 l 60 0 l 0 -30 l 0 -30 l 60 0 l 60 0 l 0 -30 l 0 -30 l 235 0 l 235 0 l 0 30 l 0 30 l 60 0 l 60 0 l 0 30 c 0 27 3 30 30 30 l 30 0 l 0 60 l 0 60 l 30 0 c 27 0 30 3 30 30 c 0 27 3 30 30 30 l 30 0 l 0 60 l 0 60 l 30 0 l 30 0 l 0 175 l 0 175 l -30 0 l -30 0 l 0 60 l 0 60 l -30 0 c -27 0 -30 3 -30 30 c 0 27 -3 30 -30 30 l -30 0 l 0 60 l 0 60 l -30 0 c -27 0 -30 3 -30 30 c 0 27 -3 30 -30 30 c -27 0 -30 3 -30 30 c 0 27 -3 30 -30 30 c -27 0 -30 3 -30 30 l 0 30 l -120 0 l -120 0 l 0 30 l 0 30 l -145 0 l -145 0 l 0 -30 z"/>
<path d="M 30850 44480 l 0 -30 l -60 0 l -60 0 l 0 -60 l 0 -60 l -60 0 l -60 0 l 0 -30 c 0 -27 -3 -30 -30 -30 c -27 0 -30 -3 -30 -30 c 0 -27 -3 -30 -30 -30 c -27 0 -30 -3 -30 -30 c 0 -27 -3 -30 -30 -30 l -30 0 l 0 -60 l 0 -60 l -30 0 c -27 0 -30 -3 -30 -30 l 0 -30 l -60 0 l -60 0 l 0 -30 c 0 -27 -3 -30 -30 -30 c -27 0 -30 -3 -30 -30 c 0 -27 -3 -30 -30 -30 l -30 0 l 0 -60 l 0 -60 l -30 0 c -27 0 -30 -3 -30 -30 c 0 -27 -3 -30 -30 -30 c -27 0 -30 -3 -30 -30 l 0 -30 l -210 0 l -210 0 l 0 -30 l 0 -30 l -150 0 l -150 0 l 0 -30 l 0 -30 l -60 0 l -60 0 l 0 -30 l 0 -30 l -90 0 l -90 0 l 0 -30 l 0 -30 l -120 0 l -120 0 l 0 -30 l 0 -30 l -120 0 l -120 0 l 0 -30 l 0 -30 l -90 0 l -90 0 l 0 -30 l 0 -30 l -60 0 l -60 0 l 0 -30 l 0 -30 l -90 0 l -90 0 l 0 -30 l 0 -30 l -150 0 l -150 0 l 0 -30 l 0 -30 l -120 0 l -120 0 l 0 -30 l 0 -30 l -90 0 l -90 0 l 0 -30 l 0 -30 l -60 0 l -60 0 l 0 -30 l 0 -30 l -120 0 l -120 0 l 0 -30 l 0 -30 l -120 0 l -120 0 l 0 -30 l 0 -30 l -150 0 l -150 0 l 0 -30 l 0 -30 l -90 0 l -90 0 l 0 -30 l 0 -30 l -60 0 l -60 0 l 0 -30 l 0 -30 l -120 0 l -120 0 l 0 -30 l 0 -30 l -150 0 l -150 0 l 0 -30 l 0 -30 l -150 0 l -150 0 l 0 -30 l 0 -30 l -90 0 l -90 0 l 0 -30 l 0 -30 l -90 0 l -90 0 l 0 -30 l 0 -30 l -120 0 l -120 0 l 0 -30 l 0 -30 l -180 0 l -180 0 l 0 -30 l 0 -30 l -150 0 l -150 0 l 0 -30 l 0 -30 l -150 0 l -150 0 l 0 -30 l 0 -30 l -90 0 l -90 0 l 0 -30 l 0 -30 l -240 0 l -240 0 l 0 -30 l 0 -30 l -755 0 l -755 0 l 0 30 l 0 30 l -240 0 l -240 0 l 0 30 l 0 30 l -120 0 l -120 0 l 0 30 l 0 30 l -120 0 l -120 0 l 0 30 l 0 30 l -180 0 l -180 0 l 0 30 l 0 30 l -150 0 l -150 0 l 0 30 l 0 30 l -120 0 l -120 0 l 0 30 l 0 30 l -60 0 l -60 0 l 0 30 l 0 30 l -90 0 l -90 0 l 0 30 l 0 30 l -90 0 l -90 0 l 0 30 l 0 30 l -120 0 l -120 0 l 0 30 l 0 30 l -60 0 l -60 0 l 0 30 l 0 30 l -60 0 l -60 0 l 0 30 l 0 30 l -60 0 l -60 0 l 0 30 l 0 30 l -90 0 l -90 0 l 0 30 l 0 30 l -60 0 l -60 0 l 0 30 l 0 30 l -60 0 l -60 0 l 0 30 c 0 27 -3 30 -30 30 l -30 0 l 0 60 l 0 60 l -30 0 c -27 0 -30 3 -30 30 c 0 27 -3 30 -30 30 c -27 0 -30 3 -30 30 c 0 27 -3 30 -30 30 l -30 0 l 0 120 l 0 120 l -30 0 l -30 0 l 0 210 l 0 210 l -30 0 l -30 0 l 0 180 l 0 180 l -30 0 l -30 0 l 0 60 l 0 60 l -30 0 c -27 0 -30 3 -30 30 l 0 30 l -60 0 l -60 0 l 0 30 l 0 30 l -60 0 l -60 0 l 0 30 c 0 30 -1 30 -55 30 c -54 0 -55 0 -55 -30 l 0 -30 l -180 0 l -180 0 l 0 -30 l 0 -30 l -60 0 l -60 0 l 0 -30 l 0 -30 l -60 0 l -60 0 l 0 -60 l 0 -60 l -30 0 l -30 0 l 0 -85 l 0 -85 l 30 0 l 30 0 l 0 -150 l 0 -150 l 30 0 l 30 0 l 0 -90 l 0 -90 l 30 0 l 30 0 l 0 -120 l 0 -120 l 30 0 l 30 0 l 0 -150 l 0 -150 l 30 0 l 30 0 l 0 -120 l 0 -120 l 30 0 l 30 0 l 0 -60 l 0 -60 l 30 0 l 30 0 l 0 -60 l 0 -60 l 30 0 l 30 0 l 0 -90 l 0 -90 l 30 0 l 30 0 l 0 -90 l 0 -90 l 30 0 l 30 0 l 0 -90 l 0 -90 l 30 0 l 30 0 l 0 -60 l 0 -60 l 30 0 l 30 0 l 0 -60 l 0 -60 l 30 0 l 30 0 l 0 -60 l 0 -60 l 30 0 l 30 0 l 0 -90 l 0 -90 l 30 0 l 30 0 l 0 -60 l 0 -60 l 30 0 l 30 0 l 0 -60 l 0 -60 l 30 0 c 27 0 30 -3 30 -30 c 0 -27 3 -30 30 -30 l 30 0 l 0 -60 l 0 -60 l 30 0 l 30 0 l 0 -60 l 0 -60 l 30 0 l 30 0 l 0 -60 l 0 -60 l 30 0 l 30 0 l 0 -60 l 0 -60 l 30 0 c 27 0 30 -3 30 -30 c 0 -27 3 -30 30 -30 c 27 0 30 -3 30 -30 c 0 -27 3 -30 30 -30 l 30 0 l 0 -60 l 0 -60 l 30 0 c 27 0 30 -3 30 -30 c 0 -27 3 -30 30 -30 c 27 0 30 -3 30 -30 c 0 -27 3 -30 30 -30 c 27 0 30 -3 30 -30 c 0 -27 3 -30 30 -30 l 30 0 l 0 -60 l 0 -60 l 30 0 c 27 0 30 -3 30 -30 c 0 -27 3 -30 30 -30 c 27 0 30 -3 30 -30 c 0 -27 3 -30 30 -30 c 27 0 30 -3 30 -30 c 0 -27 3 -30 30 -30 c 27 0 30 -3 30 -30 c 0 -27 3 -30 30 -30 c 27 0 30 -3 30 -30 l 0 -30 l 60 0 l 60 0 l 0 -30 c 0 -27 3 -30 30 -30 c 27 0 30 -3 30 -30 c 0 -27 3 -30 30 -30 c 27 0 30 -3 30 -30 c 0 -27 3 -30 30 -30 c 27 0 30 -3 30 -30 l 0 -30 l 60 0 l 60 0 l 0 -30 c 0 -27 3 -30 30 -30 c 27 0 30 -3 30 -30 l 0 -30 l 60 0 l 60 0 l 0 -30 l 0 -30 l 60 0 l 60 0 l 0 -30 c 0 -27 3 -30 30 -30 c 27 0 30 -3 30 -30 l 0 -30 l 60 0 l 60 0 l 0 -30 l 0 -30 l 60 0 l 60 0 l 0 -30 l 0 -30 l 90 0 l 90 0 l 0 -30 l 0 -30 l 90 0 l 90 0 l 0 -30 c 0 -27 3 -30 30 -30 c 27 0 30 -3 30 -30 l 0 -30 l 90 0 l 90 0 l 0 -30 l 0 -30 l 120 0 l 120 0 l 0 -30 l 0 -30 l 150 0 l 150 0 l 0 -30 l 0 -30 l 150 0 l 150 0 l 0 -30 l 0 -30 l 120 0 l 120 0 l 0 -30 l 0 -30 l 210 0 l 210 0 l 0 -30 l 0 -30 l 775 0 l 775 0 l 0 30 l 0 30 l 180 0 l 180 0 l 0 30 l 0 30 l 90 0 l 90 0 l 0 30 l 0 30 l 150 0 l 150 0 l 0 30 l 0 30 l 150 0 l 150 0 l 0 30 l 0 30 l 120 0 l 120 0 l 0 30 l 0 30 l 60 0 l 60 0 l 0 30 l 0 30 l 60 0 l 60 0 l 0 30 l 0 30 l 90 0 l 90 0 l 0 30 l 0 30 l 90 0 l 90 0 l 0 30 l 0 30 l 60 0 l 60 0 l 0 30 l 0 30 l 60 0 l 60 0 l 0 30 l 0 30 l 60 0 l 60 0 l 0 30 l 0 30 l 60 0 l 60 0 l 0 30 l 0 30 l 60 0 l 60 0 l 0 30 l 0 30 l 90 0 l 90 0 l 0 30 c 0 27 3 30 30 30 c 27 0 30 3 30 30 c 0 27 3 30 30 30 c 27 0 30 3 30 30 l 0 30 l 60 0 l 60 0 l 0 30 l 0 30 l 60 0 l 60 0 l 0 30 l 0 30 l 60 0 l 60 0 l 0 30 l 0 30 l 60 0 l 60 0 l 0 30 c 0 27 3 30 30 30 c 27 0 30 3 30 30 l 0 30 l 60 0 l 60 0 l 0 30 l 0 30 l 60 0 l 60 0 l 0 30 l 0 30 l 60 0 l 60 0 l 0 30 c 0 27 3 30 30 30 c 27 0 30 3 30 30 c 0 27 3 30 30 30 c 27 0 30 3 30 30 c 0 27 3 30 30 30 c 27 0 30 3 30 30 l 0 30 l 60 0 l 60 0 l 0 30 l 0 30 l 60 0 l 60 0 l 0 30 l 0 30 l 60 0 l 60 0 l 0 30 c 0 27 3 30 30 30 c 27 0 30 3 30 30 c 0 27 3 30 30 30 c 27 0 30 3 30 30 l 0 30 l 60 0 l 60 0 l 0 30 l 0 30 l 60 0 l 60 0 l 0 30 c 0 27 3 30 30 30 c 27 0 30 3 30 30 c 0 27 3 30 30 30 c 27 0 30 3 30 30 c 0 27 3 30 30 30 c 27 0 30 3 30 30 l 0 30 l 60 0 l 60 0 l 0 30 c 0 27 3 30 30 30 c 27 0 30 3 30 30 c 0 27 3 30 30 30 c 27 0 30 3 30 30 l 0 30 l 60 0 l 60 0 l 0 30 c 0 27 3 30 30 30 c 27 0 30 3 30 30 c 0 27 3 30 30 30 c 27 0 30 3 30 30 l 0 30 l 60 0 l 60 0 l 0 30 c 0 27 3 30 30 30 c 27 0 30 3 30 30 c 0 27 3 30 30 30 c 27 0 30 3 30 30 c 0 27 3 30 30 30 c 27 0 30 3 30 30 l 0 30 l 60 0 l 60 0 l 0 30 c 0 27 3 30 30 30 c 27 0 30 3 30 30 c 0 27 3 30 30 30 c 27 0 30 3 30 30 c 0 27 3 30 30 30 c 27 0 30 3 30 30 c 0 27 3 30 30 30 c 27 0 30 3 30 30 l 0 30 l 60 0 l 60 0 l 0 30 c 0 27 3 30 30 30 c 27 0 30 3 30 30 c 0 27 3 30 30 30 c 27 0 30 3 30 30 c 0 27 3 30 30 30 c 27 0 30 3 30 30 c 0 27 3 30 30 30 c 27 0 30 3 30 30 l 0 30 l 60 0 l 60 0 l 0 30 c 0 27 3 30 30 30 c 27 0 30 3 30 30 c 0 27 3 30 30 30 l 30 0 l 0 60 l 0 60 l 60 0 l 60 0 l 0 30 c 0 27 3 30 30 30 c 27 0 30 3 30 30 c 0 27 3 30 30 30 c 27 0 30 3 30 30 c 0 27 3 30 30 30 c 27 0 30 3 30 30 c 0 27 3 30 30 30 c 27 0 30 3 30 30 c 0 27 3 30 30 30 c 27 0 30 3 30 30 c 0 27 3 30 30 30 c 27 0 30 3 30 30 c 0 27 3 30 30 30 c 27 0 30 3 30 30 c 0 27 3 30 30 30 c 27 0 30 3 30 30 c 0 27 3 30 30 30 c 27 0 30 3 30 30 l 0 30 l 60 0 l 60 0 l 0 30 c 0 27 3 30 30 30 c 27 0 30 3 30 30 c 0 27 3 30 30 30 c 27 0 30 3 30 30 c 0 27 3 30 30 30 c 27 0 30 3 30 30 c 0 27 3 30 30 30 c 27 0 30 3 30 30 c 0 27 3 30 30 30 c 27 0 30 3 30 30 c 0 27 3 30 30 30 c 27 0 30 3 30 30 c 0 27 3 30 30 30 c 27 0 30 3 30 30 c 0 27 3 30 30 30 c 27 0 30 3 30 30 c 0 27 3 30 30 30 c 27 0 30 3 30 30 c 0 27 3 30 30 30 c 27 0 30 3 30 30 c 0 27 3 30 30 30 l 30 0 l 0 60 l 0 60 l 30 0 l 30 0 l 0 145 l 0 145 l -30 0 l -30 0 l 0 60 l 0 60 l -30 0 c -27 0 -30 3 -30 30 c 0 27 -3 30 -30 30 c -27 0 -30 3 -30 30 c 0 27 -3 30 -30 30 c -27 0 -30 3 -30 30 c 0 27 -3 30 -30 30 c -27 0 -30 3 -30 30 c 0 27 -3 30 -30 30 c -27 0 -30 3 -30 30 c 0 27 -3 30 -30 30 c -27 0 -30 3 -30 30 l 0 30 l -85 0 l -85 0 l 0 -30 z m -2940 -2515 l 0 -35 l -60 0 l -60 0 l 0 -120 l 0 -120 l -30 0 c -27 0 -30 -3 -30 -30 l 0 -30 l -60 0 l -60 0 l 0 -30 l 0 -30 l -60 0 l -60 0 l 0 -30 c 0 -27 -3 -30 -30 -30 c -27 0 -30 -3 -30 -30 c 0 -27 -3 -30 -30 -30 c -27 0 -30 -3 -30 -30 c 0 -27 -3 -30 -30 -30 c -27 0 -30 -3 -30 -30 l 0 -30 l -60 0 l -60 0 l 0 -30 c 0 -27 -3 -30 -30 -30 c -27 0 -30 -3 -30 -30 l 0 -30 l -60 0 l -60 0 l 0 -30 l 0 -30 l -60 0 l -60 0 l 0 -30 c 0 -27 -3 -30 -30 -30 c -27 0 -30 -3 -30 -30 c 0 -27 -3 -30 -30 -30 c -27 0 -30 -3 -30 -30 l 0 -30 l -90 0 l -90 0 l 0 -30 c 0 -27 -3 -30 -30 -30 c -27 0 -30 -3 -30 -30 l 0 -30 l -60 0 l -60 0 l 0 -30 c 0 -27 -3 -30 -30 -30 c -27 0 -30 -3 -30 -30 l 0 -30 l -60 0 l -60 0 l 0 -30 l 0 -30 l -60 0 l -60 0 l 0 -30 l 0 -30 l -90 0 l -90 0 l 0 -30 c 0 -27 -3 -30 -30 -30 c -27 0 -30 -3 -30 -30 l 0 -30 l -60 0 l -60 0 l 0 -30 l 0 -30 l -60 0 l -60 0 l 0 -30 l 0 -30 l -90 0 l -90 0 l 0 -30 l 0 -30 l -60 0 l -60 0 l 0 -30 l 0 -30 l -60 0 l -60 0 l 0 -30 l 0 -30 l -60 0 l -60 0 l 0 -30 l 0 -30 l -60 0 l -60 0 l 0 -30 l 0 -30 l -120 0 l -120 0 l 0 -30 l 0 -30 l -90 0 l -90 0 l 0 -30 l 0 -30 l -90 0 l -90 0 l 0 -30 l 0 -30 l -60 0 l -60 0 l 0 -30 l 0 -30 l -90 0 l -90 0 l 0 -30 l 0 -30 l -180 0 l -180 0 l 0 -30 l 0 -30 l -150 0 l -150 0 l 0 -30 l 0 -30 l -180 0 l -180 0 l 0 -30 l 0 -30 l -150 0 l -150 0 l 0 -30 l 0 -30 l -545 0 l -545 0 l 0 30 l 0 30 l -150 0 l -150 0 l 0 30 l 0 30 l -120 0 l -120 0 l 0 30 l 0 30 l -150 0 l -150 0 l 0 30 l 0 30 l -120 0 l -120 0 l 0 30 l 0 30 l -90 0 l -90 0 l 0 30 c 0 27 -3 30 -30 30 c -27 0 -30 3 -30 30 l 0 30 l -60 0 l -60 0 l 0 30 l 0 30 l -60 0 l -60 0 l 0 30 l 0 30 l -90 0 l -90 0 l 0 30 c 0 27 -3 30 -30 30 c -27 0 -30 3 -30 30 c 0 27 -3 30 -30 30 c -27 0 -30 3 -30 30 l 0 30 l -60 0 l -60 0 l 0 30 c 0 27 -3 30 -30 30 c -27 0 -30 3 -30 30 l 0 30 l -60 0 l -60 0 l 0 30 c 0 27 -3 30 -30 30 c -27 0 -30 3 -30 30 c 0 27 -3 30 -30 30 c -27 0 -30 3 -30 30 c 0 27 -3 30 -30 30 c -27 0 -30 3 -30 30 c 0 27 -3 30 -30 30 c -27 0 -30 3 -30 30 c 0 27 -3 30 -30 30 c -27 0 -30 3 -30 30 c 0 27 -3 30 -30 30 c -27 0 -30 3 -30 30 c 0 27 -3 30 -30 30 c -27 0 -30 3 -30 30 c 0 27 -3 30 -30 30 c -27 0 -30 3 -30 30 c 0 27 -3 30 -30 30 c -27 0 -30 3 -30 30 c 0 27 -3 30 -30 30 c -27 0 -30 3 -30 30 c 0 27 -3 30 -30 30 l -30 0 l 0 60 l 0 60 l -30 0 l -30 0 l 0 90 l 0 90 l -30 0 c -28 0 -30 3 -30 35 c 0 32 2 35 30 35 c 27 0 30 3 30 30 l 0 30 l 60 0 l 60 0 l 2 33 l 1 32 l 4 -32 l 4 -33 l 90 0 l 89 0 l 0 -30 l 0 -30 l 60 0 l 60 0 l 0 -30 l 0 -30 l 90 0 l 90 0 l 0 -30 l 0 -30 l 120 0 l 120 0 l 0 -30 l 0 -30 l 150 0 l 150 0 l 0 -30 l 0 -30 l 150 0 l 150 0 l 0 -30 l 0 -30 l 120 0 l 120 0 l 0 -30 l 0 -30 l 150 0 l 150 0 l 0 -30 l 0 -30 l 450 0 l 450 0 l 0 -30 l 0 -30 l 475 0 l 475 0 l 0 30 l 0 30 l 390 0 l 390 0 l 0 30 l 0 30 l 180 0 l 180 0 l 0 30 l 0 30 l 120 0 l 120 0 l 0 30 l 0 30 l 180 0 l 180 0 l 0 30 l 0 30 l 210 0 l 210 0 l 0 30 l 0 30 l 180 0 l 180 0 l 0 30 l 0 30 l 120 0 l 120 0 l 0 30 l 0 30 l 90 0 l 90 0 l 0 30 l 0 30 l 120 0 l 120 0 l 0 30 l 0 30 l 150 0 l 150 0 l 0 30 l 0 30 l 150 0 l 150 0 l 0 30 l 0 30 l 120 0 l 120 0 l 0 30 l 0 30 l 60 0 l 60 0 l 0 30 l 0 30 l 120 0 l 120 0 l 0 30 l 0 30 l 120 0 l 120 0 l 0 30 l 0 30 l 180 0 l 180 0 l 0 30 l 0 30 l 90 0 l 90 0 l 0 30 l 0 30 l 65 0 l 65 0 l 0 -35 z"/>
</g>
<style type="text/css">
	.st0{fill:#DD0031;
    scale}
	.st1{fill:#C3002F;}
	.st2{fill:#FFFFFF;}
</style>
<g  transform="translate(1100,2400) scale(10) rotate(6)">
	<polygon class="st0" points="125,30 125,30 125,30 31.9,63.2 46.1,186.3 125,230 125,230 125,230 203.9,186.3 218.1,63.2 	"/>
	<polygon class="st1" points="125,30 125,52.2 125,52.1 125,153.4 125,153.4 125,230 125,230 203.9,186.3 218.1,63.2 125,30 	"/>
	<path class="st2" d="M125,52.1L66.8,182.6h0h21.7h0l11.7-29.2h49.4l11.7,29.2h0h21.7h0L125,52.1L125,52.1L125,52.1L125,52.1
		L125,52.1z M142,135.4H108l17-40.9L142,135.4z"/>
</g>
</svg>
