<svg width="55px" height="58px" viewBox="0 0 55 58" version="1.1" xmlns="http://www.w3.org/2000/svg" xmlns:xlink="http://www.w3.org/1999/xlink">
    <g id="Home" stroke="none" stroke-width="1" fill="none" fill-rule="evenodd">
        <g id="Home---After-Landing-Animation" transform="translate(-182.000000, -4664.000000)" fill="#DD0031">
            <g id="Group-49" transform="translate(182.000000, 4664.000000)">
                <path d="M27.0441681,0.148510526 L0.942310739,9.31852039 L4.8415493e-05,9.64963553 L0.114696303,10.6286717 L4.09590229,44.6296454 L4.17007482,45.2632572 L4.73643926,45.5724316 L26.8571875,57.6425368 L27.4668354,57.9752737 L27.4671259,57.9752737 L28.0768706,57.6425368 L50.1976188,45.5724316 L50.7639833,45.2632572 L50.8381558,44.6296454 L54.8194586,10.6286717 L54.9340097,9.64963553 L53.9916505,9.31852039 L27.88989,0.148510526 L27.467029,7.63157895e-05 L27.0441681,0.148510526 Z M5.34637764,44.4875072 L1.36517165,10.4867243 L27.467029,1.31661908 L53.5688864,10.4867243 L49.5876805,44.4875072 L27.467029,56.5576125 L5.34637764,44.4875072 Z" id="Fill-1"></path>
                <g id="Group-48" transform="translate(5.228873, 11.708845)">
                    <path d="M26.7477975,19.790077 L26.7481849,19.790077 C26.9076655,19.790077 27.0576567,19.851225 27.1705616,19.9623599 C27.2834665,20.0734947 27.3457289,20.2213566 27.3458257,20.3785671 L28.5739331,20.3779947 C28.5736426,19.8974914 28.3835634,19.4459882 28.0385546,19.1063829 C27.6937394,18.7669684 27.2355352,18.5800901 26.7481849,18.5800901 L26.7471197,18.5800901 C25.740368,18.5806625 24.9217588,19.3880836 24.922243,20.379998 L24.9229208,21.5737678 L26.1509313,21.5730046 L26.1503504,20.3793303 C26.1501567,20.0545112 26.4181849,19.7902678 26.7477975,19.790077" id="Fill-2"></path>
                    <polygon id="Fill-4" points="12.9812588 0.0660894737 4.06709507 0.0660894737 4.06709507 1.27598092 13.6889965 1.27598092"></polygon>
                    <path d="M25.0656496,10.8205487 L21.7758169,10.8205487 L21.8435018,10.7821046 L20.1161338,7.82792039 L18.698044,7.82792039 L20.4484577,10.8205487 L14.9238627,10.8205487 L14.9232817,9.69784803 C14.9231849,9.5406375 14.9852535,9.39268026 15.0981585,9.28135461 C15.2109665,9.17012434 15.3609577,9.10878553 15.5207289,9.10878553 L15.5211162,9.10878553 C15.6805968,9.10878553 15.830588,9.16983816 15.943493,9.28087763 C16.0563979,9.39210789 16.118757,9.53996974 16.1188539,9.69737105 L17.3468644,9.69660789 C17.3465739,9.2162 17.1563979,8.76450592 16.8113891,8.42499605 C16.4665739,8.08567697 16.0083697,7.89879868 15.521213,7.89879868 L15.5200511,7.89879868 C15.0324102,7.89908487 14.5739155,8.08634474 14.2291972,8.42633158 C13.8845757,8.76631842 13.6948838,9.21810789 13.6951743,9.69861118 L13.6958521,10.8205487 L9.31289437,10.8205487 L9.31231338,9.70090066 C9.31221655,9.37608158 9.58024472,9.11183816 9.90976056,9.11164737 L9.90995423,9.11164737 C10.2394701,9.11164737 10.5076919,9.3757 10.5078856,9.70023289 L11.7358961,9.69966053 C11.735412,8.70803224 10.9164155,7.90166053 9.90985739,7.90166053 L9.90917958,7.90166053 C8.90242782,7.90223289 8.08372183,8.70965395 8.08420599,9.70156842 L8.0848838,10.8205487 L6.44940845,10.8205487 L6.44940845,7.82792039 L5.22130106,7.82792039 L5.22130106,10.8205487 L4.06717254,10.8205487 L4.06717254,12.0304401 L25.7733873,12.0304401 L25.0656496,10.8205487 Z" id="Fill-6"></path>
                    <polygon id="Fill-8" points="19.0448248 5.44331908 15.8487245 5.44331908 14.1382051 2.51794408 12.7201153 2.51794408 14.4313125 5.44331908 6.44934067 5.44331908 6.44934067 2.51794408 5.22133011 2.51794408 5.22133011 5.44331908 4.06710475 5.44331908 4.06710475 6.65321053 19.7525625 6.65321053"></polygon>
                    <path d="M30.5617958,16.1977687 L27.7888468,16.1977687 L27.8208011,16.1795484 L26.0934331,13.2254595 L24.6753433,13.2254595 L26.4141373,16.1977687 L20.5374648,16.1977687 L20.536787,15.004953 C20.5366901,14.847647 20.5987588,14.6997852 20.7116637,14.5884595 C20.8244718,14.4772293 20.9745599,14.4157951 21.1342342,14.4157951 L21.1346215,14.4157951 C21.2941989,14.4157951 21.4440933,14.4769431 21.5569982,14.5879826 C21.67,14.6992128 21.7321655,14.8470747 21.7322623,15.0042852 L22.9603697,15.0037128 C22.9601761,14.5232095 22.77,14.0716109 22.4248944,13.7320056 C22.0800792,13.3927819 21.6219718,13.2059036 21.1347183,13.2059036 L21.1335563,13.2059036 C20.6459155,13.2061898 20.1874208,13.3934497 19.8427993,13.7334365 C19.498081,14.0732326 19.3084859,14.5251174 19.3086796,15.0056207 L19.3093574,16.1977687 L14.9264965,16.1977687 L14.9258187,15.0078148 C14.9257218,14.8506043 14.9878873,14.702647 15.1006954,14.5914168 C15.2136004,14.4800911 15.3635915,14.4188477 15.5232658,14.4187523 L15.5236532,14.4187523 C15.8530722,14.4187523 16.1211972,14.6826141 16.1213908,15.0073378 L17.3494982,15.0065747 C17.3489173,14.0150418 16.5300176,13.2087655 15.5236532,13.2087655 L15.5226849,13.2087655 C15.0349472,13.2090516 14.5765493,13.3964069 14.231831,13.7362984 C13.8871127,14.0762852 13.6975176,14.5280747 13.6978081,15.0084826 L13.6983891,16.1977687 L9.31552817,16.1977687 L9.31494718,15.0108674 C9.31475352,14.6861437 9.58278169,14.4219003 9.91239437,14.4217095 L9.91268486,14.4217095 C10.2421039,14.4217095 10.5102289,14.6855714 10.5104225,15.0102951 L11.7385299,15.0095319 C11.7379489,14.017999 10.9190493,13.2117227 9.91268486,13.2117227 L9.91171655,13.2117227 C8.90486796,13.2122951 8.0862588,14.0197161 8.08683979,15.0115352 L8.08751761,16.1977687 L6.44933099,16.1977687 L6.44933099,13.2723937 L5.22132042,13.2723937 L5.22132042,16.1977687 L4.06709507,16.1977687 L4.06709507,17.4076602 L31.2695335,17.4076602 L30.5617958,16.1977687 Z" id="Fill-10"></path>
                    <polygon id="Fill-12" points="40.831603 12.030402 40.831603 10.8205105 26.5202738 10.8205105 27.227721 12.030402"></polygon>
                    <polygon id="Fill-14" points="38.4493671 13.2723938 38.4493671 16.1977688 31.9939357 16.1977688 32.7013829 17.4076602 40.831603 17.4076602 40.831603 16.1977688 39.6774745 16.1977688 39.6774745 13.2723938"></polygon>
                    <path d="M39.6774357,21.5749984 L39.6774357,18.6483832 L38.4493283,18.6483832 L38.4493283,21.5749984 L33.4522685,21.5749984 L31.7829991,18.7201201 L30.3649093,18.7201201 L32.0348565,21.5749984 L20.5400502,21.5749984 L20.5393724,20.3820872 C20.5392755,20.2248766 20.601441,20.0770148 20.7142491,19.9656891 C20.8270572,19.8544589 20.9771452,19.7930247 21.1368195,19.7930247 L21.1372069,19.7930247 C21.2967843,19.7930247 21.4467755,19.8541727 21.5596805,19.9652122 C21.6725854,20.0764424 21.7348477,20.2243043 21.7349445,20.3816102 L22.9630519,20.380847 C22.9627614,19.9004391 22.7725854,19.4488405 22.4274798,19.1092352 C22.0827614,18.7700115 21.6245572,18.5831332 21.1373037,18.5831332 L21.1362386,18.5831332 C20.6485009,18.5834194 20.190103,18.7706793 19.8453847,19.1105707 C19.5007632,19.4504622 19.3110713,19.902347 19.3113618,20.3827549 L19.3119428,21.5749984 L14.9290819,21.5749984 L14.9285009,20.3850444 C14.928404,20.2278339 14.9904727,20.0798766 15.1032808,19.9686464 C15.2161857,19.8573207 15.3662738,19.7960773 15.5258512,19.7959819 L15.5261417,19.7959819 C15.8555607,19.7959819 16.1237826,20.0598437 16.1239762,20.3845674 L17.3520836,20.3838043 C17.3515026,19.3922714 16.5325062,18.5859951 15.5260449,18.5859951 L15.5252702,18.5859951 C15.0375326,18.5862812 14.5791347,18.7736365 14.2344164,19.113528 C13.8897949,19.4535148 13.700103,19.9053043 13.7003935,20.3858076 L13.7010713,21.5749984 L9.31821039,21.5749984 L9.31753257,20.3881924 C9.31733891,20.0633734 9.58536708,19.7991299 9.91497975,19.7989391 C10.07814,19.8002747 10.2247421,19.8598964 10.3377438,19.971222 C10.4506488,20.0823569 10.5130079,20.2301234 10.5131048,20.3874293 L11.7411153,20.3868569 C11.7409217,19.9063536 11.5507456,19.4547549 11.2057368,19.1152451 C10.8609217,18.7758306 10.4027174,18.5889523 9.91536708,18.5889523 L9.91430194,18.5889523 C8.90755018,18.5895247 8.08894102,19.3969457 8.08942518,20.3887648 L8.09010299,21.5749984 L6.42083363,21.5749984 L6.42083363,18.7201201 L5.19272623,18.7201201 L5.19272623,21.5749984 L0.0727878521,21.5749984 L0.214451585,22.7848898 L44.2618019,22.7848898 L44.4035625,21.5749984 L39.6774357,21.5749984 Z" id="Fill-16"></path>
                    <polygon id="Fill-18" points="12.5091593 24.5992118 12.5091593 38.1225605 13.7372667 38.7926132 13.7372667 24.5992118"></polygon>
                    <polygon id="Fill-20" points="15.5466118 24.5992118 15.5466118 39.7799487 16.7747192 40.4500013 16.7747192 24.5992118"></polygon>
                    <polygon id="Fill-22" points="9.4717456 24.5992118 9.4717456 36.4651724 10.699853 37.135225 10.699853 24.5992118"></polygon>
                    <polygon id="Fill-24" points="6.43433187 24.5992118 6.43433187 34.8077842 7.66243926 35.4779322 7.66243926 24.5992118"></polygon>
                    <polygon id="Fill-26" points="0.426840669 24.5992118 1.29376849 32.0027974 1.5875537 32.1631559 1.5875537 24.5992118"></polygon>
                    <polygon id="Fill-28" points="21.6214296 24.5992118 21.6214296 43.0946296 22.2381461 43.4310868 22.849537 43.0974914 22.849537 24.5992118"></polygon>
                    <polygon id="Fill-30" points="3.3968794 24.5992118 3.3968794 33.1504914 4.6249868 33.8205441 4.6249868 24.5992118"></polygon>
                    <polygon id="Fill-32" points="18.5840255 24.5992118 18.5840255 41.4373368 19.8121329 42.1073895 19.8121329 24.5992118"></polygon>
                    <polygon id="Fill-34" points="39.8459894 24.5992118 39.8459894 33.8234059 41.0740968 33.1533533 41.0740968 24.5992118"></polygon>
                    <polygon id="Fill-36" points="24.6588433 24.5992118 24.6588433 42.1102513 25.8869507 41.4401033 25.8869507 24.5992118"></polygon>
                    <polygon id="Fill-38" points="36.8085757 24.5992118 36.8085757 35.4807941 38.0366831 34.8106461 38.0366831 24.5992118"></polygon>
                    <polygon id="Fill-40" points="42.8834032 24.5992118 42.8834032 32.1660178 43.1825141 32.0027974 44.0494419 24.5992118"></polygon>
                    <polygon id="Fill-42" points="33.7711232 24.5992118 33.7711232 37.1380868 34.9992306 36.4680342 34.9992306 24.5992118"></polygon>
                    <polygon id="Fill-44" points="27.6963055 24.5992118 27.6963055 40.4528632 28.9244129 39.7828105 28.9244129 24.5992118"></polygon>
                    <polygon id="Fill-46" points="30.7337095 24.5992118 30.7337095 38.795475 31.9618169 38.1254224 31.9618169 24.5992118"></polygon>
                </g>
            </g>
        </g>
    </g>
</svg>
