<?xml version="1.0" encoding="UTF-8" standalone="no"?>
<!DOCTYPE svg PUBLIC "-//W3C//DTD SVG 1.1//EN"
"http://www.w3.org/Graphics/SVG/1.1/DTD/svg11.dtd">


<!-- Page 1 -->
<svg x="0" y="0" width="592" height="592" viewBox="0 0 592 592" version="1.1" xmlns="http://www.w3.org/2000/svg" xmlns:xlink="http://www.w3.org/1999/xlink"
style="display: block;margin-left: auto;margin-right: auto;">
<defs>
<clipPath id="c_1"><path d="M0,0H592V592H0Z" /></clipPath>
<clipPath id="c0_1"><path d="M295.3,559.5L88.6,443.2L52,119L295.3,32.1L541.2,119L295.3,559.5Z" /></clipPath>
<clipPath id="c1_1"><path d="M295.3,559.5V32.1L541.1,119L504.5,443.2L295.3,559.5Z" /></clipPath>
<clipPath id="c2_1"><path d="M296.3,469.7c-28.6,0,-86.4,-1.1,-86.4,-1.1l-5.1,-23.4L194.1,421.4l2.4,-11l13.4,-19.3l-3.5,-95.3l-.2,-9.8l3.7,-5.1V229.1H382.7c0,0,-1,27.7,-.5,41.4c.4,13.8,2.3,16.2,2.3,16.2c0,0,1.8,4.5,1.1,6.8c-.6,2.4,-8.6,25,-8.6,25l20.3,97l-14.6,53.1c0,0,-57.8,1.1,-86.4,1.1Z" /></clipPath>
<clipPath id="c3_1"><path d="M324.6,475.3c-14,0,-27.4,-.3,-37.5,-.3c-2.4,0,-4.6,0,-6.6,.1v-6.5c29.8,-.5,96,-3,108.1,-29c8.8,-19,-9.5,-52.8,-15.4,-83.1c-2.4,-11.9,-1.8,-22.1,-.7,-34.1c1.8,-18.5,12,-28.5,12,-28.5c0,0,-9.6,-12.9,-11.6,-26.6c-1.8,-11.6,-4,-23.6,-1.9,-35.2c5.5,-30.9,21.7,-62.2,12.5,-86.3c-5,-13.2,-12.5,-17.7,-12.8,-18c-.2,-.1,-4.6,-2.9,-5.7,-3.4c-1,-.5,-10.6,-6,-13,-6q-.1,0,-.2,0q-.1,.1,-.2,.1c-.3,0,1,-.4,3.5,-.8c2.4,-.4,6,-.8,10.3,-.8c12,0,29.2,3.2,39.2,18.8c15.3,28,-5.4,67.9,-14.9,99.6c-17.1,57,7.3,58.6,10.2,58.6c.2,0,.3,0,.3,0c0,0,-8.8,2,-14.3,21c-3.1,10.7,2.4,27.4,5.9,37.7c11,32.3,32.5,69.2,18.2,98c-4.7,9.5,-12.7,17.6,-25.4,20.6c-14,3.4,-37.7,4.1,-60,4.1Z" /></clipPath>
<clipPath id="c4_1"><path d="M267.2,475.3c-22.2,0,-45.8,-.7,-59.8,-4.1c-12.6,-3,-20.6,-11.1,-25.2,-20.6c-14.3,-28.8,7.1,-65.7,18.1,-98c3.5,-10.3,8.9,-27,5.9,-37.7c-5.5,-19,-14.2,-21,-14.2,-21h.2c2.9,0,27.3,-1.6,10.2,-58.6c-9.5,-31.7,-30.1,-71.6,-14.8,-99.6c10,-15.6,27,-18.8,39,-18.8c4.2,0,7.8,.4,10.3,.8c2.5,.4,3.8,.8,3.4,.8c0,0,-.1,0,-.1,-.1q-.1,0,-.2,0c-2.4,0,-12,5.5,-13,6c-1.1,.5,-5.5,3.3,-5.6,3.4c-.3,.3,-7.8,4.8,-12.8,18c-9.2,24.1,6.9,55.4,12.5,86.3c2.1,11.6,-.2,23.6,-1.9,35.2c-2.1,13.7,-11.6,26.6,-11.6,26.6c0,0,10.2,10,11.9,28.5c1.2,12,1.7,22.2,-.6,34.1c-6,30.3,-24.1,64.1,-15.4,83.1c12.1,26,78,28.5,107.7,29v6.5c-2,-.1,-4.2,-.1,-6.5,-.1c-10.1,0,-23.5,.3,-37.5,.3Z" /></clipPath>
<clipPath id="c5_1"><path d="M0,592.8V0H592.8V592.8Z" /></clipPath>
<clipPath id="c6_1"><path d="M239.8,370.8V269.7h13.9l21.8,60.9h.3V269.7h14.5V370.8H276.7L254.5,310h-.2v60.8Zm87,.8c-3,0,-5.9,-.5,-8.8,-1.5c-2.9,-1.1,-5.4,-2.6,-7.7,-4.7c-2.4,-2,-4.3,-4.5,-5.7,-7.5c-1.4,-3.1,-2.1,-6.7,-2.1,-11V293.6c0,-4.1,.7,-7.7,2.1,-10.8c1.4,-3.1,3.3,-5.7,5.7,-7.8c2.3,-2,4.8,-3.5,7.7,-4.6c2.9,-1,5.8,-1.5,8.8,-1.5c2.9,0,5.8,.5,8.7,1.5c2.9,1.1,5.5,2.6,7.9,4.6c2.2,2.1,4.1,4.7,5.5,7.8c1.4,3.1,2.1,6.7,2.1,10.8v5.1H336.5v-5.1c0,-3.5,-.9,-6.1,-2.9,-7.8c-1.9,-1.6,-4.2,-2.4,-6.8,-2.4c-2.7,0,-5,.8,-6.9,2.4c-2,1.7,-2.9,4.3,-2.9,7.8v53.3c0,3.5,.9,6.1,2.9,7.8c1.9,1.6,4.2,2.5,6.9,2.5c2.6,0,4.9,-.9,6.8,-2.5c2,-1.7,2.9,-4.3,2.9,-7.8v-19H325.1V315.1H351v31.8c0,4.3,-.7,7.9,-2.1,11c-1.4,3,-3.3,5.5,-5.5,7.5c-2.4,2.1,-5,3.6,-7.9,4.7c-2.9,1,-5.8,1.5,-8.7,1.5Z" /></clipPath>
<clipPath id="c7_1"><path d="M298.6,112.6c-.3,0,5.5,-5.1,6.7,-11.2c.8,-4.5,-2.3,-9.9,-6.4,-12.5C288.7,82.3,296.1,62.4,299,60.4q.2,-.1,.3,-.1c.8,0,-2.9,6.9,-2.6,13.8c.2,6.4,8.4,9.2,12.2,14.8c8.1,12.1,-7,21.5,-10,23.5c-.2,.2,-.3,.2,-.3,.2Z" /></clipPath>
<clipPath id="c8_1"><path d="M293,197c0,0,0,-1.1,.6,-1.9c.5,-.8,1.3,-2.1,2.3,-3.6c1.9,-3.1,4.5,-7.7,6.8,-13.5c1.1,-2.9,2.1,-6.1,2.7,-9.5c.6,-3.4,.8,-7.1,.2,-10.6c-.7,-3.5,-2.1,-6.8,-4.2,-9.7c-.3,-.4,-.5,-.8,-.8,-1.1l-.9,-1.1l-.9,-1l-.9,-1l-1,-.9c-.3,-.3,-.7,-.6,-1,-.9l-1.1,-.8l-.5,-.4c-.2,-.2,-.4,-.3,-.6,-.5c-1.6,-1.1,-3.2,-2.3,-4.8,-3.4c-.8,-.5,-1.6,-1.2,-2.5,-1.9c-.8,-.7,-1.6,-1.3,-2.3,-2.1c-3.1,-2.9,-5.9,-6.5,-7.7,-10.8c-.9,-2.1,-1.5,-4.4,-1.8,-6.7c-.1,-1.1,-.2,-2.3,-.2,-3.4c0,-1.1,.1,-2.2,.3,-3.3c.6,-4.2,2.1,-7.8,3.8,-10.7c1.6,-2.9,3.5,-5.2,5.2,-7.1c1.7,-2,3.3,-3.4,4.6,-4.6c1.4,-1.1,2.5,-1.9,3.2,-2.5c.8,-.5,1.2,-.7,1.2,-.7c0,0,-1.4,1.5,-3.6,4.3c-1.1,1.4,-2.3,3.2,-3.7,5.3c-1.3,2.1,-2.7,4.6,-3.8,7.4c-1.2,2.8,-2.1,6,-2.3,9.3c-.1,1.6,0,3.3,.3,4.9c.4,1.6,.9,3.3,1.7,4.8c1.5,3,3.8,5.8,6.5,8.2c.6,.6,1.4,1.2,2.1,1.7c.7,.6,1.4,1.2,2.2,1.7c1.6,1.1,3.2,2.2,4.8,3.3c.4,.3,.8,.6,1.3,1l1.2,1.1c.4,.3,.9,.6,1.3,1l1.1,1.2l1.2,1.2c.4,.4,.7,.8,1.1,1.3l1,1.3c.4,.4,.7,.9,1,1.4c2.6,3.8,4.3,8.4,4.9,13.1c.6,4.7,0,9.2,-1,13.1c-1.1,3.9,-2.6,7.3,-4.2,10.2c-1.5,2.9,-3.2,5.3,-4.8,7.4c-1.5,2,-3,3.7,-4.2,5c-1.2,1.3,-2.3,2.2,-3,2.9c-.7,.6,-.8,1.6,-.8,1.6Z" /></clipPath>

<style type="text/css"><![CDATA[
text { white-space: pre; }
path, image { pointer-events: none; }
text::-moz-selection {
	color: transparent;
	background: rgba(0, 106, 173, 0.4);
}
text::selection {
	color: transparent;
	background: rgba(0, 106, 173, 0.4);
}

.s1_1{
font-size: 58.67px;
font-family: DINCondensed-Bold_f;
fill: TRANSPARENT;
}

.g0_1{
fill: #DD0331;
}
.g1_1{
fill: #C30F2E;
}
.g2_1{
fill: #90091D;
fill-opacity: 0.65000004;
}
.g3_1{
fill: #FFFFFF;
}

]]></style>

</defs>
<g clip-path="url(#c_1)">
<path d="M0,0
L0,592
L592,592
L592,0 Z " 
fill="#FFFFFF" stroke="none" />
<g clip-path="url(#c0_1)">
<path d="M44.3,24.4H548.8V567.1H44.3Z" class="g0_1" />
</g>
<g clip-path="url(#c1_1)">
<path d="M287.7,24.4H548.8V567.1H287.7Z" class="g1_1" />
</g>
<g clip-path="url(#c2_1)">
<path d="M186.5,221.5H404.9V477.3H186.5Z" class="g2_1" />
</g>
<g clip-path="url(#c3_1)">
<path d="M257.5,93.7h181V497.5h-181Z" class="g3_1" />
</g>
<g clip-path="url(#c4_1)">
<path d="M153.8,497.5H334.1V93.7H153.8V497.5Z" class="g3_1" />
</g>
<g clip-path="url(#c5_1)">
<g fill="#FFFFFF" >
<use xlink:href="#f0_5" transform="matrix(38.4,0,0,38.4,225.9,427.1)" />
<use xlink:href="#f0_6" transform="matrix(38.4,0,0,38.4,245.4,427.1)" />
<use xlink:href="#f0_4" transform="matrix(38.4,0,0,38.4,270.4,427.1)" />
<use xlink:href="#f0_3" transform="matrix(38.4,0,0,38.4,295.4,427.1)" />
<use xlink:href="#f0_2" transform="matrix(38.4,0,0,38.4,320.4,427.1)" />
<use xlink:href="#f0_7" transform="matrix(38.4,0,0,38.4,342.1,427.1)" />
</g>
</g>
<text x="225" y="427" class="s1_1">TURKEY</text>
<g clip-path="url(#c6_1)">
<path d="M219.9,249h151V391.5h-151Z" class="g3_1" />
</g>
<g clip-path="url(#c7_1)">
<path d="M249.9,35.6H348V137.3H249.9Z" class="g3_1" />
</g>
<g clip-path="url(#c8_1)">
<path d="M266.8,75.6h52.1v129H266.8Z" class="g3_1" />
</g>

</g>
<defs>
<path d="M176,0V942H-3v146H512V942H331V0Z" 
id="f0_5"
transform="scale(0.001,-0.001)" />

<path d="M325,-8c0,0,-52,0,-98,19c0,0,-45,20,-80,54c0,0,-34,35,-54,81c0,0,-20,45,-20,99v843H229V260c0,0,0,-58,27,-86c0,0,28,-27,69,-27c0,0,41,0,69,27c0,0,27,28,27,86v828H577V245c0,0,0,-54,-20,-99c0,0,-20,-46,-54,-81c0,0,-34,-34,-80,-54c0,0,-46,-19,-98,-19Z" 
id="f0_6"
transform="scale(0.001,-0.001)" />

<path d="M318,602c0,0,41,0,65,12c0,0,25,11,38,33c0,0,13,21,17,52c0,0,5,32,5,73c0,0,0,41,-5,73c0,0,-4,31,-19,53c0,0,-14,22,-40,33c0,0,-26,11,-69,11H229V602ZM73,0V1088H324c0,0,274,0,274,-319c0,0,0,-95,-29,-163c0,0,-30,-68,-105,-109L632,0H467L322,464H229V0Z" 
id="f0_4"
transform="scale(0.001,-0.001)" />

<path d="M73,0V1088H229V592h3l227,496H615L403,653L655,0H490L313,483L229,326V0Z" 
id="f0_3"
transform="scale(0.001,-0.001)" />

<path d="M73,0V1088H537V942H229V622H498V475H229V155H537V0Z" 
id="f0_2"
transform="scale(0.001,-0.001)" />

<path d="M219,0V460L5,1088H170L295,656h3l125,432H588L374,460V0Z" 
id="f0_7"
transform="scale(0.001,-0.001)" />


</defs>

<!-- Any embedded fonts defined here -->
<style type="text/css" ><![CDATA[

@font-face {
	font-family: DINCondensed-Bold_f;
	src: url("fonts/DINCondensed-Bold_f.woff") format("woff");
}

]]></style>

</svg>
