<svg xmlns="http://www.w3.org/2000/svg" viewBox="0 0 92.18902 83.27461"><title>ng-vikings</title><path d="M65.25835,106.38173c-.65674.62688-1.10565-.06486-1.56429-.30352-9.31637-4.8479-18.6139-9.732-27.93514-14.57049a2.34929,2.34929,0,0,1-1.44526-2.02507c-.45119-3.81585-.95681-7.62682-1.53919-11.42472-.19036-1.24141.682-1.07768,1.29194-1.17836,3.96853-.655,7.9431-1.27423,11.919-1.88383q9.43277-1.44627,18.86959-2.86613-.00055,6.46461-.00111,12.92921c-1.66589.48338-3.32811.98-4.99941,1.44388-.704.19541-1.18859.394-.42547,1.13208,1.85077,1.79012,3.40257,3.87589,5.42748,5.49452-.00087,3.80752-.01179,7.61508.00742,11.4225C64.867,105.17547,64.62961,105.881,65.25835,106.38173Z" transform="translate(-18.90549 -23.36314)" fill="#e36826"/><path d="M64.85386,85.05883q.00056-6.46461.00111-12.92921c3.90527.26719,7.70686,1.20316,11.55735,1.81926,6.176.9882,12.32491,2.14528,18.49969,3.14157,1.4318.231,1.83456.66535,1.57927,2.18541-.53755,3.20065-.81758,6.44593-1.15406,9.678a1.90009,1.90009,0,0,1-1.07571,1.68726Q79.9189,98.44333,65.607,106.302a1.31429,1.31429,0,0,1-.34864.0797c-.62876-.50077-.39134-1.20626-.39448-1.82991-.01921-3.80742-.00829-7.615-.00741-11.42251l8.13286-9.546-.35721-.401Z" transform="translate(-18.90549 -23.36314)" fill="#df6026"/><path d="M65.35295,33.63684c6.174,2.15715,12.37612,4.23842,18.50675,6.51246a9.69889,9.69889,0,0,0,6.31387.20432c7.14005-2.02579,12.43308-6.62476,17.0652-12.14811,1.2185-1.45293,2.32894-2.9965,3.75464-4.84237.51838,7.9504-.905,14.93965-5.46424,21.11312-.71231.96451-1.53837,1.84809-2.344,2.74a13.51153,13.51153,0,0,1-10.24025,4.64465c-8.47159.25609-16.92717,1.03763-25.39009,1.591-.89687.05865-1.79859.04326-2.69805.06222-.001-5.96336-.01038-11.92676.00863-17.89006C64.86755,34.94159,64.5875,34.14878,65.35295,33.63684Z" transform="translate(-18.90549 -23.36314)" fill="#2b56a5"/><path d="M65.35295,33.63685c-.76545.51194-.4854,1.30475-.48758,1.98725-.019,5.9633-.0096,11.92669-.00863,17.89006q-12.16682-.768-24.3335-1.53829c-2.40359-.15355-4.804-.36137-7.20885-.48823a3.749,3.749,0,0,1-1.976-.67972C23.06583,45.335,19.4318,37.38457,18.984,27.74139a9.19873,9.19873,0,0,1,.33938-4.137,70.886,70.886,0,0,0,5.14107,6.51563c4.278,4.61239,9.08428,8.40964,15.26246,10.19649a9.22893,9.22893,0,0,0,6.13624-.16546c5.84515-2.21293,11.75767-4.24888,17.65831-6.31261C64.08117,33.64271,64.67593,33.04429,65.35295,33.63685Z" transform="translate(-18.90549 -23.36314)" fill="#2f5eab"/><path d="M64.85322,55.08654c10.436-.70783,20.87294-1.40132,31.30644-2.14359,1.16343-.08277,1.51524.06618,1.34877,1.39064Q96.25,64.34548,95.23669,74.38749c-.14608,1.42436-.80156,1.23978-1.80152,1.06533q-14.285-2.49218-28.582-4.915Q64.85319,62.8122,64.85322,55.08654Zm6.05856,2.47685-.10271.33227,13.53757,8.31846c.36192-2.73293.67323-5.22869,1.03409-7.71727.10355-.71409-.0944-.94885-.82211-.94515C80.00977,57.57484,75.46074,57.56339,70.91177,57.56339Z" transform="translate(-18.90549 -23.36314)" fill="#c22034"/><path d="M64.85322,55.08654q0,7.72566-.00008,15.45131-10.31683,1.64845-20.6338,3.296c-2.78723.44417-5.581.85-8.36139,1.33283-.87845.15254-1.27944.06173-1.3892-.97287Q33.40413,64.15917,32.193,54.1406c-.13773-1.12518.15626-1.29487,1.17736-1.22238Q49.10942,54.03564,64.85322,55.08654ZM44.63389,66.239l13.59166-8.38008c-4.60542-.29719-9.0512-.29151-13.49693-.303-.70976-.00183-1.298-.05273-1.13359,1.00882C43.98024,61.0516,44.27625,63.55224,44.63389,66.239Z" transform="translate(-18.90549 -23.36314)" fill="#dc1e3a"/><path d="M64.85386,85.05883l7.77826-1.87656.35721.401-8.13286,9.546c-2.02492-1.61862-3.57671-3.7044-5.42749-5.49451-.76312-.73812-.27853-.93667.42547-1.13208C61.52575,86.0388,63.188,85.54221,64.85386,85.05883Z" transform="translate(-18.90549 -23.36314)" fill="#fcf9f6"/><path d="M70.91177,57.56339c4.549,0,9.098.01145,13.64685-.01168.72771-.0037.92566.23106.82211.94515-.36086,2.48858-.67217,4.98434-1.03409,7.71727L70.80907,57.89566Z" transform="translate(-18.90549 -23.36314)" fill="#fbf9fc"/><path d="M44.63389,66.239c-.35764-2.68678-.65366-5.18742-1.03887-7.67425-.16444-1.06154.42383-1.01065,1.13359-1.00882,4.44574.01148,8.89152.0058,13.49693.303Z" transform="translate(-18.90549 -23.36314)" fill="#fbf8fa"/></svg>