<svg xmlns="http://www.w3.org/2000/svg" height="793.70135" width="1122.52"><defs><clipPath id="a"><path d="M0 595.276h841.89V0H0z"/></clipPath></defs><g clip-path="url(#a)" transform="matrix(1.33333 0 0 -1.33333 0 793.7)"><path d="M439.9902 234.5729c-.895-.854-1.506.089-2.13.413-12.688 6.603-25.351 13.255-38.046 19.845-1.211.629-1.804 1.368-1.968 2.758-.614 5.196-1.303 10.386-2.096 15.559-.26 1.691.928 1.468 1.759 1.605 5.405.892 10.818 1.735 16.233 2.565 8.564 1.314 17.133 2.604 25.699 3.903-.001-5.869-.001-11.738-.002-17.608-2.268-.658-4.532-1.334-6.808-1.966-.959-.266-1.62-.537-.579-1.542 2.52-2.438 4.633-5.279 7.391-7.483-.001-5.186-.016-10.371.01-15.557.005-.849-.319-1.809.537-2.492" fill="#e46825"/><path d="M439.4395 263.6129c.001 5.87.001 11.739.002 17.608 5.318-.363 10.496-1.637 15.74-2.477 8.411-1.346 16.785-2.922 25.196-4.278 1.949-.315 2.498-.907 2.15-2.977-.733-4.358-1.113-8.778-1.571-13.181-.113-1.073-.465-1.753-1.466-2.298-13.022-7.084-26.019-14.214-39.025-21.329-.137-.074-.316-.074-.475-.108-.857.683-.532 1.643-.537 2.492-.027 5.186-.011 10.371-.01 15.557 3.692 4.334 7.384 8.667 11.076 13.001l-.486.546c-3.532-.852-7.063-1.703-10.594-2.556" fill="#e16025"/><path d="M440.1191 333.6461c8.409-2.938 16.855-5.772 25.205-8.87 2.939-1.089 5.668-1.109 8.599-.278 9.724 2.759 16.933 9.023 23.242 16.545 1.659 1.979 3.172 4.081 5.113 6.595.706-10.828-1.232-20.347-7.442-28.755-.97-1.313-2.095-2.516-3.193-3.731-3.728-4.128-8.161-6.151-13.946-6.326-11.537-.348-23.054-1.413-34.579-2.167-1.222-.079-2.449-.059-3.675-.084-.001 8.121-.013 16.243.012 24.364.003.93-.378 2.01.664 2.707" fill="#2956a6"/><path d="M440.1191 333.6461c-1.042-.697-.661-1.777-.664-2.707-.025-8.121-.013-16.243-.012-24.364-11.047.697-22.094 1.389-33.14 2.094-3.273.209-6.542.493-9.818.665-1.021.054-1.831.357-2.691.926-11.267 7.454-16.216 18.282-16.826 31.415-.08 1.742-.347 3.549.463 5.634 2.342-3.208 4.502-6.179 7.001-8.873 5.827-6.282 12.372-11.454 20.787-13.887 2.851-.825 5.493-.859 8.357.225 7.96 3.014 16.013 5.787 24.049 8.597.763.267 1.572 1.082 2.494.275" fill="#2e5dab"/><path d="M447.6904 301.0597c-.047-.151-.094-.301-.141-.452 6.078-3.735 12.156-7.469 18.438-11.33.493 3.723.917 7.122 1.408 10.511.142.972-.128 1.292-1.119 1.287-6.195-.032-12.391-.016-18.586-.016m-8.252 3.374c14.213.963 28.428 1.908 42.638 2.919 1.584.113 2.063-.09 1.837-1.894-1.143-9.09-2.16-18.197-3.095-27.312-.198-1.94-1.091-1.688-2.453-1.451-12.97 2.263-25.949 4.471-38.927 6.694z" fill="#c32033"/><path d="M411.9014 289.2448c6.308 3.889 12.409 7.651 18.511 11.413-6.272.404-12.327.397-18.382.412-.966.003-1.768.072-1.544-1.374.525-3.387.928-6.792 1.415-10.451m27.537 15.188v-21.043c-9.367-1.497-18.734-2.997-28.101-4.489-3.796-.605-7.601-1.158-11.388-1.815-1.196-.208-1.742-.084-1.892 1.325-.967 9.11-1.986 18.217-3.099 27.311-.188 1.532.213 1.763 1.603 1.665 14.29-1.015 28.584-1.977 42.877-2.954" fill="#de1d39"/><path d="M439.4395 263.6129c3.531.853 7.062 1.704 10.594 2.556l.486-.546c-3.692-4.334-7.384-8.667-11.076-13.001-2.758 2.204-4.871 5.045-7.392 7.483-1.04 1.005-.38 1.276.579 1.542 2.277.632 4.54 1.308 6.809 1.966" fill="#fdfaf7"/><path d="M447.6904 301.0597c6.195 0 12.391-.016 18.586.016.991.005 1.261-.315 1.119-1.287-.491-3.389-.915-6.788-1.408-10.511-6.282 3.861-12.36 7.595-18.438 11.33.047.151.094.301.141.452" fill="#fdfafc"/><path d="M411.9014 289.2448c-.487 3.659-.89 7.064-1.415 10.451-.224 1.446.578 1.377 1.544 1.374 6.055-.015 12.11-.008 18.382-.412-6.102-3.762-12.203-7.524-18.511-11.413" fill="#fdfafb"/></g></svg>