<?xml version="1.0" encoding="utf-8"?>
<!-- Generator: Adobe Illustrator 21.0.0, SVG Export Plug-In . SVG Version: 6.00 Build 0)  -->
<svg version="1.1" id="Layer_1" xmlns="http://www.w3.org/2000/svg" xmlns:xlink="http://www.w3.org/1999/xlink" x="0px" y="0px"
	 viewBox="0 0 500 500" style="enable-background:new 0 0 500 500;" xml:space="preserve">
<style type="text/css">
	.st0{fill:#ED1983;}
	.st1{fill:#FEE600;}
	.st2{fill:#32C5F4;}
</style>
<g>
	<g>
		<g>
			<path class="st0" d="M209.5,339.5c-53.6,0-102.7-29.3-128.2-76.4c-1.1-2-0.3-4.6,1.7-5.6c2-1.1,4.6-0.3,5.6,1.7
				c24.1,44.4,70.4,72,120.9,72c36.7,0,71.2-14.3,97.2-40.2c26-26,40.2-60.5,40.2-97.2c0-36.7-14.3-71.2-40.2-97.2
				c-26-26-60.5-40.2-97.2-40.2c-29.5,0-57.6,9.2-81.3,26.6c-11.4,8.4-21.4,18.4-29.8,29.9c-8.4,11.6-15,24.3-19.5,37.9
				c-0.5,1.6-1,3.1-1.5,4.7c-0.6,2.2-3,3.5-5.2,2.8c-2.2-0.6-3.5-3-2.8-5.2c0.5-1.7,1-3.3,1.5-5c4.7-14.4,11.7-27.9,20.6-40.2
				c8.8-12.1,19.5-22.8,31.6-31.7c25.1-18.5,55-28.3,86.3-28.3c19.7,0,38.8,3.9,56.7,11.5c17.4,7.3,32.9,17.8,46.3,31.2
				c13.4,13.4,23.9,29,31.2,46.3c7.6,18,11.5,37.1,11.5,56.7c0,19.7-3.9,38.8-11.5,56.7c-7.3,17.4-17.8,32.9-31.2,46.3
				c-13.4,13.4-29,23.9-46.3,31.2C248.2,335.7,229.1,339.5,209.5,339.5z"/>
		</g>
		<g>
			<path class="st0" d="M209.5,356.1c-47.7,0-92.8-20.9-123.7-57.3c-1.5-1.8-1.3-4.4,0.5-5.9c1.8-1.5,4.4-1.3,5.9,0.5
				c29.3,34.5,72.1,54.3,117.4,54.3c20.8,0,40.9-4.1,59.9-12.1c18.3-7.8,34.8-18.9,48.9-33c14.1-14.1,25.2-30.6,33-48.9
				c8-19,12.1-39.1,12.1-59.9s-4.1-40.9-12.1-59.9c-7.8-18.3-18.9-34.8-33-48.9c-14.1-14.1-30.6-25.2-48.9-33
				c-19-8-39.1-12.1-59.9-12.1c-56.5,0-108.4,30.9-135.4,80.6c-1.1,2-3.6,2.8-5.7,1.7c-2-1.1-2.8-3.6-1.7-5.7
				c28.5-52.4,83.1-84.9,142.7-84.9c21.9,0,43.2,4.3,63.2,12.8c19.3,8.2,36.7,19.9,51.6,34.8c14.9,14.9,26.6,32.3,34.8,51.6
				c8.5,20,12.8,41.3,12.8,63.2S367.5,237,359,257c-8.2,19.3-19.9,36.7-34.8,51.6c-14.9,14.9-32.3,26.6-51.6,34.8
				C252.6,351.8,231.4,356.1,209.5,356.1z"/>
		</g>
		<g>
			<path class="st0" d="M209.5,373.1c-15.8,0-31.4-2-46.5-6.1c-2.2-0.6-3.5-2.9-2.9-5.1c0.6-2.2,2.9-3.5,5.1-2.9
				c14.4,3.9,29.3,5.8,44.3,5.8c23.1,0,45.5-4.5,66.5-13.4c20.4-8.6,38.6-20.9,54.3-36.6c15.7-15.7,28-34,36.6-54.3
				c8.9-21.1,13.4-43.5,13.4-66.5c0-42.5-15.7-83.2-44.2-114.7C308,47.9,269.5,28.2,227.8,23.8c-2.3-0.2-3.9-2.3-3.7-4.6
				c0.2-2.3,2.3-3.9,4.6-3.7c43.7,4.7,84.2,25.3,113.8,58c29.9,33,46.3,75.7,46.3,120.3c0,24.2-4.7,47.7-14.1,69.8
				c-9,21.4-22,40.5-38.4,57c-16.5,16.5-35.6,29.4-57,38.4C257.2,368.4,233.7,373.1,209.5,373.1z"/>
		</g>
		<g>
			<path class="st0" d="M67,96.1c-0.8,0-1.7-0.3-2.4-0.8c-1.9-1.3-2.3-3.9-1-5.8c1-1.4,2-2.8,3.1-4.1c4.7-6.1,9.8-12,15.2-17.5
				c1.6-1.6,4.3-1.7,5.9,0c1.6,1.6,1.7,4.3,0,5.9c-5.2,5.2-10,10.8-14.5,16.7c-1,1.3-2,2.6-2.9,3.9C69.6,95.5,68.3,96.1,67,96.1z"/>
		</g>
		<g>
			<path class="st0" d="M209.5,389.6c-1.4,0-2.7,0-4.1,0c-2.3,0-4.1-2-4.1-4.3c0-2.3,2-4.1,4.3-4.1c1.3,0,2.6,0,3.9,0
				c25.3,0,49.9-5,73-14.7c22.3-9.4,42.4-23,59.6-40.2s30.7-37.3,40.2-59.6c9.8-23.1,14.7-47.7,14.7-73c0-30.7-7.6-61.2-22-88.2
				c-13.9-26.1-34.2-48.8-58.5-65.8c-1.9-1.3-2.4-3.9-1-5.8c1.3-1.9,3.9-2.4,5.8-1c25.4,17.7,46.5,41.4,61.1,68.7
				c15,28.1,23,60,23,92.1c0,26.4-5.2,52.1-15.4,76.2c-9.9,23.3-24,44.2-42,62.2c-18,18-38.9,32.1-62.2,42
				C261.5,384.4,235.9,389.6,209.5,389.6z"/>
		</g>
		<g>
			<path class="st0" d="M233.3,404.9c-2.1,0-3.9-1.6-4.1-3.7c-0.3-2.3,1.4-4.4,3.7-4.6c49.4-5.6,95.1-29.2,128.5-66.4
				c33.7-37.5,52.2-85.9,52.2-136.3c0-51.6-19.3-100.9-54.4-138.7c-1.6-1.7-1.5-4.3,0.2-5.9c1.7-1.6,4.3-1.5,5.9,0.2
				c36.5,39.4,56.6,90.6,56.6,144.4c0,52.5-19.3,102.9-54.3,141.9c-34.8,38.7-82.3,63.3-133.7,69.1
				C233.7,404.9,233.5,404.9,233.3,404.9z"/>
		</g>
		<g>
			<path class="st0" d="M389.2,337.2c-0.9,0-1.8-0.3-2.5-0.9c-1.8-1.4-2.2-4-0.7-5.8c7.8-10.1,14.8-20.9,20.8-32.2
				c1.1-2,3.6-2.8,5.6-1.7c2,1.1,2.8,3.6,1.7,5.6c-6.2,11.7-13.4,22.9-21.5,33.4C391.6,336.7,390.4,337.2,389.2,337.2z"/>
		</g>
		<g>
			<path class="st0" d="M429.1,140.9c-1.8,0-3.5-1.2-4-3.1c-6.8-25.9-18.2-50.2-33.8-72.2c-1.3-1.9-0.9-4.5,1-5.8
				c1.9-1.3,4.5-0.9,5.8,1c16.2,22.8,28,48,35,74.9c0.6,2.2-0.7,4.5-3,5.1C429.8,140.9,429.4,140.9,429.1,140.9z"/>
		</g>
		<g>
			<path class="st0" d="M433.2,101.9c-1.6,0-3.1-0.9-3.8-2.5c-3.6-8.3-7.7-16.4-12.2-24.2c-1.1-2-0.5-4.5,1.5-5.7
				c2-1.1,4.5-0.5,5.7,1.5c4.7,8.1,8.9,16.5,12.6,25.1c0.9,2.1-0.1,4.6-2.2,5.5C434.3,101.8,433.7,101.9,433.2,101.9z"/>
		</g>
	</g>
	<g>
		<path class="st1" d="M209.4,322.7c-34.3,0-66.6-13.3-90.9-37.6c-24.5-24.4-37.9-56.8-37.9-91.3c0-34.4,13.4-66.8,37.8-91.1
			c24.3-24.3,56.7-37.8,91.1-37.8c43.5,0,83.7,21.7,107.7,58c3,4.5,2.7,10.1-0.6,14.4c-3.3,4.2-8.7,5.7-13.8,3.9l-0.7-0.3
			c-2.5-0.9-4.5-2.5-6-4.7c-19.4-29.1-51.7-46.4-86.6-46.4c-0.2,0-0.5,0-0.7,0c-57,0.4-103.3,47.1-103.2,104.1
			c0,27.7,10.9,53.8,30.5,73.4c19.6,19.6,45.7,30.4,73.5,30.4c30.3,0,59-13.2,78.8-36.2c1.5-1.7,0.8-3.6,0.6-4.1
			c-0.2-0.5-1.2-2.3-3.4-2.3l-0.8,0c-1.2,0-2.3,0.5-3.1,1.4c-18.1,20.8-44.3,32.8-71.8,32.8c-0.1,0-0.2,0-0.3,0
			c-25.5,0-49.5-9.9-67.5-27.8c-18-18-28-42-28-67.6c0-25.5,9.9-49.5,27.9-67.6c18-18.1,42-28,67.6-28c24.6,0,47.9,9.3,65.8,26.3
			c3.1,2.9,4.4,7.2,3.6,11.3c-0.8,4.2-3.7,7.5-7.7,9l-0.2,0.1c-4.4,1.6-9.3,0.6-12.7-2.6c-13.4-12.7-31-19.6-49.5-19.4
			c-18.8,0.2-36.4,7.7-49.6,21c-13.2,13.3-20.4,31-20.4,49.8c0,39.1,31.8,70.8,70.8,70.8c16.5,0,32.5-5.8,45.2-16.3
			c0.9-0.8,1.4-1.9,1.4-3.1c0-1.2-0.6-2.3-1.5-3l-0.5-0.4c-1.4-1.1-3.5-1.1-4.9,0.1c-11,9.1-25,14.1-39.3,14.2c-0.1,0-0.2,0-0.3,0
			c-34.2,0-62.1-27.7-62.3-61.9c-0.1-16.7,6.3-32.5,18.1-44.4c11.8-11.9,27.5-18.4,44.2-18.4c16.9,0,32.8,6.7,44.6,18.8
			c1.6,1.6,1.6,4.3-0.1,5.9s-4.3,1.6-5.9-0.1c-10.3-10.5-24-16.3-38.7-16.3c-14.5,0-28.1,5.7-38.3,16
			c-10.2,10.3-15.8,23.9-15.7,38.4c0.2,29.6,24.4,53.6,54,53.6c0.1,0,0.2,0,0.3,0c12.4-0.1,24.5-4.4,34-12.3
			c4.5-3.7,10.7-3.8,15.3-0.3l0.5,0.4c3,2.3,4.7,5.7,4.8,9.5c0.1,3.7-1.5,7.3-4.4,9.6c-14.1,11.7-32.1,18.2-50.5,18.2
			c-43.6,0-79.2-35.5-79.2-79.2c0-21,8.1-40.8,22.8-55.7c14.7-14.9,34.4-23.2,55.4-23.4c20.7-0.2,40.4,7.5,55.4,21.7
			c1.1,1,2.6,1.3,4,0.8l0.2-0.1c1.8-0.7,2.3-2.2,2.5-2.9c0.1-0.6,0.3-2.3-1.1-3.6c-16.3-15.4-37.6-24-60-24
			c-23.3,0-45.2,9.1-61.7,25.6c-16.5,16.5-25.5,38.4-25.5,61.7c0,23.4,9.1,45.3,25.6,61.7c16.5,16.4,38.4,25.4,61.8,25.3
			c25.1-0.1,49-11,65.5-30c2.4-2.8,6-4.3,9.7-4.2l0.8,0c4.7,0.2,8.9,3,10.8,7.3c1.9,4.4,1.2,9.3-1.9,12.9
			c-21.4,24.8-52.4,39.1-85.1,39.1c-30,0-58.1-11.7-79.3-32.8c-21.2-21.2-32.9-49.3-33-79.3C97,132.4,147,81.9,208.6,81.5
			c0.3,0,0.5,0,0.8,0c37.7,0,72.6,18.7,93.5,50.1c0.5,0.7,1.1,1.2,1.9,1.5l0.7,0.3c2.5,0.9,4-0.7,4.4-1.2c0.4-0.5,1.6-2.4,0.2-4.6
			c-22.4-34-60.1-54.3-100.7-54.3c-32.2,0-62.5,12.5-85.2,35.3c-22.8,22.8-35.3,53-35.3,85.2c0,32.3,12.6,62.6,35.5,85.4
			c22.8,22.7,53,35.2,85.1,35.2c0.2,0,0.3,0,0.5,0c48-0.2,91.3-28.8,110.3-73c0.9-2.1,3.4-3.1,5.5-2.2c2.1,0.9,3.1,3.4,2.2,5.5
			c-20.3,47.2-66.6,77.8-118,78C209.7,322.7,209.6,322.7,209.4,322.7z"/>
	</g>
	<g>
		<g>
			<path class="st2" d="M292.9,239.6c-25.3,0-45.8-20.6-45.8-45.8s20.6-45.8,45.8-45.8c25.3,0,45.8,20.6,45.8,45.8
				S318.1,239.6,292.9,239.6z M292.9,156.3c-20.7,0-37.5,16.8-37.5,37.5s16.8,37.5,37.5,37.5s37.5-16.8,37.5-37.5
				S313.5,156.3,292.9,156.3z"/>
		</g>
		<g>
			<path class="st2" d="M292.9,222.5c-15.8,0-28.7-12.9-28.7-28.7c0-15.8,12.9-28.7,28.7-28.7s28.7,12.9,28.7,28.7
				C321.6,209.6,308.7,222.5,292.9,222.5z M292.9,173.4c-11.3,0-20.4,9.2-20.4,20.4c0,11.3,9.2,20.4,20.4,20.4s20.4-9.2,20.4-20.4
				C313.3,182.5,304.1,173.4,292.9,173.4z"/>
		</g>
		<g>
			<path class="st2" d="M209.5,239.6c-0.3,0-0.6,0-0.9,0c-11.9-0.2-23.1-5.1-31.5-13.6c-8.4-8.5-13.2-19.7-13.3-31.6
				c-0.2-12.4,4.5-24,13.2-32.8c8.7-8.8,20.3-13.7,32.6-13.7c10.3,0,20.1,3.3,28.2,9.7c5.3,4.1,6.4,11.8,2.6,17.3l0,0l-0.2,0.3
				c-2.1,2.8-5.1,4.5-8.5,5c-3.4,0.5-6.8-0.5-9.5-2.6c-3.8-2.9-8.3-4.4-13.2-4.3c-10.6,0.3-19.3,8.9-19.7,19.4
				c-0.3,5.6,1.7,11,5.6,15.1c3.9,4.1,9.1,6.3,14.8,6.3c4.6,0,8.9-1.5,12.5-4.3c2.7-2.1,6.1-3,9.5-2.6c3.4,0.5,6.4,2.2,8.5,5
				c4.1,5.5,3,13.4-2.4,17.6v0C229.7,236.2,219.7,239.6,209.5,239.6z M209.6,156.3c-10.1,0-19.6,4-26.7,11.2
				c-7.1,7.2-10.9,16.7-10.8,26.9c0.1,9.7,4,18.9,10.9,25.9c6.9,7,16.1,10.9,25.8,11.1c8.7,0.2,17-2.6,23.8-7.9v0
				c1.9-1.4,2.2-4.2,0.8-6.1c-0.7-0.9-1.7-1.6-2.9-1.7c-1.2-0.2-2.4,0.2-3.3,0.9c-5.1,4-11.2,6-17.6,6c-7.9,0-15.3-3.2-20.8-8.9
				c-5.5-5.7-8.3-13.3-7.9-21.2c0.7-14.9,12.9-26.9,27.8-27.4c6.7-0.2,13.3,1.9,18.5,6c0.9,0.7,2.1,1.1,3.3,0.9
				c1.2-0.2,2.2-0.8,2.9-1.7l0,0c1.4-1.9,1.1-4.6-0.8-6.1C226,159,218,156.3,209.6,156.3z M235.2,226.7L235.2,226.7L235.2,226.7z"/>
		</g>
	</g>
	<g>
		<path class="st0" d="M118.7,419.4h9.8l17.9,29.8h0.5l-0.5-8.6v-21.2h8.3v44.5h-8.8l-18.9-31.5h-0.5l0.5,8.6v22.9h-8.3V419.4z"/>
		<path class="st0" d="M182.5,439.5h21.8c0.1,0.5,0.2,1.1,0.3,1.8c0.1,0.7,0.1,1.4,0.1,2.1c0,2.9-0.4,5.6-1.3,8.1
			c-0.9,2.5-2.2,4.8-4.1,6.8c-2,2.1-4.4,3.7-7.1,4.9c-2.8,1.2-5.9,1.7-9.5,1.7c-3.2,0-6.3-0.6-9.1-1.7c-2.9-1.2-5.3-2.8-7.5-4.8
			c-2.1-2.1-3.8-4.5-5-7.4c-1.2-2.8-1.9-5.9-1.9-9.3c0-3.4,0.6-6.5,1.9-9.3c1.2-2.8,2.9-5.3,5-7.4c2.1-2.1,4.6-3.7,7.5-4.8
			c2.9-1.2,5.9-1.7,9.1-1.7c3.6,0,6.8,0.6,9.7,1.9s5.3,3,7.3,5.2l-5.8,5.7c-1.5-1.5-3.1-2.7-4.8-3.5c-1.8-0.8-3.9-1.2-6.4-1.2
			c-2,0-4,0.4-5.8,1.1c-1.8,0.7-3.4,1.8-4.8,3.1c-1.4,1.3-2.5,2.9-3.3,4.8c-0.8,1.9-1.2,4-1.2,6.3c0,2.3,0.4,4.4,1.2,6.3
			c0.8,1.9,1.9,3.5,3.3,4.8c1.4,1.3,3,2.4,4.8,3.1c1.8,0.7,3.8,1.1,5.8,1.1c2.4,0,4.4-0.3,6-1c1.6-0.7,3-1.6,4.2-2.6
			c0.8-0.7,1.5-1.7,2.1-2.8c0.6-1.1,1.1-2.4,1.4-3.8h-14V439.5z"/>
		<path class="st0" d="M259.9,456.8c-2.2,2.7-4.8,4.7-7.8,6.1c-3,1.4-6.3,2.1-10,2.1c-3.3,0-6.4-0.6-9.2-1.8
			c-2.8-1.2-5.3-2.8-7.4-4.9c-2.1-2.1-3.7-4.5-4.9-7.4c-1.2-2.8-1.8-5.9-1.8-9.2c0-3.3,0.6-6.3,1.8-9.2c1.2-2.8,2.8-5.3,4.9-7.4
			c2.1-2.1,4.5-3.7,7.4-4.9c2.8-1.2,5.9-1.8,9.2-1.8c3.6,0,6.7,0.6,9.4,1.9c2.7,1.2,5.1,3,7.2,5.4l-5.9,5.7
			c-1.3-1.5-2.8-2.8-4.6-3.7c-1.7-0.9-3.8-1.4-6.1-1.4c-2.1,0-4,0.4-5.8,1.1c-1.8,0.7-3.4,1.8-4.8,3.1c-1.3,1.3-2.4,2.9-3.2,4.8
			c-0.8,1.9-1.2,4-1.2,6.3c0,2.3,0.4,4.4,1.2,6.3c0.8,1.9,1.9,3.5,3.2,4.8c1.3,1.3,2.9,2.4,4.8,3.1c1.8,0.7,3.8,1.1,5.8,1.1
			c2.5,0,4.7-0.5,6.6-1.5c1.9-1,3.6-2.5,5.1-4.3L259.9,456.8z"/>
		<path class="st0" d="M285.5,464.9c-3.3,0-6.4-0.6-9.2-1.8c-2.8-1.2-5.3-2.8-7.4-4.9c-2.1-2.1-3.7-4.6-4.9-7.4
			c-1.2-2.8-1.8-5.9-1.8-9.1c0-3.2,0.6-6.3,1.8-9.1c1.2-2.8,2.8-5.3,4.9-7.4c2.1-2.1,4.5-3.7,7.4-4.9c2.8-1.2,5.9-1.8,9.2-1.8
			c3.3,0,6.4,0.6,9.2,1.8c2.8,1.2,5.3,2.8,7.4,4.9c2.1,2.1,3.7,4.6,4.9,7.4c1.2,2.8,1.8,5.9,1.8,9.1c0,3.2-0.6,6.3-1.8,9.1
			c-1.2,2.8-2.8,5.3-4.9,7.4c-2.1,2.1-4.5,3.7-7.4,4.9C291.9,464.3,288.9,464.9,285.5,464.9z M285.5,457c2.1,0,4-0.4,5.8-1.1
			c1.8-0.7,3.4-1.8,4.7-3.1c1.3-1.3,2.4-2.9,3.2-4.8c0.8-1.9,1.1-4,1.1-6.2c0-2.3-0.4-4.4-1.1-6.2c-0.8-1.9-1.8-3.5-3.2-4.8
			c-1.3-1.3-2.9-2.4-4.7-3.1c-1.8-0.7-3.7-1.1-5.8-1.1s-4,0.4-5.8,1.1c-1.8,0.7-3.4,1.8-4.7,3.1c-1.3,1.3-2.4,2.9-3.2,4.8
			c-0.8,1.9-1.1,4-1.1,6.2c0,2.3,0.4,4.4,1.1,6.2c0.8,1.9,1.8,3.5,3.2,4.8c1.3,1.3,2.9,2.4,4.7,3.1S283.5,457,285.5,457z"/>
		<path class="st0" d="M314,419.4h9.8l17.9,29.8h0.5l-0.5-8.6v-21.2h8.3v44.5h-8.8l-18.9-31.5h-0.5l0.5,8.6v22.9H314V419.4z"/>
		<path class="st0" d="M357.4,419.4h28.2v8h-19.8v10.8h17.8v8h-17.8v17.8h-8.4V419.4z"/>
	</g>
	<g>
		<path class="st2" d="M131.9,482.8c-0.7,0.9-1.6,1.6-2.6,2c-1,0.5-2.1,0.7-3.4,0.7c-1.1,0-2.2-0.2-3.1-0.6s-1.8-1-2.5-1.7
			c-0.7-0.7-1.3-1.5-1.7-2.5c-0.4-1-0.6-2-0.6-3.1c0-1.1,0.2-2.1,0.6-3.1c0.4-1,1-1.8,1.7-2.5c0.7-0.7,1.5-1.3,2.5-1.7
			c1-0.4,2-0.6,3.1-0.6c1.2,0,2.3,0.2,3.2,0.6c0.9,0.4,1.7,1,2.4,1.8l-2,1.9c-0.4-0.5-1-0.9-1.5-1.2c-0.6-0.3-1.3-0.5-2.1-0.5
			c-0.7,0-1.4,0.1-2,0.4c-0.6,0.2-1.2,0.6-1.6,1c-0.5,0.4-0.8,1-1.1,1.6c-0.3,0.6-0.4,1.3-0.4,2.1c0,0.8,0.1,1.5,0.4,2.1
			c0.3,0.6,0.6,1.2,1.1,1.6c0.5,0.4,1,0.8,1.6,1c0.6,0.2,1.3,0.4,2,0.4c0.8,0,1.6-0.2,2.2-0.5c0.7-0.3,1.2-0.8,1.7-1.5L131.9,482.8z
			"/>
		<path class="st2" d="M149.5,485.6c-1.1,0-2.2-0.2-3.1-0.6c-1-0.4-1.8-1-2.5-1.7c-0.7-0.7-1.3-1.5-1.7-2.5c-0.4-1-0.6-2-0.6-3.1
			c0-1.1,0.2-2.1,0.6-3.1c0.4-1,0.9-1.8,1.7-2.5c0.7-0.7,1.5-1.3,2.5-1.7c1-0.4,2-0.6,3.1-0.6c1.1,0,2.2,0.2,3.1,0.6
			c1,0.4,1.8,1,2.5,1.7c0.7,0.7,1.3,1.5,1.7,2.5c0.4,1,0.6,2,0.6,3.1c0,1.1-0.2,2.1-0.6,3.1c-0.4,1-0.9,1.8-1.7,2.5
			c-0.7,0.7-1.5,1.3-2.5,1.7C151.6,485.4,150.6,485.6,149.5,485.6z M149.5,482.9c0.7,0,1.4-0.1,2-0.4c0.6-0.3,1.1-0.6,1.6-1.1
			c0.5-0.4,0.8-1,1.1-1.6c0.3-0.6,0.4-1.3,0.4-2.1c0-0.8-0.1-1.5-0.4-2.1c-0.3-0.6-0.6-1.2-1.1-1.6c-0.5-0.4-1-0.8-1.6-1.1
			c-0.6-0.3-1.3-0.4-2-0.4c-0.7,0-1.4,0.1-2,0.4c-0.6,0.3-1.1,0.6-1.6,1.1c-0.5,0.4-0.8,1-1.1,1.6c-0.3,0.6-0.4,1.3-0.4,2.1
			c0,0.8,0.1,1.5,0.4,2.1c0.3,0.6,0.6,1.2,1.1,1.6c0.5,0.4,1,0.8,1.6,1.1C148.1,482.8,148.8,482.9,149.5,482.9z"/>
		<path class="st2" d="M168,470.2h2.8v12.4h6.4v2.7H168V470.2z"/>
		<path class="st2" d="M194.5,485.6c-1.1,0-2.2-0.2-3.1-0.6c-1-0.4-1.8-1-2.5-1.7c-0.7-0.7-1.3-1.5-1.7-2.5c-0.4-1-0.6-2-0.6-3.1
			c0-1.1,0.2-2.1,0.6-3.1c0.4-1,0.9-1.8,1.7-2.5c0.7-0.7,1.5-1.3,2.5-1.7c1-0.4,2-0.6,3.1-0.6c1.1,0,2.2,0.2,3.1,0.6
			c1,0.4,1.8,1,2.5,1.7c0.7,0.7,1.3,1.5,1.7,2.5c0.4,1,0.6,2,0.6,3.1c0,1.1-0.2,2.1-0.6,3.1c-0.4,1-0.9,1.8-1.7,2.5
			c-0.7,0.7-1.5,1.3-2.5,1.7C196.6,485.4,195.6,485.6,194.5,485.6z M194.5,482.9c0.7,0,1.4-0.1,2-0.4c0.6-0.3,1.1-0.6,1.6-1.1
			c0.5-0.4,0.8-1,1.1-1.6c0.3-0.6,0.4-1.3,0.4-2.1c0-0.8-0.1-1.5-0.4-2.1c-0.3-0.6-0.6-1.2-1.1-1.6c-0.5-0.4-1-0.8-1.6-1.1
			c-0.6-0.3-1.3-0.4-2-0.4c-0.7,0-1.4,0.1-2,0.4s-1.1,0.6-1.6,1.1c-0.5,0.4-0.8,1-1.1,1.6c-0.3,0.6-0.4,1.3-0.4,2.1
			c0,0.8,0.1,1.5,0.4,2.1c0.3,0.6,0.6,1.2,1.1,1.6c0.5,0.4,1,0.8,1.6,1.1C193.1,482.8,193.8,482.9,194.5,482.9z"/>
		<path class="st2" d="M213,470.2h2.8l4.6,8h0.2l4.6-8h2.8v15.1h-2.8v-7.4l0.2-2.5h-0.2l-3.8,6.7h-1.7l-3.8-6.7h-0.2l0.2,2.5v7.4
			H213V470.2z"/>
		<path class="st2" d="M239.5,470.2h5.9c0.6,0,1.2,0.1,1.8,0.3c0.6,0.2,1,0.5,1.5,0.8c0.4,0.4,0.7,0.8,1,1.3c0.2,0.5,0.4,1,0.4,1.5
			c0,0.8-0.2,1.5-0.6,2c-0.4,0.5-0.9,0.9-1.4,1.2v0.2c0.8,0.3,1.4,0.7,1.9,1.3c0.5,0.6,0.7,1.3,0.7,2.2c0,0.6-0.1,1.2-0.4,1.7
			c-0.3,0.5-0.6,0.9-1.1,1.3c-0.4,0.4-1,0.6-1.6,0.8c-0.6,0.2-1.2,0.3-1.9,0.3h-6.1V470.2z M245.1,476.3c0.7,0,1.2-0.2,1.5-0.5
			c0.4-0.4,0.5-0.8,0.5-1.3c0-0.5-0.2-0.9-0.5-1.3c-0.4-0.4-0.8-0.5-1.5-0.5h-2.9v3.6H245.1z M245.5,482.6c0.7,0,1.3-0.2,1.6-0.5
			c0.4-0.4,0.6-0.8,0.6-1.4c0-0.6-0.2-1-0.6-1.4c-0.4-0.4-1-0.6-1.7-0.6h-3.1v3.9H245.5z"/>
		<path class="st2" d="M261.1,470.2h2.8v15.1h-2.8V470.2z"/>
		<path class="st2" d="M279.8,470.2h3.2l5.7,15.1h-3.1l-1.2-3.6h-5.8l-1.2,3.6h-3.1L279.8,470.2z M283.4,479l-1.3-3.8l-0.5-1.8h-0.2
			l-0.5,1.8l-1.3,3.8H283.4z"/>
		<path class="st2" d="M311.3,485.3v-2.5c0.8-0.8,1.6-1.6,2.3-2.3c0.3-0.3,0.6-0.6,0.9-0.9c0.3-0.3,0.6-0.6,0.9-0.9
			c0.3-0.3,0.5-0.5,0.7-0.7c0.2-0.2,0.4-0.4,0.5-0.5c0.2-0.3,0.4-0.5,0.6-0.7c0.2-0.2,0.3-0.4,0.4-0.6c0.1-0.2,0.2-0.4,0.2-0.6
			c0.1-0.2,0.1-0.4,0.1-0.7c0-0.5-0.2-0.9-0.5-1.2c-0.4-0.3-0.9-0.5-1.5-0.5s-1.1,0.2-1.5,0.5c-0.4,0.4-0.6,0.8-0.7,1.2l-2.5-1
			c0.1-0.4,0.3-0.8,0.5-1.2s0.6-0.8,1-1.1c0.4-0.3,0.9-0.6,1.4-0.8c0.5-0.2,1.1-0.3,1.8-0.3c0.7,0,1.4,0.1,2,0.3
			c0.6,0.2,1.1,0.5,1.5,0.9c0.4,0.4,0.7,0.8,0.9,1.3c0.2,0.5,0.3,1.1,0.3,1.7c0,0.9-0.2,1.7-0.7,2.5c-0.4,0.7-1,1.4-1.6,2.1
			l-1.8,1.8c-0.5,0.5-1,1-1.6,1.6l0.1,0.1h5.8v2.4H311.3z"/>
		<path class="st2" d="M337.2,485.6c-0.9,0-1.8-0.2-2.5-0.6c-0.7-0.4-1.4-0.9-1.9-1.6c-0.5-0.7-0.9-1.5-1.2-2.4
			c-0.3-0.9-0.4-1.9-0.4-3c0-1.1,0.1-2.1,0.4-3c0.3-0.9,0.7-1.7,1.2-2.4s1.2-1.2,1.9-1.6c0.7-0.4,1.6-0.6,2.5-0.6
			c0.9,0,1.8,0.2,2.5,0.6c0.7,0.4,1.4,0.9,1.9,1.6s0.9,1.5,1.2,2.4c0.3,0.9,0.4,1.9,0.4,3c0,1.1-0.1,2.1-0.4,3
			c-0.3,0.9-0.7,1.7-1.2,2.4c-0.5,0.7-1.2,1.2-1.9,1.6C338.9,485.4,338.1,485.6,337.2,485.6z M337.2,483c0.5,0,1-0.1,1.4-0.4
			c0.4-0.2,0.8-0.6,1-1c0.3-0.4,0.5-1,0.7-1.6c0.1-0.6,0.2-1.3,0.2-2c0-0.7-0.1-1.4-0.2-2c-0.1-0.6-0.4-1.1-0.7-1.6
			c-0.3-0.4-0.6-0.8-1-1c-0.4-0.2-0.9-0.4-1.4-0.4c-0.5,0-1,0.1-1.4,0.4c-0.4,0.2-0.8,0.6-1,1c-0.3,0.4-0.5,1-0.6,1.6
			c-0.1,0.6-0.2,1.3-0.2,2c0,0.7,0.1,1.4,0.2,2c0.1,0.6,0.4,1.1,0.6,1.6c0.3,0.4,0.6,0.8,1,1C336.2,482.9,336.7,483,337.2,483z"/>
		<path class="st2" d="M353.3,485.3v-2.5c0.8-0.8,1.6-1.6,2.3-2.3c0.3-0.3,0.6-0.6,0.9-0.9c0.3-0.3,0.6-0.6,0.9-0.9
			c0.3-0.3,0.5-0.5,0.7-0.7c0.2-0.2,0.4-0.4,0.5-0.5c0.2-0.3,0.4-0.5,0.6-0.7c0.2-0.2,0.3-0.4,0.4-0.6c0.1-0.2,0.2-0.4,0.2-0.6
			c0.1-0.2,0.1-0.4,0.1-0.7c0-0.5-0.2-0.9-0.5-1.2c-0.4-0.3-0.9-0.5-1.5-0.5s-1.1,0.2-1.5,0.5c-0.4,0.4-0.6,0.8-0.7,1.2l-2.5-1
			c0.1-0.4,0.3-0.8,0.5-1.2s0.6-0.8,1-1.1c0.4-0.3,0.9-0.6,1.4-0.8c0.5-0.2,1.1-0.3,1.8-0.3c0.7,0,1.4,0.1,2,0.3
			c0.6,0.2,1.1,0.5,1.5,0.9c0.4,0.4,0.7,0.8,0.9,1.3c0.2,0.5,0.3,1.1,0.3,1.7c0,0.9-0.2,1.7-0.7,2.5c-0.4,0.7-1,1.4-1.6,2.1
			l-1.8,1.8c-0.5,0.5-1,1-1.6,1.6l0.1,0.1h5.8v2.4H353.3z"/>
		<path class="st2" d="M379.2,485.6c-0.9,0-1.8-0.2-2.5-0.6c-0.7-0.4-1.4-0.9-1.9-1.6c-0.5-0.7-0.9-1.5-1.2-2.4
			c-0.3-0.9-0.4-1.9-0.4-3c0-1.1,0.1-2.1,0.4-3c0.3-0.9,0.7-1.7,1.2-2.4s1.2-1.2,1.9-1.6c0.7-0.4,1.6-0.6,2.5-0.6
			c0.9,0,1.8,0.2,2.5,0.6c0.7,0.4,1.4,0.9,1.9,1.6s0.9,1.5,1.2,2.4c0.3,0.9,0.4,1.9,0.4,3c0,1.1-0.1,2.1-0.4,3
			c-0.3,0.9-0.7,1.7-1.2,2.4c-0.5,0.7-1.2,1.2-1.9,1.6C380.9,485.4,380.1,485.6,379.2,485.6z M379.2,483c0.5,0,1-0.1,1.4-0.4
			c0.4-0.2,0.8-0.6,1-1c0.3-0.4,0.5-1,0.7-1.6c0.1-0.6,0.2-1.3,0.2-2c0-0.7-0.1-1.4-0.2-2c-0.1-0.6-0.4-1.1-0.7-1.6
			c-0.3-0.4-0.6-0.8-1-1c-0.4-0.2-0.9-0.4-1.4-0.4c-0.5,0-1,0.1-1.4,0.4c-0.4,0.2-0.7,0.6-1,1c-0.3,0.4-0.5,1-0.6,1.6
			c-0.1,0.6-0.2,1.3-0.2,2c0,0.7,0.1,1.4,0.2,2c0.1,0.6,0.4,1.1,0.6,1.6c0.3,0.4,0.6,0.8,1,1C378.2,482.9,378.6,483,379.2,483z"/>
	</g>
</g>
</svg>
