<svg width="806" height="864" viewBox="0 0 806 864" fill="none" xmlns="http://www.w3.org/2000/svg">
<path d="M85 655L27 165L402 27L779 165L719 655L402 835L85 655Z" stroke="black" stroke-width="49"/>
<path d="M346 255.5H315.5C312.739 255.5 310.5 257.739 310.5 260.5V332.027C310.5 332.342 310.527 332.643 310.587 332.952C316.274 361.927 342.618 418.592 403.5 417M346 255.5V262.5M346 255.5V230.5M403.5 417C464.352 415.409 490.7 360.629 496.404 332.972C496.471 332.65 496.5 332.334 496.5 332.005V260.5C496.5 257.739 494.261 255.5 491.5 255.5H462M403.5 417V469.5M462 255.5V230.5M462 255.5V262.5M367.5 201.5H346M346 201.5V194C346 189.5 352.5 145 403.5 145C442.5 145 461.667 177.667 462 194V201.5M346 201.5V230.5M440 201.5H462M462 201.5V230.5M440 230.5H462M367.5 262.5H346M346 262.5V294.5M367.5 294.5H346M346 294.5V331.995C346 332.331 346.031 332.655 346.101 332.983C349.807 350.294 366.249 383.585 403.5 382C440.551 380.423 454.104 352.823 461.668 333.359C461.89 332.787 462 332.185 462 331.572V324.5M367.5 324.5H343M440 324.5H462M462 324.5V294.5M440 294.5H451H462M462 294.5V262.5M440 262.5H462M373.5 469.5H433M367.5 230.5H346" stroke="#BDBDBD" stroke-width="19"/>
<circle cx="372.5" cy="469.5" r="9" fill="#BDBDBD" stroke="#BDBDBD"/>
<circle cx="433.5" cy="469.5" r="9" fill="#BDBDBD" stroke="#BDBDBD"/>
<circle cx="367.5" cy="324.5" r="9" fill="#BDBDBD" stroke="#BDBDBD"/>
<circle cx="367.5" cy="262.5" r="9" fill="#BDBDBD" stroke="#BDBDBD"/>
<circle cx="367.5" cy="294.5" r="9" fill="#BDBDBD" stroke="#BDBDBD"/>
<circle cx="367.5" cy="230.5" r="9" fill="#BDBDBD" stroke="#BDBDBD"/>
<circle cx="367.5" cy="201.5" r="9" fill="#BDBDBD" stroke="#BDBDBD"/>
<circle cx="439.5" cy="201.5" r="9" fill="#BDBDBD" stroke="#BDBDBD"/>
<circle cx="439.5" cy="230.5" r="9" fill="#BDBDBD" stroke="#BDBDBD"/>
<circle cx="439.5" cy="262.5" r="9" fill="#BDBDBD" stroke="#BDBDBD"/>
<circle cx="439.5" cy="294.5" r="9" fill="#BDBDBD" stroke="#BDBDBD"/>
<circle cx="439.5" cy="324.5" r="9" fill="#BDBDBD" stroke="#BDBDBD"/>
<path d="M212.105 601H192.338L163.111 549.684V601H143.23V518.531H163.111L192.281 569.848V518.531H212.105V601ZM298.575 590.805C295.517 594.203 291.042 596.941 285.151 599.018C279.261 601.094 272.804 602.133 265.78 602.133C254.981 602.133 246.353 598.829 239.896 592.221C233.439 585.613 229.984 576.418 229.53 564.637L229.474 557.5C229.474 549.382 230.909 542.301 233.778 536.26C236.648 530.18 240.745 525.517 246.069 522.27C251.431 518.984 257.624 517.342 264.648 517.342C274.918 517.342 282.886 519.702 288.55 524.422C294.252 529.104 297.575 536.109 298.519 545.436H279.374C278.694 540.829 277.222 537.544 274.956 535.58C272.691 533.617 269.481 532.635 265.327 532.635C260.343 532.635 256.491 534.749 253.773 538.979C251.054 543.208 249.676 549.249 249.638 557.104V562.088C249.638 570.32 251.035 576.512 253.829 580.666C256.661 584.782 261.098 586.84 267.14 586.84C272.313 586.84 276.165 585.688 278.694 583.385V570.584H264.874V556.934H298.575V590.805ZM528.928 585.594H501.684L496.926 601H475.686L505.932 518.531H524.624L555.096 601H533.743L528.928 585.594ZM506.442 570.244H524.17L515.278 541.641L506.442 570.244ZM588.72 601H568.896V518.531H588.72V601ZM639.563 571.887H628.801V601H608.921V518.531H641.376C651.156 518.531 658.802 520.702 664.315 525.045C669.828 529.387 672.585 535.523 672.585 543.453C672.585 549.193 671.414 553.951 669.073 557.727C666.77 561.503 663.145 564.561 658.198 566.902L675.417 600.15V601H654.12L639.563 571.887ZM628.801 556.537H641.376C645.152 556.537 647.984 555.555 649.872 553.592C651.798 551.59 652.76 548.815 652.76 545.266C652.76 541.716 651.798 538.941 649.872 536.939C647.946 534.9 645.114 533.881 641.376 533.881H628.801V556.537Z" fill="black"/>
<path d="M347.153 571.887H336.391V601H316.51V518.531H348.965C358.745 518.531 366.392 520.702 371.905 525.045C377.418 529.387 380.174 535.523 380.174 543.453C380.174 549.193 379.003 553.951 376.662 557.727C374.359 561.503 370.734 564.561 365.787 566.902L383.006 600.15V601H361.709L347.153 571.887ZM336.391 556.537H348.965C352.741 556.537 355.573 555.555 357.461 553.592C359.387 551.59 360.35 548.815 360.35 545.266C360.35 541.716 359.387 538.941 357.461 536.939C355.535 534.9 352.703 533.881 348.965 533.881H336.391V556.537ZM463.245 518.531V572.51C463.245 578.627 461.943 583.932 459.337 588.426C456.732 592.882 452.994 596.28 448.122 598.621C443.251 600.962 437.493 602.133 430.847 602.133C420.803 602.133 412.892 599.527 407.115 594.316C401.337 589.105 398.392 581.969 398.279 572.906V518.531H418.273V573.303C418.499 582.327 422.691 586.84 430.847 586.84C434.963 586.84 438.078 585.707 440.193 583.441C442.307 581.176 443.365 577.494 443.365 572.396V518.531H463.245Z" fill="#D60000"/>
<path d="M264.201 667.808L274.015 637.376H280.937L266.728 677H261.564L247.208 637.376H254.13L264.201 667.808ZM294.816 677H288.041V637.376H294.816V677ZM287.492 626.866C287.492 625.767 287.821 624.839 288.48 624.083C289.164 623.326 290.165 622.947 291.483 622.947C292.802 622.947 293.803 623.326 294.486 624.083C295.17 624.839 295.512 625.767 295.512 626.866C295.512 627.964 295.17 628.88 294.486 629.612C293.803 630.345 292.802 630.711 291.483 630.711C290.165 630.711 289.164 630.345 288.48 629.612C287.821 628.88 287.492 627.964 287.492 626.866ZM304.044 656.858C304.044 650.779 305.485 645.896 308.366 642.21C311.247 638.499 315.019 636.644 319.682 636.644C324.32 636.644 327.995 638.23 330.705 641.404V620.75H337.479V677H331.254L330.924 672.752C328.214 676.072 324.442 677.732 319.608 677.732C315.019 677.732 311.271 675.853 308.366 672.093C305.485 668.333 304.044 663.426 304.044 657.371V656.858ZM310.819 657.627C310.819 662.12 311.747 665.635 313.603 668.174C315.458 670.713 318.021 671.983 321.293 671.983C325.59 671.983 328.727 670.054 330.705 666.197V647.996C328.678 644.261 325.565 642.393 321.366 642.393C318.046 642.393 315.458 643.675 313.603 646.238C311.747 648.802 310.819 652.598 310.819 657.627ZM364.469 677.732C359.098 677.732 354.728 675.975 351.359 672.459C347.99 668.919 346.305 664.195 346.305 658.287V657.042C346.305 653.111 347.05 649.607 348.539 646.531C350.053 643.431 352.152 641.014 354.838 639.28C357.548 637.522 360.478 636.644 363.627 636.644C368.778 636.644 372.782 638.34 375.639 641.734C378.495 645.127 379.923 649.986 379.923 656.309V659.129H353.08C353.178 663.035 354.313 666.197 356.486 668.614C358.683 671.006 361.466 672.203 364.835 672.203C367.228 672.203 369.254 671.714 370.915 670.738C372.575 669.761 374.027 668.467 375.272 666.856L379.411 670.079C376.09 675.181 371.11 677.732 364.469 677.732ZM363.627 642.21C360.893 642.21 358.598 643.211 356.742 645.213C354.887 647.19 353.739 649.974 353.3 653.562H373.148V653.05C372.953 649.607 372.025 646.946 370.365 645.066C368.705 643.162 366.459 642.21 363.627 642.21ZM386.002 656.822C386.002 652.94 386.759 649.449 388.273 646.348C389.811 643.248 391.935 640.855 394.645 639.17C397.379 637.486 400.492 636.644 403.983 636.644C409.379 636.644 413.737 638.511 417.057 642.247C420.402 645.982 422.074 650.95 422.074 657.151V657.627C422.074 661.485 421.33 664.952 419.84 668.028C418.375 671.08 416.264 673.46 413.505 675.169C410.771 676.878 407.621 677.732 404.057 677.732C398.686 677.732 394.328 675.865 390.983 672.129C387.663 668.394 386.002 663.45 386.002 657.298V656.822ZM392.814 657.627C392.814 662.022 393.827 665.55 395.854 668.211C397.904 670.872 400.639 672.203 404.057 672.203C407.499 672.203 410.233 670.86 412.26 668.174C414.286 665.464 415.299 661.68 415.299 656.822C415.299 652.476 414.262 648.96 412.187 646.275C410.136 643.565 407.401 642.21 403.983 642.21C400.639 642.21 397.941 643.541 395.89 646.202C393.839 648.863 392.814 652.671 392.814 657.627ZM446.464 672.203C448.881 672.203 450.993 671.47 452.799 670.005C454.606 668.541 455.607 666.709 455.802 664.512H462.211C462.089 666.783 461.308 668.943 459.867 670.994C458.427 673.045 456.498 674.681 454.081 675.901C451.688 677.122 449.149 677.732 446.464 677.732C441.068 677.732 436.771 675.938 433.573 672.349C430.399 668.736 428.812 663.804 428.812 657.554V656.419C428.812 652.562 429.521 649.131 430.937 646.128C432.353 643.125 434.379 640.794 437.016 639.134C439.677 637.474 442.814 636.644 446.427 636.644C450.871 636.644 454.557 637.974 457.487 640.635C460.441 643.296 462.016 646.751 462.211 650.999H455.802C455.607 648.436 454.63 646.336 452.873 644.7C451.139 643.04 448.991 642.21 446.427 642.21C442.985 642.21 440.312 643.455 438.407 645.945C436.527 648.411 435.587 651.988 435.587 656.675V657.957C435.587 662.522 436.527 666.038 438.407 668.504C440.287 670.97 442.973 672.203 446.464 672.203ZM494.291 677C493.9 676.219 493.583 674.827 493.339 672.825C490.189 676.097 486.43 677.732 482.06 677.732C478.153 677.732 474.943 676.634 472.428 674.437C469.938 672.215 468.693 669.407 468.693 666.014C468.693 661.888 470.255 658.689 473.38 656.419C476.53 654.124 480.949 652.977 486.637 652.977H493.229V649.864C493.229 647.496 492.521 645.616 491.105 644.224C489.689 642.808 487.602 642.1 484.843 642.1C482.426 642.1 480.399 642.71 478.764 643.931C477.128 645.152 476.31 646.629 476.31 648.362H469.499C469.499 646.385 470.194 644.48 471.586 642.649C473.002 640.794 474.906 639.329 477.299 638.255C479.716 637.181 482.365 636.644 485.246 636.644C489.811 636.644 493.388 637.791 495.976 640.086C498.563 642.356 499.906 645.494 500.004 649.498V667.735C500.004 671.373 500.468 674.266 501.396 676.414V677H494.291ZM483.048 671.836C485.172 671.836 487.187 671.287 489.091 670.188C490.995 669.09 492.375 667.662 493.229 665.904V657.774H487.919C479.618 657.774 475.468 660.203 475.468 665.062C475.468 667.186 476.176 668.846 477.592 670.042C479.008 671.238 480.827 671.836 483.048 671.836ZM533.695 666.49C533.695 664.659 533 663.243 531.608 662.242C530.241 661.216 527.836 660.337 524.394 659.605C520.976 658.873 518.253 657.994 516.227 656.968C514.225 655.943 512.736 654.722 511.759 653.306C510.807 651.89 510.331 650.206 510.331 648.252C510.331 645.005 511.698 642.259 514.433 640.013C517.191 637.767 520.707 636.644 524.979 636.644C529.472 636.644 533.109 637.803 535.893 640.123C538.7 642.442 540.104 645.408 540.104 649.021H533.292C533.292 647.166 532.499 645.567 530.912 644.224C529.35 642.881 527.372 642.21 524.979 642.21C522.514 642.21 520.585 642.747 519.193 643.821C517.802 644.896 517.106 646.299 517.106 648.033C517.106 649.668 517.753 650.901 519.047 651.731C520.341 652.562 522.672 653.355 526.042 654.112C529.435 654.869 532.182 655.772 534.281 656.822C536.381 657.872 537.931 659.141 538.932 660.63C539.958 662.095 540.47 663.89 540.47 666.014C540.47 669.554 539.054 672.398 536.222 674.546C533.39 676.67 529.716 677.732 525.199 677.732C522.025 677.732 519.218 677.171 516.776 676.048C514.335 674.925 512.418 673.362 511.027 671.36C509.66 669.334 508.976 667.149 508.976 664.805H515.751C515.873 667.076 516.776 668.882 518.461 670.225C520.17 671.543 522.416 672.203 525.199 672.203C527.763 672.203 529.813 671.69 531.352 670.665C532.914 669.615 533.695 668.223 533.695 666.49ZM558.488 627.781V637.376H565.885V642.613H558.488V667.186C558.488 668.772 558.817 669.969 559.477 670.774C560.136 671.556 561.259 671.946 562.846 671.946C563.627 671.946 564.701 671.8 566.068 671.507V677C564.286 677.488 562.553 677.732 560.868 677.732C557.841 677.732 555.558 676.817 554.02 674.986C552.482 673.155 551.713 670.555 551.713 667.186V642.613H544.499V637.376H551.713V627.781H558.488Z" fill="black"/>
</svg>
