<?xml version="1.0" encoding="UTF-8"?>
<svg width="373px" height="400px" viewBox="0 0 373 400" version="1.1" xmlns="http://www.w3.org/2000/svg" xmlns:xlink="http://www.w3.org/1999/xlink">
    <!-- Generator: Sketch 47.1 (45422) - http://www.bohemiancoding.com/sketch -->
    <title>ngrx</title>
    <desc>Created with Sketch.</desc>
    <defs></defs>
    <g id="Page-1" stroke="none" stroke-width="1" fill="none" fill-rule="evenodd">
        <g id="ngrx">
            <polyline id="Shape" fill="#4A4A4A" fill-rule="nonzero" points="186.2 0 0 66.4 28.4 312.6 186.2 400 344 312.6 372.4 66.4"></polyline>
            <polyline id="Shape" fill="#545454" fill-rule="nonzero" points="186 0 186 44.4 186 44.2 186 400 343.8 312.6 372.2 66.4"></polyline>
            <path d="M149.112087,84.1168664 C148.672087,84.1938664 147.997087,84.4008664 147.612087,84.5758664 C147.227087,84.7518664 146.507087,84.9628664 146.012087,85.0438664 C145.517087,85.1258664 144.897087,85.3608664 144.635087,85.5668664 C144.373087,85.7728664 143.913087,85.9408664 143.614087,85.9408664 C143.315087,85.9408664 142.835087,86.1588664 142.548087,86.4248664 C142.260087,86.6918664 141.839087,86.9688664 141.612087,87.0408664 C141.385087,87.1128664 140.981087,87.3898664 140.715087,87.6568664 C140.448087,87.9228664 140.136087,88.1408664 140.021087,88.1408664 C139.906087,88.1408664 139.812087,88.2778664 139.812087,88.4458664 C139.812087,88.6138664 139.599087,88.8318664 139.339087,88.9308664 C139.079087,89.0288664 138.818087,89.2968664 138.758087,89.5258664 C138.698087,89.7538664 138.506087,89.9408664 138.331087,89.9408664 C138.155087,89.9408664 138.012087,90.0318664 138.012087,90.1428664 C138.012087,90.2538664 137.742087,90.6268664 137.412087,90.9718664 C137.082087,91.3178664 136.812087,91.6708664 136.812087,91.7568664 C136.812087,91.8428664 136.632087,91.9708664 136.412087,92.0408664 C136.192087,92.1108664 136.012087,92.2578664 136.012087,92.3688664 C136.012087,92.6138664 134.708087,94.0198664 132.312087,96.3608664 C131.322087,97.3288664 130.284087,98.3498664 130.004087,98.6298664 C129.725087,98.9108664 129.432087,99.1408664 129.353087,99.1408664 C129.274087,99.1408664 128.810087,99.5458664 128.322087,100.040866 C127.834087,100.535866 127.354087,100.940866 127.255087,100.940866 C127.155087,100.940866 126.919087,101.112866 126.729087,101.322866 C126.539087,101.532866 126.108087,101.817866 125.772087,101.957866 C125.435087,102.096866 124.954087,102.397866 124.702087,102.625866 C123.821087,103.421866 123.108087,103.879866 122.521087,104.023866 C122.196087,104.103866 121.813087,104.335866 121.671087,104.538866 C121.528087,104.742866 121.120087,104.972866 120.765087,105.050866 C120.409087,105.129866 120.022087,105.324866 119.904087,105.485866 C119.786087,105.645866 119.261087,105.857866 118.737087,105.955866 C118.213087,106.053866 117.559087,106.310866 117.284087,106.526866 C117.009087,106.743866 116.363087,106.980866 115.848087,107.054866 C115.333087,107.128866 114.762087,107.320866 114.578087,107.481866 C114.364087,107.668866 113.434087,107.843866 111.978087,107.969866 C110.732087,108.076866 109.419087,108.298866 109.061087,108.462866 C108.704087,108.626866 107.316087,108.853866 105.978087,108.967866 C104.518087,109.092866 103.368087,109.291866 103.103087,109.465866 C102.859087,109.624866 102.092087,109.846866 101.397087,109.958866 C100.559087,110.093866 100.047087,110.287866 99.8730875,110.535866 C99.7290875,110.740866 99.3510875,110.966866 99.0320875,111.035866 C98.7140875,111.105866 98.2950875,111.338866 98.1020875,111.551866 C97.9080875,111.765866 97.6290875,111.940866 97.4810875,111.940866 C97.1760875,111.940866 94.8120875,114.236866 94.8120875,114.532866 C94.8120875,114.638866 94.6440875,114.885866 94.4390875,115.082866 C94.2330875,115.279866 93.9560875,115.777866 93.8240875,116.188866 C93.6910875,116.600866 93.4590875,117.006866 93.3090875,117.090866 C93.1410875,117.184866 92.9530875,117.906866 92.8220875,118.962866 C92.7040875,119.907866 92.4810875,121.121866 92.3250875,121.660866 C92.1060875,122.417866 92.0270875,124.531866 91.9770875,130.940866 C91.9140875,138.973866 91.8980875,139.263866 91.4890875,139.956866 C91.2560875,140.350866 90.9560875,141.003866 90.8230875,141.406866 C90.6900875,141.810866 90.4960875,142.140866 90.3920875,142.140866 C90.2870875,142.140866 90.1240875,142.344866 90.0300875,142.594866 C89.7210875,143.406866 85.3710875,147.977866 83.5140875,149.440866 C83.0950875,149.770866 82.4730875,150.283866 82.1320875,150.580866 C81.7910875,150.876866 81.2630875,151.326866 80.9590875,151.580866 C80.4920875,151.968866 77.8210875,154.605866 76.4180875,156.061866 C76.1950875,156.293866 76.0120875,156.569866 76.0120875,156.675866 C76.0120875,156.781866 75.7420875,157.170866 75.4120875,157.540866 C75.0820875,157.910866 74.8120875,158.362866 74.8120875,158.545866 C74.8120875,158.728866 74.6360875,159.037866 74.4220875,159.231866 C74.2070875,159.426866 73.9320875,160.063866 73.8110875,160.647866 C73.6890875,161.231866 73.4600875,161.817866 73.3010875,161.949866 C72.8830875,162.296866 72.8970875,166.217866 73.3210875,167.230866 C73.4910875,167.637866 73.7250875,169.016866 73.8420875,170.294866 C73.9630875,171.620866 74.1770875,172.806866 74.3390875,173.053866 C74.4960875,173.292866 74.7070875,174.219866 74.8090875,175.112866 C74.9400875,176.259866 75.1090875,176.861866 75.3840875,177.156866 C75.5990875,177.386866 75.8350875,177.904866 75.9090875,178.307866 C75.9840875,178.710866 76.2070875,179.220866 76.4070875,179.440866 C76.6060875,179.660866 76.8310875,180.133866 76.9070875,180.492866 C76.9820875,180.850866 77.2130875,181.234866 77.4200875,181.344866 C77.6400875,181.462866 77.8420875,181.853866 77.9100875,182.292866 C77.9730875,182.704866 78.1730875,183.489866 78.3550875,184.037866 C78.8250875,185.453866 78.8300875,190.343866 78.3620875,191.340866 C78.1820875,191.725866 77.9750875,192.463866 77.9020875,192.980866 C77.8290875,193.497866 77.5540875,194.212866 77.2910875,194.569866 C77.0270875,194.926866 76.8120875,195.348866 76.8120875,195.508866 C76.8120875,195.913866 75.4870875,197.868866 75.1170875,198.011866 C74.9490875,198.075866 74.8120875,198.307866 74.8120875,198.527866 C74.8120875,198.746866 74.6320875,199.022866 74.4120875,199.140866 C74.1920875,199.258866 74.0120875,199.483866 74.0120875,199.640866 C74.0120875,199.797866 73.7550875,200.222866 73.4410875,200.583866 C73.1260875,200.944866 72.8090875,201.568866 72.7350875,201.970866 C72.6620875,202.371866 72.4690875,202.810866 72.3070875,202.944866 C71.8890875,203.291866 71.9010875,206.145866 72.3230875,206.961866 C72.4940875,207.292866 72.7100875,208.239866 72.8030875,209.067866 C72.9190875,210.107866 73.0930875,210.705866 73.3650875,211.005866 C73.5820875,211.244866 73.8190875,211.690866 73.8910875,211.995866 C73.9630875,212.300866 74.2000875,212.728866 74.4170875,212.945866 C74.6340875,213.162866 74.8120875,213.501866 74.8120875,213.698866 C74.8120875,213.896866 75.2170875,214.503866 75.7120875,215.048866 C76.2060875,215.594866 76.7410875,216.310866 76.9000875,216.640866 C77.0590875,216.970866 77.3740875,217.353866 77.6010875,217.492866 C77.8270875,217.630866 78.0120875,217.868866 78.0120875,218.020866 C78.0120875,218.173866 78.1480875,218.349866 78.3140875,218.413866 C78.4800875,218.477866 78.7190875,218.756866 78.8460875,219.034866 C78.9730875,219.312866 79.2000875,219.540866 79.3500875,219.540866 C79.5010875,219.540866 79.6830875,219.697866 79.7530875,219.890866 C79.8240875,220.083866 80.0690875,220.432866 80.2970875,220.666866 C80.5250875,220.901866 81.2070875,221.654866 81.8120875,222.340866 C82.4170875,223.026866 83.3310875,224.040866 83.8430875,224.595866 C84.3550875,225.149866 84.8270875,225.865866 84.8910875,226.187866 C84.9560875,226.509866 85.1810875,226.992866 85.3920875,227.260866 C85.6030875,227.528866 85.8370875,228.196866 85.9130875,228.744866 C85.9880875,229.292866 86.1200875,229.740866 86.2070875,229.740866 C86.4170875,229.740866 86.7540875,230.665866 86.8830875,231.593866 C86.9410875,232.007866 87.1660875,232.572866 87.3830875,232.849866 C87.6010875,233.126866 87.8390875,233.709866 87.9130875,234.146866 C87.9870875,234.583866 88.1180875,234.940866 88.2050875,234.940866 C88.4090875,234.940866 88.7610875,235.838866 88.9240875,236.776866 C88.9940875,237.181866 89.1720875,237.559866 89.3200875,237.616866 C89.4680875,237.672866 89.7050875,238.104866 89.8460875,238.575866 C89.9870875,239.045866 90.2620875,239.590866 90.4570875,239.785866 C90.6520875,239.980866 90.8120875,240.403866 90.8120875,240.725866 C90.8120875,241.046866 91.0250875,241.563866 91.2850875,241.875866 C91.5450875,242.186866 91.8270875,242.665866 91.9120875,242.940866 C91.9970875,243.215866 92.2350875,243.655866 92.4400875,243.917866 C92.6440875,244.179866 92.8120875,244.555866 92.8120875,244.752866 C92.8120875,244.948866 93.0310875,245.370866 93.2990875,245.688866 C93.5670875,246.006866 93.8450875,246.502866 93.9170875,246.789866 C93.9890875,247.076866 94.1700875,247.358866 94.3190875,247.415866 C94.4680875,247.472866 94.7030875,247.906866 94.8420875,248.379866 C94.9810875,248.853866 95.2560875,249.358866 95.4530875,249.501866 C95.6510875,249.645866 95.8120875,249.893866 95.8120875,250.053866 C95.8120875,250.213866 95.9940875,250.500866 96.2180875,250.691866 C96.4410875,250.882866 96.7140875,251.376866 96.8250875,251.789866 C96.9360875,252.202866 97.1110875,252.540866 97.2140875,252.540866 C97.3170875,252.540866 97.7580875,253.102866 98.1950875,253.790866 C98.6320875,254.478866 99.1290875,255.220866 99.2990875,255.440866 C100.011087,256.360866 100.615087,257.270866 100.815087,257.725866 C100.932087,257.991866 101.227087,258.406866 101.470087,258.647866 C101.713087,258.887866 102.071087,259.299866 102.265087,259.562866 C103.271087,260.923866 104.031087,261.883866 104.400087,262.261866 C104.627087,262.493866 104.812087,262.783866 104.812087,262.906866 C104.812087,263.030866 105.037087,263.278866 105.312087,263.458866 C105.587087,263.639866 105.812087,263.875866 105.812087,263.983866 C105.812087,264.091866 106.059087,264.420866 106.362087,264.714866 C106.664087,265.008866 107.362087,265.773866 107.912087,266.414866 C108.462087,267.055866 109.384087,268.088866 109.962087,268.709866 C110.540087,269.330866 111.012087,269.951866 111.012087,270.089866 C111.012087,270.227866 111.129087,270.340866 111.271087,270.340866 C111.596087,270.340866 113.012087,271.771866 113.012087,272.098866 C113.012087,272.231866 113.125087,272.343866 113.262087,272.346866 C113.581087,272.353866 114.710087,273.376866 115.003087,273.923866 C115.126087,274.152866 115.327087,274.340866 115.451087,274.340866 C115.658087,274.340866 116.302087,274.898866 119.165087,277.561866 C119.744087,278.099866 120.305087,278.540866 120.413087,278.540866 C120.521087,278.540866 120.721087,278.720866 120.858087,278.940866 C120.996087,279.160866 121.219087,279.340866 121.355087,279.340866 C121.492087,279.340866 121.750087,279.565866 121.930087,279.840866 C122.111087,280.115866 122.366087,280.340866 122.499087,280.340866 C122.632087,280.340866 123.049087,280.612866 123.426087,280.945866 C123.803087,281.278866 124.403087,281.796866 124.759087,282.095866 C125.115087,282.395866 125.825087,283.023866 126.337087,283.492866 C126.848087,283.961866 127.467087,284.456866 127.711087,284.592866 C128.749087,285.170866 129.812087,285.960866 129.812087,286.153866 C129.812087,286.267866 130.075087,286.452866 130.396087,286.564866 C130.717087,286.676866 131.029087,286.897866 131.090087,287.054866 C131.150087,287.211866 131.321087,287.340866 131.470087,287.340866 C131.618087,287.340866 132.042087,287.610866 132.412087,287.940866 C132.782087,288.270866 133.189087,288.540866 133.317087,288.540866 C133.445087,288.540866 133.713087,288.720866 133.912087,288.940866 C134.111087,289.160866 134.376087,289.340866 134.501087,289.340866 C134.625087,289.340866 135.039087,289.606866 135.420087,289.932866 C135.800087,290.257866 136.256087,290.527866 136.431087,290.532866 C136.606087,290.536866 136.913087,290.720866 137.112087,290.940866 C137.311087,291.160866 137.599087,291.340866 137.752087,291.340866 C137.905087,291.340866 138.247087,291.557866 138.512087,291.821866 C138.776087,292.086866 139.305087,292.406866 139.686087,292.532866 C140.068087,292.657866 140.488087,292.891866 140.620087,293.050866 C140.753087,293.210866 140.978087,293.340866 141.121087,293.340866 C141.264087,293.340866 141.649087,293.565866 141.977087,293.841866 C142.304087,294.117866 142.845087,294.397866 143.178087,294.463866 C143.512087,294.530866 143.953087,294.742866 144.159087,294.934866 C144.366087,295.126866 144.859087,295.390866 145.256087,295.521866 C145.652087,295.652866 146.022087,295.877866 146.077087,296.022866 C146.133087,296.166866 146.584087,296.386866 147.080087,296.511866 C147.576087,296.636866 148.112087,296.869866 148.273087,297.029866 C148.433087,297.189866 148.822087,297.382866 149.138087,297.456866 C149.454087,297.531866 149.892087,297.755866 150.112087,297.954866 C150.332087,298.153866 150.901087,298.403866 151.376087,298.510866 C151.852087,298.617866 152.392087,298.839866 152.576087,299.005866 C152.761087,299.171866 153.252087,299.369866 153.667087,299.446866 C154.082087,299.523866 154.532087,299.740866 154.667087,299.928866 C154.805087,300.121866 155.430087,300.373866 156.097087,300.505866 C156.748087,300.635866 157.423087,300.868866 157.597087,301.023866 C157.770087,301.179866 158.262087,301.371866 158.689087,301.450866 C159.117087,301.530866 159.626087,301.754866 159.821087,301.949866 C160.027087,302.155866 160.735087,302.390866 161.517087,302.512866 C162.255087,302.627866 163.006087,302.852866 163.186087,303.013866 C163.365087,303.173866 163.941087,303.368866 164.464087,303.445866 C164.988087,303.523866 165.637087,303.760866 165.907087,303.972866 C166.225087,304.222866 166.921087,304.417866 167.882087,304.524866 C168.699087,304.616866 169.625087,304.834866 169.940087,305.008866 C170.254087,305.182866 171.130087,305.414866 171.886087,305.523866 C172.641087,305.632866 173.412087,305.859866 173.598087,306.027866 C173.822087,306.230866 174.649087,306.395866 176.052087,306.517866 C177.216087,306.618866 178.471087,306.838866 178.840087,307.006866 C179.210087,307.173866 180.524087,307.405866 181.762087,307.520866 C183.064087,307.641866 184.278087,307.867866 184.645087,308.057866 C186.239087,308.881866 209.314087,308.871866 210.949087,308.045866 C211.326087,307.855866 212.590087,307.636866 214.049087,307.507866 C215.404087,307.388866 216.753087,307.168866 217.048087,307.018866 C217.343087,306.867866 218.643087,306.651866 219.937087,306.538866 C221.543087,306.397866 222.398087,306.233866 222.632087,306.022866 C222.820087,305.852866 223.635087,305.627866 224.443087,305.522866 C225.251087,305.418866 226.154087,305.197866 226.450087,305.032866 C226.746087,304.867866 227.734087,304.638866 228.645087,304.524866 C229.557087,304.410866 230.350087,304.245866 230.408087,304.158866 C230.598087,303.869866 231.301087,303.588866 232.208087,303.438866 C232.700087,303.356866 233.296087,303.163866 233.530087,303.009866 C233.765087,302.856866 234.522087,302.630866 235.211087,302.509866 C235.900087,302.387866 236.619087,302.133866 236.808087,301.944866 C236.997087,301.755866 237.545087,301.538866 238.026087,301.461866 C238.508087,301.384866 239.046087,301.190866 239.222087,301.031866 C239.398087,300.871866 239.966087,300.662866 240.484087,300.565866 C241.003087,300.468866 241.593087,300.239866 241.796087,300.055866 C241.999087,299.871866 242.511087,299.625866 242.935087,299.508866 C243.359087,299.391866 243.912087,299.133866 244.165087,298.934866 C244.417087,298.736866 244.987087,298.512866 245.432087,298.437866 C245.876087,298.362866 246.288087,298.175866 246.347087,298.022866 C246.405087,297.869866 246.827087,297.635866 247.283087,297.502866 C247.739087,297.369866 248.182087,297.146866 248.269087,297.006866 C248.355087,296.866866 248.805087,296.653866 249.269087,296.532866 C249.732087,296.410866 250.205087,296.193866 250.318087,296.048866 C250.519087,295.791866 251.409087,295.284866 252.812087,294.629866 C253.197087,294.449866 253.692087,294.141866 253.912087,293.944866 C254.132087,293.747866 254.523087,293.522866 254.782087,293.443866 C255.040087,293.365866 255.420087,293.132866 255.627087,292.925866 C255.833087,292.719866 256.237087,292.491866 256.524087,292.419866 C256.811087,292.347866 257.286087,292.069866 257.579087,291.800866 C257.872087,291.532866 258.252087,291.186866 258.423087,291.032866 C258.594087,290.878866 259.067087,290.613866 259.473087,290.443866 C259.879087,290.274866 260.212087,290.044866 260.212087,289.933866 C260.212087,289.822866 260.455087,289.621866 260.752087,289.486866 C261.050087,289.351866 261.495087,289.060866 261.743087,288.840866 C262.725087,287.967866 263.578087,287.340866 263.782087,287.340866 C263.901087,287.340866 264.089087,287.170866 264.200087,286.963866 C264.311087,286.756866 264.629087,286.529866 264.907087,286.459866 C265.185087,286.389866 265.412087,286.196866 265.412087,286.030866 C265.412087,285.864866 265.569087,285.669866 265.762087,285.599866 C265.955087,285.528866 266.299087,285.283866 266.528087,285.055866 C266.757087,284.827866 267.117087,284.499866 267.328087,284.326866 C268.736087,283.175866 271.155087,281.010866 271.373087,280.705866 C271.517087,280.504866 271.754087,280.340866 271.900087,280.340866 C272.046087,280.340866 272.214087,280.153866 272.274087,279.925866 C272.333087,279.697866 272.569087,279.461866 272.797087,279.402866 C273.025087,279.342866 273.212087,279.200866 273.212087,279.087866 C273.212087,278.973866 273.712087,278.376866 274.324087,277.760866 C275.648087,276.426866 275.592087,276.488866 277.401087,274.342866 C278.188087,273.409866 278.963087,272.572866 279.122087,272.482866 C279.282087,272.393866 279.412087,272.195866 279.412087,272.041866 C279.412087,271.888866 279.575087,271.645866 279.775087,271.501866 C279.975087,271.358866 280.200087,271.074866 280.276087,270.871866 C280.352087,270.668866 280.586087,270.457866 280.796087,270.402866 C281.006087,270.347866 281.232087,270.090866 281.297087,269.830866 C281.362087,269.570866 281.640087,269.115866 281.914087,268.819866 C282.188087,268.524866 282.412087,268.208866 282.412087,268.119866 C282.412087,268.029866 282.604087,267.777866 282.838087,267.558866 C283.073087,267.340866 283.365087,266.992866 283.488087,266.785866 C284.085087,265.780866 284.614087,265.009866 284.914087,264.707866 C285.097087,264.524866 285.396087,264.105866 285.579087,263.774866 C285.762087,263.444866 286.111087,262.818866 286.353087,262.382866 C286.596087,261.946866 286.934087,261.536866 287.103087,261.471866 C287.273087,261.406866 287.412087,261.216866 287.412087,261.050866 C287.412087,260.664866 288.764087,258.540866 289.009087,258.540866 C289.111087,258.540866 289.252087,258.228866 289.324087,257.847866 C289.395087,257.466866 289.580087,257.049866 289.735087,256.921866 C289.890087,256.792866 290.197087,256.317866 290.417087,255.864866 C290.789087,255.098866 291.043087,254.620866 291.755087,253.340866 C291.909087,253.065866 292.173087,252.528866 292.344087,252.147866 C292.514087,251.766866 292.773087,251.361866 292.918087,251.247866 C293.064087,251.133866 293.280087,250.668866 293.399087,250.213866 C293.518087,249.759866 293.743087,249.280866 293.901087,249.149866 C294.058087,249.019866 294.247087,248.626866 294.321087,248.276866 C294.395087,247.926866 294.619087,247.460866 294.819087,247.240866 C295.020087,247.020866 295.293087,246.405866 295.426087,245.873866 C295.559087,245.341866 295.790087,244.859866 295.940087,244.802866 C296.115087,244.735866 296.204087,244.400866 296.189087,243.869866 C296.176087,243.413866 296.125087,243.193866 296.076087,243.381866 C296.027087,243.568866 295.790087,243.783866 295.549087,243.858866 C295.309087,243.933866 294.823087,244.229866 294.469087,244.517866 C293.214087,245.539866 292.706087,245.886866 292.262087,246.025866 C292.015087,246.103866 291.812087,246.246866 291.812087,246.343866 C291.812087,246.562866 289.871087,247.847866 289.262087,248.031866 C289.015087,248.106866 288.812087,248.248866 288.812087,248.347866 C288.812087,248.560866 286.874087,249.830866 286.246087,250.029866 C286.007087,250.105866 285.812087,250.256866 285.812087,250.365866 C285.812087,250.473866 285.407087,250.742866 284.912087,250.961866 C284.417087,251.180866 284.012087,251.438866 284.012087,251.534866 C284.012087,251.630866 283.708087,251.809866 283.336087,251.932866 C282.964087,252.055866 282.505087,252.327866 282.315087,252.536866 C282.126087,252.746866 281.717087,252.973866 281.408087,253.041866 C281.099087,253.109866 280.798087,253.289866 280.739087,253.442866 C280.680087,253.594866 280.248087,253.823866 279.777087,253.949866 C279.307087,254.076866 278.807087,254.344866 278.667087,254.544866 C278.526087,254.744866 278.151087,254.966866 277.832087,255.035866 C277.514087,255.105866 277.103087,255.329866 276.920087,255.532866 C276.736087,255.734866 276.257087,255.962866 275.856087,256.037866 C275.454087,256.113866 275.010087,256.339866 274.869087,256.541866 C274.727087,256.743866 274.319087,256.970866 273.962087,257.046866 C273.604087,257.122866 273.161087,257.318866 272.976087,257.480866 C272.792087,257.643866 272.262087,257.861866 271.799087,257.965866 C271.336087,258.069866 270.742087,258.324866 270.478087,258.531866 C270.215087,258.738866 269.643087,258.967866 269.206087,259.041866 C268.769087,259.115866 268.412087,259.250866 268.412087,259.342866 C268.412087,259.546866 267.413087,259.861866 266.235087,260.029866 C265.753087,260.097866 265.148087,260.318866 264.892087,260.520866 C264.624087,260.731866 263.900087,260.946866 263.192087,261.026866 C262.514087,261.103866 261.768087,261.290866 261.535087,261.441866 C260.234087,262.287866 257.492087,261.846866 258.326087,260.924866 C258.517087,260.713866 258.798087,260.540866 258.949087,260.540866 C259.101087,260.540866 259.278087,260.401866 259.344087,260.230866 C259.484087,259.865866 261.491087,258.540866 261.905087,258.540866 C262.061087,258.540866 262.314087,258.362866 262.467087,258.144866 C262.619087,257.926866 263.074087,257.610866 263.478087,257.441866 C263.882087,257.273866 264.212087,257.052866 264.212087,256.951866 C264.212087,256.850866 264.415087,256.704866 264.662087,256.626866 C264.910087,256.549866 265.401087,256.251866 265.755087,255.963866 C267.005087,254.945866 267.577087,254.540866 267.764087,254.540866 C267.868087,254.540866 268.226087,254.293866 268.560087,253.990866 C269.789087,252.877866 270.258087,252.536866 270.723087,252.419866 C270.984087,252.354866 271.252087,252.129866 271.318087,251.920866 C271.385087,251.711866 271.523087,251.540866 271.627087,251.540866 C271.730087,251.540866 272.010087,251.315866 272.249087,251.040866 C272.488087,250.765866 272.767087,250.540866 272.868087,250.540866 C272.969087,250.540866 273.294087,250.293866 273.590087,249.990866 C273.886087,249.687866 274.886087,248.765866 275.813087,247.940866 C278.355087,245.677866 280.051087,243.934866 282.912087,240.640866 C283.199087,240.310866 283.811087,239.620866 284.273087,239.107866 C284.734087,238.595866 285.247087,237.953866 285.412087,237.682866 C286.176087,236.425866 286.833087,235.540866 287.001087,235.540866 C287.102087,235.540866 287.248087,235.337866 287.326087,235.090866 C287.403087,234.843866 287.679087,234.386866 287.939087,234.075866 C288.199087,233.764866 288.412087,233.397866 288.412087,233.261866 C288.412087,233.124866 288.637087,232.816866 288.912087,232.577866 C289.187087,232.338866 289.412087,231.998866 289.412087,231.820866 C289.412087,231.643866 289.637087,231.230866 289.912087,230.904866 C290.187087,230.577866 290.412087,230.186866 290.412087,230.036866 C290.412087,229.886866 290.580087,229.645866 290.785087,229.501866 C290.990087,229.358866 291.222087,228.952866 291.299087,228.599866 C291.376087,228.247866 291.600087,227.752866 291.797087,227.499866 C291.993087,227.247866 292.264087,226.703866 292.398087,226.292866 C292.532087,225.880866 292.756087,225.475866 292.895087,225.392866 C293.034087,225.308866 293.259087,224.790866 293.395087,224.240866 C293.531087,223.690866 293.761087,223.105866 293.907087,222.940866 C294.053087,222.775866 294.267087,222.292866 294.383087,221.866866 C294.498087,221.441866 294.735087,220.936866 294.908087,220.744866 C295.082087,220.552866 295.309087,219.875866 295.412087,219.240866 C295.515087,218.605866 295.730087,217.940866 295.888087,217.762866 C296.047087,217.585866 296.238087,216.990866 296.312087,216.440866 C296.387087,215.890866 296.618087,215.198866 296.827087,214.903866 C297.076087,214.549866 297.277087,213.735866 297.414087,212.525866 C297.528087,211.513866 297.751087,210.449866 297.909087,210.162866 C298.067087,209.875866 298.291087,208.699866 298.408087,207.549866 C298.545087,206.190866 298.740087,205.281866 298.966087,204.949866 C299.343087,204.394866 299.626087,187.594866 299.299087,185.147866 L299.151087,184.040866 L298.932087,184.873866 C298.811087,185.330866 298.562087,185.870866 298.378087,186.073866 C298.194087,186.275866 297.981087,186.690866 297.905087,186.995866 C297.829087,187.300866 297.609087,187.660866 297.416087,187.795866 C297.223087,187.930866 297.002087,188.328866 296.925087,188.681866 C296.848087,189.033866 296.623087,189.528866 296.426087,189.781866 C296.228087,190.033866 296.003087,190.445866 295.924087,190.696866 C295.845087,190.947866 295.563087,191.388866 295.296087,191.676866 C295.030087,191.963866 294.812087,192.348866 294.812087,192.530866 C294.812087,192.713866 294.587087,193.167866 294.312087,193.540866 C294.037087,193.913866 293.812087,194.330866 293.812087,194.468866 C293.812087,194.605866 293.644087,194.835866 293.439087,194.979866 C293.234087,195.122866 293.004087,195.523866 292.928087,195.869866 C292.852087,196.215866 292.614087,196.657866 292.401087,196.850866 C292.187087,197.044866 292.012087,197.311866 292.012087,197.443866 C292.012087,197.576866 291.742087,198.025866 291.412087,198.440866 C291.082087,198.855866 290.812087,199.304866 290.812087,199.437866 C290.812087,199.569866 290.632087,199.841866 290.412087,200.040866 C290.192087,200.239866 290.012087,200.520866 290.012087,200.664866 C290.012087,200.808866 289.754087,201.222866 289.439087,201.583866 C289.124087,201.944866 288.803087,202.442866 288.726087,202.690866 C288.648087,202.937866 288.502087,203.140866 288.401087,203.140866 C288.300087,203.140866 288.094087,203.433866 287.942087,203.790866 C287.791087,204.148866 287.475087,204.611866 287.240087,204.821866 C287.004087,205.031866 286.812087,205.322866 286.812087,205.469866 C286.812087,205.616866 286.632087,205.849866 286.412087,205.986866 C286.192087,206.124866 286.012087,206.345866 286.012087,206.479866 C286.012087,206.613866 285.796087,206.938866 285.532087,207.201866 C285.269087,207.465866 284.906087,207.964866 284.727087,208.311866 C284.548087,208.657866 284.328087,208.940866 284.239087,208.940866 C284.149087,208.940866 283.974087,209.165866 283.848087,209.440866 C283.723087,209.715866 283.490087,209.940866 283.330087,209.940866 C283.170087,209.940866 282.977087,210.136866 282.901087,210.375866 C282.735087,210.897866 281.566087,212.140866 281.242087,212.140866 C281.115087,212.140866 281.012087,212.272866 281.012087,212.433866 C281.012087,212.595866 280.675087,213.043866 280.262087,213.429866 C279.850087,213.815866 279.197087,214.445866 278.812087,214.828866 C277.505087,216.129866 275.968087,216.122866 276.993087,214.819866 C277.223087,214.526866 277.412087,214.136866 277.412087,213.952866 C277.412087,213.768866 277.637087,213.313866 277.912087,212.940866 C278.187087,212.567866 278.412087,212.150866 278.412087,212.012866 C278.412087,211.875866 278.583087,211.643866 278.792087,211.496866 C279.001087,211.350866 279.276087,210.845866 279.403087,210.375866 C279.529087,209.904866 279.753087,209.473866 279.900087,209.417866 C280.047087,209.361866 280.219087,209.053866 280.283087,208.733866 C280.347087,208.414866 280.576087,207.976866 280.793087,207.759866 C281.009087,207.543866 281.278087,207.034866 281.389087,206.629866 C281.501087,206.224866 281.717087,205.746866 281.868087,205.566866 C282.019087,205.387866 282.249087,204.867866 282.379087,204.411866 C282.509087,203.955866 282.744087,203.532866 282.900087,203.472866 C283.056087,203.412866 283.246087,202.952866 283.321087,202.449866 C283.396087,201.947866 283.620087,201.329866 283.819087,201.077866 C284.017087,200.825866 284.244087,200.274866 284.323087,199.852866 C284.402087,199.430866 284.623087,198.929866 284.813087,198.739866 C285.004087,198.548866 285.259087,197.828866 285.381087,197.139866 C285.502087,196.450866 285.732087,195.687866 285.891087,195.444866 C286.050087,195.201866 286.277087,194.478866 286.395087,193.838866 C286.514087,193.197866 286.745087,192.524866 286.909087,192.343866 C287.092087,192.141866 287.285087,191.261866 287.409087,190.068866 C287.520087,188.998866 287.741087,187.871866 287.900087,187.563866 C288.068087,187.239866 288.276087,185.876866 288.395087,184.322866 C288.508087,182.847866 288.738087,181.118866 288.906087,180.480866 C289.300087,178.986866 289.308087,175.357866 288.921087,173.806866 C288.761087,173.165866 288.526087,171.335866 288.399087,169.740866 C288.263087,168.029866 288.048087,166.608866 287.876087,166.273866 C287.716087,165.961866 287.501087,164.905866 287.400087,163.925866 C287.267087,162.637866 287.113087,162.041866 286.845087,161.773866 C286.642087,161.570866 286.415087,160.968866 286.342087,160.436866 C286.270087,159.904866 286.076087,159.321866 285.911087,159.139866 C285.747087,158.958866 285.534087,158.386866 285.437087,157.868866 C285.340087,157.349866 285.116087,156.765866 284.939087,156.570866 C284.762087,156.374866 284.512087,155.905866 284.384087,155.527866 C284.256087,155.149866 283.996087,154.615866 283.806087,154.340866 C283.617087,154.065866 283.398087,153.548866 283.321087,153.190866 C283.244087,152.833866 283.105087,152.540866 283.014087,152.540866 C282.923087,152.540866 282.652087,152.135866 282.412087,151.640866 C282.172087,151.145866 281.901087,150.740866 281.810087,150.740866 C281.718087,150.740866 281.538087,150.421866 281.409087,150.030866 C281.280087,149.640866 280.968087,149.090866 280.716087,148.808866 C279.719087,147.692866 279.567087,147.481866 279.302087,146.847866 C279.151087,146.485866 278.886087,146.135866 278.715087,146.069866 C278.543087,146.003866 278.320087,145.744866 278.220087,145.494866 C278.073087,145.129866 278.035087,145.239866 278.025087,146.059866 C278.018087,146.620866 278.156087,147.367866 278.331087,147.719866 C278.512087,148.081866 278.733087,149.317866 278.841087,150.571866 C278.960087,151.960866 279.148087,152.961866 279.345087,153.263866 C279.557087,153.586866 279.746087,154.735866 279.925087,156.791866 C280.071087,158.468866 280.295087,160.290866 280.423087,160.840866 C280.747087,162.235866 280.751087,172.734866 280.427087,173.940866 C280.295087,174.435866 280.066087,176.124866 279.920087,177.694866 C279.749087,179.526866 279.543087,180.715866 279.346087,181.016866 C279.163087,181.295866 278.960087,182.341866 278.843087,183.602866 C278.735087,184.767866 278.511087,185.972866 278.345087,186.280866 C278.179087,186.588866 277.946087,187.373866 277.827087,188.025866 C277.709087,188.676866 277.474087,189.361866 277.306087,189.547866 C277.137087,189.733866 276.947087,190.370866 276.882087,190.963866 C276.818087,191.555866 276.600087,192.330866 276.399087,192.684866 C276.197087,193.039866 275.973087,193.647866 275.900087,194.036866 C275.827087,194.425866 275.595087,194.961866 275.386087,195.228866 C275.177087,195.494866 274.928087,196.126866 274.833087,196.633866 C274.738087,197.140866 274.530087,197.709866 274.371087,197.897866 C274.211087,198.086866 273.975087,198.613866 273.845087,199.069866 C273.715087,199.525866 273.483087,199.947866 273.330087,200.005866 C273.177087,200.064866 272.990087,200.476866 272.915087,200.920866 C272.840087,201.365866 272.612087,201.940866 272.408087,202.200866 C272.204087,202.459866 271.976087,202.914866 271.902087,203.210866 C271.827087,203.507866 271.609087,203.860866 271.416087,203.995866 C271.223087,204.130866 270.999087,204.542866 270.919087,204.910866 C270.838087,205.279866 270.613087,205.739866 270.421087,205.931866 C270.228087,206.124866 270.009087,206.523866 269.936087,206.817866 C269.862087,207.111866 269.579087,207.545866 269.307087,207.782866 C269.035087,208.019866 268.810087,208.353866 268.808087,208.526866 C268.805087,208.849866 267.919087,210.281866 267.212087,211.107866 C266.992087,211.364866 266.811087,211.679866 266.809087,211.807866 C266.806087,212.054866 266.266087,212.796866 265.362087,213.793866 C265.059087,214.126866 264.812087,214.498866 264.812087,214.620866 C264.812087,214.741866 264.587087,215.101866 264.312087,215.421866 C264.037087,215.741866 263.812087,216.065866 263.812087,216.141866 C263.812087,216.218866 263.565087,216.553866 263.262087,216.885866 C262.960087,217.217866 262.532087,217.730866 262.312087,218.024866 C262.092087,218.318866 261.687087,218.817866 261.412087,219.134866 C261.137087,219.450866 260.597087,220.138866 260.212087,220.661866 C259.827087,221.185866 259.130087,222.013866 258.662087,222.502866 C258.194087,222.990866 257.812087,223.471866 257.812087,223.570866 C257.812087,223.669866 257.587087,223.835866 257.312087,223.940866 C257.037087,224.045866 256.812087,224.251866 256.812087,224.399866 C256.812087,224.547866 256.610087,224.858866 256.362087,225.090866 C256.114087,225.322866 255.802087,225.631866 255.668087,225.776866 C255.358087,226.110866 255.159087,226.313866 254.172087,227.300866 C253.732087,227.740866 253.282087,228.190866 253.172087,228.300866 C253.062087,228.410866 252.612087,228.860866 252.172087,229.300866 C251.732087,229.740866 251.282087,230.190866 251.172087,230.300866 C251.062087,230.410866 250.599087,230.869866 250.142087,231.320866 C249.686087,231.770866 248.903087,232.544866 248.404087,233.040866 C247.905087,233.535866 247.385087,233.940866 247.250087,233.940866 C247.114087,233.940866 246.901087,234.165866 246.776087,234.440866 C246.650087,234.715866 246.463087,234.940866 246.360087,234.940866 C246.257087,234.940866 245.922087,235.187866 245.617087,235.490866 C245.311087,235.793866 244.897087,236.172866 244.698087,236.334866 C244.498087,236.495866 243.925087,236.967866 243.424087,237.382866 C242.922087,237.796866 242.263087,238.339866 241.960087,238.588866 C241.656087,238.837866 241.102087,239.327866 240.728087,239.678866 L240.049087,240.316866 L241.118087,240.449866 C243.523087,240.750866 252.869087,240.460866 253.455087,240.067866 C253.760087,239.863866 254.668087,239.620866 255.524087,239.513866 C256.364087,239.409866 257.247087,239.195866 257.488087,239.037866 C257.729087,238.880866 258.541087,238.663866 259.294087,238.557866 C260.183087,238.431866 260.811087,238.223866 261.089087,237.962866 C261.324087,237.741866 261.892087,237.500866 262.352087,237.426866 C262.811087,237.353866 263.234087,237.170866 263.292087,237.020866 C263.350087,236.870866 263.774087,236.687866 264.235087,236.613866 C264.696087,236.539866 265.246087,236.306866 265.458087,236.094866 C265.670087,235.882866 266.129087,235.611866 266.478087,235.492866 C266.827087,235.373866 267.319087,235.117866 267.571087,234.922866 C267.824087,234.727866 268.297087,234.509866 268.623087,234.438866 C268.949087,234.366866 269.302087,234.145866 269.408087,233.947866 C269.515087,233.748866 269.829087,233.529866 270.107087,233.459866 C270.385087,233.389866 270.612087,233.241866 270.612087,233.129866 C270.612087,233.017866 271.004087,232.758866 271.483087,232.552866 C271.962087,232.347866 272.409087,232.035866 272.477087,231.859866 C272.544087,231.684866 272.776087,231.540866 272.991087,231.540866 C273.207087,231.540866 273.518087,231.405866 273.683087,231.240866 C274.015087,230.909866 274.529087,230.844866 274.695087,231.113866 C274.754087,231.209866 274.633087,231.440866 274.425087,231.628866 C274.218087,231.816866 273.993087,232.188866 273.926087,232.455866 C273.859087,232.722866 273.727087,232.940866 273.632087,232.940866 C273.537087,232.940866 273.100087,233.312866 272.661087,233.766866 C272.223087,234.220866 271.756087,234.693866 271.624087,234.816866 C271.492087,234.939866 270.944087,235.468866 270.406087,235.990866 C269.868087,236.513866 269.339087,236.940866 269.230087,236.940866 C269.121087,236.940866 268.956087,237.076866 268.863087,237.242866 C268.612087,237.689866 265.612087,240.140866 265.315087,240.140866 C265.174087,240.140866 265.012087,240.320866 264.954087,240.539866 C264.897087,240.758866 264.684087,241.000866 264.481087,241.076866 C264.278087,241.152866 263.994087,241.377866 263.851087,241.577866 C263.707087,241.777866 263.496087,241.940866 263.381087,241.940866 C263.266087,241.940866 262.927087,242.187866 262.626087,242.490866 C261.922087,243.200866 261.236087,243.719866 260.622087,244.009866 C260.352087,244.136866 259.902087,244.449866 259.622087,244.704866 C259.341087,244.959866 258.973087,245.293866 258.802087,245.447866 C258.632087,245.600866 258.224087,245.841866 257.897087,245.983866 C257.570087,246.124866 257.124087,246.401866 256.907087,246.597866 C255.991087,247.426866 255.252087,247.922866 254.743087,248.050866 C254.445087,248.125866 254.114087,248.350866 254.007087,248.549866 C253.900087,248.749866 253.623087,248.973866 253.392087,249.046866 C253.161087,249.120866 252.801087,249.351866 252.592087,249.560866 C252.383087,249.769866 252.032087,249.940866 251.812087,249.940866 C251.592087,249.940866 251.252087,250.097866 251.056087,250.290866 C250.470087,250.865866 248.694087,251.890866 248.031087,252.036866 C247.691087,252.111866 247.412087,252.240866 247.412087,252.324866 C247.412087,252.408866 247.075087,252.649866 246.662087,252.859866 C246.249087,253.068866 245.697087,253.397866 245.435087,253.590866 C245.173087,253.783866 244.766087,253.940866 244.531087,253.940866 C244.297087,253.940866 243.774087,254.165866 243.369087,254.440866 C242.964087,254.715866 242.560087,254.940866 242.471087,254.940866 C242.382087,254.940866 241.905087,255.153866 241.410087,255.413866 C240.916087,255.673866 240.169087,255.948866 239.751087,256.024866 C239.332087,256.100866 238.827087,256.325866 238.628087,256.524866 C238.429087,256.723866 237.917087,256.950866 237.489087,257.030866 C237.062087,257.109866 236.564087,257.307866 236.383087,257.469866 C236.202087,257.632866 235.511087,257.841866 234.848087,257.935866 C234.185087,258.029866 233.388087,258.285866 233.077087,258.505866 C232.766087,258.724866 232.069087,258.965866 231.529087,259.039866 C230.988087,259.114866 230.334087,259.313866 230.075087,259.482866 C229.817087,259.652866 228.826087,259.869866 227.874087,259.966866 C226.766087,260.078866 226.013087,260.258866 225.785087,260.465866 C225.551087,260.676866 224.782087,260.853866 223.570087,260.975866 C222.548087,261.078866 221.352087,261.305866 220.912087,261.479866 C220.330087,261.710866 219.039087,261.832866 216.169087,261.928866 C214.000087,262.001866 212.174087,262.111866 212.113087,262.173866 C211.965087,262.321866 213.014087,263.428866 213.462087,263.596866 C213.655087,263.668866 213.814087,263.843866 213.816087,263.984866 C213.819087,264.125866 214.146087,264.510866 214.543087,264.840866 C216.163087,266.184866 216.480087,266.459866 216.909087,266.890866 C217.156087,267.137866 217.446087,267.340866 217.554087,267.340866 C217.662087,267.340866 217.921087,267.530866 218.131087,267.761866 C218.341087,267.993866 218.850087,268.355866 219.262087,268.565866 C219.675087,268.776866 220.012087,269.027866 220.012087,269.122866 C220.012087,269.218866 220.215087,269.349866 220.462087,269.413866 C220.709087,269.477866 221.173087,269.757866 221.493087,270.035866 C221.813087,270.313866 222.223087,270.540866 222.404087,270.540866 C222.586087,270.540866 223.039087,270.765866 223.412087,271.040866 C223.785087,271.315866 224.204087,271.540866 224.343087,271.540866 C224.482087,271.540866 224.757087,271.710866 224.954087,271.918866 C225.151087,272.126866 225.823087,272.401866 226.447087,272.529866 C227.071087,272.657866 227.686087,272.888866 227.813087,273.041866 C227.940087,273.195866 228.443087,273.380866 228.931087,273.453866 C229.418087,273.526866 230.030087,273.754866 230.290087,273.958866 C230.609087,274.210866 231.361087,274.398866 232.605087,274.539866 C233.618087,274.654866 234.687087,274.872866 234.980087,275.023866 C235.530087,275.307866 236.287087,275.388866 241.712087,275.743866 C243.472087,275.859866 245.227087,276.004866 245.612087,276.066866 L246.312087,276.178866 L245.562087,276.564866 C245.150087,276.776866 244.812087,277.023866 244.812087,277.113866 C244.812087,277.499866 243.535087,277.790866 241.030087,277.975866 C239.293087,278.103866 238.189087,278.277866 237.895087,278.469866 C236.540087,279.358866 217.277087,279.353866 215.920087,278.464866 C215.575087,278.238866 214.654087,278.084866 212.920087,277.963866 C211.270087,277.849866 210.258087,277.685866 209.952087,277.485866 C209.696087,277.317866 208.884087,277.115866 208.146087,277.036866 C207.312087,276.947866 206.623087,276.749866 206.323087,276.513866 C206.027087,276.280866 205.284087,276.063866 204.410087,275.953866 C203.624087,275.854866 202.830087,275.641866 202.646087,275.479866 C202.462087,275.316866 201.907087,275.119866 201.412087,275.041866 C200.917087,274.962866 200.323087,274.724866 200.091087,274.511866 C199.860087,274.299866 199.207087,274.052866 198.640087,273.962866 C198.073087,273.873866 197.452087,273.661866 197.260087,273.492866 C197.069087,273.323866 196.597087,273.120866 196.212087,273.041866 C195.827087,272.962866 195.332087,272.732866 195.112087,272.531866 C194.892087,272.329866 194.323087,272.077866 193.848087,271.970866 C193.372087,271.863866 192.832087,271.644866 192.648087,271.483866 C192.463087,271.322866 191.994087,271.089866 191.605087,270.964866 C191.217087,270.840866 190.745087,270.558866 190.557087,270.339866 C190.370087,270.119866 189.990087,269.940866 189.714087,269.940866 C189.438087,269.940866 189.034087,269.762866 188.817087,269.545866 C188.600087,269.328866 188.193087,269.093866 187.912087,269.022866 C187.631087,268.952866 187.319087,268.740866 187.219087,268.552866 C187.118087,268.364866 186.666087,268.100866 186.213087,267.964866 C185.761087,267.828866 185.341087,267.588866 185.280087,267.429866 C185.219087,267.270866 185.002087,267.140866 184.798087,267.140866 C184.593087,267.140866 184.118087,266.870866 183.743087,266.540866 C183.367087,266.210866 182.925087,265.940866 182.760087,265.940866 C182.596087,265.940866 182.344087,265.799866 182.201087,265.627866 C182.058087,265.455866 181.665087,265.171866 181.327087,264.997866 C180.989087,264.823866 180.594087,264.514866 180.451087,264.310866 C180.307087,264.107866 180.059087,263.940866 179.899087,263.940866 C179.739087,263.940866 179.454087,263.760866 179.266087,263.540866 C179.077087,263.320866 178.824087,263.140866 178.704087,263.140866 C178.583087,263.140866 178.182087,262.870866 177.812087,262.540866 C177.442087,262.210866 177.079087,261.940866 177.005087,261.940866 C176.931087,261.940866 176.628087,261.715866 176.331087,261.440866 C176.034087,261.165866 175.712087,260.940866 175.615087,260.940866 C175.518087,260.940866 175.382087,260.760866 175.312087,260.540866 C175.242087,260.320866 175.065087,260.140866 174.917087,260.140866 C174.601087,260.140866 172.455087,258.424866 170.483087,256.595866 C170.219087,256.350866 169.825087,256.054866 169.608087,255.938866 C169.390087,255.821866 169.212087,255.594866 169.212087,255.433866 C169.212087,255.272866 169.103087,255.140866 168.970087,255.140866 C168.681087,255.140866 168.719087,255.176866 163.957087,250.403866 C158.990087,245.424866 159.212087,245.659866 159.212087,245.382866 C159.212087,245.249866 159.080087,245.140866 158.919087,245.140866 C158.758087,245.140866 158.528087,244.957866 158.409087,244.734866 C158.289087,244.511866 157.701087,243.838866 157.102087,243.239866 L156.012087,242.149866 L156.012087,244.614866 C156.012087,246.393866 156.095087,247.244866 156.309087,247.674866 C156.473087,248.002866 156.705087,248.983866 156.826087,249.855866 C156.971087,250.899866 157.168087,251.554866 157.404087,251.774866 C157.601087,251.958866 157.824087,252.444866 157.901087,252.853866 C157.978087,253.262866 158.167087,253.724866 158.321087,253.878866 C158.475087,254.032866 158.700087,254.524866 158.821087,254.972866 C158.941087,255.420866 159.217087,255.977866 159.434087,256.209866 C159.650087,256.442866 159.877087,256.830866 159.938087,257.072866 C159.998087,257.313866 160.166087,257.556866 160.310087,257.612866 C160.454087,257.667866 160.680087,258.039866 160.811087,258.438866 C160.943087,258.838866 161.230087,259.361866 161.450087,259.602866 C162.286087,260.521866 163.012087,261.609866 163.012087,261.944866 C163.012087,262.136866 163.192087,262.340866 163.411087,262.398866 C163.630087,262.455866 163.872087,262.668866 163.948087,262.871866 C164.024087,263.074866 164.249087,263.358866 164.449087,263.501866 C164.649087,263.645866 164.812087,263.873866 164.812087,264.007866 C164.812087,264.141866 165.059087,264.479866 165.362087,264.758866 C165.665087,265.037866 166.137087,265.565866 166.412087,265.930866 C166.687087,266.295866 167.160087,266.839866 167.462087,267.139866 C167.765087,267.438866 168.012087,267.776866 168.012087,267.889866 C168.012087,268.002866 168.237087,268.241866 168.512087,268.422866 C168.787087,268.602866 169.012087,268.872866 169.012087,269.021866 C169.012087,269.171866 169.199087,269.342866 169.427087,269.402866 C169.655087,269.461866 169.890087,269.694866 169.948087,269.919866 C170.007087,270.143866 170.225087,270.381866 170.434087,270.447866 C170.642087,270.513866 170.812087,270.648866 170.812087,270.747866 C170.812087,270.845866 171.088087,271.208866 171.425087,271.553866 C172.010087,272.151866 172.022087,272.198866 171.694087,272.560866 C171.255087,273.045866 170.906087,273.042866 170.561087,272.550866 C170.411087,272.335866 169.891087,272.070866 169.405087,271.961866 C168.920087,271.852866 168.429087,271.634866 168.315087,271.478866 C168.200087,271.321866 167.815087,271.129866 167.459087,271.050866 C167.104087,270.972866 166.700087,270.751866 166.562087,270.558866 C166.425087,270.366866 166.015087,270.106866 165.653087,269.981866 C165.290087,269.856866 164.760087,269.571866 164.476087,269.347866 C164.191087,269.123866 163.838087,268.940866 163.692087,268.940866 C163.546087,268.940866 163.334087,268.767866 163.221087,268.556866 C163.108087,268.345866 162.740087,268.112866 162.404087,268.038866 C162.068087,267.964866 161.686087,267.732866 161.554087,267.522866 C161.423087,267.312866 161.209087,267.140866 161.079087,267.140866 C160.949087,267.140866 160.588087,266.929866 160.277087,266.670866 C159.966087,266.412866 159.482087,266.075866 159.202087,265.920866 C157.991087,265.255866 157.404087,264.818866 157.304087,264.510866 C157.246087,264.328866 156.984087,264.126866 156.723087,264.061866 C156.226087,263.936866 155.530087,263.421866 154.601087,262.490866 C154.299087,262.187866 153.985087,261.940866 153.905087,261.940866 C153.824087,261.940866 153.554087,261.738866 153.304087,261.490866 C153.054087,261.242866 152.729087,260.932866 152.581087,260.800866 C152.433087,260.667866 152.204087,260.442866 152.071087,260.300866 C151.939087,260.157866 151.466087,259.726866 151.021087,259.342866 C150.576087,258.958866 150.212087,258.541866 150.212087,258.415866 C150.212087,258.289866 150.025087,258.138866 149.797087,258.078866 C149.569087,258.019866 149.336087,257.791866 149.279087,257.573866 C149.222087,257.355866 148.997087,257.130866 148.779087,257.073866 C148.561087,257.016866 148.333087,256.783866 148.274087,256.555866 C148.214087,256.327866 148.044087,256.140866 147.896087,256.140866 C147.747087,256.140866 147.531087,255.962866 147.414087,255.744866 C147.298087,255.527866 147.002087,255.136866 146.757087,254.876866 C145.338087,253.369866 143.760087,251.347866 143.431087,250.613866 C143.325087,250.378866 143.031087,249.957866 142.776087,249.678866 C141.954087,248.779866 141.477087,248.053866 141.339087,247.490866 C141.265087,247.187866 141.111087,246.940866 140.997087,246.940866 C140.883087,246.940866 140.616087,246.547866 140.403087,246.066866 C140.191087,245.586866 139.890087,245.088866 139.735087,244.959866 C139.580087,244.831866 139.392087,244.395866 139.316087,243.990866 C139.240087,243.585866 139.016087,243.140866 138.818087,243.001866 C138.620087,242.863866 138.395087,242.500866 138.319087,242.195866 C138.243087,241.890866 138.058087,241.504866 137.908087,241.337866 C137.758087,241.170866 137.536087,240.595866 137.416087,240.059866 C137.296087,239.524866 137.031087,238.873866 136.828087,238.614866 C136.624087,238.355866 136.394087,237.805866 136.318087,237.392866 C136.241087,236.978866 136.045087,236.491866 135.881087,236.309866 C135.718087,236.127866 135.494087,235.322866 135.382087,234.519866 C135.266087,233.682866 135.057087,232.971866 134.890087,232.849866 C134.728087,232.730866 134.512087,232.022866 134.399087,231.239866 C134.288087,230.469866 134.054087,229.581866 133.878087,229.264866 C133.666087,228.882866 133.499087,227.805866 133.382087,226.064866 C133.273087,224.457866 133.076087,223.130866 132.874087,222.640866 C132.183087,220.972866 132.181087,204.571866 132.871087,203.140866 C133.092087,202.683866 133.271087,201.552866 133.387087,199.882866 C133.510087,198.102866 133.655087,197.220866 133.864087,196.982866 C134.029087,196.794866 134.228087,196.109866 134.306087,195.459866 C134.453087,194.242866 134.761087,193.340866 135.030087,193.340866 C135.114087,193.340866 135.245087,192.823866 135.321087,192.190866 C135.396087,191.557866 135.624087,190.725866 135.827087,190.340866 C136.030087,189.955866 136.295087,189.253866 136.415087,188.780866 C136.535087,188.307866 136.761087,187.870866 136.917087,187.810866 C137.073087,187.750866 137.257087,187.373866 137.325087,186.971866 C137.394087,186.569866 137.607087,186.015866 137.799087,185.740866 C137.991087,185.465866 138.262087,184.896866 138.401087,184.476866 C138.539087,184.056866 138.777087,183.664866 138.930087,183.605866 C139.083087,183.547866 139.303087,183.143866 139.420087,182.709866 C139.537087,182.275866 139.763087,181.869866 139.922087,181.808866 C140.082087,181.747866 140.212087,181.568866 140.212087,181.410866 C140.212087,181.251866 140.415087,180.918866 140.662087,180.668866 C140.910087,180.419866 141.268087,179.883866 141.459087,179.477866 C141.649087,179.072866 141.891087,178.740866 141.995087,178.740866 C142.100087,178.740866 142.249087,178.538866 142.326087,178.290866 C142.404087,178.043866 142.681087,177.615866 142.942087,177.340866 C143.203087,177.065866 143.595087,176.651866 143.814087,176.419866 C144.033087,176.187866 144.212087,175.932866 144.212087,175.852866 C144.212087,175.493866 148.905087,170.762866 150.632087,169.380866 C151.336087,168.817866 152.101087,168.172866 152.333087,167.948866 C152.565087,167.724866 152.841087,167.540866 152.947087,167.540866 C153.053087,167.540866 153.338087,167.312866 153.580087,167.034866 C153.821087,166.756866 154.288087,166.475866 154.616087,166.409866 C154.951087,166.342866 155.212087,166.162866 155.212087,165.998866 C155.212087,165.837866 155.482087,165.603866 155.812087,165.479866 C156.142087,165.354866 156.412087,165.177866 156.412087,165.085866 C156.412087,164.993866 156.807087,164.743866 157.291087,164.529866 C157.774087,164.315866 158.216087,164.017866 158.274087,163.866866 C158.332087,163.715866 158.620087,163.531866 158.913087,163.458866 C159.206087,163.384866 159.635087,163.147866 159.867087,162.932866 C160.098087,162.716866 160.482087,162.540866 160.721087,162.540866 C160.959087,162.540866 161.396087,162.316866 161.691087,162.042866 C161.987087,161.768866 162.463087,161.485866 162.749087,161.413866 C163.036087,161.341866 163.437087,161.115866 163.641087,160.911866 C163.845087,160.707866 164.275087,160.540866 164.597087,160.540866 C164.919087,160.540866 165.435087,160.328866 165.747087,160.066866 C166.058087,159.805866 166.598087,159.529866 166.948087,159.453866 C167.298087,159.377866 167.687087,159.190866 167.814087,159.038866 C167.940087,158.886866 168.553087,158.656866 169.177087,158.527866 C169.801087,158.397866 170.513087,158.132866 170.760087,157.938866 C171.007087,157.744866 171.547087,157.522866 171.960087,157.446866 C172.374087,157.369866 172.859087,157.174866 173.038087,157.014866 C173.218087,156.853866 173.977087,156.626866 174.725087,156.509866 C175.500087,156.388866 176.327087,156.119866 176.646087,155.883866 C177.504087,155.249866 180.329087,155.257866 181.195087,155.896866 C181.534087,156.147866 182.220087,156.428866 182.719087,156.522866 C183.218087,156.615866 183.781087,156.829866 183.969087,156.999866 C184.158087,157.168866 184.642087,157.367866 185.045087,157.442866 C185.448087,157.517866 185.968087,157.755866 186.200087,157.972866 C186.433087,158.189866 187.071087,158.437866 187.619087,158.523866 C188.167087,158.610866 188.774087,158.825866 188.969087,159.001866 C189.163087,159.177866 189.697087,159.381866 190.155087,159.454866 C190.613087,159.527866 191.167087,159.755866 191.386087,159.959866 C191.606087,160.164866 192.174087,160.389866 192.649087,160.459866 C193.124087,160.529866 193.802087,160.752866 194.156087,160.953866 C194.511087,161.155866 195.119087,161.379866 195.508087,161.452866 C195.897087,161.525866 196.421087,161.747866 196.673087,161.945866 C196.924087,162.143866 197.659087,162.402866 198.305087,162.522866 C198.951087,162.641866 199.629087,162.874866 199.811087,163.039866 C199.994087,163.205866 200.271087,163.341866 200.428087,163.341866 C200.980087,163.343866 202.202087,163.759866 202.483087,164.040866 C202.640087,164.196866 203.330087,164.415866 204.016087,164.525866 C204.703087,164.636866 205.411087,164.856866 205.589087,165.015866 C205.767087,165.174866 206.341087,165.368866 206.864087,165.445866 C207.388087,165.523866 208.031087,165.755866 208.293087,165.961866 C208.561087,166.172866 209.356087,166.419866 210.112087,166.526866 C210.850087,166.630866 211.602087,166.848866 211.783087,167.010866 C211.964087,167.172866 212.562087,167.366866 213.112087,167.440866 C213.662087,167.515866 214.347087,167.741866 214.634087,167.943866 C214.928087,168.150866 215.844087,168.407866 216.725087,168.529866 C217.588087,168.649866 218.490087,168.876866 218.731087,169.034866 C218.971087,169.191866 219.650087,169.378866 220.240087,169.449866 C220.830087,169.520866 221.566087,169.758866 221.877087,169.976866 C222.274087,170.256866 222.975087,170.424866 224.240087,170.543866 C225.229087,170.635866 226.241087,170.844866 226.490087,171.007866 C226.738087,171.170866 227.683087,171.392866 228.589087,171.502866 C229.579087,171.621866 230.380087,171.830866 230.593087,172.023866 C230.850087,172.256866 231.644087,172.397866 233.475087,172.537866 C234.864087,172.643866 236.320087,172.863866 236.709087,173.026866 C237.126087,173.200866 238.710087,173.409866 240.565087,173.533866 C242.296087,173.649866 244.207087,173.877866 244.812087,174.040866 C246.331087,174.448866 251.547087,174.446866 252.894087,174.038866 C253.435087,173.874866 254.910087,173.643866 256.173087,173.526866 C257.537087,173.399866 258.653087,173.191866 258.925087,173.013866 C259.176087,172.849866 259.973087,172.630866 260.696087,172.528866 C261.540087,172.409866 262.150087,172.202866 262.400087,171.952866 C262.614087,171.738866 263.110087,171.502866 263.501087,171.429866 C263.892087,171.356866 264.212087,171.212866 264.212087,171.111866 C264.212087,171.009866 264.595087,170.748866 265.062087,170.530866 C266.380087,169.916866 268.857087,167.813866 269.504087,166.759866 C269.619087,166.573866 269.892087,166.121866 270.112087,165.754866 C270.332087,165.388866 270.715087,164.861866 270.962087,164.585866 C271.210087,164.308866 271.412087,163.858866 271.412087,163.584866 C271.412087,163.311866 271.587087,162.804866 271.800087,162.459866 C272.014087,162.113866 272.281087,161.259866 272.393087,160.561866 C272.506087,159.863866 272.736087,159.081866 272.905087,158.823866 C273.298087,158.222866 273.301087,156.756866 272.909087,156.197866 C272.743087,155.959866 272.506087,155.018866 272.384087,154.106866 C272.261087,153.194866 272.043087,152.265866 271.899087,152.043866 C271.755087,151.822866 271.528087,151.010866 271.395087,150.241866 C271.263087,149.471866 271.027087,148.749866 270.872087,148.635866 C270.716087,148.522866 270.503087,148.043866 270.397087,147.571866 C270.291087,147.099866 270.034087,146.471866 269.827087,146.176866 C269.619087,145.881866 269.388087,145.283866 269.314087,144.847866 C269.239087,144.411866 269.016087,143.940866 268.818087,143.801866 C268.620087,143.663866 268.397087,143.307866 268.322087,143.010866 C268.248087,142.714866 268.019087,142.258866 267.813087,141.996866 C267.608087,141.735866 267.381087,141.255866 267.310087,140.929866 C267.238087,140.603866 267.013087,140.248866 266.809087,140.139866 C266.606087,140.030866 266.379087,139.751866 266.306087,139.520866 C266.232087,139.289866 265.999087,138.927866 265.786087,138.714866 C265.573087,138.501866 265.346087,138.060866 265.281087,137.734866 C265.215087,137.407866 265.034087,137.140866 264.877087,137.140866 C264.720087,137.140866 264.497087,136.870866 264.382087,136.540866 C264.267087,136.210866 264.094087,135.940866 263.998087,135.940866 C263.901087,135.940866 263.677087,135.658866 263.499087,135.314866 C263.188087,134.714866 262.806087,134.230866 261.890087,133.279866 C261.658087,133.037866 261.404087,132.637866 261.326087,132.390866 C261.249087,132.143866 261.066087,131.940866 260.922087,131.940866 C260.777087,131.940866 260.498087,131.693866 260.303087,131.390866 C259.828087,130.655866 252.421087,123.266866 251.856087,122.964866 C251.612087,122.833866 251.412087,122.600866 251.412087,122.446866 C251.412087,122.293866 251.210087,122.104866 250.962087,122.027866 C250.715087,121.950866 250.138087,121.494866 249.682087,121.013866 C249.225087,120.533866 248.769087,120.140866 248.668087,120.140866 C248.567087,120.140866 248.183087,119.871866 247.816087,119.543866 C247.448087,119.215866 246.982087,118.894866 246.780087,118.830866 C246.577087,118.766866 246.412087,118.586866 246.412087,118.430866 C246.412087,118.275866 246.185087,118.091866 245.907087,118.021866 C245.629087,117.951866 245.311087,117.724866 245.200087,117.517866 C245.089087,117.310866 244.880087,117.140866 244.736087,117.140866 C244.592087,117.140866 244.303087,116.951866 244.093087,116.720866 C243.884087,116.488866 243.460087,116.168866 243.152087,116.009866 C242.618087,115.733866 242.402087,115.568866 241.364087,114.640866 C241.118087,114.420866 240.578087,114.087866 240.164087,113.900866 C239.751087,113.713866 239.412087,113.465866 239.412087,113.350866 C239.412087,113.234866 239.284087,113.140866 239.127087,113.140866 C238.971087,113.140866 238.578087,112.918866 238.255087,112.646866 C237.932087,112.374866 237.453087,112.058866 237.190087,111.945866 C236.927087,111.831866 236.307087,111.423866 235.812087,111.038866 C235.317087,110.653866 234.530087,110.161866 234.062087,109.946866 C233.594087,109.730866 233.212087,109.471866 233.212087,109.369866 C233.212087,109.267866 232.991087,109.128866 232.720087,109.060866 C232.450087,108.992866 231.987087,108.712866 231.691087,108.438866 C231.396087,108.164866 231.004087,107.940866 230.822087,107.940866 C230.639087,107.940866 230.185087,107.715866 229.812087,107.440866 C229.439087,107.165866 229.020087,106.940866 228.881087,106.940866 C228.742087,106.940866 228.467087,106.769866 228.270087,106.559866 C228.073087,106.350866 227.540087,106.079866 227.085087,105.958866 C226.631087,105.837866 226.152087,105.609866 226.021087,105.451866 C225.891087,105.294866 225.521087,105.108866 225.198087,105.037866 C224.876087,104.966866 224.500087,104.750866 224.362087,104.556866 C224.225087,104.363866 223.842087,104.142866 223.512087,104.065866 C222.599087,103.854866 221.812087,103.511866 221.812087,103.325866 C221.812087,103.233866 221.505087,103.100866 221.129087,103.030866 C220.754087,102.960866 220.260087,102.728866 220.032087,102.515866 C219.803087,102.303866 219.207087,102.052866 218.707087,101.959866 C218.207087,101.865866 217.643087,101.651866 217.455087,101.481866 C217.266087,101.312866 216.767087,101.110866 216.346087,101.032866 C215.925087,100.954866 215.430087,100.729866 215.246087,100.533866 C215.062087,100.337866 214.379087,100.079866 213.728087,99.9598664 C213.077087,99.8398664 212.396087,99.6068664 212.214087,99.4428664 C212.032087,99.2778664 211.448087,99.0828664 210.916087,99.0108664 C210.384087,98.9378664 209.784087,98.7128664 209.582087,98.5108664 C209.354087,98.2828664 208.782087,98.0988664 208.064087,98.0218664 C207.430087,97.9538664 206.552087,97.7368664 206.112087,97.5388664 C205.672087,97.3408664 204.737087,97.0828664 204.033087,96.9648664 C203.330087,96.8468664 202.600087,96.6108664 202.411087,96.4398664 C202.183087,96.2338664 201.391087,96.0698664 200.061087,95.9548664 C198.958087,95.8588664 197.753087,95.6418664 197.384087,95.4728664 C197.014087,95.3038664 195.603087,95.0688664 194.247087,94.9508664 C192.702087,94.8158664 191.544087,94.6098664 191.147087,94.4008664 C190.600087,94.1128664 189.577087,94.0538664 183.798087,93.9788664 L177.084087,93.8928664 L175.498087,92.4268664 C173.318087,90.4118664 173.067087,90.2068664 171.812087,89.4308664 C171.207087,89.0568664 170.502087,88.5678664 170.245087,88.3458664 C169.988087,88.1228664 169.663087,87.9408664 169.522087,87.9408664 C169.381087,87.9408664 169.051087,87.7738664 168.789087,87.5698664 C168.527087,87.3658664 167.975087,87.0888664 167.564087,86.9548664 C167.152087,86.8208664 166.742087,86.5798664 166.652087,86.4198664 C166.563087,86.2598664 166.028087,86.0558664 165.465087,85.9668664 C164.901087,85.8778664 164.218087,85.6598664 163.948087,85.4828664 C163.677087,85.3058664 162.974087,85.0988664 162.384087,85.0238664 C161.271087,84.8818664 160.611087,84.6338664 160.373087,84.2668664 C160.213087,84.0208664 150.414087,83.8908664 149.112087,84.1168664" id="path4" fill="#BA2BD2"></path>
        </g>
    </g>
</svg>