<?xml version="1.0" encoding="UTF-8" standalone="no"?><!DOCTYPE svg PUBLIC "-//W3C//DTD SVG 1.1//EN" "http://www.w3.org/Graphics/SVG/1.1/DTD/svg11.dtd">
<svg width="100%" height="100%" viewBox="0 0 373 400" version="1.1" 
    xmlns="http://www.w3.org/2000/svg" 
    xmlns:xlink="http://www.w3.org/1999/xlink" xml:space="preserve" 
    xmlns:serif="http://www.serif.com/" style="fill-rule:evenodd;clip-rule:evenodd;stroke-linejoin:round;stroke-miterlimit:1.41421;">
    <g id="ngrx">
        <g id="badge">
            <path id="Path-2" d="M186.385,4.4l-182.785,63.448l26.168,242.497l156.617,85.314l0,-391.259Z" style="fill:#412846;"/>
            <path id="Path-21" serif:id="Path-2" d="M185.6,4.4l182.785,63.448l-26.168,242.497l-156.617,85.314l0,-391.259Z" style="fill:#4b314f;"/>
        </g>
    </g>
    <g>
        <g id="Layer4">
            <path d="M90.1,181.087c4.22,5.532 8.444,11.07 12.369,16.816c4.06,5.944 7.986,11.992 11.57,18.236c10.539,18.365 16.855,37.548 34.926,49.981c37.448,25.763 99.077,24.185 122.497,-19.433c17.022,-31.701 -3.315,-66.795 -24.059,-88.681c-19.818,-20.911 -17.616,-37.129 -37.737,-47.752c-15.101,-7.972 -38.433,1.316 -44.053,17.244c-2.253,6.386 -1.035,13.741 -3.658,19.985c-1.048,2.493 -11.125,4.671 -11.818,4.829c-3.439,0.787 -6.922,1.371 -10.401,1.954c-3.085,0.308 -6.178,0.616 -9.226,1.187c-1.965,0.368 -3.902,0.919 -5.774,1.622c-0.086,0.033 -2.784,1.44 -1.427,2.431c5.946,4.341 15.27,6.923 21.775,8.509c6.241,1.522 12.553,2.871 18.939,3.568c12.508,1.366 25.622,-0.798 37.998,2.199c4.035,0.977 8.091,2.101 11.817,3.931c15.951,7.834 35.29,30.31 25.899,49.469c-8.736,17.823 -31.601,32.449 -51.657,23.269c-16.378,-7.496 -24.831,-18.94 -37.504,-30.871c-3.026,-2.849 -6.527,-5.16 -9.972,-7.486c-2.3,-1.553 -4.771,-2.843 -7.231,-4.128l5.504,-1.744c4.375,0.464 -9.129,-4.953 -9.129,-4.953c0,0 3.577,-2.185 6.927,-3.265c6.122,-1.976 12.65,-2.431 19.048,-3.1c13.431,-1.403 31.711,0.508 40.549,12.253c0,0 -29.221,-6.282 -42.552,-3.987c0,0 21.16,4.689 20.851,8.394c0,0 -18.959,-1 -18.224,0.792c0,0 27.895,32.504 45.346,30.654c2.757,-0.292 3.961,-0.255 6.666,-1.005c2.914,-0.808 5.854,-1.972 8.58,-3.281c8.239,-3.959 14.999,-14.797 15.125,-23.894c0.268,-19.264 -25.004,-33.069 -41.344,-33.792l-100.62,0.049Zm96.401,-55.512c3.541,0.297 6.066,4.715 5.634,9.859c-0.431,5.144 -3.657,9.079 -7.198,8.782c-3.541,-0.298 -6.065,-4.715 -5.634,-9.859c0.432,-5.144 3.657,-9.079 7.198,-8.782Z" style="fill:#d0ae25;"/>
        </g>
    </g>
</svg>