<svg xmlns="http://www.w3.org/2000/svg" xmlns:xlink="http://www.w3.org/1999/xlink" version="1.1" id="Layer_1" x="0px"
    y="0px" viewBox="0 0 250 250" style="enable-background:new 0 0 250 250;" xml:space="preserve">
    <style type="text/css">
        .st0 {
            fill: #DD0031;
        }

        .st1 {
            fill: #C3002F;
        }

        .st2 {
            fill: #FFFFFF;
        }
    </style>
    <g>
        <polygon class="st0"
            points="125,30 125,30 125,30 31.9,63.2 46.1,186.3 125,230 125,230 125,230 203.9,186.3 218.1,63.2  " />
        <polygon class="st1"
            points="125,30 125,52.2 125,52.1 125,153.4 125,153.4 125,230 125,230 203.9,186.3 218.1,63.2 125,30  " />
    </g>
    <svg id="storage" x="85" y="85" class="st2">
        <path style=" stroke:none;fill-rule:nonzero;fill-opacity:1;"
            d="M 39.9375 0 C 57.53125 0 72.410156 7.265625 72.914062 15.960938 C 72.410156 24.65625 57.53125 31.921875 39.9375 31.921875 C 22.339844 31.921875 7.464844 24.65625 6.957031 15.960938 C 7.464844 7.265625 22.339844 0 39.9375 0 Z M 39.9375 0 " />
        <path style=" stroke:none;fill-rule:nonzero;fill-opacity:1;"
            d="M 72.960938 63.460938 C 72.960938 72.355469 57.839844 79.871094 39.9375 79.871094 C 22.035156 79.871094 6.910156 72.355469 6.910156 63.460938 L 6.910156 55.613281 C 12.566406 62.402344 25.070312 67.019531 39.9375 67.019531 C 54.800781 67.019531 67.308594 62.402344 72.960938 55.613281 Z M 72.960938 63.460938 " />
        <path style=" stroke:none;fill-rule:nonzero;fill-opacity:1;"
            d="M 72.960938 47.367188 C 72.960938 56.261719 57.839844 63.777344 39.9375 63.777344 C 22.035156 63.777344 6.910156 56.261719 6.910156 47.367188 L 6.910156 39.191406 C 12.566406 45.980469 25.070312 50.59375 39.9375 50.59375 C 54.800781 50.59375 67.308594 45.976562 72.960938 39.191406 Z M 72.960938 47.367188 " />
        <path style=" stroke:none;fill-rule:nonzero;fill-opacity:1;"
            d="M 72.960938 30.941406 C 72.960938 39.839844 57.839844 47.351562 39.9375 47.351562 C 22.035156 47.351562 6.910156 39.835938 6.910156 30.941406 L 6.910156 23.757812 C 12.566406 30.546875 25.070312 35.164062 39.9375 35.164062 C 54.800781 35.164062 67.308594 30.546875 72.960938 23.757812 Z M 72.960938 30.941406 " />
    </svg>
</svg>