<svg width="188" height="200" viewBox="0 0 188 200" fill="none" xmlns="http://www.w3.org/2000/svg">
<path d="M94 0L0.899994 33.2L15.1 156.3L94 200L172.9 156.3L187.1 33.2L94 0Z" fill="#FF9900"/>
<path d="M94 0V22.2V22.1V123.4V200L172.9 156.3L187.1 33.2L94 0Z" fill="#FF9900"/>
<path d="M73.6921 90.978C73.6635 91.9327 73.7898 92.8857 74.0661 93.8C74.3392 94.5875 74.6805 95.3497 75.0861 96.078C75.231 96.2889 75.3135 96.5363 75.3241 96.792C75.3062 96.9882 75.2412 97.1772 75.1347 97.343C75.0282 97.5087 74.8832 97.6463 74.7121 97.744L72.7061 99.07C72.4675 99.2404 72.1832 99.3352 71.8901 99.342C71.7093 99.339 71.5311 99.2982 71.3672 99.222C71.2032 99.1459 71.057 99.0362 70.9381 98.9C70.4977 98.4588 70.1098 97.9682 69.7821 97.438C69.4761 96.894 69.1701 96.282 68.8301 95.568C67.7148 96.9614 66.2954 98.0811 64.6807 98.8413C63.0659 99.6016 61.2986 99.9822 59.5141 99.954C58.3612 100.016 57.2076 99.8468 56.1213 99.4555C55.0351 99.0642 54.0384 98.4591 53.1901 97.676C52.4008 96.8794 51.7873 95.9263 51.3891 94.878C50.9909 93.8298 50.8168 92.7097 50.8781 91.59C50.8369 90.3577 51.072 89.1319 51.5662 88.0023C52.0603 86.8727 52.8011 85.868 53.7341 85.062C55.9498 83.3348 58.7146 82.4655 61.5201 82.614C62.6577 82.6089 63.7942 82.6885 64.9201 82.852C66.1101 83.022 67.3001 83.26 68.5581 83.532V81.22C68.7397 79.4008 68.2028 77.5827 67.0621 76.154C65.5921 75.0191 63.7407 74.4954 61.8941 74.692C60.7488 74.6974 59.608 74.8343 58.4941 75.1C57.3346 75.3751 56.1979 75.7389 55.0941 76.188L53.9721 76.596H53.4961C53.0201 76.596 52.8161 76.256 52.8161 75.61V74.046C52.7859 73.6716 52.8564 73.296 53.0201 72.958C53.273 72.6673 53.5863 72.4353 53.9381 72.278C55.211 71.6655 56.5442 71.187 57.9161 70.85C59.5263 70.4353 61.1833 70.2296 62.8461 70.238C65.8434 69.9767 68.8232 70.9049 71.1421 72.822C72.0943 73.8674 72.8188 75.0994 73.2695 76.4398C73.7202 77.7802 73.8872 79.1996 73.7601 80.608L73.6921 90.978ZM60.8401 95.806C61.998 95.8077 63.1478 95.6122 64.2401 95.228C65.4035 94.8309 66.4375 94.1259 67.2321 93.188C67.7566 92.6207 68.1307 91.9311 68.3201 91.182C68.5398 90.2809 68.6426 89.3553 68.6261 88.428V87C67.6271 86.7924 66.6166 86.6448 65.6001 86.558C64.5801 86.558 63.5941 86.558 62.6081 86.558C60.9459 86.4246 59.2886 86.869 57.9161 87.816C57.3856 88.2625 56.9677 88.8275 56.696 89.4654C56.4243 90.1033 56.3065 90.7962 56.3521 91.488C56.2961 92.1041 56.3701 92.725 56.5692 93.3107C56.7683 93.8964 57.0882 94.4337 57.5081 94.888C58.4534 95.6231 59.6517 95.9532 60.8401 95.806ZM86.3061 99.206C85.8751 99.2461 85.4434 99.1381 85.0821 98.9C84.7369 98.5565 84.5004 98.119 84.4021 97.642L76.9901 73.162C76.8394 72.7462 76.7478 72.3113 76.7181 71.87C76.7181 71.36 76.9561 71.088 77.4661 71.088H80.5941C81.025 71.0479 81.4567 71.1558 81.8181 71.394C82.1492 71.7429 82.3734 72.1795 82.4641 72.652L87.8021 93.8L92.8001 72.686C92.8522 72.2084 93.0685 71.7638 93.4121 71.428C93.7861 71.1898 94.2284 71.0821 94.6701 71.122H97.2201C97.6724 71.0822 98.1256 71.1895 98.5121 71.428C98.8309 71.781 99.0431 72.2172 99.1241 72.686L104.054 93.8L109.528 72.584C109.619 72.1115 109.843 71.6749 110.174 71.326C110.535 71.0878 110.967 70.9799 111.398 71.02H114.356C114.461 71.0094 114.568 71.0223 114.667 71.0579C114.767 71.0934 114.858 71.1507 114.933 71.2255C115.007 71.3004 115.065 71.3909 115.1 71.4906C115.136 71.5903 115.149 71.6967 115.138 71.802C115.151 71.9717 115.151 72.1422 115.138 72.312C115.138 72.312 115.138 72.754 114.934 73.094L107.25 97.574C107.159 98.0465 106.935 98.483 106.604 98.832C106.239 99.0608 105.81 99.1679 105.38 99.138H102.66C102.213 99.1856 101.764 99.0643 101.402 98.798C101.065 98.4575 100.85 98.0153 100.79 97.54L95.8601 77.14L90.9641 97.54C90.9041 98.0153 90.689 98.4575 90.3521 98.798C89.9871 99.0585 89.5406 99.1792 89.0941 99.138L86.3061 99.206ZM127.106 100.022C125.459 100.03 123.816 99.8473 122.21 99.478C120.946 99.2244 119.723 98.8012 118.572 98.22C118.165 98.0261 117.823 97.7192 117.586 97.336C117.454 97.0478 117.384 96.735 117.382 96.418V94.82C117.382 94.174 117.62 93.834 118.096 93.834C118.299 93.8016 118.505 93.8016 118.708 93.834L119.49 94.174C120.58 94.6609 121.72 95.0258 122.89 95.262C124.13 95.532 125.395 95.6688 126.664 95.67C128.275 95.7702 129.88 95.4043 131.288 94.616C131.799 94.305 132.219 93.8646 132.506 93.3392C132.793 92.8139 132.935 92.2222 132.92 91.624C132.936 91.2172 132.869 90.8113 132.723 90.4313C132.577 90.0513 132.355 89.7051 132.07 89.414C131.15 88.6163 130.055 88.0457 128.874 87.748L124.284 86.286C122.298 85.7868 120.524 84.6672 119.218 83.09C118.191 81.7663 117.63 80.1411 117.62 78.466C117.601 77.2779 117.895 76.1056 118.47 75.066C119.039 74.0442 119.815 73.1525 120.748 72.448C121.77 71.6974 122.923 71.1439 124.148 70.816C125.452 70.4404 126.803 70.2571 128.16 70.272C128.862 70.2224 129.566 70.2224 130.268 70.272L132.342 70.612L134.144 71.122L135.47 71.666C135.826 71.8761 136.147 72.1399 136.422 72.448C136.612 72.7661 136.706 73.1319 136.694 73.502V74.998C136.694 75.678 136.456 76.018 135.98 76.018C135.548 75.9685 135.131 75.8296 134.756 75.61C132.826 74.7713 130.74 74.354 128.636 74.386C127.178 74.3153 125.727 74.6197 124.42 75.27C123.935 75.5654 123.539 75.9872 123.276 76.4904C123.012 76.9936 122.891 77.559 122.924 78.126C122.923 78.545 123.006 78.96 123.17 79.3457C123.333 79.7314 123.574 80.0799 123.876 80.37C124.88 81.1732 126.037 81.7632 127.276 82.104L131.764 83.532C133.667 84.0367 135.373 85.1031 136.66 86.592C137.635 87.8698 138.15 89.4391 138.122 91.046C138.142 92.3171 137.863 93.5751 137.306 94.718C136.76 95.8127 135.969 96.7668 134.994 97.506C133.985 98.3169 132.831 98.9285 131.594 99.308C130.11 99.7852 128.563 100.037 127.004 100.056L127.106 100.022Z" fill="white"/>
<path fill-rule="evenodd" clip-rule="evenodd" d="M132.988 115.662C121.608 123.395 108.157 127.508 94.398 127.46C77.0023 127.554 60.1978 121.152 47.2739 109.508C46.2879 108.624 47.2739 107.4 48.3619 108.08C62.7061 116.298 78.9543 120.613 95.486 120.592C107.844 120.542 120.069 118.046 131.458 113.248C133.226 112.5 134.722 114.404 132.988 115.662Z" fill="white"/>
<path fill-rule="evenodd" clip-rule="evenodd" d="M137.34 110.8C135.98 109.066 128.5 109.984 125.134 110.392C124.114 110.392 123.978 109.61 124.896 108.964C130.846 104.782 140.638 105.972 141.896 107.4C143.154 108.828 141.59 118.62 135.98 123.312C135.13 124.026 134.314 123.618 134.688 122.7C135.844 119.47 138.666 112.432 137.34 110.8Z" fill="white"/>
</svg>
