<?xml version="1.0" encoding="utf-8"?>
<svg viewBox="81.66 76.8 476.68 512" width="476.68" height="512" xmlns="http://www.w3.org/2000/svg">
  <g>
    <g>
      <path d="M320 76.8L320 76.8L81.66 161.79L118.02 476.93L320 588.8L320 588.8L320 588.8L521.98 476.93L558.34 161.79L320 76.8L320 76.8Z" transform="matrix(1, 0, 0, 1, 0, 0)" opacity="1" fill="#dd0031" fill-opacity="1"/>
      <g>
        <path d="M320 76.8L320 76.8L81.66 161.79L118.02 476.93L320 588.8L320 588.8L320 588.8L521.98 476.93L558.34 161.79L320 76.8L320 76.8Z" transform="matrix(1, 0, 0, 1, 0, 0)" opacity="1" fill-opacity="0" stroke="#000000" stroke-width="1" stroke-opacity="0"/>
      </g>
    </g>
    <g>
      <path d="M320 133.63L320 133.38L320 392.7L320 392.7L320 588.8L320 588.8L521.98 476.93L558.34 161.79L320 76.8L320 76.8L320 133.63Z" transform="matrix(1, 0, 0, 1, 0, 0)" opacity="1" fill="#c3002f" fill-opacity="1"/>
      <g>
        <path d="M320 133.63L320 133.38L320 392.7L320 392.7L320 588.8L320 588.8L521.98 476.93L558.34 161.79L320 76.8L320 76.8L320 133.63Z" transform="matrix(1, 0, 0, 1, 0, 0)" opacity="1" fill-opacity="0" stroke="#000000" stroke-width="1" stroke-opacity="0"/>
      </g>
    </g>
    <g>
      <g>
        <filter id="shadow978288" x="154.5" y="153.38" width="334" height="312.79" filterUnits="userSpaceOnUse" primitiveUnits="userSpaceOnUse">
          <feFlood/>
          <feComposite in2="SourceAlpha" operator="in"/>
          <feGaussianBlur stdDeviation="1.73"/>
          <feOffset dx="3" dy="3" result="afterOffset"/>
          <feFlood flood-color="#000000" flood-opacity="0.5"/>
          <feComposite in2="afterOffset" operator="in"/>
          <feMorphology operator="dilate" radius="3"/>
          <feComposite in2="SourceAlpha" operator="out"/>
        </filter>
        <path d="M383.64 446.17L383.64 318.88L468.5 318.88L320 170.38L171.5 318.88L256.36 318.88L256.36 446.17L383.64 446.17Z" id="d9Yh6C28y" fill="white" fill-opacity="1" filter="url(#shadow978288)"/>
      </g>
      <path d="M383.64 446.17L383.64 318.88L468.5 318.88L320 170.38L171.5 318.88L256.36 318.88L256.36 446.17L383.64 446.17Z" transform="matrix(1, 0, 0, 1, 0, 0)" opacity="1" fill="#ffffff" fill-opacity="1"/>
      <g>
        <path d="M383.64 446.17L383.64 318.88L468.5 318.88L320 170.38L171.5 318.88L256.36 318.88L256.36 446.17L383.64 446.17Z" transform="matrix(1, 0, 0, 1, 0, 0)" opacity="1" fill-opacity="0" stroke="#000000" stroke-width="1" stroke-opacity="0"/>
      </g>
    </g>
  </g>
</svg>