<?xml version="1.0" encoding="utf-8"?>
<!-- Generator: Adobe Illustrator 18.0.0, SVG Export Plug-In . SVG Version: 6.00 Build 0)  -->
<!DOCTYPE svg PUBLIC "-//W3C//DTD SVG 1.1//EN" "http://www.w3.org/Graphics/SVG/1.1/DTD/svg11.dtd">
<svg version="1.1" id="Layer_1" xmlns="http://www.w3.org/2000/svg" xmlns:xlink="http://www.w3.org/1999/xlink" x="0px" y="0px"
	 viewBox="0 0 300 300" enable-background="new 0 0 300 300" xml:space="preserve">
<polygon fill="#474747" points="150,5.6 150,5.6 150,5.6 15.6,53.6 36.1,231.3 150,294.4 150,294.4 150,294.4 263.9,231.3 
	284.4,53.6 "/>
<polygon fill="#343434" points="150,5.6 150,37.7 150,37.5 150,183.8 150,183.8 150,294.4 150,294.4 263.9,231.3 284.4,53.6 "/>
<g>
	<path fill="#FFFFFF" d="M151.4,157.2L136,202.1H136l-11.9,34.3c0.8,0.2,1.7,0.4,2.5,0.6c0.1,0,0.1,0,0.1,0
		c7.4,1.9,15.2,3.1,23.2,3.1c4,0,7.9-0.2,11.7-0.8c5.2-0.6,10.3-1.8,15.3-3.4l0,0c1.2-0.4,2.4-0.8,3.7-1.2c-1.3-2.8-4.1-9.1-4.3-9.4
		L151.4,157.2z"/>
	<path fill="#FFFFFF" d="M67.7,114.6c-4.7,10.6-7.9,23.7-7.9,35.5c0,2.9,0.1,5.9,0.4,8.8c3.2,33.4,24.8,61.6,54.5,74.2
		c1.2,0.5,2.5,1.1,3.8,1.5l-43.7-120C71,114.4,70.3,114.7,67.7,114.6z"/>
	<path fill="#FFFFFF" d="M231.9,112.1c-2-4.4-4.4-8.6-7.1-12.5c-0.8-1.1-1.6-2.2-2.4-3.4c-10.1-13.5-23.9-24.2-39.9-30.4
		c-10.1-4-21.1-6.1-32.5-6.1c-28.3,0-53.7,13.2-70.2,33.7c-3.1,3.8-5.8,7.8-8.2,12c6.7,0.1,14.9,0.1,15.9,0.1
		c8.5,0,21.6-1.1,21.6-1.1c4.4-0.3,4.9,6.1,0.5,6.7c0,0-4.4,0.5-9.3,0.8l29.5,87.9l17.8-53.3L135,112c-4.4-0.2-8.5-0.8-8.5-0.8
		c-4.4-0.2-3.8-7,0.5-6.7c0,0,13.4,1.1,21.4,1.1c8.5,0,21.6-1.1,21.6-1.1c4.4-0.3,5,6.1,0.5,6.7c0,0-4.4,0.5-9.3,0.8l29.3,87.2
		l8.1-27.1c4.1-10.5,6.1-19.2,6.1-26.2c0-10-3.6-17-6.7-22.4c-4.1-6.7-8-12.4-8-19c0-7.5,5.7-14.4,13.6-14.4c0.4,0,0.7,0,1.1,0
		c12.3-0.4,16.3,11.9,16.9,20.2c0,0,0,0.2,0,0.3c0.2,3.4,0.1,5.9,0.1,8.8c0,8.2-1.5,17.5-6.1,29l-18.5,53l-10.5,30.9
		c0.8-0.4,1.7-0.8,2.5-1.2c26.7-12.9,46.1-38.5,50.1-68.9c0.6-4,0.9-8.1,0.9-12.2C240.2,136.6,237.2,123.6,231.9,112.1z"/>
</g>
</svg>
