<svg xmlns="http://www.w3.org/2000/svg" xmlns:xlink="http://www.w3.org/1999/xlink" version="1.1" id="Layer_1" x="0px"
    y="0px" viewBox="0 0 186 200" style="enable-background:new 0 0 186 200;" xml:space="preserve">
    <style type="text/css">
        .st0 {
            fill: #DD0031;
        }

        .st1 {
            fill: #C3002F;
        }

        .st2 {
            fill: #FFFFFF;
        }
    </style>
    <g transform="translate(-32,-30)">
        <polygon class="st0"
            points="125,30 125,30 125,30 31.9,63.2 46.1,186.3 125,230 125,230 125,230 203.9,186.3 218.1,63.2 	" />
        <polygon class="st1"
            points="125,30 125,52.2 125,52.1 125,153.4 125,153.4 125,230 125,230 203.9,186.3 218.1,63.2 125,30 	" />
    </g>
    <svg id="storage" x="20" y="22" class="st2">
        <g>
            <path style=" stroke:none;fill-rule:nonzero;fill-opacity:1;"
                d="M 61.90625 45.761719 C 48.632812 45.761719 36.855469 54.226562 32.609375 66.796875 C 32.226562 67.910156 31.230469 68.730469 30.058594 68.847656 C 18.253906 70.136719 9.347656 80.070312 9.347656 91.960938 C 9.347656 104.796875 19.773438 115.222656 32.609375 115.222656 L 117.390625 115.222656 C 130.226562 115.222656 140.65625 104.792969 140.65625 91.960938 C 140.65625 83.351562 135.90625 75.46875 128.289062 71.398438 C 127.207031 70.8125 126.5625 69.640625 126.679688 68.40625 C 126.769531 67.5 126.828125 66.5625 126.828125 65.625 C 126.828125 48.574219 112.941406 34.6875 95.890625 34.6875 C 86.808594 34.6875 78.195312 38.671875 72.304688 45.644531 C 71.574219 46.523438 70.371094 46.90625 69.257812 46.640625 C 66.738281 46.085938 64.277344 45.761719 61.90625 45.761719 Z M 117.394531 121.375 L 32.609375 121.375 C 16.40625 121.375 3.222656 108.195312 3.222656 91.992188 C 3.222656 77.609375 13.535156 65.507812 27.480469 63.078125 C 33.046875 49.015625 46.640625 39.667969 61.90625 39.667969 C 64.191406 39.667969 66.503906 39.902344 68.878906 40.371094 C 75.878906 32.898438 85.636719 28.652344 95.890625 28.652344 C 116.308594 28.652344 132.921875 45.265625 132.921875 65.683594 C 132.921875 66.152344 132.921875 66.59375 132.890625 67.0625 C 141.503906 72.390625 146.777344 81.765625 146.777344 91.992188 C 146.777344 108.195312 133.59375 121.375 117.390625 121.375 Z M 117.394531 121.375 " />
        </g>
    </svg>
    <g>
        <text class="st2" font-size="55" text-anchor="middle" x="93" y="130">FTP</text>
    </g>
</svg>