<?xml version="1.0" encoding="UTF-8" standalone="no"?>
<!DOCTYPE svg PUBLIC "-//W3C//DTD SVG 1.1//EN" "http://www.w3.org/Graphics/SVG/1.1/DTD/svg11.dtd">
<svg version="1.1" xmlns="http://www.w3.org/2000/svg" xmlns:xlink="http://www.w3.org/1999/xlink" preserveAspectRatio="xMidYMid meet" viewBox="0 0 640 640" width="640" height="640"><defs><path d="M320 76.8L320 76.8L81.66 161.79L118.02 476.93L320 588.8L320 588.8L320 588.8L521.98 476.93L558.34 161.79L320 76.8L320 76.8Z" id="a3ai1qicxi"></path><path d="M320 133.63L320 133.38L320 392.7L320 392.7L320 588.8L320 588.8L521.98 476.93L558.34 161.79L320 76.8L320 76.8L320 133.63Z" id="d2dx77d51"></path><path d="M383.64 446.17L383.64 318.88L468.5 318.88L320 170.38L171.5 318.88L256.36 318.88L256.36 446.17L383.64 446.17Z" id="f1UM4ZRbn"></path><path d="M1011.84 979.2C1011.84 979.2 1011.84 979.2 1011.84 979.2C1011.84 1057.54 1011.84 1101.06 1011.84 1109.76C1011.84 1109.76 1011.84 1109.76 1011.84 1109.76C463.49 1109.76 158.85 1109.76 97.92 1109.76C97.92 1109.76 97.92 1109.76 97.92 1109.76C97.92 1031.42 97.92 987.9 97.92 979.2C97.92 979.2 97.92 979.2 97.92 979.2C646.27 979.2 950.91 979.2 1011.84 979.2Z" id="b7wEDnyhS"></path></defs><g><g><g><use xlink:href="#a3ai1qicxi" opacity="1" fill="#dd0031" fill-opacity="1"></use><g><use xlink:href="#a3ai1qicxi" opacity="1" fill-opacity="0" stroke="#000000" stroke-width="1" stroke-opacity="0"></use></g></g><g><use xlink:href="#d2dx77d51" opacity="1" fill="#c3002f" fill-opacity="1"></use><g><use xlink:href="#d2dx77d51" opacity="1" fill-opacity="0" stroke="#000000" stroke-width="1" stroke-opacity="0"></use></g></g><g><g><filter id="shadow978288" x="154.5" y="153.38" width="334" height="312.79" filterUnits="userSpaceOnUse" primitiveUnits="userSpaceOnUse"><feFlood></feFlood><feComposite in2="SourceAlpha" operator="in"></feComposite><feGaussianBlur stdDeviation="1.73"></feGaussianBlur><feOffset dx="3" dy="3" result="afterOffset"></feOffset><feFlood flood-color="#000000" flood-opacity="0.5"></feFlood><feComposite in2="afterOffset" operator="in"></feComposite><feMorphology operator="dilate" radius="3"></feMorphology><feComposite in2="SourceAlpha" operator="out"></feComposite></filter><path d="M383.64 446.17L383.64 318.88L468.5 318.88L320 170.38L171.5 318.88L256.36 318.88L256.36 446.17L383.64 446.17Z" id="d9Yh6C28y" fill="white" fill-opacity="1" filter="url(#shadow978288)"></path></g><use xlink:href="#f1UM4ZRbn" opacity="1" fill="#ffffff" fill-opacity="1"></use><g><use xlink:href="#f1UM4ZRbn" opacity="1" fill-opacity="0" stroke="#000000" stroke-width="1" stroke-opacity="0"></use></g></g><g><use xlink:href="#b7wEDnyhS" opacity="1" fill="#000000" fill-opacity="1"></use><g><use xlink:href="#b7wEDnyhS" opacity="1" fill-opacity="0" stroke="#000000" stroke-width="1" stroke-opacity="0"></use></g></g></g></g></svg>