<?xml version="1.0" encoding="UTF-8" standalone="no"?>
<!-- Created with Inkscape (http://www.inkscape.org/) -->

<svg
   xmlns:dc="http://purl.org/dc/elements/1.1/"
   xmlns:cc="http://creativecommons.org/ns#"
   xmlns:rdf="http://www.w3.org/1999/02/22-rdf-syntax-ns#"
   xmlns:svg="http://www.w3.org/2000/svg"
   xmlns="http://www.w3.org/2000/svg"
   xmlns:sodipodi="http://sodipodi.sourceforge.net/DTD/sodipodi-0.dtd"
   xmlns:inkscape="http://www.inkscape.org/namespaces/inkscape"
   width="1000"
   height="1000"
   viewBox="0 0 264.58334 264.58332"
   version="1.1"
   id="svg8"
   inkscape:version="0.92.2 (5c3e80d, 2017-08-06)"
   sodipodi:docname="PairAngular Logo.svg"
   inkscape:export-filename="C:\Users\siddh\Desktop\PairAngular Background.png"
   inkscape:export-xdpi="96"
   inkscape:export-ydpi="96">
  <defs
     id="defs2">
    <path
       d="M 48.33,12.64 27.45,0.59 c -1.35,-0.78 -3.03,-0.78 -4.38,0 L 2.19,12.64 c -1.35,0.79 -2.18,2.23 -2.18,3.8 v 24.12 c 0,1.56 0.83,3 2.18,3.79 l 10.45,6.04 V 62.7 c 0,0.73 0.59,1.31 1.32,1.31 0.23,0 0.45,-0.06 0.65,-0.18 L 48.36,44.36 c 1.35,-0.78 2.19,-2.22 2.18,-3.79 V 16.44 c -0.01,-1.58 -0.85,-3.02 -2.21,-3.8 z"
       id="path_1"
       inkscape:connector-curvature="0" />
    <style
       id="style865">.cls-1,.cls-3,.cls-7{fill:none;}.cls-1{stroke:#dbd9d9;}.cls-1,.cls-3,.cls-6{stroke-miterlimit:10;}.cls-1,.cls-3,.cls-5,.cls-6,.cls-7{stroke-width:2px;}.cls-2{clip-path:url(#clip-path);}.cls-3{stroke:#56504e;}.cls-4,.cls-5{fill:#eb7818;}.cls-5{stroke:#e97816;}.cls-5,.cls-7{stroke-linecap:round;stroke-linejoin:round;}.cls-6{fill:#fff;stroke:#2870b5;}.cls-7{stroke:#fff;}</style>
    <clipPath
       id="clip-path">
      <circle
         id="circle867"
         r="31.780001"
         cy="49.650002"
         cx="44.889999"
         class="cls-1"
         style="fill:none;stroke:#dbd9d9;stroke-width:2px;stroke-miterlimit:10" />
    </clipPath>
  </defs>
  <sodipodi:namedview
     id="base"
     pagecolor="#ffffff"
     bordercolor="#666666"
     borderopacity="1.0"
     inkscape:pageopacity="0.0"
     inkscape:pageshadow="2"
     inkscape:zoom="0.4"
     inkscape:cx="996.64785"
     inkscape:cy="513.86563"
     inkscape:document-units="mm"
     inkscape:current-layer="layer2"
     showgrid="false"
     units="px"
     inkscape:lockguides="false"
     inkscape:window-width="1920"
     inkscape:window-height="1051"
     inkscape:window-x="-9"
     inkscape:window-y="-9"
     inkscape:window-maximized="1" />
  <metadata
     id="metadata5">
    <rdf:RDF>
      <cc:Work
         rdf:about="">
        <dc:format>image/svg+xml</dc:format>
        <dc:type
           rdf:resource="http://purl.org/dc/dcmitype/StillImage" />
        <dc:title></dc:title>
      </cc:Work>
    </rdf:RDF>
  </metadata>
  <g
     inkscape:label="Background"
     inkscape:groupmode="layer"
     id="layer1"
     transform="translate(0,-32.416677)" />
  <g
     inkscape:groupmode="layer"
     id="layer2"
     inkscape:label="Icons"
     transform="translate(0,-21.166667)">
    <g
       transform="matrix(1.4215127,0,0,1.4215127,-45.397421,-24.230754)"
       id="g1674"
       style="stroke-width:0.18612802">
      <polygon
         transform="matrix(0.87,0,0,0.87,16.25,11.9)"
         class="st0"
         points="46.1,186.3 125,230 203.9,186.3 218.1,63.2 125,30 31.9,63.2 "
         id="polygon4"
         style="fill:#dd0031;stroke-width:0.21394023" />
      <polygon
         transform="matrix(0.87,0,0,0.87,16.25,11.9)"
         class="st1"
         points="125,230 203.9,186.3 218.1,63.2 125,30 125,52.2 125,52.1 125,153.4 "
         id="polygon6"
         style="fill:#c3002f;stroke-width:0.21394023" />
      <g
         transform="matrix(0.01238816,0,0,0.01238816,75.449828,101.7584)"
         id="g1168"
         style="clip-rule:evenodd;fill:#ffffff;fill-rule:evenodd;stroke-width:15.02465725;image-rendering:optimizeQuality;shape-rendering:geometricPrecision;text-rendering:geometricPrecision">
        <g
           style="fill:#ffffff;stroke-width:15.02465725"
           id="g1149">
          <g
             style="fill:#ffffff;stroke-width:15.02465725"
             id="g1147">
            <path
               style="fill:#ffffff;fill-rule:nonzero;stroke-width:15.02465725"
               inkscape:connector-curvature="0"
               class="fil0"
               d="m 3781,4114 c 11,-456 68,-1135 -568,-1135 h -847 v -627 c 131,-95 223,-181 312,-318 75,-115 131,-242 167,-373 l 14,-52 50,-17 c 31,-11 61,-33 86,-64 78,-98 102,-326 -33,-377 l -65,-24 c -4,-179 -2,-568 -167,-676 -98,-64 -214,-24 -335,-84 -178,-178 -556,-187 -787,-132 -472,112 -504,350 -516,770 l -4,123 -61,25 c -135,55 -108,285 -25,381 47,55 84,59 149,75 34,126 78,255 137,375 88,179 179,286 338,403 v 592 H 779 c -636,0 -579,679 -569,1135 z m 204,205 H 7 C 7,3687 -128,2774 779,2774 h 642 V 2488 C 1204,2309 1065,2037 984,1773 933,1749 887,1713 847,1667 688,1482 675,1147 888,998 903,483 988,171 1562,35 c 295,-69 712,-46 951,162 93,8 198,12 285,45 160,62 281,230 300,751 214,143 207,475 56,663 -36,45 -79,81 -126,106 -82,268 -237,517 -457,692 v 320 h 642 c 906,0 772,913 772,1545 z"
               id="path1143" />
            <path
               style="fill:#ffffff;fill-rule:nonzero;stroke-width:15.02465725"
               inkscape:connector-curvature="0"
               class="fil0"
               d="m 4622,2790 h 765 v -210 c -176,0 -320,14 -462,-126 -237,-232 -51,-1034 -24,-1327 51,-561 485,-1022 1075,-969 138,12 287,52 445,124 497,-58 691,395 767,889 42,275 149,1078 -61,1284 -143,141 -285,125 -462,125 v 210 h 777 c 735,0 532,1032 532,1514 H 4075 c 0,-485 -189,-1514 547,-1514 z m 862,192 h -862 c -469,0 -379,793 -358,1130 h 3521 c 22,-333 123,-1130 -343,-1130 h -969 v -595 c 148,0 411,38 519,-69 124,-121 32,-949 6,-1118 -63,-406 -211,-780 -577,-724 l -55,-8 c -149,-71 -284,-108 -406,-119 -482,-43 -827,340 -868,795 -19,205 -173,1036 -33,1174 109,107 371,69 521,69 v 595 z"
               id="path1145" />
          </g>
        </g>
        <text
           style="font-weight:bold;font-size:5px;font-family:'Helvetica Neue', Helvetica, Arial-Unicode, Arial, Sans-serif;fill:#ffffff;stroke-width:15.02465725"
           x="0"
           y="4334"
           font-size="5px"
           font-weight="bold"
           id="text1151">Created by riska ambiya mahfudin</text>
        <text
           style="font-weight:bold;font-size:5px;font-family:'Helvetica Neue', Helvetica, Arial-Unicode, Arial, Sans-serif;fill:#ffffff;stroke-width:15.02465725"
           x="0"
           y="4339"
           font-size="5px"
           font-weight="bold"
           id="text1153">from the Noun Project</text>
      </g>
      <g
         style="stroke-width:0.21394023"
         transform="matrix(0.87,0,0,0.87,16.25,22.501463)"
         id="g1434">
        <g
           id="g1415"
           transform="translate(-97.135081,-148.97026)"
           style="fill:#ffffff;stroke-width:0.21394023">
          <polygon
             transform="matrix(1.410459,0,0,1.410459,174.53209,168.15296)"
             style="fill:#ffffff;stroke-width:0.15168129"
             points="38.4,51.8 39.4,52.9 43.6,48.9 39.4,44.9 38.4,46 41.4,48.9 "
             id="polygon1348" />
          <polygon
             transform="matrix(1.410459,0,0,1.410459,174.53209,168.15296)"
             style="fill:#ffffff;stroke-width:0.15168129"
             points="28.1,52.9 29.2,51.8 26.1,48.9 29.2,46 28.1,44.9 23.9,48.9 "
             id="polygon1350" />
          <rect
             style="fill:#ffffff;stroke-width:0.21394536"
             x="-305.35971"
             y="-124.85252"
             transform="rotate(-153.68605)"
             width="2.1157391"
             height="21.439489"
             id="rect1352" />
        </g>
        <ellipse
           style="opacity:1;fill:#ffffff;fill-opacity:0;fill-rule:nonzero;stroke:#ffffff;stroke-width:0.64182079;stroke-miterlimit:4;stroke-dasharray:none;stroke-opacity:1"
           id="path1410"
           cx="125"
           cy="88.229713"
           rx="20.25"
           ry="20" />
      </g>
    </g>
  </g>
  <style
     id="style1065"
     type="text/css">
	.st0{fill:#DD0031;}
	.st1{fill:#C3002F;}
	.st2{fill:#FFFFFF;}
</style>
  <style
     id="style3"
     type="text/css">
	.st0{fill:#FF0000;}
	.st1{fill:#FFFFFF;}
	.st2{fill:#282828;}
</style>
</svg>
