<?xml version="1.0" encoding="utf-8"?>
<!-- Generator: Adobe Illustrator 23.0.1, SVG Export Plug-In . SVG Version: 6.00 Build 0)  -->
<svg version="1.1" id="Layer_1" xmlns="http://www.w3.org/2000/svg" xmlns:xlink="http://www.w3.org/1999/xlink" x="0px" y="0px"
	 viewBox="0 0 1080 1080" style="enable-background:new 0 0 1080 1080;" xml:space="preserve">
<style type="text/css">
	.st0{fill:#2C4E7B;}
	.st1{fill:#2173D9;}
	.st2{fill:#FFFFFF;}
	.st3{fill:#EAEAEA;}
	.st4{fill:#3A3A3A;}
</style>
<path class="st0" d="M1020.5,201.9L538.9,37.7v1008.4l403.6-223.4L1020.5,201.9L1020.5,201.9z"/>
<path class="st1" d="M69.8,204.9l71.7,620.8l397.4,220.4V37.7L69.8,204.9L69.8,204.9z"/>
<path class="st2" d="M117,235.7l64.6,559.1l357.9,198.5V85.1L117,235.7L117,235.7z"/>
<polygon class="st3" points="539.5,993.2 903,792.1 973.2,233 973.3,233 539.5,85.1 "/>
<path class="st2" d="M463.4,506.5c0,0-25.8-47.4-70-56.6s-83.8,2.8-110,28.3s13.8,39.4,39.1,50.9
	C347.8,540.6,492.9,554.4,463.4,506.5z"/>
<path class="st4" d="M880.7,478.8c-2.4-49.3-27.6-75.4-33.9-81.1c-1.1-1-2.2-2.1-3.3-3.2c-46.6-48.2-102.4-53.4-117-53.9
	c-2.5-0.1-5.1-0.2-7.6-0.5c-56.6-6.4-106.8,8.6-139.9,22.8c-26.2,11.3-56,11.5-82.4,0.6c-33.1-13.6-83.2-27.6-139.8-20.1
	c-2,0.3-4.1,0.5-6.1,0.7c-14.1,1.1-84.3,8.8-117.6,54.1c-1.8,2.4-3.6,4.7-5.6,6.9c-8.3,9.4-31.2,42.5-20.8,108.9
	c0,0,11.9,108.9,149.9,125.2c1.2,0.1,2.3,0.3,3.5,0.5c6.9,1,25.3,4.9,75.3,2.3c23.2-1.2,43.9-16,58.9-33.8
	c8.2-9.8,22-19.1,44.5-19.1s36.3,9.2,44.6,18.8c16.4,19,38.4,36.5,63.5,35.7c43.5-1.5,60.3-5.7,67.1-6.9c1.3-0.2,2.6-0.4,3.9-0.6
	c98.5-13.4,138.9-75,154-109.3C878.6,511.5,881.5,495.2,880.7,478.8z M322.5,529.1c-25.3-11.5-65.4-25.3-39.1-50.9
	c26.2-25.6,65.8-37.5,110-28.3s70,56.6,70,56.6C492.9,554.4,347.8,540.6,322.5,529.1z M753.6,529.1
	c-25.3,11.5-170.4,25.3-140.9-22.6c0,0,25.8-47.4,70-56.6c44.2-9.2,83.8,2.8,110,28.3C819,503.8,778.9,517.6,753.6,529.1z"/>
</svg>
