<!-- Generated by IcoMoon.io -->
<svg version="1.1" xmlns="http://www.w3.org/2000/svg" width="640" height="640" viewBox="0 0 640 640">
<title>untitled</title>
<path fill="#dd0031" d="M21.837 106.237l45.468 393.922 252.684 139.841 252.684-139.841 45.479-393.922-298.141-106.236-298.174 106.236z"></path>
<path fill="#c3002f" d="M320.011 639.999l252.684-139.841 45.468-393.922-298.152-106.236v639.997z"></path>
<path fill="#fff" d="M282.47 159.532c-2.616 5.942-7.184 15.356-7.772 16.010-0.51 0.576-2.395 0.599-30.423 0.599-1.996 0-11.952 0-29.879 0-1.031 1.308-1.607 2.029-1.719 2.173-0.954 1.186-2.484 3.093-3.415 4.235-0.931 1.153-3.925 4.856-6.663 8.227-3.282 4.047-5.278 6.231-5.832 6.364-0.765 0.199-8.67-0.421-16.387-1.275-1.619-0.177-3.792-0.321-4.845-0.332-0.122 0-0.765-0.011-1.907-0.011-2.262 2.339-3.526 3.648-3.769 3.903-2.084 2.151-6.209 6.475-9.169 9.624-2.971 3.149-8.914 9.391-13.204 13.87-4.302 4.479-9.723 10.2-12.063 12.717-0.277 0.299-1.696 1.829-4.235 4.568l0.078 30.068 0.089 30.068 37.175 0.178c0.809-0.676 1.253-1.042 1.352-1.12 1.652-1.386 21.221-18.449 36.454-31.798 10.355-9.069 11.287-9.978 11.22-10.909-0.033-0.566-0.178-2.217-0.311-3.647-0.61-6.808 4.59-15.677 10.932-18.637 4.767-2.218 14.247-1.020 18.748 2.361 16.83 12.661 3.293 38.605-16.93 32.429-2.772-0.842-2.14-1.219-11.043 6.553-4.146 3.614-13.87 12.096-21.597 18.848s-15.167 13.204-16.542 14.336c-3.126 2.561-2.727 0.377-3.559 19.813-0.388 9.147-0.854 19.668-1.031 23.394-1.086 21.775-1.253 20.4 2.506 21.276 14.136 3.282 19.247 20.633 9.091 30.866-5.111 5.144-12.595 7.007-19.236 4.801-1.231-0.41-2.96-0.842-3.848-0.964-2.007-0.266-5.787-2.073-8.271-3.947-10.544-7.972-9.136-24.17 2.661-30.766 2.805-1.563 2.517-0.266 3.049-13.204 0.266-6.231 0.721-16.863 1.009-23.637 0.299-6.774 0.632-14.181 0.754-16.476 0.321-5.998 2.938-5.344-21.731-5.344-24.059 0-21.088-0.466-28.15 4.446-2.694 1.874-6.408 4.446-8.271 5.732-3.593 2.473-3.692 2.627-4.224 6.286-0.266 1.796-2.184 13.926-2.639 16.619-0.189 1.153-0.654 4.102-1.042 6.586-0.388 2.473-1.097 6.918-1.563 9.868-0.466 2.96-1.319 8.338-1.896 11.952-0.566 3.614-1.186 7.517-1.386 8.659-0.798 4.856-2.728 17.096-2.916 18.526-0.299 2.229-0.621 1.752 13.471 19.569 5.022 6.342 13.038 16.52 19.403 24.602 13.416 17.030 15.81 19.946 16.553 20.278 0.421 0.178 4.59 1.419 9.257 2.749 41.787 11.886 51.411 14.568 52.131 14.568 0.831 0 2.96-1.863 15.544-13.681 2.849-2.661 6.242-5.821 7.561-7.018 0.155-0.144 0.954-0.865 2.384-2.162 13.038-0.011 20.278-0.011 21.731-0.011 16.409-0.011 21.897-0.122 22.429-0.433 1.752-1.042 17.972-18.781 18.116-19.813 0.066-0.61-1.164-2.184-5.388-6.819-26.809-29.425-33.704-37.086-33.704-37.452 0-0.244 0.621-3.016 1.386-6.153 0.776-3.137 2.007-8.482 2.772-11.863 0.776-3.371 2.029-8.914 2.794-12.296 0.765-3.371 1.951-8.559 2.616-11.519 0.676-2.949 1.541-6.707 1.918-8.349 1.031-4.391 0.942-4.656-1.851-5.832-14.402-6.064-15.356-26.642-1.541-33.449 5.521-2.716 11.154-2.572 17.651 0.454 1.563 0.732 4.024 1.874 5.455 2.528 14.879 6.763 13.094 28.948-2.772 34.481-0.122 0.044-0.765 0.266-1.907 0.654-0.754 3.126-1.175 4.856-1.253 5.2-0.699 2.861-1.829 7.761-2.539 10.909-1.219 5.399-2.694 11.863-5.533 24.303-0.688 2.971-1.253 5.876-1.253 6.442 0 1.053-0.222 0.809 30.267 34.293 4.346 4.789 8.249 8.781 8.659 8.903 1.242 0.333 17.451 0.233 18.36-0.111 0.876-0.333 1.43-1.219 9.080-14.347 2.084-3.581 4.080-6.819 4.412-7.184 0.61-0.654 1.874-0.665 66.556-0.665 62.364 0 65.957-0.033 66.445-0.61 0.277-0.333 3.348-5.089 6.819-10.555 0.421-0.665 2.517-3.98 6.298-9.945l-0.199-37.962c-3.293-7.273-5.123-11.309-5.488-12.118-6.508-14.347-5.799-13.316-8.67-12.539-20.722 5.51-32.552-21.775-14.591-33.638 2.262-1.486 4.823-2.217 13.338-3.759 15.711-2.861 27.451 15.056 18.693 28.482-1.685 2.583-1.696 2.184 0.222 6.475 0.876 1.951 2.262 5.211 3.093 7.24s2.761 6.452 4.313 9.823c3.636 7.949 3.459 6.863 3.47 22.596 0.011 13.072 0.033 13.604 0.676 13.936 1.031 0.554 28.017 0.477 29.104-0.089 0.532-0.266 1.796-2.062 3.326-4.756 17.695-31.044 24.070-42.341 24.070-42.729 0-0.41-10.333-41.488-14.336-57.021-1.763-6.841-1.696-6.73-5.588-8.448-28.416-12.506-43.040-19.114-43.395-19.569-0.332-0.433-0.433-4.213-0.444-16.165 0-8.581-0.133-15.821-0.299-16.087-0.166-0.255-5.588-1.996-12.041-3.858-41.532-12.018-40.922-11.841-41.765-11.397-0.444 0.233-3.603 2.55-7.029 5.156-3.437 2.616-8.847 6.641-12.018 8.958-8.138 5.942-7.207 3.038-7.207 22.429 0 1.086 0 6.552 0 16.387-0.466 0.344-0.732 0.532-0.776 0.566-0.433 0.321-8.659 5.277-18.283 11.021-20.267 12.107-18.149 9.967-16.986 17.296 3.371 21.054 5.921 36.642 6.076 37.053 0.089 0.266 1.541 1.098 3.204 1.851 18.194 8.193 12.473 35.523-7.428 35.489-16.553-0.022-24.636-21.143-12.495-32.663 0.166-0.155 0.987-0.931 2.472-2.328-0.477-3.071-0.743-4.779-0.798-5.111-0.444-2.805-1.175-7.839-1.607-11.176-0.433-3.326-1.275-8.947-1.863-12.462-2.805-16.974-3.792-23.626-3.614-24.103 0.111-0.288 8.326-5.377 18.261-11.309s18.393-11.065 18.793-11.419c0.809-0.732 1.519-20.821 0.776-22.208-0.299-0.566-1.829-0.599-26.376-0.521-1.741 0.011-10.422 0.044-26.054 0.089-0.954 1.408-1.486 2.195-1.586 2.351-11.386 16.786-35.213 9.269-34.192-10.787 0.898-17.618 24.391-23.504 33.871-8.493 1.974 3.149-0.299 2.938 31.31 2.828 1.874 0 11.242-0.033 28.106-0.1 1.874-1.364 2.905-2.129 3.116-2.284 15.211-11.109 22.351-16.476 23.316-17.496 0.078-0.078 0.454-0.488 1.142-1.209-0.056-4.391-0.1-6.819-0.1-7.306-0.111-7.24-0.111-7.306-0.931-7.872-0.454-0.311-7.706-4.779-16.109-9.912-1.020-0.632-6.109-3.748-15.278-9.358-33.173-0.044-51.599-0.077-55.291-0.089-52.397-0.077-55.313-0.044-55.801 0.521 0 0 0.011-0.011 0.044-0.022-0.831 1.508-1.53 2.927-2.129 4.269z"></path>
</svg>
