<svg version="1.1" xmlns="http://www.w3.org/2000/svg" width="561" height="600" viewBox="0 0 561 600">
<title>thoughtram</title>
<path fill="#63a7be" d="M0.844 99.597l42.626 369.301 236.891 131.101 236.891-131.101 42.636-369.301-279.507-99.596z"></path>
<path fill="#3f8096" opacity="0.5" d="M280.382 599.998l236.891-131.101 42.626-369.301-279.517-99.596v599.996z"></path>
<path fill="#fff" d="M245.187 149.561c-2.453 5.571-6.735 14.396-7.286 15.009-0.478 0.54-2.245 0.561-28.522 0.561-1.871 0-11.205 0-28.011 0-0.967 1.226-1.506 1.902-1.611 2.037-0.894 1.112-2.329 2.9-3.202 3.97-0.873 1.081-3.68 4.553-6.247 7.713-3.077 3.794-4.948 5.842-5.467 5.966-0.717 0.186-8.128-0.395-15.363-1.195-1.518-0.166-3.555-0.301-4.542-0.311-0.114 0-0.717-0.011-1.788-0.011-2.121 2.193-3.306 3.42-3.533 3.659-1.954 2.017-5.821 6.070-8.596 9.022-2.786 2.952-8.357 8.804-12.379 13.003-4.033 4.199-9.115 9.563-11.309 11.922-0.26 0.28-1.59 1.714-3.97 4.283l0.073 28.189 0.083 28.189 34.852 0.167c0.758-0.634 1.175-0.977 1.267-1.050 1.549-1.3 19.895-17.296 34.175-29.811 9.708-8.502 10.581-9.354 10.519-10.227-0.031-0.531-0.167-2.078-0.292-3.419-0.572-6.383 4.303-14.697 10.249-17.472 4.469-2.079 13.356-0.956 17.576 2.214 15.778 11.87 3.087 36.192-15.872 30.402-2.599-0.789-2.006-1.143-10.353 6.144-3.887 3.388-13.003 11.34-20.247 17.67s-14.219 12.379-15.508 13.44c-2.931 2.401-2.556 0.353-3.336 18.575-0.364 8.575-0.8 18.439-0.967 21.932-1.018 20.414-1.175 19.125 2.35 19.946 13.253 3.077 18.044 19.344 8.523 28.937-4.792 4.822-11.808 6.569-18.034 4.501-1.154-0.384-2.775-0.789-3.608-0.904-1.881-0.25-5.425-1.944-7.754-3.7-9.885-7.474-8.565-22.659 2.495-28.843 2.63-1.465 2.36-0.25 2.858-12.379 0.25-5.842 0.676-15.809 0.946-22.16 0.28-6.35 0.592-13.295 0.707-15.446 0.301-5.623 2.754-5.010-20.373-5.010-22.555 0-19.77-0.437-26.391 4.168-2.525 1.757-6.008 4.168-7.754 5.374-3.369 2.319-3.461 2.463-3.96 5.893-0.25 1.684-2.047 13.056-2.474 15.58-0.177 1.081-0.613 3.846-0.977 6.175-0.364 2.319-1.028 6.486-1.465 9.251-0.437 2.775-1.236 7.817-1.778 11.205-0.531 3.388-1.112 7.047-1.3 8.118-0.748 4.553-2.558 16.028-2.734 17.368-0.28 2.089-0.582 1.642 12.629 18.346 4.708 5.946 12.223 15.488 18.19 23.064 12.578 15.966 14.822 18.7 15.519 19.011 0.395 0.167 4.303 1.33 8.678 2.577 39.175 11.143 48.198 13.658 48.873 13.658 0.779 0 2.775-1.747 14.572-12.826 2.671-2.495 5.852-5.457 7.089-6.579 0.145-0.135 0.894-0.811 2.235-2.027 12.223-0.011 19.011-0.011 20.373-0.011 15.383-0.011 20.528-0.114 21.027-0.406 1.642-0.977 16.849-17.607 16.984-18.575 0.062-0.572-1.091-2.047-5.051-6.393-25.133-27.586-31.597-34.768-31.597-35.111 0-0.229 0.582-2.828 1.3-5.769 0.728-2.941 1.881-7.952 2.599-11.122 0.728-3.161 1.902-8.357 2.619-11.528 0.717-3.161 1.829-8.024 2.453-10.799 0.634-2.764 1.445-6.288 1.798-7.827 0.967-4.117 0.883-4.365-1.736-5.467-13.502-5.685-14.396-24.977-1.445-31.358 5.176-2.546 10.457-2.411 16.548 0.425 1.465 0.686 3.772 1.757 5.114 2.37 13.949 6.34 12.275 27.139-2.599 32.326-0.114 0.041-0.717 0.25-1.788 0.613-0.707 2.931-1.102 4.553-1.175 4.875-0.655 2.682-1.714 7.276-2.38 10.227-1.143 5.061-2.525 11.122-5.187 22.784-0.645 2.786-1.175 5.509-1.175 6.039 0 0.987-0.208 0.758 28.375 32.15 4.075 4.489 7.733 8.232 8.118 8.347 1.164 0.312 16.361 0.219 17.213-0.104 0.821-0.312 1.341-1.143 8.512-13.45 1.954-3.357 3.825-6.393 4.136-6.735 0.572-0.613 1.757-0.623 62.396-0.623 58.466 0 61.835-0.031 62.292-0.572 0.26-0.312 3.139-4.771 6.393-9.895 0.395-0.623 2.36-3.731 5.904-9.323l-0.186-35.589c-3.087-6.819-4.803-10.602-5.145-11.361-6.101-13.45-5.436-12.484-8.128-11.755-19.427 5.166-30.517-20.414-13.679-31.536 2.121-1.393 4.522-2.078 12.504-3.524 14.729-2.682 25.736 14.115 17.525 26.702-1.58 2.422-1.59 2.047 0.208 6.070 0.821 1.829 2.121 4.886 2.9 6.787s2.589 6.049 4.044 9.209c3.409 7.452 3.243 6.434 3.253 21.184 0.011 12.255 0.031 12.754 0.634 13.065 0.967 0.519 26.266 0.447 27.285-0.083 0.499-0.25 1.684-1.933 3.118-4.459 16.589-29.104 22.566-39.695 22.566-40.058 0-0.384-9.687-38.895-13.44-53.457-1.653-6.414-1.59-6.309-5.239-7.92-26.64-11.725-40.35-17.919-40.683-18.346-0.311-0.406-0.406-3.95-0.416-15.155 0-8.045-0.125-14.832-0.28-15.081-0.156-0.239-5.239-1.871-11.289-3.617-38.936-11.267-38.364-11.101-39.155-10.685-0.416 0.219-3.378 2.391-6.589 4.834-3.222 2.453-8.294 6.226-11.267 8.398-7.629 5.571-6.756 2.848-6.756 21.027 0 1.018 0 6.142 0 15.363-0.437 0.322-0.686 0.499-0.728 0.531-0.406 0.301-8.118 4.947-17.14 10.332-19 11.35-17.014 9.344-15.925 16.215 3.161 19.738 5.551 34.352 5.696 34.737 0.083 0.25 1.445 1.029 3.004 1.736 17.057 7.681 11.694 33.303-6.964 33.271-15.519-0.021-23.096-19.822-11.714-30.622 0.156-0.145 0.925-0.873 2.317-2.183-0.447-2.879-0.697-4.48-0.748-4.792-0.416-2.63-1.102-7.349-1.506-10.478-0.406-3.118-1.195-8.388-1.747-11.683-2.63-15.913-3.555-22.15-3.388-22.597 0.104-0.27 7.806-5.041 17.12-10.602s17.244-10.373 17.619-10.705c0.758-0.686 1.424-19.52 0.728-20.82-0.28-0.531-1.714-0.561-24.728-0.489-1.632 0.011-9.771 0.041-24.425 0.083-0.894 1.32-1.393 2.058-1.487 2.204-10.675 15.737-33.012 8.689-32.055-10.113 0.842-16.517 22.867-22.035 31.754-7.962 1.85 2.952-0.28 2.754 29.353 2.651 1.757 0 10.539-0.031 26.35-0.094 1.757-1.279 2.723-1.996 2.921-2.141 14.261-10.414 20.954-15.446 21.859-16.403 0.073-0.073 0.425-0.458 1.071-1.133-0.053-4.117-0.094-6.393-0.094-6.85-0.104-6.787-0.104-6.85-0.873-7.38-0.425-0.292-7.225-4.48-15.102-9.292-0.956-0.592-5.727-3.514-14.323-8.773-31.1-0.041-48.374-0.072-51.836-0.083-49.122-0.072-51.856-0.041-52.314 0.489 0 0 0.011-0.011 0.041-0.021-0.779 1.414-1.434 2.744-1.996 4.002l-0.002-0.006z"></path>
</svg>
