<?xml version="1.0" encoding="utf-8"?>
<!-- Generator: Adobe Illustrator 21.0.0, SVG Export Plug-In . SVG Version: 6.00 Build 0)  -->
<svg version="1.1" id="Layer_1" xmlns="http://www.w3.org/2000/svg" xmlns:xlink="http://www.w3.org/1999/xlink" x="0px" y="0px"
	 viewBox="0 0 46.4 49.8" style="enable-background:new 0 0 46.4 49.8;" xml:space="preserve">
<style type="text/css">
	.st0{fill:#9E62C9;}
	.st1{fill:#724AB1;}
	.st2{fill:#FFFFFF;}
</style>
<g>
	<path class="st0" d="M23.2,0L0,8.3l3.6,30.6l19.6,10.9l19.7-10.9l3.5-30.6"/>
	<path class="st1" d="M23.2,0v49.8l19.7-10.9l3.5-30.6"/>
	<path class="st2" d="M28.8,28.2c-0.7,1.2-1.4,2.1-2.1,2.9c-0.9,1-1.8,1.6-3,2.1c-1.3,0.6-2.4,0.9-4.3,0.9s-3.5-0.6-4.5-1.2
		s-1.9-1.3-2.6-2.3c-0.5-0.7-0.9-1.3-1.2-2c-0.1-0.4-0.4-1.1-0.4-1.2c-0.2-0.8-0.4-1.3-0.4-3.2V14H13v10.2c0.1,0.7,0.3,2.1,0.4,2.7
		c0.1,0.4,0.1,0.5,0.3,1s0.4,0.9,0.8,1.3c0.5,0.6,1,1.1,1.7,1.5c0.7,0.4,1.8,0.9,3.2,0.9c2.3,0,3.9-1.1,5.3-2.3
		c0.6-0.6,1.3-1.8,1.9-2.9c0.1-0.3,0.4-0.9,0.4-0.9h4.2l-3.1-8.3l-5,9.6h-2.7V13.9h2.7v7l3.6-7h3L37,33.7h-2.9L32,28.1
		C32,28.1,28.8,28.2,28.8,28.2z"/>
</g>
</svg>
